<?xml version="1.0" standalone="no"?>
<!DOCTYPE svg PUBLIC "-//W3C//DTD SVG 1.1//EN" "http://www.w3.org/Graphics/SVG/1.1/DTD/svg11.dtd" >
<svg xmlns="http://www.w3.org/2000/svg" xmlns:xlink="http://www.w3.org/1999/xlink" version="1.1">
<metadata>
Created by FontForge 20170731 at Wed Dec 15 17:19:27 2021
 By Aleksey,,,
(c) 2020 by Face37 Ltd. All rights reserved.
</metadata>
<defs>
<font id="F37Gruffy-Bold" horiz-adv-x="1401" >
  <font-face 
    font-family="F37 Gruffy"
    font-weight="700"
    font-stretch="normal"
    units-per-em="2048"
    panose-1="0 0 0 0 0 0 0 0 0 0"
    ascent="1638"
    descent="-410"
    x-height="1079"
    cap-height="1484"
    bbox="-508 -735 2950 2366"
    underline-thickness="100"
    underline-position="-355"
    unicode-range="U+0020-F8FF"
  />
<missing-glyph horiz-adv-x="1638" 
d="M313 0v924q-55 -4 -90 -41.5t-35 -89.5q0 -36 19 -73.5t47 -47.5q-50 3 -90.5 56.5t-40.5 123.5q0 44 18.5 86t63.5 76t108 41v317h973v-915q82 -41 154 -41q44 0 76 10q-78 -86 -175 -86q-23 0 -55 5v-345h-973zM436 123h725v266q-132 64 -325 223l-195 158
q-112 91 -205 128v-775zM436 1048q72 -15 140.5 -54t150.5 -107l207 -170q160 -134 227 -182v714h-725v-201z" />
    <glyph glyph-name="f_f.liga" unicode="ff" horiz-adv-x="1395" 
d="M150 0v840h-160v239h160v112q0 176 113 283.5t289 107.5q217 0 321 -135q96 135 287 135q159 0 272 -89.5t146 -256.5l-261 -51q-17 75 -55 110.5t-101 35.5q-144 0 -144 -153v-99h388v-239h-388v-840h-285v840h-297v-840h-285zM435 1079h297v99q0 153 -153 153
q-144 0 -144 -153v-99z" />
    <glyph glyph-name="f_f_i.liga" unicode="ffi" horiz-adv-x="1661" 
d="M150 0v840h-160v239h160v112q0 176 113 283.5t289 107.5q217 0 321 -135q96 135 287 135q159 0 272 -89.5t146 -256.5l-261 -51q-17 75 -55 110.5t-101 35.5q-144 0 -144 -153v-99h552v-1079h-284v840h-268v-840h-285v840h-297v-840h-285zM435 1079h297v99
q0 153 -153 153q-144 0 -144 -153v-99z" />
    <glyph glyph-name="f_f_j.liga" unicode="ffj" horiz-adv-x="1670" 
d="M150 0v840h-160v239h160v112q0 176 113 283.5t289 107.5q217 0 321 -135q96 135 287 135q159 0 272 -89.5t146 -256.5l-261 -51q-17 75 -55 110.5t-101 35.5q-144 0 -144 -153v-99h565v-1172q0 -177 -114 -284.5t-296 -107.5q-172 0 -287.5 90t-141.5 258l253 50
q19 -76 56.5 -111t102.5 -35q143 0 143 153v920h-281v-840h-285v840h-297v-840h-285zM435 1079h297v99q0 153 -153 153q-144 0 -144 -153v-99z" />
    <glyph glyph-name="f_i.liga" unicode="fi" horiz-adv-x="1080" 
d="M150 0v840h-160v239h160v112q0 176 116 283.5t296 107.5q170 0 286 -89t149 -257l-261 -51q-17 76 -54.5 111t-102.5 35q-144 0 -144 -153v-99h547v-1079h-284v840h-263v-840h-285z" />
    <glyph glyph-name="f_j.liga" unicode="fj" horiz-adv-x="1083" 
d="M584 -485q-171 0 -287 90t-142 258l254 50q17 -75 55 -110.5t103 -35.5q144 0 144 153v920h-276v-840h-285v840h-160v239h160v112q0 176 116 283.5t296 107.5q170 0 286 -89t149 -257l-261 -51q-17 76 -54.5 111t-102.5 35q-144 0 -144 -153v-99h559v-1172
q0 -177 -114 -284.5t-296 -107.5z" />
    <glyph glyph-name="g_j.liga" unicode="gj" horiz-adv-x="1876" 
d="M576 -484q-431 0 -613 343l227 136q46 -79 91 -125t118 -74.5t176 -28.5q145 0 231.5 83t86.5 241v45q-121 -116 -305 -116q-105 0 -199 40t-164 110t-111 171.5t-41 218.5q0 156 70 280t187.5 191.5t257.5 67.5q184 0 305 -116v96h286v-1159q0 -153 153 -153
q144 0 144 153v1159h284v-1172q0 -176 -113 -284t-289 -108q-241 0 -343 157q-159 -156 -439 -156zM358 560q0 -134 76 -211t192 -77q115 0 191 77t76 211t-76 211t-191 77q-116 0 -192 -77t-76 -211zM1442 1392q0 77 50.5 126t124.5 49t125 -49t51 -126q0 -78 -51 -127
t-125 -49t-124.5 49t-50.5 127z" />
    <glyph glyph-name="j_j.liga" unicode="jj" horiz-adv-x="1104" 
d="M-21 -485q-159 0 -272 89.5t-146 257.5l261 51q18 -76 55.5 -111t100.5 -35q145 0 145 153v1159h284v-1159q0 -153 154 -153q144 0 144 153v1159h284v-1172q0 -176 -113 -284t-289 -108q-216 0 -320 136q-95 -136 -288 -136zM89 1392q0 77 51 126t125 49t124.5 -49
t50.5 -126q0 -78 -50.5 -127t-124.5 -49t-125 49t-51 127zM671 1392q0 77 50.5 126t124.5 49t125 -49t51 -126q0 -78 -51 -127t-125 -49t-124.5 49t-50.5 127z" />
    <glyph glyph-name="f_idieresis.calt" unicode="f&#xef;" horiz-adv-x="1331" 
d="M150 0v840h-160v239h160v112q0 177 118.5 284t309.5 107q181 0 299.5 -88.5t151.5 -257.5l-261 -51q-18 77 -58 111.5t-115 34.5q-160 0 -160 -153v-99h389v-239h-389v-840h-285zM930 0v1079h285v-1079h-285zM1132 1378q0 71 47 116.5t114 45.5q68 0 115 -45.5t47 -116.5
t-47 -116t-115 -45t-114.5 45t-46.5 116z" />
    <glyph glyph-name=".notdef" horiz-adv-x="1638" 
d="M313 0v924q-55 -4 -90 -41.5t-35 -89.5q0 -36 19 -73.5t47 -47.5q-50 3 -90.5 56.5t-40.5 123.5q0 44 18.5 86t63.5 76t108 41v317h973v-915q82 -41 154 -41q44 0 76 10q-78 -86 -175 -86q-23 0 -55 5v-345h-973zM436 123h725v266q-132 64 -325 223l-195 158
q-112 91 -205 128v-775zM436 1048q72 -15 140.5 -54t150.5 -107l207 -170q160 -134 227 -182v714h-725v-201z" />
    <glyph glyph-name=".null" horiz-adv-x="0" 
 />
    <glyph glyph-name="nonmarkingreturn" horiz-adv-x="682" 
 />
    <glyph glyph-name="space" unicode=" " horiz-adv-x="505" 
 />
    <glyph glyph-name="exclam" unicode="!" horiz-adv-x="521" 
d="M118 495v989h285v-989h-285zM84 157q0 79 51 128.5t126 49.5t126.5 -49.5t51.5 -128.5q0 -78 -51.5 -127.5t-126.5 -49.5t-126 49t-51 128z" />
    <glyph glyph-name="quotedbl" unicode="&#x22;" horiz-adv-x="995" 
d="M225 805l-87 390q-22 94 -22 136q0 72 48 117t114 45t113.5 -44.5t47.5 -117.5q0 -48 -22 -136l-85 -390h-107zM556 1331q0 72 48 117t114 45t113.5 -44.5t47.5 -117.5q0 -48 -22 -136l-85 -390h-107l-87 390q-22 94 -22 136z" />
    <glyph glyph-name="numbersign" unicode="#" horiz-adv-x="1444" 
d="M164 0l63 353h-197v239h239l54 300h-197v239h239l63 353h289l-63 -353h275l63 353h289l-63 -353h196v-239h-238l-54 -300h196v-239h-238l-63 -353h-289l63 353h-275l-63 -353h-289zM558 592h275l54 300h-275z" />
    <glyph glyph-name="dollar" unicode="$" horiz-adv-x="1267" 
d="M546 1708h232v-215q227 -41 349 -206l-197 -156q-105 132 -285 132q-100 0 -161 -48.5t-61 -131.5q0 -76 42 -112t138 -61l238 -63q89 -23 154 -56t113.5 -81.5t72.5 -117.5t24 -160q0 -195 -115.5 -309t-311.5 -137v-210h-232v212q-404 54 -485 460l288 49
q29 -143 109 -209t212 -66q117 0 185 52.5t68 145.5q0 74 -45.5 115t-144.5 67l-213 57q-196 53 -286.5 148t-90.5 268q0 165 107 281.5t296 142.5v209z" />
    <glyph glyph-name="percent" unicode="%" horiz-adv-x="2088" 
d="M470 760q-180 0 -287 107t-107 266q0 160 107 266t287 106q178 0 284.5 -106t106.5 -266q0 -159 -106.5 -266t-284.5 -107zM332 1133q0 -70 36 -110t102 -40q65 0 100.5 40t35.5 110t-36 110.5t-100 40.5q-65 0 -101.5 -40.5t-36.5 -110.5zM440 0l915 1485h294
l-916 -1485h-293zM1227 352q0 159 106.5 266t284.5 107q180 0 287 -107t107 -266t-107 -265t-287 -106q-178 0 -284.5 106t-106.5 265zM1482 352q0 -70 36 -110t100 -40q66 0 102.5 40t36.5 110q0 71 -36 110.5t-103 39.5q-64 0 -100 -40t-36 -110z" />
    <glyph glyph-name="ampersand" unicode="&#x26;" horiz-adv-x="1460" 
d="M1223 -22l-137 136q-181 -134 -450 -134q-142 0 -252 35t-176.5 95.5t-100.5 137t-34 165.5q0 80 20.5 143.5t62 112.5t91.5 84.5t121 71.5q-70 76 -105.5 153t-35.5 170q0 154 116.5 255.5t311.5 101.5q204 0 321.5 -104t117.5 -269q0 -250 -304 -384l284 -282
q57 117 25 293l255 39q12 -86 13.5 -172t-23.5 -182t-75 -170l141 -140zM350 419q0 -88 75 -144t214 -56q160 0 266 73l-366 363q-98 -48 -143.5 -101t-45.5 -135zM497 1136q0 -54 19.5 -96t72.5 -94l33 -32q104 47 152 98t48 119q0 66 -43.5 103t-116.5 37q-79 0 -122 -39
t-43 -96z" />
    <glyph glyph-name="quotesingle" unicode="'" horiz-adv-x="555" 
d="M225 805l-87 390q-22 94 -22 136q0 72 48 117t114 45t113.5 -44.5t47.5 -117.5q0 -48 -22 -136l-85 -390h-107z" />
    <glyph glyph-name="parenleft" unicode="(" horiz-adv-x="570" 
d="M402 -350q-156 190 -238.5 427.5t-82.5 500.5q0 264 82.5 501.5t238.5 427.5l197 -140q-238 -332 -238 -789q0 -458 238 -788z" />
    <glyph glyph-name="parenright" unicode=")" horiz-adv-x="569" 
d="M160 1507q156 -190 238.5 -427.5t82.5 -500.5q0 -264 -82.5 -501.5t-238.5 -427.5l-197 140q238 332 238 789q0 458 -238 788z" />
    <glyph glyph-name="asterisk" unicode="*" horiz-adv-x="811" 
d="M284 779l-173 127l184 189l-260 42l67 204l234 -116l-37 259h214l-38 -258l234 116l67 -205l-259 -42l183 -188l-173 -126l-121 233z" />
    <glyph glyph-name="plus" unicode="+" horiz-adv-x="1065" 
d="M390 203v349h-329v239h329v350h285v-350h329v-239h-329v-349h-285z" />
    <glyph glyph-name="comma" unicode="," horiz-adv-x="520" 
d="M131 -363l-117 75l182 291q-50 15 -81 56.5t-31 97.5q0 79 51 128.5t126 49.5t126.5 -50.5t51.5 -132.5q0 -21 -2 -39.5t-9.5 -38t-11.5 -31t-17.5 -32.5t-18.5 -28t-24 -32.5t-24 -32.5z" />
    <glyph glyph-name="hyphen" unicode="-" horiz-adv-x="621" 
d="M48 635v239h525v-239h-525z" />
    <glyph glyph-name="period" unicode="." horiz-adv-x="520" 
d="M261 -20q-75 0 -126 49t-51 128t51 128.5t126 49.5t126.5 -49.5t51.5 -128.5q0 -78 -51.5 -127.5t-126.5 -49.5z" />
    <glyph glyph-name="slash" unicode="/" horiz-adv-x="808" 
d="M-82 -410l669 1894h303l-669 -1894h-303z" />
    <glyph glyph-name="zero" unicode="0" horiz-adv-x="1412" 
d="M706 -20q-282 0 -451 207.5t-169 554.5t169 555t451 208t451.5 -208t169.5 -555t-169.5 -554.5t-451.5 -207.5zM373 742q0 -239 84.5 -374.5t248.5 -135.5q165 0 249 136t84 374t-84 374t-249 136q-164 0 -248.5 -135t-84.5 -375z" />
    <glyph glyph-name="one" unicode="1" horiz-adv-x="662" 
d="M241 0v1242h-226l43 242h467v-1484h-284z" />
    <glyph glyph-name="two" unicode="2" horiz-adv-x="1227" 
d="M89 0v188l496 507q119 122 166 198.5t47 164.5q0 93 -59.5 143t-156.5 50q-184 0 -240 -202l-257 74q97 382 503 382q233 0 365.5 -117.5t132.5 -320.5q0 -82 -19 -151.5t-64 -139.5t-96 -129.5t-138 -147.5l-253 -260h647v-239h-1074z" />
    <glyph glyph-name="three" unicode="3" horiz-adv-x="1292" 
d="M644 -20q-266 0 -423.5 122.5t-174.5 340.5l281 50q14 -124 94 -193t223 -69q123 0 197.5 60.5t74.5 159.5q0 98 -79 150.5t-214 52.5h-142v241h142q105 0 167 49.5t62 137.5q0 80 -61 126t-158 46q-83 0 -143.5 -45t-86.5 -119l-254 80q35 141 161.5 238t319.5 97
q230 0 370.5 -111t140.5 -283q0 -117 -53.5 -201t-152.5 -129q270 -77 270 -351q0 -204 -156 -327t-405 -123z" />
    <glyph glyph-name="four" unicode="4" horiz-adv-x="1337" 
d="M782 0v322h-732v211l736 951h280v-923h230v-239h-230v-322h-284zM374 561h408v530z" />
    <glyph glyph-name="five" unicode="5" horiz-adv-x="1197" 
d="M595 -22q-212 0 -355.5 89t-193.5 267l267 87q27 -94 97.5 -143t176.5 -49q107 0 178.5 60.5t71.5 174.5q0 113 -73 174.5t-183 61.5q-124 0 -205 -84l-244 58l92 810h834v-239h-600l-42 -348q88 53 207 53q222 0 355 -129t133 -344q0 -224 -140.5 -361.5t-375.5 -137.5z
" />
    <glyph glyph-name="six" unicode="6" horiz-adv-x="1286" 
d="M672 -20q-276 0 -431 175.5t-155 524.5q0 169 32.5 306.5t89 233t135.5 160t170.5 94.5t195.5 30q324 0 497 -264l-206 -148q-118 161 -290 161q-140 0 -228 -104t-107 -329q116 118 312 118q216 0 357 -135t141 -344t-143.5 -344t-369.5 -135zM394 459
q0 -108 73.5 -174.5t185.5 -66.5q113 0 185.5 63t72.5 178t-72.5 178t-185.5 63q-114 0 -186.5 -63t-72.5 -178z" />
    <glyph glyph-name="seven" unicode="7" horiz-adv-x="1196" 
d="M251 0l565 1245h-778v239h1105v-198l-584 -1286h-308z" />
    <glyph glyph-name="eight" unicode="8" horiz-adv-x="1334" 
d="M667 1505q238 0 378 -113t140 -295q0 -106 -51.5 -186.5t-148.5 -128.5q262 -96 262 -360q0 -204 -160 -323t-420 -119t-420 119t-160 323q0 264 262 360q-97 48 -148.5 129t-51.5 187q0 182 140 294.5t378 112.5zM373 443q0 -97 78.5 -154.5t215.5 -57.5t215.5 57.5
t78.5 154.5t-83 153.5t-211 56.5t-211 -56.5t-83 -153.5zM436 1073q0 -83 62.5 -130.5t168.5 -47.5t168.5 47.5t62.5 130.5t-62.5 132t-168.5 49t-168.5 -49t-62.5 -132z" />
    <glyph glyph-name="nine" unicode="9" horiz-adv-x="1283" 
d="M568 -20q-385 0 -574 332l204 153q133 -234 356 -234q134 0 227 94.5t122 293.5q-121 -115 -308 -115q-219 0 -364.5 143.5t-145.5 356.5q0 214 148 357t377 143q280 0 433.5 -174t153.5 -528q0 -168 -32.5 -305.5t-89.5 -232.5t-136.5 -159.5t-172.5 -94.5t-198 -30z
M369 1004q0 -115 74.5 -182t186.5 -67q113 0 187 67t74 182t-74 182t-187 67q-112 0 -186.5 -67t-74.5 -182z" />
    <glyph glyph-name="colon" unicode=":" horiz-adv-x="520" 
d="M261 -20q-75 0 -126 49t-51 128t51 128.5t126 49.5t126.5 -49.5t51.5 -128.5q0 -78 -51.5 -127.5t-126.5 -49.5zM84 893q0 79 51 128.5t126 49.5t126.5 -49.5t51.5 -128.5q0 -78 -51.5 -127.5t-126.5 -49.5t-126 49t-51 128z" />
    <glyph glyph-name="semicolon" unicode=";" horiz-adv-x="520" 
d="M261 716q-75 0 -126 49t-51 128t51 128.5t126 49.5t126.5 -49.5t51.5 -128.5q0 -78 -51.5 -127.5t-126.5 -49.5zM14 -288l182 291q-50 15 -81 56.5t-31 97.5q0 79 51 128.5t126 49.5t126.5 -50.5t51.5 -132.5q0 -21 -2 -39.5t-9.5 -38t-11.5 -31t-17.5 -32.5t-18.5 -28
t-24 -32.5t-24 -32.5l-201 -281z" />
    <glyph glyph-name="less" unicode="&#x3c;" horiz-adv-x="1145" 
d="M1043 1151v-285l-659 -218l659 -216v-295l-961 342v329z" />
    <glyph glyph-name="equal" unicode="=" horiz-adv-x="1065" 
d="M61 798v239h943v-239h-943zM61 306v240h943v-240h-943z" />
    <glyph glyph-name="greater" unicode="&#x3e;" horiz-adv-x="1145" 
d="M102 137v285l659 218l-659 216v295l961 -342v-329z" />
    <glyph glyph-name="question" unicode="?" horiz-adv-x="1065" 
d="M379 463v82q0 107 38 165t150 131q93 60 130 105.5t37 120.5q0 80 -53 132t-147 52q-95 0 -147.5 -52t-52.5 -132q0 -52 17 -102l-268 -60q-30 80 -30 175q0 186 132 305.5t351 119.5q223 0 353.5 -125t130.5 -314q0 -137 -52 -222t-167 -159q-78 -52 -103 -86.5
t-25 -91.5v-44h-294zM350 157q0 79 51 128.5t126 49.5t126.5 -49.5t51.5 -128.5q0 -78 -51.5 -127.5t-126.5 -49.5t-126 49t-51 128z" />
    <glyph glyph-name="at" unicode="@" horiz-adv-x="2000" 
d="M1019 -344q-282 0 -494 114.5t-325.5 323t-113.5 482.5q0 202 65.5 372t184 289.5t289 186t374.5 66.5t376.5 -65.5t290 -179.5t183 -269.5t65.5 -332.5q0 -242 -106 -376t-303 -134q-45 0 -88 9t-84.5 28.5t-75 54.5t-52.5 82q-48 -81 -121 -127.5t-166 -46.5
q-173 0 -286 125t-113 312q0 188 112.5 313.5t286.5 125.5q129 0 223 -92v77h270v-518q0 -71 27.5 -103t83.5 -32q76 0 116.5 68.5t40.5 233.5q0 135 -45.5 252t-130 205t-214.5 138.5t-290 50.5q-211 0 -365.5 -89.5t-234 -250t-79.5 -373.5q0 -329 183.5 -524.5
t515.5 -195.5q204 0 376 96l100 -179q-213 -117 -476 -117zM789 570q0 -91 50 -146.5t129 -55.5q78 0 125.5 55t47.5 147q0 94 -48 149.5t-125 55.5q-79 0 -129 -56t-50 -149z" />
    <glyph glyph-name="A" unicode="A" horiz-adv-x="1514" 
d="M48 0l541 1484h338l539 -1484h-311l-93 271h-618l-94 -271h-302zM527 513h451l-225 653z" />
    <glyph glyph-name="B" unicode="B" horiz-adv-x="1420" 
d="M130 0v1484h757q163 0 278 -107.5t115 -267.5q0 -110 -53.5 -195t-138.5 -132q105 -40 171 -129t66 -225q0 -190 -123 -309t-308 -119h-764zM418 223h400q95 0 156.5 61.5t61.5 159.5q0 100 -61.5 158t-162.5 58h-394v-437zM418 883h386q78 0 133 54.5t55 135.5
q0 82 -54.5 135t-133.5 53h-386v-378z" />
    <glyph glyph-name="C" unicode="C" horiz-adv-x="1568" 
d="M796 -20q-152 0 -282.5 54.5t-225 152.5t-148.5 241.5t-54 313.5t54 313.5t148.5 241.5t225 153t282.5 55q250 0 427.5 -134t236.5 -365l-279 -56q-41 141 -140 220t-245 79q-191 0 -306.5 -138t-115.5 -369t115.5 -369t306.5 -138q146 0 245.5 79.5t140.5 220.5l278 -56
q-58 -232 -236 -365.5t-428 -133.5z" />
    <glyph glyph-name="D" unicode="D" horiz-adv-x="1471" 
d="M130 0v1484h561q150 0 278 -53t220 -148.5t144 -235t52 -305.5q0 -221 -89.5 -390.5t-247 -260.5t-357.5 -91h-561zM418 255h273q187 0 296.5 133.5t109.5 353.5q0 221 -109.5 354t-296.5 133h-273v-974z" />
    <glyph glyph-name="E" unicode="E" horiz-adv-x="1332" 
d="M130 0v1484h1059v-249h-771v-357h672v-250h-672v-378h812v-250h-1100z" />
    <glyph glyph-name="F" unicode="F" horiz-adv-x="1299" 
d="M130 0v1484h1066v-255h-778v-427h692v-255h-692v-547h-288z" />
    <glyph glyph-name="G" unicode="G" horiz-adv-x="1609" 
d="M816 -20q-330 0 -530 208t-200 554q0 171 52 314t145 241.5t224.5 153t287.5 54.5q250 0 427.5 -124t243.5 -343l-277 -68q-45 132 -145.5 205.5t-248.5 73.5q-190 0 -305.5 -138t-115.5 -369q0 -233 120.5 -370t330.5 -137q114 0 210 47.5t163 135.5v279h289v-697h-233
l-13 122q-170 -142 -425 -142z" />
    <glyph glyph-name="H" unicode="H" horiz-adv-x="1508" 
d="M130 0v1484h288v-622h672v622h288v-1484h-288v606h-672v-606h-288z" />
    <glyph glyph-name="I" unicode="I" horiz-adv-x="548" 
d="M130 0v1484h288v-1484h-288z" />
    <glyph glyph-name="J" unicode="J" horiz-adv-x="1131" 
d="M536 -19q-203 0 -322.5 95.5t-138.5 286.5l286 52q15 -179 175 -179q177 0 177 195v1053h288v-1057q0 -223 -122 -334.5t-343 -111.5z" />
    <glyph glyph-name="K" unicode="K" horiz-adv-x="1486" 
d="M130 0v1484h288v-662l592 662h364l-598 -656l658 -828h-365l-494 629l-157 -172v-457h-288z" />
    <glyph glyph-name="L" unicode="L" horiz-adv-x="1276" 
d="M130 0v1484h288v-1229h776v-255h-1064z" />
    <glyph glyph-name="M" unicode="M" horiz-adv-x="1788" 
d="M130 0v1484h406l357 -1100l359 1100h406v-1484h-274v1068l-348 -1068h-297l-349 1074v-1074h-260z" />
    <glyph glyph-name="N" unicode="N" horiz-adv-x="1515" 
d="M130 0v1484h263l718 -992v992h275v-1484h-270l-712 985v-985h-274z" />
    <glyph glyph-name="O" unicode="O" horiz-adv-x="1598" 
d="M799 -20q-206 0 -367.5 93.5t-253.5 267.5t-92 401q0 170 53.5 313.5t147.5 242t226 153t286 54.5t285.5 -54.5t226 -153t148 -241.5t53.5 -314t-53.5 -314t-148 -241t-226 -152.5t-285.5 -54.5zM374 742q0 -232 115 -369.5t310 -137.5q196 0 310.5 138t114.5 369
t-114.5 369t-310.5 138q-195 0 -310 -137.5t-115 -369.5z" />
    <glyph glyph-name="P" unicode="P" horiz-adv-x="1390" 
d="M130 0v1484h661q138 0 252 -61t181.5 -175.5t67.5 -260.5q0 -221 -144.5 -360t-356.5 -139h-373v-488h-288zM418 744h345q111 0 176 66t65 177q0 110 -65 176t-176 66h-345v-485z" />
    <glyph glyph-name="Q" unicode="Q" horiz-adv-x="1596" 
d="M1096 -349q-318 0 -413 337q-268 39 -432.5 242t-164.5 512q0 170 53.5 313.5t147.5 242t226 153t286 54.5t285.5 -54.5t226 -153t148 -241.5t53.5 -314q0 -290 -146 -488t-389 -254q19 -61 53 -87.5t88 -26.5q71 0 158 42l88 -208q-135 -69 -268 -69zM374 742
q0 -232 115 -369.5t310 -137.5q196 0 310.5 138t114.5 369t-114.5 369t-310.5 138q-195 0 -310 -137.5t-115 -369.5z" />
    <glyph glyph-name="R" unicode="R" horiz-adv-x="1438" 
d="M130 0v1484h705q201 0 334.5 -127t133.5 -335q0 -162 -84.5 -273t-225.5 -154l369 -596h-339l-333 561h-272v-560h-288zM418 815h389q92 0 150 57.5t58 149.5t-58 149.5t-150 57.5h-389v-414z" />
    <glyph glyph-name="S" unicode="S" horiz-adv-x="1267" 
d="M679 -20q-526 0 -618 468l288 49q29 -143 109 -209t212 -66q117 0 185 52.5t68 145.5q0 74 -45.5 115t-144.5 67l-213 57q-196 53 -286.5 148t-90.5 268q0 90 33.5 168t96 136.5t157.5 92t211 33.5q154 0 280 -55t206 -163l-197 -156q-105 132 -285 132
q-100 0 -161 -48.5t-61 -131.5q0 -76 42 -112t138 -61l238 -63q89 -23 154 -56t113.5 -81.5t72.5 -117.5t24 -160q0 -219 -144.5 -335.5t-381.5 -116.5z" />
    <glyph glyph-name="T" unicode="T" horiz-adv-x="1324" 
d="M518 0v1229h-487v255h1263v-255h-488v-1229h-288z" />
    <glyph glyph-name="U" unicode="U" horiz-adv-x="1508" 
d="M754 -20q-271 0 -447.5 166t-176.5 418v920h288v-915q0 -147 90 -240.5t246 -93.5t246 93.5t90 240.5v915h288v-920q0 -166 -80 -299.5t-223 -209t-321 -75.5z" />
    <glyph glyph-name="V" unicode="V" horiz-adv-x="1514" 
d="M588 0l-540 1484h311l402 -1166l403 1166h302l-540 -1484h-338z" />
    <glyph glyph-name="W" unicode="W" horiz-adv-x="2012" 
d="M426 0l-392 1484h302l249 -1035l293 1035h273l294 -1037l248 1037h284l-388 -1484h-287l-297 1031l-293 -1031h-286z" />
    <glyph glyph-name="X" unicode="X" horiz-adv-x="1446" 
d="M15 0l503 760l-479 724h354l328 -507l326 507h350l-474 -716l508 -768h-353l-357 551l-357 -551h-349z" />
    <glyph glyph-name="Y" unicode="Y" horiz-adv-x="1415" 
d="M562 0v583l-542 901h331l359 -624l360 624h325l-544 -900v-584h-289z" />
    <glyph glyph-name="Z" unicode="Z" horiz-adv-x="1362" 
d="M104 0v234l782 992h-761v258h1112v-233l-781 -993h802v-258h-1154z" />
    <glyph glyph-name="bracketleft" unicode="[" horiz-adv-x="666" 
d="M130 -328v1812h504v-251h-220v-1310h220v-251h-504z" />
    <glyph glyph-name="backslash" unicode="\" horiz-adv-x="808" 
d="M587 -410l-669 1894h303l669 -1894h-303z" />
    <glyph glyph-name="bracketright" unicode="]" horiz-adv-x="666" 
d="M536 1484v-1812h-504v251h220v1310h-220v251h504z" />
    <glyph glyph-name="asciicircum" unicode="^" horiz-adv-x="1064" 
d="M4 610l373 874h309l374 -874h-319l-213 585l-215 -585h-309z" />
    <glyph glyph-name="underscore" unicode="_" horiz-adv-x="1030" 
d="M48 -293v239h934v-239h-934z" />
    <glyph glyph-name="grave" unicode="`" horiz-adv-x="1126" 
d="M473 1199l-182 407h304l67 -407h-189z" />
    <glyph glyph-name="a" unicode="a" horiz-adv-x="1161" 
d="M427 -20q-150 0 -244 77t-94 216q0 58 18.5 105t49 80t79.5 60t99.5 45.5t120.5 36.5l309 81q-26 175 -224 175q-175 0 -277 -168l-198 122q80 139 209 214t299 75q226 0 352.5 -119.5t126.5 -330.5v-649h-258v157q-57 -84 -150.5 -130.5t-217.5 -46.5zM373 301
q0 -56 35.5 -85.5t95.5 -29.5q107 0 186 64.5t79 182.5v74l-245 -68q-75 -21 -113 -54t-38 -84z" />
    <glyph glyph-name="b" unicode="b" horiz-adv-x="1290" 
d="M715 -20q-106 0 -194 46t-151 130v-156h-257v1562h285v-606q127 143 317 143q100 0 191.5 -40t160 -111.5t109.5 -178t41 -230.5t-41 -230t-109.5 -177.5t-160 -111.5t-191.5 -40zM398 539q0 -146 75.5 -227t191.5 -81q117 0 192.5 81t75.5 227t-75.5 227.5t-192.5 81.5
q-116 0 -191.5 -81.5t-75.5 -227.5z" />
    <glyph glyph-name="c" unicode="c" horiz-adv-x="1242" 
d="M638 -20q-118 0 -221 38.5t-179.5 108.5t-120.5 176.5t-44 235.5q0 172 76 300.5t203.5 194t285.5 65.5q213 0 356.5 -103t182.5 -294l-284 -49q-22 94 -90.5 144.5t-164.5 50.5q-124 0 -202 -78.5t-78 -230.5q0 -151 78 -229.5t202 -78.5q96 0 164.5 50t90.5 144
l284 -48q-39 -192 -182 -294.5t-357 -102.5z" />
    <glyph glyph-name="d" unicode="d" horiz-adv-x="1290" 
d="M575 -20q-101 0 -192 40t-160 111.5t-109.5 177.5t-40.5 230t40.5 230.5t109.5 178t160 111.5t192 40q191 0 317 -142v605h285v-1562h-257v157q-62 -84 -151 -130.5t-194 -46.5zM357 539q0 -146 75.5 -227t192.5 -81q116 0 191.5 81t75.5 227t-75.5 227.5t-191.5 81.5
q-117 0 -192.5 -81.5t-75.5 -227.5z" />
    <glyph glyph-name="e" unicode="e" horiz-adv-x="1232" 
d="M626 -20q-157 0 -282.5 68.5t-198 196.5t-72.5 294t73.5 294.5t200 197t283.5 68.5q244 0 386.5 -141t142.5 -398v-72h-799q13 -129 86 -197t180 -68q186 0 268 162l245 -91q-68 -148 -200.5 -231t-312.5 -83zM376 667h485q-21 94 -80 141.5t-151 47.5q-90 0 -158 -48
t-96 -141z" />
    <glyph glyph-name="f" unicode="f" horiz-adv-x="814" 
d="M150 0v840h-160v239h160v112q0 176 116 283.5t296 107.5q170 0 286 -89t149 -257l-261 -51q-17 76 -54.5 111t-102.5 35q-144 0 -144 -153v-99h389v-239h-389v-840h-285z" />
    <glyph glyph-name="g" unicode="g" horiz-adv-x="1290" 
d="M576 -484q-429 0 -613 344l227 135q33 -59 65.5 -97.5t77.5 -70t104.5 -46t137.5 -14.5q144 0 231 83t87 241v43q-125 -114 -305 -114q-105 0 -199 40t-164 110t-111 171.5t-41 218.5q0 156 70 280t187.5 191.5t257.5 67.5q179 0 305 -113v93h284v-988
q0 -272 -163 -423.5t-438 -151.5zM358 560q0 -134 76 -211t192 -77q115 0 191 77t76 211t-76 211t-191 77q-116 0 -192 -77t-76 -211z" />
    <glyph glyph-name="h" unicode="h" horiz-adv-x="1249" 
d="M857 0v622q0 104 -64.5 168.5t-167.5 64.5q-99 0 -163 -64.5t-64 -167.5v-623h-285v1562h285v-610q111 147 314 147q193 0 311 -123t118 -319v-657h-284z" />
    <glyph glyph-name="i" unicode="i" horiz-adv-x="516" 
d="M116 0v1079h284v-1079h-284zM83 1392q0 77 50.5 126t124.5 49t125 -49t51 -126q0 -78 -51 -127t-125 -49t-124.5 49t-50.5 127z" />
    <glyph glyph-name="j" unicode="j" horiz-adv-x="516" 
d="M-10 -485q-171 0 -287 90t-142 258l259 51q18 -77 54.5 -112.5t102.5 -35.5t102.5 38.5t36.5 115.5v1159h284v-1172q0 -177 -114 -284.5t-296 -107.5zM82 1392q0 77 51 126t125 49t124.5 -49t50.5 -126q0 -78 -50.5 -127t-124.5 -49t-125 49t-51 127z" />
    <glyph glyph-name="k" unicode="k" horiz-adv-x="1267" 
d="M892 0l-322 446l-172 -170v-276h-285v1562h285v-949l452 466h359l-429 -442l463 -637h-351z" />
    <glyph glyph-name="l" unicode="l" horiz-adv-x="664" 
d="M436 -20q-69 0 -125 17t-101.5 54t-71 101.5t-25.5 152.5v1257h285v-1227q0 -104 90 -104q42 0 88 20l79 -217q-103 -54 -219 -54z" />
    <glyph glyph-name="m" unicode="m" horiz-adv-x="1964" 
d="M110 0v1079h271v-143q110 163 322 163q125 0 221.5 -56t148.5 -156q51 102 142.5 157t214.5 55q192 0 309 -121.5t117 -320.5v-657h-284v630q0 100 -62.5 163t-162.5 63q-98 0 -160 -63t-62 -161v-632h-284v630q0 100 -62.5 163t-162.5 63q-98 0 -160 -63t-62 -161v-632
h-284z" />
    <glyph glyph-name="n" unicode="n" horiz-adv-x="1246" 
d="M854 0v622q0 103 -64 168t-168 65q-100 0 -164 -65t-64 -167v-623h-284v1079h271v-147q111 167 328 167q192 0 310.5 -122.5t118.5 -319.5v-657h-284z" />
    <glyph glyph-name="o" unicode="o" horiz-adv-x="1250" 
d="M625 -20q-157 0 -282 68.5t-197.5 196.5t-72.5 294q0 251 156.5 405.5t395.5 154.5q156 0 281.5 -68.5t198 -197t72.5 -294.5q0 -250 -156.5 -404.5t-395.5 -154.5zM358 539q0 -149 75 -228.5t192 -79.5q118 0 193 79.5t75 228.5t-75.5 229t-192.5 80t-192 -80t-75 -229z
" />
    <glyph glyph-name="p" unicode="p" horiz-adv-x="1287" 
d="M110 -464v1543h284v-123q127 143 318 143q101 0 192 -40t160 -111.5t109.5 -178t40.5 -230.5t-40.5 -230t-109.5 -177.5t-160 -111.5t-192 -40q-191 0 -318 143v-587h-284zM394 539q0 -146 76 -227t192 -81q117 0 192.5 81t75.5 227t-75.5 227.5t-192.5 81.5
q-116 0 -192 -81.5t-76 -227.5z" />
    <glyph glyph-name="q" unicode="q" horiz-adv-x="1287" 
d="M893 -464v587q-124 -143 -317 -143q-101 0 -192 40t-160 111.5t-109.5 177.5t-40.5 230t40.5 230.5t109.5 178t160 111.5t192 40q193 0 317 -143v123h284v-1543h-284zM358 539q0 -146 75.5 -227t192.5 -81q116 0 191.5 81t75.5 227t-75.5 227.5t-191.5 81.5
q-117 0 -192.5 -81.5t-75.5 -227.5z" />
    <glyph glyph-name="r" unicode="r" horiz-adv-x="1073" 
d="M110 0v1079h258v-121q97 140 284 140q159 0 258 -104.5t99 -286.5v-52l-273 -23v29q0 194 -170 194q-82 0 -127 -51.5t-45 -147.5v-656h-284z" />
    <glyph glyph-name="s" unicode="s" horiz-adv-x="1068" 
d="M567 -20q-207 0 -341.5 81.5t-171.5 254.5l251 49q28 -81 96.5 -124.5t167.5 -43.5q84 0 135.5 29t51.5 85q0 45 -30.5 68t-102.5 37l-196 39q-162 32 -239.5 105t-77.5 203q0 151 117 243.5t311 92.5q131 0 245 -55t170 -156l-207 -113q-32 50 -90.5 77.5t-125.5 27.5
q-79 0 -122.5 -31t-43.5 -80q0 -41 29.5 -62.5t95.5 -34.5l199 -39q166 -33 242.5 -103t76.5 -213q0 -163 -120 -250t-320 -87z" />
    <glyph glyph-name="t" unicode="t" horiz-adv-x="1015" 
d="M569 -20q-195 0 -302.5 99.5t-107.5 278.5v482h-160v239h160v250h284v-250h435v-239h-435v-456q0 -153 141 -153q65 0 104 35.5t57 110.5l261 -51q-33 -168 -149.5 -257t-287.5 -89z" />
    <glyph glyph-name="u" unicode="u" horiz-adv-x="1246" 
d="M392 1079v-622q0 -103 64 -168t168 -65q100 0 164 65t64 167v623h284v-1079h-271v147q-111 -167 -328 -167q-192 0 -310.5 122.5t-118.5 319.5v657h284z" />
    <glyph glyph-name="v" unicode="v" horiz-adv-x="1172" 
d="M432 0l-431 1079h319l272 -772l272 772h306l-430 -1079h-308z" />
    <glyph glyph-name="w" unicode="w" horiz-adv-x="1690" 
d="M339 0l-310 1079h288l186 -747l213 747h272l209 -730l180 730h284l-307 -1079h-307l-201 693l-200 -693h-307z" />
    <glyph glyph-name="x" unicode="x" horiz-adv-x="1175" 
d="M14 0l385 547l-376 532h338l233 -346l233 346h317l-373 -530l387 -549h-335l-240 358l-245 -358h-324z" />
    <glyph glyph-name="y" unicode="y" horiz-adv-x="1228" 
d="M551 -484q-411 0 -582 336l227 138q63 -118 144 -170.5t198 -52.5q142 0 217 76t75 220v112q-116 -143 -328 -143q-188 0 -301.5 121t-113.5 322v604h284v-590q0 -111 59 -171.5t166 -60.5q105 0 169.5 63t64.5 166v593h285v-1016q0 -257 -149.5 -402t-414.5 -145z" />
    <glyph glyph-name="z" unicode="z" horiz-adv-x="1070" 
d="M78 0v202l528 637h-518v240h894v-202l-528 -637h538v-240h-914z" />
    <glyph glyph-name="braceleft" unicode="{" horiz-adv-x="800" 
d="M617 -328q-168 0 -252.5 88t-84.5 249v312q0 71 -29.5 101.5t-91.5 30.5h-98v251h98q62 0 91.5 30.5t29.5 101.5v312q0 161 84.5 248.5t252.5 87.5h175v-251h-105q-62 0 -92.5 -31t-30.5 -101v-280q0 -166 -106 -243q106 -76 106 -242v-281q0 -70 30.5 -101t92.5 -31h105
v-251h-175z" />
    <glyph glyph-name="bar" unicode="|" horiz-adv-x="614" 
d="M165 -464v2026h284v-2026h-284z" />
    <glyph glyph-name="braceright" unicode="}" horiz-adv-x="800" 
d="M183 1484q168 0 252.5 -88t84.5 -249v-312q0 -71 29.5 -101.5t91.5 -30.5h98v-251h-98q-62 0 -91.5 -30.5t-29.5 -101.5v-312q0 -161 -84.5 -248.5t-252.5 -87.5h-175v251h105q62 0 92.5 31t30.5 101v280q0 166 106 243q-106 76 -106 242v281q0 70 -30.5 101t-92.5 31
h-105v251h175z" />
    <glyph glyph-name="asciitilde" unicode="~" horiz-adv-x="1006" 
d="M695 558q-56 0 -112.5 23t-94 51t-78 51t-67.5 23q-48 0 -71.5 -22.5t-23.5 -72.5q0 -14 1 -22l-189 -22q-6 56 -6 78q0 129 66.5 195t194.5 66q57 0 113.5 -23.5t93.5 -51t77.5 -51t68.5 -23.5q97 0 97 97q0 19 -2 29l185 22q6 -42 6 -78q0 -132 -67.5 -200.5
t-191.5 -68.5z" />
    <glyph glyph-name="uni00A0" unicode="&#xa0;" horiz-adv-x="505" 
 />
    <glyph glyph-name="exclamdown" unicode="&#xa1;" horiz-adv-x="521" 
d="M404 584v-989h-285v989h285zM83 922q0 78 51.5 127.5t126.5 49.5t126 -49t51 -128t-51 -128.5t-126 -49.5t-126.5 49.5t-51.5 128.5z" />
    <glyph glyph-name="cent" unicode="&#xa2;" horiz-adv-x="1242" 
d="M513 0v233q-196 37 -318 181.5t-122 366.5t122 367t318 182v232h232v-228q172 -24 285 -124t147 -266l-284 -49q-22 94 -90.5 144.5t-164.5 50.5q-124 0 -202 -78.5t-78 -230.5q0 -151 78 -229.5t202 -78.5q96 0 164.5 50t90.5 144l284 -48q-34 -167 -147 -266.5
t-285 -123.5v-229h-232z" />
    <glyph glyph-name="sterling" unicode="&#xa3;" horiz-adv-x="1308" 
d="M50 0v239h148q32 82 32 202v67h-161v239h161v282q0 240 131.5 358.5t360.5 118.5q209 0 336.5 -104.5t149.5 -308.5l-290 -42q-11 105 -65.5 154.5t-139.5 49.5q-197 0 -197 -230v-278h512v-239h-512v-67q0 -120 -32 -202h748v-239h-1182z" />
    <glyph glyph-name="currency" unicode="&#xa4;" horiz-adv-x="1132" 
d="M565 292q-108 0 -196 40l-172 -207l-142 120l168 198q-89 108 -89 255q0 139 82 246l-161 192l142 116l161 -192q95 46 207 46q114 0 208 -47l161 193l142 -116l-162 -191q83 -106 83 -247q0 -145 -90 -256l169 -197l-142 -120l-171 208q-91 -41 -198 -41zM390 698
q0 -84 48.5 -134.5t126.5 -50.5t126.5 50.5t48.5 134.5t-48.5 134t-126.5 50q-77 0 -126 -50t-49 -134z" />
    <glyph glyph-name="yen" unicode="&#xa5;" horiz-adv-x="1415" 
d="M176 562v200h278l-434 722h331l359 -624l360 624h325l-436 -722h281v-200h-389v-75h389v-200h-389v-287h-289v287h-386v200h386v75h-386z" />
    <glyph glyph-name="brokenbar" unicode="&#xa6;" horiz-adv-x="614" 
d="M165 -464v962h284v-962h-284zM165 708v854h284v-854h-284z" />
    <glyph glyph-name="section" unicode="&#xa7;" horiz-adv-x="1353" 
d="M688 -484q-497 0 -579 432l286 50q46 -242 284 -242q101 0 159.5 44.5t58.5 123.5q0 62 -42 97.5t-137 61.5l-267 71q-176 47 -264.5 136.5t-88.5 251.5q0 208 189 315q-81 93 -81 244q0 174 124 289t337 115q144 0 264.5 -50t200.5 -147l-192 -160q-103 117 -269 117
q-82 0 -134 -42.5t-52 -112.5q0 -66 43.5 -99t141.5 -60l200 -53q201 -53 294.5 -140t93.5 -258q0 -195 -170 -308q90 -92 90 -256q0 -137 -64 -233t-173 -141.5t-253 -45.5zM378 570q0 -75 43.5 -111t140.5 -63l229 -61q56 -15 93 -28q47 36 69.5 75.5t22.5 95.5
q0 68 -42 105.5t-137 62.5l-237 64q-54 15 -83 26q-99 -66 -99 -166z" />
    <glyph glyph-name="dieresis" unicode="&#xa8;" horiz-adv-x="1126" 
d="M343 1217q-68 0 -115 45t-47 116t47 116.5t115 45.5q67 0 114 -45.5t47 -116.5t-46.5 -116t-114.5 -45zM622 1378q0 71 47 116.5t114 45.5q68 0 115 -45.5t47 -116.5t-47 -116t-115 -45t-114.5 45t-46.5 116z" />
    <glyph glyph-name="copyright" unicode="&#xa9;" horiz-adv-x="1800" 
d="M900 -20q-238 0 -423.5 95.5t-288 269.5t-102.5 397q0 167 59.5 309t166 241.5t258 155.5t330.5 56t330.5 -56t258 -155.5t166 -241.5t59.5 -309q0 -168 -59.5 -309.5t-165.5 -241t-258 -155.5t-331 -56zM264 742q0 -273 172.5 -439t462.5 -166t463.5 166t173.5 439
t-173.5 438.5t-463.5 165.5t-462.5 -165.5t-172.5 -438.5zM462 743q0 207 126.5 325.5t311.5 118.5q158 0 270.5 -77.5t146.5 -224.5l-192 -39q-22 84 -83 126.5t-142 42.5q-105 0 -174 -68.5t-69 -203.5t69 -204t174 -69q81 0 142 42t83 125l192 -38q-35 -147 -147 -224.5
t-270 -77.5q-89 0 -167.5 29.5t-139 84.5t-96 141t-35.5 191z" />
    <glyph glyph-name="ordfeminine" unicode="&#xaa;" horiz-adv-x="1142" 
d="M458 667q-168 0 -286 122t-118 297t118 297t286 122q139 0 238 -96v80h263v-521q0 -73 63 -73q24 0 59 10l75 -191q-94 -47 -192 -47q-78 0 -140 32t-93 100q-104 -132 -273 -132zM316 1086q0 -84 53 -137.5t136 -53.5q84 0 137.5 53t53.5 138q0 84 -53.5 136.5
t-137.5 52.5q-83 0 -136 -52.5t-53 -136.5z" />
    <glyph glyph-name="guillemotleft" unicode="&#xab;" horiz-adv-x="1189" 
d="M48 442v268l512 305v-280l-288 -158l288 -158v-282zM605 442v268l512 305v-280l-288 -158l288 -158v-282z" />
    <glyph glyph-name="logicalnot" unicode="&#xac;" horiz-adv-x="988" 
d="M694 527v313h-695v239h980v-552h-285z" />
    <glyph glyph-name="uni00AD" unicode="&#xad;" horiz-adv-x="621" 
d="M48 635v239h525v-239h-525z" />
    <glyph glyph-name="registered" unicode="&#xae;" horiz-adv-x="1800" 
d="M900 -20q-238 0 -423.5 95.5t-288 269.5t-102.5 397q0 167 59.5 309t166 241.5t258 155.5t330.5 56t330.5 -56t258 -155.5t166 -241.5t59.5 -309q0 -168 -59.5 -309.5t-165.5 -241t-258 -155.5t-331 -56zM264 742q0 -273 172.5 -439t462.5 -166t463.5 166t173.5 439
t-173.5 438.5t-463.5 165.5t-462.5 -165.5t-172.5 -438.5zM558 305v866h420q119 0 198.5 -76t79.5 -200q0 -90 -45 -154t-122 -93l211 -344h-225l-182 315h-143v-314h-192zM750 787h205q49 0 79.5 30t30.5 78q0 49 -30.5 78.5t-79.5 29.5h-205v-216z" />
    <glyph glyph-name="macron" unicode="&#xaf;" horiz-adv-x="1126" 
d="M219 1294v239h689v-239h-689z" />
    <glyph glyph-name="degree" unicode="&#xb0;" horiz-adv-x="937" 
d="M470 760q-180 0 -287 107t-107 266q0 160 107 266t287 106q178 0 284.5 -106t106.5 -266q0 -159 -106.5 -266t-284.5 -107zM332 1133q0 -70 36 -110t102 -40q65 0 100.5 40t35.5 110t-36 110.5t-100 40.5q-65 0 -101.5 -40.5t-36.5 -110.5z" />
    <glyph glyph-name="plusminus" unicode="&#xb1;" horiz-adv-x="1065" 
d="M61 655v239h329v208h285v-208h329v-239h-329v-208h-285v208h-329zM61 164v212h943v-212h-943z" />
    <glyph glyph-name="uni00B2" unicode="&#xb2;" horiz-adv-x="855" 
d="M73 665v144l321 322q67 67 92.5 107t25.5 83q0 44 -29 70t-77 26q-98 0 -126 -108l-204 53q56 260 340 260q160 0 245.5 -77t85.5 -208q0 -99 -45 -172t-156 -182l-128 -126h373v-192h-718z" />
    <glyph glyph-name="uni00B3" unicode="&#xb3;" horiz-adv-x="877" 
d="M434 652q-176 0 -277 80t-111 228l209 35q9 -67 50 -106t116 -39q67 0 103 30t36 80q0 48 -36 74t-102 26h-81v186h76q50 0 82 23.5t32 67.5q0 42 -32.5 65t-81.5 23q-46 0 -81 -26t-48 -73l-199 63q18 92 105 162.5t225 70.5q152 0 245 -72t93 -181q0 -149 -132 -209
q172 -49 172 -222q0 -129 -102.5 -207.5t-260.5 -78.5z" />
    <glyph glyph-name="acute" unicode="&#xb4;" horiz-adv-x="1126" 
d="M464 1199l67 407h304l-182 -407h-189z" />
    <glyph glyph-name="uni00B5" unicode="&#xb5;" horiz-adv-x="1246" 
d="M108 -464v1543h284v-622q0 -103 64.5 -168t168.5 -65q100 0 163.5 65t63.5 167v623h284v-1079h-270v149q-112 -169 -328 -169q-100 0 -177 41l31 -485h-284z" />
    <glyph glyph-name="paragraph" unicode="&#xb6;" horiz-adv-x="1358" 
d="M677 -23q-235 0 -376 106.5t-169 325.5l289 53q14 -120 78.5 -173.5t177.5 -53.5q262 0 262 273v976h289v-979q0 -270 -145.5 -399t-405.5 -129zM131 1108q0 161 102 268.5t272 107.5h322v-407q0 -97 -32.5 -173t-107 -124.5t-182.5 -48.5q-170 0 -272 108t-102 269z" />
    <glyph glyph-name="periodcentered" unicode="&#xb7;" horiz-adv-x="521" 
d="M261 555q-75 0 -126 49t-51 128t51 128.5t126 49.5t126.5 -49.5t51.5 -128.5q0 -78 -51.5 -127.5t-126.5 -49.5z" />
    <glyph glyph-name="cedilla" unicode="&#xb8;" horiz-adv-x="1126" 
d="M288 -407l180 407h190l-66 -407h-304z" />
    <glyph glyph-name="uni00B9" unicode="&#xb9;" horiz-adv-x="531" 
d="M162 665v753h-141l36 192h336v-945h-231z" />
    <glyph glyph-name="ordmasculine" unicode="&#xba;" horiz-adv-x="1012" 
d="M507 1505q197 0 324.5 -121t127.5 -298q0 -178 -127.5 -298.5t-324.5 -120.5q-199 0 -326 120.5t-127 298.5t127 298.5t326 120.5zM316 1086q0 -87 53.5 -139t137.5 -52t136.5 52t52.5 139q0 85 -53 137t-136 52q-84 0 -137.5 -52t-53.5 -137z" />
    <glyph glyph-name="guillemotright" unicode="&#xbb;" horiz-adv-x="1189" 
d="M1141 710v-268l-512 -305v280l288 158l-288 158v282zM72 137v280l288 158l-288 158v282l512 -305v-268z" />
    <glyph glyph-name="onequarter" unicode="&#xbc;" horiz-adv-x="1933" 
d="M162 539v753h-141l36 192h336v-945h-231zM202 0l1039 1484h282l-1039 -1484h-282zM1089 190v175l437 580h234v-572h132v-183h-132v-190h-213v190h-458zM1324 373h223v298z" />
    <glyph glyph-name="onehalf" unicode="&#xbd;" horiz-adv-x="2005" 
d="M162 539v753h-141l36 192h336v-945h-231zM202 0l1039 1484h282l-1039 -1484h-282zM1223 0v144l321 322q67 67 92.5 107t25.5 83q0 44 -29 70t-77 26q-98 0 -126 -108l-204 53q56 260 340 260q160 0 245.5 -77t85.5 -208q0 -99 -45 -172t-156 -182l-128 -126h373v-192
h-718z" />
    <glyph glyph-name="threequarters" unicode="&#xbe;" horiz-adv-x="2205" 
d="M434 526q-176 0 -277 80t-111 228l209 35q9 -67 50 -106t116 -39q67 0 103 30t36 80q0 48 -36 74t-102 26h-81v186h76q50 0 82 23.5t32 67.5q0 42 -32.5 65t-81.5 23q-46 0 -81 -26t-48 -73l-199 63q18 92 105 162.5t225 70.5q152 0 245 -72t93 -181q0 -149 -132 -209
q172 -49 172 -222q0 -129 -102.5 -207.5t-260.5 -78.5zM474 0l1039 1484h282l-1039 -1484h-282zM1361 190v175l437 580h234v-572h132v-183h-132v-190h-213v190h-458zM1596 373h223v298z" />
    <glyph glyph-name="questiondown" unicode="&#xbf;" horiz-adv-x="1065" 
d="M686 616v-82q0 -107 -38 -165t-150 -131q-93 -60 -130 -105.5t-37 -120.5q0 -80 53 -132t147 -52q95 0 147.5 52t52.5 132q0 52 -17 102l268 60q30 -80 30 -175q0 -186 -132 -305.5t-351 -119.5q-223 0 -353.5 125t-130.5 314q0 137 52 222t167 159q78 52 103 86.5
t25 91.5v44h294zM360 922q0 78 51.5 127.5t126.5 49.5t126 -49t51 -128t-51 -128.5t-126 -49.5t-126.5 49.5t-51.5 128.5z" />
    <glyph glyph-name="Agrave" unicode="&#xc0;" horiz-adv-x="1514" 
d="M48 0l541 1484h338l539 -1484h-311l-93 271h-618l-94 -271h-302zM486 2011h304l67 -407h-189zM527 513h451l-225 653z" />
    <glyph glyph-name="Aacute" unicode="&#xc1;" horiz-adv-x="1514" 
d="M48 0l541 1484h338l539 -1484h-311l-93 271h-618l-94 -271h-302zM527 513h451l-225 653zM659 1604l67 407h304l-182 -407h-189z" />
    <glyph glyph-name="Acircumflex" unicode="&#xc2;" horiz-adv-x="1514" 
d="M48 0l541 1484h338l539 -1484h-311l-93 271h-618l-94 -271h-302zM371 1604l226 407h316l227 -407h-249l-133 249l-133 -249h-254zM527 513h451l-225 653z" />
    <glyph glyph-name="Atilde" unicode="&#xc3;" horiz-adv-x="1514" 
d="M48 0l541 1484h338l539 -1484h-311l-93 271h-618l-94 -271h-302zM377 1745q0 98 57.5 157.5t146.5 59.5q52 0 115.5 -27.5t115.5 -55t77 -27.5q26 0 42 16t16 46q0 17 -9 48l173 38q29 -71 29 -131q0 -95 -57 -152.5t-144 -57.5q-52 0 -116.5 28t-117 56t-77.5 28
q-26 0 -41.5 -16.5t-15.5 -47.5q0 -23 8 -48l-181 -38q-21 69 -21 124zM527 513h451l-225 653z" />
    <glyph glyph-name="Adieresis" unicode="&#xc4;" horiz-adv-x="1514" 
d="M48 0l541 1484h338l539 -1484h-311l-93 271h-618l-94 -271h-302zM376 1783q0 71 47 116.5t115 45.5q67 0 114 -45.5t47 -116.5t-46.5 -116t-114.5 -45t-115 45t-47 116zM527 513h451l-225 653zM817 1783q0 71 47 116.5t114 45.5q68 0 115 -45.5t47 -116.5t-47 -116
t-115 -45t-114.5 45t-46.5 116z" />
    <glyph glyph-name="Aring" unicode="&#xc5;" horiz-adv-x="1514" 
d="M48 0l541 1484h338l539 -1484h-311l-93 271h-618l-94 -271h-302zM435 1853q0 105 86 170t237 65q152 0 238 -65t86 -170t-86 -170.5t-238 -65.5q-151 0 -237 65.5t-86 170.5zM527 513h451l-225 653zM655 1854q0 -86 102 -86t102 86q0 85 -102 85q-50 0 -76 -22.5
t-26 -62.5z" />
    <glyph glyph-name="AE" unicode="&#xc6;" horiz-adv-x="2331" 
d="M48 0l945 1484h1195v-249h-771v-357h672v-250h-672v-378h812v-250h-1099v292h-581l-180 -292h-321zM686 534h444v716z" />
    <glyph glyph-name="Ccedilla" unicode="&#xc7;" horiz-adv-x="1568" 
d="M523 -407l174 393q-178 23 -316 120.5t-216.5 262.5t-78.5 373q0 170 54 313.5t148.5 241.5t225 153t282.5 55q250 0 427.5 -134t236.5 -365l-279 -56q-41 141 -140 220t-245 79q-191 0 -306.5 -138t-115.5 -369t115.5 -369t306.5 -138q146 0 245.5 79.5t140.5 220.5
l278 -56q-52 -208 -203 -338.5t-366 -155.5l-64 -392h-304z" />
    <glyph glyph-name="Egrave" unicode="&#xc8;" horiz-adv-x="1332" 
d="M130 0v1484h1059v-249h-771v-357h672v-250h-672v-378h812v-250h-1100zM397 2011h304l67 -407h-189z" />
    <glyph glyph-name="Eacute" unicode="&#xc9;" horiz-adv-x="1332" 
d="M130 0v1484h1059v-249h-771v-357h672v-250h-672v-378h812v-250h-1100zM570 1604l67 407h304l-182 -407h-189z" />
    <glyph glyph-name="Ecircumflex" unicode="&#xca;" horiz-adv-x="1332" 
d="M130 0v1484h1059v-249h-771v-357h672v-250h-672v-378h812v-250h-1100zM282 1604l226 407h316l227 -407h-249l-133 249l-133 -249h-254z" />
    <glyph glyph-name="Edieresis" unicode="&#xcb;" horiz-adv-x="1332" 
d="M130 0v1484h1059v-249h-771v-357h672v-250h-672v-378h812v-250h-1100zM287 1783q0 71 47 116.5t115 45.5q67 0 114 -45.5t47 -116.5t-46.5 -116t-114.5 -45t-115 45t-47 116zM728 1783q0 71 47 116.5t114 45.5q68 0 115 -45.5t47 -116.5t-47 -116t-115 -45t-114.5 45
t-46.5 116z" />
    <glyph glyph-name="Igrave" unicode="&#xcc;" horiz-adv-x="548" 
d="M130 0v1484h288v-1484h-288zM2 2011h304l67 -407h-189z" />
    <glyph glyph-name="Iacute" unicode="&#xcd;" horiz-adv-x="548" 
d="M130 0v1484h288v-1484h-288zM175 1604l67 407h304l-182 -407h-189z" />
    <glyph glyph-name="Icircumflex" unicode="&#xce;" horiz-adv-x="548" 
d="M130 0v1484h288v-1484h-288zM-113 1604l226 407h316l227 -407h-249l-133 249l-133 -249h-254z" />
    <glyph glyph-name="Idieresis" unicode="&#xcf;" horiz-adv-x="548" 
d="M130 0v1484h288v-1484h-288zM-108 1783q0 71 47 116.5t115 45.5q67 0 114 -45.5t47 -116.5t-46.5 -116t-114.5 -45t-115 45t-47 116zM333 1783q0 71 47 116.5t114 45.5q68 0 115 -45.5t47 -116.5t-47 -116t-115 -45t-114.5 45t-46.5 116z" />
    <glyph glyph-name="Eth" unicode="&#xd0;" horiz-adv-x="1470" 
d="M130 0v615h-206v255h206v614h561q150 0 278 -53t220 -148.5t144 -235t52 -305.5q0 -221 -89.5 -390.5t-247 -260.5t-357.5 -91h-561zM418 255h273q187 0 296.5 133.5t109.5 353.5q0 221 -109.5 354t-296.5 133h-273v-359h273v-255h-273v-360z" />
    <glyph glyph-name="Ntilde" unicode="&#xd1;" horiz-adv-x="1515" 
d="M130 0v1484h263l718 -992v992h275v-1484h-270l-712 985v-985h-274zM371 1745q0 98 57.5 157.5t146.5 59.5q52 0 115.5 -27.5t115.5 -55t77 -27.5q26 0 42 16t16 46q0 17 -9 48l173 38q29 -71 29 -131q0 -95 -57 -152.5t-144 -57.5q-52 0 -116.5 28t-117 56t-77.5 28
q-26 0 -41.5 -16.5t-15.5 -47.5q0 -23 8 -48l-181 -38q-21 69 -21 124z" />
    <glyph glyph-name="Ograve" unicode="&#xd2;" horiz-adv-x="1598" 
d="M799 -20q-206 0 -367.5 93.5t-253.5 267.5t-92 401q0 170 53.5 313.5t147.5 242t226 153t286 54.5t285.5 -54.5t226 -153t148 -241.5t53.5 -314t-53.5 -314t-148 -241t-226 -152.5t-285.5 -54.5zM374 742q0 -232 115 -369.5t310 -137.5q196 0 310.5 138t114.5 369
t-114.5 369t-310.5 138q-195 0 -310 -137.5t-115 -369.5zM527 2011h304l67 -407h-189z" />
    <glyph glyph-name="Oacute" unicode="&#xd3;" horiz-adv-x="1598" 
d="M799 -20q-206 0 -367.5 93.5t-253.5 267.5t-92 401q0 170 53.5 313.5t147.5 242t226 153t286 54.5t285.5 -54.5t226 -153t148 -241.5t53.5 -314t-53.5 -314t-148 -241t-226 -152.5t-285.5 -54.5zM374 742q0 -232 115 -369.5t310 -137.5q196 0 310.5 138t114.5 369
t-114.5 369t-310.5 138q-195 0 -310 -137.5t-115 -369.5zM700 1604l67 407h304l-182 -407h-189z" />
    <glyph glyph-name="Ocircumflex" unicode="&#xd4;" horiz-adv-x="1598" 
d="M799 -20q-206 0 -367.5 93.5t-253.5 267.5t-92 401q0 170 53.5 313.5t147.5 242t226 153t286 54.5t285.5 -54.5t226 -153t148 -241.5t53.5 -314t-53.5 -314t-148 -241t-226 -152.5t-285.5 -54.5zM374 742q0 -232 115 -369.5t310 -137.5q196 0 310.5 138t114.5 369
t-114.5 369t-310.5 138q-195 0 -310 -137.5t-115 -369.5zM412 1604l226 407h316l227 -407h-249l-133 249l-133 -249h-254z" />
    <glyph glyph-name="Otilde" unicode="&#xd5;" horiz-adv-x="1598" 
d="M799 -20q-206 0 -367.5 93.5t-253.5 267.5t-92 401q0 170 53.5 313.5t147.5 242t226 153t286 54.5t285.5 -54.5t226 -153t148 -241.5t53.5 -314t-53.5 -314t-148 -241t-226 -152.5t-285.5 -54.5zM374 742q0 -232 115 -369.5t310 -137.5q196 0 310.5 138t114.5 369
t-114.5 369t-310.5 138q-195 0 -310 -137.5t-115 -369.5zM418 1745q0 98 57.5 157.5t146.5 59.5q52 0 115.5 -27.5t115.5 -55t77 -27.5q26 0 42 16t16 46q0 17 -9 48l173 38q29 -71 29 -131q0 -95 -57 -152.5t-144 -57.5q-52 0 -116.5 28t-117 56t-77.5 28
q-26 0 -41.5 -16.5t-15.5 -47.5q0 -23 8 -48l-181 -38q-21 69 -21 124z" />
    <glyph glyph-name="Odieresis" unicode="&#xd6;" horiz-adv-x="1598" 
d="M799 -20q-206 0 -367.5 93.5t-253.5 267.5t-92 401q0 170 53.5 313.5t147.5 242t226 153t286 54.5t285.5 -54.5t226 -153t148 -241.5t53.5 -314t-53.5 -314t-148 -241t-226 -152.5t-285.5 -54.5zM374 742q0 -232 115 -369.5t310 -137.5q196 0 310.5 138t114.5 369
t-114.5 369t-310.5 138q-195 0 -310 -137.5t-115 -369.5zM417 1783q0 71 47 116.5t115 45.5q67 0 114 -45.5t47 -116.5t-46.5 -116t-114.5 -45t-115 45t-47 116zM858 1783q0 71 47 116.5t114 45.5q68 0 115 -45.5t47 -116.5t-47 -116t-115 -45t-114.5 45t-46.5 116z" />
    <glyph glyph-name="multiply" unicode="&#xd7;" horiz-adv-x="957" 
d="M232 246l-188 188l238 238l-238 238l188 187l238 -237l238 237l188 -187l-238 -238l238 -238l-188 -188l-238 238z" />
    <glyph glyph-name="Oslash" unicode="&#xd8;" horiz-adv-x="1596" 
d="M260 -25l-143 122l122 147q-153 202 -153 498q0 170 53.5 313.5t147.5 242t226 153t286 54.5q244 0 423 -131l114 137l146 -123l-124 -147q154 -201 154 -499q0 -171 -53.5 -314t-148 -241t-226 -152.5t-285.5 -54.5q-244 0 -426 132zM374 742q0 -167 61 -287l605 721
q-103 73 -241 73q-195 0 -310 -137.5t-115 -369.5zM556 310q101 -75 243 -75q196 0 310.5 138t114.5 369q0 167 -62 289z" />
    <glyph glyph-name="Ugrave" unicode="&#xd9;" horiz-adv-x="1508" 
d="M754 -20q-271 0 -447.5 166t-176.5 418v920h288v-915q0 -147 90 -240.5t246 -93.5t246 93.5t90 240.5v915h288v-920q0 -166 -80 -299.5t-223 -209t-321 -75.5zM482 2011h304l67 -407h-189z" />
    <glyph glyph-name="Uacute" unicode="&#xda;" horiz-adv-x="1508" 
d="M754 -20q-271 0 -447.5 166t-176.5 418v920h288v-915q0 -147 90 -240.5t246 -93.5t246 93.5t90 240.5v915h288v-920q0 -166 -80 -299.5t-223 -209t-321 -75.5zM655 1604l67 407h304l-182 -407h-189z" />
    <glyph glyph-name="Ucircumflex" unicode="&#xdb;" horiz-adv-x="1508" 
d="M754 -20q-271 0 -447.5 166t-176.5 418v920h288v-915q0 -147 90 -240.5t246 -93.5t246 93.5t90 240.5v915h288v-920q0 -166 -80 -299.5t-223 -209t-321 -75.5zM367 1604l226 407h316l227 -407h-249l-133 249l-133 -249h-254z" />
    <glyph glyph-name="Udieresis" unicode="&#xdc;" horiz-adv-x="1508" 
d="M754 -20q-271 0 -447.5 166t-176.5 418v920h288v-915q0 -147 90 -240.5t246 -93.5t246 93.5t90 240.5v915h288v-920q0 -166 -80 -299.5t-223 -209t-321 -75.5zM372 1783q0 71 47 116.5t115 45.5q67 0 114 -45.5t47 -116.5t-46.5 -116t-114.5 -45t-115 45t-47 116z
M813 1783q0 71 47 116.5t114 45.5q68 0 115 -45.5t47 -116.5t-47 -116t-115 -45t-114.5 45t-46.5 116z" />
    <glyph glyph-name="Yacute" unicode="&#xdd;" horiz-adv-x="1415" 
d="M562 0v583l-542 901h331l359 -624l360 624h325l-544 -900v-584h-289zM614 1604l67 407h304l-182 -407h-189z" />
    <glyph glyph-name="Thorn" unicode="&#xde;" horiz-adv-x="1390" 
d="M130 0v1484h288v-186h373q138 0 252 -61t181.5 -176t67.5 -261t-67.5 -260.5t-181.5 -175.5t-252 -61h-373v-303h-288zM418 557h345q106 0 173.5 67t67.5 176t-67.5 176t-173.5 67h-345v-486z" />
    <glyph glyph-name="germandbls" unicode="&#xdf;" horiz-adv-x="1328" 
d="M732 -20q-120 0 -238 28l51 233q87 -20 161 -20q130 0 197 63t67 179q0 109 -72.5 167t-213.5 58h-74v242h55q98 0 157 57t59 150q0 94 -64.5 153.5t-177.5 59.5q-118 0 -180.5 -66.5t-62.5 -194.5v-1089h-283v1094q0 225 137.5 360.5t386.5 135.5q130 0 232 -33.5
t166 -92.5t97 -135.5t33 -166.5q0 -110 -48.5 -197.5t-140.5 -137.5q137 -45 207.5 -143.5t70.5 -243.5q0 -226 -136.5 -343t-385.5 -117z" />
    <glyph glyph-name="agrave" unicode="&#xe0;" horiz-adv-x="1161" 
d="M427 -20q-150 0 -244 77t-94 216q0 58 18.5 105t49 80t79.5 60t99.5 45.5t120.5 36.5l309 81q-26 175 -224 175q-175 0 -277 -168l-198 122q80 139 209 214t299 75q226 0 352.5 -119.5t126.5 -330.5v-649h-258v157q-57 -84 -150.5 -130.5t-217.5 -46.5zM299 1606h304
l67 -407h-189zM373 301q0 -56 35.5 -85.5t95.5 -29.5q107 0 186 64.5t79 182.5v74l-245 -68q-75 -21 -113 -54t-38 -84z" />
    <glyph glyph-name="aacute" unicode="&#xe1;" horiz-adv-x="1161" 
d="M427 -20q-150 0 -244 77t-94 216q0 58 18.5 105t49 80t79.5 60t99.5 45.5t120.5 36.5l309 81q-26 175 -224 175q-175 0 -277 -168l-198 122q80 139 209 214t299 75q226 0 352.5 -119.5t126.5 -330.5v-649h-258v157q-57 -84 -150.5 -130.5t-217.5 -46.5zM373 301
q0 -56 35.5 -85.5t95.5 -29.5q107 0 186 64.5t79 182.5v74l-245 -68q-75 -21 -113 -54t-38 -84zM472 1199l67 407h304l-182 -407h-189z" />
    <glyph glyph-name="acircumflex" unicode="&#xe2;" horiz-adv-x="1161" 
d="M427 -20q-150 0 -244 77t-94 216q0 58 18.5 105t49 80t79.5 60t99.5 45.5t120.5 36.5l309 81q-26 175 -224 175q-175 0 -277 -168l-198 122q80 139 209 214t299 75q226 0 352.5 -119.5t126.5 -330.5v-649h-258v157q-57 -84 -150.5 -130.5t-217.5 -46.5zM184 1199l226 407
h316l227 -407h-249l-133 249l-133 -249h-254zM373 301q0 -56 35.5 -85.5t95.5 -29.5q107 0 186 64.5t79 182.5v74l-245 -68q-75 -21 -113 -54t-38 -84z" />
    <glyph glyph-name="atilde" unicode="&#xe3;" horiz-adv-x="1161" 
d="M427 -20q-150 0 -244 77t-94 216q0 58 18.5 105t49 80t79.5 60t99.5 45.5t120.5 36.5l309 81q-26 175 -224 175q-175 0 -277 -168l-198 122q80 139 209 214t299 75q226 0 352.5 -119.5t126.5 -330.5v-649h-258v157q-57 -84 -150.5 -130.5t-217.5 -46.5zM190 1340
q0 98 57.5 157.5t146.5 59.5q52 0 115.5 -27.5t115.5 -55t77 -27.5q26 0 42 16t16 46q0 17 -9 48l173 38q29 -71 29 -131q0 -95 -57 -152.5t-144 -57.5q-52 0 -116.5 28t-117 56t-77.5 28q-26 0 -41.5 -16.5t-15.5 -47.5q0 -23 8 -48l-181 -38q-21 69 -21 124zM373 301
q0 -56 35.5 -85.5t95.5 -29.5q107 0 186 64.5t79 182.5v74l-245 -68q-75 -21 -113 -54t-38 -84z" />
    <glyph glyph-name="adieresis" unicode="&#xe4;" horiz-adv-x="1161" 
d="M427 -20q-150 0 -244 77t-94 216q0 58 18.5 105t49 80t79.5 60t99.5 45.5t120.5 36.5l309 81q-26 175 -224 175q-175 0 -277 -168l-198 122q80 139 209 214t299 75q226 0 352.5 -119.5t126.5 -330.5v-649h-258v157q-57 -84 -150.5 -130.5t-217.5 -46.5zM189 1378
q0 71 47 116.5t115 45.5q67 0 114 -45.5t47 -116.5t-46.5 -116t-114.5 -45t-115 45t-47 116zM373 301q0 -56 35.5 -85.5t95.5 -29.5q107 0 186 64.5t79 182.5v74l-245 -68q-75 -21 -113 -54t-38 -84zM630 1378q0 71 47 116.5t114 45.5q68 0 115 -45.5t47 -116.5t-47 -116
t-115 -45t-114.5 45t-46.5 116z" />
    <glyph glyph-name="aring" unicode="&#xe5;" horiz-adv-x="1161" 
d="M427 -20q-150 0 -244 77t-94 216q0 58 18.5 105t49 80t79.5 60t99.5 45.5t120.5 36.5l309 81q-26 175 -224 175q-175 0 -277 -168l-198 122q80 139 209 214t299 75q226 0 352.5 -119.5t126.5 -330.5v-649h-258v157q-57 -84 -150.5 -130.5t-217.5 -46.5zM248 1448
q0 105 86 170t237 65q152 0 238 -65t86 -170t-86 -170.5t-238 -65.5q-151 0 -237 65.5t-86 170.5zM373 301q0 -56 35.5 -85.5t95.5 -29.5q107 0 186 64.5t79 182.5v74l-245 -68q-75 -21 -113 -54t-38 -84zM468 1449q0 -86 102 -86t102 86q0 85 -102 85q-50 0 -76 -22.5
t-26 -62.5z" />
    <glyph glyph-name="ae" unicode="&#xe6;" horiz-adv-x="1931" 
d="M1365 -20q-157 0 -274 72.5t-178 203.5q-44 -126 -162.5 -201t-282.5 -75q-166 0 -271.5 79t-105.5 210q0 57 19 102.5t48.5 76.5t80 57t99 42.5t120.5 35.5l312 82q-20 191 -228 191q-172 0 -276 -168l-200 124q81 137 208 212t290 75q280 0 368 -232
q63 111 171.5 171.5t252.5 60.5q225 0 363 -142t138 -397v-72h-799q13 -129 86.5 -197t180.5 -68q187 0 268 161l245 -90q-67 -147 -191 -230.5t-282 -83.5zM375 297q0 -52 38 -81.5t104 -29.5t122.5 26t94.5 83.5t38 137.5v56l-246 -68q-78 -21 -114.5 -48.5t-36.5 -75.5z
M1074 667h486q-21 93 -80.5 141t-151.5 48q-89 0 -157.5 -48.5t-96.5 -140.5z" />
    <glyph glyph-name="ccedilla" unicode="&#xe7;" horiz-adv-x="1242" 
d="M350 -407l175 396q-201 34 -326.5 179.5t-125.5 370.5q0 172 76 300.5t203.5 194t285.5 65.5q213 0 356.5 -103t182.5 -294l-284 -49q-22 94 -90.5 144.5t-164.5 50.5q-124 0 -202 -78.5t-78 -230.5q0 -151 78 -229.5t202 -78.5q96 0 164.5 50t90.5 144l284 -48
q-35 -173 -156 -274t-304 -119l-63 -391h-304z" />
    <glyph glyph-name="egrave" unicode="&#xe8;" horiz-adv-x="1232" 
d="M626 -20q-157 0 -282.5 68.5t-198 196.5t-72.5 294t73.5 294.5t200 197t283.5 68.5q244 0 386.5 -141t142.5 -398v-72h-799q13 -129 86 -197t180 -68q186 0 268 162l245 -91q-68 -148 -200.5 -231t-312.5 -83zM359 1606h304l67 -407h-189zM376 667h485q-21 94 -80 141.5
t-151 47.5q-90 0 -158 -48t-96 -141z" />
    <glyph glyph-name="eacute" unicode="&#xe9;" horiz-adv-x="1232" 
d="M626 -20q-157 0 -282.5 68.5t-198 196.5t-72.5 294t73.5 294.5t200 197t283.5 68.5q244 0 386.5 -141t142.5 -398v-72h-799q13 -129 86 -197t180 -68q186 0 268 162l245 -91q-68 -148 -200.5 -231t-312.5 -83zM376 667h485q-21 94 -80 141.5t-151 47.5q-90 0 -158 -48
t-96 -141zM532 1199l67 407h304l-182 -407h-189z" />
    <glyph glyph-name="ecircumflex" unicode="&#xea;" horiz-adv-x="1232" 
d="M626 -20q-157 0 -282.5 68.5t-198 196.5t-72.5 294t73.5 294.5t200 197t283.5 68.5q244 0 386.5 -141t142.5 -398v-72h-799q13 -129 86 -197t180 -68q186 0 268 162l245 -91q-68 -148 -200.5 -231t-312.5 -83zM244 1199l226 407h316l227 -407h-249l-133 249l-133 -249
h-254zM376 667h485q-21 94 -80 141.5t-151 47.5q-90 0 -158 -48t-96 -141z" />
    <glyph glyph-name="edieresis" unicode="&#xeb;" horiz-adv-x="1232" 
d="M626 -20q-157 0 -282.5 68.5t-198 196.5t-72.5 294t73.5 294.5t200 197t283.5 68.5q244 0 386.5 -141t142.5 -398v-72h-799q13 -129 86 -197t180 -68q186 0 268 162l245 -91q-68 -148 -200.5 -231t-312.5 -83zM249 1378q0 71 47 116.5t115 45.5q67 0 114 -45.5t47 -116.5
t-46.5 -116t-114.5 -45t-115 45t-47 116zM376 667h485q-21 94 -80 141.5t-151 47.5q-90 0 -158 -48t-96 -141zM690 1378q0 71 47 116.5t114 45.5q68 0 115 -45.5t47 -116.5t-47 -116t-115 -45t-114.5 45t-46.5 116z" />
    <glyph glyph-name="igrave" unicode="&#xec;" horiz-adv-x="516" 
d="M116 0v1079h284v-1079h-284zM-14 1606h304l67 -407h-189z" />
    <glyph glyph-name="iacute" unicode="&#xed;" horiz-adv-x="516" 
d="M116 0v1079h284v-1079h-284zM159 1199l67 407h304l-182 -407h-189z" />
    <glyph glyph-name="icircumflex" unicode="&#xee;" horiz-adv-x="516" 
d="M116 0v1079h284v-1079h-284zM-129 1199l226 407h316l227 -407h-249l-133 249l-133 -249h-254z" />
    <glyph glyph-name="idieresis" unicode="&#xef;" horiz-adv-x="516" 
d="M116 0v1079h284v-1079h-284zM-124 1378q0 71 47 116.5t115 45.5q67 0 114 -45.5t47 -116.5t-46.5 -116t-114.5 -45t-115 45t-47 116zM317 1378q0 71 47 116.5t114 45.5q68 0 115 -45.5t47 -116.5t-47 -116t-115 -45t-114.5 45t-46.5 116z" />
    <glyph glyph-name="eth" unicode="&#xf0;" horiz-adv-x="1246" 
d="M585 -20q-225 0 -368.5 140.5t-143.5 351.5q0 210 141.5 351t356.5 141q179 0 300 -108q-49 225 -259 347l-389 -187l-74 156l251 120q-111 33 -252 55l48 235q297 -35 508 -144l295 142l74 -155l-200 -96q300 -246 300 -684q0 -325 -156.5 -495t-431.5 -170zM347 472
q0 -115 72.5 -178t185.5 -63t186 66t73 175q0 115 -72 178t-187 63q-113 0 -185.5 -63t-72.5 -178z" />
    <glyph glyph-name="ntilde" unicode="&#xf1;" horiz-adv-x="1246" 
d="M854 0v622q0 103 -64 168t-168 65q-100 0 -164 -65t-64 -167v-623h-284v1079h271v-147q111 167 328 167q192 0 310.5 -122.5t118.5 -319.5v-657h-284zM237 1340q0 98 57.5 157.5t146.5 59.5q52 0 115.5 -27.5t115.5 -55t77 -27.5q26 0 42 16t16 46q0 17 -9 48l173 38
q29 -71 29 -131q0 -95 -57 -152.5t-144 -57.5q-52 0 -116.5 28t-117 56t-77.5 28q-26 0 -41.5 -16.5t-15.5 -47.5q0 -23 8 -48l-181 -38q-21 69 -21 124z" />
    <glyph glyph-name="ograve" unicode="&#xf2;" horiz-adv-x="1250" 
d="M625 -20q-157 0 -282 68.5t-197.5 196.5t-72.5 294q0 251 156.5 405.5t395.5 154.5q156 0 281.5 -68.5t198 -197t72.5 -294.5q0 -250 -156.5 -404.5t-395.5 -154.5zM354 1606h304l67 -407h-189zM358 539q0 -149 75 -228.5t192 -79.5q118 0 193 79.5t75 228.5t-75.5 229
t-192.5 80t-192 -80t-75 -229z" />
    <glyph glyph-name="oacute" unicode="&#xf3;" horiz-adv-x="1250" 
d="M625 -20q-157 0 -282 68.5t-197.5 196.5t-72.5 294q0 251 156.5 405.5t395.5 154.5q156 0 281.5 -68.5t198 -197t72.5 -294.5q0 -250 -156.5 -404.5t-395.5 -154.5zM358 539q0 -149 75 -228.5t192 -79.5q118 0 193 79.5t75 228.5t-75.5 229t-192.5 80t-192 -80t-75 -229z
M527 1199l67 407h304l-182 -407h-189z" />
    <glyph glyph-name="ocircumflex" unicode="&#xf4;" horiz-adv-x="1250" 
d="M625 -20q-157 0 -282 68.5t-197.5 196.5t-72.5 294q0 251 156.5 405.5t395.5 154.5q156 0 281.5 -68.5t198 -197t72.5 -294.5q0 -250 -156.5 -404.5t-395.5 -154.5zM239 1199l226 407h316l227 -407h-249l-133 249l-133 -249h-254zM358 539q0 -149 75 -228.5t192 -79.5
q118 0 193 79.5t75 228.5t-75.5 229t-192.5 80t-192 -80t-75 -229z" />
    <glyph glyph-name="otilde" unicode="&#xf5;" horiz-adv-x="1250" 
d="M625 -20q-157 0 -282 68.5t-197.5 196.5t-72.5 294q0 251 156.5 405.5t395.5 154.5q156 0 281.5 -68.5t198 -197t72.5 -294.5q0 -250 -156.5 -404.5t-395.5 -154.5zM245 1340q0 98 57.5 157.5t146.5 59.5q52 0 115.5 -27.5t115.5 -55t77 -27.5q26 0 42 16t16 46
q0 17 -9 48l173 38q29 -71 29 -131q0 -95 -57 -152.5t-144 -57.5q-52 0 -116.5 28t-117 56t-77.5 28q-26 0 -41.5 -16.5t-15.5 -47.5q0 -23 8 -48l-181 -38q-21 69 -21 124zM358 539q0 -149 75 -228.5t192 -79.5q118 0 193 79.5t75 228.5t-75.5 229t-192.5 80t-192 -80
t-75 -229z" />
    <glyph glyph-name="odieresis" unicode="&#xf6;" horiz-adv-x="1250" 
d="M625 -20q-157 0 -282 68.5t-197.5 196.5t-72.5 294q0 251 156.5 405.5t395.5 154.5q156 0 281.5 -68.5t198 -197t72.5 -294.5q0 -250 -156.5 -404.5t-395.5 -154.5zM244 1378q0 71 47 116.5t115 45.5q67 0 114 -45.5t47 -116.5t-46.5 -116t-114.5 -45t-115 45t-47 116z
M358 539q0 -149 75 -228.5t192 -79.5q118 0 193 79.5t75 228.5t-75.5 229t-192.5 80t-192 -80t-75 -229zM685 1378q0 71 47 116.5t114 45.5q68 0 115 -45.5t47 -116.5t-47 -116t-115 -45t-114.5 45t-46.5 116z" />
    <glyph glyph-name="divide" unicode="&#xf7;" horiz-adv-x="1065" 
d="M534 950q-70 0 -118.5 46.5t-48.5 120.5q0 75 48.5 121.5t118.5 46.5q71 0 119.5 -46.5t48.5 -121.5q0 -74 -48.5 -120.5t-119.5 -46.5zM61 552v239h943v-239h-943zM367 221q0 75 48.5 121.5t118.5 46.5q71 0 119.5 -46.5t48.5 -121.5q0 -74 -48.5 -120.5t-119.5 -46.5
q-70 0 -118.5 46.5t-48.5 120.5z" />
    <glyph glyph-name="oslash" unicode="&#xf8;" horiz-adv-x="1243" 
d="M216 -13l-135 130l87 92q-95 141 -95 331q0 251 156.5 405.5t395.5 154.5q180 0 317 -91l84 88l136 -132l-85 -87q100 -142 100 -338q0 -250 -156.5 -404.5t-395.5 -154.5q-184 0 -324 95zM358 540q0 -82 25 -146l376 422q-58 33 -134 33q-117 0 -192 -80t-75 -229z
M484 270q60 -38 141 -38q118 0 193 79.5t75 228.5q0 88 -28 155z" />
    <glyph glyph-name="ugrave" unicode="&#xf9;" horiz-adv-x="1246" 
d="M392 1079v-622q0 -103 64 -168t168 -65q100 0 164 65t64 167v623h284v-1079h-271v147q-111 -167 -328 -167q-192 0 -310.5 122.5t-118.5 319.5v657h284zM350 1606h304l67 -407h-189z" />
    <glyph glyph-name="uacute" unicode="&#xfa;" horiz-adv-x="1246" 
d="M392 1079v-622q0 -103 64 -168t168 -65q100 0 164 65t64 167v623h284v-1079h-271v147q-111 -167 -328 -167q-192 0 -310.5 122.5t-118.5 319.5v657h284zM523 1199l67 407h304l-182 -407h-189z" />
    <glyph glyph-name="ucircumflex" unicode="&#xfb;" horiz-adv-x="1246" 
d="M392 1079v-622q0 -103 64 -168t168 -65q100 0 164 65t64 167v623h284v-1079h-271v147q-111 -167 -328 -167q-192 0 -310.5 122.5t-118.5 319.5v657h284zM235 1199l226 407h316l227 -407h-249l-133 249l-133 -249h-254z" />
    <glyph glyph-name="udieresis" unicode="&#xfc;" horiz-adv-x="1246" 
d="M392 1079v-622q0 -103 64 -168t168 -65q100 0 164 65t64 167v623h284v-1079h-271v147q-111 -167 -328 -167q-192 0 -310.5 122.5t-118.5 319.5v657h284zM240 1378q0 71 47 116.5t115 45.5q67 0 114 -45.5t47 -116.5t-46.5 -116t-114.5 -45t-115 45t-47 116zM681 1378
q0 71 47 116.5t114 45.5q68 0 115 -45.5t47 -116.5t-47 -116t-115 -45t-114.5 45t-46.5 116z" />
    <glyph glyph-name="yacute" unicode="&#xfd;" horiz-adv-x="1228" 
d="M551 -484q-411 0 -582 336l227 138q63 -118 144 -170.5t198 -52.5q142 0 217 76t75 220v112q-116 -143 -328 -143q-188 0 -301.5 121t-113.5 322v604h284v-590q0 -111 59 -171.5t166 -60.5q105 0 169.5 63t64.5 166v593h285v-1016q0 -257 -149.5 -402t-414.5 -145z
M510 1199l67 407h304l-182 -407h-189z" />
    <glyph glyph-name="thorn" unicode="&#xfe;" horiz-adv-x="1287" 
d="M110 -464v2026h284v-606q127 143 318 143q101 0 192 -40t160 -111.5t109.5 -178t40.5 -230.5t-40.5 -230t-109.5 -177.5t-160 -111.5t-192 -40q-191 0 -318 143v-587h-284zM394 539q0 -146 76 -227t192 -81q117 0 192.5 81t75.5 227t-75.5 227.5t-192.5 81.5
q-116 0 -192 -81.5t-76 -227.5z" />
    <glyph glyph-name="ydieresis" unicode="&#xff;" horiz-adv-x="1228" 
d="M551 -484q-411 0 -582 336l227 138q63 -118 144 -170.5t198 -52.5q142 0 217 76t75 220v112q-116 -143 -328 -143q-188 0 -301.5 121t-113.5 322v604h284v-590q0 -111 59 -171.5t166 -60.5q105 0 169.5 63t64.5 166v593h285v-1016q0 -257 -149.5 -402t-414.5 -145z
M227 1378q0 71 47 116.5t115 45.5q67 0 114 -45.5t47 -116.5t-46.5 -116t-114.5 -45t-115 45t-47 116zM668 1378q0 71 47 116.5t114 45.5q68 0 115 -45.5t47 -116.5t-47 -116t-115 -45t-114.5 45t-46.5 116z" />
    <glyph glyph-name="Amacron" unicode="&#x100;" horiz-adv-x="1514" 
d="M48 0l541 1484h338l539 -1484h-311l-93 271h-618l-94 -271h-302zM414 1699v239h689v-239h-689zM527 513h451l-225 653z" />
    <glyph glyph-name="amacron" unicode="&#x101;" horiz-adv-x="1161" 
d="M427 -20q-150 0 -244 77t-94 216q0 58 18.5 105t49 80t79.5 60t99.5 45.5t120.5 36.5l309 81q-26 175 -224 175q-175 0 -277 -168l-198 122q80 139 209 214t299 75q226 0 352.5 -119.5t126.5 -330.5v-649h-258v157q-57 -84 -150.5 -130.5t-217.5 -46.5zM227 1294v239h689
v-239h-689zM373 301q0 -56 35.5 -85.5t95.5 -29.5q107 0 186 64.5t79 182.5v74l-245 -68q-75 -21 -113 -54t-38 -84z" />
    <glyph glyph-name="Abreve" unicode="&#x102;" horiz-adv-x="1514" 
d="M48 0l541 1484h338l539 -1484h-311l-93 271h-618l-94 -271h-302zM441 1865q0 33 16 87l212 -64q-6 -24 -6 -46q0 -41 24.5 -64.5t70.5 -23.5t71 24t25 66q0 22 -6 44l211 65q16 -54 16 -88q0 -112 -86.5 -187.5t-230.5 -75.5t-230.5 75.5t-86.5 187.5zM527 513h451
l-225 653z" />
    <glyph glyph-name="abreve" unicode="&#x103;" horiz-adv-x="1161" 
d="M427 -20q-150 0 -244 77t-94 216q0 58 18.5 105t49 80t79.5 60t99.5 45.5t120.5 36.5l309 81q-26 175 -224 175q-175 0 -277 -168l-198 122q80 139 209 214t299 75q226 0 352.5 -119.5t126.5 -330.5v-649h-258v157q-57 -84 -150.5 -130.5t-217.5 -46.5zM254 1460
q0 33 16 87l212 -64q-6 -24 -6 -46q0 -41 24.5 -64.5t70.5 -23.5t71 24t25 66q0 21 -6 44l211 65q16 -54 16 -88q0 -112 -86.5 -187.5t-230.5 -75.5t-230.5 75.5t-86.5 187.5zM373 301q0 -56 35.5 -85.5t95.5 -29.5q107 0 186 64.5t79 182.5v74l-245 -68q-75 -21 -113 -54
t-38 -84z" />
    <glyph glyph-name="Aogonek" unicode="&#x104;" horiz-adv-x="1514" 
d="M1298 -407q-117 0 -183.5 51.5t-66.5 140.5q0 56 39.5 113t109.5 102h-42l-93 271h-619l-93 -271h-302l541 1484h338l539 -1484q-128 -68 -174.5 -113.5t-46.5 -87.5q0 -24 19 -39.5t49 -15.5q65 0 112 55l107 -101q-97 -104 -234 -105zM526 513h453l-226 657z" />
    <glyph glyph-name="aogonek" unicode="&#x105;" horiz-adv-x="1161" 
d="M884 -407q-117 0 -183 52t-66 140q0 59 42.5 118.5t117.5 105.5v146q-57 -83 -150.5 -129t-217.5 -46q-150 0 -244 77t-94 216q0 58 18.5 105t49 80t79.5 60t99.5 45.5t120.5 36.5l309 81q-26 175 -224 175q-175 0 -277 -168l-198 122q80 139 209 214t299 75
q226 0 352.5 -119.5t126.5 -330.5v-649q-128 -68 -174.5 -113.5t-46.5 -87.5q0 -24 19 -39.5t49 -15.5q65 0 112 55l106 -101q-94 -104 -234 -105zM373 301q0 -56 35.5 -85.5t95.5 -29.5q107 0 186 64.5t79 182.5v74l-245 -68q-75 -21 -113 -54t-38 -84z" />
    <glyph glyph-name="Cacute" unicode="&#x106;" horiz-adv-x="1568" 
d="M796 -20q-152 0 -282.5 54.5t-225 152.5t-148.5 241.5t-54 313.5t54 313.5t148.5 241.5t225 153t282.5 55q250 0 427.5 -134t236.5 -365l-279 -56q-41 141 -140 220t-245 79q-191 0 -306.5 -138t-115.5 -369t115.5 -369t306.5 -138q146 0 245.5 79.5t140.5 220.5l278 -56
q-58 -232 -236 -365.5t-428 -133.5zM697 1604l67 407h304l-182 -407h-189z" />
    <glyph glyph-name="cacute" unicode="&#x107;" horiz-adv-x="1242" 
d="M638 -20q-118 0 -221 38.5t-179.5 108.5t-120.5 176.5t-44 235.5q0 172 76 300.5t203.5 194t285.5 65.5q213 0 356.5 -103t182.5 -294l-284 -49q-22 94 -90.5 144.5t-164.5 50.5q-124 0 -202 -78.5t-78 -230.5q0 -151 78 -229.5t202 -78.5q96 0 164.5 50t90.5 144
l284 -48q-39 -192 -182 -294.5t-357 -102.5zM526 1199l67 407h304l-182 -407h-189z" />
    <glyph glyph-name="Ccircumflex" unicode="&#x108;" horiz-adv-x="1568" 
d="M796 -20q-152 0 -282.5 54.5t-225 152.5t-148.5 241.5t-54 313.5t54 313.5t148.5 241.5t225 153t282.5 55q250 0 427.5 -134t236.5 -365l-279 -56q-41 141 -140 220t-245 79q-191 0 -306.5 -138t-115.5 -369t115.5 -369t306.5 -138q146 0 245.5 79.5t140.5 220.5l278 -56
q-58 -232 -236 -365.5t-428 -133.5zM409 1604l226 407h316l227 -407h-249l-133 249l-133 -249h-254z" />
    <glyph glyph-name="ccircumflex" unicode="&#x109;" horiz-adv-x="1242" 
d="M638 -20q-118 0 -221 38.5t-179.5 108.5t-120.5 176.5t-44 235.5q0 172 76 300.5t203.5 194t285.5 65.5q213 0 356.5 -103t182.5 -294l-284 -49q-22 94 -90.5 144.5t-164.5 50.5q-124 0 -202 -78.5t-78 -230.5q0 -151 78 -229.5t202 -78.5q96 0 164.5 50t90.5 144
l284 -48q-39 -192 -182 -294.5t-357 -102.5zM238 1199l226 407h316l227 -407h-249l-133 249l-133 -249h-254z" />
    <glyph glyph-name="Cdotaccent" unicode="&#x10a;" horiz-adv-x="1568" 
d="M796 -20q-152 0 -282.5 54.5t-225 152.5t-148.5 241.5t-54 313.5t54 313.5t148.5 241.5t225 153t282.5 55q250 0 427.5 -134t236.5 -365l-279 -56q-41 141 -140 220t-245 79q-191 0 -306.5 -138t-115.5 -369t115.5 -369t306.5 -138q146 0 245.5 79.5t140.5 220.5l278 -56
q-58 -232 -236 -365.5t-428 -133.5zM621 1782q0 77 50.5 126t124.5 49t125 -49t51 -126q0 -78 -51 -127t-125 -49t-124.5 49t-50.5 127z" />
    <glyph glyph-name="cdotaccent" unicode="&#x10b;" horiz-adv-x="1242" 
d="M638 -20q-118 0 -221 38.5t-179.5 108.5t-120.5 176.5t-44 235.5q0 172 76 300.5t203.5 194t285.5 65.5q213 0 356.5 -103t182.5 -294l-284 -49q-22 94 -90.5 144.5t-164.5 50.5q-124 0 -202 -78.5t-78 -230.5q0 -151 78 -229.5t202 -78.5q96 0 164.5 50t90.5 144
l284 -48q-39 -192 -182 -294.5t-357 -102.5zM450 1377q0 77 50.5 126t124.5 49t125 -49t51 -126q0 -78 -51 -127t-125 -49t-124.5 49t-50.5 127z" />
    <glyph glyph-name="Ccaron" unicode="&#x10c;" horiz-adv-x="1568" 
d="M796 -20q-152 0 -282.5 54.5t-225 152.5t-148.5 241.5t-54 313.5t54 313.5t148.5 241.5t225 153t282.5 55q250 0 427.5 -134t236.5 -365l-279 -56q-41 141 -140 220t-245 79q-191 0 -306.5 -138t-115.5 -369t115.5 -369t306.5 -138q146 0 245.5 79.5t140.5 220.5l278 -56
q-58 -232 -236 -365.5t-428 -133.5zM407 2012h249l133 -249l133 249h254l-226 -407h-316z" />
    <glyph glyph-name="ccaron" unicode="&#x10d;" horiz-adv-x="1242" 
d="M638 -20q-118 0 -221 38.5t-179.5 108.5t-120.5 176.5t-44 235.5q0 172 76 300.5t203.5 194t285.5 65.5q213 0 356.5 -103t182.5 -294l-284 -49q-22 94 -90.5 144.5t-164.5 50.5q-124 0 -202 -78.5t-78 -230.5q0 -151 78 -229.5t202 -78.5q96 0 164.5 50t90.5 144
l284 -48q-39 -192 -182 -294.5t-357 -102.5zM236 1607h249l133 -249l133 249h254l-226 -407h-316z" />
    <glyph glyph-name="Dcaron" unicode="&#x10e;" horiz-adv-x="1471" 
d="M130 0v1484h561q150 0 278 -53t220 -148.5t144 -235t52 -305.5q0 -221 -89.5 -390.5t-247 -260.5t-357.5 -91h-561zM278 2012h249l133 -249l133 249h254l-226 -407h-316zM418 255h273q187 0 296.5 133.5t109.5 353.5q0 221 -109.5 354t-296.5 133h-273v-974z" />
    <glyph glyph-name="dcaron" unicode="&#x10f;" horiz-adv-x="1290" 
d="M575 -20q-101 0 -192 40t-160 111.5t-109.5 177.5t-40.5 230t40.5 230.5t109.5 178t160 111.5t192 40q191 0 317 -142v605h285v-1562h-257v157q-62 -84 -151 -130.5t-194 -46.5zM357 539q0 -146 75.5 -227t192.5 -81q116 0 191.5 81t75.5 227t-75.5 227.5t-191.5 81.5
q-117 0 -192.5 -81.5t-75.5 -227.5zM1280 1140l40 422h280l-122 -422h-198z" />
    <glyph glyph-name="Dcroat" unicode="&#x110;" horiz-adv-x="1470" 
d="M130 0v615h-206v255h206v614h561q150 0 278 -53t220 -148.5t144 -235t52 -305.5q0 -221 -89.5 -390.5t-247 -260.5t-357.5 -91h-561zM418 255h273q187 0 296.5 133.5t109.5 353.5q0 221 -109.5 354t-296.5 133h-273v-359h273v-255h-273v-360z" />
    <glyph glyph-name="dcroat" unicode="&#x111;" horiz-adv-x="1290" 
d="M575 -20q-101 0 -192 40t-160 111.5t-109.5 177.5t-40.5 230t40.5 230.5t109.5 178t160 111.5t192 40q191 0 317 -142v255h-305v180h305v170h285v-170h171v-180h-171v-1212h-257v157q-62 -84 -151 -130.5t-194 -46.5zM357 539q0 -146 75.5 -227t192.5 -81q116 0 191.5 81
t75.5 227t-75.5 227.5t-191.5 81.5q-117 0 -192.5 -81.5t-75.5 -227.5z" />
    <glyph glyph-name="Emacron" unicode="&#x112;" horiz-adv-x="1332" 
d="M130 0v1484h1059v-249h-771v-357h672v-250h-672v-378h812v-250h-1100zM325 1699v239h689v-239h-689z" />
    <glyph glyph-name="emacron" unicode="&#x113;" horiz-adv-x="1232" 
d="M626 -20q-157 0 -282.5 68.5t-198 196.5t-72.5 294t73.5 294.5t200 197t283.5 68.5q244 0 386.5 -141t142.5 -398v-72h-799q13 -129 86 -197t180 -68q186 0 268 162l245 -91q-68 -148 -200.5 -231t-312.5 -83zM287 1294v239h689v-239h-689zM376 667h485q-21 94 -80 141.5
t-151 47.5q-90 0 -158 -48t-96 -141z" />
    <glyph glyph-name="Edotaccent" unicode="&#x116;" horiz-adv-x="1332" 
d="M130 0v1484h1059v-249h-771v-357h672v-250h-672v-378h812v-250h-1100zM494 1782q0 77 50.5 126t124.5 49t125 -49t51 -126q0 -78 -51 -127t-125 -49t-124.5 49t-50.5 127z" />
    <glyph glyph-name="edotaccent" unicode="&#x117;" horiz-adv-x="1232" 
d="M626 -20q-157 0 -282.5 68.5t-198 196.5t-72.5 294t73.5 294.5t200 197t283.5 68.5q244 0 386.5 -141t142.5 -398v-72h-799q13 -129 86 -197t180 -68q186 0 268 162l245 -91q-68 -148 -200.5 -231t-312.5 -83zM376 667h485q-21 94 -80 141.5t-151 47.5q-90 0 -158 -48
t-96 -141zM456 1377q0 77 50.5 126t124.5 49t125 -49t51 -126q0 -78 -51 -127t-125 -49t-124.5 49t-50.5 127z" />
    <glyph glyph-name="Eogonek" unicode="&#x118;" horiz-adv-x="1332" 
d="M959 -407q-117 0 -183.5 51.5t-66.5 140.5q0 57 39 113.5t109 101.5h-727v1484h1059v-249h-771v-357h672v-250h-672v-378h812v-250h-119q-118 -70 -161.5 -115t-43.5 -86q0 -24 19 -39.5t49 -15.5q65 0 112 55l107 -101q-97 -104 -234 -105z" />
    <glyph glyph-name="eogonek" unicode="&#x119;" horiz-adv-x="1232" 
d="M711 -407q-117 0 -183.5 51.5t-66.5 140.5q0 106 122 197q-224 15 -367 167t-143 390q0 166 73.5 294.5t200 197t283.5 68.5q244 0 386.5 -141t142.5 -398v-72h-799q13 -129 86 -197t180 -68q186 0 268 162l245 -91q-64 -137 -175 -213l-126 -87q-101 -69 -140.5 -112.5
t-39.5 -82.5q0 -24 19 -39.5t49 -15.5q66 0 111 55l108 -101q-97 -104 -234 -105zM376 667h485q-21 94 -80 141.5t-151 47.5q-90 0 -158 -48t-96 -141z" />
    <glyph glyph-name="Ecaron" unicode="&#x11a;" horiz-adv-x="1332" 
d="M130 0v1484h1059v-249h-771v-357h672v-250h-672v-378h812v-250h-1100zM280 2012h249l133 -249l133 249h254l-226 -407h-316z" />
    <glyph glyph-name="ecaron" unicode="&#x11b;" horiz-adv-x="1232" 
d="M626 -20q-157 0 -282.5 68.5t-198 196.5t-72.5 294t73.5 294.5t200 197t283.5 68.5q244 0 386.5 -141t142.5 -398v-72h-799q13 -129 86 -197t180 -68q186 0 268 162l245 -91q-68 -148 -200.5 -231t-312.5 -83zM242 1607h249l133 -249l133 249h254l-226 -407h-316z
M376 667h485q-21 94 -80 141.5t-151 47.5q-90 0 -158 -48t-96 -141z" />
    <glyph glyph-name="Gcircumflex" unicode="&#x11c;" horiz-adv-x="1609" 
d="M816 -20q-330 0 -530 208t-200 554q0 171 52 314t145 241.5t224.5 153t287.5 54.5q250 0 427.5 -124t243.5 -343l-277 -68q-45 132 -145.5 205.5t-248.5 73.5q-190 0 -305.5 -138t-115.5 -369q0 -233 120.5 -370t330.5 -137q114 0 210 47.5t163 135.5v279h289v-697h-233
l-13 122q-170 -142 -425 -142zM438 1604l226 407h316l227 -407h-249l-133 249l-133 -249h-254z" />
    <glyph glyph-name="gcircumflex" unicode="&#x11d;" horiz-adv-x="1290" 
d="M576 -484q-429 0 -613 344l227 135q33 -59 65.5 -97.5t77.5 -70t104.5 -46t137.5 -14.5q144 0 231 83t87 241v43q-125 -114 -305 -114q-105 0 -199 40t-164 110t-111 171.5t-41 218.5q0 156 70 280t187.5 191.5t257.5 67.5q179 0 305 -113v93h284v-988
q0 -272 -163 -423.5t-438 -151.5zM258 1199l226 407h316l227 -407h-249l-133 249l-133 -249h-254zM358 560q0 -134 76 -211t192 -77q115 0 191 77t76 211t-76 211t-191 77q-116 0 -192 -77t-76 -211z" />
    <glyph glyph-name="Gbreve" unicode="&#x11e;" horiz-adv-x="1609" 
d="M816 -20q-330 0 -530 208t-200 554q0 171 52 314t145 241.5t224.5 153t287.5 54.5q250 0 427.5 -124t243.5 -343l-277 -68q-45 132 -145.5 205.5t-248.5 73.5q-190 0 -305.5 -138t-115.5 -369q0 -233 120.5 -370t330.5 -137q114 0 210 47.5t163 135.5v279h289v-697h-233
l-13 122q-170 -142 -425 -142zM508 1865q0 33 16 87l212 -64q-6 -24 -6 -46q0 -41 24.5 -64.5t70.5 -23.5t71 24t25 66q0 22 -6 44l211 65q16 -54 16 -88q0 -112 -86.5 -187.5t-230.5 -75.5t-230.5 75.5t-86.5 187.5z" />
    <glyph glyph-name="gbreve" unicode="&#x11f;" horiz-adv-x="1290" 
d="M576 -484q-429 0 -613 344l227 135q33 -59 65.5 -97.5t77.5 -70t104.5 -46t137.5 -14.5q144 0 231 83t87 241v43q-125 -114 -305 -114q-105 0 -199 40t-164 110t-111 171.5t-41 218.5q0 156 70 280t187.5 191.5t257.5 67.5q179 0 305 -113v93h284v-988
q0 -272 -163 -423.5t-438 -151.5zM328 1460q0 33 16 87l212 -64q-6 -24 -6 -46q0 -41 24.5 -64.5t70.5 -23.5t71 24t25 66q0 21 -6 44l211 65q16 -54 16 -88q0 -112 -86.5 -187.5t-230.5 -75.5t-230.5 75.5t-86.5 187.5zM358 560q0 -134 76 -211t192 -77q115 0 191 77
t76 211t-76 211t-191 77q-116 0 -192 -77t-76 -211z" />
    <glyph glyph-name="Gdotaccent" unicode="&#x120;" horiz-adv-x="1609" 
d="M816 -20q-330 0 -530 208t-200 554q0 171 52 314t145 241.5t224.5 153t287.5 54.5q250 0 427.5 -124t243.5 -343l-277 -68q-45 132 -145.5 205.5t-248.5 73.5q-190 0 -305.5 -138t-115.5 -369q0 -233 120.5 -370t330.5 -137q114 0 210 47.5t163 135.5v279h289v-697h-233
l-13 122q-170 -142 -425 -142zM650 1782q0 77 50.5 126t124.5 49t125 -49t51 -126q0 -78 -51 -127t-125 -49t-124.5 49t-50.5 127z" />
    <glyph glyph-name="gdotaccent" unicode="&#x121;" horiz-adv-x="1290" 
d="M576 -484q-429 0 -613 344l227 135q33 -59 65.5 -97.5t77.5 -70t104.5 -46t137.5 -14.5q144 0 231 83t87 241v43q-125 -114 -305 -114q-105 0 -199 40t-164 110t-111 171.5t-41 218.5q0 156 70 280t187.5 191.5t257.5 67.5q179 0 305 -113v93h284v-988
q0 -272 -163 -423.5t-438 -151.5zM358 560q0 -134 76 -211t192 -77q115 0 191 77t76 211t-76 211t-191 77q-116 0 -192 -77t-76 -211zM470 1377q0 77 50.5 126t124.5 49t125 -49t51 -126q0 -78 -51 -127t-125 -49t-124.5 49t-50.5 127z" />
    <glyph glyph-name="uni0122" unicode="&#x122;" horiz-adv-x="1609" 
d="M816 -20q-330 0 -530 208t-200 554q0 171 52 314t145 241.5t224.5 153t287.5 54.5q250 0 427.5 -124t243.5 -343l-277 -68q-45 132 -145.5 205.5t-248.5 73.5q-190 0 -305.5 -138t-115.5 -369q0 -233 120.5 -370t330.5 -137q114 0 210 47.5t163 135.5v279h289v-697h-233
l-13 122q-170 -142 -425 -142zM622 -663l139 210q-47 16 -76 54t-29 92q0 74 48 120t119 46q70 0 118 -47t48 -124q0 -64 -23 -109t-76 -110l-160 -204z" />
    <glyph glyph-name="uni0123" unicode="&#x123;" horiz-adv-x="1290" 
d="M576 -484q-429 0 -613 344l227 135q33 -59 65.5 -97.5t77.5 -70t104.5 -46t137.5 -14.5q144 0 231 83t87 241v43q-125 -114 -305 -114q-105 0 -199 40t-164 110t-111 171.5t-41 218.5q0 156 70 280t187.5 191.5t257.5 67.5q179 0 305 -113v93h284v-988
q0 -272 -163 -423.5t-438 -151.5zM358 560q0 -134 76 -211t192 -77q115 0 191 77t76 211t-76 211t-191 77q-116 0 -192 -77t-76 -211zM479 1375q0 64 23 108.5t76 110.5l160 204l109 -73l-140 -209q48 -16 77 -54t29 -92q0 -74 -48.5 -120t-119.5 -46q-69 0 -117.5 47
t-48.5 124z" />
    <glyph glyph-name="Hcircumflex" unicode="&#x124;" horiz-adv-x="1508" 
d="M130 0v1484h288v-622h672v622h288v-1484h-288v606h-672v-606h-288zM370 1604l226 407h316l227 -407h-249l-133 249l-133 -249h-254z" />
    <glyph glyph-name="hcircumflex" unicode="&#x125;" horiz-adv-x="1249" 
d="M857 0v622q0 104 -64.5 168.5t-167.5 64.5q-99 0 -163 -64.5t-64 -167.5v-623h-285v1562h285v-610q111 147 314 147q193 0 311 -123t118 -319v-657h-284zM-131 1682l226 407h316l227 -407h-249l-133 249l-133 -249h-254z" />
    <glyph glyph-name="Hbar" unicode="&#x126;" horiz-adv-x="1560" 
d="M156 0v1070h-129v239h129v175h288v-175h672v175h288v-175h129v-239h-129v-1070h-288v606h-672v-606h-288zM444 862h672v208h-672v-208z" />
    <glyph glyph-name="hbar" unicode="&#x127;" horiz-adv-x="1249" 
d="M857 0v622q0 104 -64.5 168.5t-167.5 64.5q-99 0 -163 -64.5t-64 -167.5v-623h-285v1212h-136v180h136v170h285v-170h341v-180h-341v-260q111 147 314 147q193 0 311 -123t118 -319v-657h-284z" />
    <glyph glyph-name="Itilde" unicode="&#x128;" horiz-adv-x="548" 
d="M130 0v1484h288v-1484h-288zM-107 1745q0 98 57.5 157.5t146.5 59.5q52 0 115.5 -27.5t115.5 -55t77 -27.5q26 0 42 16t16 46q0 17 -9 48l173 38q29 -71 29 -131q0 -95 -57 -152.5t-144 -57.5q-52 0 -116.5 28t-117 56t-77.5 28q-26 0 -41.5 -16.5t-15.5 -47.5
q0 -23 8 -48l-181 -38q-21 69 -21 124z" />
    <glyph glyph-name="itilde" unicode="&#x129;" horiz-adv-x="516" 
d="M116 0v1079h284v-1079h-284zM-123 1340q0 98 57.5 157.5t146.5 59.5q52 0 115.5 -27.5t115.5 -55t77 -27.5q26 0 42 16t16 46q0 17 -9 48l173 38q29 -71 29 -131q0 -95 -57 -152.5t-144 -57.5q-52 0 -116.5 28t-117 56t-77.5 28q-26 0 -41.5 -16.5t-15.5 -47.5
q0 -23 8 -48l-181 -38q-21 69 -21 124z" />
    <glyph glyph-name="Imacron" unicode="&#x12a;" horiz-adv-x="548" 
d="M130 0v1484h288v-1484h-288zM-70 1699v239h689v-239h-689z" />
    <glyph glyph-name="imacron" unicode="&#x12b;" horiz-adv-x="516" 
d="M116 0v1079h284v-1079h-284zM-86 1294v239h689v-239h-689z" />
    <glyph glyph-name="Iogonek" unicode="&#x12e;" horiz-adv-x="548" 
d="M250 -407q-117 0 -183.5 51.5t-66.5 140.5q0 56 39 112.5t109 102.5h-18v1484h288v-1484q-128 -68 -174.5 -113.5t-46.5 -87.5q0 -24 18.5 -39.5t49.5 -15.5q66 0 111 55l108 -101q-95 -104 -234 -105z" />
    <glyph glyph-name="iogonek" unicode="&#x12f;" horiz-adv-x="516" 
d="M232 -407q-117 0 -183.5 51.5t-66.5 140.5q0 56 38 112.5t107 102.5h-11v1079h284v-1079q-128 -68 -174.5 -113.5t-46.5 -87.5q0 -24 19 -39.5t50 -15.5q65 0 110 55l108 -101q-95 -104 -234 -105zM83 1392q0 77 50.5 126t124.5 49t125 -49t51 -126q0 -78 -51 -127
t-125 -49t-124.5 49t-50.5 127z" />
    <glyph glyph-name="Idotaccent" unicode="&#x130;" horiz-adv-x="548" 
d="M130 0v1484h288v-1484h-288zM99 1782q0 77 50.5 126t124.5 49t125 -49t51 -126q0 -78 -51 -127t-125 -49t-124.5 49t-50.5 127z" />
    <glyph glyph-name="dotlessi" unicode="&#x131;" horiz-adv-x="516" 
d="M116 0v1079h284v-1079h-284z" />
    <glyph glyph-name="IJ" unicode="&#x132;" horiz-adv-x="1679" 
d="M130 0v1484h288v-1484h-288zM623 363l286 52q15 -179 175 -179q177 0 177 195v1053h288v-1057q0 -223 -122 -334.5t-343 -111.5q-203 0 -322.5 95.5t-138.5 286.5z" />
    <glyph glyph-name="ij" unicode="&#x133;" horiz-adv-x="1032" 
d="M116 0v1079h284v-1079h-284zM77 -137l259 51q18 -77 54.5 -112.5t102.5 -35.5t102.5 38.5t36.5 115.5v1159h284v-1172q0 -177 -114 -284.5t-296 -107.5q-171 0 -287 90t-142 258zM83 1392q0 77 50.5 126t124.5 49t125 -49t51 -126q0 -78 -51 -127t-125 -49t-124.5 49
t-50.5 127zM598 1392q0 77 51 126t125 49t124.5 -49t50.5 -126q0 -78 -50.5 -127t-124.5 -49t-125 49t-51 127z" />
    <glyph glyph-name="Jcircumflex" unicode="&#x134;" horiz-adv-x="1131" 
d="M536 -19q-203 0 -322.5 95.5t-138.5 286.5l286 52q15 -179 175 -179q177 0 177 195v1053h288v-1057q0 -223 -122 -334.5t-343 -111.5zM470 1604l226 407h316l227 -407h-249l-133 249l-133 -249h-254z" />
    <glyph glyph-name="jcircumflex" unicode="&#x135;" horiz-adv-x="516" 
d="M-10 -485q-171 0 -287 90t-142 258l259 51q18 -77 54.5 -112.5t102.5 -35.5t102.5 38.5t36.5 115.5v1159h284v-1172q0 -177 -114 -284.5t-296 -107.5zM-129 1199l226 407h316l227 -407h-249l-133 249l-133 -249h-254z" />
    <glyph glyph-name="uni0136" unicode="&#x136;" horiz-adv-x="1486" 
d="M130 0v1484h288v-662l592 662h364l-598 -656l658 -828h-365l-494 629l-157 -172v-457h-288zM528 -663l139 210q-47 16 -76 54t-29 92q0 74 48 120t119 46q70 0 118 -47t48 -124q0 -64 -23 -109t-76 -110l-160 -204z" />
    <glyph glyph-name="uni0137" unicode="&#x137;" horiz-adv-x="1267" 
d="M892 0l-322 446l-172 -170v-276h-285v1562h285v-949l452 466h359l-429 -442l463 -637h-351zM426 -663l139 210q-47 16 -76 54t-29 92q0 74 48 120t119 46q70 0 118 -47t48 -124q0 -64 -23 -109t-76 -110l-160 -204z" />
    <glyph glyph-name="kgreenlandic" unicode="&#x138;" horiz-adv-x="1267" 
d="M892 0l-322 446l-172 -170v-276h-285v1079h285v-466l452 466h359l-429 -442l463 -637h-351z" />
    <glyph glyph-name="Lacute" unicode="&#x139;" horiz-adv-x="1276" 
d="M130 0v1484h288v-1229h776v-255h-1064zM196 1604l67 407h304l-182 -407h-189z" />
    <glyph glyph-name="lacute" unicode="&#x13a;" horiz-adv-x="664" 
d="M436 -20q-69 0 -125 17t-101.5 54t-71 101.5t-25.5 152.5v1257h285v-1227q0 -104 90 -104q42 0 88 20l79 -217q-103 -54 -219 -54zM149 1682l67 407h304l-182 -407h-189z" />
    <glyph glyph-name="uni013B" unicode="&#x13b;" horiz-adv-x="1276" 
d="M130 0v1484h288v-1229h776v-255h-1064zM421 -663l139 210q-47 16 -76 54t-29 92q0 74 48 120t119 46q70 0 118 -47t48 -124q0 -64 -23 -109t-76 -110l-160 -204z" />
    <glyph glyph-name="uni013C" unicode="&#x13c;" horiz-adv-x="664" 
d="M436 -20q-69 0 -125 17t-101.5 54t-71 101.5t-25.5 152.5v1257h285v-1227q0 -104 90 -104q42 0 88 20l79 -217q-103 -54 -219 -54zM140 -663l139 210q-47 16 -76 54t-29 92q0 74 48 120t119 46q70 0 118 -47t48 -124q0 -64 -23 -109t-76 -110l-160 -204z" />
    <glyph glyph-name="Lcaron" unicode="&#x13d;" horiz-adv-x="1276" 
d="M130 0v1484h288v-1229h776v-255h-1064zM521 1062l40 422h280l-122 -422h-198z" />
    <glyph glyph-name="lcaron" unicode="&#x13e;" horiz-adv-x="664" 
d="M436 -20q-69 0 -125 17t-101.5 54t-71 101.5t-25.5 152.5v1257h285v-1227q0 -104 90 -104q42 0 88 20l79 -217q-103 -54 -219 -54zM501 1140l40 422h280l-122 -422h-198z" />
    <glyph glyph-name="Ldot" unicode="&#x13f;" horiz-adv-x="1276" 
d="M130 0v1484h288v-1229h776v-255h-1064zM719 853q0 79 51 128.5t126 49.5t126.5 -49.5t51.5 -128.5q0 -78 -51.5 -127.5t-126.5 -49.5t-126 49t-51 128z" />
    <glyph glyph-name="ldot" unicode="&#x140;" horiz-adv-x="779" 
d="M436 -20q-69 0 -125 17t-101.5 54t-71 101.5t-25.5 152.5v1257h285v-1227q0 -104 90 -104q42 0 88 20l79 -217q-103 -54 -219 -54zM468 765q0 79 51 128.5t126 49.5t126.5 -49.5t51.5 -128.5q0 -78 -51.5 -127.5t-126.5 -49.5t-126 49t-51 128z" />
    <glyph glyph-name="Lslash" unicode="&#x141;" horiz-adv-x="1396" 
d="M40 545v239l211 63v637h288v-563l400 121v-239l-400 -121v-427h776v-255h-1064v608z" />
    <glyph glyph-name="lslash" unicode="&#x142;" horiz-adv-x="748" 
d="M493 -20q-69 0 -125 17t-101.5 54t-71 101.5t-25.5 152.5v289l-162 -49v239l162 49v729h285v-657l244 73v-239l-244 -73v-331q0 -104 90 -104q42 0 88 20l79 -217q-103 -54 -219 -54z" />
    <glyph glyph-name="Nacute" unicode="&#x143;" horiz-adv-x="1515" 
d="M130 0v1484h263l718 -992v992h275v-1484h-270l-712 985v-985h-274zM653 1604l67 407h304l-182 -407h-189z" />
    <glyph glyph-name="nacute" unicode="&#x144;" horiz-adv-x="1246" 
d="M854 0v622q0 103 -64 168t-168 65q-100 0 -164 -65t-64 -167v-623h-284v1079h271v-147q111 167 328 167q192 0 310.5 -122.5t118.5 -319.5v-657h-284zM519 1199l67 407h304l-182 -407h-189z" />
    <glyph glyph-name="uni0145" unicode="&#x145;" horiz-adv-x="1515" 
d="M130 0v1484h263l718 -992v992h275v-1484h-270l-712 985v-985h-274zM549 -663l139 210q-47 16 -76 54t-29 92q0 74 48 120t119 46q70 0 118 -47t48 -124q0 -64 -23 -109t-76 -110l-160 -204z" />
    <glyph glyph-name="uni0146" unicode="&#x146;" horiz-adv-x="1246" 
d="M854 0v622q0 103 -64 168t-168 65q-100 0 -164 -65t-64 -167v-623h-284v1079h271v-147q111 167 328 167q192 0 310.5 -122.5t118.5 -319.5v-657h-284zM397 -663l139 210q-47 16 -76 54t-29 92q0 74 48 120t119 46q70 0 118 -47t48 -124q0 -64 -23 -109t-76 -110
l-160 -204z" />
    <glyph glyph-name="Ncaron" unicode="&#x147;" horiz-adv-x="1515" 
d="M130 0v1484h263l718 -992v992h275v-1484h-270l-712 985v-985h-274zM363 2012h249l133 -249l133 249h254l-226 -407h-316z" />
    <glyph glyph-name="ncaron" unicode="&#x148;" horiz-adv-x="1246" 
d="M854 0v622q0 103 -64 168t-168 65q-100 0 -164 -65t-64 -167v-623h-284v1079h271v-147q111 167 328 167q192 0 310.5 -122.5t118.5 -319.5v-657h-284zM229 1607h249l133 -249l133 249h254l-226 -407h-316z" />
    <glyph glyph-name="napostrophe" unicode="&#x149;" horiz-adv-x="1600" 
d="M130 807l-117 75l182 291q-50 15 -81 56.5t-31 97.5q0 79 51 128.5t126 49.5t126.5 -50.5t51.5 -132.5q0 -21 -2 -39.5t-9.5 -38t-11.5 -31t-17.5 -32.5t-18.5 -28t-24 -32.5t-24 -32.5zM464 0v1079h271v-147q111 167 328 167q192 0 310.5 -122.5t118.5 -319.5v-657h-284
v622q0 103 -64 168t-168 65q-100 0 -164 -65t-64 -167v-623h-284z" />
    <glyph glyph-name="Eng" unicode="&#x14a;" horiz-adv-x="1515" 
d="M922 -484q-203 0 -322.5 95.5t-140.5 286.5l287 52q16 -179 176 -179q176 0 176 195v58l-694 960v-984h-274v1484h263l718 -992v992h275v-1522q0 -223 -121.5 -334.5t-342.5 -111.5z" />
    <glyph glyph-name="eng" unicode="&#x14b;" horiz-adv-x="1246" 
d="M728 -485q-172 0 -287.5 90t-141.5 258l259 51q17 -77 54.5 -112.5t102.5 -35.5q66 0 102.5 38.5t36.5 115.5v702q0 103 -64 168t-168 65q-100 0 -164 -65t-64 -167v-623h-284v1079h271v-147q111 167 328 167q192 0 310.5 -122.5t118.5 -319.5v-750q0 -177 -114 -284.5
t-296 -107.5z" />
    <glyph glyph-name="Omacron" unicode="&#x14c;" horiz-adv-x="1598" 
d="M799 -20q-206 0 -367.5 93.5t-253.5 267.5t-92 401q0 170 53.5 313.5t147.5 242t226 153t286 54.5t285.5 -54.5t226 -153t148 -241.5t53.5 -314t-53.5 -314t-148 -241t-226 -152.5t-285.5 -54.5zM374 742q0 -232 115 -369.5t310 -137.5q196 0 310.5 138t114.5 369
t-114.5 369t-310.5 138q-195 0 -310 -137.5t-115 -369.5zM455 1699v239h689v-239h-689z" />
    <glyph glyph-name="omacron" unicode="&#x14d;" horiz-adv-x="1250" 
d="M625 -20q-157 0 -282 68.5t-197.5 196.5t-72.5 294q0 251 156.5 405.5t395.5 154.5q156 0 281.5 -68.5t198 -197t72.5 -294.5q0 -250 -156.5 -404.5t-395.5 -154.5zM282 1294v239h689v-239h-689zM358 539q0 -149 75 -228.5t192 -79.5q118 0 193 79.5t75 228.5t-75.5 229
t-192.5 80t-192 -80t-75 -229z" />
    <glyph glyph-name="Ohungarumlaut" unicode="&#x150;" horiz-adv-x="1598" 
d="M799 -20q-206 0 -367.5 93.5t-253.5 267.5t-92 401q0 170 53.5 313.5t147.5 242t226 153t286 54.5t285.5 -54.5t226 -153t148 -241.5t53.5 -314t-53.5 -314t-148 -241t-226 -152.5t-285.5 -54.5zM374 742q0 -232 115 -369.5t310 -137.5q196 0 310.5 138t114.5 369
t-114.5 369t-310.5 138q-195 0 -310 -137.5t-115 -369.5zM455 1604l66 407h304l-180 -407h-190zM901 1604l67 407h304l-181 -407h-190z" />
    <glyph glyph-name="ohungarumlaut" unicode="&#x151;" horiz-adv-x="1250" 
d="M625 -20q-157 0 -282 68.5t-197.5 196.5t-72.5 294q0 251 156.5 405.5t395.5 154.5q156 0 281.5 -68.5t198 -197t72.5 -294.5q0 -250 -156.5 -404.5t-395.5 -154.5zM282 1199l66 407h304l-180 -407h-190zM358 539q0 -149 75 -228.5t192 -79.5q118 0 193 79.5t75 228.5
t-75.5 229t-192.5 80t-192 -80t-75 -229zM728 1199l67 407h304l-181 -407h-190z" />
    <glyph glyph-name="OE" unicode="&#x152;" horiz-adv-x="2255" 
d="M781 0q-200 0 -357.5 91t-247.5 260.5t-90 390.5q0 222 90 391.5t247.5 260t357.5 90.5h1331v-249h-771v-357h671v-250h-671v-378h812v-250h-1372zM374 742q0 -220 109.5 -353.5t297.5 -133.5h272v974h-272q-188 0 -297.5 -133t-109.5 -354z" />
    <glyph glyph-name="oe" unicode="&#x153;" horiz-adv-x="2052" 
d="M610 -20q-112 0 -210 40t-170.5 112t-114.5 177.5t-42 229.5q0 125 42 230.5t114.5 177.5t170.5 112t210 40q138 0 246.5 -54t175.5 -154q134 208 433 208q234 0 374 -141.5t140 -397.5v-72h-799q13 -129 86.5 -197t180.5 -68q186 0 269 161l244 -90
q-68 -148 -194.5 -231t-292.5 -83q-144 0 -257 53t-182 157q-67 -101 -176 -155.5t-248 -54.5zM358 539q0 -149 75 -228.5t192 -79.5q118 0 193 79.5t75 228.5t-75.5 229t-192.5 80t-192 -80t-75 -229zM1196 667h486q-21 93 -80.5 141t-150.5 48q-90 0 -158.5 -48.5
t-96.5 -140.5z" />
    <glyph glyph-name="Racute" unicode="&#x154;" horiz-adv-x="1438" 
d="M130 0v1484h705q201 0 334.5 -127t133.5 -335q0 -162 -84.5 -273t-225.5 -154l369 -596h-339l-333 561h-272v-560h-288zM418 815h389q92 0 150 57.5t58 149.5t-58 149.5t-150 57.5h-389v-414zM571 1604l67 407h304l-182 -407h-189z" />
    <glyph glyph-name="racute" unicode="&#x155;" horiz-adv-x="1073" 
d="M110 0v1079h258v-121q97 140 284 140q159 0 258 -104.5t99 -286.5v-52l-273 -23v29q0 194 -170 194q-82 0 -127 -51.5t-45 -147.5v-656h-284zM442 1199l67 407h304l-182 -407h-189z" />
    <glyph glyph-name="uni0156" unicode="&#x156;" horiz-adv-x="1438" 
d="M130 0v1484h705q201 0 334.5 -127t133.5 -335q0 -162 -84.5 -273t-225.5 -154l369 -596h-339l-333 561h-272v-560h-288zM418 815h389q92 0 150 57.5t58 149.5t-58 149.5t-150 57.5h-389v-414zM501 -663l139 210q-47 16 -76 54t-29 92q0 74 48 120t119 46q70 0 118 -47
t48 -124q0 -64 -23 -109t-76 -110l-160 -204z" />
    <glyph glyph-name="uni0157" unicode="&#x157;" horiz-adv-x="1073" 
d="M110 0v1079h258v-121q97 140 284 140q159 0 258 -104.5t99 -286.5v-52l-273 -23v29q0 194 -170 194q-82 0 -127 -51.5t-45 -147.5v-656h-284zM50 -663l139 210q-47 16 -76 54t-29 92q0 74 48 120t119 46q70 0 118 -47t48 -124q0 -64 -23 -109t-76 -110l-160 -204z" />
    <glyph glyph-name="Rcaron" unicode="&#x158;" horiz-adv-x="1438" 
d="M130 0v1484h705q201 0 334.5 -127t133.5 -335q0 -162 -84.5 -273t-225.5 -154l369 -596h-339l-333 561h-272v-560h-288zM281 2012h249l133 -249l133 249h254l-226 -407h-316zM418 815h389q92 0 150 57.5t58 149.5t-58 149.5t-150 57.5h-389v-414z" />
    <glyph glyph-name="rcaron" unicode="&#x159;" horiz-adv-x="1073" 
d="M110 0v1079h258v-121q97 140 284 140q159 0 258 -104.5t99 -286.5v-52l-273 -23v29q0 194 -170 194q-82 0 -127 -51.5t-45 -147.5v-656h-284zM152 1607h249l133 -249l133 249h254l-226 -407h-316z" />
    <glyph glyph-name="Sacute" unicode="&#x15a;" horiz-adv-x="1267" 
d="M679 -20q-526 0 -618 468l288 49q29 -143 109 -209t212 -66q117 0 185 52.5t68 145.5q0 74 -45.5 115t-144.5 67l-213 57q-196 53 -286.5 148t-90.5 268q0 90 33.5 168t96 136.5t157.5 92t211 33.5q154 0 280 -55t206 -163l-197 -156q-105 132 -285 132
q-100 0 -161 -48.5t-61 -131.5q0 -76 42 -112t138 -61l238 -63q89 -23 154 -56t113.5 -81.5t72.5 -117.5t24 -160q0 -219 -144.5 -335.5t-381.5 -116.5zM537 1604l67 407h304l-182 -407h-189z" />
    <glyph glyph-name="sacute" unicode="&#x15b;" horiz-adv-x="1068" 
d="M567 -20q-207 0 -341.5 81.5t-171.5 254.5l251 49q28 -81 96.5 -124.5t167.5 -43.5q84 0 135.5 29t51.5 85q0 45 -30.5 68t-102.5 37l-196 39q-162 32 -239.5 105t-77.5 203q0 151 117 243.5t311 92.5q131 0 245 -55t170 -156l-207 -113q-32 50 -90.5 77.5t-125.5 27.5
q-79 0 -122.5 -31t-43.5 -80q0 -41 29.5 -62.5t95.5 -34.5l199 -39q166 -33 242.5 -103t76.5 -213q0 -163 -120 -250t-320 -87zM447 1199l67 407h304l-182 -407h-189z" />
    <glyph glyph-name="Scircumflex" unicode="&#x15c;" horiz-adv-x="1267" 
d="M679 -20q-526 0 -618 468l288 49q29 -143 109 -209t212 -66q117 0 185 52.5t68 145.5q0 74 -45.5 115t-144.5 67l-213 57q-196 53 -286.5 148t-90.5 268q0 90 33.5 168t96 136.5t157.5 92t211 33.5q154 0 280 -55t206 -163l-197 -156q-105 132 -285 132
q-100 0 -161 -48.5t-61 -131.5q0 -76 42 -112t138 -61l238 -63q89 -23 154 -56t113.5 -81.5t72.5 -117.5t24 -160q0 -219 -144.5 -335.5t-381.5 -116.5zM249 1604l226 407h316l227 -407h-249l-133 249l-133 -249h-254z" />
    <glyph glyph-name="scircumflex" unicode="&#x15d;" horiz-adv-x="1068" 
d="M567 -20q-207 0 -341.5 81.5t-171.5 254.5l251 49q28 -81 96.5 -124.5t167.5 -43.5q84 0 135.5 29t51.5 85q0 45 -30.5 68t-102.5 37l-196 39q-162 32 -239.5 105t-77.5 203q0 151 117 243.5t311 92.5q131 0 245 -55t170 -156l-207 -113q-32 50 -90.5 77.5t-125.5 27.5
q-79 0 -122.5 -31t-43.5 -80q0 -41 29.5 -62.5t95.5 -34.5l199 -39q166 -33 242.5 -103t76.5 -213q0 -163 -120 -250t-320 -87zM159 1199l226 407h316l227 -407h-249l-133 249l-133 -249h-254z" />
    <glyph glyph-name="Scedilla" unicode="&#x15e;" horiz-adv-x="1267" 
d="M410 -407l173 391q-439 40 -522 464l288 49q29 -143 109 -209t212 -66q117 0 185 52.5t68 145.5q0 74 -45.5 115t-144.5 67l-213 57q-196 53 -286.5 148t-90.5 268q0 90 33.5 168t96 136.5t157.5 92t211 33.5q154 0 280 -55t206 -163l-197 -156q-105 132 -285 132
q-100 0 -161 -48.5t-61 -131.5q0 -76 42 -112t138 -61l238 -63q89 -23 154 -56t113.5 -81.5t72.5 -117.5t24 -160q0 -195 -115.5 -309t-311.5 -137l-64 -393h-304z" />
    <glyph glyph-name="scedilla" unicode="&#x15f;" horiz-adv-x="1068" 
d="M287 -407l174 393q-345 40 -407 330l251 49q28 -81 96.5 -124.5t167.5 -43.5q84 0 135.5 29t51.5 85q0 45 -30.5 68t-102.5 37l-196 39q-162 32 -239.5 105t-77.5 203q0 151 117 243.5t311 92.5q131 0 245 -55t170 -156l-207 -113q-32 50 -90.5 77.5t-125.5 27.5
q-79 0 -122.5 -31t-43.5 -80q0 -41 29.5 -62.5t95.5 -34.5l199 -39q166 -33 242.5 -103t76.5 -213q0 -144 -94.5 -229t-257.5 -103l-64 -392h-304z" />
    <glyph glyph-name="Scaron" unicode="&#x160;" horiz-adv-x="1267" 
d="M679 -20q-526 0 -618 468l288 49q29 -143 109 -209t212 -66q117 0 185 52.5t68 145.5q0 74 -45.5 115t-144.5 67l-213 57q-196 53 -286.5 148t-90.5 268q0 90 33.5 168t96 136.5t157.5 92t211 33.5q154 0 280 -55t206 -163l-197 -156q-105 132 -285 132
q-100 0 -161 -48.5t-61 -131.5q0 -76 42 -112t138 -61l238 -63q89 -23 154 -56t113.5 -81.5t72.5 -117.5t24 -160q0 -219 -144.5 -335.5t-381.5 -116.5zM247 2012h249l133 -249l133 249h254l-226 -407h-316z" />
    <glyph glyph-name="scaron" unicode="&#x161;" horiz-adv-x="1068" 
d="M567 -20q-207 0 -341.5 81.5t-171.5 254.5l251 49q28 -81 96.5 -124.5t167.5 -43.5q84 0 135.5 29t51.5 85q0 45 -30.5 68t-102.5 37l-196 39q-162 32 -239.5 105t-77.5 203q0 151 117 243.5t311 92.5q131 0 245 -55t170 -156l-207 -113q-32 50 -90.5 77.5t-125.5 27.5
q-79 0 -122.5 -31t-43.5 -80q0 -41 29.5 -62.5t95.5 -34.5l199 -39q166 -33 242.5 -103t76.5 -213q0 -163 -120 -250t-320 -87zM157 1607h249l133 -249l133 249h254l-226 -407h-316z" />
    <glyph glyph-name="uni0162" unicode="&#x162;" horiz-adv-x="1324" 
d="M518 0v1229h-487v255h1263v-255h-488v-1229h-47l-74 -407h-304l174 407h-37z" />
    <glyph glyph-name="uni0163" unicode="&#x163;" horiz-adv-x="1015" 
d="M-1 840v239h160v250h284v-250h435v-239h-435v-456q0 -153 141 -153q65 0 104 35.5t57 110.5l261 -51q-29 -149 -124.5 -236t-237.5 -105l-64 -392h-304l176 398q-141 28 -217 123t-76 244v482h-160z" />
    <glyph glyph-name="Tcaron" unicode="&#x164;" horiz-adv-x="1324" 
d="M518 0v1229h-487v255h1263v-255h-488v-1229h-288zM273 2012h249l133 -249l133 249h254l-226 -407h-316z" />
    <glyph glyph-name="tcaron" unicode="&#x165;" horiz-adv-x="1015" 
d="M569 -20q-195 0 -302.5 99.5t-107.5 278.5v482h-160v239h160v250h284v-250h435v-239h-435v-456q0 -153 141 -153q65 0 104 35.5t57 110.5l261 -51q-33 -168 -149.5 -257t-287.5 -89zM562 1198l40 422h280l-122 -422h-198z" />
    <glyph glyph-name="Tbar" unicode="&#x166;" horiz-adv-x="1324" 
d="M518 0v609h-338v239h338v381h-487v255h1263v-255h-488v-381h338v-239h-338v-609h-288z" />
    <glyph glyph-name="tbar" unicode="&#x167;" horiz-adv-x="1015" 
d="M569 -20q-195 0 -302.5 99.5t-107.5 278.5v170h-160v187h160v125h-160v239h160v250h284v-250h435v-239h-435v-125h435v-187h-435v-144q0 -153 141 -153q65 0 104 35.5t57 110.5l261 -51q-33 -168 -149.5 -257t-287.5 -89z" />
    <glyph glyph-name="Utilde" unicode="&#x168;" horiz-adv-x="1508" 
d="M754 -20q-271 0 -447.5 166t-176.5 418v920h288v-915q0 -147 90 -240.5t246 -93.5t246 93.5t90 240.5v915h288v-920q0 -166 -80 -299.5t-223 -209t-321 -75.5zM373 1745q0 98 57.5 157.5t146.5 59.5q52 0 115.5 -27.5t115.5 -55t77 -27.5q26 0 42 16t16 46q0 17 -9 48
l173 38q29 -71 29 -131q0 -95 -57 -152.5t-144 -57.5q-52 0 -116.5 28t-117 56t-77.5 28q-26 0 -41.5 -16.5t-15.5 -47.5q0 -23 8 -48l-181 -38q-21 69 -21 124z" />
    <glyph glyph-name="utilde" unicode="&#x169;" horiz-adv-x="1246" 
d="M392 1079v-622q0 -103 64 -168t168 -65q100 0 164 65t64 167v623h284v-1079h-271v147q-111 -167 -328 -167q-192 0 -310.5 122.5t-118.5 319.5v657h284zM241 1340q0 98 57.5 157.5t146.5 59.5q52 0 115.5 -27.5t115.5 -55t77 -27.5q26 0 42 16t16 46q0 17 -9 48l173 38
q29 -71 29 -131q0 -95 -57 -152.5t-144 -57.5q-52 0 -116.5 28t-117 56t-77.5 28q-26 0 -41.5 -16.5t-15.5 -47.5q0 -23 8 -48l-181 -38q-21 69 -21 124z" />
    <glyph glyph-name="Umacron" unicode="&#x16a;" horiz-adv-x="1508" 
d="M754 -20q-271 0 -447.5 166t-176.5 418v920h288v-915q0 -147 90 -240.5t246 -93.5t246 93.5t90 240.5v915h288v-920q0 -166 -80 -299.5t-223 -209t-321 -75.5zM410 1699v239h689v-239h-689z" />
    <glyph glyph-name="umacron" unicode="&#x16b;" horiz-adv-x="1246" 
d="M392 1079v-622q0 -103 64 -168t168 -65q100 0 164 65t64 167v623h284v-1079h-271v147q-111 -167 -328 -167q-192 0 -310.5 122.5t-118.5 319.5v657h284zM278 1294v239h689v-239h-689z" />
    <glyph glyph-name="Ubreve" unicode="&#x16c;" horiz-adv-x="1508" 
d="M754 -20q-271 0 -447.5 166t-176.5 418v920h288v-915q0 -147 90 -240.5t246 -93.5t246 93.5t90 240.5v915h288v-920q0 -166 -80 -299.5t-223 -209t-321 -75.5zM437 1865q0 33 16 87l212 -64q-6 -24 -6 -46q0 -41 24.5 -64.5t70.5 -23.5t71 24t25 66q0 22 -6 44l211 65
q16 -54 16 -88q0 -112 -86.5 -187.5t-230.5 -75.5t-230.5 75.5t-86.5 187.5z" />
    <glyph glyph-name="ubreve" unicode="&#x16d;" horiz-adv-x="1246" 
d="M392 1079v-622q0 -103 64 -168t168 -65q100 0 164 65t64 167v623h284v-1079h-271v147q-111 -167 -328 -167q-192 0 -310.5 122.5t-118.5 319.5v657h284zM305 1460q0 33 16 87l212 -64q-6 -24 -6 -46q0 -41 24.5 -64.5t70.5 -23.5t71 24t25 66q0 21 -6 44l211 65
q16 -54 16 -88q0 -112 -86.5 -187.5t-230.5 -75.5t-230.5 75.5t-86.5 187.5z" />
    <glyph glyph-name="Uring" unicode="&#x16e;" horiz-adv-x="1508" 
d="M754 -20q-271 0 -447.5 166t-176.5 418v920h288v-915q0 -147 90 -240.5t246 -93.5t246 93.5t90 240.5v915h288v-920q0 -166 -80 -299.5t-223 -209t-321 -75.5zM431 1853q0 105 86 170t237 65q152 0 238 -65t86 -170t-86 -170.5t-238 -65.5q-151 0 -237 65.5t-86 170.5z
M651 1854q0 -86 102 -86t102 86q0 85 -102 85q-50 0 -76 -22.5t-26 -62.5z" />
    <glyph glyph-name="uring" unicode="&#x16f;" horiz-adv-x="1246" 
d="M392 1079v-622q0 -103 64 -168t168 -65q100 0 164 65t64 167v623h284v-1079h-271v147q-111 -167 -328 -167q-192 0 -310.5 122.5t-118.5 319.5v657h284zM299 1448q0 105 86 170t237 65q152 0 238 -65t86 -170t-86 -170.5t-238 -65.5q-151 0 -237 65.5t-86 170.5z
M519 1449q0 -86 102 -86t102 86q0 85 -102 85q-50 0 -76 -22.5t-26 -62.5z" />
    <glyph glyph-name="Uhungarumlaut" unicode="&#x170;" horiz-adv-x="1508" 
d="M754 -20q-271 0 -447.5 166t-176.5 418v920h288v-915q0 -147 90 -240.5t246 -93.5t246 93.5t90 240.5v915h288v-920q0 -166 -80 -299.5t-223 -209t-321 -75.5zM410 1604l66 407h304l-180 -407h-190zM856 1604l67 407h304l-181 -407h-190z" />
    <glyph glyph-name="uhungarumlaut" unicode="&#x171;" horiz-adv-x="1246" 
d="M392 1079v-622q0 -103 64 -168t168 -65q100 0 164 65t64 167v623h284v-1079h-271v147q-111 -167 -328 -167q-192 0 -310.5 122.5t-118.5 319.5v657h284zM278 1199l66 407h304l-180 -407h-190zM724 1199l67 407h304l-181 -407h-190z" />
    <glyph glyph-name="Uogonek" unicode="&#x172;" horiz-adv-x="1508" 
d="M831 -407q-117 0 -183 52t-66 140q0 51 32.5 103t90.5 95q-253 16 -414 178.5t-161 402.5v920h288v-915q0 -147 90 -240.5t246 -93.5t246 93.5t90 240.5v915h288v-920q0 -162 -77.5 -293t-213.5 -212l-89 -53q-128 -78 -173.5 -122.5t-45.5 -84.5q0 -24 18.5 -39.5
t49.5 -15.5q66 0 110 55l108 -101q-95 -104 -234 -105z" />
    <glyph glyph-name="uogonek" unicode="&#x173;" horiz-adv-x="1246" 
d="M538 -20q-192 0 -311 122.5t-119 319.5v657h284v-622q0 -104 64.5 -168.5t167.5 -64.5q101 0 164.5 64.5t63.5 166.5v624h284v-1079q-128 -68 -174.5 -113.5t-46.5 -87.5q0 -24 19 -39.5t49 -15.5q66 0 111 55l107 -101q-95 -104 -233 -105q-117 0 -183.5 51.5
t-66.5 140.5q0 60 37.5 119.5t109.5 105.5v136q-112 -166 -327 -166z" />
    <glyph glyph-name="Wcircumflex" unicode="&#x174;" horiz-adv-x="2012" 
d="M426 0l-392 1484h302l249 -1035l293 1035h273l294 -1037l248 1037h284l-388 -1484h-287l-297 1031l-293 -1031h-286zM620 1604l226 407h316l227 -407h-249l-133 249l-133 -249h-254z" />
    <glyph glyph-name="wcircumflex" unicode="&#x175;" horiz-adv-x="1690" 
d="M339 0l-310 1079h288l186 -747l213 747h272l209 -730l180 730h284l-307 -1079h-307l-201 693l-200 -693h-307zM444 1199l226 407h316l227 -407h-249l-133 249l-133 -249h-254z" />
    <glyph glyph-name="Ycircumflex" unicode="&#x176;" horiz-adv-x="1415" 
d="M562 0v583l-542 901h331l359 -624l360 624h325l-544 -900v-584h-289zM326 1604l226 407h316l227 -407h-249l-133 249l-133 -249h-254z" />
    <glyph glyph-name="ycircumflex" unicode="&#x177;" horiz-adv-x="1228" 
d="M551 -484q-411 0 -582 336l227 138q63 -118 144 -170.5t198 -52.5q142 0 217 76t75 220v112q-116 -143 -328 -143q-188 0 -301.5 121t-113.5 322v604h284v-590q0 -111 59 -171.5t166 -60.5q105 0 169.5 63t64.5 166v593h285v-1016q0 -257 -149.5 -402t-414.5 -145z
M222 1199l226 407h316l227 -407h-249l-133 249l-133 -249h-254z" />
    <glyph glyph-name="Ydieresis" unicode="&#x178;" horiz-adv-x="1415" 
d="M562 0v583l-542 901h331l359 -624l360 624h325l-544 -900v-584h-289zM331 1783q0 71 47 116.5t115 45.5q67 0 114 -45.5t47 -116.5t-46.5 -116t-114.5 -45t-115 45t-47 116zM772 1783q0 71 47 116.5t114 45.5q68 0 115 -45.5t47 -116.5t-47 -116t-115 -45t-114.5 45
t-46.5 116z" />
    <glyph glyph-name="Zacute" unicode="&#x179;" horiz-adv-x="1362" 
d="M104 0v234l782 992h-761v258h1112v-233l-781 -993h802v-258h-1154zM582 1604l67 407h304l-182 -407h-189z" />
    <glyph glyph-name="zacute" unicode="&#x17a;" horiz-adv-x="1070" 
d="M78 0v202l528 637h-518v240h894v-202l-528 -637h538v-240h-914zM436 1199l67 407h304l-182 -407h-189z" />
    <glyph glyph-name="Zdotaccent" unicode="&#x17b;" horiz-adv-x="1362" 
d="M104 0v234l782 992h-761v258h1112v-233l-781 -993h802v-258h-1154zM506 1782q0 77 50.5 126t124.5 49t125 -49t51 -126q0 -78 -51 -127t-125 -49t-124.5 49t-50.5 127z" />
    <glyph glyph-name="zdotaccent" unicode="&#x17c;" horiz-adv-x="1070" 
d="M78 0v202l528 637h-518v240h894v-202l-528 -637h538v-240h-914zM360 1377q0 77 50.5 126t124.5 49t125 -49t51 -126q0 -78 -51 -127t-125 -49t-124.5 49t-50.5 127z" />
    <glyph glyph-name="Zcaron" unicode="&#x17d;" horiz-adv-x="1362" 
d="M104 0v234l782 992h-761v258h1112v-233l-781 -993h802v-258h-1154zM292 2012h249l133 -249l133 249h254l-226 -407h-316z" />
    <glyph glyph-name="zcaron" unicode="&#x17e;" horiz-adv-x="1070" 
d="M78 0v202l528 637h-518v240h894v-202l-528 -637h538v-240h-914zM146 1607h249l133 -249l133 249h254l-226 -407h-316z" />
    <glyph glyph-name="uni018F" unicode="&#x18f;" horiz-adv-x="1596" 
d="M797 -20q-205 0 -367 92t-253 258t-91 376v94h1134q-14 207 -128 328t-301 121q-143 0 -245.5 -75t-149.5 -205l-269 92q79 205 255 324.5t409 119.5q208 0 371.5 -93.5t255.5 -267.5t92 -402q0 -171 -53.5 -314t-148 -241t-226 -152.5t-285.5 -54.5zM394 563
q40 -155 145 -241.5t258 -86.5q154 0 259.5 87t144.5 241h-807z" />
    <glyph glyph-name="florin" unicode="&#x192;" horiz-adv-x="1284" 
d="M571 -485q-203 0 -332.5 101.5t-158.5 292.5l254 54q27 -100 78.5 -147.5t151.5 -47.5q99 0 153 49t54 146q0 83 -73 193l-175 263h-382v240h254l-58 81q-67 93 -98.5 173.5t-31.5 173.5q0 183 123 300.5t332 117.5q192 0 319.5 -102t155.5 -293l-255 -53
q-25 101 -74.5 148t-136.5 47q-81 0 -129.5 -44t-48.5 -126q0 -70 71 -180l158 -243h369v-240h-244l65 -91q143 -192 143 -382q0 -192 -128.5 -311.5t-355.5 -119.5z" />
    <glyph glyph-name="uni019D" unicode="&#x19d;" horiz-adv-x="1515" 
d="M-47 -484q-203 0 -322.5 95.5t-138.5 286.5l286 52q15 -179 175 -179q177 0 177 195v1518h263l718 -992v992h275v-1484h-270l-712 985v-1023q0 -224 -117.5 -335t-333.5 -111z" />
    <glyph glyph-name="Ohorn" unicode="&#x1a0;" horiz-adv-x="1598" 
d="M799 -20q-206 0 -367.5 93.5t-253.5 267.5t-92 401q0 170 53.5 313.5t147.5 242t226 153t286 54.5q120 0 242 -19.5t165 -19.5q131 0 131 139v106h234v-137q0 -121 -65.5 -204.5t-181.5 -99.5q92 -96 140 -232t48 -296q0 -171 -53.5 -314t-148 -241t-226 -152.5
t-285.5 -54.5zM374 742q0 -232 115 -369.5t310 -137.5q196 0 310.5 138t114.5 369t-114.5 369t-310.5 138q-195 0 -310 -137.5t-115 -369.5z" />
    <glyph glyph-name="ohorn" unicode="&#x1a1;" horiz-adv-x="1250" 
d="M625 -20q-157 0 -282 68.5t-197.5 196.5t-72.5 294q0 251 156.5 405.5t395.5 154.5q56 0 147.5 -10t106.5 -10q125 0 125 141v86h233v-104q0 -106 -50 -184t-138 -105q128 -149 128 -374q0 -250 -156.5 -404.5t-395.5 -154.5zM358 539q0 -149 75 -228.5t192 -79.5
q118 0 193 79.5t75 228.5t-75.5 229t-192.5 80t-192 -80t-75 -229z" />
    <glyph glyph-name="Uhorn" unicode="&#x1af;" horiz-adv-x="1508" 
d="M754 -20q-271 0 -447.5 166t-176.5 418v920h288v-915q0 -147 90 -240.5t246 -93.5t246 93.5t90 240.5v915h134q124 0 124 141v86h233v-104q0 -110 -53.5 -187.5t-149.5 -103.5v-752q0 -166 -80 -299.5t-223 -209t-321 -75.5z" />
    <glyph glyph-name="uhorn" unicode="&#x1b0;" horiz-adv-x="1246" 
d="M392 1079v-622q0 -103 64 -168t168 -65q100 0 164 65t64 167v623h130q124 0 124 141v86h233v-104q0 -110 -53.5 -187.5t-149.5 -103.5v-911h-271v147q-111 -167 -328 -167q-192 0 -310.5 122.5t-118.5 319.5v657h284z" />
    <glyph glyph-name="Gcaron" unicode="&#x1e6;" horiz-adv-x="1609" 
d="M816 -20q-330 0 -530 208t-200 554q0 171 52 314t145 241.5t224.5 153t287.5 54.5q250 0 427.5 -124t243.5 -343l-277 -68q-45 132 -145.5 205.5t-248.5 73.5q-190 0 -305.5 -138t-115.5 -369q0 -233 120.5 -370t330.5 -137q114 0 210 47.5t163 135.5v279h289v-697h-233
l-13 122q-170 -142 -425 -142zM436 2012h249l133 -249l133 249h254l-226 -407h-316z" />
    <glyph glyph-name="gcaron" unicode="&#x1e7;" horiz-adv-x="1290" 
d="M576 -484q-429 0 -613 344l227 135q33 -59 65.5 -97.5t77.5 -70t104.5 -46t137.5 -14.5q144 0 231 83t87 241v43q-125 -114 -305 -114q-105 0 -199 40t-164 110t-111 171.5t-41 218.5q0 156 70 280t187.5 191.5t257.5 67.5q179 0 305 -113v93h284v-988
q0 -272 -163 -423.5t-438 -151.5zM256 1607h249l133 -249l133 249h254l-226 -407h-316zM358 560q0 -134 76 -211t192 -77q115 0 191 77t76 211t-76 211t-191 77q-116 0 -192 -77t-76 -211z" />
    <glyph glyph-name="uni0218" unicode="&#x218;" horiz-adv-x="1267" 
d="M679 -20q-526 0 -618 468l288 49q29 -143 109 -209t212 -66q117 0 185 52.5t68 145.5q0 74 -45.5 115t-144.5 67l-213 57q-196 53 -286.5 148t-90.5 268q0 90 33.5 168t96 136.5t157.5 92t211 33.5q154 0 280 -55t206 -163l-197 -156q-105 132 -285 132
q-100 0 -161 -48.5t-61 -131.5q0 -76 42 -112t138 -61l238 -63q89 -23 154 -56t113.5 -81.5t72.5 -117.5t24 -160q0 -219 -144.5 -335.5t-381.5 -116.5zM482 -663l139 210q-47 16 -76 54t-29 92q0 74 48 120t119 46q70 0 118 -47t48 -124q0 -64 -23 -109t-76 -110l-160 -204
z" />
    <glyph glyph-name="uni0219" unicode="&#x219;" horiz-adv-x="1068" 
d="M567 -20q-207 0 -341.5 81.5t-171.5 254.5l251 49q28 -81 96.5 -124.5t167.5 -43.5q84 0 135.5 29t51.5 85q0 45 -30.5 68t-102.5 37l-196 39q-162 32 -239.5 105t-77.5 203q0 151 117 243.5t311 92.5q131 0 245 -55t170 -156l-207 -113q-32 50 -90.5 77.5t-125.5 27.5
q-79 0 -122.5 -31t-43.5 -80q0 -41 29.5 -62.5t95.5 -34.5l199 -39q166 -33 242.5 -103t76.5 -213q0 -163 -120 -250t-320 -87zM359 -663l139 210q-47 16 -76 54t-29 92q0 74 48 120t119 46q70 0 118 -47t48 -124q0 -64 -23 -109t-76 -110l-160 -204z" />
    <glyph glyph-name="uni021A" unicode="&#x21a;" horiz-adv-x="1324" 
d="M518 0v1229h-487v255h1263v-255h-488v-1229h-288zM454 -663l139 210q-47 16 -76 54t-29 92q0 74 48 120t119 46q70 0 118 -47t48 -124q0 -64 -23 -109t-76 -110l-160 -204z" />
    <glyph glyph-name="uni021B" unicode="&#x21b;" horiz-adv-x="1015" 
d="M569 -20q-195 0 -302.5 99.5t-107.5 278.5v482h-160v239h160v250h284v-250h435v-239h-435v-456q0 -153 141 -153q65 0 104 35.5t57 110.5l261 -51q-33 -168 -149.5 -257t-287.5 -89zM348 -663l139 210q-47 16 -76 54t-29 92q0 74 48 120t119 46q70 0 118 -47t48 -124
q0 -64 -23 -109t-76 -110l-160 -204z" />
    <glyph glyph-name="uni0232" unicode="&#x232;" horiz-adv-x="1415" 
d="M562 0v583l-542 901h331l359 -624l360 624h325l-544 -900v-584h-289zM369 1699v239h689v-239h-689z" />
    <glyph glyph-name="uni0233" unicode="&#x233;" horiz-adv-x="1228" 
d="M551 -484q-411 0 -582 336l227 138q63 -118 144 -170.5t198 -52.5q142 0 217 76t75 220v112q-116 -143 -328 -143q-188 0 -301.5 121t-113.5 322v604h284v-590q0 -111 59 -171.5t166 -60.5q105 0 169.5 63t64.5 166v593h285v-1016q0 -257 -149.5 -402t-414.5 -145z
M265 1294v239h689v-239h-689z" />
    <glyph glyph-name="uni0237" unicode="&#x237;" horiz-adv-x="516" 
d="M-10 -485q-171 0 -287 90t-142 258l259 51q18 -77 54.5 -112.5t102.5 -35.5t102.5 38.5t36.5 115.5v1159h284v-1172q0 -177 -114 -284.5t-296 -107.5z" />
    <glyph glyph-name="uni0259" unicode="&#x259;" horiz-adv-x="1232" 
d="M606 1099q157 0 282.5 -68.5t198 -196.5t72.5 -294t-73.5 -294.5t-200 -197t-283.5 -68.5q-244 0 -386.5 141t-142.5 398v72h799q-13 129 -86 197t-180 68q-186 0 -268 -162l-245 91q68 148 200.5 231t312.5 83zM371 412q21 -94 80 -141.5t151 -47.5q90 0 158 48t96 141
h-485z" />
    <glyph glyph-name="uni0272" unicode="&#x272;" horiz-adv-x="1246" 
d="M-16 -485q-171 0 -287 90t-142 258l259 51q17 -77 54.5 -112.5t102.5 -35.5q66 0 102.5 38.5t36.5 115.5v1159h271v-147q111 167 328 167q192 0 310.5 -122.5t118.5 -319.5v-657h-284v622q0 103 -64 168t-168 65q-100 0 -164 -65t-64 -167v-716q0 -177 -114 -284.5
t-296 -107.5z" />
    <glyph glyph-name="circumflex" unicode="&#x2c6;" horiz-adv-x="1126" 
d="M176 1199l226 407h316l227 -407h-249l-133 249l-133 -249h-254z" />
    <glyph glyph-name="caron" unicode="&#x2c7;" horiz-adv-x="1126" 
d="M943 1607l-226 -407h-316l-227 407h249l133 -249l133 249h254z" />
    <glyph glyph-name="breve" unicode="&#x2d8;" horiz-adv-x="1126" 
d="M563 1197q-144 0 -230.5 75.5t-86.5 187.5q0 33 16 87l212 -64q-6 -24 -6 -46q0 -41 24.5 -64.5t70.5 -23.5t71 24t25 66q0 21 -6 44l211 65q16 -54 16 -88q0 -112 -86.5 -187.5t-230.5 -75.5z" />
    <glyph glyph-name="dotaccent" unicode="&#x2d9;" horiz-adv-x="1126" 
d="M563 1201q-74 0 -124.5 49t-50.5 127q0 77 50.5 126t124.5 49t125 -49t51 -126q0 -78 -51 -127t-125 -49z" />
    <glyph glyph-name="ring" unicode="&#x2da;" horiz-adv-x="1126" 
d="M563 1212q-151 0 -237 65.5t-86 170.5t86 170t237 65q152 0 238 -65t86 -170t-86 -170.5t-238 -65.5zM460 1449q0 -86 102 -86t102 86q0 85 -102 85q-50 0 -76 -22.5t-26 -62.5z" />
    <glyph glyph-name="ogonek" unicode="&#x2db;" horiz-adv-x="1126" 
d="M559 -407q-117 0 -183.5 51.5t-66.5 140.5q0 76 67.5 149t183.5 119l167 -53q-128 -68 -174.5 -113.5t-46.5 -87.5q0 -24 19 -39.5t50 -15.5q65 0 110 55l108 -101q-95 -104 -234 -105z" />
    <glyph glyph-name="tilde" unicode="&#x2dc;" horiz-adv-x="1126" 
d="M203 1216q-21 69 -21 124q0 98 57.5 157.5t146.5 59.5q52 0 115.5 -27.5t115.5 -55t77 -27.5q26 0 42 16t16 46q0 17 -9 48l173 38q29 -71 29 -131q0 -95 -57 -152.5t-144 -57.5q-52 0 -116.5 28t-117 56t-77.5 28q-26 0 -41.5 -16.5t-15.5 -47.5q0 -23 8 -48z" />
    <glyph glyph-name="hungarumlaut" unicode="&#x2dd;" horiz-adv-x="1126" 
d="M219 1199l66 407h304l-180 -407h-190zM665 1199l67 407h304l-181 -407h-190z" />
    <glyph glyph-name="gravecomb" unicode="&#x300;" horiz-adv-x="0" 
d="M473 1199l-182 407h304l67 -407h-189z" />
    <glyph glyph-name="acutecomb" unicode="&#x301;" horiz-adv-x="0" 
d="M464 1199l67 407h304l-182 -407h-189z" />
    <glyph glyph-name="uni0302" unicode="&#x302;" horiz-adv-x="0" 
d="M176 1199l226 407h316l227 -407h-249l-133 249l-133 -249h-254z" />
    <glyph glyph-name="tildecomb" unicode="&#x303;" horiz-adv-x="0" 
d="M203 1216q-21 69 -21 124q0 98 57.5 157.5t146.5 59.5q52 0 115.5 -27.5t115.5 -55t77 -27.5q26 0 42 16t16 46q0 17 -9 48l173 38q29 -71 29 -131q0 -95 -57 -152.5t-144 -57.5q-52 0 -116.5 28t-117 56t-77.5 28q-26 0 -41.5 -16.5t-15.5 -47.5q0 -23 8 -48z" />
    <glyph glyph-name="uni0304" unicode="&#x304;" horiz-adv-x="0" 
d="M219 1294v239h689v-239h-689z" />
    <glyph glyph-name="uni0306" unicode="&#x306;" horiz-adv-x="0" 
d="M563 1197q-144 0 -230.5 75.5t-86.5 187.5q0 33 16 87l212 -64q-6 -24 -6 -46q0 -41 24.5 -64.5t70.5 -23.5t71 24t25 66q0 21 -6 44l211 65q16 -54 16 -88q0 -112 -86.5 -187.5t-230.5 -75.5z" />
    <glyph glyph-name="uni0307" unicode="&#x307;" horiz-adv-x="0" 
d="M563 1201q-74 0 -124.5 49t-50.5 127q0 77 50.5 126t124.5 49t125 -49t51 -126q0 -78 -51 -127t-125 -49z" />
    <glyph glyph-name="uni0308" unicode="&#x308;" horiz-adv-x="0" 
d="M343 1217q-68 0 -115 45t-47 116t47 116.5t115 45.5q67 0 114 -45.5t47 -116.5t-46.5 -116t-114.5 -45zM622 1378q0 71 47 116.5t114 45.5q68 0 115 -45.5t47 -116.5t-47 -116t-115 -45t-114.5 45t-46.5 116z" />
    <glyph glyph-name="hookabovecomb" unicode="&#x309;" horiz-adv-x="0" 
d="M481 1258q88 54 88 119q0 39 -28 63t-69 24q-45 0 -88 -19l-50 144q70 39 167 39q114 0 185.5 -64t71.5 -164q0 -82 -49.5 -148t-132.5 -111z" />
    <glyph glyph-name="uni030A" unicode="&#x30a;" horiz-adv-x="0" 
d="M563 1212q-151 0 -237 65.5t-86 170.5t86 170t237 65q152 0 238 -65t86 -170t-86 -170.5t-238 -65.5zM460 1449q0 -86 102 -86t102 86q0 85 -102 85q-50 0 -76 -22.5t-26 -62.5z" />
    <glyph glyph-name="uni030B" unicode="&#x30b;" horiz-adv-x="0" 
d="M219 1199l66 407h304l-180 -407h-190zM665 1199l67 407h304l-181 -407h-190z" />
    <glyph glyph-name="uni030C" unicode="&#x30c;" horiz-adv-x="0" 
d="M943 1607l-226 -407h-316l-227 407h249l133 -249l133 249h254z" />
    <glyph glyph-name="uni0312" unicode="&#x312;" horiz-adv-x="0" 
d="M563 1204q-69 0 -117.5 47t-48.5 124q0 64 23 108.5t76 110.5l160 204l109 -73l-140 -209q48 -16 77 -54t29 -92q0 -74 -48.5 -120t-119.5 -46z" />
    <glyph glyph-name="uni031B" unicode="&#x31b;" horiz-adv-x="0" 
d="M415 900l-14 179h26q124 0 124 141v86h233v-104q0 -134 -78.5 -218t-212.5 -84h-78z" />
    <glyph glyph-name="dotbelowcomb" unicode="&#x323;" horiz-adv-x="0" 
d="M563 -475q-74 0 -124.5 49t-50.5 127q0 77 50.5 126t124.5 49t125 -49t51 -126q0 -78 -51 -127t-125 -49z" />
    <glyph glyph-name="uni0326" unicode="&#x326;" horiz-adv-x="0" 
d="M360 -663l139 210q-47 16 -76 54t-29 92q0 74 48 120t119 46q70 0 118 -47t48 -124q0 -64 -23 -109t-76 -110l-160 -204z" />
    <glyph glyph-name="uni0327" unicode="&#x327;" horiz-adv-x="0" 
d="M288 -407l180 407h190l-66 -407h-304z" />
    <glyph glyph-name="uni0328" unicode="&#x328;" horiz-adv-x="0" 
d="M559 -407q-117 0 -183.5 51.5t-66.5 140.5q0 76 67.5 149t183.5 119l167 -53q-128 -68 -174.5 -113.5t-46.5 -87.5q0 -24 19 -39.5t50 -15.5q65 0 110 55l108 -101q-95 -104 -234 -105z" />
    <glyph glyph-name="uni0394" unicode="&#x394;" horiz-adv-x="1514" 
d="M48 0l541 1484h338l539 -1484h-1418zM434 242h640l-322 927z" />
    <glyph glyph-name="uni03A9" unicode="&#x3a9;" horiz-adv-x="1598" 
d="M75 0v255h251q-119 91 -179.5 229.5t-60.5 304.5q0 158 53.5 292t147.5 227t226 145t286 52q205 0 367 -89t254 -253t92 -374q0 -166 -61 -304.5t-180 -229.5h251v-255h-619v257q104 37 179 123t108.5 187.5t33.5 208.5q0 210 -116 341.5t-309 131.5t-309 -131t-116 -342
q0 -107 33.5 -208.5t108.5 -187.5t179 -123v-257h-620z" />
    <glyph glyph-name="uni03BC" unicode="&#x3bc;" horiz-adv-x="1246" 
d="M108 -464v1543h284v-622q0 -103 64.5 -168t168.5 -65q100 0 163.5 65t63.5 167v623h284v-1079h-270v149q-112 -169 -328 -169q-100 0 -177 41l31 -485h-284z" />
    <glyph glyph-name="pi" unicode="&#x3c0;" horiz-adv-x="1238" 
d="M26 840v239h1158v-239h-193v-435q0 -154 141 -154v-251q-205 0 -315 99.5t-110 279.5v461h-213v-840h-284v840h-184z" />
    <glyph glyph-name="uni1E20" unicode="&#x1e20;" horiz-adv-x="1609" 
d="M816 -20q-330 0 -530 208t-200 554q0 171 52 314t145 241.5t224.5 153t287.5 54.5q250 0 427.5 -124t243.5 -343l-277 -68q-45 132 -145.5 205.5t-248.5 73.5q-190 0 -305.5 -138t-115.5 -369q0 -233 120.5 -370t330.5 -137q114 0 210 47.5t163 135.5v279h289v-697h-233
l-13 122q-170 -142 -425 -142zM481 1699v239h689v-239h-689z" />
    <glyph glyph-name="uni1E21" unicode="&#x1e21;" horiz-adv-x="1290" 
d="M576 -484q-429 0 -613 344l227 135q33 -59 65.5 -97.5t77.5 -70t104.5 -46t137.5 -14.5q144 0 231 83t87 241v43q-125 -114 -305 -114q-105 0 -199 40t-164 110t-111 171.5t-41 218.5q0 156 70 280t187.5 191.5t257.5 67.5q179 0 305 -113v93h284v-988
q0 -272 -163 -423.5t-438 -151.5zM301 1294v239h689v-239h-689zM358 560q0 -134 76 -211t192 -77q115 0 191 77t76 211t-76 211t-191 77q-116 0 -192 -77t-76 -211z" />
    <glyph glyph-name="Wgrave" unicode="&#x1e80;" horiz-adv-x="2012" 
d="M426 0l-392 1484h302l249 -1035l293 1035h273l294 -1037l248 1037h284l-388 -1484h-287l-297 1031l-293 -1031h-286zM735 2011h304l67 -407h-189z" />
    <glyph glyph-name="wgrave" unicode="&#x1e81;" horiz-adv-x="1690" 
d="M339 0l-310 1079h288l186 -747l213 747h272l209 -730l180 730h284l-307 -1079h-307l-201 693l-200 -693h-307zM559 1606h304l67 -407h-189z" />
    <glyph glyph-name="Wacute" unicode="&#x1e82;" horiz-adv-x="2012" 
d="M426 0l-392 1484h302l249 -1035l293 1035h273l294 -1037l248 1037h284l-388 -1484h-287l-297 1031l-293 -1031h-286zM908 1604l67 407h304l-182 -407h-189z" />
    <glyph glyph-name="wacute" unicode="&#x1e83;" horiz-adv-x="1690" 
d="M339 0l-310 1079h288l186 -747l213 747h272l209 -730l180 730h284l-307 -1079h-307l-201 693l-200 -693h-307zM732 1199l67 407h304l-182 -407h-189z" />
    <glyph glyph-name="Wdieresis" unicode="&#x1e84;" horiz-adv-x="2012" 
d="M426 0l-392 1484h302l249 -1035l293 1035h273l294 -1037l248 1037h284l-388 -1484h-287l-297 1031l-293 -1031h-286zM625 1783q0 71 47 116.5t115 45.5q67 0 114 -45.5t47 -116.5t-46.5 -116t-114.5 -45t-115 45t-47 116zM1066 1783q0 71 47 116.5t114 45.5
q68 0 115 -45.5t47 -116.5t-47 -116t-115 -45t-114.5 45t-46.5 116z" />
    <glyph glyph-name="wdieresis" unicode="&#x1e85;" horiz-adv-x="1690" 
d="M339 0l-310 1079h288l186 -747l213 747h272l209 -730l180 730h284l-307 -1079h-307l-201 693l-200 -693h-307zM449 1378q0 71 47 116.5t115 45.5q67 0 114 -45.5t47 -116.5t-46.5 -116t-114.5 -45t-115 45t-47 116zM890 1378q0 71 47 116.5t114 45.5q68 0 115 -45.5
t47 -116.5t-47 -116t-115 -45t-114.5 45t-46.5 116z" />
    <glyph glyph-name="uni1E9E" unicode="&#x1e9e;" horiz-adv-x="1495" 
d="M908 -20q-100 0 -205.5 28.5t-177.5 82.5l108 230q46 -41 119.5 -65.5t142.5 -24.5q117 0 188 65t71 166t-78 158t-215 57h-141v211l303 341h-605v-1229h-288v1484h1220v-255l-318 -342q184 -13 302.5 -134.5t118.5 -290.5q0 -221 -149 -351.5t-396 -130.5z" />
    <glyph glyph-name="uni1EA0" unicode="&#x1ea0;" horiz-adv-x="1514" 
d="M48 0l541 1484h338l539 -1484h-311l-93 271h-618l-94 -271h-302zM527 513h451l-225 653zM579 -299q0 77 50.5 126t124.5 49t125 -49t51 -126q0 -78 -51 -127t-125 -49t-124.5 49t-50.5 127z" />
    <glyph glyph-name="uni1EA1" unicode="&#x1ea1;" horiz-adv-x="1161" 
d="M427 -20q-150 0 -244 77t-94 216q0 58 18.5 105t49 80t79.5 60t99.5 45.5t120.5 36.5l309 81q-26 175 -224 175q-175 0 -277 -168l-198 122q80 139 209 214t299 75q226 0 352.5 -119.5t126.5 -330.5v-649h-258v157q-57 -84 -150.5 -130.5t-217.5 -46.5zM373 301
q0 -56 35.5 -85.5t95.5 -29.5q107 0 186 64.5t79 182.5v74l-245 -68q-75 -21 -113 -54t-38 -84zM396 -299q0 77 50.5 126t124.5 49t125 -49t51 -126q0 -78 -51 -127t-125 -49t-124.5 49t-50.5 127z" />
    <glyph glyph-name="uni1EA2" unicode="&#x1ea2;" horiz-adv-x="1514" 
d="M48 0l541 1484h338l539 -1484h-311l-93 271h-618l-94 -271h-302zM527 513h451l-225 653zM529 1994q70 39 167 39q114 0 185.5 -64t71.5 -164q0 -82 -49.5 -148t-132.5 -111l-95 117q88 54 88 119q0 39 -28 63t-69 24q-45 0 -88 -19z" />
    <glyph glyph-name="uni1EA3" unicode="&#x1ea3;" horiz-adv-x="1161" 
d="M427 -20q-150 0 -244 77t-94 216q0 58 18.5 105t49 80t79.5 60t99.5 45.5t120.5 36.5l309 81q-26 175 -224 175q-175 0 -277 -168l-198 122q80 139 209 214t299 75q226 0 352.5 -119.5t126.5 -330.5v-649h-258v157q-57 -84 -150.5 -130.5t-217.5 -46.5zM342 1589
q70 39 167 39q114 0 185.5 -64t71.5 -164q0 -82 -49.5 -148t-132.5 -111l-95 117q88 54 88 119q0 39 -28 63t-69 24q-45 0 -88 -19zM373 301q0 -56 35.5 -85.5t95.5 -29.5q107 0 186 64.5t79 182.5v74l-245 -68q-75 -21 -113 -54t-38 -84z" />
    <glyph glyph-name="uni1EA4" unicode="&#x1ea4;" horiz-adv-x="1514" 
d="M48 0l541 1484h338l539 -1484h-311l-93 271h-618l-94 -271h-302zM371 1604l226 407h316l227 -407h-249l-133 249l-133 -249h-254zM527 513h451l-225 653zM1052 1846l66 392h260l-150 -392h-176z" />
    <glyph glyph-name="uni1EA5" unicode="&#x1ea5;" horiz-adv-x="1161" 
d="M427 -20q-150 0 -244 77t-94 216q0 58 18.5 105t49 80t79.5 60t99.5 45.5t120.5 36.5l309 81q-26 175 -224 175q-175 0 -277 -168l-198 122q80 139 209 214t299 75q226 0 352.5 -119.5t126.5 -330.5v-649h-258v157q-57 -84 -150.5 -130.5t-217.5 -46.5zM184 1199l226 407
h316l227 -407h-249l-133 249l-133 -249h-254zM373 301q0 -56 35.5 -85.5t95.5 -29.5q107 0 186 64.5t79 182.5v74l-245 -68q-75 -21 -113 -54t-38 -84zM865 1441l66 392h260l-150 -392h-176z" />
    <glyph glyph-name="uni1EA6" unicode="&#x1ea6;" horiz-adv-x="1514" 
d="M48 0l541 1484h338l539 -1484h-311l-93 271h-618l-94 -271h-302zM371 1604l226 407h316l227 -407h-249l-133 249l-133 -249h-254zM527 513h451l-225 653zM944 2238h260l66 -392h-176z" />
    <glyph glyph-name="uni1EA7" unicode="&#x1ea7;" horiz-adv-x="1161" 
d="M427 -20q-150 0 -244 77t-94 216q0 58 18.5 105t49 80t79.5 60t99.5 45.5t120.5 36.5l309 81q-26 175 -224 175q-175 0 -277 -168l-198 122q80 139 209 214t299 75q226 0 352.5 -119.5t126.5 -330.5v-649h-258v157q-57 -84 -150.5 -130.5t-217.5 -46.5zM184 1199l226 407
h316l227 -407h-249l-133 249l-133 -249h-254zM373 301q0 -56 35.5 -85.5t95.5 -29.5q107 0 186 64.5t79 182.5v74l-245 -68q-75 -21 -113 -54t-38 -84zM757 1833h260l66 -392h-176z" />
    <glyph glyph-name="uni1EA8" unicode="&#x1ea8;" horiz-adv-x="1514" 
d="M48 0l541 1484h338l539 -1484h-311l-93 271h-618l-94 -271h-302zM371 1604l226 407h316l227 -407h-249l-133 249l-133 -249h-254zM527 513h451l-225 653zM904 2247q70 39 167 39q114 0 185.5 -64t71.5 -164q0 -82 -49.5 -148t-132.5 -111l-95 117q88 54 88 119
q0 39 -28 63t-69 24q-45 0 -88 -19z" />
    <glyph glyph-name="uni1EA9" unicode="&#x1ea9;" horiz-adv-x="1161" 
d="M427 -20q-150 0 -244 77t-94 216q0 58 18.5 105t49 80t79.5 60t99.5 45.5t120.5 36.5l309 81q-26 175 -224 175q-175 0 -277 -168l-198 122q80 139 209 214t299 75q226 0 352.5 -119.5t126.5 -330.5v-649h-258v157q-57 -84 -150.5 -130.5t-217.5 -46.5zM184 1199l226 407
h316l227 -407h-249l-133 249l-133 -249h-254zM373 301q0 -56 35.5 -85.5t95.5 -29.5q107 0 186 64.5t79 182.5v74l-245 -68q-75 -21 -113 -54t-38 -84zM717 1842q70 39 167 39q114 0 185.5 -64t71.5 -164q0 -82 -49.5 -148t-132.5 -111l-95 117q88 54 88 119q0 39 -28 63
t-69 24q-45 0 -88 -19z" />
    <glyph glyph-name="uni1EAA" unicode="&#x1eaa;" horiz-adv-x="1514" 
d="M48 0l541 1484h338l539 -1484h-311l-93 271h-618l-94 -271h-302zM347 1604l250 313h316l249 -313h-264l-140 175l-141 -175h-270zM374 2060q0 98 57.5 157.5t146.5 59.5q52 0 115.5 -27.5t115.5 -55t77 -27.5q26 0 42 16t16 46q0 17 -9 48l173 38q29 -71 29 -131
q0 -95 -57 -152.5t-144 -57.5q-52 0 -116.5 28t-117 56t-77.5 28q-26 0 -41.5 -16.5t-15.5 -47.5q0 -23 8 -48l-181 -38q-21 69 -21 124zM527 513h451l-225 653z" />
    <glyph glyph-name="uni1EAB" unicode="&#x1eab;" horiz-adv-x="1161" 
d="M427 -20q-150 0 -244 77t-94 216q0 58 18.5 105t49 80t79.5 60t99.5 45.5t120.5 36.5l309 81q-26 175 -224 175q-175 0 -277 -168l-198 122q80 139 209 214t299 75q226 0 352.5 -119.5t126.5 -330.5v-649h-258v157q-57 -84 -150.5 -130.5t-217.5 -46.5zM160 1199l250 313
h316l249 -313h-264l-140 175l-141 -175h-270zM187 1655q0 98 57.5 157.5t146.5 59.5q52 0 115.5 -27.5t115.5 -55t77 -27.5q26 0 42 16t16 46q0 17 -9 48l173 38q29 -71 29 -131q0 -95 -57 -152.5t-144 -57.5q-52 0 -116.5 28t-117 56t-77.5 28q-26 0 -41.5 -16.5
t-15.5 -47.5q0 -23 8 -48l-181 -38q-21 69 -21 124zM373 301q0 -56 35.5 -85.5t95.5 -29.5q107 0 186 64.5t79 182.5v74l-245 -68q-75 -21 -113 -54t-38 -84z" />
    <glyph glyph-name="uni1EAC" unicode="&#x1eac;" horiz-adv-x="1514" 
d="M48 0l541 1484h338l539 -1484h-311l-93 271h-618l-94 -271h-302zM371 1604l226 407h316l227 -407h-249l-133 249l-133 -249h-254zM527 513h451l-225 653zM579 -299q0 77 50.5 126t124.5 49t125 -49t51 -126q0 -78 -51 -127t-125 -49t-124.5 49t-50.5 127z" />
    <glyph glyph-name="uni1EAD" unicode="&#x1ead;" horiz-adv-x="1161" 
d="M427 -20q-150 0 -244 77t-94 216q0 58 18.5 105t49 80t79.5 60t99.5 45.5t120.5 36.5l309 81q-26 175 -224 175q-175 0 -277 -168l-198 122q80 139 209 214t299 75q226 0 352.5 -119.5t126.5 -330.5v-649h-258v157q-57 -84 -150.5 -130.5t-217.5 -46.5zM184 1199l226 407
h316l227 -407h-249l-133 249l-133 -249h-254zM373 301q0 -56 35.5 -85.5t95.5 -29.5q107 0 186 64.5t79 182.5v74l-245 -68q-75 -21 -113 -54t-38 -84zM396 -299q0 77 50.5 126t124.5 49t125 -49t51 -126q0 -78 -51 -127t-125 -49t-124.5 49t-50.5 127z" />
    <glyph glyph-name="uni1EAE" unicode="&#x1eae;" horiz-adv-x="1514" 
d="M48 0l541 1484h338l539 -1484h-311l-93 271h-618l-94 -271h-302zM397 1865q0 34 17 87l185 -59q-5 -22 -5 -36q0 -48 43 -75t120 -27q79 0 122 27.5t43 77.5q0 17 -4 33l185 60q16 -54 16 -88q0 -114 -93.5 -188.5t-267.5 -74.5t-267.5 74.5t-93.5 188.5zM527 513h451
l-225 653zM659 1937l67 407h304l-182 -407h-189z" />
    <glyph glyph-name="uni1EAF" unicode="&#x1eaf;" horiz-adv-x="1161" 
d="M427 -20q-150 0 -244 77t-94 216q0 58 18.5 105t49 80t79.5 60t99.5 45.5t120.5 36.5l309 81q-26 175 -224 175q-175 0 -277 -168l-198 122q80 139 209 214t299 75q226 0 352.5 -119.5t126.5 -330.5v-649h-258v157q-57 -84 -150.5 -130.5t-217.5 -46.5zM210 1460
q0 34 17 87l185 -59q-5 -22 -5 -36q0 -48 43 -75t120 -27q79 0 122 27.5t43 77.5q0 17 -4 33l185 60q16 -54 16 -88q0 -114 -93.5 -188.5t-267.5 -74.5t-267.5 74.5t-93.5 188.5zM373 301q0 -56 35.5 -85.5t95.5 -29.5q107 0 186 64.5t79 182.5v74l-245 -68
q-75 -21 -113 -54t-38 -84zM472 1532l67 407h304l-182 -407h-189z" />
    <glyph glyph-name="uni1EB0" unicode="&#x1eb0;" horiz-adv-x="1514" 
d="M48 0l541 1484h338l539 -1484h-311l-93 271h-618l-94 -271h-302zM397 1865q0 34 17 87l185 -59q-5 -22 -5 -36q0 -48 43 -75t120 -27q79 0 122 27.5t43 77.5q0 17 -4 33l185 60q16 -54 16 -88q0 -114 -93.5 -188.5t-267.5 -74.5t-267.5 74.5t-93.5 188.5zM486 2344h304
l67 -407h-189zM527 513h451l-225 653z" />
    <glyph glyph-name="uni1EB1" unicode="&#x1eb1;" horiz-adv-x="1161" 
d="M427 -20q-150 0 -244 77t-94 216q0 58 18.5 105t49 80t79.5 60t99.5 45.5t120.5 36.5l309 81q-26 175 -224 175q-175 0 -277 -168l-198 122q80 139 209 214t299 75q226 0 352.5 -119.5t126.5 -330.5v-649h-258v157q-57 -84 -150.5 -130.5t-217.5 -46.5zM210 1460
q0 34 17 87l185 -59q-5 -22 -5 -36q0 -48 43 -75t120 -27q79 0 122 27.5t43 77.5q0 17 -4 33l185 60q16 -54 16 -88q0 -114 -93.5 -188.5t-267.5 -74.5t-267.5 74.5t-93.5 188.5zM299 1939h304l67 -407h-189zM373 301q0 -56 35.5 -85.5t95.5 -29.5q107 0 186 64.5t79 182.5
v74l-245 -68q-75 -21 -113 -54t-38 -84z" />
    <glyph glyph-name="uni1EB2" unicode="&#x1eb2;" horiz-adv-x="1514" 
d="M48 0l541 1484h338l539 -1484h-311l-93 271h-618l-94 -271h-302zM397 1865q0 34 17 87l185 -59q-5 -22 -5 -36q0 -48 43 -75t120 -27q79 0 122 27.5t43 77.5q0 17 -4 33l185 60q16 -54 16 -88q0 -114 -93.5 -188.5t-267.5 -74.5t-267.5 74.5t-93.5 188.5zM527 513h451
l-225 653zM529 2327q70 39 167 39q114 0 185.5 -64t71.5 -164q0 -82 -49.5 -148t-132.5 -111l-95 117q88 54 88 119q0 39 -28 63t-69 24q-45 0 -88 -19z" />
    <glyph glyph-name="uni1EB3" unicode="&#x1eb3;" horiz-adv-x="1161" 
d="M427 -20q-150 0 -244 77t-94 216q0 58 18.5 105t49 80t79.5 60t99.5 45.5t120.5 36.5l309 81q-26 175 -224 175q-175 0 -277 -168l-198 122q80 139 209 214t299 75q226 0 352.5 -119.5t126.5 -330.5v-649h-258v157q-57 -84 -150.5 -130.5t-217.5 -46.5zM210 1460
q0 34 17 87l185 -59q-5 -22 -5 -36q0 -48 43 -75t120 -27q79 0 122 27.5t43 77.5q0 17 -4 33l185 60q16 -54 16 -88q0 -114 -93.5 -188.5t-267.5 -74.5t-267.5 74.5t-93.5 188.5zM342 1922q70 39 167 39q114 0 185.5 -64t71.5 -164q0 -82 -49.5 -148t-132.5 -111l-95 117
q88 54 88 119q0 39 -28 63t-69 24q-45 0 -88 -19zM373 301q0 -56 35.5 -85.5t95.5 -29.5q107 0 186 64.5t79 182.5v74l-245 -68q-75 -21 -113 -54t-38 -84z" />
    <glyph glyph-name="uni1EB4" unicode="&#x1eb4;" horiz-adv-x="1514" 
d="M48 0l541 1484h338l539 -1484h-311l-93 271h-618l-94 -271h-302zM390 2104q0 86 55 139.5t143 53.5q57 0 119.5 -26.5t113.5 -53t81 -26.5q26 0 42 15.5t16 45.5q0 20 -8 49l147 32q27 -70 27 -131q0 -83 -55 -134.5t-140 -51.5q-46 0 -95.5 17t-84.5 37.5t-73 37.5
t-63 17q-26 0 -41.5 -16.5t-15.5 -47.5q0 -18 8 -48l-155 -33q-21 66 -21 124zM397 1865q0 34 17 87l185 -59q-5 -22 -5 -36q0 -48 43 -75t120 -27q79 0 122 27.5t43 77.5q0 17 -4 33l185 60q16 -54 16 -88q0 -114 -93.5 -188.5t-267.5 -74.5t-267.5 74.5t-93.5 188.5z
M527 513h451l-225 653z" />
    <glyph glyph-name="uni1EB5" unicode="&#x1eb5;" horiz-adv-x="1161" 
d="M427 -20q-150 0 -244 77t-94 216q0 58 18.5 105t49 80t79.5 60t99.5 45.5t120.5 36.5l309 81q-26 175 -224 175q-175 0 -277 -168l-198 122q80 139 209 214t299 75q226 0 352.5 -119.5t126.5 -330.5v-649h-258v157q-57 -84 -150.5 -130.5t-217.5 -46.5zM203 1699
q0 86 55 139.5t143 53.5q57 0 119.5 -26.5t113.5 -53t81 -26.5q26 0 42 15.5t16 45.5q0 20 -8 49l147 32q27 -70 27 -131q0 -83 -55 -134.5t-140 -51.5q-58 0 -120.5 27.5t-114 54.5t-81.5 27q-26 0 -41.5 -16.5t-15.5 -47.5q0 -18 8 -48l-155 -33q-21 66 -21 124zM210 1460
q0 34 17 87l185 -59q-5 -22 -5 -36q0 -48 43 -75t120 -27q79 0 122 27.5t43 77.5q0 17 -4 33l185 60q16 -54 16 -88q0 -114 -93.5 -188.5t-267.5 -74.5t-267.5 74.5t-93.5 188.5zM373 301q0 -56 35.5 -85.5t95.5 -29.5q107 0 186 64.5t79 182.5v74l-245 -68
q-75 -21 -113 -54t-38 -84z" />
    <glyph glyph-name="uni1EB6" unicode="&#x1eb6;" horiz-adv-x="1514" 
d="M48 0l541 1484h338l539 -1484h-311l-93 271h-618l-94 -271h-302zM441 1865q0 33 16 87l212 -64q-6 -24 -6 -46q0 -41 24.5 -64.5t70.5 -23.5t71 24t25 66q0 22 -6 44l211 65q16 -54 16 -88q0 -112 -86.5 -187.5t-230.5 -75.5t-230.5 75.5t-86.5 187.5zM527 513h451
l-225 653zM579 -299q0 77 50.5 126t124.5 49t125 -49t51 -126q0 -78 -51 -127t-125 -49t-124.5 49t-50.5 127z" />
    <glyph glyph-name="uni1EB7" unicode="&#x1eb7;" horiz-adv-x="1161" 
d="M427 -20q-150 0 -244 77t-94 216q0 58 18.5 105t49 80t79.5 60t99.5 45.5t120.5 36.5l309 81q-26 175 -224 175q-175 0 -277 -168l-198 122q80 139 209 214t299 75q226 0 352.5 -119.5t126.5 -330.5v-649h-258v157q-57 -84 -150.5 -130.5t-217.5 -46.5zM254 1460
q0 33 16 87l212 -64q-6 -24 -6 -46q0 -41 24.5 -64.5t70.5 -23.5t71 24t25 66q0 21 -6 44l211 65q16 -54 16 -88q0 -112 -86.5 -187.5t-230.5 -75.5t-230.5 75.5t-86.5 187.5zM373 301q0 -56 35.5 -85.5t95.5 -29.5q107 0 186 64.5t79 182.5v74l-245 -68q-75 -21 -113 -54
t-38 -84zM396 -299q0 77 50.5 126t124.5 49t125 -49t51 -126q0 -78 -51 -127t-125 -49t-124.5 49t-50.5 127z" />
    <glyph glyph-name="uni1EB8" unicode="&#x1eb8;" horiz-adv-x="1332" 
d="M130 0v1484h1059v-249h-771v-357h672v-250h-672v-378h812v-250h-1100zM494 -299q0 77 50.5 126t124.5 49t125 -49t51 -126q0 -78 -51 -127t-125 -49t-124.5 49t-50.5 127z" />
    <glyph glyph-name="uni1EB9" unicode="&#x1eb9;" horiz-adv-x="1232" 
d="M626 -20q-157 0 -282.5 68.5t-198 196.5t-72.5 294t73.5 294.5t200 197t283.5 68.5q244 0 386.5 -141t142.5 -398v-72h-799q13 -129 86 -197t180 -68q186 0 268 162l245 -91q-68 -148 -200.5 -231t-312.5 -83zM376 667h485q-21 94 -80 141.5t-151 47.5q-90 0 -158 -48
t-96 -141zM451 -299q0 77 50.5 126t124.5 49t125 -49t51 -126q0 -78 -51 -127t-125 -49t-124.5 49t-50.5 127z" />
    <glyph glyph-name="uni1EBA" unicode="&#x1eba;" horiz-adv-x="1332" 
d="M130 0v1484h1059v-249h-771v-357h672v-250h-672v-378h812v-250h-1100zM440 1994q70 39 167 39q114 0 185.5 -64t71.5 -164q0 -82 -49.5 -148t-132.5 -111l-95 117q88 54 88 119q0 39 -28 63t-69 24q-45 0 -88 -19z" />
    <glyph glyph-name="uni1EBB" unicode="&#x1ebb;" horiz-adv-x="1232" 
d="M626 -20q-157 0 -282.5 68.5t-198 196.5t-72.5 294t73.5 294.5t200 197t283.5 68.5q244 0 386.5 -141t142.5 -398v-72h-799q13 -129 86 -197t180 -68q186 0 268 162l245 -91q-68 -148 -200.5 -231t-312.5 -83zM376 667h485q-21 94 -80 141.5t-151 47.5q-90 0 -158 -48
t-96 -141zM402 1589q70 39 167 39q114 0 185.5 -64t71.5 -164q0 -82 -49.5 -148t-132.5 -111l-95 117q88 54 88 119q0 39 -28 63t-69 24q-45 0 -88 -19z" />
    <glyph glyph-name="uni1EBC" unicode="&#x1ebc;" horiz-adv-x="1332" 
d="M130 0v1484h1059v-249h-771v-357h672v-250h-672v-378h812v-250h-1100zM288 1745q0 98 57.5 157.5t146.5 59.5q52 0 115.5 -27.5t115.5 -55t77 -27.5q26 0 42 16t16 46q0 17 -9 48l173 38q29 -71 29 -131q0 -95 -57 -152.5t-144 -57.5q-52 0 -116.5 28t-117 56t-77.5 28
q-26 0 -41.5 -16.5t-15.5 -47.5q0 -23 8 -48l-181 -38q-21 69 -21 124z" />
    <glyph glyph-name="uni1EBD" unicode="&#x1ebd;" horiz-adv-x="1232" 
d="M626 -20q-157 0 -282.5 68.5t-198 196.5t-72.5 294t73.5 294.5t200 197t283.5 68.5q244 0 386.5 -141t142.5 -398v-72h-799q13 -129 86 -197t180 -68q186 0 268 162l245 -91q-68 -148 -200.5 -231t-312.5 -83zM250 1340q0 98 57.5 157.5t146.5 59.5q52 0 115.5 -27.5
t115.5 -55t77 -27.5q26 0 42 16t16 46q0 17 -9 48l173 38q29 -71 29 -131q0 -95 -57 -152.5t-144 -57.5q-52 0 -116.5 28t-117 56t-77.5 28q-26 0 -41.5 -16.5t-15.5 -47.5q0 -23 8 -48l-181 -38q-21 69 -21 124zM376 667h485q-21 94 -80 141.5t-151 47.5q-90 0 -158 -48
t-96 -141z" />
    <glyph glyph-name="uni1EBE" unicode="&#x1ebe;" horiz-adv-x="1332" 
d="M130 0v1484h1059v-249h-771v-357h672v-250h-672v-378h812v-250h-1100zM282 1604l226 407h316l227 -407h-249l-133 249l-133 -249h-254zM963 1846l66 392h260l-150 -392h-176z" />
    <glyph glyph-name="uni1EBF" unicode="&#x1ebf;" horiz-adv-x="1232" 
d="M626 -20q-157 0 -282.5 68.5t-198 196.5t-72.5 294t73.5 294.5t200 197t283.5 68.5q244 0 386.5 -141t142.5 -398v-72h-799q13 -129 86 -197t180 -68q186 0 268 162l245 -91q-68 -148 -200.5 -231t-312.5 -83zM244 1199l226 407h316l227 -407h-249l-133 249l-133 -249
h-254zM376 667h485q-21 94 -80 141.5t-151 47.5q-90 0 -158 -48t-96 -141zM925 1441l66 392h260l-150 -392h-176z" />
    <glyph glyph-name="uni1EC0" unicode="&#x1ec0;" horiz-adv-x="1332" 
d="M130 0v1484h1059v-249h-771v-357h672v-250h-672v-378h812v-250h-1100zM282 1604l226 407h316l227 -407h-249l-133 249l-133 -249h-254zM855 2238h260l66 -392h-176z" />
    <glyph glyph-name="uni1EC1" unicode="&#x1ec1;" horiz-adv-x="1232" 
d="M626 -20q-157 0 -282.5 68.5t-198 196.5t-72.5 294t73.5 294.5t200 197t283.5 68.5q244 0 386.5 -141t142.5 -398v-72h-799q13 -129 86 -197t180 -68q186 0 268 162l245 -91q-68 -148 -200.5 -231t-312.5 -83zM244 1199l226 407h316l227 -407h-249l-133 249l-133 -249
h-254zM376 667h485q-21 94 -80 141.5t-151 47.5q-90 0 -158 -48t-96 -141zM817 1833h260l66 -392h-176z" />
    <glyph glyph-name="uni1EC2" unicode="&#x1ec2;" horiz-adv-x="1332" 
d="M130 0v1484h1059v-249h-771v-357h672v-250h-672v-378h812v-250h-1100zM282 1604l226 407h316l227 -407h-249l-133 249l-133 -249h-254zM815 2247q70 39 167 39q114 0 185.5 -64t71.5 -164q0 -82 -49.5 -148t-132.5 -111l-95 117q88 54 88 119q0 39 -28 63t-69 24
q-45 0 -88 -19z" />
    <glyph glyph-name="uni1EC3" unicode="&#x1ec3;" horiz-adv-x="1232" 
d="M626 -20q-157 0 -282.5 68.5t-198 196.5t-72.5 294t73.5 294.5t200 197t283.5 68.5q244 0 386.5 -141t142.5 -398v-72h-799q13 -129 86 -197t180 -68q186 0 268 162l245 -91q-68 -148 -200.5 -231t-312.5 -83zM244 1199l226 407h316l227 -407h-249l-133 249l-133 -249
h-254zM376 667h485q-21 94 -80 141.5t-151 47.5q-90 0 -158 -48t-96 -141zM777 1842q70 39 167 39q114 0 185.5 -64t71.5 -164q0 -82 -49.5 -148t-132.5 -111l-95 117q88 54 88 119q0 39 -28 63t-69 24q-45 0 -88 -19z" />
    <glyph glyph-name="uni1EC4" unicode="&#x1ec4;" horiz-adv-x="1332" 
d="M130 0v1484h1059v-249h-771v-357h672v-250h-672v-378h812v-250h-1100zM258 1604l250 313h316l249 -313h-264l-140 175l-141 -175h-270zM285 2060q0 98 57.5 157.5t146.5 59.5q52 0 115.5 -27.5t115.5 -55t77 -27.5q26 0 42 16t16 46q0 17 -9 48l173 38q29 -71 29 -131
q0 -95 -57 -152.5t-144 -57.5q-52 0 -116.5 28t-117 56t-77.5 28q-26 0 -41.5 -16.5t-15.5 -47.5q0 -23 8 -48l-181 -38q-21 69 -21 124z" />
    <glyph glyph-name="uni1EC5" unicode="&#x1ec5;" horiz-adv-x="1232" 
d="M626 -20q-157 0 -282.5 68.5t-198 196.5t-72.5 294t73.5 294.5t200 197t283.5 68.5q244 0 386.5 -141t142.5 -398v-72h-799q13 -129 86 -197t180 -68q186 0 268 162l245 -91q-68 -148 -200.5 -231t-312.5 -83zM220 1199l250 313h316l249 -313h-264l-140 175l-141 -175
h-270zM247 1655q0 98 57.5 157.5t146.5 59.5q52 0 115.5 -27.5t115.5 -55t77 -27.5q26 0 42 16t16 46q0 17 -9 48l173 38q29 -71 29 -131q0 -95 -57 -152.5t-144 -57.5q-52 0 -116.5 28t-117 56t-77.5 28q-26 0 -41.5 -16.5t-15.5 -47.5q0 -23 8 -48l-181 -38
q-21 69 -21 124zM376 667h485q-21 94 -80 141.5t-151 47.5q-90 0 -158 -48t-96 -141z" />
    <glyph glyph-name="uni1EC6" unicode="&#x1ec6;" horiz-adv-x="1332" 
d="M130 0v1484h1059v-249h-771v-357h672v-250h-672v-378h812v-250h-1100zM282 1604l226 407h316l227 -407h-249l-133 249l-133 -249h-254zM494 -299q0 77 50.5 126t124.5 49t125 -49t51 -126q0 -78 -51 -127t-125 -49t-124.5 49t-50.5 127z" />
    <glyph glyph-name="uni1EC7" unicode="&#x1ec7;" horiz-adv-x="1232" 
d="M626 -20q-157 0 -282.5 68.5t-198 196.5t-72.5 294t73.5 294.5t200 197t283.5 68.5q244 0 386.5 -141t142.5 -398v-72h-799q13 -129 86 -197t180 -68q186 0 268 162l245 -91q-68 -148 -200.5 -231t-312.5 -83zM244 1199l226 407h316l227 -407h-249l-133 249l-133 -249
h-254zM376 667h485q-21 94 -80 141.5t-151 47.5q-90 0 -158 -48t-96 -141zM451 -299q0 77 50.5 126t124.5 49t125 -49t51 -126q0 -78 -51 -127t-125 -49t-124.5 49t-50.5 127z" />
    <glyph glyph-name="uni1EC8" unicode="&#x1ec8;" horiz-adv-x="548" 
d="M130 0v1484h288v-1484h-288zM45 1994q70 39 167 39q114 0 185.5 -64t71.5 -164q0 -82 -49.5 -148t-132.5 -111l-95 117q88 54 88 119q0 39 -28 63t-69 24q-45 0 -88 -19z" />
    <glyph glyph-name="uni1EC9" unicode="&#x1ec9;" horiz-adv-x="516" 
d="M116 0v1079h284v-1079h-284zM29 1589q70 39 167 39q114 0 185.5 -64t71.5 -164q0 -82 -49.5 -148t-132.5 -111l-95 117q88 54 88 119q0 39 -28 63t-69 24q-45 0 -88 -19z" />
    <glyph glyph-name="uni1ECA" unicode="&#x1eca;" horiz-adv-x="548" 
d="M130 0v1484h288v-1484h-288zM99 -299q0 77 50.5 126t124.5 49t125 -49t51 -126q0 -78 -51 -127t-125 -49t-124.5 49t-50.5 127z" />
    <glyph glyph-name="uni1ECB" unicode="&#x1ecb;" horiz-adv-x="516" 
d="M116 0v1079h284v-1079h-284zM83 -299q0 77 50.5 126t124.5 49t125 -49t51 -126q0 -78 -51 -127t-125 -49t-124.5 49t-50.5 127zM83 1392q0 77 50.5 126t124.5 49t125 -49t51 -126q0 -78 -51 -127t-125 -49t-124.5 49t-50.5 127z" />
    <glyph glyph-name="uni1ECC" unicode="&#x1ecc;" horiz-adv-x="1598" 
d="M799 -20q-206 0 -367.5 93.5t-253.5 267.5t-92 401q0 170 53.5 313.5t147.5 242t226 153t286 54.5t285.5 -54.5t226 -153t148 -241.5t53.5 -314t-53.5 -314t-148 -241t-226 -152.5t-285.5 -54.5zM374 742q0 -232 115 -369.5t310 -137.5q196 0 310.5 138t114.5 369
t-114.5 369t-310.5 138q-195 0 -310 -137.5t-115 -369.5zM617 -299q0 77 50.5 126t124.5 49t125 -49t51 -126q0 -78 -51 -127t-125 -49t-124.5 49t-50.5 127z" />
    <glyph glyph-name="uni1ECD" unicode="&#x1ecd;" horiz-adv-x="1250" 
d="M625 -20q-157 0 -282 68.5t-197.5 196.5t-72.5 294q0 251 156.5 405.5t395.5 154.5q156 0 281.5 -68.5t198 -197t72.5 -294.5q0 -250 -156.5 -404.5t-395.5 -154.5zM358 539q0 -149 75 -228.5t192 -79.5q118 0 193 79.5t75 228.5t-75.5 229t-192.5 80t-192 -80t-75 -229z
M451 -299q0 77 50.5 126t124.5 49t125 -49t51 -126q0 -78 -51 -127t-125 -49t-124.5 49t-50.5 127z" />
    <glyph glyph-name="uni1ECE" unicode="&#x1ece;" horiz-adv-x="1598" 
d="M799 -20q-206 0 -367.5 93.5t-253.5 267.5t-92 401q0 170 53.5 313.5t147.5 242t226 153t286 54.5t285.5 -54.5t226 -153t148 -241.5t53.5 -314t-53.5 -314t-148 -241t-226 -152.5t-285.5 -54.5zM374 742q0 -232 115 -369.5t310 -137.5q196 0 310.5 138t114.5 369
t-114.5 369t-310.5 138q-195 0 -310 -137.5t-115 -369.5zM570 1994q70 39 167 39q114 0 185.5 -64t71.5 -164q0 -82 -49.5 -148t-132.5 -111l-95 117q88 54 88 119q0 39 -28 63t-69 24q-45 0 -88 -19z" />
    <glyph glyph-name="uni1ECF" unicode="&#x1ecf;" horiz-adv-x="1250" 
d="M625 -20q-157 0 -282 68.5t-197.5 196.5t-72.5 294q0 251 156.5 405.5t395.5 154.5q156 0 281.5 -68.5t198 -197t72.5 -294.5q0 -250 -156.5 -404.5t-395.5 -154.5zM358 539q0 -149 75 -228.5t192 -79.5q118 0 193 79.5t75 228.5t-75.5 229t-192.5 80t-192 -80t-75 -229z
M397 1589q70 39 167 39q114 0 185.5 -64t71.5 -164q0 -82 -49.5 -148t-132.5 -111l-95 117q88 54 88 119q0 39 -28 63t-69 24q-45 0 -88 -19z" />
    <glyph glyph-name="uni1ED0" unicode="&#x1ed0;" horiz-adv-x="1598" 
d="M799 -20q-206 0 -367.5 93.5t-253.5 267.5t-92 401q0 170 53.5 313.5t147.5 242t226 153t286 54.5t285.5 -54.5t226 -153t148 -241.5t53.5 -314t-53.5 -314t-148 -241t-226 -152.5t-285.5 -54.5zM374 742q0 -232 115 -369.5t310 -137.5q196 0 310.5 138t114.5 369
t-114.5 369t-310.5 138q-195 0 -310 -137.5t-115 -369.5zM412 1604l226 407h316l227 -407h-249l-133 249l-133 -249h-254zM1093 1846l66 392h260l-150 -392h-176z" />
    <glyph glyph-name="uni1ED1" unicode="&#x1ed1;" horiz-adv-x="1250" 
d="M625 -20q-157 0 -282 68.5t-197.5 196.5t-72.5 294q0 251 156.5 405.5t395.5 154.5q156 0 281.5 -68.5t198 -197t72.5 -294.5q0 -250 -156.5 -404.5t-395.5 -154.5zM239 1199l226 407h316l227 -407h-249l-133 249l-133 -249h-254zM358 539q0 -149 75 -228.5t192 -79.5
q118 0 193 79.5t75 228.5t-75.5 229t-192.5 80t-192 -80t-75 -229zM920 1441l66 392h260l-150 -392h-176z" />
    <glyph glyph-name="uni1ED2" unicode="&#x1ed2;" horiz-adv-x="1598" 
d="M799 -20q-206 0 -367.5 93.5t-253.5 267.5t-92 401q0 170 53.5 313.5t147.5 242t226 153t286 54.5t285.5 -54.5t226 -153t148 -241.5t53.5 -314t-53.5 -314t-148 -241t-226 -152.5t-285.5 -54.5zM374 742q0 -232 115 -369.5t310 -137.5q196 0 310.5 138t114.5 369
t-114.5 369t-310.5 138q-195 0 -310 -137.5t-115 -369.5zM412 1604l226 407h316l227 -407h-249l-133 249l-133 -249h-254zM985 2238h260l66 -392h-176z" />
    <glyph glyph-name="uni1ED3" unicode="&#x1ed3;" horiz-adv-x="1250" 
d="M625 -20q-157 0 -282 68.5t-197.5 196.5t-72.5 294q0 251 156.5 405.5t395.5 154.5q156 0 281.5 -68.5t198 -197t72.5 -294.5q0 -250 -156.5 -404.5t-395.5 -154.5zM239 1199l226 407h316l227 -407h-249l-133 249l-133 -249h-254zM358 539q0 -149 75 -228.5t192 -79.5
q118 0 193 79.5t75 228.5t-75.5 229t-192.5 80t-192 -80t-75 -229zM812 1833h260l66 -392h-176z" />
    <glyph glyph-name="uni1ED4" unicode="&#x1ed4;" horiz-adv-x="1598" 
d="M799 -20q-206 0 -367.5 93.5t-253.5 267.5t-92 401q0 170 53.5 313.5t147.5 242t226 153t286 54.5t285.5 -54.5t226 -153t148 -241.5t53.5 -314t-53.5 -314t-148 -241t-226 -152.5t-285.5 -54.5zM374 742q0 -232 115 -369.5t310 -137.5q196 0 310.5 138t114.5 369
t-114.5 369t-310.5 138q-195 0 -310 -137.5t-115 -369.5zM412 1604l226 407h316l227 -407h-249l-133 249l-133 -249h-254zM945 2247q70 39 167 39q114 0 185.5 -64t71.5 -164q0 -82 -49.5 -148t-132.5 -111l-95 117q88 54 88 119q0 39 -28 63t-69 24q-45 0 -88 -19z" />
    <glyph glyph-name="uni1ED5" unicode="&#x1ed5;" horiz-adv-x="1250" 
d="M625 -20q-157 0 -282 68.5t-197.5 196.5t-72.5 294q0 251 156.5 405.5t395.5 154.5q156 0 281.5 -68.5t198 -197t72.5 -294.5q0 -250 -156.5 -404.5t-395.5 -154.5zM239 1199l226 407h316l227 -407h-249l-133 249l-133 -249h-254zM358 539q0 -149 75 -228.5t192 -79.5
q118 0 193 79.5t75 228.5t-75.5 229t-192.5 80t-192 -80t-75 -229zM772 1842q70 39 167 39q114 0 185.5 -64t71.5 -164q0 -82 -49.5 -148t-132.5 -111l-95 117q88 54 88 119q0 39 -28 63t-69 24q-45 0 -88 -19z" />
    <glyph glyph-name="uni1ED6" unicode="&#x1ed6;" horiz-adv-x="1598" 
d="M799 -20q-206 0 -367.5 93.5t-253.5 267.5t-92 401q0 170 53.5 313.5t147.5 242t226 153t286 54.5t285.5 -54.5t226 -153t148 -241.5t53.5 -314t-53.5 -314t-148 -241t-226 -152.5t-285.5 -54.5zM374 742q0 -232 115 -369.5t310 -137.5q196 0 310.5 138t114.5 369
t-114.5 369t-310.5 138q-195 0 -310 -137.5t-115 -369.5zM388 1604l250 313h316l249 -313h-264l-140 175l-141 -175h-270zM415 2060q0 98 57.5 157.5t146.5 59.5q52 0 115.5 -27.5t115.5 -55t77 -27.5q26 0 42 16t16 46q0 17 -9 48l173 38q29 -71 29 -131q0 -95 -57 -152.5
t-144 -57.5q-52 0 -116.5 28t-117 56t-77.5 28q-26 0 -41.5 -16.5t-15.5 -47.5q0 -23 8 -48l-181 -38q-21 69 -21 124z" />
    <glyph glyph-name="uni1ED7" unicode="&#x1ed7;" horiz-adv-x="1250" 
d="M625 -20q-157 0 -282 68.5t-197.5 196.5t-72.5 294q0 251 156.5 405.5t395.5 154.5q156 0 281.5 -68.5t198 -197t72.5 -294.5q0 -250 -156.5 -404.5t-395.5 -154.5zM215 1199l250 313h316l249 -313h-264l-140 175l-141 -175h-270zM242 1655q0 98 57.5 157.5t146.5 59.5
q52 0 115.5 -27.5t115.5 -55t77 -27.5q26 0 42 16t16 46q0 17 -9 48l173 38q29 -71 29 -131q0 -95 -57 -152.5t-144 -57.5q-52 0 -116.5 28t-117 56t-77.5 28q-26 0 -41.5 -16.5t-15.5 -47.5q0 -23 8 -48l-181 -38q-21 69 -21 124zM358 539q0 -149 75 -228.5t192 -79.5
q118 0 193 79.5t75 228.5t-75.5 229t-192.5 80t-192 -80t-75 -229z" />
    <glyph glyph-name="uni1ED8" unicode="&#x1ed8;" horiz-adv-x="1598" 
d="M799 -20q-206 0 -367.5 93.5t-253.5 267.5t-92 401q0 170 53.5 313.5t147.5 242t226 153t286 54.5t285.5 -54.5t226 -153t148 -241.5t53.5 -314t-53.5 -314t-148 -241t-226 -152.5t-285.5 -54.5zM374 742q0 -232 115 -369.5t310 -137.5q196 0 310.5 138t114.5 369
t-114.5 369t-310.5 138q-195 0 -310 -137.5t-115 -369.5zM412 1604l226 407h316l227 -407h-249l-133 249l-133 -249h-254zM617 -299q0 77 50.5 126t124.5 49t125 -49t51 -126q0 -78 -51 -127t-125 -49t-124.5 49t-50.5 127z" />
    <glyph glyph-name="uni1ED9" unicode="&#x1ed9;" horiz-adv-x="1250" 
d="M625 -20q-157 0 -282 68.5t-197.5 196.5t-72.5 294q0 251 156.5 405.5t395.5 154.5q156 0 281.5 -68.5t198 -197t72.5 -294.5q0 -250 -156.5 -404.5t-395.5 -154.5zM239 1199l226 407h316l227 -407h-249l-133 249l-133 -249h-254zM358 539q0 -149 75 -228.5t192 -79.5
q118 0 193 79.5t75 228.5t-75.5 229t-192.5 80t-192 -80t-75 -229zM451 -299q0 77 50.5 126t124.5 49t125 -49t51 -126q0 -78 -51 -127t-125 -49t-124.5 49t-50.5 127z" />
    <glyph glyph-name="uni1EDA" unicode="&#x1eda;" horiz-adv-x="1598" 
d="M799 -20q-206 0 -367.5 93.5t-253.5 267.5t-92 401q0 170 53.5 313.5t147.5 242t226 153t286 54.5q120 0 242 -19.5t165 -19.5q131 0 131 139v106h234v-137q0 -121 -65.5 -204.5t-181.5 -99.5q92 -96 140 -232t48 -296q0 -171 -53.5 -314t-148 -241t-226 -152.5
t-285.5 -54.5zM374 742q0 -232 115 -369.5t310 -137.5q196 0 310.5 138t114.5 369t-114.5 369t-310.5 138q-195 0 -310 -137.5t-115 -369.5zM700 1604l67 407h304l-182 -407h-189z" />
    <glyph glyph-name="uni1EDB" unicode="&#x1edb;" horiz-adv-x="1250" 
d="M625 -20q-157 0 -282 68.5t-197.5 196.5t-72.5 294q0 251 156.5 405.5t395.5 154.5q56 0 147.5 -10t106.5 -10q125 0 125 141v86h233v-104q0 -106 -50 -184t-138 -105q128 -149 128 -374q0 -250 -156.5 -404.5t-395.5 -154.5zM358 539q0 -149 75 -228.5t192 -79.5
q118 0 193 79.5t75 228.5t-75.5 229t-192.5 80t-192 -80t-75 -229zM527 1199l67 407h304l-182 -407h-189z" />
    <glyph glyph-name="uni1EDC" unicode="&#x1edc;" horiz-adv-x="1598" 
d="M799 -20q-206 0 -367.5 93.5t-253.5 267.5t-92 401q0 170 53.5 313.5t147.5 242t226 153t286 54.5q120 0 242 -19.5t165 -19.5q131 0 131 139v106h234v-137q0 -121 -65.5 -204.5t-181.5 -99.5q92 -96 140 -232t48 -296q0 -171 -53.5 -314t-148 -241t-226 -152.5
t-285.5 -54.5zM374 742q0 -232 115 -369.5t310 -137.5q196 0 310.5 138t114.5 369t-114.5 369t-310.5 138q-195 0 -310 -137.5t-115 -369.5zM527 2011h304l67 -407h-189z" />
    <glyph glyph-name="uni1EDD" unicode="&#x1edd;" horiz-adv-x="1250" 
d="M625 -20q-157 0 -282 68.5t-197.5 196.5t-72.5 294q0 251 156.5 405.5t395.5 154.5q56 0 147.5 -10t106.5 -10q125 0 125 141v86h233v-104q0 -106 -50 -184t-138 -105q128 -149 128 -374q0 -250 -156.5 -404.5t-395.5 -154.5zM354 1606h304l67 -407h-189zM358 539
q0 -149 75 -228.5t192 -79.5q118 0 193 79.5t75 228.5t-75.5 229t-192.5 80t-192 -80t-75 -229z" />
    <glyph glyph-name="uni1EDE" unicode="&#x1ede;" horiz-adv-x="1598" 
d="M799 -20q-206 0 -367.5 93.5t-253.5 267.5t-92 401q0 170 53.5 313.5t147.5 242t226 153t286 54.5q120 0 242 -19.5t165 -19.5q131 0 131 139v106h234v-137q0 -121 -65.5 -204.5t-181.5 -99.5q92 -96 140 -232t48 -296q0 -171 -53.5 -314t-148 -241t-226 -152.5
t-285.5 -54.5zM374 742q0 -232 115 -369.5t310 -137.5q196 0 310.5 138t114.5 369t-114.5 369t-310.5 138q-195 0 -310 -137.5t-115 -369.5zM570 1994q70 39 167 39q114 0 185.5 -64t71.5 -164q0 -82 -49.5 -148t-132.5 -111l-95 117q88 54 88 119q0 39 -28 63t-69 24
q-45 0 -88 -19z" />
    <glyph glyph-name="uni1EDF" unicode="&#x1edf;" horiz-adv-x="1250" 
d="M625 -20q-157 0 -282 68.5t-197.5 196.5t-72.5 294q0 251 156.5 405.5t395.5 154.5q56 0 147.5 -10t106.5 -10q125 0 125 141v86h233v-104q0 -106 -50 -184t-138 -105q128 -149 128 -374q0 -250 -156.5 -404.5t-395.5 -154.5zM358 539q0 -149 75 -228.5t192 -79.5
q118 0 193 79.5t75 228.5t-75.5 229t-192.5 80t-192 -80t-75 -229zM397 1589q70 39 167 39q114 0 185.5 -64t71.5 -164q0 -82 -49.5 -148t-132.5 -111l-95 117q88 54 88 119q0 39 -28 63t-69 24q-45 0 -88 -19z" />
    <glyph glyph-name="uni1EE0" unicode="&#x1ee0;" horiz-adv-x="1598" 
d="M799 -20q-206 0 -367.5 93.5t-253.5 267.5t-92 401q0 170 53.5 313.5t147.5 242t226 153t286 54.5q120 0 242 -19.5t165 -19.5q131 0 131 139v106h234v-137q0 -121 -65.5 -204.5t-181.5 -99.5q92 -96 140 -232t48 -296q0 -171 -53.5 -314t-148 -241t-226 -152.5
t-285.5 -54.5zM374 742q0 -232 115 -369.5t310 -137.5q196 0 310.5 138t114.5 369t-114.5 369t-310.5 138q-195 0 -310 -137.5t-115 -369.5zM418 1745q0 98 57.5 157.5t146.5 59.5q52 0 115.5 -27.5t115.5 -55t77 -27.5q26 0 42 16t16 46q0 17 -9 48l173 38q29 -71 29 -131
q0 -95 -57 -152.5t-144 -57.5q-52 0 -116.5 28t-117 56t-77.5 28q-26 0 -41.5 -16.5t-15.5 -47.5q0 -23 8 -48l-181 -38q-21 69 -21 124z" />
    <glyph glyph-name="uni1EE1" unicode="&#x1ee1;" horiz-adv-x="1250" 
d="M625 -20q-157 0 -282 68.5t-197.5 196.5t-72.5 294q0 251 156.5 405.5t395.5 154.5q56 0 147.5 -10t106.5 -10q125 0 125 141v86h233v-104q0 -106 -50 -184t-138 -105q128 -149 128 -374q0 -250 -156.5 -404.5t-395.5 -154.5zM244 1340q0 98 57.5 157.5t146.5 59.5
q43 0 88.5 -17t77 -38t64.5 -38t53 -17q26 0 42 16t16 46q0 23 -9 48l173 38q29 -71 29 -131q0 -95 -57 -152.5t-144 -57.5q-56 0 -113.5 28t-102.5 56t-70 28t-40.5 -16.5t-15.5 -47.5q0 -21 7 -48l-180 -38q-22 67 -22 124zM358 539q0 -149 75 -228.5t192 -79.5
q118 0 193 79.5t75 228.5t-75.5 229t-192.5 80t-192 -80t-75 -229z" />
    <glyph glyph-name="uni1EE2" unicode="&#x1ee2;" horiz-adv-x="1598" 
d="M799 -20q-206 0 -367.5 93.5t-253.5 267.5t-92 401q0 170 53.5 313.5t147.5 242t226 153t286 54.5q120 0 242 -19.5t165 -19.5q131 0 131 139v106h234v-137q0 -121 -65.5 -204.5t-181.5 -99.5q92 -96 140 -232t48 -296q0 -171 -53.5 -314t-148 -241t-226 -152.5
t-285.5 -54.5zM374 742q0 -232 115 -369.5t310 -137.5q196 0 310.5 138t114.5 369t-114.5 369t-310.5 138q-195 0 -310 -137.5t-115 -369.5zM617 -299q0 77 50.5 126t124.5 49t125 -49t51 -126q0 -78 -51 -127t-125 -49t-124.5 49t-50.5 127z" />
    <glyph glyph-name="uni1EE3" unicode="&#x1ee3;" horiz-adv-x="1250" 
d="M625 -20q-157 0 -282 68.5t-197.5 196.5t-72.5 294q0 251 156.5 405.5t395.5 154.5q56 0 147.5 -10t106.5 -10q125 0 125 141v86h233v-104q0 -106 -50 -184t-138 -105q128 -149 128 -374q0 -250 -156.5 -404.5t-395.5 -154.5zM358 539q0 -149 75 -228.5t192 -79.5
q118 0 193 79.5t75 228.5t-75.5 229t-192.5 80t-192 -80t-75 -229zM451 -299q0 77 50.5 126t124.5 49t125 -49t51 -126q0 -78 -51 -127t-125 -49t-124.5 49t-50.5 127z" />
    <glyph glyph-name="uni1EE4" unicode="&#x1ee4;" horiz-adv-x="1508" 
d="M754 -20q-271 0 -447.5 166t-176.5 418v920h288v-915q0 -147 90 -240.5t246 -93.5t246 93.5t90 240.5v915h288v-920q0 -166 -80 -299.5t-223 -209t-321 -75.5zM579 -299q0 77 50.5 126t124.5 49t125 -49t51 -126q0 -78 -51 -127t-125 -49t-124.5 49t-50.5 127z" />
    <glyph glyph-name="uni1EE5" unicode="&#x1ee5;" horiz-adv-x="1246" 
d="M392 1079v-622q0 -103 64 -168t168 -65q100 0 164 65t64 167v623h284v-1079h-271v147q-111 -167 -328 -167q-192 0 -310.5 122.5t-118.5 319.5v657h284zM435 -299q0 77 50.5 126t124.5 49t125 -49t51 -126q0 -78 -51 -127t-125 -49t-124.5 49t-50.5 127z" />
    <glyph glyph-name="uni1EE6" unicode="&#x1ee6;" horiz-adv-x="1508" 
d="M754 -20q-271 0 -447.5 166t-176.5 418v920h288v-915q0 -147 90 -240.5t246 -93.5t246 93.5t90 240.5v915h288v-920q0 -166 -80 -299.5t-223 -209t-321 -75.5zM525 1994q70 39 167 39q114 0 185.5 -64t71.5 -164q0 -82 -49.5 -148t-132.5 -111l-95 117q88 54 88 119
q0 39 -28 63t-69 24q-45 0 -88 -19z" />
    <glyph glyph-name="uni1EE7" unicode="&#x1ee7;" horiz-adv-x="1246" 
d="M392 1079v-622q0 -103 64 -168t168 -65q100 0 164 65t64 167v623h284v-1079h-271v147q-111 -167 -328 -167q-192 0 -310.5 122.5t-118.5 319.5v657h284zM393 1589q70 39 167 39q114 0 185.5 -64t71.5 -164q0 -82 -49.5 -148t-132.5 -111l-95 117q88 54 88 119
q0 39 -28 63t-69 24q-45 0 -88 -19z" />
    <glyph glyph-name="uni1EE8" unicode="&#x1ee8;" horiz-adv-x="1508" 
d="M754 -20q-271 0 -447.5 166t-176.5 418v920h288v-915q0 -147 90 -240.5t246 -93.5t246 93.5t90 240.5v915h134q124 0 124 141v86h233v-104q0 -110 -53.5 -187.5t-149.5 -103.5v-752q0 -166 -80 -299.5t-223 -209t-321 -75.5zM655 1604l67 407h304l-182 -407h-189z" />
    <glyph glyph-name="uni1EE9" unicode="&#x1ee9;" horiz-adv-x="1246" 
d="M392 1079v-622q0 -103 64 -168t168 -65q100 0 164 65t64 167v623h130q124 0 124 141v86h233v-104q0 -110 -53.5 -187.5t-149.5 -103.5v-911h-271v147q-111 -167 -328 -167q-192 0 -310.5 122.5t-118.5 319.5v657h284zM523 1199l67 407h304l-182 -407h-189z" />
    <glyph glyph-name="uni1EEA" unicode="&#x1eea;" horiz-adv-x="1508" 
d="M754 -20q-271 0 -447.5 166t-176.5 418v920h288v-915q0 -147 90 -240.5t246 -93.5t246 93.5t90 240.5v915h134q124 0 124 141v86h233v-104q0 -110 -53.5 -187.5t-149.5 -103.5v-752q0 -166 -80 -299.5t-223 -209t-321 -75.5zM482 2011h304l67 -407h-189z" />
    <glyph glyph-name="uni1EEB" unicode="&#x1eeb;" horiz-adv-x="1246" 
d="M392 1079v-622q0 -103 64 -168t168 -65q100 0 164 65t64 167v623h130q124 0 124 141v86h233v-104q0 -110 -53.5 -187.5t-149.5 -103.5v-911h-271v147q-111 -167 -328 -167q-192 0 -310.5 122.5t-118.5 319.5v657h284zM350 1606h304l67 -407h-189z" />
    <glyph glyph-name="uni1EEC" unicode="&#x1eec;" horiz-adv-x="1508" 
d="M754 -20q-271 0 -447.5 166t-176.5 418v920h288v-915q0 -147 90 -240.5t246 -93.5t246 93.5t90 240.5v915h134q124 0 124 141v86h233v-104q0 -110 -53.5 -187.5t-149.5 -103.5v-752q0 -166 -80 -299.5t-223 -209t-321 -75.5zM525 1994q70 39 167 39q114 0 185.5 -64
t71.5 -164q0 -82 -49.5 -148t-132.5 -111l-95 117q88 54 88 119q0 39 -28 63t-69 24q-45 0 -88 -19z" />
    <glyph glyph-name="uni1EED" unicode="&#x1eed;" horiz-adv-x="1246" 
d="M392 1079v-622q0 -103 64 -168t168 -65q100 0 164 65t64 167v623h130q124 0 124 141v86h233v-104q0 -110 -53.5 -187.5t-149.5 -103.5v-911h-271v147q-111 -167 -328 -167q-192 0 -310.5 122.5t-118.5 319.5v657h284zM393 1589q70 39 167 39q114 0 185.5 -64t71.5 -164
q0 -82 -49.5 -148t-132.5 -111l-95 117q88 54 88 119q0 39 -28 63t-69 24q-45 0 -88 -19z" />
    <glyph glyph-name="uni1EEE" unicode="&#x1eee;" horiz-adv-x="1508" 
d="M754 -20q-271 0 -447.5 166t-176.5 418v920h288v-915q0 -147 90 -240.5t246 -93.5t246 93.5t90 240.5v915h134q124 0 124 141v86h233v-104q0 -110 -53.5 -187.5t-149.5 -103.5v-752q0 -166 -80 -299.5t-223 -209t-321 -75.5zM373 1745q0 98 57.5 157.5t146.5 59.5
q52 0 115.5 -27.5t115.5 -55t77 -27.5q26 0 42 16t16 46q0 17 -9 48l173 38q29 -71 29 -131q0 -95 -57 -152.5t-144 -57.5q-52 0 -116.5 28t-117 56t-77.5 28q-26 0 -41.5 -16.5t-15.5 -47.5q0 -23 8 -48l-181 -38q-21 69 -21 124z" />
    <glyph glyph-name="uni1EEF" unicode="&#x1eef;" horiz-adv-x="1246" 
d="M392 1079v-622q0 -103 64 -168t168 -65q100 0 164 65t64 167v623h130q124 0 124 141v86h233v-104q0 -110 -53.5 -187.5t-149.5 -103.5v-911h-271v147q-111 -167 -328 -167q-192 0 -310.5 122.5t-118.5 319.5v657h284zM241 1340q0 98 57.5 157.5t146.5 59.5
q52 0 115.5 -27.5t115.5 -55t77 -27.5q26 0 42 16t16 46q0 17 -9 48l173 38q29 -71 29 -131q0 -95 -57 -152.5t-144 -57.5q-52 0 -116.5 28t-117 56t-77.5 28q-26 0 -41.5 -16.5t-15.5 -47.5q0 -23 8 -48l-181 -38q-21 69 -21 124z" />
    <glyph glyph-name="uni1EF0" unicode="&#x1ef0;" horiz-adv-x="1508" 
d="M754 -20q-271 0 -447.5 166t-176.5 418v920h288v-915q0 -147 90 -240.5t246 -93.5t246 93.5t90 240.5v915h134q124 0 124 141v86h233v-104q0 -110 -53.5 -187.5t-149.5 -103.5v-752q0 -166 -80 -299.5t-223 -209t-321 -75.5zM579 -299q0 77 50.5 126t124.5 49t125 -49
t51 -126q0 -78 -51 -127t-125 -49t-124.5 49t-50.5 127z" />
    <glyph glyph-name="uni1EF1" unicode="&#x1ef1;" horiz-adv-x="1246" 
d="M392 1079v-622q0 -103 64 -168t168 -65q100 0 164 65t64 167v623h130q124 0 124 141v86h233v-104q0 -110 -53.5 -187.5t-149.5 -103.5v-911h-271v147q-111 -167 -328 -167q-192 0 -310.5 122.5t-118.5 319.5v657h284zM435 -299q0 77 50.5 126t124.5 49t125 -49t51 -126
q0 -78 -51 -127t-125 -49t-124.5 49t-50.5 127z" />
    <glyph glyph-name="Ygrave" unicode="&#x1ef2;" horiz-adv-x="1415" 
d="M562 0v583l-542 901h331l359 -624l360 624h325l-544 -900v-584h-289zM441 2011h304l67 -407h-189z" />
    <glyph glyph-name="ygrave" unicode="&#x1ef3;" horiz-adv-x="1228" 
d="M551 -484q-411 0 -582 336l227 138q63 -118 144 -170.5t198 -52.5q142 0 217 76t75 220v112q-116 -143 -328 -143q-188 0 -301.5 121t-113.5 322v604h284v-590q0 -111 59 -171.5t166 -60.5q105 0 169.5 63t64.5 166v593h285v-1016q0 -257 -149.5 -402t-414.5 -145z
M337 1606h304l67 -407h-189z" />
    <glyph glyph-name="uni1EF4" unicode="&#x1ef4;" horiz-adv-x="1415" 
d="M562 0v583l-542 901h331l359 -624l360 624h325l-544 -900v-584h-289zM532 -299q0 77 50.5 126t124.5 49t125 -49t51 -126q0 -78 -51 -127t-125 -49t-124.5 49t-50.5 127z" />
    <glyph glyph-name="uni1EF5" unicode="&#x1ef5;" horiz-adv-x="1228" 
d="M551 -484q-411 0 -582 336l227 138q63 -118 144 -170.5t198 -52.5q142 0 217 76t75 220v112q-116 -143 -328 -143q-188 0 -301.5 121t-113.5 322v604h284v-590q0 -111 59 -171.5t166 -60.5q105 0 169.5 63t64.5 166v593h285v-1016q0 -257 -149.5 -402t-414.5 -145z
M1024 -450q0 77 50.5 126t124.5 49t125 -49t51 -126q0 -78 -51 -127t-125 -49t-124.5 49t-50.5 127z" />
    <glyph glyph-name="uni1EF6" unicode="&#x1ef6;" horiz-adv-x="1415" 
d="M562 0v583l-542 901h331l359 -624l360 624h325l-544 -900v-584h-289zM484 1994q70 39 167 39q114 0 185.5 -64t71.5 -164q0 -82 -49.5 -148t-132.5 -111l-95 117q88 54 88 119q0 39 -28 63t-69 24q-45 0 -88 -19z" />
    <glyph glyph-name="uni1EF7" unicode="&#x1ef7;" horiz-adv-x="1228" 
d="M551 -484q-411 0 -582 336l227 138q63 -118 144 -170.5t198 -52.5q142 0 217 76t75 220v112q-116 -143 -328 -143q-188 0 -301.5 121t-113.5 322v604h284v-590q0 -111 59 -171.5t166 -60.5q105 0 169.5 63t64.5 166v593h285v-1016q0 -257 -149.5 -402t-414.5 -145z
M380 1589q70 39 167 39q114 0 185.5 -64t71.5 -164q0 -82 -49.5 -148t-132.5 -111l-95 117q88 54 88 119q0 39 -28 63t-69 24q-45 0 -88 -19z" />
    <glyph glyph-name="uni1EF8" unicode="&#x1ef8;" horiz-adv-x="1415" 
d="M562 0v583l-542 901h331l359 -624l360 624h325l-544 -900v-584h-289zM332 1745q0 98 57.5 157.5t146.5 59.5q52 0 115.5 -27.5t115.5 -55t77 -27.5q26 0 42 16t16 46q0 17 -9 48l173 38q29 -71 29 -131q0 -95 -57 -152.5t-144 -57.5q-52 0 -116.5 28t-117 56t-77.5 28
q-26 0 -41.5 -16.5t-15.5 -47.5q0 -23 8 -48l-181 -38q-21 69 -21 124z" />
    <glyph glyph-name="uni1EF9" unicode="&#x1ef9;" horiz-adv-x="1228" 
d="M551 -484q-411 0 -582 336l227 138q63 -118 144 -170.5t198 -52.5q142 0 217 76t75 220v112q-116 -143 -328 -143q-188 0 -301.5 121t-113.5 322v604h284v-590q0 -111 59 -171.5t166 -60.5q105 0 169.5 63t64.5 166v593h285v-1016q0 -257 -149.5 -402t-414.5 -145z
M228 1340q0 98 57.5 157.5t146.5 59.5q52 0 115.5 -27.5t115.5 -55t77 -27.5q26 0 42 16t16 46q0 17 -9 48l173 38q29 -71 29 -131q0 -95 -57 -152.5t-144 -57.5q-52 0 -116.5 28t-117 56t-77.5 28q-26 0 -41.5 -16.5t-15.5 -47.5q0 -23 8 -48l-181 -38q-21 69 -21 124z" />
    <glyph glyph-name="uni2000" unicode="&#x2000;" horiz-adv-x="1024" 
 />
    <glyph glyph-name="uni2001" unicode="&#x2001;" horiz-adv-x="2048" 
 />
    <glyph glyph-name="uni2002" unicode="&#x2002;" horiz-adv-x="1024" 
 />
    <glyph glyph-name="uni2003" unicode="&#x2003;" horiz-adv-x="2048" 
 />
    <glyph glyph-name="uni2004" unicode="&#x2004;" horiz-adv-x="682" 
 />
    <glyph glyph-name="uni2005" unicode="&#x2005;" horiz-adv-x="512" 
 />
    <glyph glyph-name="uni2006" unicode="&#x2006;" horiz-adv-x="342" 
 />
    <glyph glyph-name="uni2007" unicode="&#x2007;" 
 />
    <glyph glyph-name="uni2008" unicode="&#x2008;" horiz-adv-x="520" 
 />
    <glyph glyph-name="uni2009" unicode="&#x2009;" horiz-adv-x="410" 
 />
    <glyph glyph-name="uni200A" unicode="&#x200a;" horiz-adv-x="293" 
 />
    <glyph glyph-name="uni200B" unicode="&#x200b;" horiz-adv-x="0" 
 />
    <glyph glyph-name="endash" unicode="&#x2013;" horiz-adv-x="1030" 
d="M48 635v239h934v-239h-934z" />
    <glyph glyph-name="emdash" unicode="&#x2014;" horiz-adv-x="1399" 
d="M48 635v239h1303v-239h-1303z" />
    <glyph glyph-name="quoteleft" unicode="&#x2018;" horiz-adv-x="470" 
d="M340 1495l117 -75l-182 -291q50 -15 81 -56.5t31 -97.5q0 -79 -51 -128.5t-126 -49.5t-126.5 50.5t-51.5 132.5q0 21 2 39.5t9.5 38t11.5 31t17.5 32.5t18.5 28t24 32.5t24 32.5z" />
    <glyph glyph-name="quoteright" unicode="&#x2019;" horiz-adv-x="470" 
d="M130 807l-117 75l182 291q-50 15 -81 56.5t-31 97.5q0 79 51 128.5t126 49.5t126.5 -50.5t51.5 -132.5q0 -21 -2 -39.5t-9.5 -38t-11.5 -31t-17.5 -32.5t-18.5 -28t-24 -32.5t-24 -32.5z" />
    <glyph glyph-name="quotesinglbase" unicode="&#x201a;" horiz-adv-x="503" 
d="M109 -363l-117 75l182 291q-50 15 -81 56.5t-31 97.5q0 79 51 128.5t126 49.5t126.5 -50.5t51.5 -132.5q0 -21 -2 -39.5t-9.5 -38t-11.5 -31t-17.5 -32.5t-18.5 -28t-24 -32.5t-24 -32.5z" />
    <glyph glyph-name="quotedblleft" unicode="&#x201c;" horiz-adv-x="936" 
d="M340 1495l117 -75l-182 -291q50 -15 81 -56.5t31 -97.5q0 -79 -51 -128.5t-126 -49.5t-126.5 50.5t-51.5 132.5q0 21 2 39.5t9.5 38t11.5 31t17.5 32.5t18.5 28t24 32.5t24 32.5zM497 980q0 21 2 39.5t9.5 38t11.5 31t17.5 32.5t18.5 28t24 32.5t24 32.5l201 281l117 -75
l-182 -291q50 -15 81 -56.5t31 -97.5q0 -79 -51 -128.5t-126 -49.5t-126.5 50.5t-51.5 132.5z" />
    <glyph glyph-name="quotedblright" unicode="&#x201d;" horiz-adv-x="936" 
d="M596 806l-117 75l182 291q-50 15 -81 56.5t-31 97.5q0 79 51 128.5t126 49.5t126.5 -50.5t51.5 -132.5q0 -21 -2 -39.5t-9.5 -38t-11.5 -31t-17.5 -32.5t-18.5 -28t-24 -32.5t-24 -32.5zM14 881l182 291q-50 15 -81 56.5t-31 97.5q0 79 51 128.5t126 49.5t126.5 -50.5
t51.5 -132.5q0 -21 -2 -39.5t-9.5 -38t-11.5 -31t-17.5 -32.5t-18.5 -28t-24 -32.5t-24 -32.5l-201 -281z" />
    <glyph glyph-name="quotedblbase" unicode="&#x201e;" horiz-adv-x="986" 
d="M596 -363l-117 75l182 291q-50 15 -81 56.5t-31 97.5q0 79 51 128.5t126 49.5t126.5 -50.5t51.5 -132.5q0 -21 -2 -39.5t-9.5 -38t-11.5 -31t-17.5 -32.5t-18.5 -28t-24 -32.5t-24 -32.5zM14 -288l182 291q-50 15 -81 56.5t-31 97.5q0 79 51 128.5t126 49.5t126.5 -50.5
t51.5 -132.5q0 -21 -2 -39.5t-9.5 -38t-11.5 -31t-17.5 -32.5t-18.5 -28t-24 -32.5t-24 -32.5l-201 -281z" />
    <glyph glyph-name="dagger" unicode="&#x2020;" horiz-adv-x="877" 
d="M297 566v492h-249v239h249v265h283v-265h249v-239h-249v-492h-283z" />
    <glyph glyph-name="daggerdbl" unicode="&#x2021;" horiz-adv-x="877" 
d="M297 566v200h-249v239h249v118h-249v239h249v200h283v-200h249v-239h-249v-118h249v-239h-249v-200h-283z" />
    <glyph glyph-name="bullet" unicode="&#x2022;" horiz-adv-x="834" 
d="M418 448q-120 0 -202 78.5t-82 204.5q0 127 82 206t202 79q119 0 201.5 -79t82.5 -206q0 -125 -82.5 -204t-201.5 -79z" />
    <glyph glyph-name="ellipsis" unicode="&#x2026;" horiz-adv-x="1749" 
d="M261 -20q-75 0 -126 49t-51 128t51 128.5t126 49.5t126.5 -49.5t51.5 -128.5q0 -78 -51.5 -127.5t-126.5 -49.5zM698 157q0 79 51 128.5t126 49.5t126.5 -49.5t51.5 -128.5q0 -78 -51.5 -127.5t-126.5 -49.5t-126 49t-51 128zM1313 157q0 79 51 128.5t126 49.5
t126.5 -49.5t51.5 -128.5q0 -78 -51.5 -127.5t-126.5 -49.5t-126 49t-51 128z" />
    <glyph glyph-name="uni202F" unicode="&#x202f;" horiz-adv-x="404" 
 />
    <glyph glyph-name="perthousand" unicode="&#x2030;" horiz-adv-x="3026" 
d="M2557 -19q-178 0 -284.5 106t-106.5 265q0 160 106 266.5t285 106.5t286 -107t107 -266t-107 -265t-286 -106zM76 1133q0 160 107 266t287 106q178 0 284.5 -106t106.5 -266q0 -159 -106.5 -266t-284.5 -107q-180 0 -287 107t-107 266zM332 1133q0 -70 36 -110t102 -40
q65 0 100.5 40t35.5 110t-36 110.5t-100 40.5q-65 0 -101.5 -40.5t-36.5 -110.5zM440 0l915 1485h294l-916 -1485h-293zM1227 352q0 159 106.5 266t284.5 107q180 0 287 -107t107 -266t-107 -265t-287 -106q-178 0 -284.5 106t-106.5 265zM1482 352q0 -70 36 -110t100 -40
q66 0 102.5 40t36.5 110q0 71 -36 110.5t-103 39.5q-64 0 -100 -40t-36 -110zM2421 352q0 -70 36 -110t100 -40q66 0 102 40t36 110t-36 110t-102 40q-65 0 -100.5 -40t-35.5 -110z" />
    <glyph glyph-name="minute" unicode="&#x2032;" horiz-adv-x="734" 
d="M223 873l69 611h298l-200 -611h-167z" />
    <glyph glyph-name="second" unicode="&#x2033;" horiz-adv-x="1104" 
d="M223 873l69 611h298l-200 -611h-167zM593 873l69 611h298l-200 -611h-167z" />
    <glyph glyph-name="guilsinglleft" unicode="&#x2039;" horiz-adv-x="633" 
d="M48 442v268l512 305v-280l-288 -158l288 -158v-282z" />
    <glyph glyph-name="guilsinglright" unicode="&#x203a;" horiz-adv-x="633" 
d="M585 709v-268l-512 -305v280l288 158l-288 158v282z" />
    <glyph glyph-name="fraction" unicode="&#x2044;" horiz-adv-x="1481" 
d="M79 0l1039 1484h282l-1039 -1484h-282z" />
    <glyph glyph-name="uni2053" unicode="&#x2053;" horiz-adv-x="1006" 
d="M695 558q-56 0 -112.5 23t-94 51t-78 51t-67.5 23q-48 0 -71.5 -22.5t-23.5 -72.5q0 -14 1 -22l-189 -22q-6 56 -6 78q0 129 66.5 195t194.5 66q57 0 113.5 -23.5t93.5 -51t77.5 -51t68.5 -23.5q97 0 97 97q0 19 -2 29l185 22q6 -42 6 -78q0 -132 -67.5 -200.5
t-191.5 -68.5z" />
    <glyph glyph-name="uni205F" unicode="&#x205f;" horiz-adv-x="455" 
 />
    <glyph glyph-name="uni2070" unicode="&#x2070;" horiz-adv-x="972" 
d="M487 653q-197 0 -311 129t-114 356t114 355.5t311 128.5q196 0 310 -128.5t114 -355.5t-114 -356t-310 -129zM301 1138q0 -143 49.5 -217t136.5 -74q86 0 135 74.5t49 216.5q0 135 -49.5 206.5t-134.5 71.5q-86 0 -136 -71.5t-50 -206.5z" />
    <glyph glyph-name="uni2074" unicode="&#x2074;" horiz-adv-x="867" 
d="M481 665v190h-458v175l437 580h234v-572h132v-183h-132v-190h-213zM258 1038h223v298z" />
    <glyph glyph-name="uni2075" unicode="&#x2075;" horiz-adv-x="869" 
d="M445 652q-143 0 -240 60t-132 183l201 68q17 -58 61 -88.5t108 -30.5q65 0 109 35t44 100q0 66 -47 99.5t-116 33.5q-38 0 -74 -14t-58 -36l-179 39l59 509h561v-192h-390l-19 -158q59 36 133 36q148 0 241 -88.5t93 -226.5q0 -146 -94 -237.5t-261 -91.5z" />
    <glyph glyph-name="uni2076" unicode="&#x2076;" horiz-adv-x="895" 
d="M470 652q-184 0 -292.5 113t-108.5 336q0 263 110.5 392t303.5 129q226 0 332 -176l-154 -107q-35 45 -76 68.5t-99 23.5q-173 0 -200 -212q76 70 203 70q141 0 237 -85t96 -219q0 -152 -97 -242.5t-255 -90.5zM299 977q0 -61 45.5 -98.5t112.5 -37.5t112 35.5t45 100.5
t-45 101.5t-112 36.5t-112.5 -36t-45.5 -102z" />
    <glyph glyph-name="uni2077" unicode="&#x2077;" horiz-adv-x="811" 
d="M165 665l336 753h-445v192h694v-126l-360 -819h-225z" />
    <glyph glyph-name="uni2078" unicode="&#x2078;" horiz-adv-x="898" 
d="M449 652q-176 0 -282 79t-106 211q0 157 154 222q-113 65 -113 192q0 118 92.5 192t254.5 74t255 -74.5t93 -193.5q0 -126 -112 -190q152 -65 152 -222q0 -133 -105.5 -211.5t-282.5 -78.5zM268 955q0 -58 46.5 -88.5t134.5 -30.5t134.5 30.5t46.5 88.5q0 55 -49.5 85.5
t-131.5 30.5t-131.5 -30.5t-49.5 -85.5zM309 1349q0 -49 38 -75t102 -26t102.5 26t38.5 75q0 47 -39 75t-102 28q-62 0 -101 -28t-39 -75z" />
    <glyph glyph-name="uni2079" unicode="&#x2079;" horiz-adv-x="895" 
d="M422 652q-131 0 -231.5 52.5t-158.5 155.5l159 117q65 -133 224 -133q87 0 142.5 55.5t65.5 171.5q-84 -76 -212 -76q-151 0 -245.5 85.5t-94.5 222.5q0 136 102 227.5t257 91.5q183 0 291 -110.5t108 -332.5q0 -270 -107.5 -398.5t-299.5 -128.5zM282 1302
q0 -65 44 -100t116 -35t116 35t44 100q0 64 -44 99t-116 35q-71 0 -115.5 -35t-44.5 -99z" />
    <glyph glyph-name="uni2080" unicode="&#x2080;" horiz-adv-x="972" 
d="M487 -123q-197 0 -311 129t-114 356t114 355.5t311 128.5q196 0 310 -128.5t114 -355.5t-114 -356t-310 -129zM301 362q0 -143 49.5 -217t136.5 -74q86 0 135 74.5t49 216.5q0 135 -49.5 206.5t-134.5 71.5q-86 0 -136 -71.5t-50 -206.5z" />
    <glyph glyph-name="uni2081" unicode="&#x2081;" horiz-adv-x="531" 
d="M162 -111v753h-141l36 192h336v-945h-231z" />
    <glyph glyph-name="uni2082" unicode="&#x2082;" horiz-adv-x="855" 
d="M73 -111v144l321 322q67 67 92.5 107t25.5 83q0 44 -29 70t-77 26q-98 0 -126 -108l-204 53q56 260 340 260q160 0 245.5 -77t85.5 -208q0 -99 -45 -172t-156 -182l-128 -126h373v-192h-718z" />
    <glyph glyph-name="uni2083" unicode="&#x2083;" horiz-adv-x="877" 
d="M434 -124q-176 0 -277 80t-111 228l209 35q9 -67 50 -106t116 -39q67 0 103 30t36 80q0 48 -36 74t-102 26h-81v186h76q50 0 82 23.5t32 67.5q0 42 -32.5 65t-81.5 23q-46 0 -81 -26t-48 -73l-199 63q18 92 105 162.5t225 70.5q152 0 245 -72t93 -181q0 -149 -132 -209
q172 -49 172 -222q0 -129 -102.5 -207.5t-260.5 -78.5z" />
    <glyph glyph-name="uni2084" unicode="&#x2084;" horiz-adv-x="867" 
d="M481 -111v190h-458v175l437 580h234v-572h132v-183h-132v-190h-213zM258 262h223v298z" />
    <glyph glyph-name="uni2085" unicode="&#x2085;" horiz-adv-x="869" 
d="M445 -124q-143 0 -240 60t-132 183l201 68q17 -58 61 -88.5t108 -30.5q65 0 109 35t44 100q0 66 -47 99.5t-116 33.5q-38 0 -74 -14t-58 -36l-179 39l59 509h561v-192h-390l-19 -158q59 36 133 36q148 0 241 -88.5t93 -226.5q0 -146 -94 -237.5t-261 -91.5z" />
    <glyph glyph-name="uni2086" unicode="&#x2086;" horiz-adv-x="895" 
d="M470 -124q-184 0 -292.5 113t-108.5 336q0 263 110.5 392t303.5 129q226 0 332 -176l-154 -107q-35 45 -76 68.5t-99 23.5q-173 0 -200 -212q76 70 203 70q141 0 237 -85t96 -219q0 -152 -97 -242.5t-255 -90.5zM299 201q0 -61 45.5 -98.5t112.5 -37.5t112 35.5t45 100.5
t-45 101.5t-112 36.5t-112.5 -36t-45.5 -102z" />
    <glyph glyph-name="uni2087" unicode="&#x2087;" horiz-adv-x="811" 
d="M165 -111l336 753h-445v192h694v-126l-360 -819h-225z" />
    <glyph glyph-name="uni2088" unicode="&#x2088;" horiz-adv-x="898" 
d="M449 -124q-176 0 -282 79t-106 211q0 157 154 222q-113 65 -113 192q0 118 92.5 192t254.5 74t255 -74.5t93 -193.5q0 -126 -112 -190q152 -65 152 -222q0 -133 -105.5 -211.5t-282.5 -78.5zM268 179q0 -58 46.5 -88.5t134.5 -30.5t134.5 30.5t46.5 88.5q0 55 -49.5 85.5
t-131.5 30.5t-131.5 -30.5t-49.5 -85.5zM309 573q0 -49 38 -75t102 -26t102.5 26t38.5 75q0 47 -39 75t-102 28q-62 0 -101 -28t-39 -75z" />
    <glyph glyph-name="uni2089" unicode="&#x2089;" horiz-adv-x="895" 
d="M422 -124q-131 0 -231.5 52.5t-158.5 155.5l159 117q65 -133 224 -133q87 0 142.5 55.5t65.5 171.5q-84 -76 -212 -76q-151 0 -245.5 85.5t-94.5 222.5q0 136 102 227.5t257 91.5q183 0 291 -110.5t108 -332.5q0 -270 -107.5 -398.5t-299.5 -128.5zM282 526
q0 -65 44 -100t116 -35t116 35t44 100q0 64 -44 99t-116 35q-71 0 -115.5 -35t-44.5 -99z" />
    <glyph glyph-name="colonmonetary" unicode="&#x20a1;" horiz-adv-x="1568" 
d="M186 -184l124 350q-107 103 -165.5 249.5t-58.5 326.5q0 168 52.5 310.5t145.5 240.5t221.5 153.5t277.5 58.5l77 219h170l-82 -233q71 -14 127 -37l95 270h169l-123 -348q184 -133 244 -370l-279 -56q-25 84 -66 140l-301 -855q139 5 233.5 84.5t134.5 215.5l278 -56
q-58 -232 -236 -365.5t-428 -133.5q-36 0 -71 3l-59 -167h-170l70 199q-61 19 -121 52l-89 -251h-170zM374 742q0 -146 48 -257l266 751q-145 -37 -229.5 -168t-84.5 -326zM536 326q53 -45 116 -67l335 946q-56 29 -126 40z" />
    <glyph glyph-name="dong" unicode="&#x20ab;" horiz-adv-x="1182" 
d="M496 242q-179 0 -293 127.5t-114 313.5t114 313.5t293 127.5q147 0 251 -110v186h-245v163h245v121h238v-121h127v-163h-127v-942h-216v121q-106 -137 -273 -137zM93 0v163h978v-163h-978zM326 683q0 -102 58 -168t153 -66q88 0 149 63.5t61 170.5t-61 170.5t-149 63.5
q-95 0 -153 -66t-58 -168z" />
    <glyph glyph-name="Euro" unicode="&#x20ac;" horiz-adv-x="1474" 
d="M772 -20q-231 0 -388 140.5t-209 386.5h-176v179h154q-1 18 -1 56t1 56h-154v179h176q52 247 209 387.5t388 140.5q229 0 384 -136t209 -376l-283 -50q-28 148 -106 228.5t-204 80.5q-118 0 -195 -71t-111 -204h395v-179h-420q-1 -18 -1 -56t1 -56h379v-179h-354
q34 -133 111 -204t195 -71q126 0 204 80.5t106 228.5l283 -50q-54 -240 -208.5 -375.5t-384.5 -135.5z" />
    <glyph glyph-name="uni20B1" unicode="&#x20b1;" horiz-adv-x="1550" 
d="M40 1038v179h157v267h661q148 0 268 -71t182 -196h196v-179h-147q2 -34 2 -51q0 -19 -2 -53h147v-180h-197q-61 -124 -181 -195t-268 -71h-373v-488h-288v754h-157v180h157v104h-157zM485 744h345q111 0 176 66t65 177q0 110 -65 176t-176 66h-345v-485z" />
    <glyph glyph-name="uni20B2" unicode="&#x20b2;" horiz-adv-x="1609" 
d="M684 -224v214q-275 41 -436.5 242t-161.5 510q0 312 163.5 515.5t434.5 240.5v210h232v-211q205 -28 348.5 -148t201.5 -311l-277 -68q-73 212 -273 264v-991q173 32 282 175v279h289v-697h-233l-13 122q-134 -112 -325 -136v-210h-232zM374 742q0 -190 81.5 -318
t228.5 -170v981q-143 -38 -226.5 -168.5t-83.5 -324.5z" />
    <glyph glyph-name="uni20BA" unicode="&#x20ba;" horiz-adv-x="1333" 
d="M230 0v497l-211 -62v219l211 63v119l-211 -63v220l211 63v428h289v-354l400 120v-219l-400 -121v-119l400 120v-220l-400 -120v-316h153q157 0 264 105.5t135 316.5l265 -45q-19 -157 -78 -279.5t-148 -198.5t-200 -115t-238 -39h-442z" />
    <glyph glyph-name="uni20BD" unicode="&#x20bd;" 
d="M176 0v214h-131v179h131v121h-131v230h131v740h661q138 0 252 -61t182 -175.5t68 -260.5t-68 -255t-181 -163.5t-253 -54.5h-372v-121h424v-179h-424v-214h-289zM465 744h345q110 0 175.5 66.5t65.5 176.5t-65.5 176t-175.5 66h-345v-485z" />
    <glyph glyph-name="uni20BF" unicode="&#x20bf;" horiz-adv-x="1420" 
d="M360 1708h232v-224h140v224h232v-231q136 -25 226 -127t90 -241q0 -110 -53.5 -195t-138.5 -132q105 -40 171 -129t66 -225q0 -171 -101 -286t-260 -137v-229h-232v224h-140v-224h-232v224h-230v1484h230v224zM418 223h400q95 0 156.5 61.5t61.5 159.5q0 100 -61.5 158
t-162.5 58h-394v-437zM418 883h386q78 0 133 54.5t55 135.5q0 82 -54.5 135t-133.5 53h-386v-378z" />
    <glyph glyph-name="uni2116" unicode="&#x2116;" horiz-adv-x="2479" 
d="M130 0v1484h263l718 -992v992h275v-1484h-270l-712 985v-985h-274zM1521 1086q0 178 127 298.5t326 120.5q197 0 324.5 -121t127.5 -298q0 -178 -127.5 -298.5t-324.5 -120.5q-199 0 -326 120.5t-127 298.5zM1618 309v239h711v-239h-711zM1783 1086q0 -87 53.5 -139
t137.5 -52t136.5 52t52.5 139q0 85 -53 137t-136 52q-84 0 -137.5 -52t-53.5 -137z" />
    <glyph glyph-name="uni2117" unicode="&#x2117;" horiz-adv-x="1800" 
d="M900 -20q-238 0 -423.5 95.5t-288 269.5t-102.5 397q0 167 59.5 309t166 241.5t258 155.5t330.5 56t330.5 -56t258 -155.5t166 -241.5t59.5 -309q0 -168 -59.5 -309.5t-165.5 -241t-258 -155.5t-331 -56zM264 742q0 -273 172.5 -439t462.5 -166t463.5 166t173.5 439
t-173.5 438.5t-463.5 165.5t-462.5 -165.5t-172.5 -438.5zM611 305v866h408q124 0 207.5 -80t83.5 -205q0 -123 -84 -204t-207 -81h-216v-296h-192zM803 769h193q53 0 87.5 34t34.5 83t-34.5 83t-87.5 34h-193v-234z" />
    <glyph glyph-name="trademark" unicode="&#x2122;" horiz-adv-x="2188" 
d="M1020 549v935h357l186 -598l190 598h359v-935h-238v589l-185 -589h-258l-187 593v-593h-224zM22 1267v217h901v-217h-324v-718h-253v718h-324z" />
    <glyph glyph-name="estimated" unicode="&#x212e;" horiz-adv-x="1839" 
d="M920 -29q-219 0 -388.5 83t-265.5 239t-96 362q0 201 95.5 357.5t266.5 242.5t388 86q334 0 534 -183.5t215 -518.5h-1192q-17 0 -24 -6.5t-7 -30.5v-336q0 -27 35 -67t94 -79.5t152 -67t193 -27.5q137 0 263.5 61t209.5 158h139q-133 -151 -268.5 -212t-343.5 -61z
M446 694q0 -16 31 -16h881q20 0 26.5 6.5t6.5 24.5v331q0 52 -73 111t-185 99t-215 40q-95 0 -187 -28.5t-152 -68t-96.5 -78.5t-36.5 -62v-359z" />
    <glyph glyph-name="oneeighth" unicode="&#x215b;" horiz-adv-x="2053" 
d="M162 539v753h-141l36 192h336v-945h-231zM202 0l1039 1484h282l-1039 -1484h-282zM1216 277q0 157 154 222q-113 65 -113 192q0 118 92.5 192t254.5 74t255 -74.5t93 -193.5q0 -126 -112 -190q152 -65 152 -222q0 -133 -105.5 -211.5t-282.5 -78.5q-176 0 -282 79
t-106 211zM1423 290q0 -58 46.5 -88.5t134.5 -30.5t134.5 30.5t46.5 88.5q0 55 -49.5 85.5t-131.5 30.5t-131.5 -30.5t-49.5 -85.5zM1464 684q0 -49 38 -75t102 -26t102.5 26t38.5 75q0 47 -39 75t-102 28q-62 0 -101 -28t-39 -75z" />
    <glyph glyph-name="threeeighths" unicode="&#x215c;" horiz-adv-x="2325" 
d="M434 526q-176 0 -277 80t-111 228l209 35q9 -67 50 -106t116 -39q67 0 103 30t36 80q0 48 -36 74t-102 26h-81v186h76q50 0 82 23.5t32 67.5q0 42 -32.5 65t-81.5 23q-46 0 -81 -26t-48 -73l-199 63q18 92 105 162.5t225 70.5q152 0 245 -72t93 -181q0 -149 -132 -209
q172 -49 172 -222q0 -129 -102.5 -207.5t-260.5 -78.5zM474 0l1039 1484h282l-1039 -1484h-282zM1488 277q0 157 154 222q-113 65 -113 192q0 118 92.5 192t254.5 74t255 -74.5t93 -193.5q0 -126 -112 -190q152 -65 152 -222q0 -133 -105.5 -211.5t-282.5 -78.5
q-176 0 -282 79t-106 211zM1695 290q0 -58 46.5 -88.5t134.5 -30.5t134.5 30.5t46.5 88.5q0 55 -49.5 85.5t-131.5 30.5t-131.5 -30.5t-49.5 -85.5zM1736 684q0 -49 38 -75t102 -26t102.5 26t38.5 75q0 47 -39 75t-102 28q-62 0 -101 -28t-39 -75z" />
    <glyph glyph-name="fiveeighths" unicode="&#x215d;" horiz-adv-x="2351" 
d="M445 526q-143 0 -240 60t-132 183l201 68q17 -58 61 -88.5t108 -30.5q65 0 109 35t44 100q0 66 -47 99.5t-116 33.5q-38 0 -74 -14t-58 -36l-179 39l59 509h561v-192h-390l-19 -158q59 36 133 36q148 0 241 -88.5t93 -226.5q0 -146 -94 -237.5t-261 -91.5zM500 0
l1039 1484h282l-1039 -1484h-282zM1514 277q0 157 154 222q-113 65 -113 192q0 118 92.5 192t254.5 74t255 -74.5t93 -193.5q0 -126 -112 -190q152 -65 152 -222q0 -133 -105.5 -211.5t-282.5 -78.5q-176 0 -282 79t-106 211zM1721 290q0 -58 46.5 -88.5t134.5 -30.5
t134.5 30.5t46.5 88.5q0 55 -49.5 85.5t-131.5 30.5t-131.5 -30.5t-49.5 -85.5zM1762 684q0 -49 38 -75t102 -26t102.5 26t38.5 75q0 47 -39 75t-102 28q-62 0 -101 -28t-39 -75z" />
    <glyph glyph-name="seveneighths" unicode="&#x215e;" horiz-adv-x="2203" 
d="M165 539l336 753h-445v192h694v-126l-360 -819h-225zM352 0l1039 1484h282l-1039 -1484h-282zM1366 277q0 157 154 222q-113 65 -113 192q0 118 92.5 192t254.5 74t255 -74.5t93 -193.5q0 -126 -112 -190q152 -65 152 -222q0 -133 -105.5 -211.5t-282.5 -78.5
q-176 0 -282 79t-106 211zM1573 290q0 -58 46.5 -88.5t134.5 -30.5t134.5 30.5t46.5 88.5q0 55 -49.5 85.5t-131.5 30.5t-131.5 -30.5t-49.5 -85.5zM1614 684q0 -49 38 -75t102 -26t102.5 26t38.5 75q0 47 -39 75t-102 28q-62 0 -101 -28t-39 -75z" />
    <glyph glyph-name="arrowleft" unicode="&#x2190;" horiz-adv-x="1289" 
d="M612 342l-125 -127l-456 456v119l456 456l125 -126l-290 -288h911l1 -203h-910z" />
    <glyph glyph-name="arrowup" unicode="&#x2191;" horiz-adv-x="1127" 
d="M175 760l-127 125l456 456h119l456 -456l-126 -125l-288 290v-911l-203 -1v910z" />
    <glyph glyph-name="arrowright" unicode="&#x2192;" horiz-adv-x="1289" 
d="M677 1109l125 127l456 -456v-119l-456 -456l-125 126l290 288h-911l-1 203h910z" />
    <glyph glyph-name="arrowdown" unicode="&#x2193;" horiz-adv-x="1127" 
d="M942 698l127 -125l-456 -456h-119l-456 456l126 125l288 -290v911l203 1v-910z" />
    <glyph glyph-name="arrowboth" unicode="&#x2194;" horiz-adv-x="1447" 
d="M950 221l-125 125l289 287h-781l289 -287l-125 -125l-456 456v118l456 456l125 -127l-288 -287h779l-288 287l125 127l456 -456v-118z" />
    <glyph glyph-name="arrowupdn" unicode="&#x2195;" horiz-adv-x="1142" 
d="M56 510l125 125l287 -289v781l-287 -289l-125 125l456 456h118l456 -456l-127 -125l-287 288v-779l287 288l127 -125l-456 -456h-118z" />
    <glyph glyph-name="uni2196" unicode="&#x2196;" horiz-adv-x="1127" 
d="M273 478l-178 -1v645l84 84h645l-1 -178l-408 1l644 -644l-143 -144l-644 644z" />
    <glyph glyph-name="uni2197" unicode="&#x2197;" horiz-adv-x="1127" 
d="M302 1029l-1 178h645l84 -84v-645h-178l2 409l-644 -644l-145 143l644 644z" />
    <glyph glyph-name="uni2198" unicode="&#x2198;" horiz-adv-x="1127" 
d="M858 985l178 1v-645l-84 -84h-645l1 178l408 -1l-644 643l143 145l644 -644z" />
    <glyph glyph-name="uni2199" unicode="&#x2199;" horiz-adv-x="1127" 
d="M814 430l2 -178h-645l-84 84v645l177 -1l-1 -408l644 643l144 -142l-643 -644z" />
    <glyph glyph-name="emptyset" unicode="&#x2205;" horiz-adv-x="1243" 
d="M625 -19q-186 0 -325 96l-84 -90l-135 130l87 94q-95 141 -95 330q0 166 72.5 294t197.5 196.5t282 68.5q183 0 318 -91l83 88l136 -132l-85 -89q100 -138 100 -335q0 -166 -72.5 -294.5t-198 -197t-281.5 -68.5zM328 541q0 -89 35 -154l399 443q-64 34 -137 34
q-77 0 -143 -35t-110 -110.5t-44 -177.5zM482 256q62 -39 143 -39q57 0 109.5 21t94.5 60.5t67.5 102.5t25.5 140q0 91 -38 160z" />
    <glyph glyph-name="uni2206" unicode="&#x2206;" horiz-adv-x="1514" 
d="M48 0l541 1484h338l539 -1484h-1418zM434 242h640l-322 927z" />
    <glyph glyph-name="minus" unicode="&#x2212;" horiz-adv-x="1065" 
d="M61 552v239h943v-239h-943z" />
    <glyph glyph-name="radical" unicode="&#x221a;" horiz-adv-x="1329" 
d="M505 -410l-204 706h-225v239h404l152 -572l439 1521h252l-555 -1894h-263z" />
    <glyph glyph-name="infinity" unicode="&#x221e;" horiz-adv-x="1644" 
d="M1195 248q-220 0 -364 184l-9 11l-2 -3q-77 -102 -166.5 -147t-205.5 -45q-91 0 -166.5 32.5t-123 86t-73 120t-25.5 138.5q0 99 43.5 182.5t134.5 137.5t214 54q230 0 370 -188l1 -1q144 189 371 189q92 0 167.5 -31.5t123.5 -84t73.5 -119t25.5 -139.5t-25.5 -140
t-73.5 -120t-123 -85t-167 -32zM289 625q0 -74 49.5 -121t120.5 -47q58 0 105 28.5t99 101.5l23 32l-37 48q-53 68 -100 94t-100 26q-66 0 -113 -45t-47 -117zM960 625l23 -32q57 -77 103.5 -106.5t102.5 -29.5q70 0 118 47t48 121q0 72 -48 117t-115 45q-57 0 -102.5 -25.5
t-95.5 -91.5z" />
    <glyph glyph-name="integral" unicode="&#x222b;" horiz-adv-x="1017" 
d="M83 -392v251h17q68 0 108 40.5t56 126.5l207 1165q32 181 143 286t285 105h34v-251h-16q-135 0 -162 -153l-208 -1165q-35 -190 -145.5 -297.5t-285.5 -107.5h-33z" />
    <glyph glyph-name="approxequal" unicode="&#x2248;" horiz-adv-x="1006" 
d="M695 761q-56 0 -112.5 23t-94 51t-78 51t-67.5 23q-48 0 -71.5 -22.5t-23.5 -72.5q0 -14 1 -22l-189 -22q-6 56 -6 78q0 129 66.5 195t194.5 66q57 0 113.5 -23.5t93.5 -51t77.5 -51t68.5 -23.5q97 0 97 97q0 19 -2 29l185 22q6 -42 6 -78q0 -132 -67.5 -200.5
t-191.5 -68.5zM54 447q0 129 66.5 195t194.5 66q57 0 113.5 -23.5t93.5 -51t77.5 -51t68.5 -23.5q97 0 97 97q0 19 -2 29l185 22q6 -42 6 -78q0 -132 -67.5 -200.5t-191.5 -68.5q-56 0 -112.5 23t-94 51t-78 51t-67.5 23q-48 0 -71.5 -22.5t-23.5 -72.5q0 -14 1 -22
l-189 -22q-6 56 -6 78z" />
    <glyph glyph-name="notequal" unicode="&#x2260;" horiz-adv-x="1065" 
d="M168 117l84 189h-191v240h298l113 252h-411v239h518l84 189h260l-84 -189h165v-239h-272l-113 -252h385v-240h-492l-84 -189h-260z" />
    <glyph glyph-name="lessequal" unicode="&#x2264;" horiz-adv-x="1125" 
d="M1018 440l-910 229v250l910 229v-234l-596 -119l596 -119v-236zM90 164v212h943v-212h-943z" />
    <glyph glyph-name="greaterequal" unicode="&#x2265;" horiz-adv-x="1125" 
d="M110 440v234l597 119l-597 119v236l909 -229v-250zM95 164v212h943v-212h-943z" />
    <glyph glyph-name="uni2460" unicode="&#x2460;" horiz-adv-x="1712" 
d="M856 -20q-212 0 -388.5 98t-280 273.5t-103.5 390.5q0 161 61 303.5t164.5 243t246 158.5t300.5 58t300.5 -58t246 -158.5t164.5 -243t61 -303.5q0 -215 -103.5 -390.5t-280 -273.5t-388.5 -98zM222 742q0 -141 49.5 -261t135 -201t201.5 -126.5t248 -45.5t248 45.5
t201.5 126.5t135 201t49.5 261t-49.5 261t-135 201t-201.5 126.5t-248 45.5t-248 -45.5t-201.5 -126.5t-135 -201t-49.5 -261zM626 1009l34 185h323v-908h-222v723h-135z" />
    <glyph glyph-name="uni2461" unicode="&#x2461;" horiz-adv-x="1712" 
d="M856 -20q-212 0 -388.5 98t-280 273.5t-103.5 390.5q0 161 61 303.5t164.5 243t246 158.5t300.5 58t300.5 -58t246 -158.5t164.5 -243t61 -303.5q0 -215 -103.5 -390.5t-280 -273.5t-388.5 -98zM222 742q0 -141 49.5 -261t135 -201t201.5 -126.5t248 -45.5t248 45.5
t201.5 126.5t135 201t49.5 261t-49.5 261t-135 201t-201.5 126.5t-248 45.5t-248 -45.5t-201.5 -126.5t-135 -201t-49.5 -261zM515 286v139l309 310q63 63 87.5 102t24.5 79q0 43 -27 68t-74 25q-94 0 -120 -103l-197 49q56 252 328 252q152 0 234.5 -75t82.5 -200
q0 -66 -23.5 -122.5t-60.5 -102t-109 -115.5l-121 -120h358v-186h-692z" />
    <glyph glyph-name="uni2462" unicode="&#x2462;" horiz-adv-x="1712" 
d="M863 274q-169 0 -267 76.5t-105 217.5l200 33q8 -63 47.5 -100t111.5 -37q65 0 99.5 28.5t34.5 75.5t-34.5 71.5t-98.5 24.5h-78v179h73q48 0 79.5 22t31.5 65q0 41 -32 62.5t-79 21.5q-44 0 -77.5 -24.5t-46.5 -70.5l-191 61q18 88 102 156.5t215 68.5
q146 0 235.5 -69.5t89.5 -173.5q0 -143 -125 -202q163 -47 163 -212q0 -125 -98 -199.5t-250 -74.5zM84 742q0 161 61 303.5t164.5 243t246 158.5t300.5 58t300.5 -58t246 -158.5t164.5 -243t61 -303.5q0 -215 -103.5 -390.5t-280 -273.5t-388.5 -98t-388.5 98t-280 273.5
t-103.5 390.5zM222 742q0 -141 49.5 -261t135 -201t201.5 -126.5t248 -45.5t248 45.5t201.5 126.5t135 201t49.5 261t-49.5 261t-135 201t-201.5 126.5t-248 45.5t-248 -45.5t-201.5 -126.5t-135 -201t-49.5 -261z" />
    <glyph glyph-name="uni2463" unicode="&#x2463;" horiz-adv-x="1712" 
d="M856 -20q-212 0 -388.5 98t-280 273.5t-103.5 390.5q0 161 61 303.5t164.5 243t246 158.5t300.5 58t300.5 -58t246 -158.5t164.5 -243t61 -303.5q0 -215 -103.5 -390.5t-280 -273.5t-388.5 -98zM222 742q0 -141 49.5 -261t135 -201t201.5 -126.5t248 -45.5t248 45.5
t201.5 126.5t135 201t49.5 261t-49.5 261t-135 201t-201.5 126.5t-248 45.5t-248 -45.5t-201.5 -126.5t-135 -201t-49.5 -261zM430 467v168l419 557h225v-549h127v-176h-127v-184h-205v184h-439zM655 643h214v285z" />
    <glyph glyph-name="uni2464" unicode="&#x2464;" horiz-adv-x="1712" 
d="M856 -20q-212 0 -388.5 98t-280 273.5t-103.5 390.5q0 161 61 303.5t164.5 243t246 158.5t300.5 58t300.5 -58t246 -158.5t164.5 -243t61 -303.5q0 -215 -103.5 -390.5t-280 -273.5t-388.5 -98zM222 742q0 -141 49.5 -261t135 -201t201.5 -126.5t248 -45.5t248 45.5
t201.5 126.5t135 201t49.5 261t-49.5 261t-135 201t-201.5 126.5t-248 45.5t-248 -45.5t-201.5 -126.5t-135 -201t-49.5 -261zM500 508l195 66q30 -114 161 -114q63 0 104.5 33.5t41.5 95.5q0 63 -45 95.5t-111 32.5q-76 0 -127 -49l-172 38l57 490h539v-186h-375l-18 -150
q59 33 128 33q142 0 231.5 -84.5t89.5 -216.5q0 -141 -90.5 -229t-251.5 -88q-136 0 -229 58t-128 175z" />
    <glyph glyph-name="uni2465" unicode="&#x2465;" horiz-adv-x="1712" 
d="M856 -20q-212 0 -388.5 98t-280 273.5t-103.5 390.5q0 161 61 303.5t164.5 243t246 158.5t300.5 58t300.5 -58t246 -158.5t164.5 -243t61 -303.5q0 -215 -103.5 -390.5t-280 -273.5t-388.5 -98zM222 742q0 -141 49.5 -261t135 -201t201.5 -126.5t248 -45.5t248 45.5
t201.5 126.5t135 201t49.5 261t-49.5 261t-135 201t-201.5 126.5t-248 45.5t-248 -45.5t-201.5 -126.5t-135 -201t-49.5 -261zM481 704q0 253 106 377t291 124q218 0 319 -170l-149 -102q-64 87 -167 87q-168 0 -191 -204q70 68 194 68q136 0 228 -81t92 -211
q0 -146 -93.5 -232t-245.5 -86q-177 0 -280.5 108t-103.5 322zM701 585q0 -59 44 -95t108 -36t107.5 34.5t43.5 96.5q0 63 -43 97t-108 34t-108.5 -33.5t-43.5 -97.5z" />
    <glyph glyph-name="uni2466" unicode="&#x2466;" horiz-adv-x="1712" 
d="M856 -20q-212 0 -388.5 98t-280 273.5t-103.5 390.5q0 161 61 303.5t164.5 243t246 158.5t300.5 58t300.5 -58t246 -158.5t164.5 -243t61 -303.5q0 -215 -103.5 -390.5t-280 -273.5t-388.5 -98zM222 742q0 -141 49.5 -261t135 -201t201.5 -126.5t248 -45.5t248 45.5
t201.5 126.5t135 201t49.5 261t-49.5 261t-135 201t-201.5 126.5t-248 45.5t-248 -45.5t-201.5 -126.5t-135 -201t-49.5 -261zM541 1009v185h668v-121l-346 -787h-217l323 723h-428z" />
    <glyph glyph-name="uni2467" unicode="&#x2467;" horiz-adv-x="1712" 
d="M856 -20q-212 0 -388.5 98t-280 273.5t-103.5 390.5q0 161 61 303.5t164.5 243t246 158.5t300.5 58t300.5 -58t246 -158.5t164.5 -243t61 -303.5q0 -215 -103.5 -390.5t-280 -273.5t-388.5 -98zM222 742q0 -141 49.5 -261t135 -201t201.5 -126.5t248 -45.5t248 45.5
t201.5 126.5t135 201t49.5 261t-49.5 261t-135 201t-201.5 126.5t-248 45.5t-248 -45.5t-201.5 -126.5t-135 -201t-49.5 -261zM484 550q0 151 148 214q-110 61 -110 184q0 113 89.5 184.5t244.5 71.5t244.5 -71.5t89.5 -185.5q0 -122 -109 -184q147 -61 147 -213
q0 -127 -101.5 -202t-270.5 -75t-270.5 75t-101.5 202zM682 562q0 -54 45 -84t129 -30t129 30t45 84t-48 83.5t-126 29.5t-126 -29.5t-48 -83.5zM721 942q0 -47 37 -72.5t98 -25.5q62 0 98.5 25t36.5 73q0 45 -37 71t-98 26q-60 0 -97.5 -26t-37.5 -71z" />
    <glyph glyph-name="uni2468" unicode="&#x2468;" horiz-adv-x="1712" 
d="M856 -20q-212 0 -388.5 98t-280 273.5t-103.5 390.5q0 161 61 303.5t164.5 243t246 158.5t300.5 58t300.5 -58t246 -158.5t164.5 -243t61 -303.5q0 -215 -103.5 -390.5t-280 -273.5t-388.5 -98zM222 742q0 -141 49.5 -261t135 -201t201.5 -126.5t248 -45.5t248 45.5
t201.5 126.5t135 201t49.5 261t-49.5 261t-135 201t-201.5 126.5t-248 45.5t-248 -45.5t-201.5 -126.5t-135 -201t-49.5 -261zM476 474l152 112q61 -127 214 -127q85 0 138 53.5t62 164.5q-78 -73 -202 -73q-146 0 -236.5 82t-90.5 213q0 132 98 219.5t247 87.5
q175 0 278.5 -106.5t103.5 -319.5q0 -259 -103 -382t-288 -123q-261 0 -373 199zM715 898q0 -62 42.5 -95.5t112.5 -33.5q69 0 110.5 33.5t41.5 95.5t-41.5 95.5t-110.5 33.5q-70 0 -112.5 -33.5t-42.5 -95.5z" />
    <glyph glyph-name="uni24EA" unicode="&#x24ea;" horiz-adv-x="1712" 
d="M856 -20q-212 0 -388.5 98t-280 273.5t-103.5 390.5q0 161 61 303.5t164.5 243t246 158.5t300.5 58t300.5 -58t246 -158.5t164.5 -243t61 -303.5q0 -215 -103.5 -390.5t-280 -273.5t-388.5 -98zM222 742q0 -141 49.5 -261t135 -201t201.5 -126.5t248 -45.5t248 45.5
t201.5 126.5t135 201t49.5 261t-49.5 261t-135 201t-201.5 126.5t-248 45.5t-248 -45.5t-201.5 -126.5t-135 -201t-49.5 -261zM448 740q0 218 109.5 341.5t298.5 123.5q188 0 297.5 -123.5t109.5 -341.5t-109.5 -341.5t-297.5 -123.5q-189 0 -298.5 123.5t-109.5 341.5z
M678 740q0 -137 47 -208t131 -71q82 0 129 71t47 208q0 129 -47.5 197.5t-128.5 68.5q-82 0 -130 -68.5t-48 -197.5z" />
    <glyph glyph-name="uni24FF" unicode="&#x24ff;" horiz-adv-x="1712" 
d="M856 -20q212 0 388.5 98t280 273.5t103.5 390.5q0 161 -61 303.5t-164.5 243t-246 158.5t-300.5 58t-300.5 -58t-246 -158.5t-164.5 -243t-61 -303.5q0 -215 103.5 -390.5t280 -273.5t388.5 -98zM448 740q0 218 109.5 341.5t298.5 123.5q188 0 297.5 -123.5t109.5 -341.5
t-109.5 -341.5t-297.5 -123.5q-189 0 -298.5 123.5t-109.5 341.5zM678 740q0 -137 47 -208t131 -71q82 0 129 71t47 208q0 129 -47.5 197.5t-128.5 68.5q-82 0 -130 -68.5t-48 -197.5z" />
    <glyph glyph-name="lozenge" unicode="&#x25ca;" horiz-adv-x="1402" 
d="M533 0l-464 742l464 742h338l463 -742l-463 -742h-338zM406 742l291 -488l291 488l-291 488z" />
    <glyph glyph-name="uni2776" unicode="&#x2776;" horiz-adv-x="1712" 
d="M761 286v723h-135l34 185h323v-908h-222zM84 742q0 -215 103.5 -390.5t280 -273.5t388.5 -98t388.5 98t280 273.5t103.5 390.5q0 161 -61 303.5t-164.5 243t-246 158.5t-300.5 58t-300.5 -58t-246 -158.5t-164.5 -243t-61 -303.5z" />
    <glyph glyph-name="uni2777" unicode="&#x2777;" horiz-adv-x="1712" 
d="M856 -20q212 0 388.5 98t280 273.5t103.5 390.5q0 161 -61 303.5t-164.5 243t-246 158.5t-300.5 58t-300.5 -58t-246 -158.5t-164.5 -243t-61 -303.5q0 -215 103.5 -390.5t280 -273.5t388.5 -98zM515 286v139l309 310q63 63 87.5 102t24.5 79q0 43 -27 68t-74 25
q-94 0 -120 -103l-197 49q56 252 328 252q152 0 234.5 -75t82.5 -200q0 -66 -23.5 -122.5t-60.5 -102t-109 -115.5l-121 -120h358v-186h-692z" />
    <glyph glyph-name="uni2778" unicode="&#x2778;" horiz-adv-x="1712" 
d="M863 274q-169 0 -267 76.5t-105 217.5l200 33q8 -63 47.5 -100t111.5 -37q65 0 99.5 28.5t34.5 75.5t-34.5 71.5t-98.5 24.5h-78v179h73q48 0 79.5 22t31.5 65q0 41 -32 62.5t-79 21.5q-44 0 -77.5 -24.5t-46.5 -70.5l-191 61q18 88 102 156.5t215 68.5
q146 0 235.5 -69.5t89.5 -173.5q0 -143 -125 -202q163 -47 163 -212q0 -125 -98 -199.5t-250 -74.5zM84 742q0 -215 103.5 -390.5t280 -273.5t388.5 -98t388.5 98t280 273.5t103.5 390.5q0 161 -61 303.5t-164.5 243t-246 158.5t-300.5 58t-300.5 -58t-246 -158.5
t-164.5 -243t-61 -303.5z" />
    <glyph glyph-name="uni2779" unicode="&#x2779;" horiz-adv-x="1712" 
d="M856 -20q212 0 388.5 98t280 273.5t103.5 390.5q0 161 -61 303.5t-164.5 243t-246 158.5t-300.5 58t-300.5 -58t-246 -158.5t-164.5 -243t-61 -303.5q0 -215 103.5 -390.5t280 -273.5t388.5 -98zM430 467v168l419 557h225v-549h127v-176h-127v-184h-205v184h-439z
M655 643h214v285z" />
    <glyph glyph-name="uni277A" unicode="&#x277a;" horiz-adv-x="1712" 
d="M857 275q-136 0 -229 58t-128 175l195 66q30 -114 161 -114q63 0 104.5 33.5t41.5 95.5q0 63 -45 95.5t-111 32.5q-76 0 -127 -49l-172 38l57 490h539v-186h-375l-18 -150q59 33 128 33q142 0 231.5 -84.5t89.5 -216.5q0 -141 -90.5 -229t-251.5 -88zM84 742
q0 -215 103.5 -390.5t280 -273.5t388.5 -98t388.5 98t280 273.5t103.5 390.5q0 161 -61 303.5t-164.5 243t-246 158.5t-300.5 58t-300.5 -58t-246 -158.5t-164.5 -243t-61 -303.5z" />
    <glyph glyph-name="uni277B" unicode="&#x277b;" horiz-adv-x="1712" 
d="M856 -20q212 0 388.5 98t280 273.5t103.5 390.5q0 161 -61 303.5t-164.5 243t-246 158.5t-300.5 58t-300.5 -58t-246 -158.5t-164.5 -243t-61 -303.5q0 -215 103.5 -390.5t280 -273.5t388.5 -98zM481 704q0 253 106 377t291 124q218 0 319 -170l-149 -102q-64 87 -167 87
q-168 0 -191 -204q70 68 194 68q136 0 228 -81t92 -211q0 -146 -93.5 -232t-245.5 -86q-177 0 -280.5 108t-103.5 322zM701 585q0 -59 44 -95t108 -36t107.5 34.5t43.5 96.5q0 63 -43 97t-108 34t-108.5 -33.5t-43.5 -97.5z" />
    <glyph glyph-name="uni277C" unicode="&#x277c;" horiz-adv-x="1712" 
d="M856 -20q212 0 388.5 98t280 273.5t103.5 390.5q0 161 -61 303.5t-164.5 243t-246 158.5t-300.5 58t-300.5 -58t-246 -158.5t-164.5 -243t-61 -303.5q0 -215 103.5 -390.5t280 -273.5t388.5 -98zM541 1009v185h668v-121l-346 -787h-217l323 723h-428z" />
    <glyph glyph-name="uni277D" unicode="&#x277d;" horiz-adv-x="1712" 
d="M856 273q-169 0 -270.5 75t-101.5 202q0 151 148 214q-110 61 -110 184q0 113 89.5 184.5t244.5 71.5t244.5 -71.5t89.5 -185.5q0 -122 -109 -184q147 -61 147 -213q0 -127 -101.5 -202t-270.5 -75zM84 742q0 -215 103.5 -390.5t280 -273.5t388.5 -98t388.5 98t280 273.5
t103.5 390.5q0 161 -61 303.5t-164.5 243t-246 158.5t-300.5 58t-300.5 -58t-246 -158.5t-164.5 -243t-61 -303.5zM682 562q0 -54 45 -84t129 -30t129 30t45 84t-48 83.5t-126 29.5t-126 -29.5t-48 -83.5zM721 942q0 -47 37 -72.5t98 -25.5q62 0 98.5 25t36.5 73
q0 45 -37 71t-98 26q-60 0 -97.5 -26t-37.5 -71z" />
    <glyph glyph-name="uni277E" unicode="&#x277e;" horiz-adv-x="1712" 
d="M856 -20q212 0 388.5 98t280 273.5t103.5 390.5q0 161 -61 303.5t-164.5 243t-246 158.5t-300.5 58t-300.5 -58t-246 -158.5t-164.5 -243t-61 -303.5q0 -215 103.5 -390.5t280 -273.5t388.5 -98zM476 474l152 112q61 -127 214 -127q85 0 138 53.5t62 164.5
q-78 -73 -202 -73q-146 0 -236.5 82t-90.5 213q0 132 98 219.5t247 87.5q175 0 278.5 -106.5t103.5 -319.5q0 -259 -103 -382t-288 -123q-261 0 -373 199zM715 898q0 -62 42.5 -95.5t112.5 -33.5q69 0 110.5 33.5t41.5 95.5t-41.5 95.5t-110.5 33.5q-70 0 -112.5 -33.5
t-42.5 -95.5z" />
    <glyph glyph-name="uniA78B" unicode="&#xa78b;" horiz-adv-x="499" 
d="M162 723l-32 269v466h238v-466l-32 -269h-174z" />
    <glyph glyph-name="uniA78C" unicode="&#xa78c;" horiz-adv-x="464" 
d="M145 827l-32 269v466h238v-466l-32 -269h-174z" />
    <glyph glyph-name="uniF8FF" unicode="&#xf8ff;" horiz-adv-x="1831" 
d="M489 791q-49 20 -106 20q-69 0 -114.5 -30t-45.5 -87q0 -40 21 -72t55 -44q-54 3 -84.5 37.5t-30.5 91.5q0 82 68.5 133t189.5 51q29 0 47 -4v581h762v-245h-503v-387q70 -25 156.5 -70t161 -86.5t154.5 -81.5t165 -64t165 -24q24 0 48 2t36 4l13 2q-2 -3 -5.5 -7
t-19.5 -15.5t-36.5 -20t-57 -15.5t-80.5 -7q-154 0 -328.5 64.5t-371.5 166.5v-684h-259v791z" />
    <glyph glyph-name="uni004A0301" horiz-adv-x="1131" 
d="M536 -19q-203 0 -322.5 95.5t-138.5 286.5l286 52q15 -179 175 -179q177 0 177 195v1053h288v-1057q0 -223 -122 -334.5t-343 -111.5zM758 1604l67 407h304l-182 -407h-189z" />
    <glyph glyph-name="Cacute.loclPLK" horiz-adv-x="1568" 
d="M796 -20q-152 0 -282.5 54.5t-225 152.5t-148.5 241.5t-54 313.5t54 313.5t148.5 241.5t225 153t282.5 55q250 0 427.5 -134t236.5 -365l-279 -56q-41 141 -140 220t-245 79q-191 0 -306.5 -138t-115.5 -369t115.5 -369t306.5 -138q146 0 245.5 79.5t140.5 220.5l278 -56
q-58 -232 -236 -365.5t-428 -133.5zM697 1604l67 407h304l-182 -407h-189z" />
    <glyph glyph-name="Nacute.loclPLK" horiz-adv-x="1515" 
d="M130 0v1484h263l718 -992v992h275v-1484h-270l-712 985v-985h-274zM653 1604l67 407h304l-182 -407h-189z" />
    <glyph glyph-name="Oacute.loclPLK" horiz-adv-x="1598" 
d="M799 -20q-206 0 -367.5 93.5t-253.5 267.5t-92 401q0 170 53.5 313.5t147.5 242t226 153t286 54.5t285.5 -54.5t226 -153t148 -241.5t53.5 -314t-53.5 -314t-148 -241t-226 -152.5t-285.5 -54.5zM374 742q0 -232 115 -369.5t310 -137.5q196 0 310.5 138t114.5 369
t-114.5 369t-310.5 138q-195 0 -310 -137.5t-115 -369.5zM700 1604l67 407h304l-182 -407h-189z" />
    <glyph glyph-name="Sacute.loclPLK" horiz-adv-x="1267" 
d="M679 -20q-526 0 -618 468l288 49q29 -143 109 -209t212 -66q117 0 185 52.5t68 145.5q0 74 -45.5 115t-144.5 67l-213 57q-196 53 -286.5 148t-90.5 268q0 90 33.5 168t96 136.5t157.5 92t211 33.5q154 0 280 -55t206 -163l-197 -156q-105 132 -285 132
q-100 0 -161 -48.5t-61 -131.5q0 -76 42 -112t138 -61l238 -63q89 -23 154 -56t113.5 -81.5t72.5 -117.5t24 -160q0 -219 -144.5 -335.5t-381.5 -116.5zM537 1604l67 407h304l-182 -407h-189z" />
    <glyph glyph-name="Zacute.loclPLK" horiz-adv-x="1362" 
d="M104 0v234l782 992h-761v258h1112v-233l-781 -993h802v-258h-1154zM582 1604l67 407h304l-182 -407h-189z" />
    <glyph glyph-name="R.ss01" horiz-adv-x="1438" 
d="M130 0v1484h705q201 0 334.5 -127t133.5 -335q0 -172 -95 -286.5t-250 -149.5l153 -269q25 -45 50.5 -63.5t61.5 -18.5q51 0 108 33l81 -223q-109 -65 -237 -65q-105 0 -179.5 46t-136.5 165l-202 369h-239v-560h-288zM418 814h388q92 0 150.5 58t58.5 150
q0 93 -58 150.5t-151 57.5h-388v-416z" />
    <glyph glyph-name="Racute.ss01" horiz-adv-x="1438" 
d="M130 0v1484h705q201 0 334.5 -127t133.5 -335q0 -172 -95 -286.5t-250 -149.5l153 -269q25 -45 50.5 -63.5t61.5 -18.5q51 0 108 33l81 -223q-109 -65 -237 -65q-105 0 -179.5 46t-136.5 165l-202 369h-239v-560h-288zM418 814h388q92 0 150.5 58t58.5 150
q0 93 -58 150.5t-151 57.5h-388v-416zM571 1604l67 407h304l-182 -407h-189z" />
    <glyph glyph-name="Rcaron.ss01" horiz-adv-x="1438" 
d="M130 0v1484h705q201 0 334.5 -127t133.5 -335q0 -172 -95 -286.5t-250 -149.5l153 -269q25 -45 50.5 -63.5t61.5 -18.5q51 0 108 33l81 -223q-109 -65 -237 -65q-105 0 -179.5 46t-136.5 165l-202 369h-239v-560h-288zM281 2012h249l133 -249l133 249h254l-226 -407h-316
zM418 814h388q92 0 150.5 58t58.5 150q0 93 -58 150.5t-151 57.5h-388v-416z" />
    <glyph glyph-name="uni0156.ss01" horiz-adv-x="1438" 
d="M130 0v1484h705q201 0 334.5 -127t133.5 -335q0 -172 -95 -286.5t-250 -149.5l153 -269q25 -45 50.5 -63.5t61.5 -18.5q51 0 108 33l81 -223q-109 -65 -237 -65q-105 0 -179.5 46t-136.5 165l-202 369h-239v-560h-288zM418 814h388q92 0 150.5 58t58.5 150
q0 93 -58 150.5t-151 57.5h-388v-416zM501 -663l139 210q-47 16 -76 54t-29 92q0 74 48 120t119 46q70 0 118 -47t48 -124q0 -64 -23 -109t-76 -110l-160 -204z" />
    <glyph glyph-name="i.loclTRK" horiz-adv-x="516" 
d="M116 0v1079h284v-1079h-284zM83 1392q0 77 50.5 126t124.5 49t125 -49t51 -126q0 -78 -51 -127t-125 -49t-124.5 49t-50.5 127z" />
    <glyph glyph-name="uni006A0301" horiz-adv-x="516" 
d="M-10 -485q-171 0 -287 90t-142 258l259 51q18 -77 54.5 -112.5t102.5 -35.5t102.5 38.5t36.5 115.5v1159h284v-1172q0 -177 -114 -284.5t-296 -107.5zM159 1199l67 407h304l-182 -407h-189z" />
    <glyph glyph-name="cacute.loclPLK" horiz-adv-x="1242" 
d="M638 -20q-118 0 -221 38.5t-179.5 108.5t-120.5 176.5t-44 235.5q0 172 76 300.5t203.5 194t285.5 65.5q213 0 356.5 -103t182.5 -294l-284 -49q-22 94 -90.5 144.5t-164.5 50.5q-124 0 -202 -78.5t-78 -230.5q0 -151 78 -229.5t202 -78.5q96 0 164.5 50t90.5 144
l284 -48q-39 -192 -182 -294.5t-357 -102.5zM526 1199l67 407h304l-182 -407h-189z" />
    <glyph glyph-name="nacute.loclPLK" horiz-adv-x="1246" 
d="M854 0v622q0 103 -64 168t-168 65q-100 0 -164 -65t-64 -167v-623h-284v1079h271v-147q111 167 328 167q192 0 310.5 -122.5t118.5 -319.5v-657h-284zM519 1199l67 407h304l-182 -407h-189z" />
    <glyph glyph-name="oacute.loclPLK" horiz-adv-x="1250" 
d="M625 -20q-157 0 -282 68.5t-197.5 196.5t-72.5 294q0 251 156.5 405.5t395.5 154.5q156 0 281.5 -68.5t198 -197t72.5 -294.5q0 -250 -156.5 -404.5t-395.5 -154.5zM358 539q0 -149 75 -228.5t192 -79.5q118 0 193 79.5t75 228.5t-75.5 229t-192.5 80t-192 -80t-75 -229z
M527 1199l67 407h304l-182 -407h-189z" />
    <glyph glyph-name="sacute.loclPLK" horiz-adv-x="1068" 
d="M567 -20q-207 0 -341.5 81.5t-171.5 254.5l251 49q28 -81 96.5 -124.5t167.5 -43.5q84 0 135.5 29t51.5 85q0 45 -30.5 68t-102.5 37l-196 39q-162 32 -239.5 105t-77.5 203q0 151 117 243.5t311 92.5q131 0 245 -55t170 -156l-207 -113q-32 50 -90.5 77.5t-125.5 27.5
q-79 0 -122.5 -31t-43.5 -80q0 -41 29.5 -62.5t95.5 -34.5l199 -39q166 -33 242.5 -103t76.5 -213q0 -163 -120 -250t-320 -87zM447 1199l67 407h304l-182 -407h-189z" />
    <glyph glyph-name="zacute.loclPLK" horiz-adv-x="1070" 
d="M78 0v202l528 637h-518v240h894v-202l-528 -637h538v-240h-914zM436 1199l67 407h304l-182 -407h-189z" />
    <glyph glyph-name="a.ss01" horiz-adv-x="1178" 
d="M509 -20q-172 0 -286 90t-114 233q0 145 116 228t284 83q166 0 276 -75v88q0 113 -58 171t-170 58q-173 0 -277 -168l-198 122q80 138 207.5 213.5t291.5 75.5q234 0 361.5 -119t127.5 -331v-649h-258v73q-120 -93 -303 -93zM393 303q0 -59 50 -95t137 -36
q86 0 145.5 34.5t59.5 96.5t-59.5 97t-145.5 35q-87 0 -137 -36t-50 -96z" />
    <glyph glyph-name="aacute.ss01" horiz-adv-x="1178" 
d="M509 -20q-172 0 -286 90t-114 233q0 145 116 228t284 83q166 0 276 -75v88q0 113 -58 171t-170 58q-173 0 -277 -168l-198 122q80 138 207.5 213.5t291.5 75.5q234 0 361.5 -119t127.5 -331v-649h-258v73q-120 -93 -303 -93zM393 303q0 -59 50 -95t137 -36
q86 0 145.5 34.5t59.5 96.5t-59.5 97t-145.5 35q-87 0 -137 -36t-50 -96zM489 1199l67 407h304l-182 -407h-189z" />
    <glyph glyph-name="abreve.ss01" horiz-adv-x="1178" 
d="M509 -20q-172 0 -286 90t-114 233q0 145 116 228t284 83q166 0 276 -75v88q0 113 -58 171t-170 58q-173 0 -277 -168l-198 122q80 138 207.5 213.5t291.5 75.5q234 0 361.5 -119t127.5 -331v-649h-258v73q-120 -93 -303 -93zM271 1460q0 33 16 87l212 -64q-6 -24 -6 -46
q0 -41 24.5 -64.5t70.5 -23.5t71 24t25 66q0 21 -6 44l211 65q16 -54 16 -88q0 -112 -86.5 -187.5t-230.5 -75.5t-230.5 75.5t-86.5 187.5zM393 303q0 -59 50 -95t137 -36q86 0 145.5 34.5t59.5 96.5t-59.5 97t-145.5 35q-87 0 -137 -36t-50 -96z" />
    <glyph glyph-name="uni1EAF.ss01" horiz-adv-x="1178" 
d="M509 -20q-172 0 -286 90t-114 233q0 145 116 228t284 83q166 0 276 -75v88q0 113 -58 171t-170 58q-173 0 -277 -168l-198 122q80 138 207.5 213.5t291.5 75.5q234 0 361.5 -119t127.5 -331v-649h-258v73q-120 -93 -303 -93zM227 1460q0 34 17 87l185 -59q-5 -22 -5 -36
q0 -48 43 -75t120 -27q79 0 122 27.5t43 77.5q0 17 -4 33l185 60q16 -54 16 -88q0 -114 -93.5 -188.5t-267.5 -74.5t-267.5 74.5t-93.5 188.5zM393 303q0 -59 50 -95t137 -36q86 0 145.5 34.5t59.5 96.5t-59.5 97t-145.5 35q-87 0 -137 -36t-50 -96zM489 1532l67 407h304
l-182 -407h-189z" />
    <glyph glyph-name="uni1EB7.ss01" horiz-adv-x="1178" 
d="M509 -20q-172 0 -286 90t-114 233q0 145 116 228t284 83q166 0 276 -75v88q0 113 -58 171t-170 58q-173 0 -277 -168l-198 122q80 138 207.5 213.5t291.5 75.5q234 0 361.5 -119t127.5 -331v-649h-258v73q-120 -93 -303 -93zM271 1460q0 33 16 87l212 -64q-6 -24 -6 -46
q0 -41 24.5 -64.5t70.5 -23.5t71 24t25 66q0 21 -6 44l211 65q16 -54 16 -88q0 -112 -86.5 -187.5t-230.5 -75.5t-230.5 75.5t-86.5 187.5zM393 303q0 -59 50 -95t137 -36q86 0 145.5 34.5t59.5 96.5t-59.5 97t-145.5 35q-87 0 -137 -36t-50 -96zM413 -299q0 77 50.5 126
t124.5 49t125 -49t51 -126q0 -78 -51 -127t-125 -49t-124.5 49t-50.5 127z" />
    <glyph glyph-name="uni1EB1.ss01" horiz-adv-x="1178" 
d="M509 -20q-172 0 -286 90t-114 233q0 145 116 228t284 83q166 0 276 -75v88q0 113 -58 171t-170 58q-173 0 -277 -168l-198 122q80 138 207.5 213.5t291.5 75.5q234 0 361.5 -119t127.5 -331v-649h-258v73q-120 -93 -303 -93zM227 1460q0 34 17 87l185 -59q-5 -22 -5 -36
q0 -48 43 -75t120 -27q79 0 122 27.5t43 77.5q0 17 -4 33l185 60q16 -54 16 -88q0 -114 -93.5 -188.5t-267.5 -74.5t-267.5 74.5t-93.5 188.5zM316 1939h304l67 -407h-189zM393 303q0 -59 50 -95t137 -36q86 0 145.5 34.5t59.5 96.5t-59.5 97t-145.5 35q-87 0 -137 -36
t-50 -96z" />
    <glyph glyph-name="uni1EB3.ss01" horiz-adv-x="1178" 
d="M509 -20q-172 0 -286 90t-114 233q0 145 116 228t284 83q166 0 276 -75v88q0 113 -58 171t-170 58q-173 0 -277 -168l-198 122q80 138 207.5 213.5t291.5 75.5q234 0 361.5 -119t127.5 -331v-649h-258v73q-120 -93 -303 -93zM227 1460q0 34 17 87l185 -59q-5 -22 -5 -36
q0 -48 43 -75t120 -27q79 0 122 27.5t43 77.5q0 17 -4 33l185 60q16 -54 16 -88q0 -114 -93.5 -188.5t-267.5 -74.5t-267.5 74.5t-93.5 188.5zM359 1922q70 39 167 39q114 0 185.5 -64t71.5 -164q0 -82 -49.5 -148t-132.5 -111l-95 117q88 54 88 119q0 39 -28 63t-69 24
q-45 0 -88 -19zM393 303q0 -59 50 -95t137 -36q86 0 145.5 34.5t59.5 96.5t-59.5 97t-145.5 35q-87 0 -137 -36t-50 -96z" />
    <glyph glyph-name="uni1EB5.ss01" horiz-adv-x="1178" 
d="M509 -20q-172 0 -286 90t-114 233q0 145 116 228t284 83q166 0 276 -75v88q0 113 -58 171t-170 58q-173 0 -277 -168l-198 122q80 138 207.5 213.5t291.5 75.5q234 0 361.5 -119t127.5 -331v-649h-258v73q-120 -93 -303 -93zM220 1699q0 86 55 139.5t143 53.5
q57 0 119.5 -26.5t113.5 -53t81 -26.5q26 0 42 15.5t16 45.5q0 20 -8 49l147 32q27 -70 27 -131q0 -83 -55 -134.5t-140 -51.5q-58 0 -120.5 27.5t-114 54.5t-81.5 27q-26 0 -41.5 -16.5t-15.5 -47.5q0 -18 8 -48l-155 -33q-21 66 -21 124zM227 1460q0 34 17 87l185 -59
q-5 -22 -5 -36q0 -48 43 -75t120 -27q79 0 122 27.5t43 77.5q0 17 -4 33l185 60q16 -54 16 -88q0 -114 -93.5 -188.5t-267.5 -74.5t-267.5 74.5t-93.5 188.5zM393 303q0 -59 50 -95t137 -36q86 0 145.5 34.5t59.5 96.5t-59.5 97t-145.5 35q-87 0 -137 -36t-50 -96z" />
    <glyph glyph-name="acircumflex.ss01" horiz-adv-x="1178" 
d="M509 -20q-172 0 -286 90t-114 233q0 145 116 228t284 83q166 0 276 -75v88q0 113 -58 171t-170 58q-173 0 -277 -168l-198 122q80 138 207.5 213.5t291.5 75.5q234 0 361.5 -119t127.5 -331v-649h-258v73q-120 -93 -303 -93zM201 1199l226 407h316l227 -407h-249
l-133 249l-133 -249h-254zM393 303q0 -59 50 -95t137 -36q86 0 145.5 34.5t59.5 96.5t-59.5 97t-145.5 35q-87 0 -137 -36t-50 -96z" />
    <glyph glyph-name="uni1EA5.ss01" horiz-adv-x="1178" 
d="M509 -20q-172 0 -286 90t-114 233q0 145 116 228t284 83q166 0 276 -75v88q0 113 -58 171t-170 58q-173 0 -277 -168l-198 122q80 138 207.5 213.5t291.5 75.5q234 0 361.5 -119t127.5 -331v-649h-258v73q-120 -93 -303 -93zM201 1199l226 407h316l227 -407h-249
l-133 249l-133 -249h-254zM393 303q0 -59 50 -95t137 -36q86 0 145.5 34.5t59.5 96.5t-59.5 97t-145.5 35q-87 0 -137 -36t-50 -96zM882 1441l66 392h260l-150 -392h-176z" />
    </font>
</defs>
</svg>
