<?xml version="1.0" standalone="no"?>
<!DOCTYPE svg PUBLIC "-//W3C//DTD SVG 1.1//EN" "http://www.w3.org/Graphics/SVG/1.1/DTD/svg11.dtd" >
<svg xmlns="http://www.w3.org/2000/svg" xmlns:xlink="http://www.w3.org/1999/xlink" version="1.1">
<metadata>
Created by FontForge 20170731 at Wed Dec 15 17:19:27 2021
 By Aleksey,,,
(c) 2020 by Face37 Ltd. All rights reserved.
</metadata>
<defs>
<font id="F37Gruffy-Regular" horiz-adv-x="1401" >
  <font-face 
    font-family="F37 Gruffy"
    font-weight="400"
    font-stretch="normal"
    units-per-em="2048"
    panose-1="0 0 0 0 0 0 0 0 0 0"
    ascent="1638"
    descent="-410"
    x-height="1060"
    cap-height="1465"
    bbox="-489 -659 2701 2311"
    underline-thickness="100"
    underline-position="-355"
    unicode-range="U+0020-F8FF"
  />
<missing-glyph horiz-adv-x="1638" 
d="M313 0v924q-55 -4 -90 -41.5t-35 -89.5q0 -36 19 -73.5t47 -47.5q-50 3 -90.5 56.5t-40.5 123.5q0 44 18.5 86t63.5 76t108 41v317h973v-915q82 -41 154 -41q44 0 76 10q-78 -86 -175 -86q-23 0 -55 5v-345h-973zM436 123h725v266q-132 64 -325 223l-195 158
q-112 91 -205 128v-775zM436 1048q72 -15 140.5 -54t150.5 -107l207 -170q160 -134 227 -182v714h-725v-201z" />
    <glyph glyph-name="f_f.liga" unicode="ff" horiz-adv-x="1307" 
d="M174 0v901h-145v159h145v152q0 158 95.5 254.5t259.5 96.5q220 0 301 -153q78 153 275 153q141 0 237 -77t133 -223l-170 -41q-51 175 -200 175q-85 0 -133.5 -45.5t-48.5 -142.5v-149h393v-159h-393v-901h-185v901h-379v-901h-185zM359 1060h379v149q0 99 -51.5 143.5
t-149.5 44.5q-83 0 -130.5 -45.5t-47.5 -142.5v-149z" />
    <glyph glyph-name="f_f_i.liga" unicode="ffi" horiz-adv-x="1582" 
d="M174 0v901h-145v159h145v152q0 158 95.5 254.5t259.5 96.5q220 0 301 -153q78 153 275 153q141 0 237 -77t133 -223l-170 -41q-51 175 -200 175q-85 0 -133.5 -45.5t-48.5 -142.5v-149h539v-1060h-183v901h-356v-901h-185v901h-379v-901h-185zM359 1060h379v149
q0 99 -51.5 143.5t-149.5 44.5q-83 0 -130.5 -45.5t-47.5 -142.5v-149z" />
    <glyph glyph-name="f_f_j.liga" unicode="ffj" horiz-adv-x="1584" 
d="M174 0v901h-145v159h145v152q0 158 95.5 254.5t259.5 96.5q220 0 301 -153q78 153 275 153q141 0 237 -77t133 -223l-170 -41q-51 175 -200 175q-85 0 -133.5 -45.5t-48.5 -142.5v-149h543v-1184q0 -159 -95.5 -255.5t-262.5 -96.5q-148 0 -245.5 77.5t-132.5 223.5
l167 40q28 -90 77.5 -132t129.5 -42q83 0 130.5 45t47.5 143v1022h-359v-901h-185v901h-379v-901h-185zM359 1060h379v149q0 99 -51.5 143.5t-149.5 44.5q-83 0 -130.5 -45.5t-47.5 -142.5v-149z" />
    <glyph glyph-name="f_i.liga" unicode="fi" horiz-adv-x="1019" 
d="M174 0v901h-145v159h145v152q0 157 99 254t262 97q147 0 244 -76.5t134 -223.5l-171 -41q-26 91 -74.5 133.5t-127.5 42.5q-83 0 -132 -46t-49 -143v-149h540v-1060h-183v901h-357v-901h-185z" />
    <glyph glyph-name="f_j.liga" unicode="fj" horiz-adv-x="1020" 
d="M544 -476q-148 0 -246 77.5t-132 223.5l167 40q27 -89 77 -131.5t129 -42.5q83 0 131 45t48 143v1022h-359v-901h-185v901h-145v159h145v152q0 157 99 254t262 97q147 0 244 -76.5t134 -223.5l-171 -41q-26 91 -74.5 133.5t-127.5 42.5q-83 0 -132 -46t-49 -143v-149h542
v-1184q0 -159 -95 -255.5t-262 -96.5z" />
    <glyph glyph-name="g_j.liga" unicode="gj" horiz-adv-x="1829" 
d="M568 -475q-416 0 -586 350l157 83q41 -88 92.5 -144t136 -89.5t200.5 -33.5q174 0 275 102t101 284v116q-63 -86 -156.5 -129.5t-203.5 -43.5q-74 0 -145.5 21t-135 65t-111.5 105.5t-76 149.5t-28 190t28 189.5t76 149t111.5 105t135 64.5t145.5 21q110 0 203.5 -43.5
t156.5 -129.5v153h184v-1181q0 -99 51.5 -143.5t150.5 -44.5q83 0 131 45t48 143v1181h183v-1184q0 -159 -95 -255.5t-260 -96.5q-255 0 -331 185q-73 -89 -185 -136.5t-253 -47.5zM272 551q0 -93 28.5 -165t76.5 -114.5t107 -64t125 -21.5t124 21.5t106.5 64t76.5 114.5
t28 165q0 74 -18.5 135.5t-50.5 103t-75 70.5t-91 42t-100 13q-66 0 -125 -21.5t-107 -64t-76.5 -114.5t-28.5 -164zM1476 1393q0 54 35 88.5t87 34.5q53 0 88.5 -34.5t35.5 -88.5q0 -55 -35.5 -89.5t-88.5 -34.5q-52 0 -87 34.5t-35 89.5z" />
    <glyph glyph-name="j_j.liga" unicode="jj" horiz-adv-x="1023" 
d="M-44 -476q-141 0 -237 77t-132 224l169 40q27 -89 75.5 -131.5t124.5 -42.5q183 0 183 188v1181h184v-1181q0 -99 51.5 -143.5t150.5 -44.5q83 0 130.5 45t47.5 143v1181h184v-1184q0 -159 -95 -255.5t-260 -96.5q-218 0 -301 154q-77 -154 -275 -154zM106 1393
q0 54 35.5 88.5t87.5 34.5t87.5 -34.5t35.5 -88.5q0 -55 -35.5 -89.5t-87.5 -34.5t-87.5 34.5t-35.5 89.5zM670 1393q0 54 35.5 88.5t87.5 34.5t87.5 -34.5t35.5 -88.5q0 -55 -35 -89.5t-88 -34.5q-52 0 -87.5 34.5t-35.5 89.5z" />
    <glyph glyph-name="f_idieresis.calt" unicode="f&#xef;" horiz-adv-x="1205" 
d="M174 0v901h-145v159h145v152q0 157 99.5 254t265.5 97q151 0 248 -76.5t135 -223.5l-170 -41q-27 91 -76.5 133.5t-131.5 42.5q-85 0 -135 -46t-50 -143v-149h393v-159h-393v-901h-185zM883 0v1060h184v-1060h-184zM1056 1359q0 51 34 84t83 33q50 0 83 -32.5t33 -84.5
t-33 -84t-83 -32q-49 0 -83 32.5t-34 83.5z" />
    <glyph glyph-name=".notdef" horiz-adv-x="1638" 
d="M313 0v924q-55 -4 -90 -41.5t-35 -89.5q0 -36 19 -73.5t47 -47.5q-50 3 -90.5 56.5t-40.5 123.5q0 44 18.5 86t63.5 76t108 41v317h973v-915q82 -41 154 -41q44 0 76 10q-78 -86 -175 -86q-23 0 -55 5v-345h-973zM436 123h725v266q-132 64 -325 223l-195 158
q-112 91 -205 128v-775zM436 1048q72 -15 140.5 -54t150.5 -107l207 -170q160 -134 227 -182v714h-725v-201z" />
    <glyph glyph-name=".null" horiz-adv-x="0" 
 />
    <glyph glyph-name="nonmarkingreturn" horiz-adv-x="682" 
 />
    <glyph glyph-name="space" unicode=" " horiz-adv-x="496" 
 />
    <glyph glyph-name="exclam" unicode="!" horiz-adv-x="462" 
d="M139 449v1016h184v-1016h-184zM103 108q0 57 37 92.5t91 35.5q55 0 92 -35.5t37 -92.5t-37.5 -92.5t-91.5 -35.5t-91 35.5t-37 92.5z" />
    <glyph glyph-name="quotedbl" unicode="&#x22;" horiz-adv-x="866" 
d="M208 913l-59 353q-15 82 -15 103q0 51 33.5 82.5t78.5 31.5t78.5 -31.5t33.5 -82.5q0 -21 -15 -103l-58 -353h-77zM508 1369q0 51 33.5 82.5t78.5 31.5t78.5 -31.5t33.5 -82.5q0 -21 -15 -103l-58 -353h-77l-59 353q-15 82 -15 103z" />
    <glyph glyph-name="numbersign" unicode="#" horiz-adv-x="1317" 
d="M171 0l69 390h-217v159h246l65 367h-217v159h246l69 390h187l-69 -390h340l69 390h187l-69 -390h216v-159h-245l-65 -367h217v-159h-246l-69 -390h-187l69 390h-340l-69 -390h-187zM456 549h340l65 367h-340z" />
    <glyph glyph-name="dollar" unicode="$" horiz-adv-x="1240" 
d="M558 1687h169v-208q237 -36 353 -229l-144 -92q-51 81 -131.5 121.5t-175.5 40.5q-119 0 -192 -63.5t-73 -168.5q0 -96 53 -145.5t170 -78.5l215 -54q178 -45 263 -140t85 -262q0 -186 -115.5 -296t-307.5 -129v-205h-169v207q-380 44 -469 456l189 33
q36 -172 128.5 -250t245.5 -78q142 0 228 69t86 190q0 100 -53.5 151.5t-172.5 81.5l-205 54q-184 48 -269.5 140.5t-85.5 253.5q0 155 102.5 265t275.5 131v205z" />
    <glyph glyph-name="percent" unicode="%" horiz-adv-x="1913" 
d="M443 796q-150 0 -249 95t-99 251q0 157 99 250.5t249 93.5q148 0 247.5 -94t99.5 -250t-99 -251t-248 -95zM265 1142q0 -96 50 -146.5t128 -50.5t128 50.5t50 146.5t-50.5 147t-127.5 51t-127.5 -51t-50.5 -147zM388 0l934 1466h204l-934 -1466h-204zM1123 324
q0 156 99 250.5t248 94.5q150 0 249 -94.5t99 -250.5q0 -157 -99 -250.5t-249 -93.5q-148 0 -247.5 94t-99.5 250zM1293 324q0 -96 50.5 -147t126.5 -51q77 0 128 51t51 147t-50 146.5t-129 50.5q-77 0 -127 -50.5t-50 -146.5z" />
    <glyph glyph-name="ampersand" unicode="&#x26;" horiz-adv-x="1426" 
d="M1251 -16l-165 164q-94 -84 -218 -126t-259 -42q-244 0 -382.5 117t-138.5 292q0 83 23.5 149t71 116.5t100.5 86.5t130 74q-89 92 -130 172.5t-41 171.5q0 141 106.5 234t278.5 93q178 0 283 -98t105 -248q0 -130 -80 -220t-229 -166l365 -361q79 153 43 374l173 27
q11 -62 13 -125t-5 -133.5t-31 -141t-63 -130.5l179 -177zM270 390q0 -104 88.5 -176t251.5 -72q214 0 353 127l-434 431q-132 -67 -195.5 -134.5t-63.5 -175.5zM421 1155q0 -67 28 -120.5t106 -130.5l36 -35q122 62 183 125t61 148q0 89 -54.5 136.5t-146.5 47.5
q-103 0 -158 -49.5t-55 -121.5z" />
    <glyph glyph-name="quotesingle" unicode="'" horiz-adv-x="492" 
d="M208 913l-59 353q-15 82 -15 103q0 51 33.5 82.5t78.5 31.5t78.5 -31.5t33.5 -82.5q0 -21 -15 -103l-58 -353h-77z" />
    <glyph glyph-name="parenleft" unicode="(" horiz-adv-x="545" 
d="M438 -340q-160 176 -246.5 409.5t-86.5 499.5t86.5 499.5t246.5 409.5l121 -97q-130 -152 -201 -358.5t-71 -453.5t71 -453.5t201 -358.5z" />
    <glyph glyph-name="parenright" unicode=")" horiz-adv-x="543" 
d="M90 1478q160 -176 246.5 -409.5t86.5 -499.5t-86.5 -499.5t-246.5 -409.5l-121 97q130 152 201 358.5t71 453.5t-71 453.5t-201 358.5z" />
    <glyph glyph-name="asterisk" unicode="*" horiz-adv-x="817" 
d="M258 781l-115 85l194 222l-289 63l45 138l269 -115l-25 291h143l-26 -291l269 115l46 -138l-289 -63l194 -222l-116 -84l-149 256z" />
    <glyph glyph-name="plus" unicode="+" horiz-adv-x="1065" 
d="M441 203v389h-380v159h380v390h183v-390h380v-159h-380v-389h-183z" />
    <glyph glyph-name="comma" unicode="," horiz-adv-x="459" 
d="M100 -336l-80 52l161 276q-34 13 -56 44t-22 72q0 57 37 92.5t91 35.5t91.5 -37t37.5 -100q0 -9 -1 -18t-2 -16.5t-5 -16.5t-5.5 -14.5t-7.5 -16t-8 -14.5t-9.5 -15.5t-10 -15t-11.5 -16.5t-12 -17z" />
    <glyph glyph-name="hyphen" unicode="-" horiz-adv-x="603" 
d="M57 696v159h489v-159h-489z" />
    <glyph glyph-name="period" unicode="." horiz-adv-x="459" 
d="M231 -20q-54 0 -91 35.5t-37 92.5t37 92.5t91 35.5q55 0 92 -35.5t37 -92.5t-37.5 -92.5t-91.5 -35.5z" />
    <glyph glyph-name="slash" unicode="/" horiz-adv-x="696" 
d="M-82 -410l663 1875h197l-662 -1875h-198z" />
    <glyph glyph-name="zero" unicode="0" horiz-adv-x="1375" 
d="M687 -20q-181 0 -313.5 96.5t-200.5 265.5t-68 391t68 391t200.5 265.5t313.5 96.5t314 -96.5t201 -265.5t68 -391t-68 -391.5t-201 -265.5t-314 -96zM292 733q0 -269 101 -427t294 -158q130 0 220.5 74.5t133 204.5t42.5 306t-42.5 305.5t-133 204t-220.5 74.5
q-193 0 -294 -157.5t-101 -426.5z" />
    <glyph glyph-name="one" unicode="1" horiz-adv-x="628" 
d="M288 0v1300h-254l26 165h412v-1465h-184z" />
    <glyph glyph-name="two" unicode="2" horiz-adv-x="1189" 
d="M110 0v139l456 470q73 75 116 125t81.5 107.5t55 110.5t16.5 112q0 125 -76 190.5t-199 65.5q-105 0 -179.5 -60.5t-111.5 -176.5l-165 54q107 349 469 349q197 0 322 -111t125 -308q0 -68 -18 -133t-43 -114.5t-75.5 -114t-89.5 -107t-112 -116.5l-314 -323h738v-159
h-996z" />
    <glyph glyph-name="three" unicode="3" horiz-adv-x="1246" 
d="M618 -20q-231 0 -382.5 116t-170.5 314l175 37q16 -145 114 -223.5t264 -78.5q154 0 245.5 77.5t91.5 207.5q0 87 -50 146.5t-128.5 85.5t-178.5 26h-143v163h143q134 0 213 65.5t79 176.5q0 103 -78.5 165.5t-209.5 62.5q-97 0 -173 -51t-109 -131l-156 55
q48 135 166 213.5t274 78.5q206 0 338.5 -107t132.5 -277q0 -118 -57.5 -201t-162.5 -125q285 -77 285 -352q0 -201 -146.5 -322.5t-375.5 -121.5z" />
    <glyph glyph-name="four" unicode="4" horiz-adv-x="1296" 
d="M817 0v341h-748v136l763 988h169v-965h254v-159h-254v-341h-184zM289 500h528v690z" />
    <glyph glyph-name="five" unicode="5" horiz-adv-x="1173" 
d="M578 -21q-188 0 -325 86.5t-188 257.5l175 62q34 -121 121 -180.5t215 -59.5q60 0 114 18.5t99 55t71.5 98.5t26.5 141q0 153 -93 233t-227 80q-164 0 -256 -109l-158 38l88 765h788v-159h-639l-54 -451q94 81 250 81q98 0 185 -31.5t153.5 -90t105 -149.5t38.5 -204
q0 -114 -39 -206.5t-106.5 -152t-155.5 -91.5t-189 -32z" />
    <glyph glyph-name="six" unicode="6" horiz-adv-x="1260" 
d="M653 -20q-122 0 -218.5 36t-172 114.5t-116.5 215t-41 324.5q0 206 46.5 366t127 256t181.5 144.5t218 48.5q153 0 267.5 -62t199.5 -192l-138 -98q-130 186 -326 186q-162 0 -264.5 -136.5t-119.5 -413.5q61 80 153.5 121.5t203.5 41.5q73 0 143 -19.5t131 -59.5
t107 -96t72.5 -133.5t26.5 -167.5t-26.5 -167.5t-72.5 -133.5t-107 -96t-131 -59.5t-144 -19.5zM313 456q0 -102 47 -175t118 -106t156 -33q63 0 119 19t101.5 56.5t72.5 99t27 139.5t-27 140t-72.5 99t-101.5 56.5t-119 19.5t-119.5 -19.5t-102 -56.5t-72.5 -99t-27 -140z
" />
    <glyph glyph-name="seven" unicode="7" horiz-adv-x="1132" 
d="M265 0l592 1306h-810v159h1022v-132l-605 -1333h-199z" />
    <glyph glyph-name="eight" unicode="8" horiz-adv-x="1297" 
d="M648 1486q215 0 348.5 -108.5t133.5 -287.5q0 -111 -55.5 -193t-155.5 -128q128 -45 200 -136.5t72 -225.5q0 -132 -72.5 -230t-194.5 -147.5t-276 -49.5t-275.5 49.5t-194 147.5t-72.5 230q0 134 72 225.5t199 136.5q-100 46 -155 128t-55 193q0 179 133.5 287.5
t347.5 108.5zM289 413q0 -127 98.5 -197.5t260.5 -70.5t260.5 70.5t98.5 197.5q0 125 -103.5 196.5t-255.5 71.5q-151 0 -255 -71.5t-104 -196.5zM351 1083q0 -109 80 -173t217 -64q138 0 218 64t80 173q0 110 -80 174t-218 64q-137 0 -217 -64t-80 -174z" />
    <glyph glyph-name="nine" unicode="9" horiz-adv-x="1250" 
d="M560 -20q-191 0 -326 85t-227 264l152 97q126 -281 394 -281q163 0 271 134.5t128 403.5q-61 -80 -153.5 -121.5t-202.5 -41.5q-93 0 -179 32.5t-154.5 92t-109.5 152.5t-41 205t41 205t109.5 153t155 92.5t179.5 32.5q97 0 177.5 -22t150.5 -73t118 -129.5t75 -196.5
t27 -270q0 -166 -30.5 -302t-84.5 -230t-128 -158.5t-160 -94t-182 -29.5zM295 1002q0 -78 27 -140t72.5 -100t102 -57.5t119.5 -19.5t119.5 19.5t102 57.5t72.5 100t27 140t-27 140t-72.5 100t-102 57.5t-119.5 19.5t-119.5 -19.5t-102 -57.5t-72.5 -100t-27 -140z" />
    <glyph glyph-name="colon" unicode=":" horiz-adv-x="459" 
d="M231 -20q-54 0 -91 35.5t-37 92.5t37 92.5t91 35.5q55 0 92 -35.5t37 -92.5t-37.5 -92.5t-91.5 -35.5zM103 889q0 57 37 92.5t91 35.5q55 0 92 -35.5t37 -92.5t-37.5 -92.5t-91.5 -35.5t-91 35.5t-37 92.5z" />
    <glyph glyph-name="semicolon" unicode=";" horiz-adv-x="459" 
d="M231 761q-54 0 -91 35.5t-37 92.5t37 92.5t91 35.5q55 0 92 -35.5t37 -92.5t-37.5 -92.5t-91.5 -35.5zM20 -284l161 276q-34 13 -56 44t-22 72q0 57 37 92.5t91 35.5t91.5 -37t37.5 -100q0 -9 -1 -18t-2 -16.5t-5 -16.5t-5.5 -14.5t-7.5 -16t-8 -14.5t-9.5 -15.5t-10 -15
t-11.5 -16.5t-12 -17l-188 -275z" />
    <glyph glyph-name="less" unicode="&#x3c;" horiz-adv-x="1061" 
d="M959 1085v-185l-693 -245l693 -245v-192l-877 322v223z" />
    <glyph glyph-name="equal" unicode="=" horiz-adv-x="1065" 
d="M61 838v159h943v-159h-943zM61 346v159h943v-159h-943z" />
    <glyph glyph-name="greater" unicode="&#x3e;" horiz-adv-x="1061" 
d="M102 207v185l693 245l-693 245v192l877 -322v-223z" />
    <glyph glyph-name="question" unicode="?" horiz-adv-x="1001" 
d="M400 427v59q0 117 38 182t151 146q91 64 129.5 122.5t38.5 151.5q0 102 -67.5 167t-187.5 65t-187 -65t-67 -167q0 -63 14 -112l-171 -40q-23 66 -23 155q0 174 119 284.5t315 110.5q201 0 320 -112t119 -287q0 -93 -29 -165.5t-73 -120.5t-116 -99q-83 -61 -110 -103
t-27 -123v-49h-186zM366 108q0 57 37 92.5t91 35.5q55 0 92 -35.5t37 -92.5t-37.5 -92.5t-91.5 -35.5t-91 35.5t-37 92.5z" />
    <glyph glyph-name="at" unicode="@" horiz-adv-x="1983" 
d="M1011 -334q-206 0 -376 68t-285.5 188.5t-179 290t-63.5 369.5q0 193 63 359t176.5 285.5t279.5 187.5t364 68q199 0 367 -67t281 -182.5t176 -271t63 -331.5q0 -241 -96.5 -369t-267.5 -128q-96 0 -176.5 43.5t-110.5 138.5q-47 -87 -125.5 -134.5t-175.5 -47.5
q-77 0 -149 28.5t-129 82t-91.5 138.5t-34.5 189t34 189t91 139t129 83t150 29q168 0 270 -136v121h177v-547q0 -89 36.5 -129t109.5 -40q189 0 189 350q0 117 -31 222.5t-92 192.5t-146 150.5t-200 99t-248 35.5q-164 0 -299 -55.5t-225.5 -154.5t-140 -237t-49.5 -301
q0 -226 85 -397.5t252.5 -269t397.5 -97.5q181 0 337 73l65 -140q-178 -85 -402 -85zM698 571q0 -138 75.5 -210.5t180.5 -72.5q104 0 172.5 72t68.5 211q0 141 -69.5 212.5t-171.5 71.5q-67 0 -123.5 -28.5t-94.5 -94.5t-38 -161z" />
    <glyph glyph-name="A" unicode="A" horiz-adv-x="1415" 
d="M52 0l561 1465h192l559 -1465h-202l-124 333h-666l-124 -333h-196zM434 499h542l-271 726z" />
    <glyph glyph-name="B" unicode="B" horiz-adv-x="1390" 
d="M154 0v1465h682q99 0 186.5 -44.5t143 -130.5t55.5 -195q0 -114 -52.5 -197t-137.5 -127q104 -41 169.5 -130t65.5 -219q0 -191 -124.5 -306.5t-302.5 -115.5h-685zM342 160h475q112 0 187 75t75 192q0 124 -75 190t-200 66h-462v-523zM342 843h460q95 0 163.5 67.5
t68.5 165.5q0 102 -67.5 165.5t-164.5 63.5h-460v-462z" />
    <glyph glyph-name="C" unicode="C" horiz-adv-x="1545" 
d="M787 -20q-197 0 -352 95.5t-241.5 267.5t-86.5 390t86.5 390t241.5 267.5t352 95.5q237 0 401 -127t228 -344l-177 -44q-51 160 -166.5 252.5t-285.5 92.5q-221 0 -357 -161t-136 -422t136 -422.5t357 -161.5q170 0 286.5 93.5t167.5 255.5l175 -45q-63 -219 -227 -346
t-402 -127z" />
    <glyph glyph-name="D" unicode="D" horiz-adv-x="1442" 
d="M154 0v1465h525q192 0 342 -93t232 -259.5t82 -379.5t-82 -380t-232 -260t-342 -93h-525zM342 169h337q214 0 341 156t127 408t-127 407.5t-341 155.5h-337v-1127z" />
    <glyph glyph-name="E" unicode="E" horiz-adv-x="1314" 
d="M154 0v1465h987v-167h-799v-459h727v-168h-727v-503h840v-168h-1028z" />
    <glyph glyph-name="F" unicode="F" horiz-adv-x="1290" 
d="M154 0v1465h1004v-169h-816v-521h747v-169h-747v-606h-188z" />
    <glyph glyph-name="G" unicode="G" horiz-adv-x="1593" 
d="M808 -20q-208 0 -368 96t-246.5 266.5t-86.5 390.5q0 219 85.5 390.5t241 267t353.5 95.5q245 0 411 -124t232 -338l-179 -48q-53 158 -171.5 249t-292.5 91q-221 0 -357 -161t-136 -422q0 -263 140 -423.5t377 -160.5q145 0 260.5 64.5t189.5 183.5v270h188v-667h-159
l-12 170q-174 -190 -470 -190z" />
    <glyph glyph-name="H" unicode="H" horiz-adv-x="1458" 
d="M154 0v1465h188v-642h774v642h188v-1465h-188v653h-774v-653h-188z" />
    <glyph glyph-name="I" unicode="I" horiz-adv-x="496" 
d="M154 0v1465h188v-1465h-188z" />
    <glyph glyph-name="J" unicode="J" horiz-adv-x="1069" 
d="M498 -17q-170 0 -280.5 85t-131.5 266l184 33q24 -215 228 -215q107 0 169 64.5t62 198.5v1050h186v-1052q0 -114 -32 -199t-90 -134.5t-131.5 -73t-163.5 -23.5z" />
    <glyph glyph-name="K" unicode="K" horiz-adv-x="1438" 
d="M154 0v1465h188v-728l717 728h248l-648 -648l707 -817h-248l-595 688l-181 -182v-506h-188z" />
    <glyph glyph-name="L" unicode="L" horiz-adv-x="1270" 
d="M154 0v1465h188v-1296h834v-169h-1022z" />
    <glyph glyph-name="M" unicode="M" horiz-adv-x="1754" 
d="M154 0v1465h264l462 -1227l462 1227h258v-1465h-182v1177l-443 -1177h-199l-445 1182v-1182h-177z" />
    <glyph glyph-name="N" unicode="N" horiz-adv-x="1474" 
d="M154 0v1465h166l818 -1126v1126h182v-1465h-166l-818 1127v-1127h-182z" />
    <glyph glyph-name="O" unicode="O" horiz-adv-x="1562" 
d="M781 -20q-197 0 -351 95.5t-238.5 267t-84.5 390.5t84.5 390.5t238.5 267t351 95.5t351 -95.5t239 -267t85 -390.5t-85 -390.5t-238.5 -267t-351.5 -95.5zM294 733q0 -262 132.5 -423t354.5 -161t354.5 161t132.5 423t-132 422.5t-355 160.5q-222 0 -354.5 -160.5
t-132.5 -422.5z" />
    <glyph glyph-name="P" unicode="P" horiz-adv-x="1369" 
d="M154 0v1465h618q127 0 232.5 -56.5t169.5 -162.5t64 -240q0 -202 -136 -331t-330 -129h-430v-546h-188zM342 716h423q127 0 206 79.5t79 210.5t-79 210.5t-206 79.5h-423v-580z" />
    <glyph glyph-name="Q" unicode="Q" horiz-adv-x="1559" 
d="M1059 -312q-140 0 -219.5 76t-115.5 218q-183 14 -323 112.5t-217 264.5t-77 374q0 219 84.5 390.5t238.5 267t351 95.5t351 -95.5t239 -267t85 -390.5q0 -291 -146.5 -492t-390.5 -248q18 -75 53.5 -109t91.5 -34q77 0 161 42l57 -148q-102 -56 -223 -56zM294 733
q0 -262 132.5 -423t354.5 -161t354.5 161t132.5 423t-132 422.5t-355 160.5q-222 0 -354.5 -160.5t-132.5 -422.5z" />
    <glyph glyph-name="R" unicode="R" horiz-adv-x="1367" 
d="M154 0v1465h615q124 0 224 -50.5t159.5 -148.5t59.5 -228q0 -165 -93.5 -275t-244.5 -140l399 -623h-223l-385 609h-323v-609h-188zM342 779h421q115 0 188 72t73 187q0 114 -73 186t-188 72h-421v-517z" />
    <glyph glyph-name="S" unicode="S" horiz-adv-x="1240" 
d="M655 -20q-467 0 -566 461l189 33q36 -172 128.5 -250t245.5 -78q142 0 228 69t86 190q0 100 -53.5 151.5t-172.5 81.5l-205 54q-184 48 -269.5 140.5t-85.5 253.5q0 171 123 285.5t325 114.5q150 0 266.5 -60.5t185.5 -175.5l-144 -92q-51 81 -131.5 121.5t-175.5 40.5
q-119 0 -192 -63.5t-73 -168.5q0 -96 53 -145.5t170 -78.5l215 -54q178 -45 263 -140t85 -262q0 -204 -137.5 -316t-357.5 -112z" />
    <glyph glyph-name="T" unicode="T" horiz-adv-x="1259" 
d="M536 0v1296h-505v169h1197v-169h-505v-1296h-187z" />
    <glyph glyph-name="U" unicode="U" horiz-adv-x="1458" 
d="M729 -20q-164 0 -295.5 72.5t-205.5 200t-74 285.5v927h188v-925q0 -176 104 -283.5t283 -107.5t283 107.5t104 283.5v925h188v-927q0 -240 -163.5 -399t-411.5 -159z" />
    <glyph glyph-name="V" unicode="V" horiz-adv-x="1415" 
d="M612 0l-560 1465h201l458 -1225l457 1225h196l-561 -1465h-191z" />
    <glyph glyph-name="W" unicode="W" horiz-adv-x="1877" 
d="M426 0l-366 1465h197l270 -1159l327 1159h180l326 -1156l271 1156h186l-364 -1465h-183l-332 1175l-330 -1175h-182z" />
    <glyph glyph-name="X" unicode="X" horiz-adv-x="1323" 
d="M34 0l496 751l-472 714h227l375 -571l372 571h223l-466 -706l501 -759h-227l-403 614l-404 -614h-222z" />
    <glyph glyph-name="Y" unicode="Y" horiz-adv-x="1299" 
d="M554 0v603l-540 862h218l421 -682l421 682h211l-543 -863v-602h-188z" />
    <glyph glyph-name="Z" unicode="Z" horiz-adv-x="1311" 
d="M112 0v148l841 1147h-821v170h1046v-146l-841 -1149h862v-170h-1087z" />
    <glyph glyph-name="bracketleft" unicode="[" horiz-adv-x="626" 
d="M154 -328v1793h425v-165h-241v-1463h241v-165h-425z" />
    <glyph glyph-name="backslash" unicode="\" horiz-adv-x="696" 
d="M581 -410l-663 1875h198l662 -1875h-197z" />
    <glyph glyph-name="bracketright" unicode="]" horiz-adv-x="626" 
d="M472 1465v-1793h-425v165h241v1463h-241v165h425z" />
    <glyph glyph-name="asciicircum" unicode="^" horiz-adv-x="950" 
d="M10 610l371 855h188l372 -855h-206l-264 657l-266 -657h-195z" />
    <glyph glyph-name="underscore" unicode="_" horiz-adv-x="1013" 
d="M57 -204v159h898v-159h-898z" />
    <glyph glyph-name="grave" unicode="`" horiz-adv-x="1126" 
d="M502 1181l-154 388h198l80 -388h-124z" />
    <glyph glyph-name="a" unicode="a" horiz-adv-x="1100" 
d="M439 -20q-143 0 -237 76.5t-94 215.5q0 59 19.5 106t48.5 77.5t79.5 56.5t93 41t108.5 33l338 89q-9 116 -82 179t-183 63q-102 0 -172 -44.5t-130 -143.5l-139 80q148 271 455 271q200 0 317.5 -110.5t117.5 -317.5v-652h-175v159q-61 -87 -157 -133t-208 -46zM291 282
q0 -75 49 -112.5t129 -37.5q44 0 88 9t88 30t77 52t53.5 79t20.5 107v127l-308 -83q-96 -26 -146.5 -64t-50.5 -107z" />
    <glyph glyph-name="b" unicode="b" horiz-adv-x="1259" 
d="M680 -20q-115 0 -213 53.5t-162 153.5v-187h-173v1543h184v-654q64 93 159 142t205 49q73 0 143 -21t133.5 -66t111 -108.5t75.5 -155t28 -199.5t-28 -199.5t-75.5 -155t-111 -108.5t-133.5 -66t-143 -21zM316 530q0 -98 28 -173.5t76 -120.5t106.5 -68t124.5 -23t125 23
t107 68t76.5 120.5t28.5 173.5t-28.5 173.5t-76.5 120.5t-107 68t-125 23t-124.5 -23t-106.5 -68t-76 -120.5t-28 -173.5z" />
    <glyph glyph-name="c" unicode="c" horiz-adv-x="1181" 
d="M611 -20q-102 0 -194 34t-166.5 99.5t-118.5 173t-44 243.5t44 243.5t118.5 173t166.5 99.5t194 34q181 0 314.5 -89.5t181.5 -263.5l-180 -43q-34 117 -120 174t-196 57q-67 0 -126 -21.5t-107.5 -66t-77 -121t-28.5 -176.5t28.5 -176.5t77 -121t107.5 -66t126 -21.5
q111 0 197 57t119 174l180 -43q-48 -174 -181.5 -263.5t-314.5 -89.5z" />
    <glyph glyph-name="d" unicode="d" horiz-adv-x="1259" 
d="M580 -20q-74 0 -144 21t-133.5 66t-111 108.5t-75.5 155t-28 199.5t28 199.5t75.5 155t111 108.5t133.5 66t144 21q110 0 205.5 -48.5t158.5 -141.5v653h184v-1543h-173v187q-62 -100 -160.5 -153.5t-214.5 -53.5zM272 530q0 -98 28 -173.5t76 -120.5t107 -68t126 -23
q65 0 124 23t107 68t76 120.5t28 173.5t-28 173.5t-76 120.5t-107 68t-124 23q-67 0 -126 -23t-107 -68t-76 -120.5t-28 -173.5z" />
    <glyph glyph-name="e" unicode="e" horiz-adv-x="1201" 
d="M609 -20q-102 0 -194 34.5t-166 100.5t-117.5 173t-43.5 242t45 242.5t120.5 173t169 100t196.5 34.5q107 0 195.5 -32t156 -95t105 -165.5t37.5 -236.5v-50h-840q4 -93 33.5 -163.5t77.5 -112t105 -62t121 -20.5q114 0 193 44.5t142 143.5l147 -77q-152 -274 -483 -274z
M283 641h640q-20 140 -99.5 208t-204.5 68q-78 0 -144.5 -27t-119.5 -91t-72 -158z" />
    <glyph glyph-name="f" unicode="f" horiz-adv-x="745" 
d="M174 0v901h-145v159h145v152q0 157 99 254t262 97q147 0 244 -76.5t134 -223.5l-171 -41q-26 91 -74.5 133.5t-127.5 42.5q-83 0 -132 -46t-49 -143v-149h393v-159h-393v-901h-185z" />
    <glyph glyph-name="g" unicode="g" horiz-adv-x="1259" 
d="M568 -475q-415 0 -586 351l157 82q40 -88 91.5 -144t136 -89.5t201.5 -33.5q173 0 274.5 102t101.5 284v113q-64 -83 -157.5 -126.5t-202.5 -43.5q-74 0 -145.5 21t-135 65t-111.5 105.5t-76 149.5t-28 190t28 189.5t76 149t111.5 105t135 64.5t145.5 21q110 0 203 -43
t157 -126v149h184v-983q0 -257 -153 -404.5t-407 -147.5zM272 551q0 -93 28.5 -165t76.5 -114.5t107 -64t125 -21.5t124 21.5t106.5 64t76.5 114.5t28 165q0 74 -18.5 135.5t-50.5 103t-75 70.5t-91 42t-100 13q-66 0 -125 -21.5t-107 -64t-76.5 -114.5t-28.5 -164z" />
    <glyph glyph-name="h" unicode="h" horiz-adv-x="1175" 
d="M871 0v634q0 131 -77 206.5t-201 75.5q-122 0 -199.5 -75.5t-77.5 -203.5v-637h-184v1543h184v-622q54 75 137 117t186 42q193 0 304.5 -118.5t111.5 -317.5v-644h-184z" />
    <glyph glyph-name="i" unicode="i" horiz-adv-x="460" 
d="M138 0v1060h184v-1060h-184zM107 1393q0 54 35.5 88.5t87.5 34.5t88 -34.5t36 -88.5q0 -55 -36 -89.5t-88 -34.5t-87.5 34.5t-35.5 89.5z" />
    <glyph glyph-name="j" unicode="j" horiz-adv-x="459" 
d="M-35 -476q-148 0 -246 77.5t-132 223.5l174 42q27 -92 74 -135t126 -43q82 0 129.5 46t47.5 144v1181h184v-1184q0 -159 -95.5 -255.5t-261.5 -96.5zM106 1393q0 54 35.5 88.5t87.5 34.5t87.5 -34.5t35.5 -88.5q0 -55 -35.5 -89.5t-87.5 -34.5q-53 0 -88 34.5t-35 89.5z
" />
    <glyph glyph-name="k" unicode="k" horiz-adv-x="1166" 
d="M888 0l-378 502l-194 -189v-313h-184v1543h184v-1007l528 524h237l-437 -433l475 -627h-231z" />
    <glyph glyph-name="l" unicode="l" horiz-adv-x="596" 
d="M388 -20q-124 0 -190 62t-66 204v1297h184v-1288q0 -62 22.5 -86t67.5 -24t99 20l45 -150q-84 -35 -162 -35z" />
    <glyph glyph-name="m" unicode="m" horiz-adv-x="1900" 
d="M125 0v1060h180v-145q55 78 139 121.5t187 43.5q126 0 219 -53t143 -151q54 96 149.5 150t216.5 54q196 0 308.5 -116.5t112.5 -319.5v-644h-184v636q0 127 -75.5 204t-200.5 77t-200.5 -76t-75.5 -201v-640h-184v636q0 128 -75.5 204.5t-200.5 76.5q-124 0 -200 -76
t-76 -201v-640h-183z" />
    <glyph glyph-name="n" unicode="n" horiz-adv-x="1168" 
d="M864 0v634q0 128 -75.5 205t-202.5 77q-125 0 -201.5 -76.5t-76.5 -202.5v-637h-183v1060h180v-147q55 78 139.5 122.5t188.5 44.5q191 0 303 -117.5t112 -318.5v-644h-184z" />
    <glyph glyph-name="o" unicode="o" horiz-adv-x="1216" 
d="M607 -20q-102 0 -193.5 34.5t-165 100.5t-117 173t-43.5 242t43.5 242t117 173t165 100.5t193.5 34.5t194 -34.5t165.5 -100.5t117.5 -173t44 -242t-44 -242t-117.5 -173t-165.5 -100.5t-194 -34.5zM272 530q0 -100 28 -176.5t76.5 -120.5t106.5 -66t124 -22
q67 0 125.5 22t107 66t76.5 120.5t28 176.5t-28 176.5t-76.5 120.5t-107 66t-125.5 22q-66 0 -124 -22t-106.5 -66t-76.5 -120.5t-28 -176.5z" />
    <glyph glyph-name="p" unicode="p" horiz-adv-x="1253" 
d="M125 -455v1515h183v-171q63 93 158.5 142t206.5 49q74 0 144 -21t133.5 -66t111 -108.5t75.5 -155t28 -199.5t-28 -199.5t-75.5 -155t-111 -108.5t-133.5 -66t-144 -21q-111 0 -206.5 49t-158.5 142v-626h-183zM308 530q0 -98 28.5 -173.5t76.5 -120.5t107 -68t124 -23
q66 0 125 23t107 68t76.5 120.5t28.5 173.5t-28.5 173.5t-76.5 120.5t-107 68t-125 23q-65 0 -124 -23t-107 -68t-76.5 -120.5t-28.5 -173.5z" />
    <glyph glyph-name="q" unicode="q" horiz-adv-x="1253" 
d="M944 -455v625q-63 -92 -158.5 -141t-205.5 -49q-74 0 -144 21t-133.5 66t-111 108.5t-75.5 155t-28 199.5t28 199.5t75.5 155t111 108.5t133.5 66t144 21q110 0 205.5 -48.5t158.5 -141.5v170h184v-1515h-184zM272 530q0 -98 28.5 -173.5t76.5 -120.5t107 -68t125 -23
q65 0 124 23t107 68t76 120.5t28 173.5t-28 173.5t-76 120.5t-107 68t-124 23q-66 0 -125 -23t-107 -68t-76.5 -120.5t-28.5 -173.5z" />
    <glyph glyph-name="r" unicode="r" horiz-adv-x="1010" 
d="M125 0v1060h176v-117q96 136 280 136q153 0 252.5 -102.5t99.5 -284.5v-43l-176 -15v39q0 119 -57 180t-164 61q-103 0 -165.5 -66t-62.5 -186v-662h-183z" />
    <glyph glyph-name="s" unicode="s" horiz-adv-x="1041" 
d="M550 -20q-400 0 -473 332l172 32q57 -208 297 -208q108 0 173.5 40.5t65.5 118.5q0 69 -42.5 100t-147.5 52l-160 31q-153 30 -228.5 97t-75.5 194q0 137 107 224t281 87q123 0 226.5 -49t154.5 -139l-140 -83q-37 55 -101.5 85t-141.5 30q-104 0 -158 -42.5t-54 -110.5
q0 -60 40.5 -89t127.5 -45l161 -32q65 -13 110.5 -27.5t88 -38t68 -55.5t40.5 -79t15 -109q0 -104 -56 -177t-146 -106t-204 -33z" />
    <glyph glyph-name="t" unicode="t" horiz-adv-x="922" 
d="M512 -20q-170 0 -263.5 94t-93.5 253v574h-145v159h145v259h184v-259h421v-159h-421v-566q0 -98 47.5 -144t129.5 -46q80 0 130 43t78 133l169 -41q-37 -146 -135 -223t-246 -77z" />
    <glyph glyph-name="u" unicode="u" horiz-adv-x="1168" 
d="M304 1060v-634q0 -128 75.5 -205t202.5 -77q125 0 201.5 76.5t76.5 202.5v637h183v-1060h-180v147q-55 -78 -139.5 -122.5t-188.5 -44.5q-191 0 -303 117.5t-112 318.5v644h184z" />
    <glyph glyph-name="v" unicode="v" horiz-adv-x="1086" 
d="M450 0l-437 1060h204l332 -851l333 851h189l-435 -1060h-186z" />
    <glyph glyph-name="w" unicode="w" horiz-adv-x="1627" 
d="M365 0l-320 1060h189l236 -841l258 841h182l258 -840l235 840h179l-316 -1060h-198l-253 811l-253 -811h-197z" />
    <glyph glyph-name="x" unicode="x" horiz-adv-x="1091" 
d="M22 0l396 538l-388 522h228l289 -401l289 401h215l-386 -520l399 -540h-223l-303 418l-299 -418h-217z" />
    <glyph glyph-name="y" unicode="y" horiz-adv-x="1163" 
d="M530 -475q-380 0 -533 338l155 81q61 -131 152 -192t223 -61q154 0 237 91t83 258v113q-57 -77 -141.5 -117.5t-186.5 -40.5q-191 0 -301 117t-110 321v627h184v-623q0 -136 70 -210t198 -74q132 0 209.5 75t77.5 204v628h184v-1020q0 -241 -133.5 -378t-367.5 -137z" />
    <glyph glyph-name="z" unicode="z" horiz-adv-x="1019" 
d="M92 0v141l588 757h-577v162h814v-141l-587 -757h597v-162h-835z" />
    <glyph glyph-name="braceleft" unicode="{" horiz-adv-x="723" 
d="M602 -328q-162 0 -238 80t-76 234v331q0 96 -38.5 133t-119.5 37h-83v165h83q81 0 119.5 36.5t38.5 132.5v331q0 154 75.5 233.5t238.5 79.5h128v-165h-101q-80 0 -119 -36.5t-39 -132.5v-329q0 -175 -119 -233q119 -57 119 -233v-329q0 -96 39 -133t119 -37h101v-165
h-128z" />
    <glyph glyph-name="bar" unicode="|" horiz-adv-x="541" 
d="M179 -455v1998h184v-1998h-184z" />
    <glyph glyph-name="braceright" unicode="}" horiz-adv-x="723" 
d="M121 1465q162 0 238 -80t76 -234v-331q0 -96 38.5 -133t119.5 -37h83v-165h-83q-81 0 -119.5 -36.5t-38.5 -132.5v-331q0 -154 -75.5 -233.5t-238.5 -79.5h-128v165h101q80 0 119 36.5t39 132.5v329q0 175 119 233q-119 57 -119 233v329q0 96 -39 133t-119 37h-101v165
h128z" />
    <glyph glyph-name="asciitilde" unicode="~" horiz-adv-x="910" 
d="M634 557q-42 0 -84 16.5t-75.5 40.5t-64.5 47.5t-62 40t-57 16.5q-97 0 -97 -103q0 -14 1 -22l-132 -14q-3 26 -3 49q0 111 56.5 169.5t162.5 58.5q52 0 105 -25t89.5 -55.5t78.5 -55.5t73 -25q99 0 99 106q0 17 -3 37l128 13q4 -40 4 -58q0 -113 -57.5 -174.5
t-161.5 -61.5z" />
    <glyph glyph-name="uni00A0" unicode="&#xa0;" horiz-adv-x="496" 
 />
    <glyph glyph-name="exclamdown" unicode="&#xa1;" horiz-adv-x="462" 
d="M324 611v-1016h-184v1016h184zM103 952q0 57 37.5 92.5t91.5 35.5t91 -35.5t37 -92.5t-37 -92.5t-91 -35.5q-55 0 -92 35.5t-37 92.5z" />
    <glyph glyph-name="cent" unicode="&#xa2;" horiz-adv-x="1174" 
d="M514 0v230q-88 15 -163 55t-135 105.5t-94 163.5t-34 218t34 218t94 163.5t135 105.5t163 55v229h168v-225q156 -16 269 -104.5t156 -244.5l-180 -43q-34 117 -120 174t-196 57q-67 0 -126 -21.5t-107.5 -66t-77 -121t-28.5 -176.5t28.5 -176.5t77 -121t107.5 -66
t126 -21.5q111 0 197 57t119 174l180 -43q-43 -156 -156 -244.5t-269 -104.5v-226h-168z" />
    <glyph glyph-name="sterling" unicode="&#xa3;" horiz-adv-x="1264" 
d="M73 0v159h148q33 86 33 211v132h-138v159h138v364q0 118 33 208t93.5 144.5t139.5 82t176 27.5q179 0 297 -92.5t142 -282.5l-185 -29q-16 123 -84.5 180.5t-171.5 57.5q-118 0 -186.5 -71t-68.5 -226v-363h553v-159h-553v-132q0 -123 -34 -211h765v-159h-1097z" />
    <glyph glyph-name="currency" unicode="&#xa4;" horiz-adv-x="1056" 
d="M527 303q-99 0 -187 40l-174 -208l-108 91l168 198q-103 110 -103 277q0 165 101 274l-166 197l108 87l170 -200q89 43 191 43q105 0 194 -45l169 202l108 -87l-168 -197q101 -109 101 -274q0 -169 -103 -277l170 -198l-108 -91l-173 209q-88 -41 -190 -41zM293 701
q0 -122 67.5 -186t166.5 -64t166.5 64t67.5 186t-67.5 185.5t-166.5 63.5q-98 0 -166 -63.5t-68 -185.5z" />
    <glyph glyph-name="yen" unicode="&#xa5;" horiz-adv-x="1299" 
d="M183 558v148h307l-476 759h218l421 -682l421 682h211l-477 -759h310v-148h-376v-77h376v-148h-376v-333h-188v333h-371v148h371v77h-371z" />
    <glyph glyph-name="brokenbar" unicode="&#xa6;" horiz-adv-x="541" 
d="M179 -455v931h184v-931h-184zM179 667v876h184v-876h-184z" />
    <glyph glyph-name="section" unicode="&#xa7;" horiz-adv-x="1359" 
d="M681 -475q-215 0 -347.5 100.5t-177.5 323.5l188 33q28 -153 111.5 -223t222.5 -70q125 0 200.5 60.5t75.5 167.5q0 88 -53 134.5t-184 80.5l-242 61q-167 43 -248.5 128.5t-81.5 235.5q0 101 53 181t148 128q-96 92 -96 249q0 162 114 266.5t302 104.5q138 0 247 -54.5
t175 -158.5l-140 -94q-48 71 -121.5 107.5t-159.5 36.5q-104 0 -168.5 -56.5t-64.5 -149.5q0 -86 52 -129.5t166 -72.5l202 -51q197 -50 282.5 -138.5t85.5 -243.5q0 -197 -179 -307q95 -91 95 -255q0 -126 -60 -216.5t-162 -134.5t-235 -44zM329 566q0 -89 50.5 -133
t166.5 -74l226 -57q82 -21 135 -44q131 78 131 216q0 90 -53.5 138t-184.5 82l-217 56q-53 14 -95 30q-76 -30 -117.5 -85.5t-41.5 -128.5z" />
    <glyph glyph-name="dieresis" unicode="&#xa8;" horiz-adv-x="1126" 
d="M366 1243q-49 0 -83 32.5t-34 83.5t34.5 84t82.5 33q49 0 82.5 -32.5t33.5 -84.5q0 -51 -33.5 -83.5t-82.5 -32.5zM644 1359q0 51 34 84t83 33q50 0 83 -32.5t33 -84.5t-33 -84t-83 -32q-49 0 -83 32.5t-34 83.5z" />
    <glyph glyph-name="copyright" unicode="&#xa9;" horiz-adv-x="1793" 
d="M896 -20q-174 0 -322 56t-250 155.5t-159.5 239t-57.5 302.5q0 218 98 389t278 267.5t413 96.5q175 0 323 -56t250.5 -155.5t159.5 -239t57 -302.5t-57 -302.5t-159.5 -239t-250.5 -155.5t-323 -56zM257 733q0 -276 174.5 -447t464.5 -171t465 171t175 447t-175 446.5
t-465 170.5t-464.5 -170.5t-174.5 -446.5zM474 734q0 108 35.5 194t95 139t134 81t157.5 28q147 0 256 -72.5t147 -214.5l-155 -37q-26 92 -93.5 137t-154.5 45q-111 0 -187 -74.5t-76 -225.5t76 -225.5t187 -74.5q87 0 154.5 44.5t93.5 135.5l154 -36q-38 -141 -146 -213
t-256 -72q-83 0 -157.5 28t-134 80.5t-95 138.5t-35.5 194z" />
    <glyph glyph-name="ordfeminine" unicode="&#xaa;" horiz-adv-x="1100" 
d="M462 666q-102 0 -190.5 46.5t-146.5 141.5t-58 221q0 96 33.5 175.5t89.5 130t126 78t146 27.5q174 0 280 -132v117h171v-577q0 -77 68 -77q34 0 73 12l45 -132q-71 -31 -141 -31q-80 0 -134 36t-70 110q-51 -70 -127 -108t-165 -38zM238 1075q0 -124 73 -191t178 -67
q106 0 179.5 67t73.5 191q0 125 -73 192t-180 67q-105 0 -178 -67t-73 -192z" />
    <glyph glyph-name="guillemotleft" unicode="&#xab;" horiz-adv-x="1140" 
d="M57 493v168l487 299v-184l-337 -199l337 -199v-184zM568 493v168l487 299v-184l-337 -199l337 -199v-184z" />
    <glyph glyph-name="logicalnot" unicode="&#xac;" horiz-adv-x="964" 
d="M751 579v322h-741v159h925v-481h-184z" />
    <glyph glyph-name="uni00AD" unicode="&#xad;" horiz-adv-x="603" 
d="M57 696v159h489v-159h-489z" />
    <glyph glyph-name="registered" unicode="&#xae;" horiz-adv-x="1793" 
d="M896 -20q-174 0 -322 56t-250 155.5t-159.5 239t-57.5 302.5q0 218 98 389t278 267.5t413 96.5q175 0 323 -56t250.5 -155.5t159.5 -239t57 -302.5t-57 -302.5t-159.5 -239t-250.5 -155.5t-323 -56zM257 733q0 -276 174.5 -447t464.5 -171t465 171t175 447t-175 446.5
t-465 170.5t-464.5 -170.5t-174.5 -446.5zM569 292v879h401q117 0 195.5 -74t78.5 -195q0 -95 -49.5 -159t-133.5 -91l225 -360h-189l-205 340h-163v-340h-160zM729 772h222q59 0 96 36t37 94t-37 93.5t-96 35.5h-222v-259z" />
    <glyph glyph-name="macron" unicode="&#xaf;" horiz-adv-x="1126" 
d="M223 1309v159h681v-159h-681z" />
    <glyph glyph-name="degree" unicode="&#xb0;" horiz-adv-x="885" 
d="M443 796q-150 0 -249 95t-99 251q0 157 99 250.5t249 93.5q148 0 247.5 -94t99.5 -250t-99 -251t-248 -95zM265 1142q0 -96 50 -146.5t128 -50.5t128 50.5t50 146.5t-50.5 147t-127.5 51t-127.5 -51t-50.5 -147z" />
    <glyph glyph-name="plusminus" unicode="&#xb1;" horiz-adv-x="1065" 
d="M61 695v159h380v276h183v-276h380v-159h-380v-276h-183v276h-380zM61 192v151h943v-151h-943z" />
    <glyph glyph-name="uni00B2" unicode="&#xb2;" horiz-adv-x="834" 
d="M88 658v110l302 310q79 79 113 133.5t34 113.5q0 64 -40.5 99.5t-105.5 35.5q-120 0 -159 -134l-146 43q65 234 308 234q138 0 222.5 -73t84.5 -199q0 -54 -14 -101t-48 -94.5t-61 -78.5t-84 -88l-170 -174h427v-137h-663z" />
    <glyph glyph-name="uni00B3" unicode="&#xb3;" horiz-adv-x="872" 
d="M424 646q-157 0 -255.5 76t-110.5 209l154 28q9 -81 62 -126.5t146 -45.5q85 0 135 41.5t50 110.5q0 67 -53.5 102t-139.5 35h-87v137h86q70 0 113 34.5t43 93.5q0 55 -42.5 88t-111.5 33q-56 0 -97.5 -29.5t-58.5 -77.5l-142 45q28 90 106.5 146.5t193.5 56.5
q138 0 225.5 -69t87.5 -176q0 -150 -136 -206q177 -51 177 -224q0 -128 -97 -205t-248 -77z" />
    <glyph glyph-name="acute" unicode="&#xb4;" horiz-adv-x="1126" 
d="M498 1181l81 388h198l-155 -388h-124z" />
    <glyph glyph-name="uni00B5" unicode="&#xb5;" horiz-adv-x="1168" 
d="M120 -455v1515h184v-634q0 -128 76 -204.5t203 -76.5q125 0 201 76.5t76 201.5v637h183v-1060h-179v148q-54 -79 -139 -123.5t-189 -44.5q-144 0 -241 72l8 -507h-183z" />
    <glyph glyph-name="paragraph" unicode="&#xb6;" horiz-adv-x="1263" 
d="M629 -21q-130 0 -227 38.5t-164 130t-83 232.5l183 34q15 -140 88.5 -201.5t202.5 -61.5q293 0 293 326v988h187v-989q0 -135 -36.5 -233.5t-103.5 -155t-151 -82.5t-189 -26zM156 1122q0 147 95.5 245t257.5 98h307v-370q0 -136 -79 -225.5t-228 -89.5
q-162 0 -257.5 97.5t-95.5 244.5z" />
    <glyph glyph-name="periodcentered" unicode="&#xb7;" horiz-adv-x="462" 
d="M231 583q-54 0 -91 35.5t-37 92.5t37 92.5t91 35.5q55 0 92 -35.5t37 -92.5t-37.5 -92.5t-91.5 -35.5z" />
    <glyph glyph-name="cedilla" unicode="&#xb8;" horiz-adv-x="1126" 
d="M347 -388l154 388h124l-80 -388h-198z" />
    <glyph glyph-name="uni00B9" unicode="&#xb9;" horiz-adv-x="506" 
d="M190 658v794h-155l25 139h289v-933h-159z" />
    <glyph glyph-name="ordmasculine" unicode="&#xba;" horiz-adv-x="980" 
d="M490 1486q113 0 208 -46.5t155 -141.5t60 -223q0 -126 -60 -221t-155 -141.5t-208 -46.5q-114 0 -209 46.5t-154.5 141.5t-59.5 221q0 128 59.5 223t154 141.5t209.5 46.5zM238 1075q0 -127 73 -192.5t179 -65.5q107 0 179.5 65.5t72.5 192.5q0 128 -72.5 193.5
t-179.5 65.5q-106 0 -179 -65.5t-73 -193.5z" />
    <glyph glyph-name="guillemotright" unicode="&#xbb;" horiz-adv-x="1140" 
d="M1083 661v-168l-487 -299v184l337 199l-337 199v184zM85 194v184l337 199l-337 199v184l487 -299v-168z" />
    <glyph glyph-name="onequarter" unicode="&#xbc;" horiz-adv-x="1809" 
d="M190 533v794h-155l25 139h289v-933h-159zM202 0l1027 1465h198l-1026 -1465h-199zM997 206v122l464 605h158v-592h149v-135h-149v-206h-152v206h-470zM1176 341h291v381z" />
    <glyph glyph-name="onehalf" unicode="&#xbd;" horiz-adv-x="1906" 
d="M190 533v794h-155l25 139h289v-933h-159zM202 0l1027 1465h198l-1026 -1465h-199zM1158 711q65 234 308 234q138 0 222.5 -73t84.5 -199q0 -54 -14 -101t-48 -94.5t-61 -78.5t-84 -88l-170 -174h427v-137h-663v110l302 310q79 79 113 133.5t34 113.5q0 64 -40.5 99.5
t-105.5 35.5q-120 0 -159 -134z" />
    <glyph glyph-name="threequarters" unicode="&#xbe;" horiz-adv-x="2085" 
d="M424 521q-157 0 -255.5 76t-110.5 209l154 28q9 -81 62 -126.5t146 -45.5q85 0 135 41.5t50 110.5q0 67 -53.5 102t-139.5 35h-87v137h86q70 0 113 34.5t43 93.5q0 55 -42.5 88t-111.5 33q-56 0 -97.5 -29.5t-58.5 -77.5l-142 45q28 90 106.5 146.5t193.5 56.5
q138 0 225.5 -69t87.5 -176q0 -150 -136 -206q177 -51 177 -224q0 -128 -97 -205t-248 -77zM478 0l1027 1465h198l-1026 -1465h-199zM1273 206v122l464 605h158v-592h149v-135h-149v-206h-152v206h-470zM1452 341h291v381z" />
    <glyph glyph-name="questiondown" unicode="&#xbf;" horiz-adv-x="1001" 
d="M601 633v-59q0 -117 -38 -182t-151 -146q-91 -64 -129.5 -122.5t-38.5 -151.5q0 -102 67.5 -167t187.5 -65t187 65t67 167q0 63 -14 112l171 40q23 -66 23 -155q0 -174 -119 -284.5t-315 -110.5q-201 0 -320 112t-119 287q0 93 29 165.5t73 120.5t116 99q83 61 110 103
t27 123v49h186zM378 952q0 57 37.5 92.5t91.5 35.5t91 -35.5t37 -92.5t-37 -92.5t-91 -35.5q-55 0 -92 35.5t-37 92.5z" />
    <glyph glyph-name="Agrave" unicode="&#xc0;" horiz-adv-x="1415" 
d="M52 0l561 1465h192l559 -1465h-202l-124 333h-666l-124 -333h-196zM434 499h542l-271 726zM494 1974h198l80 -388h-124z" />
    <glyph glyph-name="Aacute" unicode="&#xc1;" horiz-adv-x="1415" 
d="M52 0l561 1465h192l559 -1465h-202l-124 333h-666l-124 -333h-196zM434 499h542l-271 726zM644 1586l81 388h198l-155 -388h-124z" />
    <glyph glyph-name="Acircumflex" unicode="&#xc2;" horiz-adv-x="1415" 
d="M52 0l561 1465h192l559 -1465h-202l-124 333h-666l-124 -333h-196zM400 1586l214 388h189l212 -388h-164l-141 276l-144 -276h-166zM434 499h542l-271 726z" />
    <glyph glyph-name="Atilde" unicode="&#xc3;" horiz-adv-x="1415" 
d="M52 0l561 1465h192l559 -1465h-202l-124 333h-666l-124 -333h-196zM371 1720q0 82 48 133.5t129 51.5q50 0 108 -25.5t107 -51t77 -25.5q30 0 47 19t17 50q0 16 -7 46l131 28q20 -55 20 -100q0 -82 -48 -133.5t-128 -51.5q-50 0 -109 26t-108.5 52t-77.5 26
q-30 0 -46.5 -19t-16.5 -52q0 -20 7 -44l-136 -27q-14 54 -14 97zM434 499h542l-271 726z" />
    <glyph glyph-name="Adieresis" unicode="&#xc4;" horiz-adv-x="1415" 
d="M52 0l561 1465h192l559 -1465h-202l-124 333h-666l-124 -333h-196zM395 1764q0 51 34.5 84t82.5 33q49 0 82.5 -32.5t33.5 -84.5q0 -51 -33.5 -83.5t-82.5 -32.5t-83 32.5t-34 83.5zM434 499h542l-271 726zM790 1764q0 51 34 84t83 33q50 0 83 -32.5t33 -84.5t-33 -84
t-83 -32q-49 0 -83 32.5t-34 83.5z" />
    <glyph glyph-name="Aring" unicode="&#xc5;" horiz-adv-x="1415" 
d="M52 0l561 1465h192l559 -1465h-202l-124 333h-666l-124 -333h-196zM430 1840q0 96 75.5 159t203.5 63t204 -63t76 -159t-76 -159.5t-204 -63.5t-203.5 63.5t-75.5 159.5zM434 499h542l-271 726zM590 1840q0 -46 30.5 -72.5t86.5 -26.5q57 0 87 26t30 73t-30 73t-87 26
q-56 0 -86.5 -26.5t-30.5 -72.5z" />
    <glyph glyph-name="AE" unicode="&#xc6;" horiz-adv-x="2252" 
d="M52 0l950 1465h1077v-167h-800v-459h728v-168h-728v-503h841v-168h-1028v354h-604l-226 -354h-210zM586 520h506v786z" />
    <glyph glyph-name="Ccedilla" unicode="&#xc7;" horiz-adv-x="1545" 
d="M572 -388l147 371q-272 25 -442 232t-170 518q0 218 86.5 390t241.5 267.5t352 95.5q237 0 401 -127t228 -344l-177 -44q-51 160 -166.5 252.5t-285.5 92.5q-221 0 -357 -161t-136 -422t136 -422.5t357 -161.5q170 0 286.5 93.5t167.5 255.5l175 -45
q-59 -204 -207 -329.5t-363 -141.5l-76 -370h-198z" />
    <glyph glyph-name="Egrave" unicode="&#xc8;" horiz-adv-x="1314" 
d="M154 0v1465h987v-167h-799v-459h727v-168h-727v-503h840v-168h-1028zM441 1974h198l80 -388h-124z" />
    <glyph glyph-name="Eacute" unicode="&#xc9;" horiz-adv-x="1314" 
d="M154 0v1465h987v-167h-799v-459h727v-168h-727v-503h840v-168h-1028zM591 1586l81 388h198l-155 -388h-124z" />
    <glyph glyph-name="Ecircumflex" unicode="&#xca;" horiz-adv-x="1314" 
d="M154 0v1465h987v-167h-799v-459h727v-168h-727v-503h840v-168h-1028zM347 1586l214 388h189l212 -388h-164l-141 276l-144 -276h-166z" />
    <glyph glyph-name="Edieresis" unicode="&#xcb;" horiz-adv-x="1314" 
d="M154 0v1465h987v-167h-799v-459h727v-168h-727v-503h840v-168h-1028zM342 1764q0 51 34.5 84t82.5 33q49 0 82.5 -32.5t33.5 -84.5q0 -51 -33.5 -83.5t-82.5 -32.5t-83 32.5t-34 83.5zM737 1764q0 51 34 84t83 33q50 0 83 -32.5t33 -84.5t-33 -84t-83 -32q-49 0 -83 32.5
t-34 83.5z" />
    <glyph glyph-name="Igrave" unicode="&#xcc;" horiz-adv-x="496" 
d="M154 0v1465h188v-1465h-188zM33 1974h198l80 -388h-124z" />
    <glyph glyph-name="Iacute" unicode="&#xcd;" horiz-adv-x="496" 
d="M154 0v1465h188v-1465h-188zM183 1586l81 388h198l-155 -388h-124z" />
    <glyph glyph-name="Icircumflex" unicode="&#xce;" horiz-adv-x="496" 
d="M154 0v1465h188v-1465h-188zM-61 1586l214 388h189l212 -388h-164l-141 276l-144 -276h-166z" />
    <glyph glyph-name="Idieresis" unicode="&#xcf;" horiz-adv-x="496" 
d="M154 0v1465h188v-1465h-188zM-66 1764q0 51 34.5 84t82.5 33q49 0 82.5 -32.5t33.5 -84.5q0 -51 -33.5 -83.5t-82.5 -32.5t-83 32.5t-34 83.5zM329 1764q0 51 34 84t83 33q50 0 83 -32.5t33 -84.5t-33 -84t-83 -32q-49 0 -83 32.5t-34 83.5z" />
    <glyph glyph-name="Eth" unicode="&#xd0;" horiz-adv-x="1439" 
d="M154 0v649h-209v169h209v647h525q192 0 342 -93t232 -259.5t82 -379.5t-82 -380t-232 -260t-342 -93h-525zM342 169h337q214 0 341 156t127 408t-127 407.5t-341 155.5h-337v-478h306v-169h-306v-480z" />
    <glyph glyph-name="Ntilde" unicode="&#xd1;" horiz-adv-x="1474" 
d="M154 0v1465h166l818 -1126v1126h182v-1465h-166l-818 1127v-1127h-182zM395 1720q0 82 48 133.5t129 51.5q50 0 108 -25.5t107 -51t77 -25.5q30 0 47 19t17 50q0 16 -7 46l131 28q20 -55 20 -100q0 -82 -48 -133.5t-128 -51.5q-50 0 -109 26t-108.5 52t-77.5 26
q-30 0 -46.5 -19t-16.5 -52q0 -20 7 -44l-136 -27q-14 54 -14 97z" />
    <glyph glyph-name="Ograve" unicode="&#xd2;" horiz-adv-x="1562" 
d="M781 -20q-197 0 -351 95.5t-238.5 267t-84.5 390.5t84.5 390.5t238.5 267t351 95.5t351 -95.5t239 -267t85 -390.5t-85 -390.5t-238.5 -267t-351.5 -95.5zM294 733q0 -262 132.5 -423t354.5 -161t354.5 161t132.5 423t-132 422.5t-355 160.5q-222 0 -354.5 -160.5
t-132.5 -422.5zM566 1974h198l80 -388h-124z" />
    <glyph glyph-name="Oacute" unicode="&#xd3;" horiz-adv-x="1562" 
d="M781 -20q-197 0 -351 95.5t-238.5 267t-84.5 390.5t84.5 390.5t238.5 267t351 95.5t351 -95.5t239 -267t85 -390.5t-85 -390.5t-238.5 -267t-351.5 -95.5zM294 733q0 -262 132.5 -423t354.5 -161t354.5 161t132.5 423t-132 422.5t-355 160.5q-222 0 -354.5 -160.5
t-132.5 -422.5zM716 1586l81 388h198l-155 -388h-124z" />
    <glyph glyph-name="Ocircumflex" unicode="&#xd4;" horiz-adv-x="1562" 
d="M781 -20q-197 0 -351 95.5t-238.5 267t-84.5 390.5t84.5 390.5t238.5 267t351 95.5t351 -95.5t239 -267t85 -390.5t-85 -390.5t-238.5 -267t-351.5 -95.5zM294 733q0 -262 132.5 -423t354.5 -161t354.5 161t132.5 423t-132 422.5t-355 160.5q-222 0 -354.5 -160.5
t-132.5 -422.5zM472 1586l214 388h189l212 -388h-164l-141 276l-144 -276h-166z" />
    <glyph glyph-name="Otilde" unicode="&#xd5;" horiz-adv-x="1562" 
d="M781 -20q-197 0 -351 95.5t-238.5 267t-84.5 390.5t84.5 390.5t238.5 267t351 95.5t351 -95.5t239 -267t85 -390.5t-85 -390.5t-238.5 -267t-351.5 -95.5zM294 733q0 -262 132.5 -423t354.5 -161t354.5 161t132.5 423t-132 422.5t-355 160.5q-222 0 -354.5 -160.5
t-132.5 -422.5zM443 1720q0 82 48 133.5t129 51.5q50 0 108 -25.5t107 -51t77 -25.5q30 0 47 19t17 50q0 16 -7 46l131 28q20 -55 20 -100q0 -82 -48 -133.5t-128 -51.5q-50 0 -109 26t-108.5 52t-77.5 26q-30 0 -46.5 -19t-16.5 -52q0 -20 7 -44l-136 -27q-14 54 -14 97z
" />
    <glyph glyph-name="Odieresis" unicode="&#xd6;" horiz-adv-x="1562" 
d="M781 -20q-197 0 -351 95.5t-238.5 267t-84.5 390.5t84.5 390.5t238.5 267t351 95.5t351 -95.5t239 -267t85 -390.5t-85 -390.5t-238.5 -267t-351.5 -95.5zM294 733q0 -262 132.5 -423t354.5 -161t354.5 161t132.5 423t-132 422.5t-355 160.5q-222 0 -354.5 -160.5
t-132.5 -422.5zM467 1764q0 51 34.5 84t82.5 33q49 0 82.5 -32.5t33.5 -84.5q0 -51 -33.5 -83.5t-82.5 -32.5t-83 32.5t-34 83.5zM862 1764q0 51 34 84t83 33q50 0 83 -32.5t33 -84.5t-33 -84t-83 -32q-49 0 -83 32.5t-34 83.5z" />
    <glyph glyph-name="multiply" unicode="&#xd7;" horiz-adv-x="869" 
d="M144 280l-121 120l271 272l-271 271l121 121l271 -271l272 271l120 -121l-271 -271l271 -272l-120 -120l-272 271z" />
    <glyph glyph-name="Oslash" unicode="&#xd8;" horiz-adv-x="1559" 
d="M226 -17l-109 93l137 165q-147 200 -147 492q0 219 84.5 390.5t238.5 267t351 95.5q250 0 427 -152l124 150l113 -94l-138 -162q149 -202 149 -495q0 -219 -85 -390.5t-238.5 -267t-351.5 -95.5q-252 0 -430 154zM294 733q0 -211 89 -362l701 837q-124 108 -303 108
q-222 0 -354.5 -160.5t-132.5 -422.5zM475 260q125 -111 306 -111q222 0 354.5 161t132.5 423q0 213 -90 364z" />
    <glyph glyph-name="Ugrave" unicode="&#xd9;" horiz-adv-x="1458" 
d="M729 -20q-164 0 -295.5 72.5t-205.5 200t-74 285.5v927h188v-925q0 -176 104 -283.5t283 -107.5t283 107.5t104 283.5v925h188v-927q0 -240 -163.5 -399t-411.5 -159zM514 1974h198l80 -388h-124z" />
    <glyph glyph-name="Uacute" unicode="&#xda;" horiz-adv-x="1458" 
d="M729 -20q-164 0 -295.5 72.5t-205.5 200t-74 285.5v927h188v-925q0 -176 104 -283.5t283 -107.5t283 107.5t104 283.5v925h188v-927q0 -240 -163.5 -399t-411.5 -159zM664 1586l81 388h198l-155 -388h-124z" />
    <glyph glyph-name="Ucircumflex" unicode="&#xdb;" horiz-adv-x="1458" 
d="M729 -20q-164 0 -295.5 72.5t-205.5 200t-74 285.5v927h188v-925q0 -176 104 -283.5t283 -107.5t283 107.5t104 283.5v925h188v-927q0 -240 -163.5 -399t-411.5 -159zM420 1586l214 388h189l212 -388h-164l-141 276l-144 -276h-166z" />
    <glyph glyph-name="Udieresis" unicode="&#xdc;" horiz-adv-x="1458" 
d="M729 -20q-164 0 -295.5 72.5t-205.5 200t-74 285.5v927h188v-925q0 -176 104 -283.5t283 -107.5t283 107.5t104 283.5v925h188v-927q0 -240 -163.5 -399t-411.5 -159zM415 1764q0 51 34.5 84t82.5 33q49 0 82.5 -32.5t33.5 -84.5q0 -51 -33.5 -83.5t-82.5 -32.5t-83 32.5
t-34 83.5zM810 1764q0 51 34 84t83 33q50 0 83 -32.5t33 -84.5t-33 -84t-83 -32q-49 0 -83 32.5t-34 83.5z" />
    <glyph glyph-name="Yacute" unicode="&#xdd;" horiz-adv-x="1299" 
d="M554 0v603l-540 862h218l421 -682l421 682h211l-543 -863v-602h-188zM585 1586l81 388h198l-155 -388h-124z" />
    <glyph glyph-name="Thorn" unicode="&#xde;" horiz-adv-x="1369" 
d="M154 0v1465h188v-213h430q127 0 232.5 -56.5t169.5 -163t64 -241.5q0 -134 -64 -240t-169.5 -162.5t-232.5 -56.5h-430v-332h-188zM342 501h423q125 0 205 80t80 210q0 131 -79.5 211t-205.5 80h-423v-581z" />
    <glyph glyph-name="germandbls" unicode="&#xdf;" horiz-adv-x="1252" 
d="M667 -20q-122 0 -236 29l36 155q97 -25 193 -25q150 0 234.5 80.5t84.5 224.5q0 140 -95.5 211t-272.5 71h-52v160h45q114 0 195.5 76t81.5 191q0 123 -77 197t-211 74q-129 0 -205 -77t-76 -230v-1117h-180v1118q0 216 122.5 341t338.5 125q219 0 345 -120t126 -304
q0 -105 -53 -193.5t-149 -140.5q301 -82 301 -389q0 -117 -38 -206t-106.5 -143t-157 -81t-194.5 -27z" />
    <glyph glyph-name="agrave" unicode="&#xe0;" horiz-adv-x="1100" 
d="M439 -20q-143 0 -237 76.5t-94 215.5q0 59 19.5 106t48.5 77.5t79.5 56.5t93 41t108.5 33l338 89q-9 116 -82 179t-183 63q-102 0 -172 -44.5t-130 -143.5l-139 80q148 271 455 271q200 0 317.5 -110.5t117.5 -317.5v-652h-175v159q-61 -87 -157 -133t-208 -46zM291 282
q0 -75 49 -112.5t129 -37.5q44 0 88 9t88 30t77 52t53.5 79t20.5 107v127l-308 -83q-96 -26 -146.5 -64t-50.5 -107zM328 1569h198l80 -388h-124z" />
    <glyph glyph-name="aacute" unicode="&#xe1;" horiz-adv-x="1100" 
d="M439 -20q-143 0 -237 76.5t-94 215.5q0 59 19.5 106t48.5 77.5t79.5 56.5t93 41t108.5 33l338 89q-9 116 -82 179t-183 63q-102 0 -172 -44.5t-130 -143.5l-139 80q148 271 455 271q200 0 317.5 -110.5t117.5 -317.5v-652h-175v159q-61 -87 -157 -133t-208 -46zM291 282
q0 -75 49 -112.5t129 -37.5q44 0 88 9t88 30t77 52t53.5 79t20.5 107v127l-308 -83q-96 -26 -146.5 -64t-50.5 -107zM478 1181l81 388h198l-155 -388h-124z" />
    <glyph glyph-name="acircumflex" unicode="&#xe2;" horiz-adv-x="1100" 
d="M439 -20q-143 0 -237 76.5t-94 215.5q0 59 19.5 106t48.5 77.5t79.5 56.5t93 41t108.5 33l338 89q-9 116 -82 179t-183 63q-102 0 -172 -44.5t-130 -143.5l-139 80q148 271 455 271q200 0 317.5 -110.5t117.5 -317.5v-652h-175v159q-61 -87 -157 -133t-208 -46zM234 1181
l214 388h189l212 -388h-164l-141 276l-144 -276h-166zM291 282q0 -75 49 -112.5t129 -37.5q44 0 88 9t88 30t77 52t53.5 79t20.5 107v127l-308 -83q-96 -26 -146.5 -64t-50.5 -107z" />
    <glyph glyph-name="atilde" unicode="&#xe3;" horiz-adv-x="1100" 
d="M439 -20q-143 0 -237 76.5t-94 215.5q0 59 19.5 106t48.5 77.5t79.5 56.5t93 41t108.5 33l338 89q-9 116 -82 179t-183 63q-102 0 -172 -44.5t-130 -143.5l-139 80q148 271 455 271q200 0 317.5 -110.5t117.5 -317.5v-652h-175v159q-61 -87 -157 -133t-208 -46zM205 1315
q0 82 48 133.5t129 51.5q50 0 108 -25.5t107 -51t77 -25.5q30 0 47 19t17 50q0 16 -7 46l131 28q20 -55 20 -100q0 -82 -48 -133.5t-128 -51.5q-50 0 -109 26t-108.5 52t-77.5 26q-30 0 -46.5 -19t-16.5 -52q0 -20 7 -44l-136 -27q-14 54 -14 97zM291 282q0 -75 49 -112.5
t129 -37.5q44 0 88 9t88 30t77 52t53.5 79t20.5 107v127l-308 -83q-96 -26 -146.5 -64t-50.5 -107z" />
    <glyph glyph-name="adieresis" unicode="&#xe4;" horiz-adv-x="1100" 
d="M439 -20q-143 0 -237 76.5t-94 215.5q0 59 19.5 106t48.5 77.5t79.5 56.5t93 41t108.5 33l338 89q-9 116 -82 179t-183 63q-102 0 -172 -44.5t-130 -143.5l-139 80q148 271 455 271q200 0 317.5 -110.5t117.5 -317.5v-652h-175v159q-61 -87 -157 -133t-208 -46zM229 1359
q0 51 34.5 84t82.5 33q49 0 82.5 -32.5t33.5 -84.5q0 -51 -33.5 -83.5t-82.5 -32.5t-83 32.5t-34 83.5zM291 282q0 -75 49 -112.5t129 -37.5q44 0 88 9t88 30t77 52t53.5 79t20.5 107v127l-308 -83q-96 -26 -146.5 -64t-50.5 -107zM624 1359q0 51 34 84t83 33q50 0 83 -32.5
t33 -84.5t-33 -84t-83 -32q-49 0 -83 32.5t-34 83.5z" />
    <glyph glyph-name="aring" unicode="&#xe5;" horiz-adv-x="1100" 
d="M439 -20q-143 0 -237 76.5t-94 215.5q0 59 19.5 106t48.5 77.5t79.5 56.5t93 41t108.5 33l338 89q-9 116 -82 179t-183 63q-102 0 -172 -44.5t-130 -143.5l-139 80q148 271 455 271q200 0 317.5 -110.5t117.5 -317.5v-652h-175v159q-61 -87 -157 -133t-208 -46zM264 1435
q0 96 75.5 159t203.5 63t204 -63t76 -159t-76 -159.5t-204 -63.5t-203.5 63.5t-75.5 159.5zM291 282q0 -75 49 -112.5t129 -37.5q44 0 88 9t88 30t77 52t53.5 79t20.5 107v127l-308 -83q-96 -26 -146.5 -64t-50.5 -107zM424 1435q0 -46 30.5 -72.5t86.5 -26.5q57 0 87 26
t30 73t-30 73t-87 26q-56 0 -86.5 -26.5t-30.5 -72.5z" />
    <glyph glyph-name="ae" unicode="&#xe6;" horiz-adv-x="1910" 
d="M1332 -20q-149 0 -265 67.5t-176 197.5q-48 -127 -166.5 -196t-260.5 -69q-156 0 -256 75.5t-100 207.5q0 48 12 87t38 68t54.5 51t72.5 40.5t81 30t91 26.5l340 89q-3 125 -78 193.5t-191 68.5q-100 0 -169.5 -44.5t-130.5 -143.5l-139 81q147 270 452 270
q137 0 230.5 -60.5t135.5 -174.5q63 116 175.5 175.5t255.5 59.5q103 0 189 -32t152.5 -95t104 -166t37.5 -236v-50h-840q4 -93 34 -163.5t78 -112t105 -62t121 -20.5q116 0 195 43.5t140 142.5l147 -75q-154 -274 -469 -274zM291 272q0 -68 51.5 -104t137.5 -36
q59 0 112.5 15t101 46t75.5 87t28 129v107l-309 -83q-96 -25 -146.5 -60.5t-50.5 -100.5zM991 641h641q-20 140 -100 208t-205 68q-120 0 -214 -69t-122 -207z" />
    <glyph glyph-name="ccedilla" unicode="&#xe7;" horiz-adv-x="1181" 
d="M380 -388l148 374q-90 13 -168 52.5t-139.5 105t-97 165t-35.5 221.5q0 136 44 243.5t118.5 173t166.5 99.5t194 34q181 0 314.5 -89.5t181.5 -263.5l-180 -43q-34 117 -120 174t-196 57q-67 0 -126 -21.5t-107.5 -66t-77 -121t-28.5 -176.5t28.5 -176.5t77 -121
t107.5 -66t126 -21.5q111 0 197 57t119 174l180 -43q-45 -163 -166 -252t-287 -100l-76 -369h-198z" />
    <glyph glyph-name="egrave" unicode="&#xe8;" horiz-adv-x="1201" 
d="M609 -20q-102 0 -194 34.5t-166 100.5t-117.5 173t-43.5 242t45 242.5t120.5 173t169 100t196.5 34.5q107 0 195.5 -32t156 -95t105 -165.5t37.5 -236.5v-50h-840q4 -93 33.5 -163.5t77.5 -112t105 -62t121 -20.5q114 0 193 44.5t142 143.5l147 -77q-152 -274 -483 -274z
M283 641h640q-20 140 -99.5 208t-204.5 68q-78 0 -144.5 -27t-119.5 -91t-72 -158zM404 1569h198l80 -388h-124z" />
    <glyph glyph-name="eacute" unicode="&#xe9;" horiz-adv-x="1201" 
d="M609 -20q-102 0 -194 34.5t-166 100.5t-117.5 173t-43.5 242t45 242.5t120.5 173t169 100t196.5 34.5q107 0 195.5 -32t156 -95t105 -165.5t37.5 -236.5v-50h-840q4 -93 33.5 -163.5t77.5 -112t105 -62t121 -20.5q114 0 193 44.5t142 143.5l147 -77q-152 -274 -483 -274z
M283 641h640q-20 140 -99.5 208t-204.5 68q-78 0 -144.5 -27t-119.5 -91t-72 -158zM554 1181l81 388h198l-155 -388h-124z" />
    <glyph glyph-name="ecircumflex" unicode="&#xea;" horiz-adv-x="1201" 
d="M609 -20q-102 0 -194 34.5t-166 100.5t-117.5 173t-43.5 242t45 242.5t120.5 173t169 100t196.5 34.5q107 0 195.5 -32t156 -95t105 -165.5t37.5 -236.5v-50h-840q4 -93 33.5 -163.5t77.5 -112t105 -62t121 -20.5q114 0 193 44.5t142 143.5l147 -77q-152 -274 -483 -274z
M283 641h640q-20 140 -99.5 208t-204.5 68q-78 0 -144.5 -27t-119.5 -91t-72 -158zM310 1181l214 388h189l212 -388h-164l-141 276l-144 -276h-166z" />
    <glyph glyph-name="edieresis" unicode="&#xeb;" horiz-adv-x="1201" 
d="M609 -20q-102 0 -194 34.5t-166 100.5t-117.5 173t-43.5 242t45 242.5t120.5 173t169 100t196.5 34.5q107 0 195.5 -32t156 -95t105 -165.5t37.5 -236.5v-50h-840q4 -93 33.5 -163.5t77.5 -112t105 -62t121 -20.5q114 0 193 44.5t142 143.5l147 -77q-152 -274 -483 -274z
M283 641h640q-20 140 -99.5 208t-204.5 68q-78 0 -144.5 -27t-119.5 -91t-72 -158zM305 1359q0 51 34.5 84t82.5 33q49 0 82.5 -32.5t33.5 -84.5q0 -51 -33.5 -83.5t-82.5 -32.5t-83 32.5t-34 83.5zM700 1359q0 51 34 84t83 33q50 0 83 -32.5t33 -84.5t-33 -84t-83 -32
q-49 0 -83 32.5t-34 83.5z" />
    <glyph glyph-name="igrave" unicode="&#xec;" horiz-adv-x="460" 
d="M138 0v1060h184v-1060h-184zM15 1569h198l80 -388h-124z" />
    <glyph glyph-name="iacute" unicode="&#xed;" horiz-adv-x="460" 
d="M138 0v1060h184v-1060h-184zM165 1181l81 388h198l-155 -388h-124z" />
    <glyph glyph-name="icircumflex" unicode="&#xee;" horiz-adv-x="460" 
d="M138 0v1060h184v-1060h-184zM-79 1181l214 388h189l212 -388h-164l-141 276l-144 -276h-166z" />
    <glyph glyph-name="idieresis" unicode="&#xef;" horiz-adv-x="460" 
d="M138 0v1060h184v-1060h-184zM-84 1359q0 51 34.5 84t82.5 33q49 0 82.5 -32.5t33.5 -84.5q0 -51 -33.5 -83.5t-82.5 -32.5t-83 32.5t-34 83.5zM311 1359q0 51 34 84t83 33q50 0 83 -32.5t33 -84.5t-33 -84t-83 -32q-49 0 -83 32.5t-34 83.5z" />
    <glyph glyph-name="eth" unicode="&#xf0;" horiz-adv-x="1206" 
d="M569 -20q-93 0 -178.5 32.5t-153.5 91.5t-108.5 151.5t-40.5 204.5q0 111 40.5 203.5t108.5 152t153.5 92t177.5 32.5q108 0 200.5 -40.5t152.5 -117.5q-40 302 -289 462l-419 -186l-59 133l309 136q-136 51 -309 76l31 160q282 -35 483 -145l324 143l59 -131l-241 -107
q308 -250 308 -707q0 -169 -41 -293.5t-116.5 -198.5t-173 -109t-218.5 -35zM269 460q0 -153 93.5 -234t226.5 -81q63 0 120 19.5t102.5 57t72 99t26.5 139.5t-26.5 139.5t-72 99t-102.5 56.5t-120 19t-119 -19t-101.5 -56.5t-72.5 -99t-27 -139.5z" />
    <glyph glyph-name="ntilde" unicode="&#xf1;" horiz-adv-x="1168" 
d="M864 0v634q0 128 -75.5 205t-202.5 77q-125 0 -201.5 -76.5t-76.5 -202.5v-637h-183v1060h180v-147q55 78 139.5 122.5t188.5 44.5q191 0 303 -117.5t112 -318.5v-644h-184zM238 1315q0 82 48 133.5t129 51.5q50 0 108 -25.5t107 -51t77 -25.5q30 0 47 19t17 50
q0 16 -7 46l131 28q20 -55 20 -100q0 -82 -48 -133.5t-128 -51.5q-50 0 -109 26t-108.5 52t-77.5 26q-30 0 -46.5 -19t-16.5 -52q0 -20 7 -44l-136 -27q-14 54 -14 97z" />
    <glyph glyph-name="ograve" unicode="&#xf2;" horiz-adv-x="1216" 
d="M607 -20q-102 0 -193.5 34.5t-165 100.5t-117 173t-43.5 242t43.5 242t117 173t165 100.5t193.5 34.5t194 -34.5t165.5 -100.5t117.5 -173t44 -242t-44 -242t-117.5 -173t-165.5 -100.5t-194 -34.5zM272 530q0 -100 28 -176.5t76.5 -120.5t106.5 -66t124 -22
q67 0 125.5 22t107 66t76.5 120.5t28 176.5t-28 176.5t-76.5 120.5t-107 66t-125.5 22q-66 0 -124 -22t-106.5 -66t-76.5 -120.5t-28 -176.5zM394 1569h198l80 -388h-124z" />
    <glyph glyph-name="oacute" unicode="&#xf3;" horiz-adv-x="1216" 
d="M607 -20q-102 0 -193.5 34.5t-165 100.5t-117 173t-43.5 242t43.5 242t117 173t165 100.5t193.5 34.5t194 -34.5t165.5 -100.5t117.5 -173t44 -242t-44 -242t-117.5 -173t-165.5 -100.5t-194 -34.5zM272 530q0 -100 28 -176.5t76.5 -120.5t106.5 -66t124 -22
q67 0 125.5 22t107 66t76.5 120.5t28 176.5t-28 176.5t-76.5 120.5t-107 66t-125.5 22q-66 0 -124 -22t-106.5 -66t-76.5 -120.5t-28 -176.5zM544 1181l81 388h198l-155 -388h-124z" />
    <glyph glyph-name="ocircumflex" unicode="&#xf4;" horiz-adv-x="1216" 
d="M607 -20q-102 0 -193.5 34.5t-165 100.5t-117 173t-43.5 242t43.5 242t117 173t165 100.5t193.5 34.5t194 -34.5t165.5 -100.5t117.5 -173t44 -242t-44 -242t-117.5 -173t-165.5 -100.5t-194 -34.5zM272 530q0 -100 28 -176.5t76.5 -120.5t106.5 -66t124 -22
q67 0 125.5 22t107 66t76.5 120.5t28 176.5t-28 176.5t-76.5 120.5t-107 66t-125.5 22q-66 0 -124 -22t-106.5 -66t-76.5 -120.5t-28 -176.5zM300 1181l214 388h189l212 -388h-164l-141 276l-144 -276h-166z" />
    <glyph glyph-name="otilde" unicode="&#xf5;" horiz-adv-x="1216" 
d="M607 -20q-102 0 -193.5 34.5t-165 100.5t-117 173t-43.5 242t43.5 242t117 173t165 100.5t193.5 34.5t194 -34.5t165.5 -100.5t117.5 -173t44 -242t-44 -242t-117.5 -173t-165.5 -100.5t-194 -34.5zM271 1315q0 82 48 133.5t129 51.5q50 0 108 -25.5t107 -51t77 -25.5
q30 0 47 19t17 50q0 16 -7 46l131 28q20 -55 20 -100q0 -82 -48 -133.5t-128 -51.5q-50 0 -109 26t-108.5 52t-77.5 26q-30 0 -46.5 -19t-16.5 -52q0 -20 7 -44l-136 -27q-14 54 -14 97zM272 530q0 -100 28 -176.5t76.5 -120.5t106.5 -66t124 -22q67 0 125.5 22t107 66
t76.5 120.5t28 176.5t-28 176.5t-76.5 120.5t-107 66t-125.5 22q-66 0 -124 -22t-106.5 -66t-76.5 -120.5t-28 -176.5z" />
    <glyph glyph-name="odieresis" unicode="&#xf6;" horiz-adv-x="1216" 
d="M607 -20q-102 0 -193.5 34.5t-165 100.5t-117 173t-43.5 242t43.5 242t117 173t165 100.5t193.5 34.5t194 -34.5t165.5 -100.5t117.5 -173t44 -242t-44 -242t-117.5 -173t-165.5 -100.5t-194 -34.5zM272 530q0 -100 28 -176.5t76.5 -120.5t106.5 -66t124 -22
q67 0 125.5 22t107 66t76.5 120.5t28 176.5t-28 176.5t-76.5 120.5t-107 66t-125.5 22q-66 0 -124 -22t-106.5 -66t-76.5 -120.5t-28 -176.5zM295 1359q0 51 34.5 84t82.5 33q49 0 82.5 -32.5t33.5 -84.5q0 -51 -33.5 -83.5t-82.5 -32.5t-83 32.5t-34 83.5zM690 1359
q0 51 34 84t83 33q50 0 83 -32.5t33 -84.5t-33 -84t-83 -32q-49 0 -83 32.5t-34 83.5z" />
    <glyph glyph-name="divide" unicode="&#xf7;" horiz-adv-x="1065" 
d="M533 978q-53 0 -89.5 35t-36.5 91t36.5 91t89.5 35q54 0 90.5 -35t36.5 -91t-36.5 -91t-90.5 -35zM61 592v159h943v-159h-943zM407 219q0 56 36.5 91t89.5 35q54 0 90.5 -35t36.5 -91t-36.5 -91t-90.5 -35q-53 0 -89.5 35t-36.5 91z" />
    <glyph glyph-name="oslash" unicode="&#xf8;" horiz-adv-x="1199" 
d="M214 -14l-107 96l85 97q-104 143 -104 351q0 135 43.5 242t117 173t165 100.5t193.5 34.5q169 0 300 -88l77 88l109 -96l-80 -89q115 -144 115 -365q0 -135 -44 -242t-117.5 -173t-165.5 -100.5t-194 -34.5q-180 0 -314 98zM272 530q0 -137 53 -230l465 565
q-77 50 -183 50q-66 0 -124 -22t-106.5 -66t-76.5 -120.5t-28 -176.5zM410 205q83 -60 197 -60q67 0 125.5 22t107 66t76.5 120.5t28 176.5q0 150 -63 245z" />
    <glyph glyph-name="ugrave" unicode="&#xf9;" horiz-adv-x="1168" 
d="M304 1060v-634q0 -128 75.5 -205t202.5 -77q125 0 201.5 76.5t76.5 202.5v637h183v-1060h-180v147q-55 -78 -139.5 -122.5t-188.5 -44.5q-191 0 -303 117.5t-112 318.5v644h184zM366 1569h198l80 -388h-124z" />
    <glyph glyph-name="uacute" unicode="&#xfa;" horiz-adv-x="1168" 
d="M304 1060v-634q0 -128 75.5 -205t202.5 -77q125 0 201.5 76.5t76.5 202.5v637h183v-1060h-180v147q-55 -78 -139.5 -122.5t-188.5 -44.5q-191 0 -303 117.5t-112 318.5v644h184zM516 1181l81 388h198l-155 -388h-124z" />
    <glyph glyph-name="ucircumflex" unicode="&#xfb;" horiz-adv-x="1168" 
d="M304 1060v-634q0 -128 75.5 -205t202.5 -77q125 0 201.5 76.5t76.5 202.5v637h183v-1060h-180v147q-55 -78 -139.5 -122.5t-188.5 -44.5q-191 0 -303 117.5t-112 318.5v644h184zM272 1181l214 388h189l212 -388h-164l-141 276l-144 -276h-166z" />
    <glyph glyph-name="udieresis" unicode="&#xfc;" horiz-adv-x="1168" 
d="M304 1060v-634q0 -128 75.5 -205t202.5 -77q125 0 201.5 76.5t76.5 202.5v637h183v-1060h-180v147q-55 -78 -139.5 -122.5t-188.5 -44.5q-191 0 -303 117.5t-112 318.5v644h184zM267 1359q0 51 34.5 84t82.5 33q49 0 82.5 -32.5t33.5 -84.5q0 -51 -33.5 -83.5
t-82.5 -32.5t-83 32.5t-34 83.5zM662 1359q0 51 34 84t83 33q50 0 83 -32.5t33 -84.5t-33 -84t-83 -32q-49 0 -83 32.5t-34 83.5z" />
    <glyph glyph-name="yacute" unicode="&#xfd;" horiz-adv-x="1163" 
d="M530 -475q-380 0 -533 338l155 81q61 -131 152 -192t223 -61q154 0 237 91t83 258v113q-57 -77 -141.5 -117.5t-186.5 -40.5q-191 0 -301 117t-110 321v627h184v-623q0 -136 70 -210t198 -74q132 0 209.5 75t77.5 204v628h184v-1020q0 -241 -133.5 -378t-367.5 -137z
M522 1181l81 388h198l-155 -388h-124z" />
    <glyph glyph-name="thorn" unicode="&#xfe;" horiz-adv-x="1253" 
d="M125 -455v1998h183v-654q63 93 158.5 142t206.5 49q74 0 144 -21t133.5 -66t111 -108.5t75.5 -155t28 -199.5t-28 -199.5t-75.5 -155t-111 -108.5t-133.5 -66t-144 -21q-111 0 -206.5 49t-158.5 142v-626h-183zM308 530q0 -98 28.5 -173.5t76.5 -120.5t107 -68t124 -23
q66 0 125 23t107 68t76.5 120.5t28.5 173.5t-28.5 173.5t-76.5 120.5t-107 68t-125 23q-65 0 -124 -23t-107 -68t-76.5 -120.5t-28.5 -173.5z" />
    <glyph glyph-name="ydieresis" unicode="&#xff;" horiz-adv-x="1163" 
d="M530 -475q-380 0 -533 338l155 81q61 -131 152 -192t223 -61q154 0 237 91t83 258v113q-57 -77 -141.5 -117.5t-186.5 -40.5q-191 0 -301 117t-110 321v627h184v-623q0 -136 70 -210t198 -74q132 0 209.5 75t77.5 204v628h184v-1020q0 -241 -133.5 -378t-367.5 -137z
M273 1359q0 51 34.5 84t82.5 33q49 0 82.5 -32.5t33.5 -84.5q0 -51 -33.5 -83.5t-82.5 -32.5t-83 32.5t-34 83.5zM668 1359q0 51 34 84t83 33q50 0 83 -32.5t33 -84.5t-33 -84t-83 -32q-49 0 -83 32.5t-34 83.5z" />
    <glyph glyph-name="Amacron" unicode="&#x100;" horiz-adv-x="1415" 
d="M52 0l561 1465h192l559 -1465h-202l-124 333h-666l-124 -333h-196zM369 1714v159h681v-159h-681zM434 499h542l-271 726z" />
    <glyph glyph-name="amacron" unicode="&#x101;" horiz-adv-x="1100" 
d="M439 -20q-143 0 -237 76.5t-94 215.5q0 59 19.5 106t48.5 77.5t79.5 56.5t93 41t108.5 33l338 89q-9 116 -82 179t-183 63q-102 0 -172 -44.5t-130 -143.5l-139 80q148 271 455 271q200 0 317.5 -110.5t117.5 -317.5v-652h-175v159q-61 -87 -157 -133t-208 -46zM203 1309
v159h681v-159h-681zM291 282q0 -75 49 -112.5t129 -37.5q44 0 88 9t88 30t77 52t53.5 79t20.5 107v127l-308 -83q-96 -26 -146.5 -64t-50.5 -107z" />
    <glyph glyph-name="Abreve" unicode="&#x102;" horiz-adv-x="1415" 
d="M52 0l561 1465h192l559 -1465h-202l-124 333h-666l-124 -333h-196zM431 1817q0 39 24 102l141 -40q-9 -32 -9 -59q0 -52 31.5 -82t90.5 -30q58 0 89.5 30.5t31.5 82.5q0 28 -9 58l143 42q23 -64 23 -104q0 -98 -77.5 -166t-200.5 -68t-200.5 68t-77.5 166zM434 499h542
l-271 726z" />
    <glyph glyph-name="abreve" unicode="&#x103;" horiz-adv-x="1100" 
d="M439 -20q-143 0 -237 76.5t-94 215.5q0 59 19.5 106t48.5 77.5t79.5 56.5t93 41t108.5 33l338 89q-9 116 -82 179t-183 63q-102 0 -172 -44.5t-130 -143.5l-139 80q148 271 455 271q200 0 317.5 -110.5t117.5 -317.5v-652h-175v159q-61 -87 -157 -133t-208 -46zM265 1412
q0 39 24 102l141 -40q-9 -32 -9 -59q0 -52 31.5 -82t90.5 -30q58 0 89.5 30.5t31.5 82.5q0 28 -9 58l143 42q23 -64 23 -104q0 -98 -77.5 -166t-200.5 -68t-200.5 68t-77.5 166zM291 282q0 -75 49 -112.5t129 -37.5q44 0 88 9t88 30t77 52t53.5 79t20.5 107v127l-308 -83
q-96 -26 -146.5 -64t-50.5 -107z" />
    <glyph glyph-name="Aogonek" unicode="&#x104;" horiz-adv-x="1415" 
d="M1231 -403q-110 0 -169.5 49.5t-59.5 131.5q0 58 41 116.5t118 107.5l-123 331h-666l-124 -333h-196l561 1465h192l559 -1465q-125 -73 -169.5 -120.5t-44.5 -94.5q0 -29 22.5 -47.5t59.5 -18.5q67 0 117 52l91 -81q-87 -90 -209 -93zM434 499h542l-271 728z" />
    <glyph glyph-name="aogonek" unicode="&#x105;" horiz-adv-x="1100" 
d="M846 -403q-110 0 -169.5 49.5t-59.5 131.5q0 62 48.5 125.5t138.5 116.5v138q-61 -87 -157 -132.5t-208 -45.5q-143 0 -237 76.5t-94 215.5q0 59 19.5 106t48.5 77.5t79.5 56.5t93 41t108.5 33l338 89q-9 116 -82 179t-183 63q-102 0 -172 -44.5t-130 -143.5l-139 80
q148 271 455 271q200 0 317.5 -110.5t117.5 -317.5v-652q-124 -73 -168.5 -120.5t-44.5 -94.5q0 -29 22.5 -47.5t59.5 -18.5q65 0 117 52l90 -81q-84 -90 -209 -93zM291 282q0 -75 49 -112.5t129 -37.5q44 0 88 9t88 30t77 52t53.5 79t20.5 107v127l-308 -83
q-96 -26 -146.5 -64t-50.5 -107z" />
    <glyph glyph-name="Cacute" unicode="&#x106;" horiz-adv-x="1545" 
d="M787 -20q-197 0 -352 95.5t-241.5 267.5t-86.5 390t86.5 390t241.5 267.5t352 95.5q237 0 401 -127t228 -344l-177 -44q-51 160 -166.5 252.5t-285.5 92.5q-221 0 -357 -161t-136 -422t136 -422.5t357 -161.5q170 0 286.5 93.5t167.5 255.5l175 -45q-63 -219 -227 -346
t-402 -127zM724 1586l81 388h198l-155 -388h-124z" />
    <glyph glyph-name="cacute" unicode="&#x107;" horiz-adv-x="1181" 
d="M611 -20q-102 0 -194 34t-166.5 99.5t-118.5 173t-44 243.5t44 243.5t118.5 173t166.5 99.5t194 34q181 0 314.5 -89.5t181.5 -263.5l-180 -43q-34 117 -120 174t-196 57q-67 0 -126 -21.5t-107.5 -66t-77 -121t-28.5 -176.5t28.5 -176.5t77 -121t107.5 -66t126 -21.5
q111 0 197 57t119 174l180 -43q-48 -174 -181.5 -263.5t-314.5 -89.5zM531 1181l81 388h198l-155 -388h-124z" />
    <glyph glyph-name="Ccircumflex" unicode="&#x108;" horiz-adv-x="1545" 
d="M787 -20q-197 0 -352 95.5t-241.5 267.5t-86.5 390t86.5 390t241.5 267.5t352 95.5q237 0 401 -127t228 -344l-177 -44q-51 160 -166.5 252.5t-285.5 92.5q-221 0 -357 -161t-136 -422t136 -422.5t357 -161.5q170 0 286.5 93.5t167.5 255.5l175 -45q-63 -219 -227 -346
t-402 -127zM480 1586l214 388h189l212 -388h-164l-141 276l-144 -276h-166z" />
    <glyph glyph-name="ccircumflex" unicode="&#x109;" horiz-adv-x="1181" 
d="M611 -20q-102 0 -194 34t-166.5 99.5t-118.5 173t-44 243.5t44 243.5t118.5 173t166.5 99.5t194 34q181 0 314.5 -89.5t181.5 -263.5l-180 -43q-34 117 -120 174t-196 57q-67 0 -126 -21.5t-107.5 -66t-77 -121t-28.5 -176.5t28.5 -176.5t77 -121t107.5 -66t126 -21.5
q111 0 197 57t119 174l180 -43q-48 -174 -181.5 -263.5t-314.5 -89.5zM287 1181l214 388h189l212 -388h-164l-141 276l-144 -276h-166z" />
    <glyph glyph-name="Cdotaccent" unicode="&#x10a;" horiz-adv-x="1545" 
d="M787 -20q-197 0 -352 95.5t-241.5 267.5t-86.5 390t86.5 390t241.5 267.5t352 95.5q237 0 401 -127t228 -344l-177 -44q-51 160 -166.5 252.5t-285.5 92.5q-221 0 -357 -161t-136 -422t136 -422.5t357 -161.5q170 0 286.5 93.5t167.5 255.5l175 -45q-63 -219 -227 -346
t-402 -127zM666 1764q0 54 35.5 88.5t87.5 34.5q53 0 88.5 -34t35.5 -89t-35.5 -89.5t-88.5 -34.5q-52 0 -87.5 34.5t-35.5 89.5z" />
    <glyph glyph-name="cdotaccent" unicode="&#x10b;" horiz-adv-x="1181" 
d="M611 -20q-102 0 -194 34t-166.5 99.5t-118.5 173t-44 243.5t44 243.5t118.5 173t166.5 99.5t194 34q181 0 314.5 -89.5t181.5 -263.5l-180 -43q-34 117 -120 174t-196 57q-67 0 -126 -21.5t-107.5 -66t-77 -121t-28.5 -176.5t28.5 -176.5t77 -121t107.5 -66t126 -21.5
q111 0 197 57t119 174l180 -43q-48 -174 -181.5 -263.5t-314.5 -89.5zM473 1359q0 54 35.5 88.5t87.5 34.5q53 0 88.5 -34t35.5 -89t-35.5 -89.5t-88.5 -34.5q-52 0 -87.5 34.5t-35.5 89.5z" />
    <glyph glyph-name="Ccaron" unicode="&#x10c;" horiz-adv-x="1545" 
d="M787 -20q-197 0 -352 95.5t-241.5 267.5t-86.5 390t86.5 390t241.5 267.5t352 95.5q237 0 401 -127t228 -344l-177 -44q-51 160 -166.5 252.5t-285.5 92.5q-221 0 -357 -161t-136 -422t136 -422.5t357 -161.5q170 0 286.5 93.5t167.5 255.5l175 -45q-63 -219 -227 -346
t-402 -127zM478 1974h164l141 -276l144 276h166l-214 -388h-189z" />
    <glyph glyph-name="ccaron" unicode="&#x10d;" horiz-adv-x="1181" 
d="M611 -20q-102 0 -194 34t-166.5 99.5t-118.5 173t-44 243.5t44 243.5t118.5 173t166.5 99.5t194 34q181 0 314.5 -89.5t181.5 -263.5l-180 -43q-34 117 -120 174t-196 57q-67 0 -126 -21.5t-107.5 -66t-77 -121t-28.5 -176.5t28.5 -176.5t77 -121t107.5 -66t126 -21.5
q111 0 197 57t119 174l180 -43q-48 -174 -181.5 -263.5t-314.5 -89.5zM285 1569h164l141 -276l144 276h166l-214 -388h-189z" />
    <glyph glyph-name="Dcaron" unicode="&#x10e;" horiz-adv-x="1442" 
d="M154 0v1465h525q192 0 342 -93t232 -259.5t82 -379.5t-82 -380t-232 -260t-342 -93h-525zM339 1974h164l141 -276l144 276h166l-214 -388h-189zM342 169h337q214 0 341 156t127 408t-127 407.5t-341 155.5h-337v-1127z" />
    <glyph glyph-name="dcaron" unicode="&#x10f;" horiz-adv-x="1259" 
d="M580 -20q-74 0 -144 21t-133.5 66t-111 108.5t-75.5 155t-28 199.5t28 199.5t75.5 155t111 108.5t133.5 66t144 21q110 0 205.5 -48.5t158.5 -141.5v653h184v-1543h-173v187q-62 -100 -160.5 -153.5t-214.5 -53.5zM272 530q0 -98 28 -173.5t76 -120.5t107 -68t126 -23
q65 0 124 23t107 68t76 120.5t28 173.5t-28 173.5t-76 120.5t-107 68t-124 23q-67 0 -126 -23t-107 -68t-76 -120.5t-28 -173.5zM1250 1122l21 421h182l-65 -421h-138z" />
    <glyph glyph-name="Dcroat" unicode="&#x110;" horiz-adv-x="1439" 
d="M154 0v649h-209v169h209v647h525q192 0 342 -93t232 -259.5t82 -379.5t-82 -380t-232 -260t-342 -93h-525zM342 169h337q214 0 341 156t127 408t-127 407.5t-341 155.5h-337v-478h306v-169h-306v-480z" />
    <glyph glyph-name="dcroat" unicode="&#x111;" horiz-adv-x="1259" 
d="M580 -20q-74 0 -144 21t-133.5 66t-111 108.5t-75.5 155t-28 199.5t28 199.5t75.5 155t111 108.5t133.5 66t144 21q110 0 205.5 -48.5t158.5 -141.5v343h-320v142h320v168h184v-168h183v-142h-183v-1233h-173v187q-62 -100 -160.5 -153.5t-214.5 -53.5zM272 530
q0 -98 28 -173.5t76 -120.5t107 -68t126 -23q65 0 124 23t107 68t76 120.5t28 173.5t-28 173.5t-76 120.5t-107 68t-124 23q-67 0 -126 -23t-107 -68t-76 -120.5t-28 -173.5z" />
    <glyph glyph-name="Emacron" unicode="&#x112;" horiz-adv-x="1314" 
d="M154 0v1465h987v-167h-799v-459h727v-168h-727v-503h840v-168h-1028zM316 1714v159h681v-159h-681z" />
    <glyph glyph-name="emacron" unicode="&#x113;" horiz-adv-x="1201" 
d="M609 -20q-102 0 -194 34.5t-166 100.5t-117.5 173t-43.5 242t45 242.5t120.5 173t169 100t196.5 34.5q107 0 195.5 -32t156 -95t105 -165.5t37.5 -236.5v-50h-840q4 -93 33.5 -163.5t77.5 -112t105 -62t121 -20.5q114 0 193 44.5t142 143.5l147 -77q-152 -274 -483 -274z
M279 1309v159h681v-159h-681zM283 641h640q-20 140 -99.5 208t-204.5 68q-78 0 -144.5 -27t-119.5 -91t-72 -158z" />
    <glyph glyph-name="Edotaccent" unicode="&#x116;" horiz-adv-x="1314" 
d="M154 0v1465h987v-167h-799v-459h727v-168h-727v-503h840v-168h-1028zM533 1764q0 54 35.5 88.5t87.5 34.5q53 0 88.5 -34t35.5 -89t-35.5 -89.5t-88.5 -34.5q-52 0 -87.5 34.5t-35.5 89.5z" />
    <glyph glyph-name="edotaccent" unicode="&#x117;" horiz-adv-x="1201" 
d="M609 -20q-102 0 -194 34.5t-166 100.5t-117.5 173t-43.5 242t45 242.5t120.5 173t169 100t196.5 34.5q107 0 195.5 -32t156 -95t105 -165.5t37.5 -236.5v-50h-840q4 -93 33.5 -163.5t77.5 -112t105 -62t121 -20.5q114 0 193 44.5t142 143.5l147 -77q-152 -274 -483 -274z
M283 641h640q-20 140 -99.5 208t-204.5 68q-78 0 -144.5 -27t-119.5 -91t-72 -158zM496 1359q0 54 35.5 88.5t87.5 34.5q53 0 88.5 -34t35.5 -89t-35.5 -89.5t-88.5 -34.5q-52 0 -87.5 34.5t-35.5 89.5z" />
    <glyph glyph-name="Eogonek" unicode="&#x118;" horiz-adv-x="1314" 
d="M947 -403q-110 0 -169.5 49.5t-59.5 131.5q0 58 39.5 115.5t115.5 106.5h-719v1465h987v-167h-799v-459h727v-168h-727v-503h840v-168h-107q-122 -75 -165.5 -122t-43.5 -93q0 -29 22.5 -47.5t59.5 -18.5q67 0 117 52l91 -81q-87 -90 -209 -93z" />
    <glyph glyph-name="eogonek" unicode="&#x119;" horiz-adv-x="1201" 
d="M703 -403q-110 0 -169.5 49.5t-59.5 131.5q0 106 127 202q-101 2 -192 37t-163.5 101t-115 172.5t-42.5 239.5q0 135 45 242.5t120.5 173t169 100t196.5 34.5q107 0 195.5 -32t156 -95t105 -165.5t37.5 -236.5v-50h-840q4 -93 33.5 -163.5t77.5 -112t105 -62t121 -20.5
q114 0 193 44.5t142 143.5l147 -77q-66 -117 -180 -194l-89 -60q-117 -78 -159 -124t-42 -91q0 -29 23 -47.5t60 -18.5q66 0 116 52l91 -81q-86 -90 -209 -93zM283 641h640q-20 140 -99.5 208t-204.5 68q-78 0 -144.5 -27t-119.5 -91t-72 -158z" />
    <glyph glyph-name="Ecaron" unicode="&#x11a;" horiz-adv-x="1314" 
d="M154 0v1465h987v-167h-799v-459h727v-168h-727v-503h840v-168h-1028zM345 1974h164l141 -276l144 276h166l-214 -388h-189z" />
    <glyph glyph-name="ecaron" unicode="&#x11b;" horiz-adv-x="1201" 
d="M609 -20q-102 0 -194 34.5t-166 100.5t-117.5 173t-43.5 242t45 242.5t120.5 173t169 100t196.5 34.5q107 0 195.5 -32t156 -95t105 -165.5t37.5 -236.5v-50h-840q4 -93 33.5 -163.5t77.5 -112t105 -62t121 -20.5q114 0 193 44.5t142 143.5l147 -77q-152 -274 -483 -274z
M283 641h640q-20 140 -99.5 208t-204.5 68q-78 0 -144.5 -27t-119.5 -91t-72 -158zM308 1569h164l141 -276l144 276h166l-214 -388h-189z" />
    <glyph glyph-name="Gcircumflex" unicode="&#x11c;" horiz-adv-x="1593" 
d="M808 -20q-208 0 -368 96t-246.5 266.5t-86.5 390.5q0 219 85.5 390.5t241 267t353.5 95.5q245 0 411 -124t232 -338l-179 -48q-53 158 -171.5 249t-292.5 91q-221 0 -357 -161t-136 -422q0 -263 140 -423.5t377 -160.5q145 0 260.5 64.5t189.5 183.5v270h188v-667h-159
l-12 170q-174 -190 -470 -190zM535 1586l214 388h189l212 -388h-164l-141 276l-144 -276h-166z" />
    <glyph glyph-name="gcircumflex" unicode="&#x11d;" horiz-adv-x="1259" 
d="M568 -475q-415 0 -586 351l157 82q40 -88 91.5 -144t136 -89.5t201.5 -33.5q173 0 274.5 102t101.5 284v113q-64 -83 -157.5 -126.5t-202.5 -43.5q-74 0 -145.5 21t-135 65t-111.5 105.5t-76 149.5t-28 190t28 189.5t76 149t111.5 105t135 64.5t145.5 21q110 0 203 -43
t157 -126v149h184v-983q0 -257 -153 -404.5t-407 -147.5zM272 551q0 -93 28.5 -165t76.5 -114.5t107 -64t125 -21.5t124 21.5t106.5 64t76.5 114.5t28 165q0 74 -18.5 135.5t-50.5 103t-75 70.5t-91 42t-100 13q-66 0 -125 -21.5t-107 -64t-76.5 -114.5t-28.5 -164z
M312 1181l214 388h189l212 -388h-164l-141 276l-144 -276h-166z" />
    <glyph glyph-name="Gbreve" unicode="&#x11e;" horiz-adv-x="1593" 
d="M808 -20q-208 0 -368 96t-246.5 266.5t-86.5 390.5q0 219 85.5 390.5t241 267t353.5 95.5q245 0 411 -124t232 -338l-179 -48q-53 158 -171.5 249t-292.5 91q-221 0 -357 -161t-136 -422q0 -263 140 -423.5t377 -160.5q145 0 260.5 64.5t189.5 183.5v270h188v-667h-159
l-12 170q-174 -190 -470 -190zM566 1817q0 39 24 102l141 -40q-9 -32 -9 -59q0 -52 31.5 -82t90.5 -30q58 0 89.5 30.5t31.5 82.5q0 28 -9 58l143 42q23 -64 23 -104q0 -98 -77.5 -166t-200.5 -68t-200.5 68t-77.5 166z" />
    <glyph glyph-name="gbreve" unicode="&#x11f;" horiz-adv-x="1259" 
d="M568 -475q-415 0 -586 351l157 82q40 -88 91.5 -144t136 -89.5t201.5 -33.5q173 0 274.5 102t101.5 284v113q-64 -83 -157.5 -126.5t-202.5 -43.5q-74 0 -145.5 21t-135 65t-111.5 105.5t-76 149.5t-28 190t28 189.5t76 149t111.5 105t135 64.5t145.5 21q110 0 203 -43
t157 -126v149h184v-983q0 -257 -153 -404.5t-407 -147.5zM272 551q0 -93 28.5 -165t76.5 -114.5t107 -64t125 -21.5t124 21.5t106.5 64t76.5 114.5t28 165q0 74 -18.5 135.5t-50.5 103t-75 70.5t-91 42t-100 13q-66 0 -125 -21.5t-107 -64t-76.5 -114.5t-28.5 -164z
M343 1412q0 39 24 102l141 -40q-9 -32 -9 -59q0 -52 31.5 -82t90.5 -30q58 0 89.5 30.5t31.5 82.5q0 28 -9 58l143 42q23 -64 23 -104q0 -98 -77.5 -166t-200.5 -68t-200.5 68t-77.5 166z" />
    <glyph glyph-name="Gdotaccent" unicode="&#x120;" horiz-adv-x="1593" 
d="M808 -20q-208 0 -368 96t-246.5 266.5t-86.5 390.5q0 219 85.5 390.5t241 267t353.5 95.5q245 0 411 -124t232 -338l-179 -48q-53 158 -171.5 249t-292.5 91q-221 0 -357 -161t-136 -422q0 -263 140 -423.5t377 -160.5q145 0 260.5 64.5t189.5 183.5v270h188v-667h-159
l-12 170q-174 -190 -470 -190zM721 1764q0 54 35.5 88.5t87.5 34.5q53 0 88.5 -34t35.5 -89t-35.5 -89.5t-88.5 -34.5q-52 0 -87.5 34.5t-35.5 89.5z" />
    <glyph glyph-name="gdotaccent" unicode="&#x121;" horiz-adv-x="1259" 
d="M568 -475q-415 0 -586 351l157 82q40 -88 91.5 -144t136 -89.5t201.5 -33.5q173 0 274.5 102t101.5 284v113q-64 -83 -157.5 -126.5t-202.5 -43.5q-74 0 -145.5 21t-135 65t-111.5 105.5t-76 149.5t-28 190t28 189.5t76 149t111.5 105t135 64.5t145.5 21q110 0 203 -43
t157 -126v149h184v-983q0 -257 -153 -404.5t-407 -147.5zM272 551q0 -93 28.5 -165t76.5 -114.5t107 -64t125 -21.5t124 21.5t106.5 64t76.5 114.5t28 165q0 74 -18.5 135.5t-50.5 103t-75 70.5t-91 42t-100 13q-66 0 -125 -21.5t-107 -64t-76.5 -114.5t-28.5 -164z
M498 1359q0 54 35.5 88.5t87.5 34.5q53 0 88.5 -34t35.5 -89t-35.5 -89.5t-88.5 -34.5q-52 0 -87.5 34.5t-35.5 89.5z" />
    <glyph glyph-name="uni0122" unicode="&#x122;" horiz-adv-x="1593" 
d="M808 -20q-208 0 -368 96t-246.5 266.5t-86.5 390.5q0 219 85.5 390.5t241 267t353.5 95.5q245 0 411 -124t232 -338l-179 -48q-53 158 -171.5 249t-292.5 91q-221 0 -357 -161t-136 -422q0 -263 140 -423.5t377 -160.5q145 0 260.5 64.5t189.5 183.5v270h188v-667h-159
l-12 170q-174 -190 -470 -190zM653 -608l136 221q-33 12 -54 42.5t-21 71.5q0 55 36.5 89.5t88.5 34.5t88.5 -36t36.5 -97q0 -41 -16 -74t-53 -82l-163 -221z" />
    <glyph glyph-name="uni0123" unicode="&#x123;" horiz-adv-x="1259" 
d="M568 -475q-415 0 -586 351l157 82q40 -88 91.5 -144t136 -89.5t201.5 -33.5q173 0 274.5 102t101.5 284v113q-64 -83 -157.5 -126.5t-202.5 -43.5q-74 0 -145.5 21t-135 65t-111.5 105.5t-76 149.5t-28 190t28 189.5t76 149t111.5 105t135 64.5t145.5 21q110 0 203 -43
t157 -126v149h184v-983q0 -257 -153 -404.5t-407 -147.5zM272 551q0 -93 28.5 -165t76.5 -114.5t107 -64t125 -21.5t124 21.5t106.5 64t76.5 114.5t28 165q0 74 -18.5 135.5t-50.5 103t-75 70.5t-91 42t-100 13q-66 0 -125 -21.5t-107 -64t-76.5 -114.5t-28.5 -164z
M499 1345q0 41 16 74t53 82l163 221l80 -51l-137 -221q34 -12 55 -42t21 -72q0 -56 -36.5 -90.5t-89.5 -34.5q-52 0 -88.5 36.5t-36.5 97.5z" />
    <glyph glyph-name="Hcircumflex" unicode="&#x124;" horiz-adv-x="1458" 
d="M154 0v1465h188v-642h774v642h188v-1465h-188v653h-774v-653h-188zM434 1586l214 388h189l212 -388h-164l-141 276l-144 -276h-166z" />
    <glyph glyph-name="hcircumflex" unicode="&#x125;" horiz-adv-x="1175" 
d="M871 0v634q0 131 -77 206.5t-201 75.5q-122 0 -199.5 -75.5t-77.5 -203.5v-637h-184v1543h184v-622q54 75 137 117t186 42q193 0 304.5 -118.5t111.5 -317.5v-644h-184zM-85 1664l214 388h189l212 -388h-164l-141 276l-144 -276h-166z" />
    <glyph glyph-name="Hbar" unicode="&#x126;" horiz-adv-x="1473" 
d="M161 0v1113h-110v159h110v193h188v-193h774v193h188v-193h110v-159h-110v-1113h-188v653h-774v-653h-188zM349 823h774v290h-774v-290z" />
    <glyph glyph-name="hbar" unicode="&#x127;" horiz-adv-x="1175" 
d="M871 0v634q0 131 -77 206.5t-201 75.5q-122 0 -199.5 -75.5t-77.5 -203.5v-637h-184v1233h-130v142h130v168h184v-168h374v-142h-374v-312q54 75 137 117t186 42q193 0 304.5 -118.5t111.5 -317.5v-644h-184z" />
    <glyph glyph-name="Itilde" unicode="&#x128;" horiz-adv-x="496" 
d="M154 0v1465h188v-1465h-188zM-90 1720q0 82 48 133.5t129 51.5q50 0 108 -25.5t107 -51t77 -25.5q30 0 47 19t17 50q0 16 -7 46l131 28q20 -55 20 -100q0 -82 -48 -133.5t-128 -51.5q-50 0 -109 26t-108.5 52t-77.5 26q-30 0 -46.5 -19t-16.5 -52q0 -20 7 -44l-136 -27
q-14 54 -14 97z" />
    <glyph glyph-name="itilde" unicode="&#x129;" horiz-adv-x="460" 
d="M138 0v1060h184v-1060h-184zM-108 1315q0 82 48 133.5t129 51.5q50 0 108 -25.5t107 -51t77 -25.5q30 0 47 19t17 50q0 16 -7 46l131 28q20 -55 20 -100q0 -82 -48 -133.5t-128 -51.5q-50 0 -109 26t-108.5 52t-77.5 26q-30 0 -46.5 -19t-16.5 -52q0 -20 7 -44l-136 -27
q-14 54 -14 97z" />
    <glyph glyph-name="Imacron" unicode="&#x12a;" horiz-adv-x="496" 
d="M154 0v1465h188v-1465h-188zM-92 1714v159h681v-159h-681z" />
    <glyph glyph-name="imacron" unicode="&#x12b;" horiz-adv-x="460" 
d="M138 0v1060h184v-1060h-184zM-110 1309v159h681v-159h-681z" />
    <glyph glyph-name="Iogonek" unicode="&#x12e;" horiz-adv-x="496" 
d="M209 -403q-111 0 -170.5 49.5t-59.5 131.5q0 61 45 121.5t130 112.5v1453h188v-1465q-125 -73 -169.5 -120.5t-44.5 -94.5q0 -29 22.5 -47.5t59.5 -18.5q67 0 117 52l91 -81q-86 -90 -209 -93z" />
    <glyph glyph-name="iogonek" unicode="&#x12f;" horiz-adv-x="460" 
d="M189 -403q-110 0 -169.5 49.5t-59.5 131.5q0 61 46 122.5t132 114.5v1045h184v-1060q-124 -74 -169 -121.5t-45 -93.5q0 -29 23 -47.5t60 -18.5q66 0 116 52l91 -81q-86 -90 -209 -93zM107 1393q0 54 35.5 88.5t87.5 34.5t88 -34.5t36 -88.5q0 -55 -36 -89.5t-88 -34.5
t-87.5 34.5t-35.5 89.5z" />
    <glyph glyph-name="Idotaccent" unicode="&#x130;" horiz-adv-x="496" 
d="M154 0v1465h188v-1465h-188zM125 1764q0 54 35.5 88.5t87.5 34.5q53 0 88.5 -34t35.5 -89t-35.5 -89.5t-88.5 -34.5q-52 0 -87.5 34.5t-35.5 89.5z" />
    <glyph glyph-name="dotlessi" unicode="&#x131;" horiz-adv-x="460" 
d="M138 0v1060h184v-1060h-184z" />
    <glyph glyph-name="IJ" unicode="&#x132;" horiz-adv-x="1565" 
d="M154 0v1465h188v-1465h-188zM582 334l184 33q24 -215 228 -215q107 0 169 64.5t62 198.5v1050h186v-1052q0 -114 -32 -199t-90 -134.5t-131.5 -73t-163.5 -23.5q-170 0 -280.5 85t-131.5 266z" />
    <glyph glyph-name="ij" unicode="&#x133;" horiz-adv-x="919" 
d="M138 0v1060h184v-1060h-184zM47 -175l174 42q27 -92 74 -135t126 -43q82 0 129.5 46t47.5 144v1181h184v-1184q0 -159 -95.5 -255.5t-261.5 -96.5q-148 0 -246 77.5t-132 223.5zM107 1393q0 54 35.5 88.5t87.5 34.5t88 -34.5t36 -88.5q0 -55 -36 -89.5t-88 -34.5
t-87.5 34.5t-35.5 89.5zM566 1393q0 54 35.5 88.5t87.5 34.5t87.5 -34.5t35.5 -88.5q0 -55 -35.5 -89.5t-87.5 -34.5q-53 0 -88 34.5t-35 89.5z" />
    <glyph glyph-name="Jcircumflex" unicode="&#x134;" horiz-adv-x="1069" 
d="M498 -17q-170 0 -280.5 85t-131.5 266l184 33q24 -215 228 -215q107 0 169 64.5t62 198.5v1050h186v-1052q0 -114 -32 -199t-90 -134.5t-131.5 -73t-163.5 -23.5zM512 1586l214 388h189l212 -388h-164l-141 276l-144 -276h-166z" />
    <glyph glyph-name="jcircumflex" unicode="&#x135;" horiz-adv-x="459" 
d="M-35 -476q-148 0 -246 77.5t-132 223.5l174 42q27 -92 74 -135t126 -43q82 0 129.5 46t47.5 144v1181h184v-1184q0 -159 -95.5 -255.5t-261.5 -96.5zM-79 1181l214 388h189l212 -388h-164l-141 276l-144 -276h-166z" />
    <glyph glyph-name="uni0136" unicode="&#x136;" horiz-adv-x="1438" 
d="M154 0v1465h188v-728l717 728h248l-648 -648l707 -817h-248l-595 688l-181 -182v-506h-188zM489 -608l136 221q-33 12 -54 42.5t-21 71.5q0 55 36.5 89.5t88.5 34.5t88.5 -36t36.5 -97q0 -41 -16 -74t-53 -82l-163 -221z" />
    <glyph glyph-name="uni0137" unicode="&#x137;" horiz-adv-x="1166" 
d="M888 0l-378 502l-194 -189v-313h-184v1543h184v-1007l528 524h237l-437 -433l475 -627h-231zM392 -608l136 221q-33 12 -54 42.5t-21 71.5q0 55 36.5 89.5t88.5 34.5t88.5 -36t36.5 -97q0 -41 -16 -74t-53 -82l-163 -221z" />
    <glyph glyph-name="kgreenlandic" unicode="&#x138;" horiz-adv-x="1166" 
d="M888 0l-378 502l-194 -189v-313h-184v1060h184v-524l528 524h237l-437 -433l475 -627h-231z" />
    <glyph glyph-name="Lacute" unicode="&#x139;" horiz-adv-x="1270" 
d="M154 0v1465h188v-1296h834v-169h-1022zM201 1586l81 388h198l-155 -388h-124z" />
    <glyph glyph-name="lacute" unicode="&#x13a;" horiz-adv-x="596" 
d="M388 -20q-124 0 -190 62t-66 204v1297h184v-1288q0 -62 22.5 -86t67.5 -24t99 20l45 -150q-84 -35 -162 -35zM162 1664l81 388h198l-155 -388h-124z" />
    <glyph glyph-name="uni013B" unicode="&#x13b;" horiz-adv-x="1270" 
d="M154 0v1465h188v-1296h834v-169h-1022zM437 -608l136 221q-33 12 -54 42.5t-21 71.5q0 55 36.5 89.5t88.5 34.5t88.5 -36t36.5 -97q0 -41 -16 -74t-53 -82l-163 -221z" />
    <glyph glyph-name="uni013C" unicode="&#x13c;" horiz-adv-x="596" 
d="M388 -20q-124 0 -190 62t-66 204v1297h184v-1288q0 -62 22.5 -86t67.5 -24t99 20l45 -150q-84 -35 -162 -35zM164 -608l136 221q-33 12 -54 42.5t-21 71.5q0 55 36.5 89.5t88.5 34.5t88.5 -36t36.5 -97q0 -41 -16 -74t-53 -82l-163 -221z" />
    <glyph glyph-name="Lcaron" unicode="&#x13d;" horiz-adv-x="1270" 
d="M154 0v1465h188v-1296h834v-169h-1022zM464 1044l21 421h182l-65 -421h-138z" />
    <glyph glyph-name="lcaron" unicode="&#x13e;" horiz-adv-x="596" 
d="M388 -20q-124 0 -190 62t-66 204v1297h184v-1288q0 -62 22.5 -86t67.5 -24t99 20l45 -150q-84 -35 -162 -35zM438 1122l21 421h182l-65 -421h-138z" />
    <glyph glyph-name="Ldot" unicode="&#x13f;" horiz-adv-x="1270" 
d="M154 0v1465h188v-1296h834v-169h-1022zM738 804q0 57 37 92.5t91 35.5q55 0 92 -35.5t37 -92.5t-37.5 -92.5t-91.5 -35.5t-91 35.5t-37 92.5z" />
    <glyph glyph-name="ldot" unicode="&#x140;" horiz-adv-x="612" 
d="M388 -20q-124 0 -190 62t-66 204v1297h184v-1288q0 -62 22.5 -86t67.5 -24t99 20l45 -150q-84 -35 -162 -35zM401 763q0 57 37 92.5t91 35.5q55 0 92 -35.5t37 -92.5t-37.5 -92.5t-91.5 -35.5t-91 35.5t-37 92.5z" />
    <glyph glyph-name="Lslash" unicode="&#x141;" horiz-adv-x="1363" 
d="M51 597v159l196 59v650h188v-606l386 117v-159l-386 -117v-531h834v-169h-1022v656z" />
    <glyph glyph-name="lslash" unicode="&#x142;" horiz-adv-x="631" 
d="M414 -20q-124 0 -190 62t-66 204v397l-153 -46v159l153 46v741h184v-698l235 71v-159l-235 -71v-431q0 -62 22.5 -86t67.5 -24t99 20l45 -150q-84 -35 -162 -35z" />
    <glyph glyph-name="Nacute" unicode="&#x143;" horiz-adv-x="1474" 
d="M154 0v1465h166l818 -1126v1126h182v-1465h-166l-818 1127v-1127h-182zM668 1586l81 388h198l-155 -388h-124z" />
    <glyph glyph-name="nacute" unicode="&#x144;" horiz-adv-x="1168" 
d="M864 0v634q0 128 -75.5 205t-202.5 77q-125 0 -201.5 -76.5t-76.5 -202.5v-637h-183v1060h180v-147q55 78 139.5 122.5t188.5 44.5q191 0 303 -117.5t112 -318.5v-644h-184zM511 1181l81 388h198l-155 -388h-124z" />
    <glyph glyph-name="uni0145" unicode="&#x145;" horiz-adv-x="1474" 
d="M154 0v1465h166l818 -1126v1126h182v-1465h-166l-818 1127v-1127h-182zM542 -608l136 221q-33 12 -54 42.5t-21 71.5q0 55 36.5 89.5t88.5 34.5t88.5 -36t36.5 -97q0 -41 -16 -74t-53 -82l-163 -221z" />
    <glyph glyph-name="uni0146" unicode="&#x146;" horiz-adv-x="1168" 
d="M864 0v634q0 128 -75.5 205t-202.5 77q-125 0 -201.5 -76.5t-76.5 -202.5v-637h-183v1060h180v-147q55 78 139.5 122.5t188.5 44.5q191 0 303 -117.5t112 -318.5v-644h-184zM380 -608l136 221q-33 12 -54 42.5t-21 71.5q0 55 36.5 89.5t88.5 34.5t88.5 -36t36.5 -97
q0 -41 -16 -74t-53 -82l-163 -221z" />
    <glyph glyph-name="Ncaron" unicode="&#x147;" horiz-adv-x="1474" 
d="M154 0v1465h166l818 -1126v1126h182v-1465h-166l-818 1127v-1127h-182zM422 1974h164l141 -276l144 276h166l-214 -388h-189z" />
    <glyph glyph-name="ncaron" unicode="&#x148;" horiz-adv-x="1168" 
d="M864 0v634q0 128 -75.5 205t-202.5 77q-125 0 -201.5 -76.5t-76.5 -202.5v-637h-183v1060h180v-147q55 78 139.5 122.5t188.5 44.5q191 0 303 -117.5t112 -318.5v-644h-184zM265 1569h164l141 -276l144 276h166l-214 -388h-189z" />
    <glyph glyph-name="napostrophe" unicode="&#x149;" 
d="M95 914l-80 52l161 276q-34 13 -56 44t-22 72q0 57 37 92.5t91 35.5t91.5 -37t37.5 -100q0 -9 -1 -18t-2 -16.5t-5 -16.5t-5.5 -14.5t-7.5 -16t-8 -14.5t-9.5 -15.5t-10 -15t-11.5 -16.5t-12 -17zM358 0v1060h180v-147q55 78 139.5 122.5t188.5 44.5q191 0 303 -117.5
t112 -318.5v-644h-184v634q0 128 -75.5 205t-202.5 77q-125 0 -201.5 -76.5t-76.5 -202.5v-637h-183z" />
    <glyph glyph-name="Eng" unicode="&#x14a;" horiz-adv-x="1474" 
d="M904 -475q-82 0 -150.5 19.5t-124 60.5t-91.5 110t-47 161l184 34q26 -215 229 -215q106 0 168 64t62 198v71l-798 1099v-1127h-182v1465h166l818 -1126v1126h182v-1509q0 -92 -21 -165.5t-58 -122.5t-90 -81.5t-114 -47t-133 -14.5z" />
    <glyph glyph-name="eng" unicode="&#x14b;" horiz-adv-x="1168" 
d="M691 -476q-148 0 -246 77.5t-133 223.5l175 42q27 -92 74 -135t126 -43q82 0 129.5 46t47.5 144v755q0 128 -75.5 205t-202.5 77q-125 0 -201.5 -76.5t-76.5 -202.5v-637h-183v1060h180v-147q55 78 139.5 122.5t188.5 44.5q191 0 303 -117.5t112 -318.5v-768
q0 -159 -95.5 -255.5t-261.5 -96.5z" />
    <glyph glyph-name="Omacron" unicode="&#x14c;" horiz-adv-x="1562" 
d="M781 -20q-197 0 -351 95.5t-238.5 267t-84.5 390.5t84.5 390.5t238.5 267t351 95.5t351 -95.5t239 -267t85 -390.5t-85 -390.5t-238.5 -267t-351.5 -95.5zM294 733q0 -262 132.5 -423t354.5 -161t354.5 161t132.5 423t-132 422.5t-355 160.5q-222 0 -354.5 -160.5
t-132.5 -422.5zM441 1714v159h681v-159h-681z" />
    <glyph glyph-name="omacron" unicode="&#x14d;" horiz-adv-x="1216" 
d="M607 -20q-102 0 -193.5 34.5t-165 100.5t-117 173t-43.5 242t43.5 242t117 173t165 100.5t193.5 34.5t194 -34.5t165.5 -100.5t117.5 -173t44 -242t-44 -242t-117.5 -173t-165.5 -100.5t-194 -34.5zM269 1309v159h681v-159h-681zM272 530q0 -100 28 -176.5t76.5 -120.5
t106.5 -66t124 -22q67 0 125.5 22t107 66t76.5 120.5t28 176.5t-28 176.5t-76.5 120.5t-107 66t-125.5 22q-66 0 -124 -22t-106.5 -66t-76.5 -120.5t-28 -176.5z" />
    <glyph glyph-name="Ohungarumlaut" unicode="&#x150;" horiz-adv-x="1562" 
d="M781 -20q-197 0 -351 95.5t-238.5 267t-84.5 390.5t84.5 390.5t238.5 267t351 95.5t351 -95.5t239 -267t85 -390.5t-85 -390.5t-238.5 -267t-351.5 -95.5zM294 733q0 -262 132.5 -423t354.5 -161t354.5 161t132.5 423t-132 422.5t-355 160.5q-222 0 -354.5 -160.5
t-132.5 -422.5zM500 1586l80 388h198l-153 -388h-125zM891 1586l80 388h199l-155 -388h-124z" />
    <glyph glyph-name="ohungarumlaut" unicode="&#x151;" horiz-adv-x="1216" 
d="M607 -20q-102 0 -193.5 34.5t-165 100.5t-117 173t-43.5 242t43.5 242t117 173t165 100.5t193.5 34.5t194 -34.5t165.5 -100.5t117.5 -173t44 -242t-44 -242t-117.5 -173t-165.5 -100.5t-194 -34.5zM272 530q0 -100 28 -176.5t76.5 -120.5t106.5 -66t124 -22
q67 0 125.5 22t107 66t76.5 120.5t28 176.5t-28 176.5t-76.5 120.5t-107 66t-125.5 22q-66 0 -124 -22t-106.5 -66t-76.5 -120.5t-28 -176.5zM328 1181l80 388h198l-153 -388h-125zM719 1181l80 388h199l-155 -388h-124z" />
    <glyph glyph-name="OE" unicode="&#x152;" horiz-adv-x="2259" 
d="M763 0q-192 0 -342 93t-232 260t-82 380t82 379.5t232 259.5t342 93h1324v-167h-800v-459h727v-168h-727v-503h841v-168h-1365zM294 733q0 -252 127 -408t342 -156h336v1127h-336q-215 0 -342 -155.5t-127 -407.5z" />
    <glyph glyph-name="oe" unicode="&#x153;" horiz-adv-x="2058" 
d="M600 -20q-99 0 -189 34.5t-163 100t-116.5 173t-43.5 242.5t43.5 242.5t116.5 173t163 100t189 34.5q142 0 257 -64.5t179 -189.5q62 127 179 190.5t269 63.5q104 0 191 -32t153.5 -95t104 -165.5t37.5 -236.5v-50h-840q4 -93 33.5 -163.5t77.5 -112t105 -62t122 -20.5
q115 0 194.5 43.5t141.5 142.5l146 -75q-154 -274 -473 -274q-149 0 -264.5 63.5t-176.5 190.5q-64 -125 -179 -189.5t-257 -64.5zM272 530q0 -100 28 -176.5t76.5 -120.5t106.5 -66t124 -22q67 0 125.5 22t107 66t76.5 120.5t28 176.5t-28 176.5t-76.5 120.5t-107 66
t-125.5 22q-66 0 -124 -22t-106.5 -66t-76.5 -120.5t-28 -176.5zM1140 641h641q-19 140 -99.5 208t-204.5 68q-121 0 -215 -69t-122 -207z" />
    <glyph glyph-name="Racute" unicode="&#x154;" horiz-adv-x="1367" 
d="M154 0v1465h615q124 0 224 -50.5t159.5 -148.5t59.5 -228q0 -165 -93.5 -275t-244.5 -140l399 -623h-223l-385 609h-323v-609h-188zM342 779h421q115 0 188 72t73 187q0 114 -73 186t-188 72h-421v-517zM586 1586l81 388h198l-155 -388h-124z" />
    <glyph glyph-name="racute" unicode="&#x155;" horiz-adv-x="1010" 
d="M125 0v1060h176v-117q96 136 280 136q153 0 252.5 -102.5t99.5 -284.5v-43l-176 -15v39q0 119 -57 180t-164 61q-103 0 -165.5 -66t-62.5 -186v-662h-183zM444 1181l81 388h198l-155 -388h-124z" />
    <glyph glyph-name="uni0156" unicode="&#x156;" horiz-adv-x="1367" 
d="M154 0v1465h615q124 0 224 -50.5t159.5 -148.5t59.5 -228q0 -165 -93.5 -275t-244.5 -140l399 -623h-223l-385 609h-323v-609h-188zM342 779h421q115 0 188 72t73 187q0 114 -73 186t-188 72h-421v-517zM484 -608l136 221q-33 12 -54 42.5t-21 71.5q0 55 36.5 89.5
t88.5 34.5t88.5 -36t36.5 -97q0 -41 -16 -74t-53 -82l-163 -221z" />
    <glyph glyph-name="uni0157" unicode="&#x157;" horiz-adv-x="1010" 
d="M125 0v1060h176v-117q96 136 280 136q153 0 252.5 -102.5t99.5 -284.5v-43l-176 -15v39q0 119 -57 180t-164 61q-103 0 -165.5 -66t-62.5 -186v-662h-183zM26 -608l136 221q-33 12 -54 42.5t-21 71.5q0 55 36.5 89.5t88.5 34.5t88.5 -36t36.5 -97q0 -41 -16 -74t-53 -82
l-163 -221z" />
    <glyph glyph-name="Rcaron" unicode="&#x158;" horiz-adv-x="1367" 
d="M154 0v1465h615q124 0 224 -50.5t159.5 -148.5t59.5 -228q0 -165 -93.5 -275t-244.5 -140l399 -623h-223l-385 609h-323v-609h-188zM340 1974h164l141 -276l144 276h166l-214 -388h-189zM342 779h421q115 0 188 72t73 187q0 114 -73 186t-188 72h-421v-517z" />
    <glyph glyph-name="rcaron" unicode="&#x159;" horiz-adv-x="1010" 
d="M125 0v1060h176v-117q96 136 280 136q153 0 252.5 -102.5t99.5 -284.5v-43l-176 -15v39q0 119 -57 180t-164 61q-103 0 -165.5 -66t-62.5 -186v-662h-183zM198 1569h164l141 -276l144 276h166l-214 -388h-189z" />
    <glyph glyph-name="Sacute" unicode="&#x15a;" horiz-adv-x="1240" 
d="M655 -20q-467 0 -566 461l189 33q36 -172 128.5 -250t245.5 -78q142 0 228 69t86 190q0 100 -53.5 151.5t-172.5 81.5l-205 54q-184 48 -269.5 140.5t-85.5 253.5q0 171 123 285.5t325 114.5q150 0 266.5 -60.5t185.5 -175.5l-144 -92q-51 81 -131.5 121.5t-175.5 40.5
q-119 0 -192 -63.5t-73 -168.5q0 -96 53 -145.5t170 -78.5l215 -54q178 -45 263 -140t85 -262q0 -204 -137.5 -316t-357.5 -112zM560 1586l81 388h198l-155 -388h-124z" />
    <glyph glyph-name="sacute" unicode="&#x15b;" horiz-adv-x="1041" 
d="M550 -20q-400 0 -473 332l172 32q57 -208 297 -208q108 0 173.5 40.5t65.5 118.5q0 69 -42.5 100t-147.5 52l-160 31q-153 30 -228.5 97t-75.5 194q0 137 107 224t281 87q123 0 226.5 -49t154.5 -139l-140 -83q-37 55 -101.5 85t-141.5 30q-104 0 -158 -42.5t-54 -110.5
q0 -60 40.5 -89t127.5 -45l161 -32q65 -13 110.5 -27.5t88 -38t68 -55.5t40.5 -79t15 -109q0 -104 -56 -177t-146 -106t-204 -33zM457 1181l81 388h198l-155 -388h-124z" />
    <glyph glyph-name="Scircumflex" unicode="&#x15c;" horiz-adv-x="1240" 
d="M655 -20q-467 0 -566 461l189 33q36 -172 128.5 -250t245.5 -78q142 0 228 69t86 190q0 100 -53.5 151.5t-172.5 81.5l-205 54q-184 48 -269.5 140.5t-85.5 253.5q0 171 123 285.5t325 114.5q150 0 266.5 -60.5t185.5 -175.5l-144 -92q-51 81 -131.5 121.5t-175.5 40.5
q-119 0 -192 -63.5t-73 -168.5q0 -96 53 -145.5t170 -78.5l215 -54q178 -45 263 -140t85 -262q0 -204 -137.5 -316t-357.5 -112zM316 1586l214 388h189l212 -388h-164l-141 276l-144 -276h-166z" />
    <glyph glyph-name="scircumflex" unicode="&#x15d;" horiz-adv-x="1041" 
d="M550 -20q-400 0 -473 332l172 32q57 -208 297 -208q108 0 173.5 40.5t65.5 118.5q0 69 -42.5 100t-147.5 52l-160 31q-153 30 -228.5 97t-75.5 194q0 137 107 224t281 87q123 0 226.5 -49t154.5 -139l-140 -83q-37 55 -101.5 85t-141.5 30q-104 0 -158 -42.5t-54 -110.5
q0 -60 40.5 -89t127.5 -45l161 -32q65 -13 110.5 -27.5t88 -38t68 -55.5t40.5 -79t15 -109q0 -104 -56 -177t-146 -106t-204 -33zM213 1181l214 388h189l212 -388h-164l-141 276l-144 -276h-166z" />
    <glyph glyph-name="Scedilla" unicode="&#x15e;" horiz-adv-x="1240" 
d="M423 -388l148 372q-392 39 -482 457l189 33q36 -172 128.5 -250t245.5 -78q142 0 228 69t86 190q0 100 -53.5 151.5t-172.5 81.5l-205 54q-184 48 -269.5 140.5t-85.5 253.5q0 171 123 285.5t325 114.5q150 0 266.5 -60.5t185.5 -175.5l-144 -92q-51 81 -131.5 121.5
t-175.5 40.5q-119 0 -192 -63.5t-73 -168.5q0 -96 53 -145.5t170 -78.5l215 -54q178 -45 263 -140t85 -262q0 -194 -124.5 -305t-328.5 -122l-76 -369h-198z" />
    <glyph glyph-name="scedilla" unicode="&#x15f;" horiz-adv-x="1041" 
d="M337 -388l147 370q-340 27 -407 330l172 32q57 -208 297 -208q108 0 173.5 40.5t65.5 118.5q0 69 -42.5 100t-147.5 52l-160 31q-153 30 -228.5 97t-75.5 194q0 137 107 224t281 87q123 0 226.5 -49t154.5 -139l-140 -83q-37 55 -101.5 85t-141.5 30q-104 0 -158 -42.5
t-54 -110.5q0 -60 40.5 -89t127.5 -45l161 -32q65 -13 110.5 -27.5t88 -38t68 -55.5t40.5 -79t15 -109q0 -141 -95.5 -220t-249.5 -93l-76 -371h-198z" />
    <glyph glyph-name="Scaron" unicode="&#x160;" horiz-adv-x="1240" 
d="M655 -20q-467 0 -566 461l189 33q36 -172 128.5 -250t245.5 -78q142 0 228 69t86 190q0 100 -53.5 151.5t-172.5 81.5l-205 54q-184 48 -269.5 140.5t-85.5 253.5q0 171 123 285.5t325 114.5q150 0 266.5 -60.5t185.5 -175.5l-144 -92q-51 81 -131.5 121.5t-175.5 40.5
q-119 0 -192 -63.5t-73 -168.5q0 -96 53 -145.5t170 -78.5l215 -54q178 -45 263 -140t85 -262q0 -204 -137.5 -316t-357.5 -112zM314 1974h164l141 -276l144 276h166l-214 -388h-189z" />
    <glyph glyph-name="scaron" unicode="&#x161;" horiz-adv-x="1041" 
d="M550 -20q-400 0 -473 332l172 32q57 -208 297 -208q108 0 173.5 40.5t65.5 118.5q0 69 -42.5 100t-147.5 52l-160 31q-153 30 -228.5 97t-75.5 194q0 137 107 224t281 87q123 0 226.5 -49t154.5 -139l-140 -83q-37 55 -101.5 85t-141.5 30q-104 0 -158 -42.5t-54 -110.5
q0 -60 40.5 -89t127.5 -45l161 -32q65 -13 110.5 -27.5t88 -38t68 -55.5t40.5 -79t15 -109q0 -104 -56 -177t-146 -106t-204 -33zM211 1569h164l141 -276l144 276h166l-214 -388h-189z" />
    <glyph glyph-name="uni0162" unicode="&#x162;" horiz-adv-x="1259" 
d="M536 0v1296h-505v169h1197v-169h-505v-1296h-31l-93 -388h-197l161 388h-27z" />
    <glyph glyph-name="uni0163" unicode="&#x163;" horiz-adv-x="922" 
d="M10 901v159h145v259h184v-259h421v-159h-421v-566q0 -98 47.5 -144t129.5 -46q80 0 130 43t78 133l169 -41q-33 -131 -115.5 -207t-206.5 -90l-77 -371h-198l148 372q-139 18 -214 109.5t-75 233.5v574h-145z" />
    <glyph glyph-name="Tcaron" unicode="&#x164;" horiz-adv-x="1259" 
d="M536 0v1296h-505v169h1197v-169h-505v-1296h-187zM318 1974h164l141 -276l144 276h166l-214 -388h-189z" />
    <glyph glyph-name="tcaron" unicode="&#x165;" horiz-adv-x="922" 
d="M512 -20q-170 0 -263.5 94t-93.5 253v574h-145v159h145v259h184v-259h421v-159h-421v-566q0 -98 47.5 -144t129.5 -46q80 0 130 43t78 133l169 -41q-37 -146 -135 -223t-246 -77zM492 1181l21 421h182l-65 -421h-138z" />
    <glyph glyph-name="Tbar" unicode="&#x166;" horiz-adv-x="1259" 
d="M536 0v689h-295v159h295v448h-505v169h1197v-169h-505v-448h295v-159h-295v-689h-187z" />
    <glyph glyph-name="tbar" unicode="&#x167;" horiz-adv-x="922" 
d="M512 -20q-170 0 -263.5 94t-93.5 253v237h-145v144h145v193h-145v159h145v259h184v-259h421v-159h-421v-193h421v-144h-421v-229q0 -98 47.5 -144t129.5 -46q80 0 130 43t78 133l169 -41q-37 -146 -135 -223t-246 -77z" />
    <glyph glyph-name="Utilde" unicode="&#x168;" horiz-adv-x="1458" 
d="M729 -20q-164 0 -295.5 72.5t-205.5 200t-74 285.5v927h188v-925q0 -176 104 -283.5t283 -107.5t283 107.5t104 283.5v925h188v-927q0 -240 -163.5 -399t-411.5 -159zM391 1720q0 82 48 133.5t129 51.5q50 0 108 -25.5t107 -51t77 -25.5q30 0 47 19t17 50q0 16 -7 46
l131 28q20 -55 20 -100q0 -82 -48 -133.5t-128 -51.5q-50 0 -109 26t-108.5 52t-77.5 26q-30 0 -46.5 -19t-16.5 -52q0 -20 7 -44l-136 -27q-14 54 -14 97z" />
    <glyph glyph-name="utilde" unicode="&#x169;" horiz-adv-x="1168" 
d="M304 1060v-634q0 -128 75.5 -205t202.5 -77q125 0 201.5 76.5t76.5 202.5v637h183v-1060h-180v147q-55 -78 -139.5 -122.5t-188.5 -44.5q-191 0 -303 117.5t-112 318.5v644h184zM243 1315q0 82 48 133.5t129 51.5q50 0 108 -25.5t107 -51t77 -25.5q30 0 47 19t17 50
q0 16 -7 46l131 28q20 -55 20 -100q0 -82 -48 -133.5t-128 -51.5q-50 0 -109 26t-108.5 52t-77.5 26q-30 0 -46.5 -19t-16.5 -52q0 -20 7 -44l-136 -27q-14 54 -14 97z" />
    <glyph glyph-name="Umacron" unicode="&#x16a;" horiz-adv-x="1458" 
d="M729 -20q-164 0 -295.5 72.5t-205.5 200t-74 285.5v927h188v-925q0 -176 104 -283.5t283 -107.5t283 107.5t104 283.5v925h188v-927q0 -240 -163.5 -399t-411.5 -159zM389 1714v159h681v-159h-681z" />
    <glyph glyph-name="umacron" unicode="&#x16b;" horiz-adv-x="1168" 
d="M304 1060v-634q0 -128 75.5 -205t202.5 -77q125 0 201.5 76.5t76.5 202.5v637h183v-1060h-180v147q-55 -78 -139.5 -122.5t-188.5 -44.5q-191 0 -303 117.5t-112 318.5v644h184zM241 1309v159h681v-159h-681z" />
    <glyph glyph-name="Ubreve" unicode="&#x16c;" horiz-adv-x="1458" 
d="M729 -20q-164 0 -295.5 72.5t-205.5 200t-74 285.5v927h188v-925q0 -176 104 -283.5t283 -107.5t283 107.5t104 283.5v925h188v-927q0 -240 -163.5 -399t-411.5 -159zM451 1817q0 39 24 102l141 -40q-9 -32 -9 -59q0 -52 31.5 -82t90.5 -30q58 0 89.5 30.5t31.5 82.5
q0 28 -9 58l143 42q23 -64 23 -104q0 -98 -77.5 -166t-200.5 -68t-200.5 68t-77.5 166z" />
    <glyph glyph-name="ubreve" unicode="&#x16d;" horiz-adv-x="1168" 
d="M304 1060v-634q0 -128 75.5 -205t202.5 -77q125 0 201.5 76.5t76.5 202.5v637h183v-1060h-180v147q-55 -78 -139.5 -122.5t-188.5 -44.5q-191 0 -303 117.5t-112 318.5v644h184zM303 1412q0 39 24 102l141 -40q-9 -32 -9 -59q0 -52 31.5 -82t90.5 -30q58 0 89.5 30.5
t31.5 82.5q0 28 -9 58l143 42q23 -64 23 -104q0 -98 -77.5 -166t-200.5 -68t-200.5 68t-77.5 166z" />
    <glyph glyph-name="Uring" unicode="&#x16e;" horiz-adv-x="1458" 
d="M729 -20q-164 0 -295.5 72.5t-205.5 200t-74 285.5v927h188v-925q0 -176 104 -283.5t283 -107.5t283 107.5t104 283.5v925h188v-927q0 -240 -163.5 -399t-411.5 -159zM450 1840q0 96 75.5 159t203.5 63t204 -63t76 -159t-76 -159.5t-204 -63.5t-203.5 63.5t-75.5 159.5z
M610 1840q0 -46 30.5 -72.5t86.5 -26.5q57 0 87 26t30 73t-30 73t-87 26q-56 0 -86.5 -26.5t-30.5 -72.5z" />
    <glyph glyph-name="uring" unicode="&#x16f;" horiz-adv-x="1168" 
d="M304 1060v-634q0 -128 75.5 -205t202.5 -77q125 0 201.5 76.5t76.5 202.5v637h183v-1060h-180v147q-55 -78 -139.5 -122.5t-188.5 -44.5q-191 0 -303 117.5t-112 318.5v644h184zM302 1435q0 96 75.5 159t203.5 63t204 -63t76 -159t-76 -159.5t-204 -63.5t-203.5 63.5
t-75.5 159.5zM462 1435q0 -46 30.5 -72.5t86.5 -26.5q57 0 87 26t30 73t-30 73t-87 26q-56 0 -86.5 -26.5t-30.5 -72.5z" />
    <glyph glyph-name="Uhungarumlaut" unicode="&#x170;" horiz-adv-x="1458" 
d="M729 -20q-164 0 -295.5 72.5t-205.5 200t-74 285.5v927h188v-925q0 -176 104 -283.5t283 -107.5t283 107.5t104 283.5v925h188v-927q0 -240 -163.5 -399t-411.5 -159zM448 1586l80 388h198l-153 -388h-125zM839 1586l80 388h199l-155 -388h-124z" />
    <glyph glyph-name="uhungarumlaut" unicode="&#x171;" horiz-adv-x="1168" 
d="M304 1060v-634q0 -128 75.5 -205t202.5 -77q125 0 201.5 76.5t76.5 202.5v637h183v-1060h-180v147q-55 -78 -139.5 -122.5t-188.5 -44.5q-191 0 -303 117.5t-112 318.5v644h184zM300 1181l80 388h198l-153 -388h-125zM691 1181l80 388h199l-155 -388h-124z" />
    <glyph glyph-name="Uogonek" unicode="&#x172;" horiz-adv-x="1458" 
d="M839 -403q-110 0 -169.5 49t-59.5 132q0 109 128 202h-9q-164 0 -295.5 72.5t-205.5 200t-74 285.5v927h188v-925q0 -176 104 -283.5t283 -107.5t283 107.5t104 283.5v925h188v-927q0 -149 -68.5 -272t-187.5 -202l-80 -54q-123 -83 -166.5 -131t-43.5 -94
q0 -30 22.5 -48t60.5 -18q66 0 115 52l91 -81q-86 -90 -208 -93z" />
    <glyph glyph-name="uogonek" unicode="&#x173;" horiz-adv-x="1168" 
d="M536 -20q-191 0 -303.5 117.5t-112.5 318.5v644h183v-634q0 -128 76.5 -204.5t202.5 -76.5q125 0 201 76t76 202v637h184v-1060q-124 -74 -169 -121.5t-45 -93.5q0 -30 22.5 -48t60.5 -18q66 0 116 52l90 -81q-86 -90 -208 -93q-110 0 -169.5 49t-59.5 132
q0 63 46.5 126.5t135.5 115.5v126q-55 -78 -139 -122t-188 -44z" />
    <glyph glyph-name="Wcircumflex" unicode="&#x174;" horiz-adv-x="1877" 
d="M426 0l-366 1465h197l270 -1159l327 1159h180l326 -1156l271 1156h186l-364 -1465h-183l-332 1175l-330 -1175h-182zM631 1586l214 388h189l212 -388h-164l-141 276l-144 -276h-166z" />
    <glyph glyph-name="wcircumflex" unicode="&#x175;" horiz-adv-x="1627" 
d="M365 0l-320 1060h189l236 -841l258 841h182l258 -840l235 840h179l-316 -1060h-198l-253 811l-253 -811h-197zM496 1181l214 388h189l212 -388h-164l-141 276l-144 -276h-166z" />
    <glyph glyph-name="Ycircumflex" unicode="&#x176;" horiz-adv-x="1299" 
d="M554 0v603l-540 862h218l421 -682l421 682h211l-543 -863v-602h-188zM341 1586l214 388h189l212 -388h-164l-141 276l-144 -276h-166z" />
    <glyph glyph-name="ycircumflex" unicode="&#x177;" horiz-adv-x="1163" 
d="M530 -475q-380 0 -533 338l155 81q61 -131 152 -192t223 -61q154 0 237 91t83 258v113q-57 -77 -141.5 -117.5t-186.5 -40.5q-191 0 -301 117t-110 321v627h184v-623q0 -136 70 -210t198 -74q132 0 209.5 75t77.5 204v628h184v-1020q0 -241 -133.5 -378t-367.5 -137z
M278 1181l214 388h189l212 -388h-164l-141 276l-144 -276h-166z" />
    <glyph glyph-name="Ydieresis" unicode="&#x178;" horiz-adv-x="1299" 
d="M554 0v603l-540 862h218l421 -682l421 682h211l-543 -863v-602h-188zM336 1764q0 51 34.5 84t82.5 33q49 0 82.5 -32.5t33.5 -84.5q0 -51 -33.5 -83.5t-82.5 -32.5t-83 32.5t-34 83.5zM731 1764q0 51 34 84t83 33q50 0 83 -32.5t33 -84.5t-33 -84t-83 -32q-49 0 -83 32.5
t-34 83.5z" />
    <glyph glyph-name="Zacute" unicode="&#x179;" horiz-adv-x="1311" 
d="M112 0v148l841 1147h-821v170h1046v-146l-841 -1149h862v-170h-1087zM590 1586l81 388h198l-155 -388h-124z" />
    <glyph glyph-name="zacute" unicode="&#x17a;" horiz-adv-x="1019" 
d="M92 0v141l588 757h-577v162h814v-141l-587 -757h597v-162h-835zM445 1181l81 388h198l-155 -388h-124z" />
    <glyph glyph-name="Zdotaccent" unicode="&#x17b;" horiz-adv-x="1311" 
d="M112 0v148l841 1147h-821v170h1046v-146l-841 -1149h862v-170h-1087zM532 1764q0 54 35.5 88.5t87.5 34.5q53 0 88.5 -34t35.5 -89t-35.5 -89.5t-88.5 -34.5q-52 0 -87.5 34.5t-35.5 89.5z" />
    <glyph glyph-name="zdotaccent" unicode="&#x17c;" horiz-adv-x="1019" 
d="M92 0v141l588 757h-577v162h814v-141l-587 -757h597v-162h-835zM387 1359q0 54 35.5 88.5t87.5 34.5q53 0 88.5 -34t35.5 -89t-35.5 -89.5t-88.5 -34.5q-52 0 -87.5 34.5t-35.5 89.5z" />
    <glyph glyph-name="Zcaron" unicode="&#x17d;" horiz-adv-x="1311" 
d="M112 0v148l841 1147h-821v170h1046v-146l-841 -1149h862v-170h-1087zM344 1974h164l141 -276l144 276h166l-214 -388h-189z" />
    <glyph glyph-name="zcaron" unicode="&#x17e;" horiz-adv-x="1019" 
d="M92 0v141l588 757h-577v162h814v-141l-587 -757h597v-162h-835zM199 1569h164l141 -276l144 276h166l-214 -388h-189z" />
    <glyph glyph-name="uni018F" unicode="&#x18f;" horiz-adv-x="1560" 
d="M779 -20q-196 0 -350.5 94t-238.5 256t-83 360v65h1159q-6 254 -140 407.5t-360 153.5q-159 0 -276 -82.5t-176 -218.5l-169 75q82 179 245 287.5t376 108.5q153 0 281.5 -56t217.5 -154.5t139 -238.5t50 -304q0 -219 -85 -390.5t-238.5 -267t-351.5 -95.5zM305 591
q37 -206 162 -324t312 -118q190 0 316 119.5t160 322.5h-950z" />
    <glyph glyph-name="florin" unicode="&#x192;" horiz-adv-x="1182" 
d="M535 -476q-185 0 -298 89t-148 259l167 45q35 -117 98 -171.5t180 -54.5q251 0 251 240q0 55 -22.5 106.5t-70.5 129.5l-182 296h-372v160h291l-91 146q-67 105 -97.5 179.5t-30.5 157.5q0 166 108 273t304 107q168 0 278 -89.5t144 -260.5l-168 -43q-34 116 -94 171
t-160 55q-102 0 -164.5 -54t-62.5 -160q0 -40 17 -87.5t31.5 -72.5t48.5 -80l152 -242h361v-160h-282l123 -192q123 -187 123 -342q0 -183 -111.5 -294t-322.5 -111z" />
    <glyph glyph-name="uni019D" unicode="&#x19d;" horiz-adv-x="1474" 
d="M-76 -475q-171 0 -281.5 85t-131.5 266l184 34q24 -215 229 -215q106 0 168 64t62 198v1508h166l818 -1126v1126h182v-1465h-166l-818 1127v-1171q0 -115 -31.5 -200t-88.5 -134.5t-129.5 -73t-162.5 -23.5z" />
    <glyph glyph-name="Ohorn" unicode="&#x1a0;" horiz-adv-x="1562" 
d="M781 -20q-197 0 -351 95.5t-238.5 267t-84.5 390.5t84.5 390.5t238.5 267t351 95.5q103 0 226 -18.5t170 -18.5q132 0 132 137v107h159v-128q0 -107 -64.5 -180.5t-182.5 -77.5q116 -96 175.5 -246t59.5 -328q0 -219 -85 -390.5t-238.5 -267t-351.5 -95.5zM294 733
q0 -262 132.5 -423t354.5 -161t354.5 161t132.5 423t-132 422.5t-355 160.5q-222 0 -354.5 -160.5t-132.5 -422.5z" />
    <glyph glyph-name="ohorn" unicode="&#x1a1;" horiz-adv-x="1216" 
d="M607 -20q-102 0 -193.5 34.5t-165 100.5t-117 173t-43.5 242t43.5 242t117 173t165 100.5t193.5 34.5q70 0 166.5 -10t112.5 -10q56 0 86 39.5t30 101.5v86h159v-104q0 -93 -50.5 -159t-140.5 -81q158 -150 158 -413q0 -135 -44 -242t-117.5 -173t-165.5 -100.5
t-194 -34.5zM272 530q0 -100 28 -176.5t76.5 -120.5t106.5 -66t124 -22q67 0 125.5 22t107 66t76.5 120.5t28 176.5t-28 176.5t-76.5 120.5t-107 66t-125.5 22q-66 0 -124 -22t-106.5 -66t-76.5 -120.5t-28 -176.5z" />
    <glyph glyph-name="Uhorn" unicode="&#x1af;" horiz-adv-x="1458" 
d="M729 -20q-164 0 -295.5 72.5t-205.5 200t-74 285.5v927h188v-925q0 -176 104 -283.5t283 -107.5t283 107.5t104 283.5v925h88q56 0 86 39.5t30 101.5v86h159v-104q0 -88 -46 -152.5t-129 -85.5v-812q0 -240 -163.5 -399t-411.5 -159z" />
    <glyph glyph-name="uhorn" unicode="&#x1b0;" horiz-adv-x="1168" 
d="M304 1060v-634q0 -128 75.5 -205t202.5 -77q125 0 201.5 76.5t76.5 202.5v637h83q56 0 86 39.5t30 101.5v86h159v-104q0 -88 -46 -152.5t-129 -85.5v-945h-180v147q-55 -78 -139.5 -122.5t-188.5 -44.5q-191 0 -303 117.5t-112 318.5v644h184z" />
    <glyph glyph-name="Gcaron" unicode="&#x1e6;" horiz-adv-x="1593" 
d="M808 -20q-208 0 -368 96t-246.5 266.5t-86.5 390.5q0 219 85.5 390.5t241 267t353.5 95.5q245 0 411 -124t232 -338l-179 -48q-53 158 -171.5 249t-292.5 91q-221 0 -357 -161t-136 -422q0 -263 140 -423.5t377 -160.5q145 0 260.5 64.5t189.5 183.5v270h188v-667h-159
l-12 170q-174 -190 -470 -190zM533 1974h164l141 -276l144 276h166l-214 -388h-189z" />
    <glyph glyph-name="gcaron" unicode="&#x1e7;" horiz-adv-x="1259" 
d="M568 -475q-415 0 -586 351l157 82q40 -88 91.5 -144t136 -89.5t201.5 -33.5q173 0 274.5 102t101.5 284v113q-64 -83 -157.5 -126.5t-202.5 -43.5q-74 0 -145.5 21t-135 65t-111.5 105.5t-76 149.5t-28 190t28 189.5t76 149t111.5 105t135 64.5t145.5 21q110 0 203 -43
t157 -126v149h184v-983q0 -257 -153 -404.5t-407 -147.5zM272 551q0 -93 28.5 -165t76.5 -114.5t107 -64t125 -21.5t124 21.5t106.5 64t76.5 114.5t28 165q0 74 -18.5 135.5t-50.5 103t-75 70.5t-91 42t-100 13q-66 0 -125 -21.5t-107 -64t-76.5 -114.5t-28.5 -164z
M310 1569h164l141 -276l144 276h166l-214 -388h-189z" />
    <glyph glyph-name="uni0218" unicode="&#x218;" horiz-adv-x="1240" 
d="M655 -20q-467 0 -566 461l189 33q36 -172 128.5 -250t245.5 -78q142 0 228 69t86 190q0 100 -53.5 151.5t-172.5 81.5l-205 54q-184 48 -269.5 140.5t-85.5 253.5q0 171 123 285.5t325 114.5q150 0 266.5 -60.5t185.5 -175.5l-144 -92q-51 81 -131.5 121.5t-175.5 40.5
q-119 0 -192 -63.5t-73 -168.5q0 -96 53 -145.5t170 -78.5l215 -54q178 -45 263 -140t85 -262q0 -204 -137.5 -316t-357.5 -112zM448 -608l136 221q-33 12 -54 42.5t-21 71.5q0 55 36.5 89.5t88.5 34.5t88.5 -36t36.5 -97q0 -41 -16 -74t-53 -82l-163 -221z" />
    <glyph glyph-name="uni0219" unicode="&#x219;" horiz-adv-x="1041" 
d="M550 -20q-400 0 -473 332l172 32q57 -208 297 -208q108 0 173.5 40.5t65.5 118.5q0 69 -42.5 100t-147.5 52l-160 31q-153 30 -228.5 97t-75.5 194q0 137 107 224t281 87q123 0 226.5 -49t154.5 -139l-140 -83q-37 55 -101.5 85t-141.5 30q-104 0 -158 -42.5t-54 -110.5
q0 -60 40.5 -89t127.5 -45l161 -32q65 -13 110.5 -27.5t88 -38t68 -55.5t40.5 -79t15 -109q0 -104 -56 -177t-146 -106t-204 -33zM362 -608l136 221q-33 12 -54 42.5t-21 71.5q0 55 36.5 89.5t88.5 34.5t88.5 -36t36.5 -97q0 -41 -16 -74t-53 -82l-163 -221z" />
    <glyph glyph-name="uni021A" unicode="&#x21a;" horiz-adv-x="1259" 
d="M536 0v1296h-505v169h1197v-169h-505v-1296h-187zM428 -608l136 221q-33 12 -54 42.5t-21 71.5q0 55 36.5 89.5t88.5 34.5t88.5 -36t36.5 -97q0 -41 -16 -74t-53 -82l-163 -221z" />
    <glyph glyph-name="uni021B" unicode="&#x21b;" horiz-adv-x="922" 
d="M512 -20q-170 0 -263.5 94t-93.5 253v574h-145v159h145v259h184v-259h421v-159h-421v-566q0 -98 47.5 -144t129.5 -46q80 0 130 43t78 133l169 -41q-37 -146 -135 -223t-246 -77zM321 -608l136 221q-33 12 -54 42.5t-21 71.5q0 55 36.5 89.5t88.5 34.5t88.5 -36t36.5 -97
q0 -41 -16 -74t-53 -82l-163 -221z" />
    <glyph glyph-name="uni0232" unicode="&#x232;" horiz-adv-x="1299" 
d="M554 0v603l-540 862h218l421 -682l421 682h211l-543 -863v-602h-188zM310 1714v159h681v-159h-681z" />
    <glyph glyph-name="uni0233" unicode="&#x233;" horiz-adv-x="1163" 
d="M530 -475q-380 0 -533 338l155 81q61 -131 152 -192t223 -61q154 0 237 91t83 258v113q-57 -77 -141.5 -117.5t-186.5 -40.5q-191 0 -301 117t-110 321v627h184v-623q0 -136 70 -210t198 -74q132 0 209.5 75t77.5 204v628h184v-1020q0 -241 -133.5 -378t-367.5 -137z
M247 1309v159h681v-159h-681z" />
    <glyph glyph-name="uni0237" unicode="&#x237;" horiz-adv-x="459" 
d="M-35 -476q-148 0 -246 77.5t-132 223.5l174 42q27 -92 74 -135t126 -43q82 0 129.5 46t47.5 144v1181h184v-1184q0 -159 -95.5 -255.5t-261.5 -96.5z" />
    <glyph glyph-name="uni0259" unicode="&#x259;" horiz-adv-x="1201" 
d="M592 1080q102 0 194 -34.5t166 -100.5t117.5 -173t43.5 -242t-45 -242.5t-120.5 -173t-169 -100t-196.5 -34.5q-107 0 -195.5 32t-156 95t-105 165.5t-37.5 236.5v50h840q-4 93 -33.5 163.5t-77.5 112t-105 62t-121 20.5q-114 0 -193 -44.5t-142 -143.5l-147 77
q152 274 483 274zM278 419q20 -140 99.5 -208t204.5 -68q78 0 144.5 27t119.5 91t72 158h-640z" />
    <glyph glyph-name="uni0272" unicode="&#x272;" horiz-adv-x="1168" 
d="M-48 -476q-148 0 -246 77.5t-133 223.5l175 42q26 -92 73.5 -135t126.5 -43q82 0 129.5 46t47.5 144v1181h180v-147q55 78 139.5 122.5t188.5 44.5q191 0 303 -117.5t112 -318.5v-644h-184v634q0 128 -75.5 205t-202.5 77q-125 0 -201.5 -76.5t-76.5 -202.5v-761
q0 -159 -95 -255.5t-261 -96.5z" />
    <glyph glyph-name="circumflex" unicode="&#x2c6;" horiz-adv-x="1126" 
d="M254 1181l214 388h189l212 -388h-164l-141 276l-144 -276h-166z" />
    <glyph glyph-name="caron" unicode="&#x2c7;" horiz-adv-x="1126" 
d="M867 1569l-214 -388h-189l-212 388h164l141 -276l144 276h166z" />
    <glyph glyph-name="breve" unicode="&#x2d8;" horiz-adv-x="1126" 
d="M563 1178q-123 0 -200.5 68t-77.5 166q0 39 24 102l141 -40q-9 -32 -9 -59q0 -52 31.5 -82t90.5 -30q58 0 89.5 30.5t31.5 82.5q0 28 -9 58l143 42q23 -64 23 -104q0 -98 -77.5 -166t-200.5 -68z" />
    <glyph glyph-name="dotaccent" unicode="&#x2d9;" horiz-adv-x="1126" 
d="M563 1235q-52 0 -87.5 34.5t-35.5 89.5q0 54 35.5 88.5t87.5 34.5q53 0 88.5 -34t35.5 -89t-35.5 -89.5t-88.5 -34.5z" />
    <glyph glyph-name="ring" unicode="&#x2da;" horiz-adv-x="1126" 
d="M563 1212q-128 0 -203.5 63.5t-75.5 159.5t75.5 159t203.5 63t204 -63t76 -159t-76 -159.5t-204 -63.5zM444 1435q0 -46 30.5 -72.5t86.5 -26.5q57 0 87 26t30 73t-30 73t-87 26q-56 0 -86.5 -26.5t-30.5 -72.5z" />
    <glyph glyph-name="ogonek" unicode="&#x2db;" horiz-adv-x="1126" 
d="M566 -403q-110 0 -169.5 49.5t-59.5 131.5q0 71 60 141t171 124l131 -43q-124 -74 -169 -121.5t-45 -93.5q0 -29 23 -47.5t60 -18.5q66 0 116 52l91 -81q-86 -90 -209 -93z" />
    <glyph glyph-name="tilde" unicode="&#x2dc;" horiz-adv-x="1126" 
d="M239 1218q-14 54 -14 97q0 82 48 133.5t129 51.5q50 0 108 -25.5t107 -51t77 -25.5q30 0 47 19t17 50q0 16 -7 46l131 28q20 -55 20 -100q0 -82 -48 -133.5t-128 -51.5q-50 0 -109 26t-108.5 52t-77.5 26q-30 0 -46.5 -19t-16.5 -52q0 -20 7 -44z" />
    <glyph glyph-name="hungarumlaut" unicode="&#x2dd;" horiz-adv-x="1126" 
d="M282 1181l80 388h198l-153 -388h-125zM673 1181l80 388h199l-155 -388h-124z" />
    <glyph glyph-name="gravecomb" unicode="&#x300;" horiz-adv-x="0" 
d="M502 1181l-154 388h198l80 -388h-124z" />
    <glyph glyph-name="acutecomb" unicode="&#x301;" horiz-adv-x="0" 
d="M498 1181l81 388h198l-155 -388h-124z" />
    <glyph glyph-name="uni0302" unicode="&#x302;" horiz-adv-x="0" 
d="M254 1181l214 388h189l212 -388h-164l-141 276l-144 -276h-166z" />
    <glyph glyph-name="tildecomb" unicode="&#x303;" horiz-adv-x="0" 
d="M239 1218q-14 54 -14 97q0 82 48 133.5t129 51.5q50 0 108 -25.5t107 -51t77 -25.5q30 0 47 19t17 50q0 16 -7 46l131 28q20 -55 20 -100q0 -82 -48 -133.5t-128 -51.5q-50 0 -109 26t-108.5 52t-77.5 26q-30 0 -46.5 -19t-16.5 -52q0 -20 7 -44z" />
    <glyph glyph-name="uni0304" unicode="&#x304;" horiz-adv-x="0" 
d="M223 1309v159h681v-159h-681z" />
    <glyph glyph-name="uni0306" unicode="&#x306;" horiz-adv-x="0" 
d="M563 1178q-123 0 -200.5 68t-77.5 166q0 39 24 102l141 -40q-9 -32 -9 -59q0 -52 31.5 -82t90.5 -30q58 0 89.5 30.5t31.5 82.5q0 28 -9 58l143 42q23 -64 23 -104q0 -98 -77.5 -166t-200.5 -68z" />
    <glyph glyph-name="uni0307" unicode="&#x307;" horiz-adv-x="0" 
d="M563 1235q-52 0 -87.5 34.5t-35.5 89.5q0 54 35.5 88.5t87.5 34.5q53 0 88.5 -34t35.5 -89t-35.5 -89.5t-88.5 -34.5z" />
    <glyph glyph-name="uni0308" unicode="&#x308;" horiz-adv-x="0" 
d="M366 1243q-49 0 -83 32.5t-34 83.5t34.5 84t82.5 33q49 0 82.5 -32.5t33.5 -84.5q0 -51 -33.5 -83.5t-82.5 -32.5zM644 1359q0 51 34 84t83 33q50 0 83 -32.5t33 -84.5t-33 -84t-83 -32q-49 0 -83 32.5t-34 83.5z" />
    <glyph glyph-name="hookabovecomb" unicode="&#x309;" horiz-adv-x="0" 
d="M499 1243q92 54 92 125q0 37 -26.5 60t-69.5 23q-46 0 -88 -20l-41 110q67 36 147 36q100 0 161.5 -56t61.5 -144q0 -143 -168 -233z" />
    <glyph glyph-name="uni030A" unicode="&#x30a;" horiz-adv-x="0" 
d="M563 1212q-128 0 -203.5 63.5t-75.5 159.5t75.5 159t203.5 63t204 -63t76 -159t-76 -159.5t-204 -63.5zM444 1435q0 -46 30.5 -72.5t86.5 -26.5q57 0 87 26t30 73t-30 73t-87 26q-56 0 -86.5 -26.5t-30.5 -72.5z" />
    <glyph glyph-name="uni030B" unicode="&#x30b;" horiz-adv-x="0" 
d="M282 1181l80 388h198l-153 -388h-125zM673 1181l80 388h199l-155 -388h-124z" />
    <glyph glyph-name="uni030C" unicode="&#x30c;" horiz-adv-x="0" 
d="M867 1569l-214 -388h-189l-212 388h164l141 -276l144 276h166z" />
    <glyph glyph-name="uni0312" unicode="&#x312;" horiz-adv-x="0" 
d="M566 1211q-52 0 -88.5 36.5t-36.5 97.5q0 41 16 74t53 82l163 221l80 -51l-137 -221q34 -12 55 -42t21 -72q0 -56 -36.5 -90.5t-89.5 -34.5z" />
    <glyph glyph-name="uni031B" unicode="&#x31b;" horiz-adv-x="0" 
d="M424 937l-14 123h25q56 0 86 39.5t30 101.5v86h159v-104q0 -106 -66 -176t-178 -70h-42z" />
    <glyph glyph-name="dotbelowcomb" unicode="&#x323;" horiz-adv-x="0" 
d="M563 -384q-52 0 -87.5 34.5t-35.5 88.5t35.5 88.5t87.5 34.5q53 0 88.5 -34t35.5 -89t-35.5 -89t-88.5 -34z" />
    <glyph glyph-name="uni0326" unicode="&#x326;" horiz-adv-x="0" 
d="M372 -608l136 221q-33 12 -54 42.5t-21 71.5q0 55 36.5 89.5t88.5 34.5t88.5 -36t36.5 -97q0 -41 -16 -74t-53 -82l-163 -221z" />
    <glyph glyph-name="uni0327" unicode="&#x327;" horiz-adv-x="0" 
d="M347 -388l154 388h124l-80 -388h-198z" />
    <glyph glyph-name="uni0328" unicode="&#x328;" horiz-adv-x="0" 
d="M566 -403q-110 0 -169.5 49.5t-59.5 131.5q0 71 60 141t171 124l131 -43q-124 -74 -169 -121.5t-45 -93.5q0 -29 23 -47.5t60 -18.5q66 0 116 52l91 -81q-86 -90 -209 -93z" />
    <glyph glyph-name="uni0394" unicode="&#x394;" horiz-adv-x="1415" 
d="M52 0l561 1465h192l559 -1465h-1312zM310 166h792l-396 1061z" />
    <glyph glyph-name="uni03A9" unicode="&#x3a9;" horiz-adv-x="1562" 
d="M93 0v169h301q-141 94 -214 249t-73 343q0 207 84.5 372t238.5 259t351 94t351.5 -94t239 -259t84.5 -372q0 -188 -73 -343t-215 -249h301v-169h-595v174q131 37 222 129t131.5 207.5t40.5 246.5q0 246 -133 402.5t-354 156.5t-354 -156.5t-133 -402.5
q0 -131 40.5 -246.5t132 -207.5t222.5 -129v-174h-596z" />
    <glyph glyph-name="uni03BC" unicode="&#x3bc;" horiz-adv-x="1168" 
d="M120 -455v1515h184v-634q0 -128 76 -204.5t203 -76.5q125 0 201 76.5t76 201.5v637h183v-1060h-179v148q-54 -79 -139 -123.5t-189 -44.5q-144 0 -241 72l8 -507h-183z" />
    <glyph glyph-name="pi" unicode="&#x3c0;" horiz-adv-x="1198" 
d="M19 901v159h1122v-159h-235v-545q0 -98 48 -144.5t130 -46.5v-165q-173 0 -267 94t-94 254v553h-295v-901h-184v901h-225z" />
    <glyph glyph-name="uni1E20" unicode="&#x1e20;" horiz-adv-x="1593" 
d="M808 -20q-208 0 -368 96t-246.5 266.5t-86.5 390.5q0 219 85.5 390.5t241 267t353.5 95.5q245 0 411 -124t232 -338l-179 -48q-53 158 -171.5 249t-292.5 91q-221 0 -357 -161t-136 -422q0 -263 140 -423.5t377 -160.5q145 0 260.5 64.5t189.5 183.5v270h188v-667h-159
l-12 170q-174 -190 -470 -190zM504 1714v159h681v-159h-681z" />
    <glyph glyph-name="uni1E21" unicode="&#x1e21;" horiz-adv-x="1259" 
d="M568 -475q-415 0 -586 351l157 82q40 -88 91.5 -144t136 -89.5t201.5 -33.5q173 0 274.5 102t101.5 284v113q-64 -83 -157.5 -126.5t-202.5 -43.5q-74 0 -145.5 21t-135 65t-111.5 105.5t-76 149.5t-28 190t28 189.5t76 149t111.5 105t135 64.5t145.5 21q110 0 203 -43
t157 -126v149h184v-983q0 -257 -153 -404.5t-407 -147.5zM272 551q0 -93 28.5 -165t76.5 -114.5t107 -64t125 -21.5t124 21.5t106.5 64t76.5 114.5t28 165q0 74 -18.5 135.5t-50.5 103t-75 70.5t-91 42t-100 13q-66 0 -125 -21.5t-107 -64t-76.5 -114.5t-28.5 -164z
M281 1309v159h681v-159h-681z" />
    <glyph glyph-name="Wgrave" unicode="&#x1e80;" horiz-adv-x="1877" 
d="M426 0l-366 1465h197l270 -1159l327 1159h180l326 -1156l271 1156h186l-364 -1465h-183l-332 1175l-330 -1175h-182zM725 1974h198l80 -388h-124z" />
    <glyph glyph-name="wgrave" unicode="&#x1e81;" horiz-adv-x="1627" 
d="M365 0l-320 1060h189l236 -841l258 841h182l258 -840l235 840h179l-316 -1060h-198l-253 811l-253 -811h-197zM590 1569h198l80 -388h-124z" />
    <glyph glyph-name="Wacute" unicode="&#x1e82;" horiz-adv-x="1877" 
d="M426 0l-366 1465h197l270 -1159l327 1159h180l326 -1156l271 1156h186l-364 -1465h-183l-332 1175l-330 -1175h-182zM875 1586l81 388h198l-155 -388h-124z" />
    <glyph glyph-name="wacute" unicode="&#x1e83;" horiz-adv-x="1627" 
d="M365 0l-320 1060h189l236 -841l258 841h182l258 -840l235 840h179l-316 -1060h-198l-253 811l-253 -811h-197zM740 1181l81 388h198l-155 -388h-124z" />
    <glyph glyph-name="Wdieresis" unicode="&#x1e84;" horiz-adv-x="1877" 
d="M426 0l-366 1465h197l270 -1159l327 1159h180l326 -1156l271 1156h186l-364 -1465h-183l-332 1175l-330 -1175h-182zM626 1764q0 51 34.5 84t82.5 33q49 0 82.5 -32.5t33.5 -84.5q0 -51 -33.5 -83.5t-82.5 -32.5t-83 32.5t-34 83.5zM1021 1764q0 51 34 84t83 33
q50 0 83 -32.5t33 -84.5t-33 -84t-83 -32q-49 0 -83 32.5t-34 83.5z" />
    <glyph glyph-name="wdieresis" unicode="&#x1e85;" horiz-adv-x="1627" 
d="M365 0l-320 1060h189l236 -841l258 841h182l258 -840l235 840h179l-316 -1060h-198l-253 811l-253 -811h-197zM491 1359q0 51 34.5 84t82.5 33q49 0 82.5 -32.5t33.5 -84.5q0 -51 -33.5 -83.5t-82.5 -32.5t-83 32.5t-34 83.5zM886 1359q0 51 34 84t83 33q50 0 83 -32.5
t33 -84.5t-33 -84t-83 -32q-49 0 -83 32.5t-34 83.5z" />
    <glyph glyph-name="uni1E9E" unicode="&#x1e9e;" horiz-adv-x="1404" 
d="M855 -20q-106 0 -219 33t-180 91l82 150q48 -48 139 -78.5t174 -30.5q158 0 245.5 87t87.5 224q0 132 -98.5 207.5t-258.5 75.5h-143v143l372 414h-714v-1296h-188v1465h1105v-169l-376 -414q115 0 209.5 -36.5t154.5 -97t92.5 -136t32.5 -156.5q0 -213 -139 -344.5
t-378 -131.5z" />
    <glyph glyph-name="uni1EA0" unicode="&#x1ea0;" horiz-adv-x="1415" 
d="M52 0l561 1465h192l559 -1465h-202l-124 333h-666l-124 -333h-196zM434 499h542l-271 726zM577 -261q0 54 35.5 88.5t87.5 34.5q53 0 88.5 -34t35.5 -89t-35.5 -89t-88.5 -34q-52 0 -87.5 34.5t-35.5 88.5z" />
    <glyph glyph-name="uni1EA1" unicode="&#x1ea1;" horiz-adv-x="1100" 
d="M439 -20q-143 0 -237 76.5t-94 215.5q0 59 19.5 106t48.5 77.5t79.5 56.5t93 41t108.5 33l338 89q-9 116 -82 179t-183 63q-102 0 -172 -44.5t-130 -143.5l-139 80q148 271 455 271q200 0 317.5 -110.5t117.5 -317.5v-652h-175v159q-61 -87 -157 -133t-208 -46zM291 282
q0 -75 49 -112.5t129 -37.5q44 0 88 9t88 30t77 52t53.5 79t20.5 107v127l-308 -83q-96 -26 -146.5 -64t-50.5 -107zM420 -261q0 54 35.5 88.5t87.5 34.5q53 0 88.5 -34t35.5 -89t-35.5 -89t-88.5 -34q-52 0 -87.5 34.5t-35.5 88.5z" />
    <glyph glyph-name="uni1EA2" unicode="&#x1ea2;" horiz-adv-x="1415" 
d="M52 0l561 1465h192l559 -1465h-202l-124 333h-666l-124 -333h-196zM434 499h542l-271 726zM512 1946q67 36 147 36q100 0 161.5 -56t61.5 -144q0 -143 -168 -233l-69 99q92 54 92 125q0 37 -26.5 60t-69.5 23q-46 0 -88 -20z" />
    <glyph glyph-name="uni1EA3" unicode="&#x1ea3;" horiz-adv-x="1100" 
d="M439 -20q-143 0 -237 76.5t-94 215.5q0 59 19.5 106t48.5 77.5t79.5 56.5t93 41t108.5 33l338 89q-9 116 -82 179t-183 63q-102 0 -172 -44.5t-130 -143.5l-139 80q148 271 455 271q200 0 317.5 -110.5t117.5 -317.5v-652h-175v159q-61 -87 -157 -133t-208 -46zM291 282
q0 -75 49 -112.5t129 -37.5q44 0 88 9t88 30t77 52t53.5 79t20.5 107v127l-308 -83q-96 -26 -146.5 -64t-50.5 -107zM346 1541q67 36 147 36q100 0 161.5 -56t61.5 -144q0 -143 -168 -233l-69 99q92 54 92 125q0 37 -26.5 60t-69.5 23q-46 0 -88 -20z" />
    <glyph glyph-name="uni1EA4" unicode="&#x1ea4;" horiz-adv-x="1415" 
d="M52 0l561 1465h192l559 -1465h-202l-124 333h-666l-124 -333h-196zM400 1586l214 388h189l212 -388h-164l-141 276l-144 -276h-166zM434 499h542l-271 726zM945 1809l80 355h176l-136 -355h-120z" />
    <glyph glyph-name="uni1EA5" unicode="&#x1ea5;" horiz-adv-x="1100" 
d="M439 -20q-143 0 -237 76.5t-94 215.5q0 59 19.5 106t48.5 77.5t79.5 56.5t93 41t108.5 33l338 89q-9 116 -82 179t-183 63q-102 0 -172 -44.5t-130 -143.5l-139 80q148 271 455 271q200 0 317.5 -110.5t117.5 -317.5v-652h-175v159q-61 -87 -157 -133t-208 -46zM234 1181
l214 388h189l212 -388h-164l-141 276l-144 -276h-166zM291 282q0 -75 49 -112.5t129 -37.5q44 0 88 9t88 30t77 52t53.5 79t20.5 107v127l-308 -83q-96 -26 -146.5 -64t-50.5 -107zM779 1404l80 355h176l-136 -355h-120z" />
    <glyph glyph-name="uni1EA6" unicode="&#x1ea6;" horiz-adv-x="1415" 
d="M52 0l561 1465h192l559 -1465h-202l-124 333h-666l-124 -333h-196zM400 1586l214 388h189l212 -388h-164l-141 276l-144 -276h-166zM434 499h542l-271 726zM871 2164h175l80 -355h-120z" />
    <glyph glyph-name="uni1EA7" unicode="&#x1ea7;" horiz-adv-x="1100" 
d="M439 -20q-143 0 -237 76.5t-94 215.5q0 59 19.5 106t48.5 77.5t79.5 56.5t93 41t108.5 33l338 89q-9 116 -82 179t-183 63q-102 0 -172 -44.5t-130 -143.5l-139 80q148 271 455 271q200 0 317.5 -110.5t117.5 -317.5v-652h-175v159q-61 -87 -157 -133t-208 -46zM234 1181
l214 388h189l212 -388h-164l-141 276l-144 -276h-166zM291 282q0 -75 49 -112.5t129 -37.5q44 0 88 9t88 30t77 52t53.5 79t20.5 107v127l-308 -83q-96 -26 -146.5 -64t-50.5 -107zM705 1759h175l80 -355h-120z" />
    <glyph glyph-name="uni1EA8" unicode="&#x1ea8;" horiz-adv-x="1415" 
d="M52 0l561 1465h192l559 -1465h-202l-124 333h-666l-124 -333h-196zM400 1586l214 388h189l212 -388h-164l-141 276l-144 -276h-166zM434 499h542l-271 726zM828 2163q67 36 147 36q100 0 161.5 -56t61.5 -144q0 -143 -168 -233l-69 99q92 54 92 125q0 37 -26.5 60
t-69.5 23q-46 0 -88 -20z" />
    <glyph glyph-name="uni1EA9" unicode="&#x1ea9;" horiz-adv-x="1100" 
d="M439 -20q-143 0 -237 76.5t-94 215.5q0 59 19.5 106t48.5 77.5t79.5 56.5t93 41t108.5 33l338 89q-9 116 -82 179t-183 63q-102 0 -172 -44.5t-130 -143.5l-139 80q148 271 455 271q200 0 317.5 -110.5t117.5 -317.5v-652h-175v159q-61 -87 -157 -133t-208 -46zM234 1181
l214 388h189l212 -388h-164l-141 276l-144 -276h-166zM291 282q0 -75 49 -112.5t129 -37.5q44 0 88 9t88 30t77 52t53.5 79t20.5 107v127l-308 -83q-96 -26 -146.5 -64t-50.5 -107zM662 1758q67 36 147 36q100 0 161.5 -56t61.5 -144q0 -143 -168 -233l-69 99q92 54 92 125
q0 37 -26.5 60t-69.5 23q-46 0 -88 -20z" />
    <glyph glyph-name="uni1EAA" unicode="&#x1eaa;" horiz-adv-x="1415" 
d="M52 0l561 1465h192l559 -1465h-202l-124 333h-666l-124 -333h-196zM369 2007q0 82 48 133.5t129 51.5q50 0 108 -25.5t107 -51t77 -25.5q30 0 47 19t17 50q0 16 -7 46l131 28q20 -55 20 -100q0 -82 -48 -133.5t-128 -51.5q-50 0 -109 26t-108.5 52t-77.5 26
q-30 0 -46.5 -19t-16.5 -52q0 -20 7 -44l-136 -27q-14 54 -14 97zM374 1586l240 303h189l236 -303h-171l-158 202l-161 -202h-175zM434 499h542l-271 726z" />
    <glyph glyph-name="uni1EAB" unicode="&#x1eab;" horiz-adv-x="1100" 
d="M439 -20q-143 0 -237 76.5t-94 215.5q0 59 19.5 106t48.5 77.5t79.5 56.5t93 41t108.5 33l338 89q-9 116 -82 179t-183 63q-102 0 -172 -44.5t-130 -143.5l-139 80q148 271 455 271q200 0 317.5 -110.5t117.5 -317.5v-652h-175v159q-61 -87 -157 -133t-208 -46zM203 1602
q0 82 48 133.5t129 51.5q50 0 108 -25.5t107 -51t77 -25.5q30 0 47 19t17 50q0 16 -7 46l131 28q20 -55 20 -100q0 -82 -48 -133.5t-128 -51.5q-50 0 -109 26t-108.5 52t-77.5 26q-30 0 -46.5 -19t-16.5 -52q0 -20 7 -44l-136 -27q-14 54 -14 97zM208 1181l240 303h189
l236 -303h-171l-158 202l-161 -202h-175zM291 282q0 -75 49 -112.5t129 -37.5q44 0 88 9t88 30t77 52t53.5 79t20.5 107v127l-308 -83q-96 -26 -146.5 -64t-50.5 -107z" />
    <glyph glyph-name="uni1EAC" unicode="&#x1eac;" horiz-adv-x="1415" 
d="M52 0l561 1465h192l559 -1465h-202l-124 333h-666l-124 -333h-196zM400 1586l214 388h189l212 -388h-164l-141 276l-144 -276h-166zM434 499h542l-271 726zM577 -261q0 54 35.5 88.5t87.5 34.5q53 0 88.5 -34t35.5 -89t-35.5 -89t-88.5 -34q-52 0 -87.5 34.5t-35.5 88.5z
" />
    <glyph glyph-name="uni1EAD" unicode="&#x1ead;" horiz-adv-x="1100" 
d="M439 -20q-143 0 -237 76.5t-94 215.5q0 59 19.5 106t48.5 77.5t79.5 56.5t93 41t108.5 33l338 89q-9 116 -82 179t-183 63q-102 0 -172 -44.5t-130 -143.5l-139 80q148 271 455 271q200 0 317.5 -110.5t117.5 -317.5v-652h-175v159q-61 -87 -157 -133t-208 -46zM234 1181
l214 388h189l212 -388h-164l-141 276l-144 -276h-166zM291 282q0 -75 49 -112.5t129 -37.5q44 0 88 9t88 30t77 52t53.5 79t20.5 107v127l-308 -83q-96 -26 -146.5 -64t-50.5 -107zM420 -261q0 54 35.5 88.5t87.5 34.5q53 0 88.5 -34t35.5 -89t-35.5 -89t-88.5 -34
q-52 0 -87.5 34.5t-35.5 88.5z" />
    <glyph glyph-name="uni1EAE" unicode="&#x1eae;" horiz-adv-x="1415" 
d="M52 0l561 1465h192l559 -1465h-202l-124 333h-666l-124 -333h-196zM384 1817q0 43 24 102l133 -39q-9 -28 -9 -54q0 -55 44 -85t131 -30q89 0 133 31t44 87q0 22 -8 51l135 41q23 -60 23 -104q0 -101 -85 -167.5t-240 -66.5t-240 66.5t-85 167.5zM434 499h542l-271 726z
M644 1915l81 388h198l-155 -388h-124z" />
    <glyph glyph-name="uni1EAF" unicode="&#x1eaf;" horiz-adv-x="1100" 
d="M439 -20q-143 0 -237 76.5t-94 215.5q0 59 19.5 106t48.5 77.5t79.5 56.5t93 41t108.5 33l338 89q-9 116 -82 179t-183 63q-102 0 -172 -44.5t-130 -143.5l-139 80q148 271 455 271q200 0 317.5 -110.5t117.5 -317.5v-652h-175v159q-61 -87 -157 -133t-208 -46zM218 1412
q0 43 24 102l133 -39q-9 -29 -9 -54q0 -55 44 -85t131 -30q89 0 133 31t44 87q0 22 -8 51l135 41q23 -60 23 -104q0 -101 -85 -167.5t-240 -66.5t-240 66.5t-85 167.5zM291 282q0 -75 49 -112.5t129 -37.5q44 0 88 9t88 30t77 52t53.5 79t20.5 107v127l-308 -83
q-96 -26 -146.5 -64t-50.5 -107zM478 1510l81 388h198l-155 -388h-124z" />
    <glyph glyph-name="uni1EB0" unicode="&#x1eb0;" horiz-adv-x="1415" 
d="M52 0l561 1465h192l559 -1465h-202l-124 333h-666l-124 -333h-196zM384 1817q0 43 24 102l133 -39q-9 -28 -9 -54q0 -55 44 -85t131 -30q89 0 133 31t44 87q0 22 -8 51l135 41q23 -60 23 -104q0 -101 -85 -167.5t-240 -66.5t-240 66.5t-85 167.5zM434 499h542l-271 726z
M494 2303h198l80 -388h-124z" />
    <glyph glyph-name="uni1EB1" unicode="&#x1eb1;" horiz-adv-x="1100" 
d="M439 -20q-143 0 -237 76.5t-94 215.5q0 59 19.5 106t48.5 77.5t79.5 56.5t93 41t108.5 33l338 89q-9 116 -82 179t-183 63q-102 0 -172 -44.5t-130 -143.5l-139 80q148 271 455 271q200 0 317.5 -110.5t117.5 -317.5v-652h-175v159q-61 -87 -157 -133t-208 -46zM218 1412
q0 43 24 102l133 -39q-9 -29 -9 -54q0 -55 44 -85t131 -30q89 0 133 31t44 87q0 22 -8 51l135 41q23 -60 23 -104q0 -101 -85 -167.5t-240 -66.5t-240 66.5t-85 167.5zM291 282q0 -75 49 -112.5t129 -37.5q44 0 88 9t88 30t77 52t53.5 79t20.5 107v127l-308 -83
q-96 -26 -146.5 -64t-50.5 -107zM328 1898h198l80 -388h-124z" />
    <glyph glyph-name="uni1EB2" unicode="&#x1eb2;" horiz-adv-x="1415" 
d="M52 0l561 1465h192l559 -1465h-202l-124 333h-666l-124 -333h-196zM384 1817q0 43 24 102l133 -39q-9 -28 -9 -54q0 -55 44 -85t131 -30q89 0 133 31t44 87q0 22 -8 51l135 41q23 -60 23 -104q0 -101 -85 -167.5t-240 -66.5t-240 66.5t-85 167.5zM434 499h542l-271 726z
M512 2275q67 36 147 36q100 0 161.5 -56t61.5 -144q0 -143 -168 -233l-69 99q92 54 92 125q0 37 -26.5 60t-69.5 23q-46 0 -88 -20z" />
    <glyph glyph-name="uni1EB3" unicode="&#x1eb3;" horiz-adv-x="1100" 
d="M439 -20q-143 0 -237 76.5t-94 215.5q0 59 19.5 106t48.5 77.5t79.5 56.5t93 41t108.5 33l338 89q-9 116 -82 179t-183 63q-102 0 -172 -44.5t-130 -143.5l-139 80q148 271 455 271q200 0 317.5 -110.5t117.5 -317.5v-652h-175v159q-61 -87 -157 -133t-208 -46zM218 1412
q0 43 24 102l133 -39q-9 -29 -9 -54q0 -55 44 -85t131 -30q89 0 133 31t44 87q0 22 -8 51l135 41q23 -60 23 -104q0 -101 -85 -167.5t-240 -66.5t-240 66.5t-85 167.5zM291 282q0 -75 49 -112.5t129 -37.5q44 0 88 9t88 30t77 52t53.5 79t20.5 107v127l-308 -83
q-96 -26 -146.5 -64t-50.5 -107zM346 1870q67 36 147 36q100 0 161.5 -56t61.5 -144q0 -143 -168 -233l-69 99q92 54 92 125q0 37 -26.5 60t-69.5 23q-46 0 -88 -20z" />
    <glyph glyph-name="uni1EB4" unicode="&#x1eb4;" horiz-adv-x="1415" 
d="M52 0l561 1465h192l559 -1465h-202l-124 333h-666l-124 -333h-196zM375 2056q0 79 47 128.5t128 49.5q52 0 109.5 -25t106 -50t78.5 -25t46.5 19t16.5 50q0 21 -6 46l123 26q20 -50 20 -100q0 -78 -47.5 -128t-126.5 -50q-52 0 -110.5 26t-107.5 52t-79 26t-46.5 -19.5
t-16.5 -51.5q0 -15 7 -45l-128 -26q-14 50 -14 97zM384 1817q0 43 24 102l133 -39q-9 -28 -9 -54q0 -55 44 -85t131 -30q89 0 133 31t44 87q0 22 -8 51l135 41q23 -60 23 -104q0 -101 -85 -167.5t-240 -66.5t-240 66.5t-85 167.5zM434 499h542l-271 726z" />
    <glyph glyph-name="uni1EB5" unicode="&#x1eb5;" horiz-adv-x="1100" 
d="M439 -20q-143 0 -237 76.5t-94 215.5q0 59 19.5 106t48.5 77.5t79.5 56.5t93 41t108.5 33l338 89q-9 116 -82 179t-183 63q-102 0 -172 -44.5t-130 -143.5l-139 80q148 271 455 271q200 0 317.5 -110.5t117.5 -317.5v-652h-175v159q-61 -87 -157 -133t-208 -46zM209 1651
q0 79 47 128.5t128 49.5q52 0 109.5 -25t106 -50t78.5 -25t46.5 19t16.5 50q0 20 -6 46l123 26q20 -50 20 -100q0 -78 -47.5 -128t-126.5 -50q-52 0 -110.5 26t-107.5 52t-79 26t-46.5 -19.5t-16.5 -51.5q0 -15 7 -45l-128 -26q-14 50 -14 97zM218 1412q0 43 24 102l133 -39
q-9 -29 -9 -54q0 -55 44 -85t131 -30q89 0 133 31t44 87q0 22 -8 51l135 41q23 -60 23 -104q0 -101 -85 -167.5t-240 -66.5t-240 66.5t-85 167.5zM291 282q0 -75 49 -112.5t129 -37.5q44 0 88 9t88 30t77 52t53.5 79t20.5 107v127l-308 -83q-96 -26 -146.5 -64t-50.5 -107z
" />
    <glyph glyph-name="uni1EB6" unicode="&#x1eb6;" horiz-adv-x="1415" 
d="M52 0l561 1465h192l559 -1465h-202l-124 333h-666l-124 -333h-196zM431 1817q0 39 24 102l141 -40q-9 -32 -9 -59q0 -52 31.5 -82t90.5 -30q58 0 89.5 30.5t31.5 82.5q0 28 -9 58l143 42q23 -64 23 -104q0 -98 -77.5 -166t-200.5 -68t-200.5 68t-77.5 166zM434 499h542
l-271 726zM577 -261q0 54 35.5 88.5t87.5 34.5q53 0 88.5 -34t35.5 -89t-35.5 -89t-88.5 -34q-52 0 -87.5 34.5t-35.5 88.5z" />
    <glyph glyph-name="uni1EB7" unicode="&#x1eb7;" horiz-adv-x="1100" 
d="M439 -20q-143 0 -237 76.5t-94 215.5q0 59 19.5 106t48.5 77.5t79.5 56.5t93 41t108.5 33l338 89q-9 116 -82 179t-183 63q-102 0 -172 -44.5t-130 -143.5l-139 80q148 271 455 271q200 0 317.5 -110.5t117.5 -317.5v-652h-175v159q-61 -87 -157 -133t-208 -46zM265 1412
q0 39 24 102l141 -40q-9 -32 -9 -59q0 -52 31.5 -82t90.5 -30q58 0 89.5 30.5t31.5 82.5q0 28 -9 58l143 42q23 -64 23 -104q0 -98 -77.5 -166t-200.5 -68t-200.5 68t-77.5 166zM291 282q0 -75 49 -112.5t129 -37.5q44 0 88 9t88 30t77 52t53.5 79t20.5 107v127l-308 -83
q-96 -26 -146.5 -64t-50.5 -107zM420 -261q0 54 35.5 88.5t87.5 34.5q53 0 88.5 -34t35.5 -89t-35.5 -89t-88.5 -34q-52 0 -87.5 34.5t-35.5 88.5z" />
    <glyph glyph-name="uni1EB8" unicode="&#x1eb8;" horiz-adv-x="1314" 
d="M154 0v1465h987v-167h-799v-459h727v-168h-727v-503h840v-168h-1028zM533 -261q0 54 35.5 88.5t87.5 34.5q53 0 88.5 -34t35.5 -89t-35.5 -89t-88.5 -34q-52 0 -87.5 34.5t-35.5 88.5z" />
    <glyph glyph-name="uni1EB9" unicode="&#x1eb9;" horiz-adv-x="1201" 
d="M609 -20q-102 0 -194 34.5t-166 100.5t-117.5 173t-43.5 242t45 242.5t120.5 173t169 100t196.5 34.5q107 0 195.5 -32t156 -95t105 -165.5t37.5 -236.5v-50h-840q4 -93 33.5 -163.5t77.5 -112t105 -62t121 -20.5q114 0 193 44.5t142 143.5l147 -77q-152 -274 -483 -274z
M283 641h640q-20 140 -99.5 208t-204.5 68q-78 0 -144.5 -27t-119.5 -91t-72 -158zM486 -261q0 54 35.5 88.5t87.5 34.5q53 0 88.5 -34t35.5 -89t-35.5 -89t-88.5 -34q-52 0 -87.5 34.5t-35.5 88.5z" />
    <glyph glyph-name="uni1EBA" unicode="&#x1eba;" horiz-adv-x="1314" 
d="M154 0v1465h987v-167h-799v-459h727v-168h-727v-503h840v-168h-1028zM459 1946q67 36 147 36q100 0 161.5 -56t61.5 -144q0 -143 -168 -233l-69 99q92 54 92 125q0 37 -26.5 60t-69.5 23q-46 0 -88 -20z" />
    <glyph glyph-name="uni1EBB" unicode="&#x1ebb;" horiz-adv-x="1201" 
d="M609 -20q-102 0 -194 34.5t-166 100.5t-117.5 173t-43.5 242t45 242.5t120.5 173t169 100t196.5 34.5q107 0 195.5 -32t156 -95t105 -165.5t37.5 -236.5v-50h-840q4 -93 33.5 -163.5t77.5 -112t105 -62t121 -20.5q114 0 193 44.5t142 143.5l147 -77q-152 -274 -483 -274z
M283 641h640q-20 140 -99.5 208t-204.5 68q-78 0 -144.5 -27t-119.5 -91t-72 -158zM422 1541q67 36 147 36q100 0 161.5 -56t61.5 -144q0 -143 -168 -233l-69 99q92 54 92 125q0 37 -26.5 60t-69.5 23q-46 0 -88 -20z" />
    <glyph glyph-name="uni1EBC" unicode="&#x1ebc;" horiz-adv-x="1314" 
d="M154 0v1465h987v-167h-799v-459h727v-168h-727v-503h840v-168h-1028zM318 1720q0 82 48 133.5t129 51.5q50 0 108 -25.5t107 -51t77 -25.5q30 0 47 19t17 50q0 16 -7 46l131 28q20 -55 20 -100q0 -82 -48 -133.5t-128 -51.5q-50 0 -109 26t-108.5 52t-77.5 26
q-30 0 -46.5 -19t-16.5 -52q0 -20 7 -44l-136 -27q-14 54 -14 97z" />
    <glyph glyph-name="uni1EBD" unicode="&#x1ebd;" horiz-adv-x="1201" 
d="M609 -20q-102 0 -194 34.5t-166 100.5t-117.5 173t-43.5 242t45 242.5t120.5 173t169 100t196.5 34.5q107 0 195.5 -32t156 -95t105 -165.5t37.5 -236.5v-50h-840q4 -93 33.5 -163.5t77.5 -112t105 -62t121 -20.5q114 0 193 44.5t142 143.5l147 -77q-152 -274 -483 -274z
M281 1315q0 82 48 133.5t129 51.5q50 0 108 -25.5t107 -51t77 -25.5q30 0 47 19t17 50q0 16 -7 46l131 28q20 -55 20 -100q0 -82 -48 -133.5t-128 -51.5q-50 0 -109 26t-108.5 52t-77.5 26q-30 0 -46.5 -19t-16.5 -52q0 -20 7 -44l-136 -27q-14 54 -14 97zM283 641h640
q-20 140 -99.5 208t-204.5 68q-78 0 -144.5 -27t-119.5 -91t-72 -158z" />
    <glyph glyph-name="uni1EBE" unicode="&#x1ebe;" horiz-adv-x="1314" 
d="M154 0v1465h987v-167h-799v-459h727v-168h-727v-503h840v-168h-1028zM347 1586l214 388h189l212 -388h-164l-141 276l-144 -276h-166zM892 1809l80 355h176l-136 -355h-120z" />
    <glyph glyph-name="uni1EBF" unicode="&#x1ebf;" horiz-adv-x="1201" 
d="M609 -20q-102 0 -194 34.5t-166 100.5t-117.5 173t-43.5 242t45 242.5t120.5 173t169 100t196.5 34.5q107 0 195.5 -32t156 -95t105 -165.5t37.5 -236.5v-50h-840q4 -93 33.5 -163.5t77.5 -112t105 -62t121 -20.5q114 0 193 44.5t142 143.5l147 -77q-152 -274 -483 -274z
M283 641h640q-20 140 -99.5 208t-204.5 68q-78 0 -144.5 -27t-119.5 -91t-72 -158zM310 1181l214 388h189l212 -388h-164l-141 276l-144 -276h-166zM855 1404l80 355h176l-136 -355h-120z" />
    <glyph glyph-name="uni1EC0" unicode="&#x1ec0;" horiz-adv-x="1314" 
d="M154 0v1465h987v-167h-799v-459h727v-168h-727v-503h840v-168h-1028zM347 1586l214 388h189l212 -388h-164l-141 276l-144 -276h-166zM818 2164h175l80 -355h-120z" />
    <glyph glyph-name="uni1EC1" unicode="&#x1ec1;" horiz-adv-x="1201" 
d="M609 -20q-102 0 -194 34.5t-166 100.5t-117.5 173t-43.5 242t45 242.5t120.5 173t169 100t196.5 34.5q107 0 195.5 -32t156 -95t105 -165.5t37.5 -236.5v-50h-840q4 -93 33.5 -163.5t77.5 -112t105 -62t121 -20.5q114 0 193 44.5t142 143.5l147 -77q-152 -274 -483 -274z
M283 641h640q-20 140 -99.5 208t-204.5 68q-78 0 -144.5 -27t-119.5 -91t-72 -158zM310 1181l214 388h189l212 -388h-164l-141 276l-144 -276h-166zM781 1759h175l80 -355h-120z" />
    <glyph glyph-name="uni1EC2" unicode="&#x1ec2;" horiz-adv-x="1314" 
d="M154 0v1465h987v-167h-799v-459h727v-168h-727v-503h840v-168h-1028zM347 1586l214 388h189l212 -388h-164l-141 276l-144 -276h-166zM775 2163q67 36 147 36q100 0 161.5 -56t61.5 -144q0 -143 -168 -233l-69 99q92 54 92 125q0 37 -26.5 60t-69.5 23q-46 0 -88 -20z
" />
    <glyph glyph-name="uni1EC3" unicode="&#x1ec3;" horiz-adv-x="1201" 
d="M609 -20q-102 0 -194 34.5t-166 100.5t-117.5 173t-43.5 242t45 242.5t120.5 173t169 100t196.5 34.5q107 0 195.5 -32t156 -95t105 -165.5t37.5 -236.5v-50h-840q4 -93 33.5 -163.5t77.5 -112t105 -62t121 -20.5q114 0 193 44.5t142 143.5l147 -77q-152 -274 -483 -274z
M283 641h640q-20 140 -99.5 208t-204.5 68q-78 0 -144.5 -27t-119.5 -91t-72 -158zM310 1181l214 388h189l212 -388h-164l-141 276l-144 -276h-166zM738 1758q67 36 147 36q100 0 161.5 -56t61.5 -144q0 -143 -168 -233l-69 99q92 54 92 125q0 37 -26.5 60t-69.5 23
q-46 0 -88 -20z" />
    <glyph glyph-name="uni1EC4" unicode="&#x1ec4;" horiz-adv-x="1314" 
d="M154 0v1465h987v-167h-799v-459h727v-168h-727v-503h840v-168h-1028zM316 2007q0 82 48 133.5t129 51.5q50 0 108 -25.5t107 -51t77 -25.5q30 0 47 19t17 50q0 16 -7 46l131 28q20 -55 20 -100q0 -82 -48 -133.5t-128 -51.5q-50 0 -109 26t-108.5 52t-77.5 26
q-30 0 -46.5 -19t-16.5 -52q0 -20 7 -44l-136 -27q-14 54 -14 97zM321 1586l240 303h189l236 -303h-171l-158 202l-161 -202h-175z" />
    <glyph glyph-name="uni1EC5" unicode="&#x1ec5;" horiz-adv-x="1201" 
d="M609 -20q-102 0 -194 34.5t-166 100.5t-117.5 173t-43.5 242t45 242.5t120.5 173t169 100t196.5 34.5q107 0 195.5 -32t156 -95t105 -165.5t37.5 -236.5v-50h-840q4 -93 33.5 -163.5t77.5 -112t105 -62t121 -20.5q114 0 193 44.5t142 143.5l147 -77q-152 -274 -483 -274z
M279 1602q0 82 48 133.5t129 51.5q50 0 108 -25.5t107 -51t77 -25.5q30 0 47 19t17 50q0 16 -7 46l131 28q20 -55 20 -100q0 -82 -48 -133.5t-128 -51.5q-50 0 -109 26t-108.5 52t-77.5 26q-30 0 -46.5 -19t-16.5 -52q0 -20 7 -44l-136 -27q-14 54 -14 97zM283 641h640
q-20 140 -99.5 208t-204.5 68q-78 0 -144.5 -27t-119.5 -91t-72 -158zM284 1181l240 303h189l236 -303h-171l-158 202l-161 -202h-175z" />
    <glyph glyph-name="uni1EC6" unicode="&#x1ec6;" horiz-adv-x="1314" 
d="M154 0v1465h987v-167h-799v-459h727v-168h-727v-503h840v-168h-1028zM347 1586l214 388h189l212 -388h-164l-141 276l-144 -276h-166zM533 -261q0 54 35.5 88.5t87.5 34.5q53 0 88.5 -34t35.5 -89t-35.5 -89t-88.5 -34q-52 0 -87.5 34.5t-35.5 88.5z" />
    <glyph glyph-name="uni1EC7" unicode="&#x1ec7;" horiz-adv-x="1201" 
d="M609 -20q-102 0 -194 34.5t-166 100.5t-117.5 173t-43.5 242t45 242.5t120.5 173t169 100t196.5 34.5q107 0 195.5 -32t156 -95t105 -165.5t37.5 -236.5v-50h-840q4 -93 33.5 -163.5t77.5 -112t105 -62t121 -20.5q114 0 193 44.5t142 143.5l147 -77q-152 -274 -483 -274z
M283 641h640q-20 140 -99.5 208t-204.5 68q-78 0 -144.5 -27t-119.5 -91t-72 -158zM310 1181l214 388h189l212 -388h-164l-141 276l-144 -276h-166zM486 -261q0 54 35.5 88.5t87.5 34.5q53 0 88.5 -34t35.5 -89t-35.5 -89t-88.5 -34q-52 0 -87.5 34.5t-35.5 88.5z" />
    <glyph glyph-name="uni1EC8" unicode="&#x1ec8;" horiz-adv-x="496" 
d="M154 0v1465h188v-1465h-188zM51 1946q67 36 147 36q100 0 161.5 -56t61.5 -144q0 -143 -168 -233l-69 99q92 54 92 125q0 37 -26.5 60t-69.5 23q-46 0 -88 -20z" />
    <glyph glyph-name="uni1EC9" unicode="&#x1ec9;" horiz-adv-x="460" 
d="M138 0v1060h184v-1060h-184zM33 1541q67 36 147 36q100 0 161.5 -56t61.5 -144q0 -143 -168 -233l-69 99q92 54 92 125q0 37 -26.5 60t-69.5 23q-46 0 -88 -20z" />
    <glyph glyph-name="uni1ECA" unicode="&#x1eca;" horiz-adv-x="496" 
d="M154 0v1465h188v-1465h-188zM125 -261q0 54 35.5 88.5t87.5 34.5q53 0 88.5 -34t35.5 -89t-35.5 -89t-88.5 -34q-52 0 -87.5 34.5t-35.5 88.5z" />
    <glyph glyph-name="uni1ECB" unicode="&#x1ecb;" horiz-adv-x="460" 
d="M138 0v1060h184v-1060h-184zM107 -261q0 54 35.5 88.5t87.5 34.5q53 0 88.5 -34t35.5 -89t-35.5 -89t-88.5 -34q-52 0 -87.5 34.5t-35.5 88.5zM107 1393q0 54 35.5 88.5t87.5 34.5t88 -34.5t36 -88.5q0 -55 -36 -89.5t-88 -34.5t-87.5 34.5t-35.5 89.5z" />
    <glyph glyph-name="uni1ECC" unicode="&#x1ecc;" horiz-adv-x="1562" 
d="M781 -20q-197 0 -351 95.5t-238.5 267t-84.5 390.5t84.5 390.5t238.5 267t351 95.5t351 -95.5t239 -267t85 -390.5t-85 -390.5t-238.5 -267t-351.5 -95.5zM294 733q0 -262 132.5 -423t354.5 -161t354.5 161t132.5 423t-132 422.5t-355 160.5q-222 0 -354.5 -160.5
t-132.5 -422.5zM642 -261q0 54 35.5 88.5t87.5 34.5q53 0 88.5 -34t35.5 -89t-35.5 -89t-88.5 -34q-52 0 -87.5 34.5t-35.5 88.5z" />
    <glyph glyph-name="uni1ECD" unicode="&#x1ecd;" horiz-adv-x="1216" 
d="M607 -20q-102 0 -193.5 34.5t-165 100.5t-117 173t-43.5 242t43.5 242t117 173t165 100.5t193.5 34.5t194 -34.5t165.5 -100.5t117.5 -173t44 -242t-44 -242t-117.5 -173t-165.5 -100.5t-194 -34.5zM272 530q0 -100 28 -176.5t76.5 -120.5t106.5 -66t124 -22
q67 0 125.5 22t107 66t76.5 120.5t28 176.5t-28 176.5t-76.5 120.5t-107 66t-125.5 22q-66 0 -124 -22t-106.5 -66t-76.5 -120.5t-28 -176.5zM486 -261q0 54 35.5 88.5t87.5 34.5q53 0 88.5 -34t35.5 -89t-35.5 -89t-88.5 -34q-52 0 -87.5 34.5t-35.5 88.5z" />
    <glyph glyph-name="uni1ECE" unicode="&#x1ece;" horiz-adv-x="1562" 
d="M781 -20q-197 0 -351 95.5t-238.5 267t-84.5 390.5t84.5 390.5t238.5 267t351 95.5t351 -95.5t239 -267t85 -390.5t-85 -390.5t-238.5 -267t-351.5 -95.5zM294 733q0 -262 132.5 -423t354.5 -161t354.5 161t132.5 423t-132 422.5t-355 160.5q-222 0 -354.5 -160.5
t-132.5 -422.5zM584 1946q67 36 147 36q100 0 161.5 -56t61.5 -144q0 -143 -168 -233l-69 99q92 54 92 125q0 37 -26.5 60t-69.5 23q-46 0 -88 -20z" />
    <glyph glyph-name="uni1ECF" unicode="&#x1ecf;" horiz-adv-x="1216" 
d="M607 -20q-102 0 -193.5 34.5t-165 100.5t-117 173t-43.5 242t43.5 242t117 173t165 100.5t193.5 34.5t194 -34.5t165.5 -100.5t117.5 -173t44 -242t-44 -242t-117.5 -173t-165.5 -100.5t-194 -34.5zM272 530q0 -100 28 -176.5t76.5 -120.5t106.5 -66t124 -22
q67 0 125.5 22t107 66t76.5 120.5t28 176.5t-28 176.5t-76.5 120.5t-107 66t-125.5 22q-66 0 -124 -22t-106.5 -66t-76.5 -120.5t-28 -176.5zM412 1541q67 36 147 36q100 0 161.5 -56t61.5 -144q0 -143 -168 -233l-69 99q92 54 92 125q0 37 -26.5 60t-69.5 23q-46 0 -88 -20
z" />
    <glyph glyph-name="uni1ED0" unicode="&#x1ed0;" horiz-adv-x="1562" 
d="M781 -20q-197 0 -351 95.5t-238.5 267t-84.5 390.5t84.5 390.5t238.5 267t351 95.5t351 -95.5t239 -267t85 -390.5t-85 -390.5t-238.5 -267t-351.5 -95.5zM294 733q0 -262 132.5 -423t354.5 -161t354.5 161t132.5 423t-132 422.5t-355 160.5q-222 0 -354.5 -160.5
t-132.5 -422.5zM472 1586l214 388h189l212 -388h-164l-141 276l-144 -276h-166zM1017 1809l80 355h176l-136 -355h-120z" />
    <glyph glyph-name="uni1ED1" unicode="&#x1ed1;" horiz-adv-x="1216" 
d="M607 -20q-102 0 -193.5 34.5t-165 100.5t-117 173t-43.5 242t43.5 242t117 173t165 100.5t193.5 34.5t194 -34.5t165.5 -100.5t117.5 -173t44 -242t-44 -242t-117.5 -173t-165.5 -100.5t-194 -34.5zM272 530q0 -100 28 -176.5t76.5 -120.5t106.5 -66t124 -22
q67 0 125.5 22t107 66t76.5 120.5t28 176.5t-28 176.5t-76.5 120.5t-107 66t-125.5 22q-66 0 -124 -22t-106.5 -66t-76.5 -120.5t-28 -176.5zM300 1181l214 388h189l212 -388h-164l-141 276l-144 -276h-166zM845 1404l80 355h176l-136 -355h-120z" />
    <glyph glyph-name="uni1ED2" unicode="&#x1ed2;" horiz-adv-x="1562" 
d="M781 -20q-197 0 -351 95.5t-238.5 267t-84.5 390.5t84.5 390.5t238.5 267t351 95.5t351 -95.5t239 -267t85 -390.5t-85 -390.5t-238.5 -267t-351.5 -95.5zM294 733q0 -262 132.5 -423t354.5 -161t354.5 161t132.5 423t-132 422.5t-355 160.5q-222 0 -354.5 -160.5
t-132.5 -422.5zM472 1586l214 388h189l212 -388h-164l-141 276l-144 -276h-166zM943 2164h175l80 -355h-120z" />
    <glyph glyph-name="uni1ED3" unicode="&#x1ed3;" horiz-adv-x="1216" 
d="M607 -20q-102 0 -193.5 34.5t-165 100.5t-117 173t-43.5 242t43.5 242t117 173t165 100.5t193.5 34.5t194 -34.5t165.5 -100.5t117.5 -173t44 -242t-44 -242t-117.5 -173t-165.5 -100.5t-194 -34.5zM272 530q0 -100 28 -176.5t76.5 -120.5t106.5 -66t124 -22
q67 0 125.5 22t107 66t76.5 120.5t28 176.5t-28 176.5t-76.5 120.5t-107 66t-125.5 22q-66 0 -124 -22t-106.5 -66t-76.5 -120.5t-28 -176.5zM300 1181l214 388h189l212 -388h-164l-141 276l-144 -276h-166zM771 1759h175l80 -355h-120z" />
    <glyph glyph-name="uni1ED4" unicode="&#x1ed4;" horiz-adv-x="1562" 
d="M781 -20q-197 0 -351 95.5t-238.5 267t-84.5 390.5t84.5 390.5t238.5 267t351 95.5t351 -95.5t239 -267t85 -390.5t-85 -390.5t-238.5 -267t-351.5 -95.5zM294 733q0 -262 132.5 -423t354.5 -161t354.5 161t132.5 423t-132 422.5t-355 160.5q-222 0 -354.5 -160.5
t-132.5 -422.5zM472 1586l214 388h189l212 -388h-164l-141 276l-144 -276h-166zM900 2163q67 36 147 36q100 0 161.5 -56t61.5 -144q0 -143 -168 -233l-69 99q92 54 92 125q0 37 -26.5 60t-69.5 23q-46 0 -88 -20z" />
    <glyph glyph-name="uni1ED5" unicode="&#x1ed5;" horiz-adv-x="1216" 
d="M607 -20q-102 0 -193.5 34.5t-165 100.5t-117 173t-43.5 242t43.5 242t117 173t165 100.5t193.5 34.5t194 -34.5t165.5 -100.5t117.5 -173t44 -242t-44 -242t-117.5 -173t-165.5 -100.5t-194 -34.5zM272 530q0 -100 28 -176.5t76.5 -120.5t106.5 -66t124 -22
q67 0 125.5 22t107 66t76.5 120.5t28 176.5t-28 176.5t-76.5 120.5t-107 66t-125.5 22q-66 0 -124 -22t-106.5 -66t-76.5 -120.5t-28 -176.5zM300 1181l214 388h189l212 -388h-164l-141 276l-144 -276h-166zM728 1758q67 36 147 36q100 0 161.5 -56t61.5 -144
q0 -143 -168 -233l-69 99q92 54 92 125q0 37 -26.5 60t-69.5 23q-46 0 -88 -20z" />
    <glyph glyph-name="uni1ED6" unicode="&#x1ed6;" horiz-adv-x="1562" 
d="M781 -20q-197 0 -351 95.5t-238.5 267t-84.5 390.5t84.5 390.5t238.5 267t351 95.5t351 -95.5t239 -267t85 -390.5t-85 -390.5t-238.5 -267t-351.5 -95.5zM294 733q0 -262 132.5 -423t354.5 -161t354.5 161t132.5 423t-132 422.5t-355 160.5q-222 0 -354.5 -160.5
t-132.5 -422.5zM441 2007q0 82 48 133.5t129 51.5q50 0 108 -25.5t107 -51t77 -25.5q30 0 47 19t17 50q0 16 -7 46l131 28q20 -55 20 -100q0 -82 -48 -133.5t-128 -51.5q-50 0 -109 26t-108.5 52t-77.5 26q-30 0 -46.5 -19t-16.5 -52q0 -20 7 -44l-136 -27q-14 54 -14 97z
M446 1586l240 303h189l236 -303h-171l-158 202l-161 -202h-175z" />
    <glyph glyph-name="uni1ED7" unicode="&#x1ed7;" horiz-adv-x="1216" 
d="M607 -20q-102 0 -193.5 34.5t-165 100.5t-117 173t-43.5 242t43.5 242t117 173t165 100.5t193.5 34.5t194 -34.5t165.5 -100.5t117.5 -173t44 -242t-44 -242t-117.5 -173t-165.5 -100.5t-194 -34.5zM269 1602q0 82 48 133.5t129 51.5q50 0 108 -25.5t107 -51t77 -25.5
q30 0 47 19t17 50q0 16 -7 46l131 28q20 -55 20 -100q0 -82 -48 -133.5t-128 -51.5q-50 0 -109 26t-108.5 52t-77.5 26q-30 0 -46.5 -19t-16.5 -52q0 -20 7 -44l-136 -27q-14 54 -14 97zM272 530q0 -100 28 -176.5t76.5 -120.5t106.5 -66t124 -22q67 0 125.5 22t107 66
t76.5 120.5t28 176.5t-28 176.5t-76.5 120.5t-107 66t-125.5 22q-66 0 -124 -22t-106.5 -66t-76.5 -120.5t-28 -176.5zM274 1181l240 303h189l236 -303h-171l-158 202l-161 -202h-175z" />
    <glyph glyph-name="uni1ED8" unicode="&#x1ed8;" horiz-adv-x="1562" 
d="M781 -20q-197 0 -351 95.5t-238.5 267t-84.5 390.5t84.5 390.5t238.5 267t351 95.5t351 -95.5t239 -267t85 -390.5t-85 -390.5t-238.5 -267t-351.5 -95.5zM294 733q0 -262 132.5 -423t354.5 -161t354.5 161t132.5 423t-132 422.5t-355 160.5q-222 0 -354.5 -160.5
t-132.5 -422.5zM472 1586l214 388h189l212 -388h-164l-141 276l-144 -276h-166zM642 -261q0 54 35.5 88.5t87.5 34.5q53 0 88.5 -34t35.5 -89t-35.5 -89t-88.5 -34q-52 0 -87.5 34.5t-35.5 88.5z" />
    <glyph glyph-name="uni1ED9" unicode="&#x1ed9;" horiz-adv-x="1216" 
d="M607 -20q-102 0 -193.5 34.5t-165 100.5t-117 173t-43.5 242t43.5 242t117 173t165 100.5t193.5 34.5t194 -34.5t165.5 -100.5t117.5 -173t44 -242t-44 -242t-117.5 -173t-165.5 -100.5t-194 -34.5zM272 530q0 -100 28 -176.5t76.5 -120.5t106.5 -66t124 -22
q67 0 125.5 22t107 66t76.5 120.5t28 176.5t-28 176.5t-76.5 120.5t-107 66t-125.5 22q-66 0 -124 -22t-106.5 -66t-76.5 -120.5t-28 -176.5zM300 1181l214 388h189l212 -388h-164l-141 276l-144 -276h-166zM486 -261q0 54 35.5 88.5t87.5 34.5q53 0 88.5 -34t35.5 -89
t-35.5 -89t-88.5 -34q-52 0 -87.5 34.5t-35.5 88.5z" />
    <glyph glyph-name="uni1EDA" unicode="&#x1eda;" horiz-adv-x="1562" 
d="M781 -20q-197 0 -351 95.5t-238.5 267t-84.5 390.5t84.5 390.5t238.5 267t351 95.5q103 0 226 -18.5t170 -18.5q132 0 132 137v107h159v-128q0 -107 -64.5 -180.5t-182.5 -77.5q116 -96 175.5 -246t59.5 -328q0 -219 -85 -390.5t-238.5 -267t-351.5 -95.5zM294 733
q0 -262 132.5 -423t354.5 -161t354.5 161t132.5 423t-132 422.5t-355 160.5q-222 0 -354.5 -160.5t-132.5 -422.5zM716 1586l81 388h198l-155 -388h-124z" />
    <glyph glyph-name="uni1EDB" unicode="&#x1edb;" horiz-adv-x="1216" 
d="M607 -20q-102 0 -193.5 34.5t-165 100.5t-117 173t-43.5 242t43.5 242t117 173t165 100.5t193.5 34.5q70 0 166.5 -10t112.5 -10q56 0 86 39.5t30 101.5v86h159v-104q0 -93 -50.5 -159t-140.5 -81q158 -150 158 -413q0 -135 -44 -242t-117.5 -173t-165.5 -100.5
t-194 -34.5zM272 530q0 -100 28 -176.5t76.5 -120.5t106.5 -66t124 -22q67 0 125.5 22t107 66t76.5 120.5t28 176.5t-28 176.5t-76.5 120.5t-107 66t-125.5 22q-66 0 -124 -22t-106.5 -66t-76.5 -120.5t-28 -176.5zM544 1181l81 388h198l-155 -388h-124z" />
    <glyph glyph-name="uni1EDC" unicode="&#x1edc;" horiz-adv-x="1562" 
d="M781 -20q-197 0 -351 95.5t-238.5 267t-84.5 390.5t84.5 390.5t238.5 267t351 95.5q103 0 226 -18.5t170 -18.5q132 0 132 137v107h159v-128q0 -107 -64.5 -180.5t-182.5 -77.5q116 -96 175.5 -246t59.5 -328q0 -219 -85 -390.5t-238.5 -267t-351.5 -95.5zM294 733
q0 -262 132.5 -423t354.5 -161t354.5 161t132.5 423t-132 422.5t-355 160.5q-222 0 -354.5 -160.5t-132.5 -422.5zM566 1974h198l80 -388h-124z" />
    <glyph glyph-name="uni1EDD" unicode="&#x1edd;" horiz-adv-x="1216" 
d="M607 -20q-102 0 -193.5 34.5t-165 100.5t-117 173t-43.5 242t43.5 242t117 173t165 100.5t193.5 34.5q70 0 166.5 -10t112.5 -10q56 0 86 39.5t30 101.5v86h159v-104q0 -93 -50.5 -159t-140.5 -81q158 -150 158 -413q0 -135 -44 -242t-117.5 -173t-165.5 -100.5
t-194 -34.5zM272 530q0 -100 28 -176.5t76.5 -120.5t106.5 -66t124 -22q67 0 125.5 22t107 66t76.5 120.5t28 176.5t-28 176.5t-76.5 120.5t-107 66t-125.5 22q-66 0 -124 -22t-106.5 -66t-76.5 -120.5t-28 -176.5zM394 1569h198l80 -388h-124z" />
    <glyph glyph-name="uni1EDE" unicode="&#x1ede;" horiz-adv-x="1562" 
d="M781 -20q-197 0 -351 95.5t-238.5 267t-84.5 390.5t84.5 390.5t238.5 267t351 95.5q103 0 226 -18.5t170 -18.5q132 0 132 137v107h159v-128q0 -107 -64.5 -180.5t-182.5 -77.5q116 -96 175.5 -246t59.5 -328q0 -219 -85 -390.5t-238.5 -267t-351.5 -95.5zM294 733
q0 -262 132.5 -423t354.5 -161t354.5 161t132.5 423t-132 422.5t-355 160.5q-222 0 -354.5 -160.5t-132.5 -422.5zM584 1946q67 36 147 36q100 0 161.5 -56t61.5 -144q0 -143 -168 -233l-69 99q92 54 92 125q0 37 -26.5 60t-69.5 23q-46 0 -88 -20z" />
    <glyph glyph-name="uni1EDF" unicode="&#x1edf;" horiz-adv-x="1216" 
d="M607 -20q-102 0 -193.5 34.5t-165 100.5t-117 173t-43.5 242t43.5 242t117 173t165 100.5t193.5 34.5q70 0 166.5 -10t112.5 -10q56 0 86 39.5t30 101.5v86h159v-104q0 -93 -50.5 -159t-140.5 -81q158 -150 158 -413q0 -135 -44 -242t-117.5 -173t-165.5 -100.5
t-194 -34.5zM272 530q0 -100 28 -176.5t76.5 -120.5t106.5 -66t124 -22q67 0 125.5 22t107 66t76.5 120.5t28 176.5t-28 176.5t-76.5 120.5t-107 66t-125.5 22q-66 0 -124 -22t-106.5 -66t-76.5 -120.5t-28 -176.5zM412 1541q67 36 147 36q100 0 161.5 -56t61.5 -144
q0 -143 -168 -233l-69 99q92 54 92 125q0 37 -26.5 60t-69.5 23q-46 0 -88 -20z" />
    <glyph glyph-name="uni1EE0" unicode="&#x1ee0;" horiz-adv-x="1562" 
d="M781 -20q-197 0 -351 95.5t-238.5 267t-84.5 390.5t84.5 390.5t238.5 267t351 95.5q103 0 226 -18.5t170 -18.5q132 0 132 137v107h159v-128q0 -107 -64.5 -180.5t-182.5 -77.5q116 -96 175.5 -246t59.5 -328q0 -219 -85 -390.5t-238.5 -267t-351.5 -95.5zM294 733
q0 -262 132.5 -423t354.5 -161t354.5 161t132.5 423t-132 422.5t-355 160.5q-222 0 -354.5 -160.5t-132.5 -422.5zM443 1720q0 82 48 133.5t129 51.5q50 0 108 -25.5t107 -51t77 -25.5q30 0 47 19t17 50q0 16 -7 46l131 28q20 -55 20 -100q0 -82 -48 -133.5t-128 -51.5
q-50 0 -109 26t-108.5 52t-77.5 26q-30 0 -46.5 -19t-16.5 -52q0 -20 7 -44l-136 -27q-14 54 -14 97z" />
    <glyph glyph-name="uni1EE1" unicode="&#x1ee1;" horiz-adv-x="1216" 
d="M607 -20q-102 0 -193.5 34.5t-165 100.5t-117 173t-43.5 242t43.5 242t117 173t165 100.5t193.5 34.5q70 0 166.5 -10t112.5 -10q56 0 86 39.5t30 101.5v86h159v-104q0 -93 -50.5 -159t-140.5 -81q158 -150 158 -413q0 -135 -44 -242t-117.5 -173t-165.5 -100.5
t-194 -34.5zM270 1315q0 82 48 133.5t129 51.5q51 0 107.5 -25.5t103 -51t74.5 -25.5q30 0 47 19t17 50q0 22 -7 46l131 28q21 -54 21 -100q0 -82 -48.5 -133.5t-127.5 -51.5q-52 0 -109 26t-104 52t-76 26t-45.5 -19t-16.5 -52q0 -19 6 -44l-135 -27q-15 52 -15 97z
M272 530q0 -100 28 -176.5t76.5 -120.5t106.5 -66t124 -22q67 0 125.5 22t107 66t76.5 120.5t28 176.5t-28 176.5t-76.5 120.5t-107 66t-125.5 22q-66 0 -124 -22t-106.5 -66t-76.5 -120.5t-28 -176.5z" />
    <glyph glyph-name="uni1EE2" unicode="&#x1ee2;" horiz-adv-x="1562" 
d="M781 -20q-197 0 -351 95.5t-238.5 267t-84.5 390.5t84.5 390.5t238.5 267t351 95.5q103 0 226 -18.5t170 -18.5q132 0 132 137v107h159v-128q0 -107 -64.5 -180.5t-182.5 -77.5q116 -96 175.5 -246t59.5 -328q0 -219 -85 -390.5t-238.5 -267t-351.5 -95.5zM294 733
q0 -262 132.5 -423t354.5 -161t354.5 161t132.5 423t-132 422.5t-355 160.5q-222 0 -354.5 -160.5t-132.5 -422.5zM642 -261q0 54 35.5 88.5t87.5 34.5q53 0 88.5 -34t35.5 -89t-35.5 -89t-88.5 -34q-52 0 -87.5 34.5t-35.5 88.5z" />
    <glyph glyph-name="uni1EE3" unicode="&#x1ee3;" horiz-adv-x="1216" 
d="M607 -20q-102 0 -193.5 34.5t-165 100.5t-117 173t-43.5 242t43.5 242t117 173t165 100.5t193.5 34.5q70 0 166.5 -10t112.5 -10q56 0 86 39.5t30 101.5v86h159v-104q0 -93 -50.5 -159t-140.5 -81q158 -150 158 -413q0 -135 -44 -242t-117.5 -173t-165.5 -100.5
t-194 -34.5zM272 530q0 -100 28 -176.5t76.5 -120.5t106.5 -66t124 -22q67 0 125.5 22t107 66t76.5 120.5t28 176.5t-28 176.5t-76.5 120.5t-107 66t-125.5 22q-66 0 -124 -22t-106.5 -66t-76.5 -120.5t-28 -176.5zM486 -261q0 54 35.5 88.5t87.5 34.5q53 0 88.5 -34
t35.5 -89t-35.5 -89t-88.5 -34q-52 0 -87.5 34.5t-35.5 88.5z" />
    <glyph glyph-name="uni1EE4" unicode="&#x1ee4;" horiz-adv-x="1458" 
d="M729 -20q-164 0 -295.5 72.5t-205.5 200t-74 285.5v927h188v-925q0 -176 104 -283.5t283 -107.5t283 107.5t104 283.5v925h188v-927q0 -240 -163.5 -399t-411.5 -159zM606 -261q0 54 35.5 88.5t87.5 34.5q53 0 88.5 -34t35.5 -89t-35.5 -89t-88.5 -34q-52 0 -87.5 34.5
t-35.5 88.5z" />
    <glyph glyph-name="uni1EE5" unicode="&#x1ee5;" horiz-adv-x="1168" 
d="M304 1060v-634q0 -128 75.5 -205t202.5 -77q125 0 201.5 76.5t76.5 202.5v637h183v-1060h-180v147q-55 -78 -139.5 -122.5t-188.5 -44.5q-191 0 -303 117.5t-112 318.5v644h184zM470 -261q0 54 35.5 88.5t87.5 34.5q53 0 88.5 -34t35.5 -89t-35.5 -89t-88.5 -34
q-52 0 -87.5 34.5t-35.5 88.5z" />
    <glyph glyph-name="uni1EE6" unicode="&#x1ee6;" horiz-adv-x="1458" 
d="M729 -20q-164 0 -295.5 72.5t-205.5 200t-74 285.5v927h188v-925q0 -176 104 -283.5t283 -107.5t283 107.5t104 283.5v925h188v-927q0 -240 -163.5 -399t-411.5 -159zM532 1946q67 36 147 36q100 0 161.5 -56t61.5 -144q0 -143 -168 -233l-69 99q92 54 92 125
q0 37 -26.5 60t-69.5 23q-46 0 -88 -20z" />
    <glyph glyph-name="uni1EE7" unicode="&#x1ee7;" horiz-adv-x="1168" 
d="M304 1060v-634q0 -128 75.5 -205t202.5 -77q125 0 201.5 76.5t76.5 202.5v637h183v-1060h-180v147q-55 -78 -139.5 -122.5t-188.5 -44.5q-191 0 -303 117.5t-112 318.5v644h184zM384 1541q67 36 147 36q100 0 161.5 -56t61.5 -144q0 -143 -168 -233l-69 99q92 54 92 125
q0 37 -26.5 60t-69.5 23q-46 0 -88 -20z" />
    <glyph glyph-name="uni1EE8" unicode="&#x1ee8;" horiz-adv-x="1458" 
d="M729 -20q-164 0 -295.5 72.5t-205.5 200t-74 285.5v927h188v-925q0 -176 104 -283.5t283 -107.5t283 107.5t104 283.5v925h88q56 0 86 39.5t30 101.5v86h159v-104q0 -88 -46 -152.5t-129 -85.5v-812q0 -240 -163.5 -399t-411.5 -159zM664 1586l81 388h198l-155 -388h-124
z" />
    <glyph glyph-name="uni1EE9" unicode="&#x1ee9;" horiz-adv-x="1168" 
d="M304 1060v-634q0 -128 75.5 -205t202.5 -77q125 0 201.5 76.5t76.5 202.5v637h83q56 0 86 39.5t30 101.5v86h159v-104q0 -88 -46 -152.5t-129 -85.5v-945h-180v147q-55 -78 -139.5 -122.5t-188.5 -44.5q-191 0 -303 117.5t-112 318.5v644h184zM516 1181l81 388h198
l-155 -388h-124z" />
    <glyph glyph-name="uni1EEA" unicode="&#x1eea;" horiz-adv-x="1458" 
d="M729 -20q-164 0 -295.5 72.5t-205.5 200t-74 285.5v927h188v-925q0 -176 104 -283.5t283 -107.5t283 107.5t104 283.5v925h88q56 0 86 39.5t30 101.5v86h159v-104q0 -88 -46 -152.5t-129 -85.5v-812q0 -240 -163.5 -399t-411.5 -159zM514 1974h198l80 -388h-124z" />
    <glyph glyph-name="uni1EEB" unicode="&#x1eeb;" horiz-adv-x="1168" 
d="M304 1060v-634q0 -128 75.5 -205t202.5 -77q125 0 201.5 76.5t76.5 202.5v637h83q56 0 86 39.5t30 101.5v86h159v-104q0 -88 -46 -152.5t-129 -85.5v-945h-180v147q-55 -78 -139.5 -122.5t-188.5 -44.5q-191 0 -303 117.5t-112 318.5v644h184zM366 1569h198l80 -388h-124
z" />
    <glyph glyph-name="uni1EEC" unicode="&#x1eec;" horiz-adv-x="1458" 
d="M729 -20q-164 0 -295.5 72.5t-205.5 200t-74 285.5v927h188v-925q0 -176 104 -283.5t283 -107.5t283 107.5t104 283.5v925h88q56 0 86 39.5t30 101.5v86h159v-104q0 -88 -46 -152.5t-129 -85.5v-812q0 -240 -163.5 -399t-411.5 -159zM532 1946q67 36 147 36
q100 0 161.5 -56t61.5 -144q0 -143 -168 -233l-69 99q92 54 92 125q0 37 -26.5 60t-69.5 23q-46 0 -88 -20z" />
    <glyph glyph-name="uni1EED" unicode="&#x1eed;" horiz-adv-x="1168" 
d="M304 1060v-634q0 -128 75.5 -205t202.5 -77q125 0 201.5 76.5t76.5 202.5v637h83q56 0 86 39.5t30 101.5v86h159v-104q0 -88 -46 -152.5t-129 -85.5v-945h-180v147q-55 -78 -139.5 -122.5t-188.5 -44.5q-191 0 -303 117.5t-112 318.5v644h184zM384 1541q67 36 147 36
q100 0 161.5 -56t61.5 -144q0 -143 -168 -233l-69 99q92 54 92 125q0 37 -26.5 60t-69.5 23q-46 0 -88 -20z" />
    <glyph glyph-name="uni1EEE" unicode="&#x1eee;" horiz-adv-x="1458" 
d="M729 -20q-164 0 -295.5 72.5t-205.5 200t-74 285.5v927h188v-925q0 -176 104 -283.5t283 -107.5t283 107.5t104 283.5v925h88q56 0 86 39.5t30 101.5v86h159v-104q0 -88 -46 -152.5t-129 -85.5v-812q0 -240 -163.5 -399t-411.5 -159zM391 1720q0 82 48 133.5t129 51.5
q50 0 108 -25.5t107 -51t77 -25.5q30 0 47 19t17 50q0 16 -7 46l131 28q20 -55 20 -100q0 -82 -48 -133.5t-128 -51.5q-50 0 -109 26t-108.5 52t-77.5 26q-30 0 -46.5 -19t-16.5 -52q0 -20 7 -44l-136 -27q-14 54 -14 97z" />
    <glyph glyph-name="uni1EEF" unicode="&#x1eef;" horiz-adv-x="1168" 
d="M304 1060v-634q0 -128 75.5 -205t202.5 -77q125 0 201.5 76.5t76.5 202.5v637h83q56 0 86 39.5t30 101.5v86h159v-104q0 -88 -46 -152.5t-129 -85.5v-945h-180v147q-55 -78 -139.5 -122.5t-188.5 -44.5q-191 0 -303 117.5t-112 318.5v644h184zM243 1315q0 82 48 133.5
t129 51.5q50 0 108 -25.5t107 -51t77 -25.5q30 0 47 19t17 50q0 16 -7 46l131 28q20 -55 20 -100q0 -82 -48 -133.5t-128 -51.5q-50 0 -109 26t-108.5 52t-77.5 26q-30 0 -46.5 -19t-16.5 -52q0 -20 7 -44l-136 -27q-14 54 -14 97z" />
    <glyph glyph-name="uni1EF0" unicode="&#x1ef0;" horiz-adv-x="1458" 
d="M729 -20q-164 0 -295.5 72.5t-205.5 200t-74 285.5v927h188v-925q0 -176 104 -283.5t283 -107.5t283 107.5t104 283.5v925h88q56 0 86 39.5t30 101.5v86h159v-104q0 -88 -46 -152.5t-129 -85.5v-812q0 -240 -163.5 -399t-411.5 -159zM606 -261q0 54 35.5 88.5t87.5 34.5
q53 0 88.5 -34t35.5 -89t-35.5 -89t-88.5 -34q-52 0 -87.5 34.5t-35.5 88.5z" />
    <glyph glyph-name="uni1EF1" unicode="&#x1ef1;" horiz-adv-x="1168" 
d="M304 1060v-634q0 -128 75.5 -205t202.5 -77q125 0 201.5 76.5t76.5 202.5v637h83q56 0 86 39.5t30 101.5v86h159v-104q0 -88 -46 -152.5t-129 -85.5v-945h-180v147q-55 -78 -139.5 -122.5t-188.5 -44.5q-191 0 -303 117.5t-112 318.5v644h184zM470 -261q0 54 35.5 88.5
t87.5 34.5q53 0 88.5 -34t35.5 -89t-35.5 -89t-88.5 -34q-52 0 -87.5 34.5t-35.5 88.5z" />
    <glyph glyph-name="Ygrave" unicode="&#x1ef2;" horiz-adv-x="1299" 
d="M554 0v603l-540 862h218l421 -682l421 682h211l-543 -863v-602h-188zM435 1974h198l80 -388h-124z" />
    <glyph glyph-name="ygrave" unicode="&#x1ef3;" horiz-adv-x="1163" 
d="M530 -475q-380 0 -533 338l155 81q61 -131 152 -192t223 -61q154 0 237 91t83 258v113q-57 -77 -141.5 -117.5t-186.5 -40.5q-191 0 -301 117t-110 321v627h184v-623q0 -136 70 -210t198 -74q132 0 209.5 75t77.5 204v628h184v-1020q0 -241 -133.5 -378t-367.5 -137z
M372 1569h198l80 -388h-124z" />
    <glyph glyph-name="uni1EF4" unicode="&#x1ef4;" horiz-adv-x="1299" 
d="M554 0v603l-540 862h218l421 -682l421 682h211l-543 -863v-602h-188zM525 -261q0 54 35.5 88.5t87.5 34.5q53 0 88.5 -34t35.5 -89t-35.5 -89t-88.5 -34q-52 0 -87.5 34.5t-35.5 88.5z" />
    <glyph glyph-name="uni1EF5" unicode="&#x1ef5;" horiz-adv-x="1163" 
d="M530 -475q-380 0 -533 338l155 81q61 -131 152 -192t223 -61q154 0 237 91t83 258v113q-57 -77 -141.5 -117.5t-186.5 -40.5q-191 0 -301 117t-110 321v627h184v-623q0 -136 70 -210t198 -74q132 0 209.5 75t77.5 204v628h184v-1020q0 -241 -133.5 -378t-367.5 -137z
M998 -421q0 54 35.5 88.5t87.5 34.5q53 0 88.5 -34t35.5 -89t-35.5 -89t-88.5 -34q-52 0 -87.5 34.5t-35.5 88.5z" />
    <glyph glyph-name="uni1EF6" unicode="&#x1ef6;" horiz-adv-x="1299" 
d="M554 0v603l-540 862h218l421 -682l421 682h211l-543 -863v-602h-188zM453 1946q67 36 147 36q100 0 161.5 -56t61.5 -144q0 -143 -168 -233l-69 99q92 54 92 125q0 37 -26.5 60t-69.5 23q-46 0 -88 -20z" />
    <glyph glyph-name="uni1EF7" unicode="&#x1ef7;" horiz-adv-x="1163" 
d="M530 -475q-380 0 -533 338l155 81q61 -131 152 -192t223 -61q154 0 237 91t83 258v113q-57 -77 -141.5 -117.5t-186.5 -40.5q-191 0 -301 117t-110 321v627h184v-623q0 -136 70 -210t198 -74q132 0 209.5 75t77.5 204v628h184v-1020q0 -241 -133.5 -378t-367.5 -137z
M390 1541q67 36 147 36q100 0 161.5 -56t61.5 -144q0 -143 -168 -233l-69 99q92 54 92 125q0 37 -26.5 60t-69.5 23q-46 0 -88 -20z" />
    <glyph glyph-name="uni1EF8" unicode="&#x1ef8;" horiz-adv-x="1299" 
d="M554 0v603l-540 862h218l421 -682l421 682h211l-543 -863v-602h-188zM312 1720q0 82 48 133.5t129 51.5q50 0 108 -25.5t107 -51t77 -25.5q30 0 47 19t17 50q0 16 -7 46l131 28q20 -55 20 -100q0 -82 -48 -133.5t-128 -51.5q-50 0 -109 26t-108.5 52t-77.5 26
q-30 0 -46.5 -19t-16.5 -52q0 -20 7 -44l-136 -27q-14 54 -14 97z" />
    <glyph glyph-name="uni1EF9" unicode="&#x1ef9;" horiz-adv-x="1163" 
d="M530 -475q-380 0 -533 338l155 81q61 -131 152 -192t223 -61q154 0 237 91t83 258v113q-57 -77 -141.5 -117.5t-186.5 -40.5q-191 0 -301 117t-110 321v627h184v-623q0 -136 70 -210t198 -74q132 0 209.5 75t77.5 204v628h184v-1020q0 -241 -133.5 -378t-367.5 -137z
M249 1315q0 82 48 133.5t129 51.5q50 0 108 -25.5t107 -51t77 -25.5q30 0 47 19t17 50q0 16 -7 46l131 28q20 -55 20 -100q0 -82 -48 -133.5t-128 -51.5q-50 0 -109 26t-108.5 52t-77.5 26q-30 0 -46.5 -19t-16.5 -52q0 -20 7 -44l-136 -27q-14 54 -14 97z" />
    <glyph glyph-name="uni2000" unicode="&#x2000;" horiz-adv-x="1024" 
 />
    <glyph glyph-name="uni2001" unicode="&#x2001;" horiz-adv-x="2048" 
 />
    <glyph glyph-name="uni2002" unicode="&#x2002;" horiz-adv-x="1024" 
 />
    <glyph glyph-name="uni2003" unicode="&#x2003;" horiz-adv-x="2048" 
 />
    <glyph glyph-name="uni2004" unicode="&#x2004;" horiz-adv-x="682" 
 />
    <glyph glyph-name="uni2005" unicode="&#x2005;" horiz-adv-x="512" 
 />
    <glyph glyph-name="uni2006" unicode="&#x2006;" horiz-adv-x="342" 
 />
    <glyph glyph-name="uni2007" unicode="&#x2007;" 
 />
    <glyph glyph-name="uni2008" unicode="&#x2008;" horiz-adv-x="459" 
 />
    <glyph glyph-name="uni2009" unicode="&#x2009;" horiz-adv-x="410" 
 />
    <glyph glyph-name="uni200A" unicode="&#x200a;" horiz-adv-x="293" 
 />
    <glyph glyph-name="uni200B" unicode="&#x200b;" horiz-adv-x="0" 
 />
    <glyph glyph-name="endash" unicode="&#x2013;" horiz-adv-x="1013" 
d="M57 696v159h898v-159h-898z" />
    <glyph glyph-name="emdash" unicode="&#x2014;" horiz-adv-x="1381" 
d="M57 696v159h1267v-159h-1267z" />
    <glyph glyph-name="quoteleft" unicode="&#x2018;" horiz-adv-x="393" 
d="M298 1473l80 -52l-161 -276q34 -13 56 -44t22 -72q0 -57 -37 -92.5t-91 -35.5t-91.5 37t-37.5 100q0 9 1 18t2 16.5t5 16.5t5.5 14.5t7.5 16t8 14.5t9.5 15.5t10 15t11.5 16.5t12 17z" />
    <glyph glyph-name="quoteright" unicode="&#x2019;" horiz-adv-x="393" 
d="M95 914l-80 52l161 276q-34 13 -56 44t-22 72q0 57 37 92.5t91 35.5t91.5 -37t37.5 -100q0 -9 -1 -18t-2 -16.5t-5 -16.5t-5.5 -14.5t-7.5 -16t-8 -14.5t-9.5 -15.5t-10 -15t-11.5 -16.5t-12 -17z" />
    <glyph glyph-name="quotesinglbase" unicode="&#x201a;" horiz-adv-x="423" 
d="M63 -336l-80 52l161 276q-34 13 -56 44t-22 72q0 57 37 92.5t91 35.5t91.5 -37t37.5 -100q0 -9 -1 -18t-2 -16.5t-5 -16.5t-5.5 -14.5t-7.5 -16t-8 -14.5t-9.5 -15.5t-10 -15t-11.5 -16.5t-12 -17z" />
    <glyph glyph-name="quotedblleft" unicode="&#x201c;" horiz-adv-x="775" 
d="M298 1473l80 -52l-161 -276q34 -13 56 -44t22 -72q0 -57 -37 -92.5t-91 -35.5t-91.5 37t-37.5 100q0 9 1 18t2 16.5t5 16.5t5.5 14.5t7.5 16t8 14.5t9.5 15.5t10 15t11.5 16.5t12 17zM419 1038q0 9 1 18t2 16.5t5 16.5t5.5 14.5t7.5 16t8 14.5t9.5 15.5t10 15t11.5 16.5
t12 17l188 275l80 -52l-161 -276q34 -13 56 -44t22 -72q0 -57 -37 -92.5t-91 -35.5t-91.5 37t-37.5 100z" />
    <glyph glyph-name="quotedblright" unicode="&#x201d;" horiz-adv-x="775" 
d="M477 914l-80 52l161 276q-34 13 -56 44t-22 72q0 57 37 92.5t91 35.5t91.5 -37t37.5 -100q0 -9 -1 -18t-2 -16.5t-5 -16.5t-5.5 -14.5t-7.5 -16t-8 -14.5t-9.5 -15.5t-10 -15t-11.5 -16.5t-12 -17zM16 966l161 276q-34 13 -56 44t-22 72q0 57 37 92.5t91 35.5t91.5 -37
t37.5 -100q0 -9 -1 -18t-2 -16.5t-5 -16.5t-5.5 -14.5t-7.5 -16t-8 -14.5t-9.5 -15.5t-10 -15t-11.5 -16.5t-12 -17l-188 -275z" />
    <glyph glyph-name="quotedblbase" unicode="&#x201e;" horiz-adv-x="840" 
d="M481 -336l-80 52l161 276q-34 13 -56 44t-22 72q0 57 37 92.5t91 35.5t91.5 -37t37.5 -100q0 -9 -1 -18t-2 -16.5t-5 -16.5t-5.5 -14.5t-7.5 -16t-8 -14.5t-9.5 -15.5t-10 -15t-11.5 -16.5t-12 -17zM20 -284l161 276q-34 13 -56 44t-22 72q0 57 37 92.5t91 35.5t91.5 -37
t37.5 -100q0 -9 -1 -18t-2 -16.5t-5 -16.5t-5.5 -14.5t-7.5 -16t-8 -14.5t-9.5 -15.5t-10 -15t-11.5 -16.5t-12 -17l-188 -275z" />
    <glyph glyph-name="dagger" unicode="&#x2020;" horiz-adv-x="821" 
d="M319 545v547h-262v159h262v292h183v-292h261v-159h-261v-547h-183z" />
    <glyph glyph-name="daggerdbl" unicode="&#x2021;" horiz-adv-x="821" 
d="M319 545v274h-262v159h262v133h-262v159h262v273h183v-273h261v-159h-261v-133h261v-159h-261v-274h-183z" />
    <glyph glyph-name="bullet" unicode="&#x2022;" horiz-adv-x="738" 
d="M370 506q-86 0 -145.5 57.5t-59.5 147.5q0 92 59.5 148.5t145.5 56.5q87 0 146.5 -56.5t59.5 -148.5q0 -90 -59.5 -147.5t-146.5 -57.5z" />
    <glyph glyph-name="ellipsis" unicode="&#x2026;" horiz-adv-x="1688" 
d="M231 -20q-54 0 -91 35.5t-37 92.5t37 92.5t91 35.5q55 0 92 -35.5t37 -92.5t-37.5 -92.5t-91.5 -35.5zM717 108q0 57 37 92.5t91 35.5q55 0 92 -35.5t37 -92.5t-37.5 -92.5t-91.5 -35.5t-91 35.5t-37 92.5zM1332 108q0 57 37 92.5t91 35.5q55 0 92 -35.5t37 -92.5
t-37.5 -92.5t-91.5 -35.5t-91 35.5t-37 92.5z" />
    <glyph glyph-name="uni202F" unicode="&#x202f;" horiz-adv-x="396" 
 />
    <glyph glyph-name="perthousand" unicode="&#x2030;" horiz-adv-x="2795" 
d="M2353 -20q-149 0 -248 93.5t-99 250.5q0 156 98.5 250.5t248.5 94.5q149 0 248.5 -94.5t99.5 -250.5q0 -157 -99 -250.5t-249 -93.5zM95 1142q0 157 99 250.5t249 93.5q148 0 247.5 -94t99.5 -250t-99 -251t-248 -95q-150 0 -249 95t-99 251zM265 1142q0 -96 50 -146.5
t128 -50.5t128 50.5t50 146.5t-50.5 147t-127.5 51t-127.5 -51t-50.5 -147zM388 0l934 1466h204l-934 -1466h-204zM1123 324q0 156 99 250.5t248 94.5q150 0 249 -94.5t99 -250.5q0 -157 -99 -250.5t-249 -93.5q-148 0 -247.5 94t-99.5 250zM1293 324q0 -96 50.5 -147
t126.5 -51q77 0 128 51t51 147t-50 146.5t-129 50.5q-77 0 -127 -50.5t-50 -146.5zM2175 324q0 -96 50.5 -147t127.5 -51t127.5 51t50.5 147t-50 146.5t-128 50.5t-128 -50.5t-50 -146.5z" />
    <glyph glyph-name="minute" unicode="&#x2032;" horiz-adv-x="596" 
d="M204 939l69 526h194l-153 -526h-110z" />
    <glyph glyph-name="second" unicode="&#x2033;" horiz-adv-x="892" 
d="M204 939l69 526h194l-153 -526h-110zM500 939l69 526h194l-153 -526h-110z" />
    <glyph glyph-name="guilsinglleft" unicode="&#x2039;" horiz-adv-x="630" 
d="M57 493v168l487 299v-184l-337 -199l337 -199v-184z" />
    <glyph glyph-name="guilsinglright" unicode="&#x203a;" horiz-adv-x="630" 
d="M573 658v-168l-487 -299v184l337 199l-337 199v184z" />
    <glyph glyph-name="fraction" unicode="&#x2044;" horiz-adv-x="1329" 
d="M51 0l1027 1465h198l-1026 -1465h-199z" />
    <glyph glyph-name="uni2053" unicode="&#x2053;" horiz-adv-x="910" 
d="M634 557q-42 0 -84 16.5t-75.5 40.5t-64.5 47.5t-62 40t-57 16.5q-97 0 -97 -103q0 -14 1 -22l-132 -14q-3 26 -3 49q0 111 56.5 169.5t162.5 58.5q52 0 105 -25t89.5 -55.5t78.5 -55.5t73 -25q99 0 99 106q0 17 -3 37l128 13q4 -40 4 -58q0 -113 -57.5 -174.5
t-161.5 -61.5z" />
    <glyph glyph-name="uni205F" unicode="&#x205f;" horiz-adv-x="455" 
 />
    <glyph glyph-name="uni2070" unicode="&#x2070;" horiz-adv-x="936" 
d="M468 646q-182 0 -286 126.5t-104 352.5q0 225 104 351.5t286 126.5t286.5 -126.5t104.5 -351.5q0 -226 -104.5 -352.5t-286.5 -126.5zM242 1125q0 -158 61 -247.5t165 -89.5t164.5 89.5t60.5 247.5q0 156 -60.5 244.5t-164.5 88.5t-165 -89t-61 -244z" />
    <glyph glyph-name="uni2074" unicode="&#x2074;" horiz-adv-x="848" 
d="M506 658v206h-470v122l464 605h158v-592h149v-135h-149v-206h-152zM215 999h291v381z" />
    <glyph glyph-name="uni2075" unicode="&#x2075;" horiz-adv-x="860" 
d="M434 646q-125 0 -214.5 56t-124.5 168l141 53q20 -67 73 -102.5t125 -35.5q76 0 130 45t54 131q0 88 -56.5 135.5t-139.5 47.5q-45 0 -88 -18t-67 -46l-131 25l56 486h528v-137h-400l-25 -216q66 44 148 44q146 0 238 -86.5t92 -233.5q0 -145 -96.5 -230.5t-242.5 -85.5z
" />
    <glyph glyph-name="uni2076" unicode="&#x2076;" horiz-adv-x="877" 
d="M464 646q-373 0 -373 441q0 261 102.5 388.5t282.5 127.5q199 0 303 -164l-109 -82q-42 54 -87 80.5t-106 26.5q-99 0 -159.5 -67.5t-70.5 -210.5q80 91 221 91q80 0 153.5 -34t123.5 -105.5t50 -165.5q0 -150 -93 -238t-238 -88zM263 962q0 -82 53.5 -127.5t134.5 -45.5
q80 0 134 45.5t54 127.5t-54 129t-134 47t-134 -45.5t-54 -130.5z" />
    <glyph glyph-name="uni2077" unicode="&#x2077;" horiz-adv-x="790" 
d="M164 658l362 796h-463v137h650v-84l-384 -849h-165z" />
    <glyph glyph-name="uni2078" unicode="&#x2078;" horiz-adv-x="879" 
d="M440 646q-164 0 -266 75.5t-102 204.5q0 156 166 223q-127 57 -127 196q0 116 90 187t239 71t239 -71t90 -187q0 -139 -125 -197q164 -67 164 -222q0 -129 -102 -204.5t-266 -75.5zM227 930q0 -71 55.5 -109t157.5 -38t157.5 38t55.5 109q0 68 -59.5 106.5t-153.5 38.5
q-95 0 -154 -38.5t-59 -106.5zM267 1343q0 -59 47.5 -92t125.5 -33t126 33t48 92t-48.5 93t-125.5 34t-125 -34t-48 -93z" />
    <glyph glyph-name="uni2079" unicode="&#x2079;" horiz-adv-x="877" 
d="M419 646q-262 0 -372 218l126 79q36 -85 96.5 -121.5t146.5 -36.5q101 0 164.5 76.5t69.5 221.5q-81 -91 -228 -91q-143 0 -238 80t-95 223t97 225.5t240 82.5q62 0 115.5 -13.5t102 -45.5t82.5 -81t54 -124.5t20 -172.5q0 -267 -103 -393.5t-278 -126.5zM246 1295
q0 -82 54.5 -125.5t137.5 -43.5t138 43.5t55 125.5t-55 126t-138 44t-137.5 -44t-54.5 -126z" />
    <glyph glyph-name="uni2080" unicode="&#x2080;" horiz-adv-x="936" 
d="M468 -104q-182 0 -286 126.5t-104 352.5q0 225 104 351.5t286 126.5t286.5 -126.5t104.5 -351.5q0 -226 -104.5 -352.5t-286.5 -126.5zM242 375q0 -158 61 -247.5t165 -89.5t164.5 89.5t60.5 247.5q0 156 -60.5 244.5t-164.5 88.5t-165 -89t-61 -244z" />
    <glyph glyph-name="uni2081" unicode="&#x2081;" horiz-adv-x="506" 
d="M190 -92v794h-155l25 139h289v-933h-159z" />
    <glyph glyph-name="uni2082" unicode="&#x2082;" horiz-adv-x="834" 
d="M88 -92v110l302 310q79 79 113 133.5t34 113.5q0 64 -40.5 99.5t-105.5 35.5q-120 0 -159 -134l-146 43q65 234 308 234q138 0 222.5 -73t84.5 -199q0 -54 -14 -101t-48 -94.5t-61 -78.5t-84 -88l-170 -174h427v-137h-663z" />
    <glyph glyph-name="uni2083" unicode="&#x2083;" horiz-adv-x="872" 
d="M424 -104q-157 0 -255.5 76t-110.5 209l154 28q9 -81 62 -126.5t146 -45.5q85 0 135 41.5t50 110.5q0 67 -53.5 102t-139.5 35h-87v137h86q70 0 113 34.5t43 93.5q0 55 -42.5 88t-111.5 33q-56 0 -97.5 -29.5t-58.5 -77.5l-142 45q28 90 106.5 146.5t193.5 56.5
q138 0 225.5 -69t87.5 -176q0 -150 -136 -206q177 -51 177 -224q0 -128 -97 -205t-248 -77z" />
    <glyph glyph-name="uni2084" unicode="&#x2084;" horiz-adv-x="848" 
d="M506 -92v206h-470v122l464 605h158v-592h149v-135h-149v-206h-152zM215 249h291v381z" />
    <glyph glyph-name="uni2085" unicode="&#x2085;" horiz-adv-x="860" 
d="M434 -104q-125 0 -214.5 56t-124.5 168l141 53q20 -67 73 -102.5t125 -35.5q76 0 130 45t54 131q0 88 -56.5 135.5t-139.5 47.5q-45 0 -88 -18t-67 -46l-131 25l56 486h528v-137h-400l-25 -216q66 44 148 44q146 0 238 -86.5t92 -233.5q0 -145 -96.5 -230.5t-242.5 -85.5
z" />
    <glyph glyph-name="uni2086" unicode="&#x2086;" horiz-adv-x="877" 
d="M464 -104q-373 0 -373 441q0 261 102.5 388.5t282.5 127.5q199 0 303 -164l-109 -82q-42 54 -87 80.5t-106 26.5q-99 0 -159.5 -67.5t-70.5 -210.5q80 91 221 91q80 0 153.5 -34t123.5 -105.5t50 -165.5q0 -150 -93 -238t-238 -88zM263 212q0 -82 53.5 -127.5
t134.5 -45.5q80 0 134 45.5t54 127.5t-54 129t-134 47t-134 -45.5t-54 -130.5z" />
    <glyph glyph-name="uni2087" unicode="&#x2087;" horiz-adv-x="790" 
d="M164 -92l362 796h-463v137h650v-84l-384 -849h-165z" />
    <glyph glyph-name="uni2088" unicode="&#x2088;" horiz-adv-x="879" 
d="M440 -104q-164 0 -266 75.5t-102 204.5q0 156 166 223q-127 57 -127 196q0 116 90 187t239 71t239 -71t90 -187q0 -139 -125 -197q164 -67 164 -222q0 -129 -102 -204.5t-266 -75.5zM227 180q0 -71 55.5 -109t157.5 -38t157.5 38t55.5 109q0 68 -59.5 106.5t-153.5 38.5
q-95 0 -154 -38.5t-59 -106.5zM267 593q0 -59 47.5 -92t125.5 -33t126 33t48 92t-48.5 93t-125.5 34t-125 -34t-48 -93z" />
    <glyph glyph-name="uni2089" unicode="&#x2089;" horiz-adv-x="877" 
d="M419 -104q-262 0 -372 218l126 79q36 -85 96.5 -121.5t146.5 -36.5q101 0 164.5 76.5t69.5 221.5q-81 -91 -228 -91q-143 0 -238 80t-95 223t97 225.5t240 82.5q62 0 115.5 -13.5t102 -45.5t82.5 -81t54 -124.5t20 -172.5q0 -267 -103 -393.5t-278 -126.5zM246 545
q0 -82 54.5 -125.5t137.5 -43.5t138 43.5t55 125.5t-55 126t-138 44t-137.5 -44t-54.5 -126z" />
    <glyph glyph-name="colonmonetary" unicode="&#x20a1;" horiz-adv-x="1545" 
d="M186 -184l127 359q-99 101 -152.5 244t-53.5 314q0 328 187.5 538t481.5 215l84 238h154l-88 -250q88 -18 154 -50l106 300h153l-134 -379q149 -121 211 -330l-177 -44q-36 112 -100 187l-356 -1009h4q170 0 286.5 93.5t167.5 255.5l175 -45q-63 -219 -227 -346
t-402 -127q-32 0 -62 3l-59 -167h-154l69 194q-84 27 -149 68l-92 -262h-154zM294 733q0 -210 90 -357l330 935q-191 -27 -305.5 -183.5t-114.5 -394.5zM493 249q68 -54 145 -78l383 1087q-70 39 -153 52z" />
    <glyph glyph-name="dong" unicode="&#x20ab;" horiz-adv-x="1145" 
d="M491 221q-172 0 -288 126.5t-116 312.5t116 312t288 126q87 0 160.5 -36.5t124.5 -103.5v239h-255v137h255v131h170v-131h124v-137h-124v-960h-161v139q-51 -74 -127 -114.5t-167 -40.5zM82 0v137h947v-137h-947zM255 660q0 -127 72.5 -210t188.5 -83q65 0 123 31
t97.5 99.5t39.5 162.5t-39.5 162.5t-97.5 99.5t-123 31q-116 0 -188.5 -83t-72.5 -210z" />
    <glyph glyph-name="Euro" unicode="&#x20ac;" horiz-adv-x="1450" 
d="M765 -20q-227 0 -373 143.5t-191 392.5h-191v142h175q-2 50 -2 75q0 26 2 74h-175v142h191q45 249 190.5 393t373.5 144q223 0 365 -134t191 -369l-188 -36q-33 176 -125 273t-243 97q-154 0 -248.5 -95t-128.5 -273h484v-142h-500q-2 -48 -2 -74q0 -27 2 -75h459v-142
h-443q34 -178 129 -273t248 -95q151 0 243.5 97.5t124.5 273.5l188 -37q-49 -235 -191 -368.5t-365 -133.5z" />
    <glyph glyph-name="uni20B1" unicode="&#x20b1;" horiz-adv-x="1473" 
d="M51 1066v142h151v257h618q139 0 253 -69t170 -188h179v-142h-139q3 -28 3 -60q0 -28 -3 -53h139v-142h-176q-54 -122 -169.5 -193.5t-256.5 -71.5h-430v-546h-188v811h-151v142h151v113h-151zM390 716h423q139 0 220 95h-643v-95zM390 953h704q4 23 4 53q0 28 -5 60h-703
v-113zM390 1208h637q-80 88 -214 88h-423v-88z" />
    <glyph glyph-name="uni20B2" unicode="&#x20b2;" horiz-adv-x="1593" 
d="M715 -222v207q-277 32 -442.5 236.5t-165.5 511.5q0 205 76 369.5t214 264t318 116.5v204h168v-206q206 -24 347 -144.5t200 -312.5l-179 -48q-45 134 -139 221.5t-229 110.5v-1155q244 30 378 244v270h188v-667h-159l-12 170q-149 -164 -395 -187v-205h-168zM294 733
q0 -234 112.5 -389t308.5 -187v1154q-192 -26 -306.5 -183t-114.5 -395z" />
    <glyph glyph-name="uni20BA" unicode="&#x20ba;" horiz-adv-x="1245" 
d="M226 0v522l-196 -58v153l196 59v148l-196 -59v154l196 59v487h189v-442l386 116v-154l-386 -116v-148l386 116v-154l-386 -116v-398h176q183 0 308.5 114t147.5 329l175 -25q-35 -291 -206 -439t-425 -148h-365z" />
    <glyph glyph-name="uni20BD" unicode="&#x20bd;" horiz-adv-x="1342" 
d="M182 0v262h-144v142h144v149h-144v163h144v749h617q195 0 331 -128.5t136 -330.5q0 -134 -64 -238.5t-170 -159.5t-233 -55h-429v-149h437v-142h-437v-262h-188zM370 716h423q127 0 206.5 80t79.5 210t-79.5 210t-206.5 80h-423v-580z" />
    <glyph glyph-name="uni20BF" unicode="&#x20bf;" horiz-adv-x="1390" 
d="M396 1687h168v-222h157v222h169v-226q138 -18 234.5 -118t96.5 -248q0 -114 -52.5 -197t-137.5 -127q104 -41 169.5 -130t65.5 -219q0 -177 -107.5 -290t-268.5 -129v-225h-169v222h-157v-222h-168v222h-242v1465h242v222zM342 160h475q112 0 187 75t75 192
q0 124 -75 190t-200 66h-462v-523zM342 843h460q95 0 163.5 67.5t68.5 165.5q0 102 -67.5 165.5t-164.5 63.5h-460v-462z" />
    <glyph glyph-name="uni2116" unicode="&#x2116;" horiz-adv-x="2396" 
d="M154 0v1465h166l818 -1126v1126h182v-1465h-166l-818 1127v-1127h-182zM1484 1075q0 128 59.5 223t154 141.5t209.5 46.5q113 0 208 -46.5t155 -141.5t60 -223q0 -126 -60 -221t-155 -141.5t-208 -46.5q-114 0 -209 46.5t-154.5 141.5t-59.5 221zM1555 398v159h702v-159
h-702zM1655 1075q0 -127 73 -192.5t179 -65.5q107 0 179.5 65.5t72.5 192.5q0 128 -72.5 193.5t-179.5 65.5q-106 0 -179 -65.5t-73 -193.5z" />
    <glyph glyph-name="uni2117" unicode="&#x2117;" horiz-adv-x="1793" 
d="M896 -20q-174 0 -322 56t-250 155.5t-159.5 239t-57.5 302.5q0 218 98 389t278 267.5t413 96.5q175 0 323 -56t250.5 -155.5t159.5 -239t57 -302.5t-57 -302.5t-159.5 -239t-250.5 -155.5t-323 -56zM257 733q0 -276 174.5 -447t464.5 -171t465 171t175 447t-175 446.5
t-465 170.5t-464.5 -170.5t-174.5 -446.5zM613 292v879h389q122 0 204.5 -78t82.5 -201q0 -122 -82.5 -201t-204.5 -79h-228v-320h-161zM774 752h210q64 0 104.5 40.5t40.5 99.5t-40.5 99t-104.5 40h-210v-279z" />
    <glyph glyph-name="trademark" unicode="&#x2122;" horiz-adv-x="2060" 
d="M964 571v894h249l254 -672l257 672h246v-894h-167v654l-248 -654h-182l-250 655v-655h-159zM21 1314v151h832v-151h-328v-743h-176v743h-328z" />
    <glyph glyph-name="estimated" unicode="&#x212e;" horiz-adv-x="1839" 
d="M920 -29q-219 0 -388.5 83t-265.5 239t-96 362q0 201 95.5 357.5t266.5 242.5t388 86q334 0 534 -183.5t215 -518.5h-1192q-17 0 -24 -6.5t-7 -30.5v-336q0 -27 35 -67t94 -79.5t152 -67t193 -27.5q137 0 263.5 61t209.5 158h139q-133 -151 -268.5 -212t-343.5 -61z
M446 694q0 -16 31 -16h881q20 0 26.5 6.5t6.5 24.5v331q0 52 -73 111t-185 99t-215 40q-95 0 -187 -28.5t-152 -68t-96.5 -78.5t-36.5 -62v-359z" />
    <glyph glyph-name="oneeighth" unicode="&#x215b;" horiz-adv-x="1938" 
d="M190 533v794h-155l25 139h289v-933h-159zM202 0l1027 1465h198l-1026 -1465h-199zM1131 268q0 156 166 223q-127 57 -127 196q0 116 90 187t239 71t239 -71t90 -187q0 -139 -125 -197q164 -67 164 -222q0 -129 -102 -204.5t-266 -75.5t-266 75.5t-102 204.5zM1286 272
q0 -71 55.5 -109t157.5 -38t157.5 38t55.5 109q0 68 -59.5 106.5t-153.5 38.5q-95 0 -154 -38.5t-59 -106.5zM1326 685q0 -59 47.5 -92t125.5 -33t126 33t48 92t-48.5 93t-125.5 34t-125 -34t-48 -93z" />
    <glyph glyph-name="threeeighths" unicode="&#x215c;" horiz-adv-x="2214" 
d="M424 521q-157 0 -255.5 76t-110.5 209l154 28q9 -81 62 -126.5t146 -45.5q85 0 135 41.5t50 110.5q0 67 -53.5 102t-139.5 35h-87v137h86q70 0 113 34.5t43 93.5q0 55 -42.5 88t-111.5 33q-56 0 -97.5 -29.5t-58.5 -77.5l-142 45q28 90 106.5 146.5t193.5 56.5
q138 0 225.5 -69t87.5 -176q0 -150 -136 -206q177 -51 177 -224q0 -128 -97 -205t-248 -77zM478 0l1027 1465h198l-1026 -1465h-199zM1407 268q0 156 166 223q-127 57 -127 196q0 116 90 187t239 71t239 -71t90 -187q0 -139 -125 -197q164 -67 164 -222q0 -129 -102 -204.5
t-266 -75.5t-266 75.5t-102 204.5zM1562 272q0 -71 55.5 -109t157.5 -38t157.5 38t55.5 109q0 68 -59.5 106.5t-153.5 38.5q-95 0 -154 -38.5t-59 -106.5zM1602 685q0 -59 47.5 -92t125.5 -33t126 33t48 92t-48.5 93t-125.5 34t-125 -34t-48 -93z" />
    <glyph glyph-name="fiveeighths" unicode="&#x215d;" horiz-adv-x="2241" 
d="M434 521q-125 0 -214.5 56t-124.5 168l141 53q20 -67 73 -102.5t125 -35.5q76 0 130 45t54 131q0 88 -56.5 135.5t-139.5 47.5q-45 0 -88 -18t-67 -46l-131 25l56 486h528v-137h-400l-25 -216q66 44 148 44q146 0 238 -86.5t92 -233.5q0 -145 -96.5 -230.5t-242.5 -85.5z
M505 0l1027 1465h198l-1026 -1465h-199zM1434 268q0 156 166 223q-127 57 -127 196q0 116 90 187t239 71t239 -71t90 -187q0 -139 -125 -197q164 -67 164 -222q0 -129 -102 -204.5t-266 -75.5t-266 75.5t-102 204.5zM1589 272q0 -71 55.5 -109t157.5 -38t157.5 38t55.5 109
q0 68 -59.5 106.5t-153.5 38.5q-95 0 -154 -38.5t-59 -106.5zM1629 685q0 -59 47.5 -92t125.5 -33t126 33t48 92t-48.5 93t-125.5 34t-125 -34t-48 -93z" />
    <glyph glyph-name="seveneighths" unicode="&#x215e;" horiz-adv-x="2058" 
d="M164 533l362 796h-463v137h650v-84l-384 -849h-165zM322 0l1027 1465h198l-1026 -1465h-199zM1251 268q0 156 166 223q-127 57 -127 196q0 116 90 187t239 71t239 -71t90 -187q0 -139 -125 -197q164 -67 164 -222q0 -129 -102 -204.5t-266 -75.5t-266 75.5t-102 204.5z
M1406 272q0 -71 55.5 -109t157.5 -38t157.5 38t55.5 109q0 68 -59.5 106.5t-153.5 38.5q-95 0 -154 -38.5t-59 -106.5zM1446 685q0 -59 47.5 -92t125.5 -33t126 33t48 92t-48.5 93t-125.5 34t-125 -34t-48 -93z" />
    <glyph glyph-name="arrowleft" unicode="&#x2190;" horiz-adv-x="1308" 
d="M592 309l-92 -94l-462 463v106l462 462l92 -93l-350 -349h1005v-147h-1004z" />
    <glyph glyph-name="arrowup" unicode="&#x2191;" horiz-adv-x="1146" 
d="M151 784l-94 92l463 462h106l462 -462l-93 -92l-349 350v-1005h-147v1004z" />
    <glyph glyph-name="arrowright" unicode="&#x2192;" horiz-adv-x="1308" 
d="M715 1148l92 94l462 -463v-106l-462 -462l-92 93l350 349h-1005v147h1004z" />
    <glyph glyph-name="arrowdown" unicode="&#x2193;" horiz-adv-x="1146" 
d="M990 674l94 -92l-463 -462h-106l-462 462l93 92l349 -350v1005h147v-1004z" />
    <glyph glyph-name="arrowboth" unicode="&#x2194;" horiz-adv-x="1402" 
d="M899 215l-93 92l349 348h-908l349 -348l-93 -92l-462 463v105l462 462l93 -93l-350 -349h910l-350 349l93 93l462 -462v-105z" />
    <glyph glyph-name="arrowupdn" unicode="&#x2195;" horiz-adv-x="1179" 
d="M74 532l92 93l348 -349v908l-348 -349l-92 93l463 462h105l462 -462l-93 -93l-349 350v-910l349 350l93 -93l-462 -462h-105z" />
    <glyph glyph-name="uni2196" unicode="&#x2196;" horiz-adv-x="1146" 
d="M235 469l-131 -1l1 654l75 75h653l-1 -131l-495 1l712 -711l-104 -104l-711 710z" />
    <glyph glyph-name="uni2197" unicode="&#x2197;" horiz-adv-x="1146" 
d="M310 1069l-1 131l654 -1l75 -75v-653l-131 1l1 495l-711 -712l-104 104l710 711z" />
    <glyph glyph-name="uni2198" unicode="&#x2198;" horiz-adv-x="1146" 
d="M910 990l131 1l-1 -654l-75 -75h-653l1 131l495 -1l-712 711l104 104l711 -710z" />
    <glyph glyph-name="uni2199" unicode="&#x2199;" horiz-adv-x="1146" 
d="M831 390l1 -131l-654 1l-75 75v653l131 -1l-1 -495l711 712l104 -104l-710 -711z" />
    <glyph glyph-name="emptyset" unicode="&#x2205;" horiz-adv-x="1199" 
d="M607 -20q-181 0 -314 99l-79 -93l-107 96l84 99q-103 140 -103 349q0 135 43.5 242.5t117 173.5t165 100.5t193.5 34.5q170 0 301 -89l76 88l109 -96l-80 -90q115 -143 115 -364q0 -135 -44 -242t-117.5 -173t-165.5 -100.5t-194 -34.5zM257 530q0 -140 60 -234l476 575
q-82 52 -186 52q-66 0 -126.5 -23t-111.5 -68.5t-81.5 -123.5t-30.5 -178zM408 199q82 -61 199 -61q67 0 127.5 22.5t111.5 68t81.5 123.5t30.5 178q0 152 -70 250z" />
    <glyph glyph-name="uni2206" unicode="&#x2206;" horiz-adv-x="1415" 
d="M52 0l561 1465h192l559 -1465h-1312zM310 166h792l-396 1061z" />
    <glyph glyph-name="minus" unicode="&#x2212;" horiz-adv-x="1065" 
d="M61 592v159h943v-159h-943z" />
    <glyph glyph-name="radical" unicode="&#x221a;" horiz-adv-x="1301" 
d="M542 -410l-208 725h-258v159h395l173 -615l461 1606h177l-542 -1875h-198z" />
    <glyph glyph-name="infinity" unicode="&#x221e;" horiz-adv-x="1608" 
d="M1162 287q-195 0 -337 177l-21 27l-8 -11q-74 -101 -159.5 -147t-194.5 -46q-154 0 -251.5 99.5t-97.5 238.5q0 142 97.5 239t255.5 97q97 0 185 -44.5t155 -130.5l20 -26q82 109 168.5 155t190.5 46q155 0 252.5 -98.5t97.5 -237.5q0 -143 -97.5 -240.5t-255.5 -97.5z
M264 625q0 -79 54 -131t132 -52q65 0 117 30t105 104l32 44l-37 48q-61 77 -115.5 107.5t-113.5 30.5q-72 0 -123 -51.5t-51 -129.5zM907 630l32 -41q67 -84 117.5 -115.5t111.5 -31.5q74 0 125 52t51 131q0 78 -54 129.5t-130 51.5q-65 0 -115 -29t-105 -103z" />
    <glyph glyph-name="integral" unicode="&#x222b;" horiz-adv-x="920" 
d="M59 -352v165h20q78 0 125 46.5t64 147.5l200 1205q27 162 119 256.5t249 94.5h24v-165h-19q-79 0 -126 -45t-64 -144l-199 -1205q-28 -166 -119.5 -261t-249.5 -95h-24z" />
    <glyph glyph-name="approxequal" unicode="&#x2248;" horiz-adv-x="910" 
d="M634 739q-42 0 -84 16.5t-75.5 40.5t-64.5 47.5t-62 40t-57 16.5q-97 0 -97 -103q0 -14 1 -22l-132 -14q-3 25 -3 49q0 111 56.5 169.5t162.5 58.5q52 0 105 -25t89.5 -55.5t78.5 -55.5t73 -25q99 0 99 106q0 17 -3 37l128 13q4 -40 4 -58q0 -113 -57.5 -174.5
t-161.5 -61.5zM60 447q0 111 56.5 169.5t162.5 58.5q52 0 105 -25t89.5 -55.5t78.5 -55.5t73 -25q99 0 99 106q0 18 -3 37l128 13q4 -40 4 -58q0 -113 -57.5 -174.5t-161.5 -61.5q-42 0 -84 16.5t-75.5 40t-64.5 47.5t-62 40.5t-57 16.5q-97 0 -97 -103q0 -14 1 -22
l-132 -14q-3 25 -3 49z" />
    <glyph glyph-name="notequal" unicode="&#x2260;" horiz-adv-x="1065" 
d="M186 146l99 200h-224v159h303l165 333h-468v159h547l99 200h180l-99 -200h216v-159h-295l-166 -333h461v-159h-540l-99 -200h-179z" />
    <glyph glyph-name="lessequal" unicode="&#x2264;" horiz-adv-x="1082" 
d="M979 401l-863 234v200l863 233v-166l-677 -166l677 -164v-171zM69 192v151h943v-151h-943z" />
    <glyph glyph-name="greaterequal" unicode="&#x2265;" horiz-adv-x="1082" 
d="M104 401v166l678 166l-678 164v171l863 -233v-200zM71 192v151h943v-151h-943z" />
    <glyph glyph-name="uni2460" unicode="&#x2460;" horiz-adv-x="1712" 
d="M856 -20q-157 0 -298.5 57t-244 155.5t-162.5 239.5t-60 301t60 300.5t162.5 239.5t244 156t298.5 57t298.5 -57t244 -156t162.5 -239.5t60 -300.5t-60 -301t-162.5 -239.5t-244 -155.5t-298.5 -57zM210 733q0 -141 51.5 -262t139 -203.5t205.5 -129t250 -46.5t250 46.5
t205.5 129t139 203.5t51.5 262q0 188 -88 335.5t-234.5 226t-323.5 78.5t-323.5 -78.5t-234.5 -226t-88 -335.5zM648 1042l23 133h278v-896h-152v763h-149z" />
    <glyph glyph-name="uni2461" unicode="&#x2461;" horiz-adv-x="1712" 
d="M856 -20q-157 0 -298.5 57t-244 155.5t-162.5 239.5t-60 301t60 300.5t162.5 239.5t244 156t298.5 57t298.5 -57t244 -156t162.5 -239.5t60 -300.5t-60 -301t-162.5 -239.5t-244 -155.5t-298.5 -57zM210 733q0 -141 51.5 -262t139 -203.5t205.5 -129t250 -46.5t250 46.5
t205.5 129t139 203.5t51.5 262q0 188 -88 335.5t-234.5 226t-323.5 78.5t-323.5 -78.5t-234.5 -226t-88 -335.5zM546 962q63 226 297 226q132 0 213 -70.5t81 -191.5q0 -43 -11 -83t-25 -69t-45 -68t-52 -61.5t-65 -67.5l-162 -166h409v-132h-638v106l290 298q76 76 108 128
t32 109q0 62 -38 95.5t-100 33.5q-119 0 -153 -127z" />
    <glyph glyph-name="uni2462" unicode="&#x2462;" horiz-adv-x="1712" 
d="M859 267q-150 0 -245 73t-105 201l146 26q9 -77 60 -120.5t141 -43.5q81 0 129 40t48 106q0 64 -51 98t-135 34h-82v131h81q68 0 110 33t42 91q0 52 -42 83t-107 31q-53 0 -93 -28t-58 -75l-136 44q27 86 103 141t186 55q132 0 216.5 -67t84.5 -169q0 -71 -34.5 -122
t-95.5 -76q79 -23 123.5 -76.5t44.5 -137.5q0 -123 -93 -197.5t-238 -74.5zM91 733q0 160 60 300.5t162.5 239.5t244 156t298.5 57t298.5 -57t244 -156t162.5 -239.5t60 -300.5t-60 -301t-162.5 -239.5t-244 -155.5t-298.5 -57t-298.5 57t-244 155.5t-162.5 239.5t-60 301z
M210 733q0 -141 51.5 -262t139 -203.5t205.5 -129t250 -46.5t250 46.5t205.5 129t139 203.5t51.5 262q0 188 -88 335.5t-234.5 226t-323.5 78.5t-323.5 -78.5t-234.5 -226t-88 -335.5z" />
    <glyph glyph-name="uni2463" unicode="&#x2463;" horiz-adv-x="1712" 
d="M856 -20q-157 0 -298.5 57t-244 155.5t-162.5 239.5t-60 301t60 300.5t162.5 239.5t244 156t298.5 57t298.5 -57t244 -156t162.5 -239.5t60 -300.5t-60 -301t-162.5 -239.5t-244 -155.5t-298.5 -57zM210 733q0 -141 51.5 -262t139 -203.5t205.5 -129t250 -46.5t250 46.5
t205.5 129t139 203.5t51.5 262q0 188 -88 335.5t-234.5 226t-323.5 78.5t-323.5 -78.5t-234.5 -226t-88 -335.5zM449 477v117l446 580h152v-567h143v-130h-143v-199h-147v199h-451zM621 607h279v365z" />
    <glyph glyph-name="uni2464" unicode="&#x2464;" horiz-adv-x="1712" 
d="M856 -20q-157 0 -298.5 57t-244 155.5t-162.5 239.5t-60 301t60 300.5t162.5 239.5t244 156t298.5 57t298.5 -57t244 -156t162.5 -239.5t60 -300.5t-60 -301t-162.5 -239.5t-244 -155.5t-298.5 -57zM210 733q0 -141 51.5 -262t139 -203.5t205.5 -129t250 -46.5t250 46.5
t205.5 129t139 203.5t51.5 262q0 188 -88 335.5t-234.5 226t-323.5 78.5t-323.5 -78.5t-234.5 -226t-88 -335.5zM538 483l136 51q19 -65 69.5 -98.5t119.5 -33.5q74 0 125.5 42.5t51.5 125.5q0 84 -54.5 130t-133.5 46q-43 0 -84.5 -17.5t-63.5 -43.5l-126 23l54 467h507
v-131h-384l-24 -208q64 42 141 42q141 0 229.5 -83t88.5 -224q0 -139 -93 -221.5t-234 -82.5q-119 0 -205 54.5t-120 161.5z" />
    <glyph glyph-name="uni2465" unicode="&#x2465;" horiz-adv-x="1712" 
d="M856 -20q-157 0 -298.5 57t-244 155.5t-162.5 239.5t-60 301t60 300.5t162.5 239.5t244 156t298.5 57t298.5 -57t244 -156t162.5 -239.5t60 -300.5t-60 -301t-162.5 -239.5t-244 -155.5t-298.5 -57zM210 733q0 -141 51.5 -262t139 -203.5t205.5 -129t250 -46.5t250 46.5
t205.5 129t139 203.5t51.5 262q0 188 -88 335.5t-234.5 226t-323.5 78.5t-323.5 -78.5t-234.5 -226t-88 -335.5zM512 691q0 251 97.5 373.5t270.5 122.5q191 0 291 -158l-105 -80q-38 52 -81 77.5t-104 25.5q-95 0 -153 -65t-67 -201q75 87 212 87q77 0 147.5 -32.5
t118.5 -101t48 -159.5q0 -144 -89.5 -228.5t-228.5 -84.5q-357 0 -357 424zM676 571q0 -78 51.5 -122t129.5 -44t129.5 43.5t51.5 122.5t-52 123.5t-129 44.5t-129 -43t-52 -125z" />
    <glyph glyph-name="uni2466" unicode="&#x2466;" horiz-adv-x="1712" 
d="M856 -20q-157 0 -298.5 57t-244 155.5t-162.5 239.5t-60 301t60 300.5t162.5 239.5t244 156t298.5 57t298.5 -57t244 -156t162.5 -239.5t60 -300.5t-60 -301t-162.5 -239.5t-244 -155.5t-298.5 -57zM210 733q0 -141 51.5 -262t139 -203.5t205.5 -129t250 -46.5t250 46.5
t205.5 129t139 203.5t51.5 262q0 188 -88 335.5t-234.5 226t-323.5 78.5t-323.5 -78.5t-234.5 -226t-88 -335.5zM565 1043v132h626v-81l-368 -815h-160l348 764h-446z" />
    <glyph glyph-name="uni2467" unicode="&#x2467;" horiz-adv-x="1712" 
d="M856 -20q-157 0 -298.5 57t-244 155.5t-162.5 239.5t-60 301t60 300.5t162.5 239.5t244 156t298.5 57t298.5 -57t244 -156t162.5 -239.5t60 -300.5t-60 -301t-162.5 -239.5t-244 -155.5t-298.5 -57zM210 733q0 -141 51.5 -262t139 -203.5t205.5 -129t250 -46.5t250 46.5
t205.5 129t139 203.5t51.5 262q0 188 -88 335.5t-234.5 226t-323.5 78.5t-323.5 -78.5t-234.5 -226t-88 -335.5zM503 534q0 150 159 215q-57 26 -89.5 74t-32.5 115q0 111 86.5 179t229.5 68t229.5 -68t86.5 -179q0 -134 -120 -191q157 -62 157 -213q0 -124 -98 -196.5
t-255 -72.5t-255 72.5t-98 196.5zM651 538q0 -68 54 -104.5t151 -36.5t151 36.5t54 104.5q0 66 -57.5 103.5t-147.5 37.5t-147.5 -37.5t-57.5 -103.5zM690 936q0 -57 45.5 -89t120.5 -32t120.5 32t45.5 89q0 56 -45.5 88t-120.5 32q-74 0 -120 -32t-46 -88z" />
    <glyph glyph-name="uni2468" unicode="&#x2468;" horiz-adv-x="1712" 
d="M856 -20q-157 0 -298.5 57t-244 155.5t-162.5 239.5t-60 301t60 300.5t162.5 239.5t244 156t298.5 57t298.5 -57t244 -156t162.5 -239.5t60 -300.5t-60 -301t-162.5 -239.5t-244 -155.5t-298.5 -57zM210 733q0 -141 51.5 -262t139 -203.5t205.5 -129t250 -46.5t250 46.5
t205.5 129t139 203.5t51.5 262q0 188 -88 335.5t-234.5 226t-323.5 78.5t-323.5 -78.5t-234.5 -226t-88 -335.5zM499 478l120 76q35 -82 93 -117t140 -35q98 0 158.5 73.5t67.5 212.5q-77 -87 -219 -87q-138 0 -229 76.5t-91 214.5q0 137 93 216t230 79q76 0 138 -21.5
t113 -68t79.5 -131t28.5 -199.5q0 -257 -99 -378.5t-267 -121.5q-251 0 -356 211zM690 892q0 -79 52.5 -121t132.5 -42t132.5 42t52.5 121q0 78 -52.5 120t-132.5 42t-132.5 -42t-52.5 -120z" />
    <glyph glyph-name="uni24EA" unicode="&#x24ea;" horiz-adv-x="1712" 
d="M856 -20q-157 0 -298.5 57t-244 155.5t-162.5 239.5t-60 301t60 300.5t162.5 239.5t244 156t298.5 57t298.5 -57t244 -156t162.5 -239.5t60 -300.5t-60 -301t-162.5 -239.5t-244 -155.5t-298.5 -57zM210 733q0 -141 51.5 -262t139 -203.5t205.5 -129t250 -46.5t250 46.5
t205.5 129t139 203.5t51.5 262q0 188 -88 335.5t-234.5 226t-323.5 78.5t-323.5 -78.5t-234.5 -226t-88 -335.5zM481 728q0 216 100.5 337.5t274.5 121.5t275 -121.5t101 -337.5q0 -217 -101 -339t-275 -122t-274.5 121.5t-100.5 339.5zM640 728q0 -153 58 -238.5t158 -85.5
q99 0 157 85.5t58 238.5q0 150 -58 234.5t-157 84.5t-157.5 -85t-58.5 -234z" />
    <glyph glyph-name="uni24FF" unicode="&#x24ff;" horiz-adv-x="1712" 
d="M856 -20q157 0 298.5 57t244 155.5t162.5 239.5t60 301t-60 300.5t-162.5 239.5t-244 156t-298.5 57t-298.5 -57t-244 -156t-162.5 -239.5t-60 -300.5t60 -301t162.5 -239.5t244 -155.5t298.5 -57zM481 728q0 216 100.5 337.5t274.5 121.5t275 -121.5t101 -337.5
q0 -217 -101 -339t-275 -122t-274.5 121.5t-100.5 339.5zM640 728q0 -153 58 -238.5t158 -85.5q99 0 157 85.5t58 238.5q0 150 -58 234.5t-157 84.5t-157.5 -85t-58.5 -234z" />
    <glyph glyph-name="lozenge" unicode="&#x25ca;" horiz-adv-x="1266" 
d="M539 0l-466 733l466 732h191l465 -732l-465 -733h-191zM293 733l338 -547l337 547l-337 546z" />
    <glyph glyph-name="uni2776" unicode="&#x2776;" horiz-adv-x="1712" 
d="M797 279v763h-149l23 133h278v-896h-152zM91 733q0 -160 60 -301t162.5 -239.5t244 -155.5t298.5 -57t298.5 57t244 155.5t162.5 239.5t60 301t-60 300.5t-162.5 239.5t-244 156t-298.5 57t-298.5 -57t-244 -156t-162.5 -239.5t-60 -300.5z" />
    <glyph glyph-name="uni2777" unicode="&#x2777;" horiz-adv-x="1712" 
d="M856 -20q157 0 298.5 57t244 155.5t162.5 239.5t60 301t-60 300.5t-162.5 239.5t-244 156t-298.5 57t-298.5 -57t-244 -156t-162.5 -239.5t-60 -300.5t60 -301t162.5 -239.5t244 -155.5t298.5 -57zM546 962q63 226 297 226q132 0 213 -70.5t81 -191.5q0 -43 -11 -83
t-25 -69t-45 -68t-52 -61.5t-65 -67.5l-162 -166h409v-132h-638v106l290 298q76 76 108 128t32 109q0 62 -38 95.5t-100 33.5q-119 0 -153 -127z" />
    <glyph glyph-name="uni2778" unicode="&#x2778;" horiz-adv-x="1712" 
d="M859 267q-150 0 -245 73t-105 201l146 26q9 -77 60 -120.5t141 -43.5q81 0 129 40t48 106q0 64 -51 98t-135 34h-82v131h81q68 0 110 33t42 91q0 52 -42 83t-107 31q-53 0 -93 -28t-58 -75l-136 44q27 86 103 141t186 55q132 0 216.5 -67t84.5 -169q0 -71 -34.5 -122
t-95.5 -76q79 -23 123.5 -76.5t44.5 -137.5q0 -123 -93 -197.5t-238 -74.5zM91 733q0 -160 60 -301t162.5 -239.5t244 -155.5t298.5 -57t298.5 57t244 155.5t162.5 239.5t60 301t-60 300.5t-162.5 239.5t-244 156t-298.5 57t-298.5 -57t-244 -156t-162.5 -239.5t-60 -300.5z
" />
    <glyph glyph-name="uni2779" unicode="&#x2779;" horiz-adv-x="1712" 
d="M856 -20q157 0 298.5 57t244 155.5t162.5 239.5t60 301t-60 300.5t-162.5 239.5t-244 156t-298.5 57t-298.5 -57t-244 -156t-162.5 -239.5t-60 -300.5t60 -301t162.5 -239.5t244 -155.5t298.5 -57zM449 477v117l446 580h152v-567h143v-130h-143v-199h-147v199h-451z
M621 607h279v365z" />
    <glyph glyph-name="uni277A" unicode="&#x277a;" horiz-adv-x="1712" 
d="M863 267q-119 0 -205 54.5t-120 161.5l136 51q19 -65 69.5 -98.5t119.5 -33.5q74 0 125.5 42.5t51.5 125.5q0 84 -54.5 130t-133.5 46q-43 0 -84.5 -17.5t-63.5 -43.5l-126 23l54 467h507v-131h-384l-24 -208q64 42 141 42q141 0 229.5 -83t88.5 -224q0 -139 -93 -221.5
t-234 -82.5zM91 733q0 -160 60 -301t162.5 -239.5t244 -155.5t298.5 -57t298.5 57t244 155.5t162.5 239.5t60 301t-60 300.5t-162.5 239.5t-244 156t-298.5 57t-298.5 -57t-244 -156t-162.5 -239.5t-60 -300.5z" />
    <glyph glyph-name="uni277B" unicode="&#x277b;" horiz-adv-x="1712" 
d="M856 -20q157 0 298.5 57t244 155.5t162.5 239.5t60 301t-60 300.5t-162.5 239.5t-244 156t-298.5 57t-298.5 -57t-244 -156t-162.5 -239.5t-60 -300.5t60 -301t162.5 -239.5t244 -155.5t298.5 -57zM512 691q0 251 97.5 373.5t270.5 122.5q191 0 291 -158l-105 -80
q-38 52 -81 77.5t-104 25.5q-95 0 -153 -65t-67 -201q75 87 212 87q77 0 147.5 -32.5t118.5 -101t48 -159.5q0 -144 -89.5 -228.5t-228.5 -84.5q-357 0 -357 424zM676 571q0 -78 51.5 -122t129.5 -44t129.5 43.5t51.5 122.5t-52 123.5t-129 44.5t-129 -43t-52 -125z" />
    <glyph glyph-name="uni277C" unicode="&#x277c;" horiz-adv-x="1712" 
d="M856 -20q157 0 298.5 57t244 155.5t162.5 239.5t60 301t-60 300.5t-162.5 239.5t-244 156t-298.5 57t-298.5 -57t-244 -156t-162.5 -239.5t-60 -300.5t60 -301t162.5 -239.5t244 -155.5t298.5 -57zM565 1043v132h626v-81l-368 -815h-160l348 764h-446z" />
    <glyph glyph-name="uni277D" unicode="&#x277d;" horiz-adv-x="1712" 
d="M856 265q-157 0 -255 72.5t-98 196.5q0 150 159 215q-57 26 -89.5 74t-32.5 115q0 111 86.5 179t229.5 68t229.5 -68t86.5 -179q0 -134 -120 -191q157 -62 157 -213q0 -124 -98 -196.5t-255 -72.5zM91 733q0 -160 60 -301t162.5 -239.5t244 -155.5t298.5 -57t298.5 57
t244 155.5t162.5 239.5t60 301t-60 300.5t-162.5 239.5t-244 156t-298.5 57t-298.5 -57t-244 -156t-162.5 -239.5t-60 -300.5zM651 538q0 -68 54 -104.5t151 -36.5t151 36.5t54 104.5q0 66 -57.5 103.5t-147.5 37.5t-147.5 -37.5t-57.5 -103.5zM690 936q0 -57 45.5 -89
t120.5 -32t120.5 32t45.5 89q0 56 -45.5 88t-120.5 32q-74 0 -120 -32t-46 -88z" />
    <glyph glyph-name="uni277E" unicode="&#x277e;" horiz-adv-x="1712" 
d="M856 -20q157 0 298.5 57t244 155.5t162.5 239.5t60 301t-60 300.5t-162.5 239.5t-244 156t-298.5 57t-298.5 -57t-244 -156t-162.5 -239.5t-60 -300.5t60 -301t162.5 -239.5t244 -155.5t298.5 -57zM499 478l120 76q35 -82 93 -117t140 -35q98 0 158.5 73.5t67.5 212.5
q-77 -87 -219 -87q-138 0 -229 76.5t-91 214.5q0 137 93 216t230 79q76 0 138 -21.5t113 -68t79.5 -131t28.5 -199.5q0 -257 -99 -378.5t-267 -121.5q-251 0 -356 211zM690 892q0 -79 52.5 -121t132.5 -42t132.5 42t52.5 121q0 78 -52.5 120t-132.5 42t-132.5 -42
t-52.5 -120z" />
    <glyph glyph-name="uniA78B" unicode="&#xa78b;" horiz-adv-x="482" 
d="M188 723l-34 260v475h173v-475l-34 -260h-105z" />
    <glyph glyph-name="uniA78C" unicode="&#xa78c;" horiz-adv-x="436" 
d="M166 808l-34 260v475h173v-475l-35 -260h-104z" />
    <glyph glyph-name="uniF8FF" unicode="&#xf8ff;" horiz-adv-x="1831" 
d="M489 791q-49 20 -106 20q-69 0 -114.5 -30t-45.5 -87q0 -40 21 -72t55 -44q-54 3 -84.5 37.5t-30.5 91.5q0 82 68.5 133t189.5 51q29 0 47 -4v581h762v-245h-503v-387q70 -25 156.5 -70t161 -86.5t154.5 -81.5t165 -64t165 -24q24 0 48 2t36 4l13 2q-2 -3 -5.5 -7
t-19.5 -15.5t-36.5 -20t-57 -15.5t-80.5 -7q-154 0 -328.5 64.5t-371.5 166.5v-684h-259v791z" />
    <glyph glyph-name="uni004A0301" horiz-adv-x="1069" 
d="M498 -17q-170 0 -280.5 85t-131.5 266l184 33q24 -215 228 -215q107 0 169 64.5t62 198.5v1050h186v-1052q0 -114 -32 -199t-90 -134.5t-131.5 -73t-163.5 -23.5zM756 1586l81 388h198l-155 -388h-124z" />
    <glyph glyph-name="Cacute.loclPLK" horiz-adv-x="1545" 
d="M787 -20q-197 0 -352 95.5t-241.5 267.5t-86.5 390t86.5 390t241.5 267.5t352 95.5q237 0 401 -127t228 -344l-177 -44q-51 160 -166.5 252.5t-285.5 92.5q-221 0 -357 -161t-136 -422t136 -422.5t357 -161.5q170 0 286.5 93.5t167.5 255.5l175 -45q-63 -219 -227 -346
t-402 -127zM724 1586l81 388h198l-155 -388h-124z" />
    <glyph glyph-name="Nacute.loclPLK" horiz-adv-x="1474" 
d="M154 0v1465h166l818 -1126v1126h182v-1465h-166l-818 1127v-1127h-182zM668 1586l81 388h198l-155 -388h-124z" />
    <glyph glyph-name="Oacute.loclPLK" horiz-adv-x="1562" 
d="M781 -20q-197 0 -351 95.5t-238.5 267t-84.5 390.5t84.5 390.5t238.5 267t351 95.5t351 -95.5t239 -267t85 -390.5t-85 -390.5t-238.5 -267t-351.5 -95.5zM294 733q0 -262 132.5 -423t354.5 -161t354.5 161t132.5 423t-132 422.5t-355 160.5q-222 0 -354.5 -160.5
t-132.5 -422.5zM716 1586l81 388h198l-155 -388h-124z" />
    <glyph glyph-name="Sacute.loclPLK" horiz-adv-x="1240" 
d="M655 -20q-467 0 -566 461l189 33q36 -172 128.5 -250t245.5 -78q142 0 228 69t86 190q0 100 -53.5 151.5t-172.5 81.5l-205 54q-184 48 -269.5 140.5t-85.5 253.5q0 171 123 285.5t325 114.5q150 0 266.5 -60.5t185.5 -175.5l-144 -92q-51 81 -131.5 121.5t-175.5 40.5
q-119 0 -192 -63.5t-73 -168.5q0 -96 53 -145.5t170 -78.5l215 -54q178 -45 263 -140t85 -262q0 -204 -137.5 -316t-357.5 -112zM560 1586l81 388h198l-155 -388h-124z" />
    <glyph glyph-name="Zacute.loclPLK" horiz-adv-x="1311" 
d="M112 0v148l841 1147h-821v170h1046v-146l-841 -1149h862v-170h-1087zM590 1586l81 388h198l-155 -388h-124z" />
    <glyph glyph-name="R.ss01" horiz-adv-x="1367" 
d="M154 0v1465h615q124 0 224 -50.5t159.5 -148.5t59.5 -228q0 -171 -100.5 -282.5t-260.5 -136.5l246 -386q29 -47 52 -64.5t55 -17.5q46 0 98 29l49 -157q-81 -43 -174 -43q-80 0 -135.5 35.5t-106.5 122.5l-292 471h-301v-609h-188zM342 777h419q116 0 189.5 72.5
t73.5 188.5t-73 188t-190 72h-419v-521z" />
    </font>
</defs>
</svg>
