<?xml version="1.0" standalone="no"?>
<!DOCTYPE svg PUBLIC "-//W3C//DTD SVG 1.1//EN" "http://www.w3.org/Graphics/SVG/1.1/DTD/svg11.dtd" >
<svg xmlns="http://www.w3.org/2000/svg" xmlns:xlink="http://www.w3.org/1999/xlink" version="1.1">
<metadata>
Created by FontForge 20170731 at Wed Dec 15 17:19:27 2021
 By Aleksey,,,
(c) 2020 by Face37 Ltd. All rights reserved.
</metadata>
<defs>
<font id="F37Gruffy-Light" horiz-adv-x="1401" >
  <font-face 
    font-family="F37 Gruffy Light"
    font-weight="300"
    font-stretch="normal"
    units-per-em="2048"
    panose-1="0 0 0 0 0 0 0 0 0 0"
    ascent="1638"
    descent="-410"
    x-height="1053"
    cap-height="1458"
    bbox="-481 -629 2650 2288"
    underline-thickness="100"
    underline-position="-355"
    unicode-range="U+0020-F8FF"
  />
<missing-glyph horiz-adv-x="1638" 
d="M313 0v924q-55 -4 -90 -41.5t-35 -89.5q0 -36 19 -73.5t47 -47.5q-50 3 -90.5 56.5t-40.5 123.5q0 44 18.5 86t63.5 76t108 41v317h973v-915q82 -41 154 -41q44 0 76 10q-78 -86 -175 -86q-23 0 -55 5v-345h-973zM436 123h725v266q-132 64 -325 223l-195 158
q-112 91 -205 128v-775zM436 1048q72 -15 140.5 -54t150.5 -107l207 -170q160 -134 227 -182v714h-725v-201z" />
    <glyph glyph-name="f_f.liga" unicode="ff" horiz-adv-x="1272" 
d="M184 0v926h-139v127h139v168q0 151 88 243t248 92q222 0 293 -165q69 165 270 165q133 0 222.5 -72.5t128.5 -209.5l-134 -37q-30 95 -83.5 140.5t-133.5 45.5q-198 0 -198 -202v-168h395v-127h-395v-926h-144v926h-413v-926h-144zM328 1053h413v168q0 107 -56.5 154.5
t-164.5 47.5q-88 0 -140 -48t-52 -154v-168z" />
    <glyph glyph-name="f_f_i.liga" unicode="ffi" horiz-adv-x="1550" 
d="M184 0v926h-139v127h139v168q0 151 88 243t248 92q222 0 293 -165q69 165 270 165q133 0 222.5 -72.5t128.5 -209.5l-134 -37q-30 95 -83.5 140.5t-133.5 45.5q-198 0 -198 -202v-168h534v-1053h-143v926h-391v-926h-144v926h-413v-926h-144zM328 1053h413v168
q0 107 -56.5 154.5t-164.5 47.5q-88 0 -140 -48t-52 -154v-168z" />
    <glyph glyph-name="f_f_j.liga" unicode="ffj" horiz-adv-x="1550" 
d="M184 0v926h-139v127h139v168q0 151 88 243t248 92q222 0 293 -165q69 165 270 165q133 0 222.5 -72.5t128.5 -209.5l-134 -37q-30 95 -83.5 140.5t-133.5 45.5q-198 0 -198 -202v-168h534v-1190q0 -152 -87.5 -244t-248.5 -92q-138 0 -228.5 72.5t-129.5 210.5l133 36
q31 -96 85.5 -141t139.5 -45q88 0 140.5 48.5t52.5 154.5v1063h-391v-926h-144v926h-413v-926h-144zM328 1053h413v168q0 107 -56.5 154.5t-164.5 47.5q-88 0 -140 -48t-52 -154v-168z" />
    <glyph glyph-name="f_i.liga" unicode="fi" horiz-adv-x="995" 
d="M184 0v926h-139v127h139v168q0 149 92 242t248 93q274 0 355 -282l-134 -37q-30 97 -83.5 142.5t-137.5 45.5q-88 0 -142 -49.5t-54 -154.5v-168h538v-1053h-143v926h-395v-926h-144z" />
    <glyph glyph-name="f_j.liga" unicode="fj" horiz-adv-x="995" 
d="M528 -473q-138 0 -228.5 72.5t-129.5 210.5l133 36q31 -96 85.5 -141t139.5 -45q88 0 140.5 48.5t52.5 154.5v1063h-393v-926h-144v926h-139v127h139v168q0 149 92 242t248 93q274 0 355 -282l-134 -37q-30 97 -83.5 142.5t-137.5 45.5q-88 0 -142 -49.5t-54 -154.5v-168
h536v-1190q0 -152 -87.5 -244t-248.5 -92z" />
    <glyph glyph-name="g_j.liga" unicode="gj" horiz-adv-x="1810" 
d="M565 -471q-410 0 -575 352l129 62q59 -139 163 -211t283 -72q185 0 292.5 110t107.5 302v150q-63 -100 -163 -151t-220 -51q-71 0 -139.5 19.5t-132 61.5t-111.5 102.5t-76.5 149t-28.5 194.5q0 131 43.5 235t115 165.5t156 93.5t173.5 32q120 0 220 -51t163 -151v182
h143v-1190q0 -108 56.5 -155.5t164.5 -47.5q88 0 140.5 48.5t52.5 154.5v1190h143v-1190q0 -152 -88 -244t-248 -92q-263 0 -326 201q-70 -96 -183 -147.5t-255 -51.5zM238 547q0 -103 31 -181.5t84 -123.5t116 -67.5t133 -22.5q55 0 106 13.5t98.5 44t82 75t55.5 112
t21 150.5q0 102 -31 180.5t-84 124t-115.5 68t-132.5 22.5t-133 -22.5t-116 -68t-84 -124t-31 -180.5zM1489 1393q0 45 29.5 73.5t72.5 28.5q44 0 73.5 -28.5t29.5 -73.5q0 -46 -29.5 -74.5t-73.5 -28.5t-73 28.5t-29 74.5z" />
    <glyph glyph-name="j_j.liga" unicode="jj" horiz-adv-x="991" 
d="M-53 -473q-133 0 -222.5 72.5t-127.5 210.5l133 36q31 -95 84 -140.5t133 -45.5q198 0 198 203v1190h144v-1190q0 -108 56.5 -155.5t164.5 -47.5q88 0 140 48.5t52 154.5v1190h144v-1190q0 -152 -88 -244t-248 -92q-220 0 -293 166q-68 -166 -270 -166zM113 1393
q0 45 29.5 73.5t72.5 28.5t72.5 -28.5t29.5 -73.5q0 -46 -29 -74.5t-73 -28.5t-73 28.5t-29 74.5zM670 1393q0 45 29.5 73.5t72.5 28.5t72.5 -28.5t29.5 -73.5q0 -46 -29 -74.5t-73 -28.5t-73 28.5t-29 74.5z" />
    <glyph glyph-name="f_idieresis.calt" unicode="f&#xef;" horiz-adv-x="1155" 
d="M184 0v926h-139v127h139v168q0 149 92 242t248 93q274 0 355 -282l-134 -37q-30 97 -83.5 142.5t-137.5 45.5q-88 0 -142 -49.5t-54 -154.5v-168h395v-127h-395v-926h-144zM864 0v1053h144v-1053h-144zM1026 1352q0 43 28.5 70.5t70.5 27.5t70 -27t28 -71t-28 -71.5
t-70 -27.5t-70.5 27.5t-28.5 71.5z" />
    <glyph glyph-name=".notdef" horiz-adv-x="1638" 
d="M313 0v924q-55 -4 -90 -41.5t-35 -89.5q0 -36 19 -73.5t47 -47.5q-50 3 -90.5 56.5t-40.5 123.5q0 44 18.5 86t63.5 76t108 41v317h973v-915q82 -41 154 -41q44 0 76 10q-78 -86 -175 -86q-23 0 -55 5v-345h-973zM436 123h725v266q-132 64 -325 223l-195 158
q-112 91 -205 128v-775zM436 1048q72 -15 140.5 -54t150.5 -107l207 -170q160 -134 227 -182v714h-725v-201z" />
    <glyph glyph-name=".null" horiz-adv-x="0" 
 />
    <glyph glyph-name="nonmarkingreturn" horiz-adv-x="682" 
 />
    <glyph glyph-name="space" unicode=" " horiz-adv-x="492" 
 />
    <glyph glyph-name="exclam" unicode="!" horiz-adv-x="438" 
d="M147 430v1028h144v-1028h-144zM111 88q0 48 31.5 78.5t76.5 30.5q46 0 77.5 -30.5t31.5 -78.5t-31.5 -78t-77.5 -30q-45 0 -76.5 30t-31.5 78z" />
    <glyph glyph-name="quotedbl" unicode="&#x22;" horiz-adv-x="815" 
d="M201 956l-47 338q-13 80 -13 90q0 42 27.5 68.5t64.5 26.5q38 0 65.5 -26.5t27.5 -68.5q0 -11 -2 -23t-5.5 -31.5t-5.5 -35.5l-47 -338h-65zM489 1384q0 42 27.5 68.5t64.5 26.5q38 0 65.5 -26.5t27.5 -68.5q0 -11 -2 -23t-5.5 -31.5t-5.5 -35.5l-47 -338h-65l-47 338
q-13 80 -13 90z" />
    <glyph glyph-name="numbersign" unicode="#" horiz-adv-x="1266" 
d="M174 0l72 405h-226v127h249l70 394h-226v127h249l72 405h146l-72 -405h366l72 405h146l-72 -405h225v-127h-248l-70 -394h226v-127h-249l-72 -405h-146l72 405h-366l-72 -405h-146zM415 532h366l70 394h-366z" />
    <glyph glyph-name="dollar" unicode="$" horiz-adv-x="1229" 
d="M563 1679h144v-205q243 -34 354 -239l-123 -66q-51 87 -134 130.5t-181 43.5q-127 0 -205 -70t-78 -183q0 -104 58 -158.5t182 -85.5l206 -51q177 -44 259.5 -138.5t82.5 -257.5q0 -183 -115.5 -292t-305.5 -124v-204h-144v205q-372 39 -463 454l150 27q39 -184 136 -267
t259 -83q152 0 245 75.5t93 208.5q0 110 -56.5 166t-183.5 88l-202 52q-180 46 -263 137.5t-83 247.5q0 151 101 259t267 127v203z" />
    <glyph glyph-name="percent" unicode="%" horiz-adv-x="1843" 
d="M432 811q-66 0 -125 22.5t-105 63.5t-73 105.5t-27 142.5q0 156 96 245t234 89q137 0 233.5 -89.5t96.5 -244.5q0 -78 -27 -142.5t-73 -105.5t-105 -63.5t-125 -22.5zM238 1145q0 -106 55.5 -160.5t138.5 -54.5q84 0 139.5 54.5t55.5 160.5q0 107 -56.5 162t-138.5 55
t-138 -55t-56 -162zM367 0l942 1458h168l-942 -1458h-168zM1081 313q0 78 27 142.5t73 105.5t105 63.5t125 22.5t125 -22.5t105 -63.5t73 -105.5t27 -142.5q0 -156 -96 -244.5t-234 -88.5q-137 0 -233.5 89t-96.5 244zM1217 313q0 -107 56 -162t138 -55t138.5 55t56.5 162
q0 106 -56 160.5t-139 54.5t-138.5 -54.5t-55.5 -160.5z" />
    <glyph glyph-name="ampersand" unicode="&#x26;" horiz-adv-x="1413" 
d="M1262 -14l-177 176q-94 -89 -222 -135.5t-265 -46.5q-231 0 -367.5 114.5t-136.5 284.5q0 85 25 152t75 118.5t103.5 87t133.5 75.5l-1 1q-97 97 -139.5 178.5t-42.5 171.5q0 136 102.5 226t265.5 90q167 0 267 -96t100 -240q0 -67 -22.5 -124t-67.5 -103.5t-96.5 -83
t-124.5 -75.5l398 -394q88 167 50 407l140 23q53 -318 -85 -534l193 -191zM238 379q0 -111 93.5 -189.5t266.5 -78.5q110 0 211 38t176 112l-460 457q-72 -37 -116.5 -66t-87.5 -69.5t-63 -90.5t-20 -113zM391 1163q0 -73 31 -131.5t119 -144.5l37 -37q130 68 196 136.5
t66 160.5q0 98 -58.5 149.5t-158.5 51.5q-113 0 -172.5 -54t-59.5 -131z" />
    <glyph glyph-name="quotesingle" unicode="'" horiz-adv-x="467" 
d="M201 956l-47 338q-13 80 -13 90q0 42 27.5 68.5t64.5 26.5q38 0 65.5 -26.5t27.5 -68.5q0 -11 -2 -23t-5.5 -31.5t-5.5 -35.5l-47 -338h-65z" />
    <glyph glyph-name="parenleft" unicode="(" horiz-adv-x="535" 
d="M453 -336q-162 169 -250 401.5t-88 499.5q0 268 88 500t250 401l90 -80q-138 -151 -211.5 -361.5t-73.5 -459.5t73.5 -459t211.5 -362z" />
    <glyph glyph-name="parenright" unicode=")" horiz-adv-x="532" 
d="M61 1466q162 -169 250 -401.5t88 -499.5q0 -268 -88 -500t-250 -401l-90 80q138 151 211.5 361.5t73.5 459.5t-73.5 459t-211.5 362z" />
    <glyph glyph-name="asterisk" unicode="*" horiz-adv-x="819" 
d="M248 782l-92 68l198 235l-301 72l37 111l283 -115l-21 305h115l-21 -305l283 115l37 -111l-301 -72l199 -235l-93 -68l-161 265z" />
    <glyph glyph-name="plus" unicode="+" horiz-adv-x="1065" 
d="M461 203v405h-400v127h400v406h143v-406h400v-127h-400v-405h-143z" />
    <glyph glyph-name="comma" unicode="," horiz-adv-x="434" 
d="M88 -325l-66 42l153 271q-28 12 -46 38.5t-18 61.5q0 48 31.5 78.5t76.5 30.5t77 -32t32 -87q0 -22 -9 -46t-17 -36.5t-32 -48.5z" />
    <glyph glyph-name="hyphen" unicode="-" horiz-adv-x="596" 
d="M61 721v127h474v-127h-474z" />
    <glyph glyph-name="period" unicode="." horiz-adv-x="434" 
d="M219 -20q-45 0 -76.5 30t-31.5 78t31.5 78.5t76.5 30.5q46 0 77.5 -30.5t31.5 -78.5t-31.5 -78t-77.5 -30z" />
    <glyph glyph-name="slash" unicode="/" horiz-adv-x="651" 
d="M-82 -410l660 1868h155l-659 -1868h-156z" />
    <glyph glyph-name="zero" unicode="0" horiz-adv-x="1360" 
d="M680 -20q-178 0 -308 97.5t-194.5 265t-64.5 386.5t64.5 387t194.5 265.5t308 97.5t307.5 -97.5t194.5 -265.5t65 -387t-65 -387t-194.5 -265t-307.5 -97zM260 729q0 -184 45 -320t141 -215t234 -79t234 79t141 215t45 320q0 185 -45 321t-141 214.5t-234 78.5
t-234 -78.5t-141 -214.5t-45 -321z" />
    <glyph glyph-name="one" unicode="1" horiz-adv-x="614" 
d="M307 0v1323h-266l20 135h390v-1458h-144z" />
    <glyph glyph-name="two" unicode="2" horiz-adv-x="1174" 
d="M119 0v119l440 456q78 81 123 133t88 115t61.5 121.5t18.5 122.5q0 137 -83.5 209t-215.5 72q-111 0 -190.5 -64.5t-120.5 -187.5l-129 47q111 336 456 336q118 0 213 -45.5t154 -140.5t59 -226q0 -44 -6 -84.5t-22 -81.5t-30 -73t-44.5 -73.5t-49 -67t-60.5 -71.5
t-63 -68t-71 -73l-337 -348h773v-127h-964z" />
    <glyph glyph-name="three" unicode="3" horiz-adv-x="1227" 
d="M608 -20q-217 0 -366 113.5t-170 303.5l133 31q16 -153 121.5 -235t281.5 -82q166 0 264.5 84t98.5 227q0 72 -31.5 127t-85.5 88t-121 49t-145 16h-144v132h144q146 0 231.5 71.5t85.5 192.5q0 112 -86 181t-229 69q-103 0 -185 -53t-118 -136l-117 45q53 133 167 204
t257 71q196 0 325.5 -106t129.5 -275q0 -118 -59.5 -200t-166.5 -124q291 -77 291 -352q0 -200 -142 -321t-364 -121z" />
    <glyph glyph-name="four" unicode="4" horiz-adv-x="1280" 
d="M831 0v348h-755v107l774 1003h125v-983h264v-127h-264v-348h-144zM254 475h577v754z" />
    <glyph glyph-name="five" unicode="5" horiz-adv-x="1163" 
d="M571 -20q-178 0 -312 85t-187 254l139 52q37 -133 130.5 -196.5t229.5 -63.5q64 0 122 20t107 60t78 108t29 156q0 87 -29 155t-79 108t-110.5 60.5t-127.5 20.5q-181 0 -276 -119l-123 31l86 747h770v-127h-655l-59 -496q94 95 267 95q94 0 179 -30.5t153 -87.5
t108 -149.5t40 -207.5q0 -116 -40 -208.5t-108 -149.5t-153 -87t-179 -30z" />
    <glyph glyph-name="six" unicode="6" horiz-adv-x="1249" 
d="M645 -20q-532 0 -532 686q0 165 30 301t81.5 229.5t122 157.5t151 93.5t168.5 29.5q149 0 259.5 -60.5t194.5 -189.5l-110 -78q-136 197 -340 197q-171 0 -280 -151t-124 -449q62 91 160 137.5t215 46.5q87 0 169.5 -30t151 -87t110.5 -150t42 -208t-42 -208.5t-110 -150
t-150 -86.5t-167 -30zM281 455q0 -87 29.5 -154.5t79.5 -108t110 -61t127 -20.5q66 0 126 20.5t109.5 61t79 108t29.5 154.5q0 86 -29.5 154t-79 108.5t-109.5 61t-126 20.5q-67 0 -127 -20.5t-110 -61t-79.5 -108.5t-29.5 -154z" />
    <glyph glyph-name="seven" unicode="7" horiz-adv-x="1106" 
d="M270 0l604 1331h-823v127h989v-106l-614 -1352h-156z" />
    <glyph glyph-name="eight" unicode="8" horiz-adv-x="1282" 
d="M641 1479q205 0 336 -107t131 -285q0 -114 -56.5 -196t-158.5 -127q128 -45 202 -136.5t74 -226.5q0 -131 -72 -228t-190.5 -145t-265.5 -48t-265.5 48t-190.5 145t-72 228q0 135 74 226.5t202 136.5q-102 45 -158.5 127t-56.5 196q0 178 131 285t336 107zM256 401
q0 -138 106.5 -214t278.5 -76t278.5 76t106.5 214q0 92 -55 159.5t-141 99.5t-189 32t-189 -32t-141 -99.5t-55 -159.5zM317 1087q0 -120 87 -190t237 -70t237 70t87 190t-87 190.5t-237 70.5t-237 -70.5t-87 -190.5z" />
    <glyph glyph-name="nine" unicode="9" horiz-adv-x="1237" 
d="M557 -20q-189 0 -321 86t-224 270l131 74q124 -299 410 -299q174 0 287.5 151t130.5 449q-61 -91 -159.5 -138t-215.5 -47q-87 0 -169.5 30t-151 87t-110.5 150t-42 208t42 208.5t110 150.5t150 87t167 30q532 0 532 -686q0 -206 -45.5 -364.5t-125 -254.5t-179.5 -144
t-217 -48zM266 1001q0 -86 29.5 -154t79 -108.5t109.5 -61t126 -20.5q67 0 127 20.5t110 61t79.5 108.5t29.5 154q0 87 -29.5 155t-79.5 108.5t-110 61t-127 20.5q-66 0 -126 -20.5t-109.5 -61t-79 -108.5t-29.5 -155z" />
    <glyph glyph-name="colon" unicode=":" horiz-adv-x="434" 
d="M219 -20q-45 0 -76.5 30t-31.5 78t31.5 78.5t76.5 30.5q46 0 77.5 -30.5t31.5 -78.5t-31.5 -78t-77.5 -30zM111 887q0 48 31.5 78.5t76.5 30.5q46 0 77.5 -30.5t31.5 -78.5t-31.5 -78t-77.5 -30q-45 0 -76.5 30t-31.5 78z" />
    <glyph glyph-name="semicolon" unicode=";" horiz-adv-x="434" 
d="M219 779q-45 0 -76.5 30t-31.5 78t31.5 78.5t76.5 30.5q46 0 77.5 -30.5t31.5 -78.5t-31.5 -78t-77.5 -30zM22 -283l153 271q-28 12 -46 38.5t-18 61.5q0 48 31.5 78.5t76.5 30.5t77 -32t32 -87q0 -22 -9 -46t-17 -36.5t-32 -48.5l-182 -272z" />
    <glyph glyph-name="less" unicode="&#x3c;" horiz-adv-x="1028" 
d="M926 1059v-145l-706 -256l706 -256v-151l-844 314v180z" />
    <glyph glyph-name="equal" unicode="=" horiz-adv-x="1065" 
d="M61 854v127h943v-127h-943zM61 362v127h943v-127h-943z" />
    <glyph glyph-name="greater" unicode="&#x3e;" horiz-adv-x="1028" 
d="M102 235v145l706 256l-706 256v151l844 -314v-180z" />
    <glyph glyph-name="question" unicode="?" horiz-adv-x="975" 
d="M408 412v51q0 120 38.5 188t151.5 152q91 67 129.5 130t38.5 163q0 112 -73 182t-204 70q-129 0 -202.5 -70t-73.5 -182q0 -66 14 -115l-133 -33q-20 61 -20 148q0 169 114 276t301 107q192 0 306 -106.5t114 -276.5q0 -71 -15.5 -129t-47.5 -104.5t-67.5 -81
t-86.5 -72.5q-59 -45 -86 -74t-41 -69t-14 -103v-51h-143zM373 88q0 48 31.5 78.5t76.5 30.5q46 0 77.5 -30.5t31.5 -78.5t-31.5 -78t-77.5 -30q-45 0 -76.5 30t-31.5 78z" />
    <glyph glyph-name="at" unicode="@" horiz-adv-x="1976" 
d="M1008 -330q-204 0 -372.5 68.5t-282 189.5t-176 289.5t-62.5 366.5q0 255 106 457.5t305.5 320t460.5 117.5q197 0 362.5 -68t277 -184t173.5 -271.5t62 -330.5q0 -241 -92.5 -366.5t-253.5 -125.5q-61 0 -114 16t-101 59t-67 110q-47 -90 -127.5 -137.5t-178.5 -47.5
q-59 0 -116 16t-109.5 51t-92.5 85.5t-64 124t-24 161.5q0 109 36 196t95 139t129.5 79t145.5 27q90 0 165 -40.5t124 -117.5v143h139v-559q0 -96 40 -139t120 -43q202 0 202 369q0 150 -50.5 281.5t-143 229t-231.5 154t-306 56.5q-222 0 -388.5 -99t-253.5 -271t-87 -392
q0 -230 87 -405.5t258.5 -275.5t404.5 -100q174 0 321 64l51 -125q-165 -72 -372 -72zM662 571q0 -81 25 -143.5t67 -99t91 -54.5t103 -18q115 0 192 78.5t77 236.5q0 159 -78 237.5t-191 78.5q-54 0 -103 -18t-91 -54t-67 -99t-25 -145z" />
    <glyph glyph-name="A" unicode="A" horiz-adv-x="1376" 
d="M53 0l570 1458h133l567 -1458h-158l-137 358h-684l-137 -358h-154zM397 494h578l-289 754z" />
    <glyph glyph-name="B" unicode="B" horiz-adv-x="1378" 
d="M164 0v1458h651q96 0 182.5 -43t143.5 -129t57 -196q0 -115 -52 -197.5t-137 -126.5q103 -41 168.5 -129.5t65.5 -216.5t-60.5 -225.5t-156.5 -146t-209 -48.5h-653zM311 135h506q119 0 199 80.5t80 204.5q0 134 -80.5 203t-214.5 69h-490v-557zM311 827h490
q101 0 175.5 73t74.5 177q0 110 -73 178t-177 68h-490v-496z" />
    <glyph glyph-name="C" unicode="C" horiz-adv-x="1536" 
d="M784 -20q-195 0 -348 96.5t-237 267t-84 385.5q0 161 49.5 300t136.5 238t212 155.5t271 56.5q232 0 390 -124t225 -337l-137 -39q-55 168 -177 266t-301 98q-234 0 -378 -170.5t-144 -443.5t144 -443.5t378 -170.5q179 0 302.5 99t177.5 269l135 -41
q-65 -213 -224 -337.5t-391 -124.5z" />
    <glyph glyph-name="D" unicode="D" horiz-adv-x="1430" 
d="M164 0v1458h510q142 0 262 -55t203 -151t129.5 -231t46.5 -292t-46.5 -292t-129.5 -231t-203 -151t-262 -55h-510zM311 135h363q225 0 359 164.5t134 429.5t-134 429.5t-359 164.5h-363v-1188z" />
    <glyph glyph-name="E" unicode="E" horiz-adv-x="1307" 
d="M164 0v1458h958v-135h-811v-500h750v-135h-750v-553h852v-135h-999z" />
    <glyph glyph-name="F" unicode="F" horiz-adv-x="1286" 
d="M164 0v1458h979v-135h-832v-559h770v-135h-770v-629h-147z" />
    <glyph glyph-name="G" unicode="G" horiz-adv-x="1587" 
d="M805 -20q-205 0 -362.5 96.5t-242.5 266.5t-85 386q0 161 49.5 300t136.5 238t212 155.5t271 56.5q243 0 404.5 -124t226.5 -337l-139 -39q-56 168 -182 266t-310 98q-234 0 -378 -170.5t-144 -443.5q0 -274 147.5 -444t395.5 -170q158 0 281.5 71.5t199.5 202.5v266h148
v-655h-129l-11 193q-173 -213 -489 -213z" />
    <glyph glyph-name="H" unicode="H" horiz-adv-x="1438" 
d="M164 0v1458h147v-651h815v651h148v-1458h-148v672h-815v-672h-147z" />
    <glyph glyph-name="I" unicode="I" horiz-adv-x="475" 
d="M164 0v1458h147v-1458h-147z" />
    <glyph glyph-name="J" unicode="J" horiz-adv-x="1044" 
d="M483 -16q-157 0 -264 81t-129 257l143 26q28 -229 250 -229q116 0 184 71t68 218v1050h146v-1050q0 -115 -32 -199.5t-88.5 -132.5t-125.5 -70t-152 -22z" />
    <glyph glyph-name="K" unicode="K" horiz-adv-x="1419" 
d="M164 0v1458h147v-751l768 751h201l-669 -645l728 -813h-202l-634 711l-192 -185v-526h-147z" />
    <glyph glyph-name="L" unicode="L" horiz-adv-x="1268" 
d="M164 0v1458h147v-1323h858v-135h-1005z" />
    <glyph glyph-name="M" unicode="M" horiz-adv-x="1741" 
d="M164 0v1458h207l504 -1276l503 1276h199v-1458h-145v1220l-482 -1220h-159l-484 1225v-1225h-143z" />
    <glyph glyph-name="N" unicode="N" horiz-adv-x="1458" 
d="M164 0v1458h127l858 -1181v1181h145v-1458h-125l-860 1184v-1184h-145z" />
    <glyph glyph-name="O" unicode="O" horiz-adv-x="1548" 
d="M774 -20q-194 0 -345 96.5t-232.5 266.5t-81.5 386q0 161 48 300t133 238t208.5 155.5t269.5 56.5q194 0 345 -96.5t233 -267t82 -386.5q0 -215 -82 -385.5t-233 -267t-345 -96.5zM262 729q0 -274 139.5 -444t372.5 -170t372.5 170t139.5 444t-139.5 444t-372.5 170
t-372.5 -170t-139.5 -444z" />
    <glyph glyph-name="P" unicode="P" horiz-adv-x="1360" 
d="M164 0v1458h600q122 0 225 -54.5t165.5 -157.5t62.5 -232t-62.5 -232t-165.5 -158t-225 -55h-453v-569h-147zM311 705h455q133 0 218 85t85 224q0 138 -85 223.5t-218 85.5h-455v-618z" />
    <glyph glyph-name="Q" unicode="Q" horiz-adv-x="1544" 
d="M1044 -297q-132 0 -202 71.5t-101 206.5q-186 8 -328.5 106.5t-220 265t-77.5 376.5q0 161 48 300t133 238t208.5 155.5t269.5 56.5q194 0 345 -96.5t233 -267t82 -386.5q0 -291 -146.5 -493t-391.5 -245q33 -155 146 -155q78 0 162 41l45 -123q-89 -51 -205 -51z
M262 729q0 -274 139.5 -444t372.5 -170t372.5 170t139.5 444t-139.5 444t-372.5 170t-372.5 -170t-139.5 -444z" />
    <glyph glyph-name="R" unicode="R" horiz-adv-x="1339" 
d="M164 0v1458h579q186 0 309.5 -112.5t123.5 -301.5q0 -166 -98 -275t-254 -134l413 -635h-176l-407 629h-343v-629h-147zM311 764h434q125 0 204 78t79 202t-79 201.5t-204 77.5h-434v-559z" />
    <glyph glyph-name="S" unicode="S" horiz-adv-x="1229" 
d="M645 -20q-444 0 -545 458l150 27q39 -184 136 -267t259 -83q152 0 245 75.5t93 208.5q0 110 -56.5 166t-183.5 88l-202 52q-180 46 -263 137.5t-83 247.5q0 165 119 277t309 112q148 0 260.5 -62.5t177.5 -181.5l-123 -66q-51 87 -134 130.5t-181 43.5q-127 0 -205 -70
t-78 -183q0 -104 58 -158.5t182 -85.5l206 -51q177 -44 259.5 -138.5t82.5 -257.5q0 -198 -134 -308.5t-349 -110.5z" />
    <glyph glyph-name="T" unicode="T" horiz-adv-x="1233" 
d="M543 0v1323h-512v135h1171v-135h-512v-1323h-147z" />
    <glyph glyph-name="U" unicode="U" horiz-adv-x="1438" 
d="M719 -20q-240 0 -397.5 156t-157.5 392v930h147v-930q0 -187 109.5 -300t298.5 -113t298 113t109 300v930h148v-930q0 -236 -158 -392t-397 -156z" />
    <glyph glyph-name="V" unicode="V" horiz-adv-x="1376" 
d="M621 0l-568 1458h158l479 -1248l479 1248h154l-569 -1458h-133z" />
    <glyph glyph-name="W" unicode="W" horiz-adv-x="1823" 
d="M426 0l-356 1458h155l279 -1208l340 1208h143l339 -1205l280 1205h147l-354 -1458h-142l-345 1233l-345 -1233h-141z" />
    <glyph glyph-name="X" unicode="X" horiz-adv-x="1274" 
d="M41 0l493 748l-468 710h176l393 -596l391 596h172l-463 -702l498 -756h-176l-422 639l-422 -639h-172z" />
    <glyph glyph-name="Y" unicode="Y" horiz-adv-x="1253" 
d="M551 0v611l-539 847h172l446 -705l445 705h166l-543 -850v-608h-147z" />
    <glyph glyph-name="Z" unicode="Z" horiz-adv-x="1290" 
d="M115 0v113l863 1210h-843v135h1020v-112l-863 -1211h884v-135h-1061z" />
    <glyph glyph-name="bracketleft" unicode="[" horiz-adv-x="610" 
d="M164 -328v1786h393v-131h-250v-1524h250v-131h-393z" />
    <glyph glyph-name="backslash" unicode="\" horiz-adv-x="651" 
d="M578 -410l-660 1868h156l659 -1868h-155z" />
    <glyph glyph-name="bracketright" unicode="]" horiz-adv-x="610" 
d="M446 1458v-1786h-393v131h250v1524h-250v131h393z" />
    <glyph glyph-name="asciicircum" unicode="^" horiz-adv-x="905" 
d="M12 610l371 848h139l371 -848h-160l-285 682l-286 -682h-150z" />
    <glyph glyph-name="underscore" unicode="_" horiz-adv-x="1006" 
d="M61 -168v127h883v-127h-883z" />
    <glyph glyph-name="grave" unicode="`" horiz-adv-x="1126" 
d="M514 1174l-143 380h155l86 -380h-98z" />
    <glyph glyph-name="a" unicode="a" horiz-adv-x="1075" 
d="M444 -20q-140 0 -234.5 76.5t-94.5 215.5q0 50 12.5 90.5t38.5 70.5t53.5 51.5t72 40t78.5 29.5t87 26l350 93q-6 127 -86.5 198t-194.5 71q-108 0 -178.5 -45.5t-134.5 -151.5l-115 64q140 264 434 264q189 0 303.5 -107t114.5 -313v-653h-143v157q-63 -87 -160 -132
t-203 -45zM258 274q0 -83 54.5 -123t142.5 -40q59 0 117 15t112.5 46.5t88.5 90t34 136.5v149l-334 -89q-104 -28 -159.5 -68t-55.5 -117z" />
    <glyph glyph-name="b" unicode="b" horiz-adv-x="1247" 
d="M666 -20q-120 0 -222 56t-165 164v-200h-140v1536h144v-678q63 105 164 160t219 55q71 0 139 -19.5t131.5 -62.5t111 -105.5t76.5 -155t29 -204.5q0 -138 -43.5 -246.5t-115 -172t-155.5 -95.5t-173 -32zM283 526q0 -107 31 -189.5t83.5 -130t115 -71.5t132.5 -24
t133.5 24t116 71.5t84 130t31.5 189.5t-31.5 189.5t-84 130.5t-116 72t-133.5 24q-69 0 -132 -24t-115.5 -72t-83.5 -130.5t-31 -189.5z" />
    <glyph glyph-name="c" unicode="c" horiz-adv-x="1157" 
d="M600 -20q-76 0 -147.5 19.5t-137 62.5t-114.5 105t-78 154.5t-29 204.5t29 204.5t78 155t114.5 105.5t137 62.5t147.5 19.5q109 0 202 -34.5t168 -111.5t109 -190l-139 -41q-26 85 -81.5 142t-120 80.5t-138.5 23.5q-70 0 -132 -23t-115 -70t-84 -130t-31 -193t31 -193
t84 -130t115 -69.5t132 -22.5q75 0 140 23t120 80t80 142l139 -41q-51 -167 -181 -251t-298 -84z" />
    <glyph glyph-name="d" unicode="d" horiz-adv-x="1247" 
d="M582 -20q-90 0 -174 32t-155.5 95.5t-115 172t-43.5 246.5q0 112 29 204.5t76.5 155t111.5 105.5t132 62.5t139 19.5q118 0 219 -54.5t164 -158.5v676h143v-1536h-139v200q-62 -107 -164.5 -163.5t-222.5 -56.5zM238 526q0 -107 31 -189.5t84 -130t116 -71.5t133 -24
q55 0 106 14.5t98.5 46.5t82 79t55.5 118t21 157q0 107 -31 189.5t-84 130.5t-116 72t-132 24q-70 0 -133 -24t-116 -72t-84 -130.5t-31 -189.5z" />
    <glyph glyph-name="e" unicode="e" horiz-adv-x="1188" 
d="M602 -20q-76 0 -148 19.5t-138 62.5t-115 105t-78 154.5t-29 204.5t30.5 204.5t81 155t118 105.5t140.5 62.5t150 19.5q101 0 186 -30.5t152 -92t104.5 -164.5t37.5 -239v-41h-856q3 -104 35.5 -182.5t85 -123.5t114.5 -67t131 -22q122 0 206 46t155 152l108 -71
q-155 -258 -471 -258zM247 631h701q-19 160 -107.5 235.5t-226.5 75.5q-62 0 -119.5 -17.5t-108.5 -53t-88 -97t-51 -143.5z" />
    <glyph glyph-name="f" unicode="f" horiz-adv-x="717" 
d="M184 0v926h-139v127h139v168q0 149 92 242t248 93q274 0 355 -282l-134 -37q-30 97 -83.5 142.5t-137.5 45.5q-88 0 -142 -49.5t-54 -154.5v-168h395v-127h-395v-926h-144z" />
    <glyph glyph-name="g" unicode="g" horiz-adv-x="1247" 
d="M565 -471q-410 0 -575 353l128 61q59 -139 163.5 -211t283.5 -72q185 0 292.5 110t107.5 302v149q-63 -100 -163.5 -150.5t-219.5 -50.5q-71 0 -139.5 19.5t-132 61.5t-111.5 102.5t-76.5 149t-28.5 194.5q0 131 43.5 235t115 165.5t156 93.5t173.5 32q119 0 219.5 -50.5
t163.5 -149.5v180h143v-981q0 -251 -148.5 -397t-394.5 -146zM238 547q0 -103 31 -181.5t84 -123.5t116 -67.5t133 -22.5q55 0 106 13.5t98.5 44t82 75t55.5 112t21 150.5q0 102 -31 180.5t-84 124t-115.5 68t-132.5 22.5t-133 -22.5t-116 -68t-84 -124t-31 -180.5z" />
    <glyph glyph-name="h" unicode="h" horiz-adv-x="1145" 
d="M877 0v639q0 141 -82.5 221t-214.5 80t-214.5 -79.5t-82.5 -217.5v-643h-144v1536h144v-628q55 77 139.5 121t187.5 44q193 0 301.5 -117t108.5 -317v-639h-143z" />
    <glyph glyph-name="i" unicode="i" horiz-adv-x="438" 
d="M147 0v1053h144v-1053h-144zM117 1393q0 45 29.5 73.5t72.5 28.5q44 0 73.5 -28.5t29.5 -73.5q0 -46 -29.5 -74.5t-73.5 -28.5t-73 28.5t-29 74.5z" />
    <glyph glyph-name="j" unicode="j" horiz-adv-x="436" 
d="M-45 -473q-138 0 -228.5 72.5t-129.5 210.5l141 38q30 -98 81 -144t136 -46q87 0 139.5 49.5t52.5 155.5v1190h144v-1190q0 -152 -88 -244t-248 -92zM115 1393q0 45 29.5 73.5t72.5 28.5t72.5 -28.5t29.5 -73.5q0 -46 -29 -74.5t-73 -28.5t-73 28.5t-29 74.5z" />
    <glyph glyph-name="k" unicode="k" horiz-adv-x="1126" 
d="M887 0l-401 524l-203 -197v-327h-144v1536h144v-1030l559 547h188l-441 -429l480 -624h-182z" />
    <glyph glyph-name="l" unicode="l" horiz-adv-x="569" 
d="M369 -20q-117 0 -173.5 56t-56.5 187v1313h144v-1313q0 -65 22 -88.5t68 -23.5q51 0 104 20l31 -123q-75 -28 -139 -28z" />
    <glyph glyph-name="m" unicode="m" horiz-adv-x="1874" 
d="M131 0v1053h143v-146q55 78 140.5 122t187.5 44q126 0 218 -51.5t142 -148.5q54 93 151 146.5t218 53.5q196 0 307 -115t111 -319v-639h-143v639q0 138 -81 220.5t-216 82.5t-216 -82t-81 -217v-4v-639h-144v639q0 138 -80.5 220.5t-216.5 82.5q-135 0 -216 -82t-81 -217
v-643h-143z" />
    <glyph glyph-name="n" unicode="n" horiz-adv-x="1137" 
d="M868 0v639q0 138 -80.5 219.5t-216.5 81.5q-135 0 -216 -81t-81 -216v-643h-143v1053h143v-146q55 78 140.5 122t187.5 44q191 0 300.5 -116t109.5 -318v-639h-144z" />
    <glyph glyph-name="o" unicode="o" horiz-adv-x="1202" 
d="M600 -20q-76 0 -147.5 19.5t-137 62.5t-114.5 105t-78 154.5t-29 204.5t29 204.5t78 155t114.5 105.5t137 62.5t147.5 19.5t147.5 -19.5t137.5 -62.5t115 -105.5t78.5 -155t29.5 -204.5t-29.5 -204.5t-78.5 -154.5t-115 -105t-137.5 -62.5t-147.5 -19.5zM238 526
q0 -110 31 -193t84 -130t115 -69.5t132 -22.5q56 0 107 13.5t99 45t82.5 78.5t55.5 118t21 160q0 110 -31 193t-84.5 130t-116 70t-133.5 23q-70 0 -132 -23t-115 -70t-84 -130t-31 -193z" />
    <glyph glyph-name="p" unicode="p" horiz-adv-x="1239" 
d="M131 -451v1504h143v-193q63 104 164 158.5t219 54.5q71 0 139 -19.5t132 -62.5t111.5 -105.5t76.5 -155t29 -204.5q0 -138 -43.5 -246.5t-115 -172t-155.5 -95.5t-174 -32q-118 0 -219 54.5t-164 158.5v-644h-143zM274 526q0 -86 21 -157t55.5 -118t82 -79t98.5 -46.5
t106 -14.5q70 0 133 24t116 71.5t84 130t31 189.5t-31 189.5t-84 130.5t-116 72t-133 24q-69 0 -132 -24t-116 -72t-84 -130.5t-31 -189.5z" />
    <glyph glyph-name="q" unicode="q" horiz-adv-x="1239" 
d="M965 -451v644q-63 -104 -164 -158.5t-219 -54.5q-90 0 -174 32t-155.5 95.5t-115 172t-43.5 246.5q0 112 29 204.5t76.5 155t111.5 105.5t132 62.5t139 19.5q118 0 219 -54.5t164 -158.5v193h143v-1504h-143zM238 526q0 -107 31 -189.5t84 -130t116 -71.5t133 -24
q55 0 106 14.5t98.5 46.5t82 79t55.5 118t21 157q0 107 -31 189.5t-84 130.5t-116 72t-132 24q-70 0 -133 -24t-116 -72t-84 -130.5t-31 -189.5z" />
    <glyph glyph-name="r" unicode="r" horiz-adv-x="985" 
d="M131 0v1053h143v-117q95 135 279 135q150 0 250 -101t100 -284v-39l-137 -12v43q0 129 -63 194.5t-179 65.5q-111 0 -180.5 -72t-69.5 -202v-664h-143z" />
    <glyph glyph-name="s" unicode="s" horiz-adv-x="1030" 
d="M543 -20q-384 0 -457 331l141 25q57 -225 310 -225q118 0 189 45t71 133q0 78 -47.5 112.5t-165.5 57.5l-146 28q-150 30 -224.5 94.5t-74.5 190.5q0 132 103.5 216.5t269.5 84.5q120 0 218.5 -47t148.5 -133l-113 -70q-39 57 -106.5 88t-147.5 31q-114 0 -172.5 -47
t-58.5 -123q0 -67 45.5 -99t140.5 -50l145 -29q65 -13 109.5 -26.5t88 -36.5t69.5 -54t41.5 -79t15.5 -111q0 -102 -56 -173t-142.5 -102.5t-194.5 -31.5z" />
    <glyph glyph-name="t" unicode="t" horiz-adv-x="885" 
d="M489 -20q-160 0 -247.5 92t-87.5 243v611h-140v127h140v262h143v-262h416v-127h-416v-611q0 -106 52.5 -155t139.5 -49q86 0 140.5 46t85.5 142l133 -37q-39 -138 -129.5 -210t-229.5 -72z" />
    <glyph glyph-name="u" unicode="u" horiz-adv-x="1137" 
d="M269 1053v-639q0 -138 80.5 -219.5t216.5 -81.5q135 0 216 81t81 216v643h143v-1053h-143v146q-55 -78 -140.5 -122t-187.5 -44q-191 0 -300.5 116t-109.5 318v639h144z" />
    <glyph glyph-name="v" unicode="v" horiz-adv-x="1051" 
d="M457 0l-439 1053h158l356 -880l357 880h143l-438 -1053h-137z" />
    <glyph glyph-name="w" unicode="w" horiz-adv-x="1602" 
d="M375 0l-324 1053h150l256 -879l276 879h146l278 -882l256 882h137l-319 -1053h-154l-275 854l-274 -854h-153z" />
    <glyph glyph-name="x" unicode="x" horiz-adv-x="1057" 
d="M25 0l401 534l-393 519h184l311 -422l312 422h174l-393 -517l405 -536h-178l-328 441l-321 -441h-174z" />
    <glyph glyph-name="y" unicode="y" horiz-adv-x="1137" 
d="M522 -471q-368 0 -514 338l127 59q60 -136 155 -201t232 -65q158 0 245 97t87 274v114q-57 -79 -142.5 -122t-185.5 -43q-192 0 -300.5 115.5t-108.5 320.5v637h143v-637q0 -146 75 -225.5t210 -79.5q143 0 226 80t83 219v643h143v-1022q0 -234 -127 -368t-348 -134z" />
    <glyph glyph-name="z" unicode="z" horiz-adv-x="999" 
d="M98 0v117l611 805h-600v131h782v-117l-610 -805h620v-131h-803z" />
    <glyph glyph-name="braceleft" unicode="{" horiz-adv-x="692" 
d="M596 -328q-160 0 -232.5 77t-72.5 228v338q0 106 -42 145.5t-130 39.5h-78v131h78q88 0 130 39t42 145v338q0 152 72.5 228.5t232.5 76.5h109v-131h-99q-88 0 -130 -39t-42 -145v-348q0 -95 -31.5 -150t-97.5 -80q66 -24 97.5 -79.5t31.5 -149.5v-348q0 -106 42 -145.5
t130 -39.5h99v-131h-109z" />
    <glyph glyph-name="bar" unicode="|" horiz-adv-x="512" 
d="M184 -451v1987h144v-1987h-144z" />
    <glyph glyph-name="braceright" unicode="}" horiz-adv-x="692" 
d="M96 1458q160 0 232.5 -77t72.5 -228v-338q0 -106 42 -145.5t130 -39.5h78v-131h-78q-88 0 -130 -39t-42 -145v-338q0 -152 -72.5 -228.5t-232.5 -76.5h-109v131h99q88 0 130 39t42 145v348q0 95 31.5 150t97.5 80q-66 24 -97.5 79.5t-31.5 149.5v348q0 106 -42 145.5
t-130 39.5h-99v131h109z" />
    <glyph glyph-name="asciitilde" unicode="~" horiz-adv-x="872" 
d="M610 557q-49 0 -100.5 26t-87 57t-77.5 57t-75 26q-98 0 -98 -107q0 -14 1 -22l-109 -10q-2 26 -2 37q0 103 52.5 159t149.5 56q50 0 102 -26t88 -57t78.5 -57t75.5 -26q99 0 99 110q0 19 -3 40l105 9q3 -26 3 -49q0 -106 -53.5 -164.5t-148.5 -58.5z" />
    <glyph glyph-name="uni00A0" unicode="&#xa0;" horiz-adv-x="492" 
 />
    <glyph glyph-name="exclamdown" unicode="&#xa1;" horiz-adv-x="438" 
d="M292 623v-1028h-144v1028h144zM111 965q0 48 31.5 78t77.5 30q45 0 76.5 -30t31.5 -78t-31.5 -78.5t-76.5 -30.5q-46 0 -77.5 30.5t-31.5 78.5z" />
    <glyph glyph-name="cent" unicode="&#xa2;" horiz-adv-x="1147" 
d="M514 0v229q-84 13 -157.5 51t-133.5 102.5t-94.5 163.5t-34.5 222t34.5 222t94.5 163.5t133.5 103t157.5 51.5v228h143v-224q150 -13 262.5 -96.5t159.5 -236.5l-139 -41q-26 85 -81.5 142t-120 80.5t-138.5 23.5q-70 0 -132 -23t-115 -70t-84 -130t-31 -193t31 -193
t84 -130t115 -69.5t132 -22.5q75 0 140 23t120 80t80 142l139 -41q-47 -152 -159.5 -235.5t-262.5 -96.5v-225h-143z" />
    <glyph glyph-name="sterling" unicode="&#xa3;" horiz-adv-x="1247" 
d="M82 0v127h149q33 89 33 215v158h-129v127h129v397q0 228 116.5 341.5t305.5 113.5q80 0 148.5 -20t125.5 -61.5t95 -112t51 -165.5l-143 -24q-18 130 -92.5 191t-184.5 61q-127 0 -202.5 -77t-75.5 -247v-397h569v-127h-569v-158q0 -123 -34 -215h771v-127h-1063z" />
    <glyph glyph-name="currency" unicode="&#xa4;" horiz-adv-x="1026" 
d="M512 307q-100 0 -184 40l-174 -208l-95 80l169 198q-109 109 -109 285q0 174 108 284l-168 200l95 76l173 -204q86 42 185 42q103 0 188 -44l172 206l95 -76l-170 -200q108 -108 108 -284q0 -175 -108 -285l170 -198l-95 -80l-174 209q-87 -41 -186 -41zM254 702
q0 -137 75.5 -206.5t182.5 -69.5t182.5 69.5t75.5 206.5q0 94 -38.5 158t-95 90.5t-124.5 26.5q-50 0 -94.5 -16t-82 -47.5t-59.5 -86t-22 -125.5z" />
    <glyph glyph-name="yen" unicode="&#xa5;" horiz-adv-x="1253" 
d="M186 557v127h319l-493 774h172l446 -705l445 705h166l-494 -774h322v-127h-371v-78h371v-127h-371v-352h-147v352h-365v127h365v78h-365z" />
    <glyph glyph-name="brokenbar" unicode="&#xa6;" horiz-adv-x="512" 
d="M184 -451v918h144v-918h-144zM184 651v885h144v-885h-144z" />
    <glyph glyph-name="section" unicode="&#xa7;" horiz-adv-x="1362" 
d="M678 -471q-204 0 -330.5 99t-172.5 321l148 26q30 -164 118.5 -238.5t236.5 -74.5q135 0 217 67t82 185q0 98 -57.5 149t-202.5 89l-232 57q-164 42 -242.5 126t-78.5 228q0 101 54.5 181.5t152.5 125.5q-103 88 -103 250q0 157 110 258t288 101q136 0 240 -56.5
t164 -163.5l-119 -67q-47 76 -121.5 115t-163.5 39q-113 0 -182.5 -62.5t-69.5 -163.5q0 -94 55 -141.5t176 -77.5l203 -51q196 -49 278 -137.5t82 -237.5q0 -100 -49 -178.5t-134 -128.5q97 -91 97 -254q0 -182 -123.5 -283.5t-320.5 -101.5zM309 565q0 -94 53.5 -142
t176.5 -79l225 -55q81 -20 150 -50q149 77 149 234q0 99 -58 151t-204 89l-209 53q-49 13 -95 30q-87 -26 -137.5 -86.5t-50.5 -144.5z" />
    <glyph glyph-name="dieresis" unicode="&#xa8;" horiz-adv-x="1126" 
d="M375 1253q-41 0 -70 27.5t-29 71.5q0 43 29 70.5t70 27.5q42 0 70 -27t28 -71t-28 -71.5t-70 -27.5zM653 1352q0 43 28.5 70.5t70.5 27.5t70 -27t28 -71t-28 -71.5t-70 -27.5t-70.5 27.5t-28.5 71.5z" />
    <glyph glyph-name="copyright" unicode="&#xa9;" horiz-adv-x="1790" 
d="M895 -20q-173 0 -319 56t-247 155.5t-157.5 238t-56.5 299.5q0 216 96.5 386t274.5 267t409 97t409.5 -97t274.5 -267t96 -386q0 -161 -56 -299.5t-157 -238t-247 -155.5t-320 -56zM254 729q0 -277 175.5 -450t465.5 -173t465.5 173t175.5 450t-175.5 450t-465.5 173
t-465.5 -173t-175.5 -450zM479 731q0 109 35.5 195t94.5 138.5t132.5 79.5t153.5 27q143 0 250 -70.5t147 -209.5l-141 -36q-28 95 -97.5 141t-158.5 46q-114 0 -193 -77t-79 -234t79 -234t193 -77q90 0 159.5 45.5t97.5 139.5l139 -35q-39 -138 -146 -208.5t-250 -70.5
q-80 0 -153.5 27t-132.5 79.5t-94.5 138.5t-35.5 195z" />
    <glyph glyph-name="ordfeminine" unicode="&#xaa;" horiz-adv-x="1083" 
d="M463 666q-73 0 -141 25.5t-125 73.5t-91 127.5t-34 178.5q0 100 34 180t91 128.5t125 74t141 25.5q90 0 168 -38.5t129 -109.5v133h135v-600q0 -78 70 -78q36 0 78 12l33 -108q-58 -24 -120 -24q-173 0 -193 151q-51 -73 -129.5 -112t-170.5 -39zM207 1071
q0 -95 41 -161.5t101.5 -95t133.5 -28.5q115 0 196 72.5t81 212.5q0 141 -81 214t-196 73t-195.5 -73t-80.5 -214z" />
    <glyph glyph-name="guillemotleft" unicode="&#xab;" horiz-adv-x="1120" 
d="M61 514v127l476 297v-145l-356 -216l356 -215v-145zM553 514v127l476 297v-145l-356 -216l356 -215v-145z" />
    <glyph glyph-name="logicalnot" unicode="&#xac;" horiz-adv-x="954" 
d="M774 600v326h-760v127h904v-453h-144z" />
    <glyph glyph-name="uni00AD" unicode="&#xad;" horiz-adv-x="596" 
d="M61 721v127h474v-127h-474z" />
    <glyph glyph-name="registered" unicode="&#xae;" horiz-adv-x="1790" 
d="M895 -20q-173 0 -319 56t-247 155.5t-157.5 238t-56.5 299.5q0 216 96.5 386t274.5 267t409 97t409.5 -97t274.5 -267t96 -386q0 -161 -56 -299.5t-157 -238t-247 -155.5t-320 -56zM254 729q0 -277 175.5 -450t465.5 -173t465.5 173t175.5 450t-175.5 450t-465.5 173
t-465.5 -173t-175.5 -450zM573 287v884h394q116 0 194 -73t78 -193q0 -96 -51.5 -160.5t-137.5 -90.5l230 -367h-174l-214 350h-171v-350h-148zM721 766h229q63 0 102.5 38t39.5 101q0 61 -39.5 99t-102.5 38h-229v-276z" />
    <glyph glyph-name="macron" unicode="&#xaf;" horiz-adv-x="1126" 
d="M225 1315v127h678v-127h-678z" />
    <glyph glyph-name="degree" unicode="&#xb0;" horiz-adv-x="864" 
d="M432 811q-66 0 -125 22.5t-105 63.5t-73 105.5t-27 142.5q0 156 96 245t234 89q137 0 233.5 -89.5t96.5 -244.5q0 -78 -27 -142.5t-73 -105.5t-105 -63.5t-125 -22.5zM238 1145q0 -106 55.5 -160.5t138.5 -54.5q84 0 139.5 54.5t55.5 160.5q0 107 -56.5 162t-138.5 55
t-138 -55t-56 -162z" />
    <glyph glyph-name="plusminus" unicode="&#xb1;" horiz-adv-x="1065" 
d="M61 711v127h400v303h143v-303h400v-127h-400v-303h-143v303h-400zM61 203v127h943v-127h-943z" />
    <glyph glyph-name="uni00B2" unicode="&#xb2;" horiz-adv-x="825" 
d="M94 655v97l295 305q84 85 121 144.5t37 125.5q0 71 -45 110.5t-117 39.5q-130 0 -172 -144l-123 39q68 223 295 223q130 0 213.5 -71t83.5 -195q0 -38 -6.5 -72t-24 -68t-31 -57t-45 -59t-47 -52.5t-55.5 -57.5l-186 -193h448v-115h-641z" />
    <glyph glyph-name="uni00B3" unicode="&#xb3;" horiz-adv-x="870" 
d="M420 643q-149 0 -246.5 74.5t-110.5 202.5l132 24q9 -86 67 -134t158 -48q92 0 147.5 46t55.5 122q0 75 -60.5 114t-154.5 39h-89v117h89q79 0 126.5 38.5t47.5 104.5q0 60 -47 97t-123 37q-60 0 -104.5 -31t-63.5 -80l-119 39q31 88 107 139t182 51q132 0 217.5 -67.5
t85.5 -173.5q0 -74 -36.5 -126.5t-101.5 -78.5q84 -24 131.5 -80.5t47.5 -144.5q0 -127 -95 -204t-243 -77z" />
    <glyph glyph-name="acute" unicode="&#xb4;" horiz-adv-x="1126" 
d="M512 1174l86 380h156l-144 -380h-98z" />
    <glyph glyph-name="uni00B5" unicode="&#xb5;" horiz-adv-x="1137" 
d="M125 -451v1504h144v-639q0 -138 80.5 -219.5t216.5 -81.5q135 0 216 81t81 216v643h143v-1053h-143v147q-55 -78 -140.5 -122.5t-187.5 -44.5q-162 0 -267 85v-516h-143z" />
    <glyph glyph-name="paragraph" unicode="&#xb6;" horiz-adv-x="1225" 
d="M610 -20q-88 0 -161 20.5t-134 65t-100 121.5t-51 182l141 26q15 -148 92.5 -213t212.5 -65q305 0 305 348v993h146v-993q0 -134 -35.5 -231.5t-99.5 -151t-142 -78t-174 -24.5zM166 1128q0 142 93 236t251 94h301v-356q0 -131 -78 -217t-223 -86q-158 0 -251 94t-93 235
z" />
    <glyph glyph-name="periodcentered" unicode="&#xb7;" horiz-adv-x="438" 
d="M219 594q-45 0 -76.5 30t-31.5 78t31.5 78.5t76.5 30.5q46 0 77.5 -30.5t31.5 -78.5t-31.5 -78t-77.5 -30z" />
    <glyph glyph-name="cedilla" unicode="&#xb8;" horiz-adv-x="1126" 
d="M371 -381l143 381h98l-86 -381h-155z" />
    <glyph glyph-name="uni00B9" unicode="&#xb9;" horiz-adv-x="496" 
d="M201 655v811h-160l20 117h271v-928h-131z" />
    <glyph glyph-name="ordmasculine" unicode="&#xba;" horiz-adv-x="967" 
d="M483 1479q63 0 122 -15.5t111.5 -48.5t92.5 -80.5t63 -115t23 -148.5q0 -80 -23 -147t-63 -114t-92.5 -80t-111.5 -48.5t-122 -15.5q-79 0 -151.5 25.5t-131 74t-93.5 127.5t-35 178q0 100 35 180t93.5 128.5t130.5 74t152 25.5zM207 1071q0 -74 23.5 -130.5t63.5 -89.5
t87.5 -49t101.5 -16q55 0 103 16t88 49t63 89.5t23 130.5q0 60 -15.5 109t-41.5 81.5t-62 54.5t-75.5 32t-82.5 10q-54 0 -101.5 -16t-87.5 -49t-63.5 -90t-23.5 -132z" />
    <glyph glyph-name="guillemotright" unicode="&#xbb;" horiz-adv-x="1120" 
d="M1059 641v-127l-476 -297v145l356 216l-356 215v145zM91 217v145l356 216l-356 215v145l476 -297v-127z" />
    <glyph glyph-name="onequarter" unicode="&#xbc;" horiz-adv-x="1758" 
d="M201 530v811h-160l20 117h271v-928h-131zM202 0l1022 1458h165l-1021 -1458h-166zM959 213v101l475 614h127v-600h156v-115h-156v-213h-127v213h-475zM1115 328h319v414z" />
    <glyph glyph-name="onehalf" unicode="&#xbd;" horiz-adv-x="1866" 
d="M201 530v811h-160l20 117h271v-928h-131zM202 0l1022 1458h165l-1021 -1458h-166zM1131 717q68 223 295 223q130 0 213.5 -71t83.5 -195q0 -38 -6.5 -72t-24 -68t-31 -57t-45 -59t-47 -52.5t-55.5 -57.5l-186 -193h448v-115h-641v97l295 305q84 85 121 144.5t37 125.5
q0 71 -45 110.5t-117 39.5q-130 0 -172 -144z" />
    <glyph glyph-name="threequarters" unicode="&#xbe;" horiz-adv-x="2036" 
d="M420 518q-149 0 -246.5 74.5t-110.5 202.5l132 24q9 -86 67 -134t158 -48q92 0 147.5 46t55.5 122q0 75 -60.5 114t-154.5 39h-89v117h89q79 0 126.5 38.5t47.5 104.5q0 60 -47 97t-123 37q-60 0 -104.5 -31t-63.5 -80l-119 39q31 88 107 139t182 51q132 0 217.5 -67.5
t85.5 -173.5q0 -74 -36.5 -126.5t-101.5 -78.5q84 -24 131.5 -80.5t47.5 -144.5q0 -127 -95 -204t-243 -77zM480 0l1022 1458h165l-1021 -1458h-166zM1237 213v101l475 614h127v-600h156v-115h-156v-213h-127v213h-475zM1393 328h319v414z" />
    <glyph glyph-name="questiondown" unicode="&#xbf;" horiz-adv-x="975" 
d="M567 641v-51q0 -120 -38.5 -188t-151.5 -152q-91 -67 -129.5 -130t-38.5 -163q0 -112 73 -182t204 -70q129 0 202.5 70t73.5 182q0 66 -14 115l133 33q20 -61 20 -148q0 -169 -114 -276t-301 -107q-192 0 -306 106.5t-114 276.5q0 71 15.5 129t47.5 104.5t67.5 81
t86.5 72.5q59 45 86 74t41 69t14 103v51h143zM385 965q0 48 31.5 78t77.5 30q45 0 76.5 -30t31.5 -78t-31.5 -78.5t-76.5 -30.5q-46 0 -77.5 30.5t-31.5 78.5z" />
    <glyph glyph-name="Agrave" unicode="&#xc0;" horiz-adv-x="1376" 
d="M53 0l570 1458h133l567 -1458h-158l-137 358h-684l-137 -358h-154zM397 494h578l-289 754zM498 1959h155l86 -380h-98z" />
    <glyph glyph-name="Aacute" unicode="&#xc1;" horiz-adv-x="1376" 
d="M53 0l570 1458h133l567 -1458h-158l-137 358h-684l-137 -358h-154zM397 494h578l-289 754zM639 1579l86 380h156l-144 -380h-98z" />
    <glyph glyph-name="Acircumflex" unicode="&#xc2;" horiz-adv-x="1376" 
d="M53 0l570 1458h133l567 -1458h-158l-137 358h-684l-137 -358h-154zM397 494h578l-289 754zM412 1579l209 380h139l205 -380h-129l-145 287l-148 -287h-131z" />
    <glyph glyph-name="Atilde" unicode="&#xc3;" horiz-adv-x="1376" 
d="M53 0l570 1458h133l567 -1458h-158l-137 358h-684l-137 -358h-154zM369 1710q0 76 44 124t122 48q50 0 106 -25t103.5 -49.5t76.5 -24.5q31 0 48.5 20t17.5 52q0 21 -6 45l114 25q17 -48 17 -88q0 -77 -44.5 -126t-121.5 -49q-50 0 -106.5 25t-104.5 50.5t-78 25.5
q-31 0 -48 -20.5t-17 -53.5q0 -19 6 -43l-117 -22q-12 45 -12 86zM397 494h578l-289 754z" />
    <glyph glyph-name="Adieresis" unicode="&#xc4;" horiz-adv-x="1376" 
d="M53 0l570 1458h133l567 -1458h-158l-137 358h-684l-137 -358h-154zM397 494h578l-289 754zM403 1757q0 43 29 70.5t70 27.5q42 0 70 -27t28 -71t-28 -71.5t-70 -27.5q-41 0 -70 27.5t-29 71.5zM780 1757q0 43 28.5 70.5t70.5 27.5t70 -27t28 -71t-28 -71.5t-70 -27.5
t-70.5 27.5t-28.5 71.5z" />
    <glyph glyph-name="Aring" unicode="&#xc5;" horiz-adv-x="1376" 
d="M53 0l570 1458h133l567 -1458h-158l-137 358h-684l-137 -358h-154zM397 494h578l-289 754zM428 1835q0 93 71.5 155t190.5 62t190.5 -62t71.5 -155t-71.5 -155.5t-190.5 -62.5t-190.5 62.5t-71.5 155.5zM565 1835q0 -49 32 -77t91 -28t91 28t32 77q0 48 -32 76t-91 28
t-91 -28t-32 -76z" />
    <glyph glyph-name="AE" unicode="&#xc6;" horiz-adv-x="2220" 
d="M53 0l953 1458h1029v-135h-811v-500h750v-135h-750v-553h852v-135h-999v379h-613l-245 -379h-166zM546 514h531v814z" />
    <glyph glyph-name="Ccedilla" unicode="&#xc7;" horiz-adv-x="1536" 
d="M592 -381l136 363q-273 21 -443 229t-170 518q0 161 49.5 300t136.5 238t212 155.5t271 56.5q232 0 390 -124t225 -337l-137 -39q-55 168 -177 266t-301 98q-234 0 -378 -170.5t-144 -443.5t144 -443.5t378 -170.5q179 0 302.5 99t177.5 269l135 -41
q-62 -203 -208.5 -326t-361.5 -135l-82 -362h-155z" />
    <glyph glyph-name="Egrave" unicode="&#xc8;" horiz-adv-x="1307" 
d="M164 0v1458h958v-135h-811v-500h750v-135h-750v-553h852v-135h-999zM459 1959h155l86 -380h-98z" />
    <glyph glyph-name="Eacute" unicode="&#xc9;" horiz-adv-x="1307" 
d="M164 0v1458h958v-135h-811v-500h750v-135h-750v-553h852v-135h-999zM600 1579l86 380h156l-144 -380h-98z" />
    <glyph glyph-name="Ecircumflex" unicode="&#xca;" horiz-adv-x="1307" 
d="M164 0v1458h958v-135h-811v-500h750v-135h-750v-553h852v-135h-999zM373 1579l209 380h139l205 -380h-129l-145 287l-148 -287h-131z" />
    <glyph glyph-name="Edieresis" unicode="&#xcb;" horiz-adv-x="1307" 
d="M164 0v1458h958v-135h-811v-500h750v-135h-750v-553h852v-135h-999zM364 1757q0 43 29 70.5t70 27.5q42 0 70 -27t28 -71t-28 -71.5t-70 -27.5q-41 0 -70 27.5t-29 71.5zM741 1757q0 43 28.5 70.5t70.5 27.5t70 -27t28 -71t-28 -71.5t-70 -27.5t-70.5 27.5t-28.5 71.5z
" />
    <glyph glyph-name="Igrave" unicode="&#xcc;" horiz-adv-x="475" 
d="M164 0v1458h147v-1458h-147zM46 1959h155l86 -380h-98z" />
    <glyph glyph-name="Iacute" unicode="&#xcd;" horiz-adv-x="475" 
d="M164 0v1458h147v-1458h-147zM187 1579l86 380h156l-144 -380h-98z" />
    <glyph glyph-name="Icircumflex" unicode="&#xce;" horiz-adv-x="475" 
d="M164 0v1458h147v-1458h-147zM-40 1579l209 380h139l205 -380h-129l-145 287l-148 -287h-131z" />
    <glyph glyph-name="Idieresis" unicode="&#xcf;" horiz-adv-x="475" 
d="M164 0v1458h147v-1458h-147zM-49 1757q0 43 29 70.5t70 27.5q42 0 70 -27t28 -71t-28 -71.5t-70 -27.5q-41 0 -70 27.5t-29 71.5zM328 1757q0 43 28.5 70.5t70.5 27.5t70 -27t28 -71t-28 -71.5t-70 -27.5t-70.5 27.5t-28.5 71.5z" />
    <glyph glyph-name="Eth" unicode="&#xd0;" horiz-adv-x="1427" 
d="M164 0v662h-211v135h211v661h510q142 0 262 -55t203 -151t129.5 -231t46.5 -292t-46.5 -292t-129.5 -231t-203 -151t-262 -55h-510zM311 135h363q225 0 359 164.5t134 429.5t-134 429.5t-359 164.5h-363v-526h320v-135h-320v-527z" />
    <glyph glyph-name="Ntilde" unicode="&#xd1;" horiz-adv-x="1458" 
d="M164 0v1458h127l858 -1181v1181h145v-1458h-125l-860 1184v-1184h-145zM404 1710q0 76 44 124t122 48q50 0 106 -25t103.5 -49.5t76.5 -24.5q31 0 48.5 20t17.5 52q0 21 -6 45l114 25q17 -48 17 -88q0 -77 -44.5 -126t-121.5 -49q-50 0 -106.5 25t-104.5 50.5t-78 25.5
q-31 0 -48 -20.5t-17 -53.5q0 -19 6 -43l-117 -22q-12 45 -12 86z" />
    <glyph glyph-name="Ograve" unicode="&#xd2;" horiz-adv-x="1548" 
d="M774 -20q-194 0 -345 96.5t-232.5 266.5t-81.5 386q0 161 48 300t133 238t208.5 155.5t269.5 56.5q194 0 345 -96.5t233 -267t82 -386.5q0 -215 -82 -385.5t-233 -267t-345 -96.5zM262 729q0 -274 139.5 -444t372.5 -170t372.5 170t139.5 444t-139.5 444t-372.5 170
t-372.5 -170t-139.5 -444zM582 1959h155l86 -380h-98z" />
    <glyph glyph-name="Oacute" unicode="&#xd3;" horiz-adv-x="1548" 
d="M774 -20q-194 0 -345 96.5t-232.5 266.5t-81.5 386q0 161 48 300t133 238t208.5 155.5t269.5 56.5q194 0 345 -96.5t233 -267t82 -386.5q0 -215 -82 -385.5t-233 -267t-345 -96.5zM262 729q0 -274 139.5 -444t372.5 -170t372.5 170t139.5 444t-139.5 444t-372.5 170
t-372.5 -170t-139.5 -444zM723 1579l86 380h156l-144 -380h-98z" />
    <glyph glyph-name="Ocircumflex" unicode="&#xd4;" horiz-adv-x="1548" 
d="M774 -20q-194 0 -345 96.5t-232.5 266.5t-81.5 386q0 161 48 300t133 238t208.5 155.5t269.5 56.5q194 0 345 -96.5t233 -267t82 -386.5q0 -215 -82 -385.5t-233 -267t-345 -96.5zM262 729q0 -274 139.5 -444t372.5 -170t372.5 170t139.5 444t-139.5 444t-372.5 170
t-372.5 -170t-139.5 -444zM496 1579l209 380h139l205 -380h-129l-145 287l-148 -287h-131z" />
    <glyph glyph-name="Otilde" unicode="&#xd5;" horiz-adv-x="1548" 
d="M774 -20q-194 0 -345 96.5t-232.5 266.5t-81.5 386q0 161 48 300t133 238t208.5 155.5t269.5 56.5q194 0 345 -96.5t233 -267t82 -386.5q0 -215 -82 -385.5t-233 -267t-345 -96.5zM262 729q0 -274 139.5 -444t372.5 -170t372.5 170t139.5 444t-139.5 444t-372.5 170
t-372.5 -170t-139.5 -444zM453 1710q0 76 44 124t122 48q50 0 106 -25t103.5 -49.5t76.5 -24.5q31 0 48.5 20t17.5 52q0 21 -6 45l114 25q17 -48 17 -88q0 -77 -44.5 -126t-121.5 -49q-50 0 -106.5 25t-104.5 50.5t-78 25.5q-31 0 -48 -20.5t-17 -53.5q0 -19 6 -43l-117 -22
q-12 45 -12 86z" />
    <glyph glyph-name="Odieresis" unicode="&#xd6;" horiz-adv-x="1548" 
d="M774 -20q-194 0 -345 96.5t-232.5 266.5t-81.5 386q0 161 48 300t133 238t208.5 155.5t269.5 56.5q194 0 345 -96.5t233 -267t82 -386.5q0 -215 -82 -385.5t-233 -267t-345 -96.5zM262 729q0 -274 139.5 -444t372.5 -170t372.5 170t139.5 444t-139.5 444t-372.5 170
t-372.5 -170t-139.5 -444zM487 1757q0 43 29 70.5t70 27.5q42 0 70 -27t28 -71t-28 -71.5t-70 -27.5q-41 0 -70 27.5t-29 71.5zM864 1757q0 43 28.5 70.5t70.5 27.5t70 -27t28 -71t-28 -71.5t-70 -27.5t-70.5 27.5t-28.5 71.5z" />
    <glyph glyph-name="multiply" unicode="&#xd7;" horiz-adv-x="834" 
d="M109 293l-95 94l285 285l-285 284l95 95l284 -285l285 285l94 -95l-285 -284l285 -285l-94 -94l-285 285z" />
    <glyph glyph-name="Oslash" unicode="&#xd8;" horiz-adv-x="1544" 
d="M213 -14l-96 82l142 171q-144 200 -144 490q0 161 48 300t133 238t208.5 155.5t269.5 56.5q253 0 428 -161l129 155l99 -82l-143 -168q147 -202 147 -494q0 -215 -82 -385.5t-233 -267t-345 -96.5q-256 0 -431 164zM262 729q0 -230 101 -390l739 882q-133 122 -328 122
q-233 0 -372.5 -170t-139.5 -444zM443 240q134 -125 331 -125q233 0 372.5 170t139.5 444q0 234 -102 393z" />
    <glyph glyph-name="Ugrave" unicode="&#xd9;" horiz-adv-x="1438" 
d="M719 -20q-240 0 -397.5 156t-157.5 392v930h147v-930q0 -187 109.5 -300t298.5 -113t298 113t109 300v930h148v-930q0 -236 -158 -392t-397 -156zM527 1959h155l86 -380h-98z" />
    <glyph glyph-name="Uacute" unicode="&#xda;" horiz-adv-x="1438" 
d="M719 -20q-240 0 -397.5 156t-157.5 392v930h147v-930q0 -187 109.5 -300t298.5 -113t298 113t109 300v930h148v-930q0 -236 -158 -392t-397 -156zM668 1579l86 380h156l-144 -380h-98z" />
    <glyph glyph-name="Ucircumflex" unicode="&#xdb;" horiz-adv-x="1438" 
d="M719 -20q-240 0 -397.5 156t-157.5 392v930h147v-930q0 -187 109.5 -300t298.5 -113t298 113t109 300v930h148v-930q0 -236 -158 -392t-397 -156zM441 1579l209 380h139l205 -380h-129l-145 287l-148 -287h-131z" />
    <glyph glyph-name="Udieresis" unicode="&#xdc;" horiz-adv-x="1438" 
d="M719 -20q-240 0 -397.5 156t-157.5 392v930h147v-930q0 -187 109.5 -300t298.5 -113t298 113t109 300v930h148v-930q0 -236 -158 -392t-397 -156zM432 1757q0 43 29 70.5t70 27.5q42 0 70 -27t28 -71t-28 -71.5t-70 -27.5q-41 0 -70 27.5t-29 71.5zM809 1757
q0 43 28.5 70.5t70.5 27.5t70 -27t28 -71t-28 -71.5t-70 -27.5t-70.5 27.5t-28.5 71.5z" />
    <glyph glyph-name="Yacute" unicode="&#xdd;" horiz-adv-x="1253" 
d="M551 0v611l-539 847h172l446 -705l445 705h166l-543 -850v-608h-147zM574 1579l86 380h156l-144 -380h-98z" />
    <glyph glyph-name="Thorn" unicode="&#xde;" horiz-adv-x="1360" 
d="M164 0v1458h147v-225h453q122 0 225 -54.5t165.5 -157.5t62.5 -233q0 -129 -62.5 -232t-165.5 -157.5t-225 -54.5h-453v-344h-147zM311 479h455q133 0 218 85.5t85 223.5q0 139 -85 224.5t-218 85.5h-455v-619z" />
    <glyph glyph-name="germandbls" unicode="&#xdf;" horiz-adv-x="1221" 
d="M641 -20q-122 0 -235 29l30 124q98 -27 205 -27q159 0 250.5 87.5t91.5 242.5q0 152 -105 228.5t-296 76.5h-43v127h41q120 0 210.5 83.5t90.5 207.5q0 134 -82.5 214.5t-223.5 80.5q-133 0 -214.5 -81.5t-81.5 -244.5v-1128h-140v1128q0 212 116.5 332.5t319.5 120.5
q205 0 327 -119.5t122 -302.5q0 -104 -55.5 -192.5t-152.5 -140.5q310 -79 310 -390q0 -95 -26 -172.5t-71 -129.5t-107 -87.5t-132 -51t-149 -15.5z" />
    <glyph glyph-name="agrave" unicode="&#xe0;" horiz-adv-x="1075" 
d="M444 -20q-140 0 -234.5 76.5t-94.5 215.5q0 50 12.5 90.5t38.5 70.5t53.5 51.5t72 40t78.5 29.5t87 26l350 93q-6 127 -86.5 198t-194.5 71q-108 0 -178.5 -45.5t-134.5 -151.5l-115 64q140 264 434 264q189 0 303.5 -107t114.5 -313v-653h-143v157q-63 -87 -160 -132
t-203 -45zM258 274q0 -83 54.5 -123t142.5 -40q59 0 117 15t112.5 46.5t88.5 90t34 136.5v149l-334 -89q-104 -28 -159.5 -68t-55.5 -117zM340 1554h155l86 -380h-98z" />
    <glyph glyph-name="aacute" unicode="&#xe1;" horiz-adv-x="1075" 
d="M444 -20q-140 0 -234.5 76.5t-94.5 215.5q0 50 12.5 90.5t38.5 70.5t53.5 51.5t72 40t78.5 29.5t87 26l350 93q-6 127 -86.5 198t-194.5 71q-108 0 -178.5 -45.5t-134.5 -151.5l-115 64q140 264 434 264q189 0 303.5 -107t114.5 -313v-653h-143v157q-63 -87 -160 -132
t-203 -45zM258 274q0 -83 54.5 -123t142.5 -40q59 0 117 15t112.5 46.5t88.5 90t34 136.5v149l-334 -89q-104 -28 -159.5 -68t-55.5 -117zM481 1174l86 380h156l-144 -380h-98z" />
    <glyph glyph-name="acircumflex" unicode="&#xe2;" horiz-adv-x="1075" 
d="M444 -20q-140 0 -234.5 76.5t-94.5 215.5q0 50 12.5 90.5t38.5 70.5t53.5 51.5t72 40t78.5 29.5t87 26l350 93q-6 127 -86.5 198t-194.5 71q-108 0 -178.5 -45.5t-134.5 -151.5l-115 64q140 264 434 264q189 0 303.5 -107t114.5 -313v-653h-143v157q-63 -87 -160 -132
t-203 -45zM254 1174l209 380h139l205 -380h-129l-145 287l-148 -287h-131zM258 274q0 -83 54.5 -123t142.5 -40q59 0 117 15t112.5 46.5t88.5 90t34 136.5v149l-334 -89q-104 -28 -159.5 -68t-55.5 -117z" />
    <glyph glyph-name="atilde" unicode="&#xe3;" horiz-adv-x="1075" 
d="M444 -20q-140 0 -234.5 76.5t-94.5 215.5q0 50 12.5 90.5t38.5 70.5t53.5 51.5t72 40t78.5 29.5t87 26l350 93q-6 127 -86.5 198t-194.5 71q-108 0 -178.5 -45.5t-134.5 -151.5l-115 64q140 264 434 264q189 0 303.5 -107t114.5 -313v-653h-143v157q-63 -87 -160 -132
t-203 -45zM211 1305q0 76 44 124t122 48q39 0 83 -15.5t76 -34t67.5 -34t59.5 -15.5q31 0 48.5 20t17.5 52q0 21 -6 45l114 25q17 -48 17 -88q0 -77 -44.5 -126t-121.5 -49q-50 0 -106.5 25.5t-104.5 50.5t-78 25q-31 0 -48 -20.5t-17 -53.5q0 -19 6 -43l-117 -22
q-12 45 -12 86zM258 274q0 -83 54.5 -123t142.5 -40q59 0 117 15t112.5 46.5t88.5 90t34 136.5v149l-334 -89q-104 -28 -159.5 -68t-55.5 -117z" />
    <glyph glyph-name="adieresis" unicode="&#xe4;" horiz-adv-x="1075" 
d="M444 -20q-140 0 -234.5 76.5t-94.5 215.5q0 50 12.5 90.5t38.5 70.5t53.5 51.5t72 40t78.5 29.5t87 26l350 93q-6 127 -86.5 198t-194.5 71q-108 0 -178.5 -45.5t-134.5 -151.5l-115 64q140 264 434 264q189 0 303.5 -107t114.5 -313v-653h-143v157q-63 -87 -160 -132
t-203 -45zM245 1352q0 43 29 70.5t70 27.5q42 0 70 -27t28 -71t-28 -71.5t-70 -27.5q-41 0 -70 27.5t-29 71.5zM258 274q0 -83 54.5 -123t142.5 -40q59 0 117 15t112.5 46.5t88.5 90t34 136.5v149l-334 -89q-104 -28 -159.5 -68t-55.5 -117zM622 1352q0 43 28.5 70.5
t70.5 27.5t70 -27t28 -71t-28 -71.5t-70 -27.5t-70.5 27.5t-28.5 71.5z" />
    <glyph glyph-name="aring" unicode="&#xe5;" horiz-adv-x="1075" 
d="M444 -20q-140 0 -234.5 76.5t-94.5 215.5q0 50 12.5 90.5t38.5 70.5t53.5 51.5t72 40t78.5 29.5t87 26l350 93q-6 127 -86.5 198t-194.5 71q-108 0 -178.5 -45.5t-134.5 -151.5l-115 64q140 264 434 264q189 0 303.5 -107t114.5 -313v-653h-143v157q-63 -87 -160 -132
t-203 -45zM258 274q0 -83 54.5 -123t142.5 -40q59 0 117 15t112.5 46.5t88.5 90t34 136.5v149l-334 -89q-104 -28 -159.5 -68t-55.5 -117zM270 1430q0 93 71.5 155t190.5 62t190.5 -62t71.5 -155t-71.5 -155.5t-190.5 -62.5t-190.5 62.5t-71.5 155.5zM407 1430q0 -49 32 -77
t91 -28t91 28t32 77q0 48 -32 76t-91 28t-91 -28t-32 -76z" />
    <glyph glyph-name="ae" unicode="&#xe6;" horiz-adv-x="1901" 
d="M1319 -20q-147 0 -262 65t-174 197q-33 -87 -103 -148t-150.5 -87.5t-166.5 -26.5q-152 0 -250 74t-98 206q0 57 20 102.5t48.5 74t79 53.5t90.5 38.5t104 30.5l350 93v1q0 136 -81.5 212.5t-203.5 76.5q-105 0 -175 -45.5t-134 -151.5l-115 64q140 264 434 264
q134 0 228.5 -61.5t136.5 -175.5q63 119 176.5 178t257.5 59q100 0 183.5 -30.5t150 -92t104 -164.5t37.5 -239v-41h-856q3 -104 35.5 -182.5t85.5 -123.5t115 -67t131 -22q123 0 207.5 45t154.5 151l107 -69q-156 -258 -467 -258zM258 262q0 -75 56.5 -113t150.5 -38
q63 0 120 15t108.5 46.5t82.5 90t31 136.5v128l-334 -89q-49 -13 -83.5 -26t-66.5 -33.5t-48.5 -49.5t-16.5 -67zM959 631h702q-19 160 -107.5 235.5t-226.5 75.5q-62 0 -119.5 -17.5t-109 -53t-88.5 -97t-51 -143.5z" />
    <glyph glyph-name="ccedilla" unicode="&#xe7;" horiz-adv-x="1157" 
d="M392 -381l137 365q-86 11 -162 48.5t-138.5 102t-98.5 165t-36 226.5q0 112 29 204.5t78 155t114.5 105.5t137 62.5t147.5 19.5q109 0 202 -34.5t168 -111.5t109 -190l-139 -41q-26 85 -81.5 142t-120 80.5t-138.5 23.5q-70 0 -132 -23t-115 -70t-84 -130t-31 -193
t31 -193t84 -130t115 -69.5t132 -22.5q75 0 140 23t120 80t80 142l139 -41q-49 -159 -170 -243t-280 -91l-82 -362h-155z" />
    <glyph glyph-name="egrave" unicode="&#xe8;" horiz-adv-x="1188" 
d="M602 -20q-76 0 -148 19.5t-138 62.5t-115 105t-78 154.5t-29 204.5t30.5 204.5t81 155t118 105.5t140.5 62.5t150 19.5q101 0 186 -30.5t152 -92t104.5 -164.5t37.5 -239v-41h-856q3 -104 35.5 -182.5t85 -123.5t114.5 -67t131 -22q122 0 206 46t155 152l108 -71
q-155 -258 -471 -258zM247 631h701q-19 160 -107.5 235.5t-226.5 75.5q-62 0 -119.5 -17.5t-108.5 -53t-88 -97t-51 -143.5zM422 1554h155l86 -380h-98z" />
    <glyph glyph-name="eacute" unicode="&#xe9;" horiz-adv-x="1188" 
d="M602 -20q-76 0 -148 19.5t-138 62.5t-115 105t-78 154.5t-29 204.5t30.5 204.5t81 155t118 105.5t140.5 62.5t150 19.5q101 0 186 -30.5t152 -92t104.5 -164.5t37.5 -239v-41h-856q3 -104 35.5 -182.5t85 -123.5t114.5 -67t131 -22q122 0 206 46t155 152l108 -71
q-155 -258 -471 -258zM247 631h701q-19 160 -107.5 235.5t-226.5 75.5q-62 0 -119.5 -17.5t-108.5 -53t-88 -97t-51 -143.5zM563 1174l86 380h156l-144 -380h-98z" />
    <glyph glyph-name="ecircumflex" unicode="&#xea;" horiz-adv-x="1188" 
d="M602 -20q-76 0 -148 19.5t-138 62.5t-115 105t-78 154.5t-29 204.5t30.5 204.5t81 155t118 105.5t140.5 62.5t150 19.5q101 0 186 -30.5t152 -92t104.5 -164.5t37.5 -239v-41h-856q3 -104 35.5 -182.5t85 -123.5t114.5 -67t131 -22q122 0 206 46t155 152l108 -71
q-155 -258 -471 -258zM247 631h701q-19 160 -107.5 235.5t-226.5 75.5q-62 0 -119.5 -17.5t-108.5 -53t-88 -97t-51 -143.5zM336 1174l209 380h139l205 -380h-129l-145 287l-148 -287h-131z" />
    <glyph glyph-name="edieresis" unicode="&#xeb;" horiz-adv-x="1188" 
d="M602 -20q-76 0 -148 19.5t-138 62.5t-115 105t-78 154.5t-29 204.5t30.5 204.5t81 155t118 105.5t140.5 62.5t150 19.5q101 0 186 -30.5t152 -92t104.5 -164.5t37.5 -239v-41h-856q3 -104 35.5 -182.5t85 -123.5t114.5 -67t131 -22q122 0 206 46t155 152l108 -71
q-155 -258 -471 -258zM247 631h701q-19 160 -107.5 235.5t-226.5 75.5q-62 0 -119.5 -17.5t-108.5 -53t-88 -97t-51 -143.5zM327 1352q0 43 29 70.5t70 27.5q42 0 70 -27t28 -71t-28 -71.5t-70 -27.5q-41 0 -70 27.5t-29 71.5zM704 1352q0 43 28.5 70.5t70.5 27.5t70 -27
t28 -71t-28 -71.5t-70 -27.5t-70.5 27.5t-28.5 71.5z" />
    <glyph glyph-name="igrave" unicode="&#xec;" horiz-adv-x="438" 
d="M147 0v1053h144v-1053h-144zM27 1554h155l86 -380h-98z" />
    <glyph glyph-name="iacute" unicode="&#xed;" horiz-adv-x="438" 
d="M147 0v1053h144v-1053h-144zM168 1174l86 380h156l-144 -380h-98z" />
    <glyph glyph-name="icircumflex" unicode="&#xee;" horiz-adv-x="438" 
d="M147 0v1053h144v-1053h-144zM-59 1174l209 380h139l205 -380h-129l-145 287l-148 -287h-131z" />
    <glyph glyph-name="idieresis" unicode="&#xef;" horiz-adv-x="438" 
d="M147 0v1053h144v-1053h-144zM-68 1352q0 43 29 70.5t70 27.5q42 0 70 -27t28 -71t-28 -71.5t-70 -27.5q-41 0 -70 27.5t-29 71.5zM309 1352q0 43 28.5 70.5t70.5 27.5t70 -27t28 -71t-28 -71.5t-70 -27.5t-70.5 27.5t-28.5 71.5z" />
    <glyph glyph-name="eth" unicode="&#xf0;" horiz-adv-x="1190" 
d="M563 -20q-85 0 -167 30t-150 86.5t-110 150t-42 208.5t42 208t110.5 150t151 87t169.5 30q116 0 214.5 -45.5t158.5 -133.5q-34 332 -300 509l-431 -185l-53 123l332 142q-149 60 -332 85l24 131q270 -33 473 -146l336 144l53 -122l-258 -111q312 -252 312 -717
q0 -137 -27.5 -244.5t-75 -178t-116 -116.5t-145.5 -65.5t-169 -19.5zM238 455q0 -87 29.5 -154.5t79 -108t109.5 -61t126 -20.5q67 0 127 20.5t110 61t79.5 108t29.5 154.5q0 86 -29.5 154t-79.5 108.5t-110 61t-127 20.5q-66 0 -126 -20.5t-109.5 -61t-79 -108.5
t-29.5 -154z" />
    <glyph glyph-name="ntilde" unicode="&#xf1;" horiz-adv-x="1137" 
d="M868 0v639q0 138 -80.5 219.5t-216.5 81.5q-135 0 -216 -81t-81 -216v-643h-143v1053h143v-146q55 78 140.5 122t187.5 44q191 0 300.5 -116t109.5 -318v-639h-144zM238 1305q0 76 44 124t122 48q39 0 83 -15.5t76 -34t67.5 -34t59.5 -15.5q31 0 48.5 20t17.5 52
q0 21 -6 45l114 25q17 -48 17 -88q0 -77 -44.5 -126t-121.5 -49q-50 0 -106.5 25.5t-104.5 50.5t-78 25q-31 0 -48 -20.5t-17 -53.5q0 -19 6 -43l-117 -22q-12 45 -12 86z" />
    <glyph glyph-name="ograve" unicode="&#xf2;" horiz-adv-x="1202" 
d="M600 -20q-76 0 -147.5 19.5t-137 62.5t-114.5 105t-78 154.5t-29 204.5t29 204.5t78 155t114.5 105.5t137 62.5t147.5 19.5t147.5 -19.5t137.5 -62.5t115 -105.5t78.5 -155t29.5 -204.5t-29.5 -204.5t-78.5 -154.5t-115 -105t-137.5 -62.5t-147.5 -19.5zM238 526
q0 -110 31 -193t84 -130t115 -69.5t132 -22.5q56 0 107 13.5t99 45t82.5 78.5t55.5 118t21 160q0 110 -31 193t-84.5 130t-116 70t-133.5 23q-70 0 -132 -23t-115 -70t-84 -130t-31 -193zM410 1554h155l86 -380h-98z" />
    <glyph glyph-name="oacute" unicode="&#xf3;" horiz-adv-x="1202" 
d="M600 -20q-76 0 -147.5 19.5t-137 62.5t-114.5 105t-78 154.5t-29 204.5t29 204.5t78 155t114.5 105.5t137 62.5t147.5 19.5t147.5 -19.5t137.5 -62.5t115 -105.5t78.5 -155t29.5 -204.5t-29.5 -204.5t-78.5 -154.5t-115 -105t-137.5 -62.5t-147.5 -19.5zM238 526
q0 -110 31 -193t84 -130t115 -69.5t132 -22.5q56 0 107 13.5t99 45t82.5 78.5t55.5 118t21 160q0 110 -31 193t-84.5 130t-116 70t-133.5 23q-70 0 -132 -23t-115 -70t-84 -130t-31 -193zM551 1174l86 380h156l-144 -380h-98z" />
    <glyph glyph-name="ocircumflex" unicode="&#xf4;" horiz-adv-x="1202" 
d="M600 -20q-76 0 -147.5 19.5t-137 62.5t-114.5 105t-78 154.5t-29 204.5t29 204.5t78 155t114.5 105.5t137 62.5t147.5 19.5t147.5 -19.5t137.5 -62.5t115 -105.5t78.5 -155t29.5 -204.5t-29.5 -204.5t-78.5 -154.5t-115 -105t-137.5 -62.5t-147.5 -19.5zM238 526
q0 -110 31 -193t84 -130t115 -69.5t132 -22.5q56 0 107 13.5t99 45t82.5 78.5t55.5 118t21 160q0 110 -31 193t-84.5 130t-116 70t-133.5 23q-70 0 -132 -23t-115 -70t-84 -130t-31 -193zM324 1174l209 380h139l205 -380h-129l-145 287l-148 -287h-131z" />
    <glyph glyph-name="otilde" unicode="&#xf5;" horiz-adv-x="1202" 
d="M600 -20q-76 0 -147.5 19.5t-137 62.5t-114.5 105t-78 154.5t-29 204.5t29 204.5t78 155t114.5 105.5t137 62.5t147.5 19.5t147.5 -19.5t137.5 -62.5t115 -105.5t78.5 -155t29.5 -204.5t-29.5 -204.5t-78.5 -154.5t-115 -105t-137.5 -62.5t-147.5 -19.5zM238 526
q0 -110 31 -193t84 -130t115 -69.5t132 -22.5q56 0 107 13.5t99 45t82.5 78.5t55.5 118t21 160q0 110 -31 193t-84.5 130t-116 70t-133.5 23q-70 0 -132 -23t-115 -70t-84 -130t-31 -193zM281 1305q0 76 44 124t122 48q39 0 83 -15.5t76 -34t67.5 -34t59.5 -15.5
q31 0 48.5 20t17.5 52q0 21 -6 45l114 25q17 -48 17 -88q0 -77 -44.5 -126t-121.5 -49q-50 0 -106.5 25.5t-104.5 50.5t-78 25q-31 0 -48 -20.5t-17 -53.5q0 -19 6 -43l-117 -22q-12 45 -12 86z" />
    <glyph glyph-name="odieresis" unicode="&#xf6;" horiz-adv-x="1202" 
d="M600 -20q-76 0 -147.5 19.5t-137 62.5t-114.5 105t-78 154.5t-29 204.5t29 204.5t78 155t114.5 105.5t137 62.5t147.5 19.5t147.5 -19.5t137.5 -62.5t115 -105.5t78.5 -155t29.5 -204.5t-29.5 -204.5t-78.5 -154.5t-115 -105t-137.5 -62.5t-147.5 -19.5zM238 526
q0 -110 31 -193t84 -130t115 -69.5t132 -22.5q56 0 107 13.5t99 45t82.5 78.5t55.5 118t21 160q0 110 -31 193t-84.5 130t-116 70t-133.5 23q-70 0 -132 -23t-115 -70t-84 -130t-31 -193zM315 1352q0 43 29 70.5t70 27.5q42 0 70 -27t28 -71t-28 -71.5t-70 -27.5
q-41 0 -70 27.5t-29 71.5zM692 1352q0 43 28.5 70.5t70.5 27.5t70 -27t28 -71t-28 -71.5t-70 -27.5t-70.5 27.5t-28.5 71.5z" />
    <glyph glyph-name="divide" unicode="&#xf7;" horiz-adv-x="1065" 
d="M532 990q-45 0 -76.5 30t-31.5 78t31.5 78.5t76.5 30.5q46 0 77.5 -30.5t31.5 -78.5t-31.5 -78t-77.5 -30zM61 608v127h943v-127h-943zM424 217q0 48 31.5 78.5t76.5 30.5q46 0 77.5 -30.5t31.5 -78.5t-31.5 -78t-77.5 -30q-45 0 -76.5 30t-31.5 78z" />
    <glyph glyph-name="oslash" unicode="&#xf8;" horiz-adv-x="1182" 
d="M213 -14l-96 82l83 101q-106 140 -106 357q0 112 29 204.5t78 155t114.5 105.5t137 62.5t147.5 19.5q165 0 294 -88l73 88l98 -82l-78 -90q121 -144 121 -375q0 -112 -29.5 -204.5t-78.5 -154.5t-115 -105t-137.5 -62.5t-147.5 -19.5q-180 0 -310 100zM238 526
q0 -159 65 -261l500 621q-88 56 -203 56q-70 0 -132 -23t-115 -70t-84 -130t-31 -193zM381 180q92 -69 219 -69q56 0 107 13.5t99 45t82.5 78.5t55.5 118t21 160q0 174 -78 281z" />
    <glyph glyph-name="ugrave" unicode="&#xf9;" horiz-adv-x="1137" 
d="M269 1053v-639q0 -138 80.5 -219.5t216.5 -81.5q135 0 216 81t81 216v643h143v-1053h-143v146q-55 -78 -140.5 -122t-187.5 -44q-191 0 -300.5 116t-109.5 318v639h144zM373 1554h155l86 -380h-98z" />
    <glyph glyph-name="uacute" unicode="&#xfa;" horiz-adv-x="1137" 
d="M269 1053v-639q0 -138 80.5 -219.5t216.5 -81.5q135 0 216 81t81 216v643h143v-1053h-143v146q-55 -78 -140.5 -122t-187.5 -44q-191 0 -300.5 116t-109.5 318v639h144zM514 1174l86 380h156l-144 -380h-98z" />
    <glyph glyph-name="ucircumflex" unicode="&#xfb;" horiz-adv-x="1137" 
d="M269 1053v-639q0 -138 80.5 -219.5t216.5 -81.5q135 0 216 81t81 216v643h143v-1053h-143v146q-55 -78 -140.5 -122t-187.5 -44q-191 0 -300.5 116t-109.5 318v639h144zM287 1174l209 380h139l205 -380h-129l-145 287l-148 -287h-131z" />
    <glyph glyph-name="udieresis" unicode="&#xfc;" horiz-adv-x="1137" 
d="M269 1053v-639q0 -138 80.5 -219.5t216.5 -81.5q135 0 216 81t81 216v643h143v-1053h-143v146q-55 -78 -140.5 -122t-187.5 -44q-191 0 -300.5 116t-109.5 318v639h144zM278 1352q0 43 29 70.5t70 27.5q42 0 70 -27t28 -71t-28 -71.5t-70 -27.5q-41 0 -70 27.5t-29 71.5z
M655 1352q0 43 28.5 70.5t70.5 27.5t70 -27t28 -71t-28 -71.5t-70 -27.5t-70.5 27.5t-28.5 71.5z" />
    <glyph glyph-name="yacute" unicode="&#xfd;" horiz-adv-x="1137" 
d="M522 -471q-368 0 -514 338l127 59q60 -136 155 -201t232 -65q158 0 245 97t87 274v114q-57 -79 -142.5 -122t-185.5 -43q-192 0 -300.5 115.5t-108.5 320.5v637h143v-637q0 -146 75 -225.5t210 -79.5q143 0 226 80t83 219v643h143v-1022q0 -234 -127 -368t-348 -134z
M527 1174l86 380h156l-144 -380h-98z" />
    <glyph glyph-name="thorn" unicode="&#xfe;" horiz-adv-x="1239" 
d="M131 -451v1987h143v-676q63 104 164 158.5t219 54.5q71 0 139 -19.5t132 -62.5t111.5 -105.5t76.5 -155t29 -204.5q0 -138 -43.5 -246.5t-115 -172t-155.5 -95.5t-174 -32q-118 0 -219 54.5t-164 158.5v-644h-143zM274 526q0 -86 21 -157t55.5 -118t82 -79t98.5 -46.5
t106 -14.5q70 0 133 24t116 71.5t84 130t31 189.5t-31 189.5t-84 130.5t-116 72t-133 24q-69 0 -132 -24t-116 -72t-84 -130.5t-31 -189.5z" />
    <glyph glyph-name="ydieresis" unicode="&#xff;" horiz-adv-x="1137" 
d="M522 -471q-368 0 -514 338l127 59q60 -136 155 -201t232 -65q158 0 245 97t87 274v114q-57 -79 -142.5 -122t-185.5 -43q-192 0 -300.5 115.5t-108.5 320.5v637h143v-637q0 -146 75 -225.5t210 -79.5q143 0 226 80t83 219v643h143v-1022q0 -234 -127 -368t-348 -134z
M291 1352q0 43 29 70.5t70 27.5q42 0 70 -27t28 -71t-28 -71.5t-70 -27.5q-41 0 -70 27.5t-29 71.5zM668 1352q0 43 28.5 70.5t70.5 27.5t70 -27t28 -71t-28 -71.5t-70 -27.5t-70.5 27.5t-28.5 71.5z" />
    <glyph glyph-name="Amacron" unicode="&#x100;" horiz-adv-x="1376" 
d="M53 0l570 1458h133l567 -1458h-158l-137 358h-684l-137 -358h-154zM352 1720v127h678v-127h-678zM397 494h578l-289 754z" />
    <glyph glyph-name="amacron" unicode="&#x101;" horiz-adv-x="1075" 
d="M444 -20q-140 0 -234.5 76.5t-94.5 215.5q0 50 12.5 90.5t38.5 70.5t53.5 51.5t72 40t78.5 29.5t87 26l350 93q-6 127 -86.5 198t-194.5 71q-108 0 -178.5 -45.5t-134.5 -151.5l-115 64q140 264 434 264q189 0 303.5 -107t114.5 -313v-653h-143v157q-63 -87 -160 -132
t-203 -45zM194 1315v127h678v-127h-678zM258 274q0 -83 54.5 -123t142.5 -40q59 0 117 15t112.5 46.5t88.5 90t34 136.5v149l-334 -89q-104 -28 -159.5 -68t-55.5 -117z" />
    <glyph glyph-name="Abreve" unicode="&#x102;" horiz-adv-x="1376" 
d="M53 0l570 1458h133l567 -1458h-158l-137 358h-684l-137 -358h-154zM397 494h578l-289 754zM428 1798q0 44 27 108l112 -31q-10 -33 -10 -64q0 -56 34.5 -89t98.5 -33q63 0 97 33t34 90q0 26 -10 63l115 33q26 -65 26 -110q0 -93 -73.5 -157.5t-188.5 -64.5
q-114 0 -188 64.5t-74 157.5z" />
    <glyph glyph-name="abreve" unicode="&#x103;" horiz-adv-x="1075" 
d="M444 -20q-140 0 -234.5 76.5t-94.5 215.5q0 50 12.5 90.5t38.5 70.5t53.5 51.5t72 40t78.5 29.5t87 26l350 93q-6 127 -86.5 198t-194.5 71q-108 0 -178.5 -45.5t-134.5 -151.5l-115 64q140 264 434 264q189 0 303.5 -107t114.5 -313v-653h-143v157q-63 -87 -160 -132
t-203 -45zM258 274q0 -83 54.5 -123t142.5 -40q59 0 117 15t112.5 46.5t88.5 90t34 136.5v149l-334 -89q-104 -28 -159.5 -68t-55.5 -117zM270 1393q0 44 27 108l112 -31q-10 -33 -10 -64q0 -56 34.5 -89t98.5 -33q63 0 97 33t34 90q0 26 -10 63l115 33q26 -65 26 -110
q0 -93 -73.5 -157.5t-188.5 -64.5q-114 0 -188 64.5t-74 157.5z" />
    <glyph glyph-name="Aogonek" unicode="&#x104;" horiz-adv-x="1376" 
d="M1204 -401q-107 0 -164 48t-57 128q0 60 45.5 122t132.5 115l-133 346h-683l-138 -358h-154l570 1458h133l567 -1458q-123 -76 -167 -124t-44 -97q0 -31 24.5 -50.5t63.5 -19.5q66 0 119 51l84 -73q-82 -85 -199 -88zM397 494h579l-290 754z" />
    <glyph glyph-name="aogonek" unicode="&#x105;" horiz-adv-x="1075" 
d="M831 -401q-107 0 -164 48t-57 128q0 63 50 128t147 122v132q-63 -87 -160 -132t-203 -45q-140 0 -234.5 76.5t-94.5 215.5q0 50 12.5 90.5t38.5 70.5t53.5 51.5t72 40t78.5 29.5t87 26l350 93q-6 127 -86.5 198t-194.5 71q-108 0 -178.5 -45.5t-134.5 -151.5l-115 64
q140 264 434 264q189 0 303.5 -107t114.5 -313v-653q-123 -76 -167 -124t-44 -97q0 -31 24.5 -50.5t63.5 -19.5q66 0 119 51l84 -73q-81 -85 -199 -88zM258 274q0 -83 54.5 -123t142.5 -40q59 0 117 15t112.5 46.5t88.5 90t34 136.5v149l-334 -89q-104 -28 -159.5 -68
t-55.5 -117z" />
    <glyph glyph-name="Cacute" unicode="&#x106;" horiz-adv-x="1536" 
d="M784 -20q-195 0 -348 96.5t-237 267t-84 385.5q0 161 49.5 300t136.5 238t212 155.5t271 56.5q232 0 390 -124t225 -337l-137 -39q-55 168 -177 266t-301 98q-234 0 -378 -170.5t-144 -443.5t144 -443.5t378 -170.5q179 0 302.5 99t177.5 269l135 -41
q-65 -213 -224 -337.5t-391 -124.5zM735 1579l86 380h156l-144 -380h-98z" />
    <glyph glyph-name="cacute" unicode="&#x107;" horiz-adv-x="1157" 
d="M600 -20q-76 0 -147.5 19.5t-137 62.5t-114.5 105t-78 154.5t-29 204.5t29 204.5t78 155t114.5 105.5t137 62.5t147.5 19.5q109 0 202 -34.5t168 -111.5t109 -190l-139 -41q-26 85 -81.5 142t-120 80.5t-138.5 23.5q-70 0 -132 -23t-115 -70t-84 -130t-31 -193t31 -193
t84 -130t115 -69.5t132 -22.5q75 0 140 23t120 80t80 142l139 -41q-51 -167 -181 -251t-298 -84zM533 1174l86 380h156l-144 -380h-98z" />
    <glyph glyph-name="Ccircumflex" unicode="&#x108;" horiz-adv-x="1536" 
d="M784 -20q-195 0 -348 96.5t-237 267t-84 385.5q0 161 49.5 300t136.5 238t212 155.5t271 56.5q232 0 390 -124t225 -337l-137 -39q-55 168 -177 266t-301 98q-234 0 -378 -170.5t-144 -443.5t144 -443.5t378 -170.5q179 0 302.5 99t177.5 269l135 -41
q-65 -213 -224 -337.5t-391 -124.5zM508 1579l209 380h139l205 -380h-129l-145 287l-148 -287h-131z" />
    <glyph glyph-name="ccircumflex" unicode="&#x109;" horiz-adv-x="1157" 
d="M600 -20q-76 0 -147.5 19.5t-137 62.5t-114.5 105t-78 154.5t-29 204.5t29 204.5t78 155t114.5 105.5t137 62.5t147.5 19.5q109 0 202 -34.5t168 -111.5t109 -190l-139 -41q-26 85 -81.5 142t-120 80.5t-138.5 23.5q-70 0 -132 -23t-115 -70t-84 -130t-31 -193t31 -193
t84 -130t115 -69.5t132 -22.5q75 0 140 23t120 80t80 142l139 -41q-51 -167 -181 -251t-298 -84zM306 1174l209 380h139l205 -380h-129l-145 287l-148 -287h-131z" />
    <glyph glyph-name="Cdotaccent" unicode="&#x10a;" horiz-adv-x="1536" 
d="M784 -20q-195 0 -348 96.5t-237 267t-84 385.5q0 161 49.5 300t136.5 238t212 155.5t271 56.5q232 0 390 -124t225 -337l-137 -39q-55 168 -177 266t-301 98q-234 0 -378 -170.5t-144 -443.5t144 -443.5t378 -170.5q179 0 302.5 99t177.5 269l135 -41
q-65 -213 -224 -337.5t-391 -124.5zM684 1757q0 45 29.5 73.5t72.5 28.5q44 0 73.5 -28.5t29.5 -73.5q0 -46 -29.5 -74.5t-73.5 -28.5t-73 28.5t-29 74.5z" />
    <glyph glyph-name="cdotaccent" unicode="&#x10b;" horiz-adv-x="1157" 
d="M600 -20q-76 0 -147.5 19.5t-137 62.5t-114.5 105t-78 154.5t-29 204.5t29 204.5t78 155t114.5 105.5t137 62.5t147.5 19.5q109 0 202 -34.5t168 -111.5t109 -190l-139 -41q-26 85 -81.5 142t-120 80.5t-138.5 23.5q-70 0 -132 -23t-115 -70t-84 -130t-31 -193t31 -193
t84 -130t115 -69.5t132 -22.5q75 0 140 23t120 80t80 142l139 -41q-51 -167 -181 -251t-298 -84zM482 1352q0 45 29.5 73.5t72.5 28.5q44 0 73.5 -28.5t29.5 -73.5q0 -46 -29.5 -74.5t-73.5 -28.5t-73 28.5t-29 74.5z" />
    <glyph glyph-name="Ccaron" unicode="&#x10c;" horiz-adv-x="1536" 
d="M784 -20q-195 0 -348 96.5t-237 267t-84 385.5q0 161 49.5 300t136.5 238t212 155.5t271 56.5q232 0 390 -124t225 -337l-137 -39q-55 168 -177 266t-301 98q-234 0 -378 -170.5t-144 -443.5t144 -443.5t378 -170.5q179 0 302.5 99t177.5 269l135 -41
q-65 -213 -224 -337.5t-391 -124.5zM507 1959h129l145 -287l148 287h131l-209 -380h-139z" />
    <glyph glyph-name="ccaron" unicode="&#x10d;" horiz-adv-x="1157" 
d="M600 -20q-76 0 -147.5 19.5t-137 62.5t-114.5 105t-78 154.5t-29 204.5t29 204.5t78 155t114.5 105.5t137 62.5t147.5 19.5q109 0 202 -34.5t168 -111.5t109 -190l-139 -41q-26 85 -81.5 142t-120 80.5t-138.5 23.5q-70 0 -132 -23t-115 -70t-84 -130t-31 -193t31 -193
t84 -130t115 -69.5t132 -22.5q75 0 140 23t120 80t80 142l139 -41q-51 -167 -181 -251t-298 -84zM305 1554h129l145 -287l148 287h131l-209 -380h-139z" />
    <glyph glyph-name="Dcaron" unicode="&#x10e;" horiz-adv-x="1430" 
d="M164 0v1458h510q142 0 262 -55t203 -151t129.5 -231t46.5 -292t-46.5 -292t-129.5 -231t-203 -151t-262 -55h-510zM311 135h363q225 0 359 164.5t134 429.5t-134 429.5t-359 164.5h-363v-1188zM364 1959h129l145 -287l148 287h131l-209 -380h-139z" />
    <glyph glyph-name="dcaron" unicode="&#x10f;" horiz-adv-x="1247" 
d="M582 -20q-90 0 -174 32t-155.5 95.5t-115 172t-43.5 246.5q0 112 29 204.5t76.5 155t111.5 105.5t132 62.5t139 19.5q118 0 219 -54.5t164 -158.5v676h143v-1536h-139v200q-62 -107 -164.5 -163.5t-222.5 -56.5zM238 526q0 -107 31 -189.5t84 -130t116 -71.5t133 -24
q55 0 106 14.5t98.5 46.5t82 79t55.5 118t21 157q0 107 -31 189.5t-84 130.5t-116 72t-132 24q-70 0 -133 -24t-116 -72t-84 -130.5t-31 -189.5zM1237 1115l14 421h143l-43 -421h-114z" />
    <glyph glyph-name="Dcroat" unicode="&#x110;" horiz-adv-x="1427" 
d="M164 0v662h-211v135h211v661h510q142 0 262 -55t203 -151t129.5 -231t46.5 -292t-46.5 -292t-129.5 -231t-203 -151t-262 -55h-510zM311 135h363q225 0 359 164.5t134 429.5t-134 429.5t-359 164.5h-363v-526h320v-135h-320v-527z" />
    <glyph glyph-name="dcroat" unicode="&#x111;" horiz-adv-x="1247" 
d="M582 -20q-90 0 -174 32t-155.5 95.5t-115 172t-43.5 246.5q0 112 29 204.5t76.5 155t111.5 105.5t132 62.5t139 19.5q118 0 219 -54.5t164 -158.5v381h-326v127h326v168h143v-168h188v-127h-188v-1241h-139v200q-62 -107 -164.5 -163.5t-222.5 -56.5zM238 526
q0 -107 31 -189.5t84 -130t116 -71.5t133 -24q55 0 106 14.5t98.5 46.5t82 79t55.5 118t21 157q0 107 -31 189.5t-84 130.5t-116 72t-132 24q-70 0 -133 -24t-116 -72t-84 -130.5t-31 -189.5z" />
    <glyph glyph-name="Emacron" unicode="&#x112;" horiz-adv-x="1307" 
d="M164 0v1458h958v-135h-811v-500h750v-135h-750v-553h852v-135h-999zM313 1720v127h678v-127h-678z" />
    <glyph glyph-name="emacron" unicode="&#x113;" horiz-adv-x="1188" 
d="M602 -20q-76 0 -148 19.5t-138 62.5t-115 105t-78 154.5t-29 204.5t30.5 204.5t81 155t118 105.5t140.5 62.5t150 19.5q101 0 186 -30.5t152 -92t104.5 -164.5t37.5 -239v-41h-856q3 -104 35.5 -182.5t85 -123.5t114.5 -67t131 -22q122 0 206 46t155 152l108 -71
q-155 -258 -471 -258zM247 631h701q-19 160 -107.5 235.5t-226.5 75.5q-62 0 -119.5 -17.5t-108.5 -53t-88 -97t-51 -143.5zM276 1315v127h678v-127h-678z" />
    <glyph glyph-name="Edotaccent" unicode="&#x116;" horiz-adv-x="1307" 
d="M164 0v1458h958v-135h-811v-500h750v-135h-750v-553h852v-135h-999zM549 1757q0 45 29.5 73.5t72.5 28.5q44 0 73.5 -28.5t29.5 -73.5q0 -46 -29.5 -74.5t-73.5 -28.5t-73 28.5t-29 74.5z" />
    <glyph glyph-name="edotaccent" unicode="&#x117;" horiz-adv-x="1188" 
d="M602 -20q-76 0 -148 19.5t-138 62.5t-115 105t-78 154.5t-29 204.5t30.5 204.5t81 155t118 105.5t140.5 62.5t150 19.5q101 0 186 -30.5t152 -92t104.5 -164.5t37.5 -239v-41h-856q3 -104 35.5 -182.5t85 -123.5t114.5 -67t131 -22q122 0 206 46t155 152l108 -71
q-155 -258 -471 -258zM247 631h701q-19 160 -107.5 235.5t-226.5 75.5q-62 0 -119.5 -17.5t-108.5 -53t-88 -97t-51 -143.5zM512 1352q0 45 29.5 73.5t72.5 28.5q44 0 73.5 -28.5t29.5 -73.5q0 -46 -29.5 -74.5t-73.5 -28.5t-73 28.5t-29 74.5z" />
    <glyph glyph-name="Eogonek" unicode="&#x118;" horiz-adv-x="1307" 
d="M942 -401q-107 0 -164 48t-57 128q0 123 156 225h-713v1458h958v-135h-811v-500h750v-135h-750v-553h852v-135h-102q-123 -76 -167 -124t-44 -97q0 -31 24.5 -50.5t63.5 -19.5q66 0 119 51l84 -73q-82 -85 -199 -88z" />
    <glyph glyph-name="eogonek" unicode="&#x119;" horiz-adv-x="1188" 
d="M700 -401q-107 0 -164 48t-57 128q0 106 128 205h-5q-76 0 -148 19.5t-138 62.5t-115 105t-78 154.5t-29 204.5t30.5 204.5t81 155t118 105.5t140.5 62.5t150 19.5q101 0 186 -30.5t152 -92t104.5 -164.5t37.5 -239v-41h-856q3 -104 35.5 -182.5t85 -123.5t114.5 -67
t131 -22q122 0 206 46t155 152l108 -71q-65 -109 -182 -187l-74 -49q-123 -82 -166 -129t-43 -94q0 -31 24.5 -50.5t63.5 -19.5q66 0 119 51l84 -73q-81 -85 -199 -88zM247 631h701q-19 160 -107.5 235.5t-226.5 75.5q-62 0 -119.5 -17.5t-108.5 -53t-88 -97t-51 -143.5z
" />
    <glyph glyph-name="Ecaron" unicode="&#x11a;" horiz-adv-x="1307" 
d="M164 0v1458h958v-135h-811v-500h750v-135h-750v-553h852v-135h-999zM372 1959h129l145 -287l148 287h131l-209 -380h-139z" />
    <glyph glyph-name="ecaron" unicode="&#x11b;" horiz-adv-x="1188" 
d="M602 -20q-76 0 -148 19.5t-138 62.5t-115 105t-78 154.5t-29 204.5t30.5 204.5t81 155t118 105.5t140.5 62.5t150 19.5q101 0 186 -30.5t152 -92t104.5 -164.5t37.5 -239v-41h-856q3 -104 35.5 -182.5t85 -123.5t114.5 -67t131 -22q122 0 206 46t155 152l108 -71
q-155 -258 -471 -258zM247 631h701q-19 160 -107.5 235.5t-226.5 75.5q-62 0 -119.5 -17.5t-108.5 -53t-88 -97t-51 -143.5zM335 1554h129l145 -287l148 287h131l-209 -380h-139z" />
    <glyph glyph-name="Gcircumflex" unicode="&#x11c;" horiz-adv-x="1587" 
d="M805 -20q-205 0 -362.5 96.5t-242.5 266.5t-85 386q0 161 49.5 300t136.5 238t212 155.5t271 56.5q243 0 404.5 -124t226.5 -337l-139 -39q-56 168 -182 266t-310 98q-234 0 -378 -170.5t-144 -443.5q0 -274 147.5 -444t395.5 -170q158 0 281.5 71.5t199.5 202.5v266h148
v-655h-129l-11 193q-173 -213 -489 -213zM574 1579l209 380h139l205 -380h-129l-145 287l-148 -287h-131z" />
    <glyph glyph-name="gcircumflex" unicode="&#x11d;" horiz-adv-x="1247" 
d="M565 -471q-410 0 -575 353l128 61q59 -139 163.5 -211t283.5 -72q185 0 292.5 110t107.5 302v149q-63 -100 -163.5 -150.5t-219.5 -50.5q-71 0 -139.5 19.5t-132 61.5t-111.5 102.5t-76.5 149t-28.5 194.5q0 131 43.5 235t115 165.5t156 93.5t173.5 32q119 0 219.5 -50.5
t163.5 -149.5v180h143v-981q0 -251 -148.5 -397t-394.5 -146zM238 547q0 -103 31 -181.5t84 -123.5t116 -67.5t133 -22.5q55 0 106 13.5t98.5 44t82 75t55.5 112t21 150.5q0 102 -31 180.5t-84 124t-115.5 68t-132.5 22.5t-133 -22.5t-116 -68t-84 -124t-31 -180.5z
M334 1174l209 380h139l205 -380h-129l-145 287l-148 -287h-131z" />
    <glyph glyph-name="Gbreve" unicode="&#x11e;" horiz-adv-x="1587" 
d="M805 -20q-205 0 -362.5 96.5t-242.5 266.5t-85 386q0 161 49.5 300t136.5 238t212 155.5t271 56.5q243 0 404.5 -124t226.5 -337l-139 -39q-56 168 -182 266t-310 98q-234 0 -378 -170.5t-144 -443.5q0 -274 147.5 -444t395.5 -170q158 0 281.5 71.5t199.5 202.5v266h148
v-655h-129l-11 193q-173 -213 -489 -213zM590 1798q0 44 27 108l112 -31q-10 -33 -10 -64q0 -56 34.5 -89t98.5 -33q63 0 97 33t34 90q0 26 -10 63l115 33q26 -65 26 -110q0 -93 -73.5 -157.5t-188.5 -64.5q-114 0 -188 64.5t-74 157.5z" />
    <glyph glyph-name="gbreve" unicode="&#x11f;" horiz-adv-x="1247" 
d="M565 -471q-410 0 -575 353l128 61q59 -139 163.5 -211t283.5 -72q185 0 292.5 110t107.5 302v149q-63 -100 -163.5 -150.5t-219.5 -50.5q-71 0 -139.5 19.5t-132 61.5t-111.5 102.5t-76.5 149t-28.5 194.5q0 131 43.5 235t115 165.5t156 93.5t173.5 32q119 0 219.5 -50.5
t163.5 -149.5v180h143v-981q0 -251 -148.5 -397t-394.5 -146zM238 547q0 -103 31 -181.5t84 -123.5t116 -67.5t133 -22.5q55 0 106 13.5t98.5 44t82 75t55.5 112t21 150.5q0 102 -31 180.5t-84 124t-115.5 68t-132.5 22.5t-133 -22.5t-116 -68t-84 -124t-31 -180.5z
M350 1393q0 44 27 108l112 -31q-10 -33 -10 -64q0 -56 34.5 -89t98.5 -33q63 0 97 33t34 90q0 26 -10 63l115 33q26 -65 26 -110q0 -93 -73.5 -157.5t-188.5 -64.5q-114 0 -188 64.5t-74 157.5z" />
    <glyph glyph-name="Gdotaccent" unicode="&#x120;" horiz-adv-x="1587" 
d="M805 -20q-205 0 -362.5 96.5t-242.5 266.5t-85 386q0 161 49.5 300t136.5 238t212 155.5t271 56.5q243 0 404.5 -124t226.5 -337l-139 -39q-56 168 -182 266t-310 98q-234 0 -378 -170.5t-144 -443.5q0 -274 147.5 -444t395.5 -170q158 0 281.5 71.5t199.5 202.5v266h148
v-655h-129l-11 193q-173 -213 -489 -213zM750 1757q0 45 29.5 73.5t72.5 28.5q44 0 73.5 -28.5t29.5 -73.5q0 -46 -29.5 -74.5t-73.5 -28.5t-73 28.5t-29 74.5z" />
    <glyph glyph-name="gdotaccent" unicode="&#x121;" horiz-adv-x="1247" 
d="M565 -471q-410 0 -575 353l128 61q59 -139 163.5 -211t283.5 -72q185 0 292.5 110t107.5 302v149q-63 -100 -163.5 -150.5t-219.5 -50.5q-71 0 -139.5 19.5t-132 61.5t-111.5 102.5t-76.5 149t-28.5 194.5q0 131 43.5 235t115 165.5t156 93.5t173.5 32q119 0 219.5 -50.5
t163.5 -149.5v180h143v-981q0 -251 -148.5 -397t-394.5 -146zM238 547q0 -103 31 -181.5t84 -123.5t116 -67.5t133 -22.5q55 0 106 13.5t98.5 44t82 75t55.5 112t21 150.5q0 102 -31 180.5t-84 124t-115.5 68t-132.5 22.5t-133 -22.5t-116 -68t-84 -124t-31 -180.5z
M510 1352q0 45 29.5 73.5t72.5 28.5q44 0 73.5 -28.5t29.5 -73.5q0 -46 -29.5 -74.5t-73.5 -28.5t-73 28.5t-29 74.5z" />
    <glyph glyph-name="uni0122" unicode="&#x122;" horiz-adv-x="1587" 
d="M805 -20q-205 0 -362.5 96.5t-242.5 266.5t-85 386q0 161 49.5 300t136.5 238t212 155.5t271 56.5q243 0 404.5 -124t226.5 -337l-139 -39q-56 168 -182 266t-310 98q-234 0 -378 -170.5t-144 -443.5q0 -274 147.5 -444t395.5 -170q158 0 281.5 71.5t199.5 202.5v266h148
v-655h-129l-11 193q-173 -213 -489 -213zM666 -586l135 226q-28 11 -45.5 37.5t-17.5 62.5q0 48 31.5 78t76.5 30t77 -32t32 -86q0 -32 -13.5 -60t-44.5 -71l-164 -228z" />
    <glyph glyph-name="uni0123" unicode="&#x123;" horiz-adv-x="1247" 
d="M565 -471q-410 0 -575 353l128 61q59 -139 163.5 -211t283.5 -72q185 0 292.5 110t107.5 302v149q-63 -100 -163.5 -150.5t-219.5 -50.5q-71 0 -139.5 19.5t-132 61.5t-111.5 102.5t-76.5 149t-28.5 194.5q0 131 43.5 235t115 165.5t156 93.5t173.5 32q119 0 219.5 -50.5
t163.5 -149.5v180h143v-981q0 -251 -148.5 -397t-394.5 -146zM238 547q0 -103 31 -181.5t84 -123.5t116 -67.5t133 -22.5q55 0 106 13.5t98.5 44t82 75t55.5 112t21 150.5q0 102 -31 180.5t-84 124t-115.5 68t-132.5 22.5t-133 -22.5t-116 -68t-84 -124t-31 -180.5z
M508 1333q0 32 13.5 60.5t43.5 70.5l164 228l68 -43l-136 -226q29 -11 46.5 -37.5t17.5 -62.5q0 -48 -31.5 -78.5t-77.5 -30.5q-45 0 -76.5 32t-31.5 87z" />
    <glyph glyph-name="Hcircumflex" unicode="&#x124;" horiz-adv-x="1438" 
d="M164 0v1458h147v-651h815v651h148v-1458h-148v672h-815v-672h-147zM459 1579l209 380h139l205 -380h-129l-145 287l-148 -287h-131z" />
    <glyph glyph-name="hcircumflex" unicode="&#x125;" horiz-adv-x="1145" 
d="M877 0v639q0 141 -82.5 221t-214.5 80t-214.5 -79.5t-82.5 -217.5v-643h-144v1536h144v-628q55 77 139.5 121t187.5 44q193 0 301.5 -117t108.5 -317v-639h-143zM-67 1657l209 380h139l205 -380h-129l-145 287l-148 -287h-131z" />
    <glyph glyph-name="Hbar" unicode="&#x126;" horiz-adv-x="1438" 
d="M164 0v1130h-103v127h103v201h147v-201h815v201h148v-201h102v-127h-102v-1130h-148v672h-815v-672h-147zM311 807h815v323h-815v-323z" />
    <glyph glyph-name="hbar" unicode="&#x127;" horiz-adv-x="1145" 
d="M877 0v639q0 141 -82.5 221t-214.5 80t-214.5 -79.5t-82.5 -217.5v-643h-144v1241h-127v127h127v168h144v-168h387v-127h-387v-333q55 77 139.5 121t187.5 44q193 0 301.5 -117t108.5 -317v-639h-143z" />
    <glyph glyph-name="Itilde" unicode="&#x128;" horiz-adv-x="475" 
d="M164 0v1458h147v-1458h-147zM-83 1710q0 76 44 124t122 48q50 0 106 -25t103.5 -49.5t76.5 -24.5q31 0 48.5 20t17.5 52q0 21 -6 45l114 25q17 -48 17 -88q0 -77 -44.5 -126t-121.5 -49q-50 0 -106.5 25t-104.5 50.5t-78 25.5q-31 0 -48 -20.5t-17 -53.5q0 -19 6 -43
l-117 -22q-12 45 -12 86z" />
    <glyph glyph-name="itilde" unicode="&#x129;" horiz-adv-x="438" 
d="M147 0v1053h144v-1053h-144zM-102 1305q0 76 44 124t122 48q39 0 83 -15.5t76 -34t67.5 -34t59.5 -15.5q31 0 48.5 20t17.5 52q0 21 -6 45l114 25q17 -48 17 -88q0 -77 -44.5 -126t-121.5 -49q-50 0 -106.5 25.5t-104.5 50.5t-78 25q-31 0 -48 -20.5t-17 -53.5
q0 -19 6 -43l-117 -22q-12 45 -12 86z" />
    <glyph glyph-name="Imacron" unicode="&#x12a;" horiz-adv-x="475" 
d="M164 0v1458h147v-1458h-147zM-100 1720v127h678v-127h-678z" />
    <glyph glyph-name="imacron" unicode="&#x12b;" horiz-adv-x="438" 
d="M147 0v1053h144v-1053h-144zM-119 1315v127h678v-127h-678z" />
    <glyph glyph-name="Iogonek" unicode="&#x12e;" horiz-adv-x="475" 
d="M193 -401q-108 0 -165 48t-57 128q0 63 49 127t144 120v1436h147v-1458q-123 -76 -167 -124t-44 -97q0 -31 24.5 -50.5t63.5 -19.5q66 0 119 51l84 -73q-81 -85 -198 -88z" />
    <glyph glyph-name="iogonek" unicode="&#x12f;" horiz-adv-x="438" 
d="M172 -401q-107 0 -164 48t-57 128q0 63 50 128t146 121v1029h144v-1053q-123 -76 -167 -124t-44 -97q0 -31 24.5 -50.5t63.5 -19.5q66 0 119 51l84 -73q-82 -85 -199 -88zM117 1393q0 45 29.5 73.5t72.5 28.5q44 0 73.5 -28.5t29.5 -73.5q0 -46 -29.5 -74.5t-73.5 -28.5
t-73 28.5t-29 74.5z" />
    <glyph glyph-name="Idotaccent" unicode="&#x130;" horiz-adv-x="475" 
d="M164 0v1458h147v-1458h-147zM136 1757q0 45 29.5 73.5t72.5 28.5q44 0 73.5 -28.5t29.5 -73.5q0 -46 -29.5 -74.5t-73.5 -28.5t-73 28.5t-29 74.5z" />
    <glyph glyph-name="dotlessi" unicode="&#x131;" horiz-adv-x="438" 
d="M147 0v1053h144v-1053h-144z" />
    <glyph glyph-name="IJ" unicode="&#x132;" horiz-adv-x="1519" 
d="M164 0v1458h147v-1458h-147zM565 322l143 26q28 -229 250 -229q116 0 184 71t68 218v1050h146v-1050q0 -115 -32 -199.5t-88.5 -132.5t-125.5 -70t-152 -22q-157 0 -264 81t-129 257z" />
    <glyph glyph-name="ij" unicode="&#x133;" horiz-adv-x="874" 
d="M147 0v1053h144v-1053h-144zM35 -190l141 38q30 -98 81 -144t136 -46q87 0 139.5 49.5t52.5 155.5v1190h144v-1190q0 -152 -88 -244t-248 -92q-138 0 -228.5 72.5t-129.5 210.5zM117 1393q0 45 29.5 73.5t72.5 28.5q44 0 73.5 -28.5t29.5 -73.5q0 -46 -29.5 -74.5
t-73.5 -28.5t-73 28.5t-29 74.5zM553 1393q0 45 29.5 73.5t72.5 28.5t72.5 -28.5t29.5 -73.5q0 -46 -29 -74.5t-73 -28.5t-73 28.5t-29 74.5z" />
    <glyph glyph-name="Jcircumflex" unicode="&#x134;" horiz-adv-x="1044" 
d="M483 -16q-157 0 -264 81t-129 257l143 26q28 -229 250 -229q116 0 184 71t68 218v1050h146v-1050q0 -115 -32 -199.5t-88.5 -132.5t-125.5 -70t-152 -22zM529 1579l209 380h139l205 -380h-129l-145 287l-148 -287h-131z" />
    <glyph glyph-name="jcircumflex" unicode="&#x135;" horiz-adv-x="436" 
d="M-45 -473q-138 0 -228.5 72.5t-129.5 210.5l141 38q30 -98 81 -144t136 -46q87 0 139.5 49.5t52.5 155.5v1190h144v-1190q0 -152 -88 -244t-248 -92zM-59 1174l209 380h139l205 -380h-129l-145 287l-148 -287h-131z" />
    <glyph glyph-name="uni0136" unicode="&#x136;" horiz-adv-x="1419" 
d="M164 0v1458h147v-751l768 751h201l-669 -645l728 -813h-202l-634 711l-192 -185v-526h-147zM473 -586l135 226q-28 11 -45.5 37.5t-17.5 62.5q0 48 31.5 78t76.5 30t77 -32t32 -86q0 -32 -13.5 -60t-44.5 -71l-164 -228z" />
    <glyph glyph-name="uni0137" unicode="&#x137;" horiz-adv-x="1126" 
d="M887 0l-401 524l-203 -197v-327h-144v1536h144v-1030l559 547h188l-441 -429l480 -624h-182zM379 -586l135 226q-28 11 -45.5 37.5t-17.5 62.5q0 48 31.5 78t76.5 30t77 -32t32 -86q0 -32 -13.5 -60t-44.5 -71l-164 -228z" />
    <glyph glyph-name="kgreenlandic" unicode="&#x138;" horiz-adv-x="1126" 
d="M887 0l-401 524l-203 -197v-327h-144v1053h144v-547l559 547h188l-441 -429l480 -624h-182z" />
    <glyph glyph-name="Lacute" unicode="&#x139;" horiz-adv-x="1268" 
d="M164 0v1458h147v-1323h858v-135h-1005zM203 1579l86 380h156l-144 -380h-98z" />
    <glyph glyph-name="lacute" unicode="&#x13a;" horiz-adv-x="569" 
d="M369 -20q-117 0 -173.5 56t-56.5 187v1313h144v-1313q0 -65 22 -88.5t68 -23.5q51 0 104 20l31 -123q-75 -28 -139 -28zM168 1657l86 380h156l-144 -380h-98z" />
    <glyph glyph-name="uni013B" unicode="&#x13b;" horiz-adv-x="1268" 
d="M164 0v1458h147v-1323h858v-135h-1005zM443 -586l135 226q-28 11 -45.5 37.5t-17.5 62.5q0 48 31.5 78t76.5 30t77 -32t32 -86q0 -32 -13.5 -60t-44.5 -71l-164 -228z" />
    <glyph glyph-name="uni013C" unicode="&#x13c;" horiz-adv-x="569" 
d="M369 -20q-117 0 -173.5 56t-56.5 187v1313h144v-1313q0 -65 22 -88.5t68 -23.5q51 0 104 20l31 -123q-75 -28 -139 -28zM174 -586l135 226q-28 11 -45.5 37.5t-17.5 62.5q0 48 31.5 78t76.5 30t77 -32t32 -86q0 -32 -13.5 -60t-44.5 -71l-164 -228z" />
    <glyph glyph-name="Lcaron" unicode="&#x13d;" horiz-adv-x="1268" 
d="M164 0v1458h147v-1323h858v-135h-1005zM440 1037l14 421h143l-43 -421h-114z" />
    <glyph glyph-name="lcaron" unicode="&#x13e;" horiz-adv-x="569" 
d="M369 -20q-117 0 -173.5 56t-56.5 187v1313h144v-1313q0 -65 22 -88.5t68 -23.5q51 0 104 20l31 -123q-75 -28 -139 -28zM412 1115l14 421h143l-43 -421h-114z" />
    <glyph glyph-name="Ldot" unicode="&#x13f;" horiz-adv-x="1268" 
d="M164 0v1458h147v-1323h858v-135h-1005zM746 784q0 48 31.5 78.5t76.5 30.5q46 0 77.5 -30.5t31.5 -78.5t-31.5 -78t-77.5 -30q-45 0 -76.5 30t-31.5 78z" />
    <glyph glyph-name="ldot" unicode="&#x140;" horiz-adv-x="545" 
d="M369 -20q-117 0 -173.5 56t-56.5 187v1313h144v-1313q0 -65 22 -88.5t68 -23.5q51 0 104 20l31 -123q-75 -28 -139 -28zM375 761q0 48 31.5 78.5t76.5 30.5q46 0 77.5 -30.5t31.5 -78.5t-31.5 -78t-77.5 -30q-45 0 -76.5 30t-31.5 78z" />
    <glyph glyph-name="Lslash" unicode="&#x141;" horiz-adv-x="1350" 
d="M55 618v127l191 58v655h147v-623l381 115v-127l-381 -115v-573h858v-135h-1005v676z" />
    <glyph glyph-name="lslash" unicode="&#x142;" horiz-adv-x="584" 
d="M383 -20q-117 0 -173.5 56t-56.5 187v440l-149 -45v127l149 45v746h144v-715l231 70v-127l-231 -70v-471q0 -65 22 -88.5t68 -23.5q51 0 104 20l31 -123q-75 -28 -139 -28z" />
    <glyph glyph-name="Nacute" unicode="&#x143;" horiz-adv-x="1458" 
d="M164 0v1458h127l858 -1181v1181h145v-1458h-125l-860 1184v-1184h-145zM674 1579l86 380h156l-144 -380h-98z" />
    <glyph glyph-name="nacute" unicode="&#x144;" horiz-adv-x="1137" 
d="M868 0v639q0 138 -80.5 219.5t-216.5 81.5q-135 0 -216 -81t-81 -216v-643h-143v1053h143v-146q55 78 140.5 122t187.5 44q191 0 300.5 -116t109.5 -318v-639h-144zM508 1174l86 380h156l-144 -380h-98z" />
    <glyph glyph-name="uni0145" unicode="&#x145;" horiz-adv-x="1458" 
d="M164 0v1458h127l858 -1181v1181h145v-1458h-125l-860 1184v-1184h-145zM539 -586l135 226q-28 11 -45.5 37.5t-17.5 62.5q0 48 31.5 78t76.5 30t77 -32t32 -86q0 -32 -13.5 -60t-44.5 -71l-164 -228z" />
    <glyph glyph-name="uni0146" unicode="&#x146;" horiz-adv-x="1137" 
d="M868 0v639q0 138 -80.5 219.5t-216.5 81.5q-135 0 -216 -81t-81 -216v-643h-143v1053h143v-146q55 78 140.5 122t187.5 44q191 0 300.5 -116t109.5 -318v-639h-144zM373 -586l135 226q-28 11 -45.5 37.5t-17.5 62.5q0 48 31.5 78t76.5 30t77 -32t32 -86q0 -32 -13.5 -60
t-44.5 -71l-164 -228z" />
    <glyph glyph-name="Ncaron" unicode="&#x147;" horiz-adv-x="1458" 
d="M164 0v1458h127l858 -1181v1181h145v-1458h-125l-860 1184v-1184h-145zM446 1959h129l145 -287l148 287h131l-209 -380h-139z" />
    <glyph glyph-name="ncaron" unicode="&#x148;" horiz-adv-x="1137" 
d="M868 0v639q0 138 -80.5 219.5t-216.5 81.5q-135 0 -216 -81t-81 -216v-643h-143v1053h143v-146q55 78 140.5 122t187.5 44q191 0 300.5 -116t109.5 -318v-639h-144zM280 1554h129l145 -287l148 287h131l-209 -380h-139z" />
    <glyph glyph-name="napostrophe" unicode="&#x149;" horiz-adv-x="1321" 
d="M82 957l-66 42l153 271q-28 12 -46 38.5t-18 61.5q0 48 31.5 78.5t76.5 30.5t77 -32t32 -87q0 -22 -9 -46t-17 -36.5t-32 -48.5zM315 0v1053h143v-146q55 78 140.5 122t187.5 44q191 0 300.5 -116t109.5 -318v-639h-144v639q0 138 -80.5 219.5t-216.5 81.5
q-135 0 -216 -81t-81 -216v-643h-143z" />
    <glyph glyph-name="Eng" unicode="&#x14a;" horiz-adv-x="1458" 
d="M897 -471q-157 0 -264 81t-129 257l143 27q28 -230 250 -230q115 0 183.5 71t68.5 218v75l-840 1156v-1184h-145v1458h127l858 -1181v1181h145v-1505q0 -115 -31.5 -199.5t-88.5 -132.5t-125.5 -70t-151.5 -22z" />
    <glyph glyph-name="eng" unicode="&#x14b;" horiz-adv-x="1137" 
d="M676 -473q-139 0 -229.5 72t-129.5 211l142 38q30 -98 81 -144t136 -46q87 0 139.5 49.5t52.5 155.5v776q0 138 -80.5 219.5t-216.5 81.5q-135 0 -216 -81t-81 -216v-643h-143v1053h143v-146q55 78 140.5 122t187.5 44q191 0 300.5 -116t109.5 -318v-776q0 -152 -88 -244
t-248 -92z" />
    <glyph glyph-name="Omacron" unicode="&#x14c;" horiz-adv-x="1548" 
d="M774 -20q-194 0 -345 96.5t-232.5 266.5t-81.5 386q0 161 48 300t133 238t208.5 155.5t269.5 56.5q194 0 345 -96.5t233 -267t82 -386.5q0 -215 -82 -385.5t-233 -267t-345 -96.5zM262 729q0 -274 139.5 -444t372.5 -170t372.5 170t139.5 444t-139.5 444t-372.5 170
t-372.5 -170t-139.5 -444zM436 1720v127h678v-127h-678z" />
    <glyph glyph-name="omacron" unicode="&#x14d;" horiz-adv-x="1202" 
d="M600 -20q-76 0 -147.5 19.5t-137 62.5t-114.5 105t-78 154.5t-29 204.5t29 204.5t78 155t114.5 105.5t137 62.5t147.5 19.5t147.5 -19.5t137.5 -62.5t115 -105.5t78.5 -155t29.5 -204.5t-29.5 -204.5t-78.5 -154.5t-115 -105t-137.5 -62.5t-147.5 -19.5zM238 526
q0 -110 31 -193t84 -130t115 -69.5t132 -22.5q56 0 107 13.5t99 45t82.5 78.5t55.5 118t21 160q0 110 -31 193t-84.5 130t-116 70t-133.5 23q-70 0 -132 -23t-115 -70t-84 -130t-31 -193zM264 1315v127h678v-127h-678z" />
    <glyph glyph-name="Ohungarumlaut" unicode="&#x150;" horiz-adv-x="1548" 
d="M774 -20q-194 0 -345 96.5t-232.5 266.5t-81.5 386q0 161 48 300t133 238t208.5 155.5t269.5 56.5q194 0 345 -96.5t233 -267t82 -386.5q0 -215 -82 -385.5t-233 -267t-345 -96.5zM262 729q0 -274 139.5 -444t372.5 -170t372.5 170t139.5 444t-139.5 444t-372.5 170
t-372.5 -170t-139.5 -444zM518 1579l86 380h156l-143 -380h-99zM887 1579l86 380h156l-144 -380h-98z" />
    <glyph glyph-name="ohungarumlaut" unicode="&#x151;" horiz-adv-x="1202" 
d="M600 -20q-76 0 -147.5 19.5t-137 62.5t-114.5 105t-78 154.5t-29 204.5t29 204.5t78 155t114.5 105.5t137 62.5t147.5 19.5t147.5 -19.5t137.5 -62.5t115 -105.5t78.5 -155t29.5 -204.5t-29.5 -204.5t-78.5 -154.5t-115 -105t-137.5 -62.5t-147.5 -19.5zM238 526
q0 -110 31 -193t84 -130t115 -69.5t132 -22.5q56 0 107 13.5t99 45t82.5 78.5t55.5 118t21 160q0 110 -31 193t-84.5 130t-116 70t-133.5 23q-70 0 -132 -23t-115 -70t-84 -130t-31 -193zM346 1174l86 380h156l-143 -380h-99zM715 1174l86 380h156l-144 -380h-98z" />
    <glyph glyph-name="OE" unicode="&#x152;" horiz-adv-x="2261" 
d="M756 0q-142 0 -262 55t-203 151t-129.5 231t-46.5 292t46.5 292t129.5 231t203 151t262 55h1321v-135h-811v-500h749v-135h-749v-553h852v-135h-1362zM262 729q0 -265 134.5 -429.5t359.5 -164.5h362v1188h-362q-225 0 -359.5 -164.5t-134.5 -429.5z" />
    <glyph glyph-name="oe" unicode="&#x153;" horiz-adv-x="2060" 
d="M596 -20q-94 0 -181 32t-160 95.5t-117 171.5t-44 247q0 112 29 204.5t78 155t114 105.5t135.5 62.5t145.5 19.5q144 0 262.5 -70t178.5 -208q59 140 178.5 209t275.5 69q100 0 183.5 -30.5t150 -92t104 -164.5t37.5 -239v-41h-856q3 -104 35.5 -182.5t85.5 -123.5
t115 -67t131 -22q123 0 207.5 45t154.5 151l107 -69q-156 -258 -467 -258q-151 0 -268 68.5t-175 207.5q-60 -138 -178 -207t-262 -69zM238 526q0 -110 31 -193t84 -130t115 -69.5t132 -22.5q56 0 107 13.5t99 45t82.5 78.5t55.5 118t21 160q0 110 -31 193t-84.5 130
t-116 70t-133.5 23q-70 0 -132 -23t-115 -70t-84 -130t-31 -193zM1119 631h702q-19 160 -108 235.5t-226 75.5q-62 0 -119.5 -17.5t-109 -53t-88.5 -97t-51 -143.5z" />
    <glyph glyph-name="Racute" unicode="&#x154;" horiz-adv-x="1339" 
d="M164 0v1458h579q186 0 309.5 -112.5t123.5 -301.5q0 -166 -98 -275t-254 -134l413 -635h-176l-407 629h-343v-629h-147zM311 764h434q125 0 204 78t79 202t-79 201.5t-204 77.5h-434v-559zM592 1579l86 380h156l-144 -380h-98z" />
    <glyph glyph-name="racute" unicode="&#x155;" horiz-adv-x="985" 
d="M131 0v1053h143v-117q95 135 279 135q150 0 250 -101t100 -284v-39l-137 -12v43q0 129 -63 194.5t-179 65.5q-111 0 -180.5 -72t-69.5 -202v-664h-143zM445 1174l86 380h156l-144 -380h-98z" />
    <glyph glyph-name="uni0156" unicode="&#x156;" horiz-adv-x="1339" 
d="M164 0v1458h579q186 0 309.5 -112.5t123.5 -301.5q0 -166 -98 -275t-254 -134l413 -635h-176l-407 629h-343v-629h-147zM311 764h434q125 0 204 78t79 202t-79 201.5t-204 77.5h-434v-559zM478 -586l135 226q-28 11 -45.5 37.5t-17.5 62.5q0 48 31.5 78t76.5 30t77 -32
t32 -86q0 -32 -13.5 -60t-44.5 -71l-164 -228z" />
    <glyph glyph-name="uni0157" unicode="&#x157;" horiz-adv-x="985" 
d="M131 0v1053h143v-117q95 135 279 135q150 0 250 -101t100 -284v-39l-137 -12v43q0 129 -63 194.5t-179 65.5q-111 0 -180.5 -72t-69.5 -202v-664h-143zM17 -586l135 226q-28 11 -45.5 37.5t-17.5 62.5q0 48 31.5 78t76.5 30t77 -32t32 -86q0 -32 -13.5 -60t-44.5 -71
l-164 -228z" />
    <glyph glyph-name="Rcaron" unicode="&#x158;" horiz-adv-x="1339" 
d="M164 0v1458h579q186 0 309.5 -112.5t123.5 -301.5q0 -166 -98 -275t-254 -134l413 -635h-176l-407 629h-343v-629h-147zM311 764h434q125 0 204 78t79 202t-79 201.5t-204 77.5h-434v-559zM364 1959h129l145 -287l148 287h131l-209 -380h-139z" />
    <glyph glyph-name="rcaron" unicode="&#x159;" horiz-adv-x="985" 
d="M131 0v1053h143v-117q95 135 279 135q150 0 250 -101t100 -284v-39l-137 -12v43q0 129 -63 194.5t-179 65.5q-111 0 -180.5 -72t-69.5 -202v-664h-143zM217 1554h129l145 -287l148 287h131l-209 -380h-139z" />
    <glyph glyph-name="Sacute" unicode="&#x15a;" horiz-adv-x="1229" 
d="M645 -20q-444 0 -545 458l150 27q39 -184 136 -267t259 -83q152 0 245 75.5t93 208.5q0 110 -56.5 166t-183.5 88l-202 52q-180 46 -263 137.5t-83 247.5q0 165 119 277t309 112q148 0 260.5 -62.5t177.5 -181.5l-123 -66q-51 87 -134 130.5t-181 43.5q-127 0 -205 -70
t-78 -183q0 -104 58 -158.5t182 -85.5l206 -51q177 -44 259.5 -138.5t82.5 -257.5q0 -198 -134 -308.5t-349 -110.5zM570 1579l86 380h156l-144 -380h-98z" />
    <glyph glyph-name="sacute" unicode="&#x15b;" horiz-adv-x="1030" 
d="M543 -20q-384 0 -457 331l141 25q57 -225 310 -225q118 0 189 45t71 133q0 78 -47.5 112.5t-165.5 57.5l-146 28q-150 30 -224.5 94.5t-74.5 190.5q0 132 103.5 216.5t269.5 84.5q120 0 218.5 -47t148.5 -133l-113 -70q-39 57 -106.5 88t-147.5 31q-114 0 -172.5 -47
t-58.5 -123q0 -67 45.5 -99t140.5 -50l145 -29q65 -13 109.5 -26.5t88 -36.5t69.5 -54t41.5 -79t15.5 -111q0 -102 -56 -173t-142.5 -102.5t-194.5 -31.5zM461 1174l86 380h156l-144 -380h-98z" />
    <glyph glyph-name="Scircumflex" unicode="&#x15c;" horiz-adv-x="1229" 
d="M645 -20q-444 0 -545 458l150 27q39 -184 136 -267t259 -83q152 0 245 75.5t93 208.5q0 110 -56.5 166t-183.5 88l-202 52q-180 46 -263 137.5t-83 247.5q0 165 119 277t309 112q148 0 260.5 -62.5t177.5 -181.5l-123 -66q-51 87 -134 130.5t-181 43.5q-127 0 -205 -70
t-78 -183q0 -104 58 -158.5t182 -85.5l206 -51q177 -44 259.5 -138.5t82.5 -257.5q0 -198 -134 -308.5t-349 -110.5zM343 1579l209 380h139l205 -380h-129l-145 287l-148 -287h-131z" />
    <glyph glyph-name="scircumflex" unicode="&#x15d;" horiz-adv-x="1030" 
d="M543 -20q-384 0 -457 331l141 25q57 -225 310 -225q118 0 189 45t71 133q0 78 -47.5 112.5t-165.5 57.5l-146 28q-150 30 -224.5 94.5t-74.5 190.5q0 132 103.5 216.5t269.5 84.5q120 0 218.5 -47t148.5 -133l-113 -70q-39 57 -106.5 88t-147.5 31q-114 0 -172.5 -47
t-58.5 -123q0 -67 45.5 -99t140.5 -50l145 -29q65 -13 109.5 -26.5t88 -36.5t69.5 -54t41.5 -79t15.5 -111q0 -102 -56 -173t-142.5 -102.5t-194.5 -31.5zM234 1174l209 380h139l205 -380h-129l-145 287l-148 -287h-131z" />
    <glyph glyph-name="Scedilla" unicode="&#x15e;" horiz-adv-x="1229" 
d="M429 -381l137 365q-374 38 -466 454l150 27q39 -184 136 -267t259 -83q152 0 245 75.5t93 208.5q0 110 -56.5 166t-183.5 88l-202 52q-180 46 -263 137.5t-83 247.5q0 165 119 277t309 112q148 0 260.5 -62.5t177.5 -181.5l-123 -66q-51 87 -134 130.5t-181 43.5
q-127 0 -205 -70t-78 -183q0 -104 58 -158.5t182 -85.5l206 -51q177 -44 259.5 -138.5t82.5 -257.5q0 -193 -128 -303.5t-334 -115.5l-82 -361h-155z" />
    <glyph glyph-name="scedilla" unicode="&#x15f;" horiz-adv-x="1030" 
d="M357 -381l136 362q-338 20 -407 330l141 25q57 -225 310 -225q118 0 189 45t71 133q0 78 -47.5 112.5t-165.5 57.5l-146 28q-150 30 -224.5 94.5t-74.5 190.5q0 132 103.5 216.5t269.5 84.5q120 0 218.5 -47t148.5 -133l-113 -70q-39 57 -106.5 88t-147.5 31
q-114 0 -172.5 -47t-58.5 -123q0 -67 45.5 -99t140.5 -50l145 -29q65 -13 109.5 -26.5t88 -36.5t69.5 -54t41.5 -79t15.5 -111q0 -94 -47.5 -162t-122.5 -102t-172 -41l-82 -363h-155z" />
    <glyph glyph-name="Scaron" unicode="&#x160;" horiz-adv-x="1229" 
d="M645 -20q-444 0 -545 458l150 27q39 -184 136 -267t259 -83q152 0 245 75.5t93 208.5q0 110 -56.5 166t-183.5 88l-202 52q-180 46 -263 137.5t-83 247.5q0 165 119 277t309 112q148 0 260.5 -62.5t177.5 -181.5l-123 -66q-51 87 -134 130.5t-181 43.5q-127 0 -205 -70
t-78 -183q0 -104 58 -158.5t182 -85.5l206 -51q177 -44 259.5 -138.5t82.5 -257.5q0 -198 -134 -308.5t-349 -110.5zM342 1959h129l145 -287l148 287h131l-209 -380h-139z" />
    <glyph glyph-name="scaron" unicode="&#x161;" horiz-adv-x="1030" 
d="M543 -20q-384 0 -457 331l141 25q57 -225 310 -225q118 0 189 45t71 133q0 78 -47.5 112.5t-165.5 57.5l-146 28q-150 30 -224.5 94.5t-74.5 190.5q0 132 103.5 216.5t269.5 84.5q120 0 218.5 -47t148.5 -133l-113 -70q-39 57 -106.5 88t-147.5 31q-114 0 -172.5 -47
t-58.5 -123q0 -67 45.5 -99t140.5 -50l145 -29q65 -13 109.5 -26.5t88 -36.5t69.5 -54t41.5 -79t15.5 -111q0 -102 -56 -173t-142.5 -102.5t-194.5 -31.5zM233 1554h129l145 -287l148 287h131l-209 -380h-139z" />
    <glyph glyph-name="uni0162" unicode="&#x162;" horiz-adv-x="1233" 
d="M543 0v1323h-512v135h1171v-135h-512v-1323h-25l-100 -381h-155l156 381h-23z" />
    <glyph glyph-name="uni0163" unicode="&#x163;" horiz-adv-x="885" 
d="M14 926v127h140v262h143v-262h416v-127h-416v-611q0 -106 52.5 -155t139.5 -49q86 0 140.5 46t85.5 142l133 -37q-71 -254 -307 -279l-82 -364h-155l136 363q-137 15 -211.5 104.5t-74.5 228.5v611h-140z" />
    <glyph glyph-name="Tcaron" unicode="&#x164;" horiz-adv-x="1233" 
d="M543 0v1323h-512v135h1171v-135h-512v-1323h-147zM337 1959h129l145 -287l148 287h131l-209 -380h-139z" />
    <glyph glyph-name="tcaron" unicode="&#x165;" horiz-adv-x="885" 
d="M489 -20q-160 0 -247.5 92t-87.5 243v611h-140v127h140v262h143v-262h416v-127h-416v-611q0 -106 52.5 -155t139.5 -49q86 0 140.5 46t85.5 142l133 -37q-39 -138 -129.5 -210t-229.5 -72zM463 1174l14 421h143l-43 -421h-114z" />
    <glyph glyph-name="Tbar" unicode="&#x166;" horiz-adv-x="1233" 
d="M543 0v721h-277v127h277v475h-512v135h1171v-135h-512v-475h277v-127h-277v-721h-147z" />
    <glyph glyph-name="tbar" unicode="&#x167;" horiz-adv-x="885" 
d="M489 -20q-160 0 -247.5 92t-87.5 243v263h-140v127h140v221h-140v127h140v262h143v-262h416v-127h-416v-221h416v-127h-416v-263q0 -106 52.5 -155t139.5 -49q86 0 140.5 46t85.5 142l133 -37q-39 -138 -129.5 -210t-229.5 -72z" />
    <glyph glyph-name="Utilde" unicode="&#x168;" horiz-adv-x="1438" 
d="M719 -20q-240 0 -397.5 156t-157.5 392v930h147v-930q0 -187 109.5 -300t298.5 -113t298 113t109 300v930h148v-930q0 -236 -158 -392t-397 -156zM398 1710q0 76 44 124t122 48q50 0 106 -25t103.5 -49.5t76.5 -24.5q31 0 48.5 20t17.5 52q0 21 -6 45l114 25
q17 -48 17 -88q0 -77 -44.5 -126t-121.5 -49q-50 0 -106.5 25t-104.5 50.5t-78 25.5q-31 0 -48 -20.5t-17 -53.5q0 -19 6 -43l-117 -22q-12 45 -12 86z" />
    <glyph glyph-name="utilde" unicode="&#x169;" horiz-adv-x="1137" 
d="M269 1053v-639q0 -138 80.5 -219.5t216.5 -81.5q135 0 216 81t81 216v643h143v-1053h-143v146q-55 -78 -140.5 -122t-187.5 -44q-191 0 -300.5 116t-109.5 318v639h144zM244 1305q0 76 44 124t122 48q39 0 83 -15.5t76 -34t67.5 -34t59.5 -15.5q31 0 48.5 20t17.5 52
q0 21 -6 45l114 25q17 -48 17 -88q0 -77 -44.5 -126t-121.5 -49q-50 0 -106.5 25.5t-104.5 50.5t-78 25q-31 0 -48 -20.5t-17 -53.5q0 -19 6 -43l-117 -22q-12 45 -12 86z" />
    <glyph glyph-name="Umacron" unicode="&#x16a;" horiz-adv-x="1438" 
d="M719 -20q-240 0 -397.5 156t-157.5 392v930h147v-930q0 -187 109.5 -300t298.5 -113t298 113t109 300v930h148v-930q0 -236 -158 -392t-397 -156zM381 1720v127h678v-127h-678z" />
    <glyph glyph-name="umacron" unicode="&#x16b;" horiz-adv-x="1137" 
d="M269 1053v-639q0 -138 80.5 -219.5t216.5 -81.5q135 0 216 81t81 216v643h143v-1053h-143v146q-55 -78 -140.5 -122t-187.5 -44q-191 0 -300.5 116t-109.5 318v639h144zM227 1315v127h678v-127h-678z" />
    <glyph glyph-name="Ubreve" unicode="&#x16c;" horiz-adv-x="1438" 
d="M719 -20q-240 0 -397.5 156t-157.5 392v930h147v-930q0 -187 109.5 -300t298.5 -113t298 113t109 300v930h148v-930q0 -236 -158 -392t-397 -156zM457 1798q0 44 27 108l112 -31q-10 -33 -10 -64q0 -56 34.5 -89t98.5 -33q63 0 97 33t34 90q0 26 -10 63l115 33
q26 -65 26 -110q0 -93 -73.5 -157.5t-188.5 -64.5q-114 0 -188 64.5t-74 157.5z" />
    <glyph glyph-name="ubreve" unicode="&#x16d;" horiz-adv-x="1137" 
d="M269 1053v-639q0 -138 80.5 -219.5t216.5 -81.5q135 0 216 81t81 216v643h143v-1053h-143v146q-55 -78 -140.5 -122t-187.5 -44q-191 0 -300.5 116t-109.5 318v639h144zM303 1393q0 44 27 108l112 -31q-10 -33 -10 -64q0 -56 34.5 -89t98.5 -33q63 0 97 33t34 90
q0 26 -10 63l115 33q26 -65 26 -110q0 -93 -73.5 -157.5t-188.5 -64.5q-114 0 -188 64.5t-74 157.5z" />
    <glyph glyph-name="Uring" unicode="&#x16e;" horiz-adv-x="1438" 
d="M719 -20q-240 0 -397.5 156t-157.5 392v930h147v-930q0 -187 109.5 -300t298.5 -113t298 113t109 300v930h148v-930q0 -236 -158 -392t-397 -156zM457 1835q0 93 71.5 155t190.5 62t190.5 -62t71.5 -155t-71.5 -155.5t-190.5 -62.5t-190.5 62.5t-71.5 155.5zM594 1835
q0 -49 32 -77t91 -28t91 28t32 77q0 48 -32 76t-91 28t-91 -28t-32 -76z" />
    <glyph glyph-name="uring" unicode="&#x16f;" horiz-adv-x="1137" 
d="M269 1053v-639q0 -138 80.5 -219.5t216.5 -81.5q135 0 216 81t81 216v643h143v-1053h-143v146q-55 -78 -140.5 -122t-187.5 -44q-191 0 -300.5 116t-109.5 318v639h144zM303 1430q0 93 71.5 155t190.5 62t190.5 -62t71.5 -155t-71.5 -155.5t-190.5 -62.5t-190.5 62.5
t-71.5 155.5zM440 1430q0 -49 32 -77t91 -28t91 28t32 77q0 48 -32 76t-91 28t-91 -28t-32 -76z" />
    <glyph glyph-name="Uhungarumlaut" unicode="&#x170;" horiz-adv-x="1438" 
d="M719 -20q-240 0 -397.5 156t-157.5 392v930h147v-930q0 -187 109.5 -300t298.5 -113t298 113t109 300v930h148v-930q0 -236 -158 -392t-397 -156zM463 1579l86 380h156l-143 -380h-99zM832 1579l86 380h156l-144 -380h-98z" />
    <glyph glyph-name="uhungarumlaut" unicode="&#x171;" horiz-adv-x="1137" 
d="M269 1053v-639q0 -138 80.5 -219.5t216.5 -81.5q135 0 216 81t81 216v643h143v-1053h-143v146q-55 -78 -140.5 -122t-187.5 -44q-191 0 -300.5 116t-109.5 318v639h144zM309 1174l86 380h156l-143 -380h-99zM678 1174l86 380h156l-144 -380h-98z" />
    <glyph glyph-name="Uogonek" unicode="&#x172;" horiz-adv-x="1438" 
d="M842 -401q-108 0 -164.5 48t-56.5 128q0 110 130 205h-32q-240 0 -397.5 156t-157.5 392v930h147v-930q0 -187 109.5 -300t298.5 -113t298 113t109 300v930h148v-930q0 -145 -64.5 -264t-177.5 -198l-76 -54q-121 -85 -163.5 -135t-42.5 -98q0 -31 24 -50.5t64 -19.5
q67 0 118 51l84 -73q-44 -46 -90.5 -66t-107.5 -22z" />
    <glyph glyph-name="uogonek" unicode="&#x173;" horiz-adv-x="1137" 
d="M535 -20q-191 0 -300.5 115.5t-109.5 318.5v639h143v-639q0 -138 81 -219.5t216 -81.5t216 80.5t81 216.5v643h144v-1053q-123 -76 -167 -124t-44 -97q0 -31 24 -50.5t64 -19.5q67 0 118 51l84 -73q-44 -46 -90.5 -66t-107.5 -22q-108 0 -164.5 48t-56.5 128q0 63 50 128
t146 121v121q-55 -77 -140.5 -121t-186.5 -44z" />
    <glyph glyph-name="Wcircumflex" unicode="&#x174;" horiz-adv-x="1823" 
d="M426 0l-356 1458h155l279 -1208l340 1208h143l339 -1205l280 1205h147l-354 -1458h-142l-345 1233l-345 -1233h-141zM635 1579l209 380h139l205 -380h-129l-145 287l-148 -287h-131z" />
    <glyph glyph-name="wcircumflex" unicode="&#x175;" horiz-adv-x="1602" 
d="M375 0l-324 1053h150l256 -879l276 879h146l278 -882l256 882h137l-319 -1053h-154l-275 854l-274 -854h-153zM517 1174l209 380h139l205 -380h-129l-145 287l-148 -287h-131z" />
    <glyph glyph-name="Ycircumflex" unicode="&#x176;" horiz-adv-x="1253" 
d="M551 0v611l-539 847h172l446 -705l445 705h166l-543 -850v-608h-147zM347 1579l209 380h139l205 -380h-129l-145 287l-148 -287h-131z" />
    <glyph glyph-name="ycircumflex" unicode="&#x177;" horiz-adv-x="1137" 
d="M522 -471q-368 0 -514 338l127 59q60 -136 155 -201t232 -65q158 0 245 97t87 274v114q-57 -79 -142.5 -122t-185.5 -43q-192 0 -300.5 115.5t-108.5 320.5v637h143v-637q0 -146 75 -225.5t210 -79.5q143 0 226 80t83 219v643h143v-1022q0 -234 -127 -368t-348 -134z
M300 1174l209 380h139l205 -380h-129l-145 287l-148 -287h-131z" />
    <glyph glyph-name="Ydieresis" unicode="&#x178;" horiz-adv-x="1253" 
d="M551 0v611l-539 847h172l446 -705l445 705h166l-543 -850v-608h-147zM338 1757q0 43 29 70.5t70 27.5q42 0 70 -27t28 -71t-28 -71.5t-70 -27.5q-41 0 -70 27.5t-29 71.5zM715 1757q0 43 28.5 70.5t70.5 27.5t70 -27t28 -71t-28 -71.5t-70 -27.5t-70.5 27.5t-28.5 71.5z
" />
    <glyph glyph-name="Zacute" unicode="&#x179;" horiz-adv-x="1290" 
d="M115 0v113l863 1210h-843v135h1020v-112l-863 -1211h884v-135h-1061zM594 1579l86 380h156l-144 -380h-98z" />
    <glyph glyph-name="zacute" unicode="&#x17a;" horiz-adv-x="999" 
d="M98 0v117l611 805h-600v131h782v-117l-610 -805h620v-131h-803zM449 1174l86 380h156l-144 -380h-98z" />
    <glyph glyph-name="Zdotaccent" unicode="&#x17b;" horiz-adv-x="1290" 
d="M115 0v113l863 1210h-843v135h1020v-112l-863 -1211h884v-135h-1061zM543 1757q0 45 29.5 73.5t72.5 28.5q44 0 73.5 -28.5t29.5 -73.5q0 -46 -29.5 -74.5t-73.5 -28.5t-73 28.5t-29 74.5z" />
    <glyph glyph-name="zdotaccent" unicode="&#x17c;" horiz-adv-x="999" 
d="M98 0v117l611 805h-600v131h782v-117l-610 -805h620v-131h-803zM398 1352q0 45 29.5 73.5t72.5 28.5q44 0 73.5 -28.5t29.5 -73.5q0 -46 -29.5 -74.5t-73.5 -28.5t-73 28.5t-29 74.5z" />
    <glyph glyph-name="Zcaron" unicode="&#x17d;" horiz-adv-x="1290" 
d="M115 0v113l863 1210h-843v135h1020v-112l-863 -1211h884v-135h-1061zM366 1959h129l145 -287l148 287h131l-209 -380h-139z" />
    <glyph glyph-name="zcaron" unicode="&#x17e;" horiz-adv-x="999" 
d="M98 0v117l611 805h-600v131h782v-117l-610 -805h620v-131h-803zM221 1554h129l145 -287l148 287h131l-209 -380h-139z" />
    <glyph glyph-name="uni018F" unicode="&#x18f;" horiz-adv-x="1546" 
d="M772 -20q-193 0 -344.5 95t-232.5 255t-80 354v53h1169q-2 273 -144 439.5t-384 166.5q-165 0 -288 -85.5t-187 -223.5l-129 68q84 168 241.5 272.5t362.5 104.5q202 0 356.5 -97t237 -267t82.5 -386q0 -215 -82 -385.5t-233 -267t-345 -96.5zM271 602q35 -227 168 -357
t333 -130q204 0 338 132.5t165 354.5h-1004z" />
    <glyph glyph-name="florin" unicode="&#x192;" horiz-adv-x="1141" 
d="M520 -473q-349 0 -427 330l132 41q38 -123 106 -180.5t191 -57.5q269 0 269 258q0 42 -16.5 89.5t-31 73.5t-53.5 91l-185 309h-368v127h304l-103 172q-68 114 -97.5 184t-29.5 150q0 159 102.5 262t292.5 103q159 0 261.5 -84.5t139.5 -247.5l-133 -39
q-37 122 -101.5 180t-170.5 58q-111 0 -178.5 -58t-67.5 -174q0 -14 2 -29t4 -27t8 -28t9 -25.5t12 -27.5t12 -25t14.5 -26.5t14.5 -24.5t16 -26t15 -25l149 -242h359v-127h-295l143 -233q50 -81 82.5 -169.5t32.5 -156.5q0 -180 -104.5 -287.5t-309.5 -107.5z" />
    <glyph glyph-name="uni019D" unicode="&#x19d;" horiz-adv-x="1458" 
d="M-88 -471q-75 0 -139 18t-118 56.5t-89.5 105.5t-46.5 158l143 27q28 -230 250 -230q115 0 183.5 71t68.5 218v1505h127l858 -1181v1181h145v-1458h-125l-860 1184v-1231q0 -115 -31.5 -199.5t-88.5 -132.5t-125.5 -70t-151.5 -22z" />
    <glyph glyph-name="Ohorn" unicode="&#x1a0;" horiz-adv-x="1548" 
d="M774 -20q-194 0 -345 96.5t-232.5 266.5t-81.5 386q0 161 48 300t133 238t208.5 155.5t269.5 56.5q96 0 219.5 -18.5t171.5 -18.5q70 0 101.5 37.5t31.5 99.5v107h129v-125q0 -99 -63 -168.5t-180 -69.5h-5q126 -96 190.5 -252t64.5 -342q0 -215 -82 -385.5t-233 -267
t-345 -96.5zM262 729q0 -274 139.5 -444t372.5 -170t372.5 170t139.5 444t-139.5 444t-372.5 170t-372.5 -170t-139.5 -444z" />
    <glyph glyph-name="ohorn" unicode="&#x1a1;" horiz-adv-x="1202" 
d="M600 -20q-76 0 -147.5 19.5t-137 62.5t-114.5 105t-78 154.5t-29 204.5t29 204.5t78 155t114.5 105.5t137 62.5t147.5 19.5q75 0 173.5 -10t115.5 -10q53 0 82.5 40.5t29.5 100.5v86h129v-104q0 -89 -51.5 -150.5t-143.5 -70.5q173 -146 173 -429q0 -112 -29.5 -204.5
t-78.5 -154.5t-115 -105t-137.5 -62.5t-147.5 -19.5zM238 526q0 -110 31 -193t84 -130t115 -69.5t132 -22.5q56 0 107 13.5t99 45t82.5 78.5t55.5 118t21 160q0 110 -31 193t-84.5 130t-116 70t-133.5 23q-70 0 -132 -23t-115 -70t-84 -130t-31 -193z" />
    <glyph glyph-name="Uhorn" unicode="&#x1af;" horiz-adv-x="1438" 
d="M719 -20q-240 0 -397.5 156t-157.5 392v930h147v-930q0 -187 109.5 -300t298.5 -113t298 113t109 300v930h70q53 0 83 40.5t30 100.5v86h129v-104q0 -80 -43.5 -139.5t-120.5 -77.5v-836q0 -236 -158 -392t-397 -156z" />
    <glyph glyph-name="uhorn" unicode="&#x1b0;" horiz-adv-x="1137" 
d="M269 1053v-639q0 -138 80.5 -219.5t216.5 -81.5q135 0 216 81t81 216v643h65q53 0 83 40.5t30 100.5v86h129v-104q0 -80 -43.5 -139.5t-120.5 -77.5v-959h-143v146q-55 -78 -140.5 -122t-187.5 -44q-191 0 -300.5 116t-109.5 318v639h144z" />
    <glyph glyph-name="Gcaron" unicode="&#x1e6;" horiz-adv-x="1587" 
d="M805 -20q-205 0 -362.5 96.5t-242.5 266.5t-85 386q0 161 49.5 300t136.5 238t212 155.5t271 56.5q243 0 404.5 -124t226.5 -337l-139 -39q-56 168 -182 266t-310 98q-234 0 -378 -170.5t-144 -443.5q0 -274 147.5 -444t395.5 -170q158 0 281.5 71.5t199.5 202.5v266h148
v-655h-129l-11 193q-173 -213 -489 -213zM573 1959h129l145 -287l148 287h131l-209 -380h-139z" />
    <glyph glyph-name="gcaron" unicode="&#x1e7;" horiz-adv-x="1247" 
d="M565 -471q-410 0 -575 353l128 61q59 -139 163.5 -211t283.5 -72q185 0 292.5 110t107.5 302v149q-63 -100 -163.5 -150.5t-219.5 -50.5q-71 0 -139.5 19.5t-132 61.5t-111.5 102.5t-76.5 149t-28.5 194.5q0 131 43.5 235t115 165.5t156 93.5t173.5 32q119 0 219.5 -50.5
t163.5 -149.5v180h143v-981q0 -251 -148.5 -397t-394.5 -146zM238 547q0 -103 31 -181.5t84 -123.5t116 -67.5t133 -22.5q55 0 106 13.5t98.5 44t82 75t55.5 112t21 150.5q0 102 -31 180.5t-84 124t-115.5 68t-132.5 22.5t-133 -22.5t-116 -68t-84 -124t-31 -180.5z
M333 1554h129l145 -287l148 287h131l-209 -380h-139z" />
    <glyph glyph-name="uni0218" unicode="&#x218;" horiz-adv-x="1229" 
d="M645 -20q-444 0 -545 458l150 27q39 -184 136 -267t259 -83q152 0 245 75.5t93 208.5q0 110 -56.5 166t-183.5 88l-202 52q-180 46 -263 137.5t-83 247.5q0 165 119 277t309 112q148 0 260.5 -62.5t177.5 -181.5l-123 -66q-51 87 -134 130.5t-181 43.5q-127 0 -205 -70
t-78 -183q0 -104 58 -158.5t182 -85.5l206 -51q177 -44 259.5 -138.5t82.5 -257.5q0 -198 -134 -308.5t-349 -110.5zM435 -586l135 226q-28 11 -45.5 37.5t-17.5 62.5q0 48 31.5 78t76.5 30t77 -32t32 -86q0 -32 -13.5 -60t-44.5 -71l-164 -228z" />
    <glyph glyph-name="uni0219" unicode="&#x219;" horiz-adv-x="1030" 
d="M543 -20q-384 0 -457 331l141 25q57 -225 310 -225q118 0 189 45t71 133q0 78 -47.5 112.5t-165.5 57.5l-146 28q-150 30 -224.5 94.5t-74.5 190.5q0 132 103.5 216.5t269.5 84.5q120 0 218.5 -47t148.5 -133l-113 -70q-39 57 -106.5 88t-147.5 31q-114 0 -172.5 -47
t-58.5 -123q0 -67 45.5 -99t140.5 -50l145 -29q65 -13 109.5 -26.5t88 -36.5t69.5 -54t41.5 -79t15.5 -111q0 -102 -56 -173t-142.5 -102.5t-194.5 -31.5zM363 -586l135 226q-28 11 -45.5 37.5t-17.5 62.5q0 48 31.5 78t76.5 30t77 -32t32 -86q0 -32 -13.5 -60t-44.5 -71
l-164 -228z" />
    <glyph glyph-name="uni021A" unicode="&#x21a;" horiz-adv-x="1233" 
d="M543 0v1323h-512v135h1171v-135h-512v-1323h-147zM418 -586l135 226q-28 11 -45.5 37.5t-17.5 62.5q0 48 31.5 78t76.5 30t77 -32t32 -86q0 -32 -13.5 -60t-44.5 -71l-164 -228z" />
    <glyph glyph-name="uni021B" unicode="&#x21b;" horiz-adv-x="885" 
d="M489 -20q-160 0 -247.5 92t-87.5 243v611h-140v127h140v262h143v-262h416v-127h-416v-611q0 -106 52.5 -155t139.5 -49q86 0 140.5 46t85.5 142l133 -37q-39 -138 -129.5 -210t-229.5 -72zM310 -586l135 226q-28 11 -45.5 37.5t-17.5 62.5q0 48 31.5 78t76.5 30t77 -32
t32 -86q0 -32 -13.5 -60t-44.5 -71l-164 -228z" />
    <glyph glyph-name="uni0232" unicode="&#x232;" horiz-adv-x="1253" 
d="M551 0v611l-539 847h172l446 -705l445 705h166l-543 -850v-608h-147zM287 1720v127h678v-127h-678z" />
    <glyph glyph-name="uni0233" unicode="&#x233;" horiz-adv-x="1137" 
d="M522 -471q-368 0 -514 338l127 59q60 -136 155 -201t232 -65q158 0 245 97t87 274v114q-57 -79 -142.5 -122t-185.5 -43q-192 0 -300.5 115.5t-108.5 320.5v637h143v-637q0 -146 75 -225.5t210 -79.5q143 0 226 80t83 219v643h143v-1022q0 -234 -127 -368t-348 -134z
M240 1315v127h678v-127h-678z" />
    <glyph glyph-name="uni0237" unicode="&#x237;" horiz-adv-x="436" 
d="M-45 -473q-138 0 -228.5 72.5t-129.5 210.5l141 38q30 -98 81 -144t136 -46q87 0 139.5 49.5t52.5 155.5v1190h144v-1190q0 -152 -88 -244t-248 -92z" />
    <glyph glyph-name="uni0259" unicode="&#x259;" horiz-adv-x="1188" 
d="M586 1073q76 0 148 -19.5t138 -62.5t115 -105t78 -154.5t29 -204.5t-30.5 -204.5t-81 -155t-118 -105.5t-140.5 -62.5t-150 -19.5q-101 0 -186 30.5t-152 92t-104.5 164.5t-37.5 239v41h856q-3 104 -35.5 182.5t-85 123.5t-114.5 67t-131 22q-122 0 -206 -46t-155 -152
l-108 71q155 258 471 258zM240 422q19 -160 107.5 -235.5t226.5 -75.5q62 0 119.5 17.5t108.5 53t88 97t51 143.5h-701z" />
    <glyph glyph-name="uni0272" unicode="&#x272;" horiz-adv-x="1137" 
d="M-61 -473q-139 0 -229.5 72.5t-129.5 210.5l141 38q30 -98 81.5 -144t136.5 -46q87 0 139.5 49.5t52.5 155.5v1190h143v-146q55 78 140.5 122t187.5 44q191 0 300.5 -116t109.5 -318v-639h-144v639q0 138 -80.5 219.5t-216.5 81.5q-135 0 -216 -81t-81 -216v-780
q0 -152 -87.5 -244t-247.5 -92z" />
    <glyph glyph-name="circumflex" unicode="&#x2c6;" horiz-adv-x="1126" 
d="M285 1174l209 380h139l205 -380h-129l-145 287l-148 -287h-131z" />
    <glyph glyph-name="caron" unicode="&#x2c7;" horiz-adv-x="1126" 
d="M837 1554l-209 -380h-139l-205 380h129l145 -287l148 287h131z" />
    <glyph glyph-name="breve" unicode="&#x2d8;" horiz-adv-x="1126" 
d="M563 1171q-114 0 -188 64.5t-74 157.5q0 44 27 108l112 -31q-10 -33 -10 -64q0 -56 34.5 -89t98.5 -33q63 0 97 33t34 90q0 26 -10 63l115 33q26 -65 26 -110q0 -93 -73.5 -157.5t-188.5 -64.5z" />
    <glyph glyph-name="dotaccent" unicode="&#x2d9;" horiz-adv-x="1126" 
d="M563 1249q-44 0 -73 28.5t-29 74.5q0 45 29.5 73.5t72.5 28.5q44 0 73.5 -28.5t29.5 -73.5q0 -46 -29.5 -74.5t-73.5 -28.5z" />
    <glyph glyph-name="ring" unicode="&#x2da;" horiz-adv-x="1126" 
d="M563 1212q-119 0 -190.5 62.5t-71.5 155.5t71.5 155t190.5 62t190.5 -62t71.5 -155t-71.5 -155.5t-190.5 -62.5zM438 1430q0 -49 32 -77t91 -28t91 28t32 77q0 48 -32 76t-91 28t-91 -28t-32 -76z" />
    <glyph glyph-name="ogonek" unicode="&#x2db;" horiz-adv-x="1126" 
d="M569 -401q-107 0 -164 48t-57 128q0 69 57 138t166 126l117 -39q-123 -76 -167 -124t-44 -97q0 -31 24.5 -50.5t63.5 -19.5q66 0 119 51l84 -73q-81 -85 -199 -88z" />
    <glyph glyph-name="tilde" unicode="&#x2dc;" horiz-adv-x="1126" 
d="M254 1219q-12 45 -12 86q0 76 44 124t122 48q39 0 83 -15.5t76 -34t67.5 -34t59.5 -15.5q31 0 48.5 20t17.5 52q0 21 -6 45l114 25q17 -48 17 -88q0 -77 -44.5 -126t-121.5 -49q-50 0 -106.5 25.5t-104.5 50.5t-78 25q-31 0 -48 -20.5t-17 -53.5q0 -19 6 -43z" />
    <glyph glyph-name="hungarumlaut" unicode="&#x2dd;" horiz-adv-x="1126" 
d="M307 1174l86 380h156l-143 -380h-99zM676 1174l86 380h156l-144 -380h-98z" />
    <glyph glyph-name="gravecomb" unicode="&#x300;" horiz-adv-x="0" 
d="M514 1174l-143 380h155l86 -380h-98z" />
    <glyph glyph-name="acutecomb" unicode="&#x301;" horiz-adv-x="0" 
d="M512 1174l86 380h156l-144 -380h-98z" />
    <glyph glyph-name="uni0302" unicode="&#x302;" horiz-adv-x="0" 
d="M285 1174l209 380h139l205 -380h-129l-145 287l-148 -287h-131z" />
    <glyph glyph-name="tildecomb" unicode="&#x303;" horiz-adv-x="0" 
d="M254 1219q-12 45 -12 86q0 76 44 124t122 48q39 0 83 -15.5t76 -34t67.5 -34t59.5 -15.5q31 0 48.5 20t17.5 52q0 21 -6 45l114 25q17 -48 17 -88q0 -77 -44.5 -126t-121.5 -49q-50 0 -106.5 25.5t-104.5 50.5t-78 25q-31 0 -48 -20.5t-17 -53.5q0 -19 6 -43z" />
    <glyph glyph-name="uni0304" unicode="&#x304;" horiz-adv-x="0" 
d="M225 1315v127h678v-127h-678z" />
    <glyph glyph-name="uni0306" unicode="&#x306;" horiz-adv-x="0" 
d="M563 1171q-114 0 -188 64.5t-74 157.5q0 44 27 108l112 -31q-10 -33 -10 -64q0 -56 34.5 -89t98.5 -33q63 0 97 33t34 90q0 26 -10 63l115 33q26 -65 26 -110q0 -93 -73.5 -157.5t-188.5 -64.5z" />
    <glyph glyph-name="uni0307" unicode="&#x307;" horiz-adv-x="0" 
d="M563 1249q-44 0 -73 28.5t-29 74.5q0 45 29.5 73.5t72.5 28.5q44 0 73.5 -28.5t29.5 -73.5q0 -46 -29.5 -74.5t-73.5 -28.5z" />
    <glyph glyph-name="uni0308" unicode="&#x308;" horiz-adv-x="0" 
d="M375 1253q-41 0 -70 27.5t-29 71.5q0 43 29 70.5t70 27.5q42 0 70 -27t28 -71t-28 -71.5t-70 -27.5zM653 1352q0 43 28.5 70.5t70.5 27.5t70 -27t28 -71t-28 -71.5t-70 -27.5t-70.5 27.5t-28.5 71.5z" />
    <glyph glyph-name="hookabovecomb" unicode="&#x309;" horiz-adv-x="0" 
d="M506 1237q94 54 94 127q0 36 -26 59t-70 23q-46 0 -88 -21l-37 97q63 34 139 34q94 0 151.5 -52.5t57.5 -135.5q0 -134 -162 -223z" />
    <glyph glyph-name="uni030A" unicode="&#x30a;" horiz-adv-x="0" 
d="M563 1212q-119 0 -190.5 62.5t-71.5 155.5t71.5 155t190.5 62t190.5 -62t71.5 -155t-71.5 -155.5t-190.5 -62.5zM438 1430q0 -49 32 -77t91 -28t91 28t32 77q0 48 -32 76t-91 28t-91 -28t-32 -76z" />
    <glyph glyph-name="uni030B" unicode="&#x30b;" horiz-adv-x="0" 
d="M307 1174l86 380h156l-143 -380h-99zM676 1174l86 380h156l-144 -380h-98z" />
    <glyph glyph-name="uni030C" unicode="&#x30c;" horiz-adv-x="0" 
d="M837 1554l-209 -380h-139l-205 380h129l145 -287l148 287h131z" />
    <glyph glyph-name="uni0312" unicode="&#x312;" horiz-adv-x="0" 
d="M567 1214q-45 0 -76.5 32t-31.5 87q0 32 13.5 60.5t43.5 70.5l164 228l68 -43l-136 -226q29 -11 46.5 -37.5t17.5 -62.5q0 -48 -31.5 -78.5t-77.5 -30.5z" />
    <glyph glyph-name="uni031B" unicode="&#x31b;" horiz-adv-x="0" 
d="M428 952l-14 101h24q53 0 83 40.5t30 100.5v86h129v-104q0 -96 -60.5 -160t-164.5 -64h-27z" />
    <glyph glyph-name="dotbelowcomb" unicode="&#x323;" horiz-adv-x="0" 
d="M563 -348q-43 0 -72.5 28.5t-29.5 73.5q0 46 29 74.5t73 28.5t73.5 -28.5t29.5 -74.5q0 -45 -29.5 -73.5t-73.5 -28.5z" />
    <glyph glyph-name="uni0326" unicode="&#x326;" horiz-adv-x="0" 
d="M377 -586l135 226q-28 11 -45.5 37.5t-17.5 62.5q0 48 31.5 78t76.5 30t77 -32t32 -86q0 -32 -13.5 -60t-44.5 -71l-164 -228z" />
    <glyph glyph-name="uni0327" unicode="&#x327;" horiz-adv-x="0" 
d="M371 -381l143 381h98l-86 -381h-155z" />
    <glyph glyph-name="uni0328" unicode="&#x328;" horiz-adv-x="0" 
d="M569 -401q-107 0 -164 48t-57 128q0 69 57 138t166 126l117 -39q-123 -76 -167 -124t-44 -97q0 -31 24.5 -50.5t63.5 -19.5q66 0 119 51l84 -73q-81 -85 -199 -88z" />
    <glyph glyph-name="uni0394" unicode="&#x394;" horiz-adv-x="1376" 
d="M53 0l570 1458h133l567 -1458h-1270zM259 135h855l-427 1113z" />
    <glyph glyph-name="uni03A9" unicode="&#x3a9;" horiz-adv-x="1548" 
d="M100 0v135h323q-152 94 -230 256t-78 359q0 206 81.5 371.5t232.5 261.5t345 96q145 0 269 -56t209.5 -153.5t133.5 -231.5t48 -288q0 -197 -78.5 -358.5t-230.5 -256.5h323v-135h-586v141q107 28 190 88.5t133 142.5t75.5 177.5t25.5 200.5q0 171 -62 305t-179 211
t-271 77t-271 -77t-179 -211t-62 -305q0 -105 25.5 -200.5t75.5 -177.5t133 -142.5t190 -88.5v-141h-586z" />
    <glyph glyph-name="uni03BC" unicode="&#x3bc;" horiz-adv-x="1137" 
d="M125 -451v1504h144v-639q0 -138 80.5 -219.5t216.5 -81.5q135 0 216 81t81 216v643h143v-1053h-143v147q-55 -78 -140.5 -122.5t-187.5 -44.5q-162 0 -267 85v-516h-143z" />
    <glyph glyph-name="pi" unicode="&#x3c0;" horiz-adv-x="1182" 
d="M16 926v127h1108v-127h-252v-590q0 -107 52.5 -156t140.5 -49v-131q-160 0 -248 92t-88 244v590h-328v-926h-143v926h-242z" />
    <glyph glyph-name="uni1E20" unicode="&#x1e20;" horiz-adv-x="1587" 
d="M805 -20q-205 0 -362.5 96.5t-242.5 266.5t-85 386q0 161 49.5 300t136.5 238t212 155.5t271 56.5q243 0 404.5 -124t226.5 -337l-139 -39q-56 168 -182 266t-310 98q-234 0 -378 -170.5t-144 -443.5q0 -274 147.5 -444t395.5 -170q158 0 281.5 71.5t199.5 202.5v266h148
v-655h-129l-11 193q-173 -213 -489 -213zM514 1720v127h678v-127h-678z" />
    <glyph glyph-name="uni1E21" unicode="&#x1e21;" horiz-adv-x="1247" 
d="M565 -471q-410 0 -575 353l128 61q59 -139 163.5 -211t283.5 -72q185 0 292.5 110t107.5 302v149q-63 -100 -163.5 -150.5t-219.5 -50.5q-71 0 -139.5 19.5t-132 61.5t-111.5 102.5t-76.5 149t-28.5 194.5q0 131 43.5 235t115 165.5t156 93.5t173.5 32q119 0 219.5 -50.5
t163.5 -149.5v180h143v-981q0 -251 -148.5 -397t-394.5 -146zM238 547q0 -103 31 -181.5t84 -123.5t116 -67.5t133 -22.5q55 0 106 13.5t98.5 44t82 75t55.5 112t21 150.5q0 102 -31 180.5t-84 124t-115.5 68t-132.5 22.5t-133 -22.5t-116 -68t-84 -124t-31 -180.5z
M274 1315v127h678v-127h-678z" />
    <glyph glyph-name="Wgrave" unicode="&#x1e80;" horiz-adv-x="1823" 
d="M426 0l-356 1458h155l279 -1208l340 1208h143l339 -1205l280 1205h147l-354 -1458h-142l-345 1233l-345 -1233h-141zM721 1959h155l86 -380h-98z" />
    <glyph glyph-name="wgrave" unicode="&#x1e81;" horiz-adv-x="1602" 
d="M375 0l-324 1053h150l256 -879l276 879h146l278 -882l256 882h137l-319 -1053h-154l-275 854l-274 -854h-153zM603 1554h155l86 -380h-98z" />
    <glyph glyph-name="Wacute" unicode="&#x1e82;" horiz-adv-x="1823" 
d="M426 0l-356 1458h155l279 -1208l340 1208h143l339 -1205l280 1205h147l-354 -1458h-142l-345 1233l-345 -1233h-141zM862 1579l86 380h156l-144 -380h-98z" />
    <glyph glyph-name="wacute" unicode="&#x1e83;" horiz-adv-x="1602" 
d="M375 0l-324 1053h150l256 -879l276 879h146l278 -882l256 882h137l-319 -1053h-154l-275 854l-274 -854h-153zM744 1174l86 380h156l-144 -380h-98z" />
    <glyph glyph-name="Wdieresis" unicode="&#x1e84;" horiz-adv-x="1823" 
d="M426 0l-356 1458h155l279 -1208l340 1208h143l339 -1205l280 1205h147l-354 -1458h-142l-345 1233l-345 -1233h-141zM626 1757q0 43 29 70.5t70 27.5q42 0 70 -27t28 -71t-28 -71.5t-70 -27.5q-41 0 -70 27.5t-29 71.5zM1003 1757q0 43 28.5 70.5t70.5 27.5t70 -27
t28 -71t-28 -71.5t-70 -27.5t-70.5 27.5t-28.5 71.5z" />
    <glyph glyph-name="wdieresis" unicode="&#x1e85;" horiz-adv-x="1602" 
d="M375 0l-324 1053h150l256 -879l276 879h146l278 -882l256 882h137l-319 -1053h-154l-275 854l-274 -854h-153zM508 1352q0 43 29 70.5t70 27.5q42 0 70 -27t28 -71t-28 -71.5t-70 -27.5q-41 0 -70 27.5t-29 71.5zM885 1352q0 43 28.5 70.5t70.5 27.5t70 -27t28 -71
t-28 -71.5t-70 -27.5t-70.5 27.5t-28.5 71.5z" />
    <glyph glyph-name="uni1E9E" unicode="&#x1e9e;" horiz-adv-x="1368" 
d="M834 -20q-108 0 -224 34.5t-182 94.5l72 118q49 -50 147.5 -83t186.5 -33q174 0 268 96t94 246q0 145 -106.5 228t-276.5 83h-143v115l399 444h-758v-1323h-147v1458h1059v-135l-400 -444h13q122 0 220.5 -37.5t158.5 -99t92 -136t32 -153.5q0 -209 -135 -341t-370 -132z
" />
    <glyph glyph-name="uni1EA0" unicode="&#x1ea0;" horiz-adv-x="1376" 
d="M53 0l570 1458h133l567 -1458h-158l-137 358h-684l-137 -358h-154zM397 494h578l-289 754zM576 -246q0 46 29 74.5t73 28.5t73.5 -28.5t29.5 -74.5q0 -45 -29.5 -73.5t-73.5 -28.5q-43 0 -72.5 28.5t-29.5 73.5z" />
    <glyph glyph-name="uni1EA1" unicode="&#x1ea1;" horiz-adv-x="1075" 
d="M444 -20q-140 0 -234.5 76.5t-94.5 215.5q0 50 12.5 90.5t38.5 70.5t53.5 51.5t72 40t78.5 29.5t87 26l350 93q-6 127 -86.5 198t-194.5 71q-108 0 -178.5 -45.5t-134.5 -151.5l-115 64q140 264 434 264q189 0 303.5 -107t114.5 -313v-653h-143v157q-63 -87 -160 -132
t-203 -45zM258 274q0 -83 54.5 -123t142.5 -40q59 0 117 15t112.5 46.5t88.5 90t34 136.5v149l-334 -89q-104 -28 -159.5 -68t-55.5 -117zM430 -246q0 46 29 74.5t73 28.5t73.5 -28.5t29.5 -74.5q0 -45 -29.5 -73.5t-73.5 -28.5q-43 0 -72.5 28.5t-29.5 73.5z" />
    <glyph glyph-name="uni1EA2" unicode="&#x1ea2;" horiz-adv-x="1376" 
d="M53 0l570 1458h133l567 -1458h-158l-137 358h-684l-137 -358h-154zM397 494h578l-289 754zM506 1927q63 34 139 34q94 0 151.5 -52.5t57.5 -135.5q0 -134 -162 -223l-59 92q94 54 94 127q0 36 -26 59t-70 23q-46 0 -88 -21z" />
    <glyph glyph-name="uni1EA3" unicode="&#x1ea3;" horiz-adv-x="1075" 
d="M444 -20q-140 0 -234.5 76.5t-94.5 215.5q0 50 12.5 90.5t38.5 70.5t53.5 51.5t72 40t78.5 29.5t87 26l350 93q-6 127 -86.5 198t-194.5 71q-108 0 -178.5 -45.5t-134.5 -151.5l-115 64q140 264 434 264q189 0 303.5 -107t114.5 -313v-653h-143v157q-63 -87 -160 -132
t-203 -45zM258 274q0 -83 54.5 -123t142.5 -40q59 0 117 15t112.5 46.5t88.5 90t34 136.5v149l-334 -89q-104 -28 -159.5 -68t-55.5 -117zM348 1522q63 34 139 34q94 0 151.5 -52.5t57.5 -135.5q0 -134 -162 -223l-59 92q94 54 94 127q0 36 -26 59t-70 23q-46 0 -88 -21z
" />
    <glyph glyph-name="uni1EA4" unicode="&#x1ea4;" horiz-adv-x="1376" 
d="M53 0l570 1458h133l567 -1458h-158l-137 358h-684l-137 -358h-154zM397 494h578l-289 754zM412 1579l209 380h139l205 -380h-129l-145 287l-148 -287h-131zM903 1794l86 340h142l-130 -340h-98z" />
    <glyph glyph-name="uni1EA5" unicode="&#x1ea5;" horiz-adv-x="1075" 
d="M444 -20q-140 0 -234.5 76.5t-94.5 215.5q0 50 12.5 90.5t38.5 70.5t53.5 51.5t72 40t78.5 29.5t87 26l350 93q-6 127 -86.5 198t-194.5 71q-108 0 -178.5 -45.5t-134.5 -151.5l-115 64q140 264 434 264q189 0 303.5 -107t114.5 -313v-653h-143v157q-63 -87 -160 -132
t-203 -45zM254 1174l209 380h139l205 -380h-129l-145 287l-148 -287h-131zM258 274q0 -83 54.5 -123t142.5 -40q59 0 117 15t112.5 46.5t88.5 90t34 136.5v149l-334 -89q-104 -28 -159.5 -68t-55.5 -117zM745 1389l86 340h142l-130 -340h-98z" />
    <glyph glyph-name="uni1EA6" unicode="&#x1ea6;" horiz-adv-x="1376" 
d="M53 0l570 1458h133l567 -1458h-158l-137 358h-684l-137 -358h-154zM397 494h578l-289 754zM412 1579l209 380h139l205 -380h-129l-145 287l-148 -287h-131zM842 2134h141l86 -340h-98z" />
    <glyph glyph-name="uni1EA7" unicode="&#x1ea7;" horiz-adv-x="1075" 
d="M444 -20q-140 0 -234.5 76.5t-94.5 215.5q0 50 12.5 90.5t38.5 70.5t53.5 51.5t72 40t78.5 29.5t87 26l350 93q-6 127 -86.5 198t-194.5 71q-108 0 -178.5 -45.5t-134.5 -151.5l-115 64q140 264 434 264q189 0 303.5 -107t114.5 -313v-653h-143v157q-63 -87 -160 -132
t-203 -45zM254 1174l209 380h139l205 -380h-129l-145 287l-148 -287h-131zM258 274q0 -83 54.5 -123t142.5 -40q59 0 117 15t112.5 46.5t88.5 90t34 136.5v149l-334 -89q-104 -28 -159.5 -68t-55.5 -117zM684 1729h141l86 -340h-98z" />
    <glyph glyph-name="uni1EA8" unicode="&#x1ea8;" horiz-adv-x="1376" 
d="M53 0l570 1458h133l567 -1458h-158l-137 358h-684l-137 -358h-154zM397 494h578l-289 754zM412 1579l209 380h139l205 -380h-129l-145 287l-148 -287h-131zM799 2130q63 34 139 34q94 0 151.5 -52.5t57.5 -135.5q0 -134 -162 -223l-59 92q94 54 94 127q0 36 -26 59
t-70 23q-46 0 -88 -21z" />
    <glyph glyph-name="uni1EA9" unicode="&#x1ea9;" horiz-adv-x="1075" 
d="M444 -20q-140 0 -234.5 76.5t-94.5 215.5q0 50 12.5 90.5t38.5 70.5t53.5 51.5t72 40t78.5 29.5t87 26l350 93q-6 127 -86.5 198t-194.5 71q-108 0 -178.5 -45.5t-134.5 -151.5l-115 64q140 264 434 264q189 0 303.5 -107t114.5 -313v-653h-143v157q-63 -87 -160 -132
t-203 -45zM254 1174l209 380h139l205 -380h-129l-145 287l-148 -287h-131zM258 274q0 -83 54.5 -123t142.5 -40q59 0 117 15t112.5 46.5t88.5 90t34 136.5v149l-334 -89q-104 -28 -159.5 -68t-55.5 -117zM641 1725q63 34 139 34q94 0 151.5 -52.5t57.5 -135.5
q0 -134 -162 -223l-59 92q94 54 94 127q0 36 -26 59t-70 23q-46 0 -88 -21z" />
    <glyph glyph-name="uni1EAA" unicode="&#x1eaa;" horiz-adv-x="1376" 
d="M53 0l570 1458h133l567 -1458h-158l-137 358h-684l-137 -358h-154zM367 1986q0 76 44 124t122 48q50 0 106 -25t103.5 -49.5t76.5 -24.5q31 0 48.5 20t17.5 52q0 21 -6 45l114 25q17 -48 17 -88q0 -77 -44.5 -126t-121.5 -49q-50 0 -106.5 25t-104.5 50.5t-78 25.5
q-31 0 -48 -20.5t-17 -53.5q0 -19 6 -43l-117 -22q-12 45 -12 86zM385 1579l236 299h139l231 -299h-135l-165 213l-169 -213h-137zM397 494h578l-289 754z" />
    <glyph glyph-name="uni1EAB" unicode="&#x1eab;" horiz-adv-x="1075" 
d="M444 -20q-140 0 -234.5 76.5t-94.5 215.5q0 50 12.5 90.5t38.5 70.5t53.5 51.5t72 40t78.5 29.5t87 26l350 93q-6 127 -86.5 198t-194.5 71q-108 0 -178.5 -45.5t-134.5 -151.5l-115 64q140 264 434 264q189 0 303.5 -107t114.5 -313v-653h-143v157q-63 -87 -160 -132
t-203 -45zM209 1581q0 76 44 124t122 48q39 0 83 -15.5t76 -34t67.5 -34t59.5 -15.5q31 0 48.5 20t17.5 52q0 21 -6 45l114 25q17 -48 17 -88q0 -77 -44.5 -126t-121.5 -49q-50 0 -106.5 25.5t-104.5 50.5t-78 25q-31 0 -48 -20.5t-17 -53.5q0 -19 6 -43l-117 -22
q-12 45 -12 86zM227 1174l236 299h139l231 -299h-135l-165 213l-169 -213h-137zM258 274q0 -83 54.5 -123t142.5 -40q59 0 117 15t112.5 46.5t88.5 90t34 136.5v149l-334 -89q-104 -28 -159.5 -68t-55.5 -117z" />
    <glyph glyph-name="uni1EAC" unicode="&#x1eac;" horiz-adv-x="1376" 
d="M53 0l570 1458h133l567 -1458h-158l-137 358h-684l-137 -358h-154zM397 494h578l-289 754zM412 1579l209 380h139l205 -380h-129l-145 287l-148 -287h-131zM576 -246q0 46 29 74.5t73 28.5t73.5 -28.5t29.5 -74.5q0 -45 -29.5 -73.5t-73.5 -28.5q-43 0 -72.5 28.5
t-29.5 73.5z" />
    <glyph glyph-name="uni1EAD" unicode="&#x1ead;" horiz-adv-x="1075" 
d="M444 -20q-140 0 -234.5 76.5t-94.5 215.5q0 50 12.5 90.5t38.5 70.5t53.5 51.5t72 40t78.5 29.5t87 26l350 93q-6 127 -86.5 198t-194.5 71q-108 0 -178.5 -45.5t-134.5 -151.5l-115 64q140 264 434 264q189 0 303.5 -107t114.5 -313v-653h-143v157q-63 -87 -160 -132
t-203 -45zM254 1174l209 380h139l205 -380h-129l-145 287l-148 -287h-131zM258 274q0 -83 54.5 -123t142.5 -40q59 0 117 15t112.5 46.5t88.5 90t34 136.5v149l-334 -89q-104 -28 -159.5 -68t-55.5 -117zM430 -246q0 46 29 74.5t73 28.5t73.5 -28.5t29.5 -74.5
q0 -45 -29.5 -73.5t-73.5 -28.5q-43 0 -72.5 28.5t-29.5 73.5z" />
    <glyph glyph-name="uni1EAE" unicode="&#x1eae;" horiz-adv-x="1376" 
d="M53 0l570 1458h133l567 -1458h-158l-137 358h-684l-137 -358h-154zM379 1798q0 44 27 108l112 -31q-10 -31 -10 -61q0 -121 180 -121q181 0 181 123q0 28 -9 59l115 33q26 -65 26 -110q0 -95 -81.5 -158.5t-229.5 -63.5t-229.5 63.5t-81.5 158.5zM397 494h578l-289 754z
M639 1906l86 380h156l-144 -380h-98z" />
    <glyph glyph-name="uni1EAF" unicode="&#x1eaf;" horiz-adv-x="1075" 
d="M444 -20q-140 0 -234.5 76.5t-94.5 215.5q0 50 12.5 90.5t38.5 70.5t53.5 51.5t72 40t78.5 29.5t87 26l350 93q-6 127 -86.5 198t-194.5 71q-108 0 -178.5 -45.5t-134.5 -151.5l-115 64q140 264 434 264q189 0 303.5 -107t114.5 -313v-653h-143v157q-63 -87 -160 -132
t-203 -45zM221 1393q0 44 27 108l112 -31q-10 -31 -10 -61q0 -121 180 -121q181 0 181 123q0 27 -9 59l115 33q26 -65 26 -110q0 -95 -81.5 -158.5t-229.5 -63.5t-229.5 63.5t-81.5 158.5zM258 274q0 -83 54.5 -123t142.5 -40q59 0 117 15t112.5 46.5t88.5 90t34 136.5v149
l-334 -89q-104 -28 -159.5 -68t-55.5 -117zM481 1501l86 380h156l-144 -380h-98z" />
    <glyph glyph-name="uni1EB0" unicode="&#x1eb0;" horiz-adv-x="1376" 
d="M53 0l570 1458h133l567 -1458h-158l-137 358h-684l-137 -358h-154zM379 1798q0 44 27 108l112 -31q-10 -31 -10 -61q0 -121 180 -121q181 0 181 123q0 28 -9 59l115 33q26 -65 26 -110q0 -95 -81.5 -158.5t-229.5 -63.5t-229.5 63.5t-81.5 158.5zM397 494h578l-289 754z
M498 2286h155l86 -380h-98z" />
    <glyph glyph-name="uni1EB1" unicode="&#x1eb1;" horiz-adv-x="1075" 
d="M444 -20q-140 0 -234.5 76.5t-94.5 215.5q0 50 12.5 90.5t38.5 70.5t53.5 51.5t72 40t78.5 29.5t87 26l350 93q-6 127 -86.5 198t-194.5 71q-108 0 -178.5 -45.5t-134.5 -151.5l-115 64q140 264 434 264q189 0 303.5 -107t114.5 -313v-653h-143v157q-63 -87 -160 -132
t-203 -45zM221 1393q0 44 27 108l112 -31q-10 -31 -10 -61q0 -121 180 -121q181 0 181 123q0 27 -9 59l115 33q26 -65 26 -110q0 -95 -81.5 -158.5t-229.5 -63.5t-229.5 63.5t-81.5 158.5zM258 274q0 -83 54.5 -123t142.5 -40q59 0 117 15t112.5 46.5t88.5 90t34 136.5v149
l-334 -89q-104 -28 -159.5 -68t-55.5 -117zM340 1881h155l86 -380h-98z" />
    <glyph glyph-name="uni1EB2" unicode="&#x1eb2;" horiz-adv-x="1376" 
d="M53 0l570 1458h133l567 -1458h-158l-137 358h-684l-137 -358h-154zM379 1798q0 44 27 108l112 -31q-10 -31 -10 -61q0 -121 180 -121q181 0 181 123q0 28 -9 59l115 33q26 -65 26 -110q0 -95 -81.5 -158.5t-229.5 -63.5t-229.5 63.5t-81.5 158.5zM397 494h578l-289 754z
M506 2254q63 34 139 34q94 0 151.5 -52.5t57.5 -135.5q0 -134 -162 -223l-59 92q94 54 94 127q0 36 -26 59t-70 23q-46 0 -88 -21z" />
    <glyph glyph-name="uni1EB3" unicode="&#x1eb3;" horiz-adv-x="1075" 
d="M444 -20q-140 0 -234.5 76.5t-94.5 215.5q0 50 12.5 90.5t38.5 70.5t53.5 51.5t72 40t78.5 29.5t87 26l350 93q-6 127 -86.5 198t-194.5 71q-108 0 -178.5 -45.5t-134.5 -151.5l-115 64q140 264 434 264q189 0 303.5 -107t114.5 -313v-653h-143v157q-63 -87 -160 -132
t-203 -45zM221 1393q0 44 27 108l112 -31q-10 -31 -10 -61q0 -121 180 -121q181 0 181 123q0 27 -9 59l115 33q26 -65 26 -110q0 -95 -81.5 -158.5t-229.5 -63.5t-229.5 63.5t-81.5 158.5zM258 274q0 -83 54.5 -123t142.5 -40q59 0 117 15t112.5 46.5t88.5 90t34 136.5v149
l-334 -89q-104 -28 -159.5 -68t-55.5 -117zM348 1849q63 34 139 34q94 0 151.5 -52.5t57.5 -135.5q0 -134 -162 -223l-59 92q94 54 94 127q0 36 -26 59t-70 23q-46 0 -88 -21z" />
    <glyph glyph-name="uni1EB4" unicode="&#x1eb4;" horiz-adv-x="1376" 
d="M53 0l570 1458h133l567 -1458h-158l-137 358h-684l-137 -358h-154zM369 2037q0 76 44 124t122 48q50 0 106 -24.5t103.5 -49t76.5 -24.5q31 0 48.5 20t17.5 52q0 19 -6 45l114 24q17 -46 17 -88q0 -77 -45 -125.5t-121 -48.5q-50 0 -106.5 25t-104.5 50.5t-78 25.5
q-31 0 -48 -20.5t-17 -53.5q0 -19 6 -43l-117 -23q-12 47 -12 86zM379 1798q0 44 27 108l112 -31q-10 -31 -10 -61q0 -121 180 -121q181 0 181 123q0 28 -9 59l115 33q26 -65 26 -110q0 -95 -81.5 -158.5t-229.5 -63.5t-229.5 63.5t-81.5 158.5zM397 494h578l-289 754z" />
    <glyph glyph-name="uni1EB5" unicode="&#x1eb5;" horiz-adv-x="1075" 
d="M444 -20q-140 0 -234.5 76.5t-94.5 215.5q0 50 12.5 90.5t38.5 70.5t53.5 51.5t72 40t78.5 29.5t87 26l350 93q-6 127 -86.5 198t-194.5 71q-108 0 -178.5 -45.5t-134.5 -151.5l-115 64q140 264 434 264q189 0 303.5 -107t114.5 -313v-653h-143v157q-63 -87 -160 -132
t-203 -45zM211 1632q0 76 44 124t122 48q50 0 106 -24.5t103.5 -49t76.5 -24.5q31 0 48.5 20t17.5 52q0 20 -6 45l114 24q17 -46 17 -88q0 -77 -45 -125.5t-121 -48.5q-50 0 -106.5 25.5t-104.5 50.5t-78 25q-31 0 -48 -20.5t-17 -53.5q0 -19 6 -43l-117 -23q-12 47 -12 86z
M221 1393q0 44 27 108l112 -31q-10 -31 -10 -61q0 -121 180 -121q181 0 181 123q0 27 -9 59l115 33q26 -65 26 -110q0 -95 -81.5 -158.5t-229.5 -63.5t-229.5 63.5t-81.5 158.5zM258 274q0 -83 54.5 -123t142.5 -40q59 0 117 15t112.5 46.5t88.5 90t34 136.5v149l-334 -89
q-104 -28 -159.5 -68t-55.5 -117z" />
    <glyph glyph-name="uni1EB6" unicode="&#x1eb6;" horiz-adv-x="1376" 
d="M53 0l570 1458h133l567 -1458h-158l-137 358h-684l-137 -358h-154zM397 494h578l-289 754zM428 1798q0 44 27 108l112 -31q-10 -33 -10 -64q0 -56 34.5 -89t98.5 -33q63 0 97 33t34 90q0 26 -10 63l115 33q26 -65 26 -110q0 -93 -73.5 -157.5t-188.5 -64.5
q-114 0 -188 64.5t-74 157.5zM576 -246q0 46 29 74.5t73 28.5t73.5 -28.5t29.5 -74.5q0 -45 -29.5 -73.5t-73.5 -28.5q-43 0 -72.5 28.5t-29.5 73.5z" />
    <glyph glyph-name="uni1EB7" unicode="&#x1eb7;" horiz-adv-x="1075" 
d="M444 -20q-140 0 -234.5 76.5t-94.5 215.5q0 50 12.5 90.5t38.5 70.5t53.5 51.5t72 40t78.5 29.5t87 26l350 93q-6 127 -86.5 198t-194.5 71q-108 0 -178.5 -45.5t-134.5 -151.5l-115 64q140 264 434 264q189 0 303.5 -107t114.5 -313v-653h-143v157q-63 -87 -160 -132
t-203 -45zM258 274q0 -83 54.5 -123t142.5 -40q59 0 117 15t112.5 46.5t88.5 90t34 136.5v149l-334 -89q-104 -28 -159.5 -68t-55.5 -117zM270 1393q0 44 27 108l112 -31q-10 -33 -10 -64q0 -56 34.5 -89t98.5 -33q63 0 97 33t34 90q0 26 -10 63l115 33q26 -65 26 -110
q0 -93 -73.5 -157.5t-188.5 -64.5q-114 0 -188 64.5t-74 157.5zM430 -246q0 46 29 74.5t73 28.5t73.5 -28.5t29.5 -74.5q0 -45 -29.5 -73.5t-73.5 -28.5q-43 0 -72.5 28.5t-29.5 73.5z" />
    <glyph glyph-name="uni1EB8" unicode="&#x1eb8;" horiz-adv-x="1307" 
d="M164 0v1458h958v-135h-811v-500h750v-135h-750v-553h852v-135h-999zM549 -246q0 46 29 74.5t73 28.5t73.5 -28.5t29.5 -74.5q0 -45 -29.5 -73.5t-73.5 -28.5q-43 0 -72.5 28.5t-29.5 73.5z" />
    <glyph glyph-name="uni1EB9" unicode="&#x1eb9;" horiz-adv-x="1188" 
d="M602 -20q-76 0 -148 19.5t-138 62.5t-115 105t-78 154.5t-29 204.5t30.5 204.5t81 155t118 105.5t140.5 62.5t150 19.5q101 0 186 -30.5t152 -92t104.5 -164.5t37.5 -239v-41h-856q3 -104 35.5 -182.5t85 -123.5t114.5 -67t131 -22q122 0 206 46t155 152l108 -71
q-155 -258 -471 -258zM247 631h701q-19 160 -107.5 235.5t-226.5 75.5q-62 0 -119.5 -17.5t-108.5 -53t-88 -97t-51 -143.5zM500 -246q0 46 29 74.5t73 28.5t73.5 -28.5t29.5 -74.5q0 -45 -29.5 -73.5t-73.5 -28.5q-43 0 -72.5 28.5t-29.5 73.5z" />
    <glyph glyph-name="uni1EBA" unicode="&#x1eba;" horiz-adv-x="1307" 
d="M164 0v1458h958v-135h-811v-500h750v-135h-750v-553h852v-135h-999zM467 1927q63 34 139 34q94 0 151.5 -52.5t57.5 -135.5q0 -134 -162 -223l-59 92q94 54 94 127q0 36 -26 59t-70 23q-46 0 -88 -21z" />
    <glyph glyph-name="uni1EBB" unicode="&#x1ebb;" horiz-adv-x="1188" 
d="M602 -20q-76 0 -148 19.5t-138 62.5t-115 105t-78 154.5t-29 204.5t30.5 204.5t81 155t118 105.5t140.5 62.5t150 19.5q101 0 186 -30.5t152 -92t104.5 -164.5t37.5 -239v-41h-856q3 -104 35.5 -182.5t85 -123.5t114.5 -67t131 -22q122 0 206 46t155 152l108 -71
q-155 -258 -471 -258zM247 631h701q-19 160 -107.5 235.5t-226.5 75.5q-62 0 -119.5 -17.5t-108.5 -53t-88 -97t-51 -143.5zM430 1522q63 34 139 34q94 0 151.5 -52.5t57.5 -135.5q0 -134 -162 -223l-59 92q94 54 94 127q0 36 -26 59t-70 23q-46 0 -88 -21z" />
    <glyph glyph-name="uni1EBC" unicode="&#x1ebc;" horiz-adv-x="1307" 
d="M164 0v1458h958v-135h-811v-500h750v-135h-750v-553h852v-135h-999zM330 1710q0 76 44 124t122 48q50 0 106 -25t103.5 -49.5t76.5 -24.5q31 0 48.5 20t17.5 52q0 21 -6 45l114 25q17 -48 17 -88q0 -77 -44.5 -126t-121.5 -49q-50 0 -106.5 25t-104.5 50.5t-78 25.5
q-31 0 -48 -20.5t-17 -53.5q0 -19 6 -43l-117 -22q-12 45 -12 86z" />
    <glyph glyph-name="uni1EBD" unicode="&#x1ebd;" horiz-adv-x="1188" 
d="M602 -20q-76 0 -148 19.5t-138 62.5t-115 105t-78 154.5t-29 204.5t30.5 204.5t81 155t118 105.5t140.5 62.5t150 19.5q101 0 186 -30.5t152 -92t104.5 -164.5t37.5 -239v-41h-856q3 -104 35.5 -182.5t85 -123.5t114.5 -67t131 -22q122 0 206 46t155 152l108 -71
q-155 -258 -471 -258zM247 631h701q-19 160 -107.5 235.5t-226.5 75.5q-62 0 -119.5 -17.5t-108.5 -53t-88 -97t-51 -143.5zM293 1305q0 76 44 124t122 48q39 0 83 -15.5t76 -34t67.5 -34t59.5 -15.5q31 0 48.5 20t17.5 52q0 21 -6 45l114 25q17 -48 17 -88
q0 -77 -44.5 -126t-121.5 -49q-50 0 -106.5 25.5t-104.5 50.5t-78 25q-31 0 -48 -20.5t-17 -53.5q0 -19 6 -43l-117 -22q-12 45 -12 86z" />
    <glyph glyph-name="uni1EBE" unicode="&#x1ebe;" horiz-adv-x="1307" 
d="M164 0v1458h958v-135h-811v-500h750v-135h-750v-553h852v-135h-999zM373 1579l209 380h139l205 -380h-129l-145 287l-148 -287h-131zM864 1794l86 340h142l-130 -340h-98z" />
    <glyph glyph-name="uni1EBF" unicode="&#x1ebf;" horiz-adv-x="1188" 
d="M602 -20q-76 0 -148 19.5t-138 62.5t-115 105t-78 154.5t-29 204.5t30.5 204.5t81 155t118 105.5t140.5 62.5t150 19.5q101 0 186 -30.5t152 -92t104.5 -164.5t37.5 -239v-41h-856q3 -104 35.5 -182.5t85 -123.5t114.5 -67t131 -22q122 0 206 46t155 152l108 -71
q-155 -258 -471 -258zM247 631h701q-19 160 -107.5 235.5t-226.5 75.5q-62 0 -119.5 -17.5t-108.5 -53t-88 -97t-51 -143.5zM336 1174l209 380h139l205 -380h-129l-145 287l-148 -287h-131zM827 1389l86 340h142l-130 -340h-98z" />
    <glyph glyph-name="uni1EC0" unicode="&#x1ec0;" horiz-adv-x="1307" 
d="M164 0v1458h958v-135h-811v-500h750v-135h-750v-553h852v-135h-999zM373 1579l209 380h139l205 -380h-129l-145 287l-148 -287h-131zM803 2134h141l86 -340h-98z" />
    <glyph glyph-name="uni1EC1" unicode="&#x1ec1;" horiz-adv-x="1188" 
d="M602 -20q-76 0 -148 19.5t-138 62.5t-115 105t-78 154.5t-29 204.5t30.5 204.5t81 155t118 105.5t140.5 62.5t150 19.5q101 0 186 -30.5t152 -92t104.5 -164.5t37.5 -239v-41h-856q3 -104 35.5 -182.5t85 -123.5t114.5 -67t131 -22q122 0 206 46t155 152l108 -71
q-155 -258 -471 -258zM247 631h701q-19 160 -107.5 235.5t-226.5 75.5q-62 0 -119.5 -17.5t-108.5 -53t-88 -97t-51 -143.5zM336 1174l209 380h139l205 -380h-129l-145 287l-148 -287h-131zM766 1729h141l86 -340h-98z" />
    <glyph glyph-name="uni1EC2" unicode="&#x1ec2;" horiz-adv-x="1307" 
d="M164 0v1458h958v-135h-811v-500h750v-135h-750v-553h852v-135h-999zM373 1579l209 380h139l205 -380h-129l-145 287l-148 -287h-131zM760 2130q63 34 139 34q94 0 151.5 -52.5t57.5 -135.5q0 -134 -162 -223l-59 92q94 54 94 127q0 36 -26 59t-70 23q-46 0 -88 -21z" />
    <glyph glyph-name="uni1EC3" unicode="&#x1ec3;" horiz-adv-x="1188" 
d="M602 -20q-76 0 -148 19.5t-138 62.5t-115 105t-78 154.5t-29 204.5t30.5 204.5t81 155t118 105.5t140.5 62.5t150 19.5q101 0 186 -30.5t152 -92t104.5 -164.5t37.5 -239v-41h-856q3 -104 35.5 -182.5t85 -123.5t114.5 -67t131 -22q122 0 206 46t155 152l108 -71
q-155 -258 -471 -258zM247 631h701q-19 160 -107.5 235.5t-226.5 75.5q-62 0 -119.5 -17.5t-108.5 -53t-88 -97t-51 -143.5zM336 1174l209 380h139l205 -380h-129l-145 287l-148 -287h-131zM723 1725q63 34 139 34q94 0 151.5 -52.5t57.5 -135.5q0 -134 -162 -223l-59 92
q94 54 94 127q0 36 -26 59t-70 23q-46 0 -88 -21z" />
    <glyph glyph-name="uni1EC4" unicode="&#x1ec4;" horiz-adv-x="1307" 
d="M164 0v1458h958v-135h-811v-500h750v-135h-750v-553h852v-135h-999zM328 1986q0 76 44 124t122 48q50 0 106 -25t103.5 -49.5t76.5 -24.5q31 0 48.5 20t17.5 52q0 21 -6 45l114 25q17 -48 17 -88q0 -77 -44.5 -126t-121.5 -49q-50 0 -106.5 25t-104.5 50.5t-78 25.5
q-31 0 -48 -20.5t-17 -53.5q0 -19 6 -43l-117 -22q-12 45 -12 86zM346 1579l236 299h139l231 -299h-135l-165 213l-169 -213h-137z" />
    <glyph glyph-name="uni1EC5" unicode="&#x1ec5;" horiz-adv-x="1188" 
d="M602 -20q-76 0 -148 19.5t-138 62.5t-115 105t-78 154.5t-29 204.5t30.5 204.5t81 155t118 105.5t140.5 62.5t150 19.5q101 0 186 -30.5t152 -92t104.5 -164.5t37.5 -239v-41h-856q3 -104 35.5 -182.5t85 -123.5t114.5 -67t131 -22q122 0 206 46t155 152l108 -71
q-155 -258 -471 -258zM247 631h701q-19 160 -107.5 235.5t-226.5 75.5q-62 0 -119.5 -17.5t-108.5 -53t-88 -97t-51 -143.5zM291 1581q0 76 44 124t122 48q39 0 83 -15.5t76 -34t67.5 -34t59.5 -15.5q31 0 48.5 20t17.5 52q0 21 -6 45l114 25q17 -48 17 -88
q0 -77 -44.5 -126t-121.5 -49q-50 0 -106.5 25.5t-104.5 50.5t-78 25q-31 0 -48 -20.5t-17 -53.5q0 -19 6 -43l-117 -22q-12 45 -12 86zM309 1174l236 299h139l231 -299h-135l-165 213l-169 -213h-137z" />
    <glyph glyph-name="uni1EC6" unicode="&#x1ec6;" horiz-adv-x="1307" 
d="M164 0v1458h958v-135h-811v-500h750v-135h-750v-553h852v-135h-999zM373 1579l209 380h139l205 -380h-129l-145 287l-148 -287h-131zM549 -246q0 46 29 74.5t73 28.5t73.5 -28.5t29.5 -74.5q0 -45 -29.5 -73.5t-73.5 -28.5q-43 0 -72.5 28.5t-29.5 73.5z" />
    <glyph glyph-name="uni1EC7" unicode="&#x1ec7;" horiz-adv-x="1188" 
d="M602 -20q-76 0 -148 19.5t-138 62.5t-115 105t-78 154.5t-29 204.5t30.5 204.5t81 155t118 105.5t140.5 62.5t150 19.5q101 0 186 -30.5t152 -92t104.5 -164.5t37.5 -239v-41h-856q3 -104 35.5 -182.5t85 -123.5t114.5 -67t131 -22q122 0 206 46t155 152l108 -71
q-155 -258 -471 -258zM247 631h701q-19 160 -107.5 235.5t-226.5 75.5q-62 0 -119.5 -17.5t-108.5 -53t-88 -97t-51 -143.5zM336 1174l209 380h139l205 -380h-129l-145 287l-148 -287h-131zM500 -246q0 46 29 74.5t73 28.5t73.5 -28.5t29.5 -74.5q0 -45 -29.5 -73.5
t-73.5 -28.5q-43 0 -72.5 28.5t-29.5 73.5z" />
    <glyph glyph-name="uni1EC8" unicode="&#x1ec8;" horiz-adv-x="475" 
d="M164 0v1458h147v-1458h-147zM54 1927q63 34 139 34q94 0 151.5 -52.5t57.5 -135.5q0 -134 -162 -223l-59 92q94 54 94 127q0 36 -26 59t-70 23q-46 0 -88 -21z" />
    <glyph glyph-name="uni1EC9" unicode="&#x1ec9;" horiz-adv-x="438" 
d="M147 0v1053h144v-1053h-144zM35 1522q63 34 139 34q94 0 151.5 -52.5t57.5 -135.5q0 -134 -162 -223l-59 92q94 54 94 127q0 36 -26 59t-70 23q-46 0 -88 -21z" />
    <glyph glyph-name="uni1ECA" unicode="&#x1eca;" horiz-adv-x="475" 
d="M164 0v1458h147v-1458h-147zM136 -246q0 46 29 74.5t73 28.5t73.5 -28.5t29.5 -74.5q0 -45 -29.5 -73.5t-73.5 -28.5q-43 0 -72.5 28.5t-29.5 73.5z" />
    <glyph glyph-name="uni1ECB" unicode="&#x1ecb;" horiz-adv-x="438" 
d="M147 0v1053h144v-1053h-144zM117 -246q0 46 29 74.5t73 28.5t73.5 -28.5t29.5 -74.5q0 -45 -29.5 -73.5t-73.5 -28.5q-43 0 -72.5 28.5t-29.5 73.5zM117 1393q0 45 29.5 73.5t72.5 28.5q44 0 73.5 -28.5t29.5 -73.5q0 -46 -29.5 -74.5t-73.5 -28.5t-73 28.5t-29 74.5z
" />
    <glyph glyph-name="uni1ECC" unicode="&#x1ecc;" horiz-adv-x="1548" 
d="M774 -20q-194 0 -345 96.5t-232.5 266.5t-81.5 386q0 161 48 300t133 238t208.5 155.5t269.5 56.5q194 0 345 -96.5t233 -267t82 -386.5q0 -215 -82 -385.5t-233 -267t-345 -96.5zM262 729q0 -274 139.5 -444t372.5 -170t372.5 170t139.5 444t-139.5 444t-372.5 170
t-372.5 -170t-139.5 -444zM652 -246q0 46 29 74.5t73 28.5t73.5 -28.5t29.5 -74.5q0 -45 -29.5 -73.5t-73.5 -28.5q-43 0 -72.5 28.5t-29.5 73.5z" />
    <glyph glyph-name="uni1ECD" unicode="&#x1ecd;" horiz-adv-x="1202" 
d="M600 -20q-76 0 -147.5 19.5t-137 62.5t-114.5 105t-78 154.5t-29 204.5t29 204.5t78 155t114.5 105.5t137 62.5t147.5 19.5t147.5 -19.5t137.5 -62.5t115 -105.5t78.5 -155t29.5 -204.5t-29.5 -204.5t-78.5 -154.5t-115 -105t-137.5 -62.5t-147.5 -19.5zM238 526
q0 -110 31 -193t84 -130t115 -69.5t132 -22.5q56 0 107 13.5t99 45t82.5 78.5t55.5 118t21 160q0 110 -31 193t-84.5 130t-116 70t-133.5 23q-70 0 -132 -23t-115 -70t-84 -130t-31 -193zM500 -246q0 46 29 74.5t73 28.5t73.5 -28.5t29.5 -74.5q0 -45 -29.5 -73.5
t-73.5 -28.5q-43 0 -72.5 28.5t-29.5 73.5z" />
    <glyph glyph-name="uni1ECE" unicode="&#x1ece;" horiz-adv-x="1548" 
d="M774 -20q-194 0 -345 96.5t-232.5 266.5t-81.5 386q0 161 48 300t133 238t208.5 155.5t269.5 56.5q194 0 345 -96.5t233 -267t82 -386.5q0 -215 -82 -385.5t-233 -267t-345 -96.5zM262 729q0 -274 139.5 -444t372.5 -170t372.5 170t139.5 444t-139.5 444t-372.5 170
t-372.5 -170t-139.5 -444zM590 1927q63 34 139 34q94 0 151.5 -52.5t57.5 -135.5q0 -134 -162 -223l-59 92q94 54 94 127q0 36 -26 59t-70 23q-46 0 -88 -21z" />
    <glyph glyph-name="uni1ECF" unicode="&#x1ecf;" horiz-adv-x="1202" 
d="M600 -20q-76 0 -147.5 19.5t-137 62.5t-114.5 105t-78 154.5t-29 204.5t29 204.5t78 155t114.5 105.5t137 62.5t147.5 19.5t147.5 -19.5t137.5 -62.5t115 -105.5t78.5 -155t29.5 -204.5t-29.5 -204.5t-78.5 -154.5t-115 -105t-137.5 -62.5t-147.5 -19.5zM238 526
q0 -110 31 -193t84 -130t115 -69.5t132 -22.5q56 0 107 13.5t99 45t82.5 78.5t55.5 118t21 160q0 110 -31 193t-84.5 130t-116 70t-133.5 23q-70 0 -132 -23t-115 -70t-84 -130t-31 -193zM418 1522q63 34 139 34q94 0 151.5 -52.5t57.5 -135.5q0 -134 -162 -223l-59 92
q94 54 94 127q0 36 -26 59t-70 23q-46 0 -88 -21z" />
    <glyph glyph-name="uni1ED0" unicode="&#x1ed0;" horiz-adv-x="1548" 
d="M774 -20q-194 0 -345 96.5t-232.5 266.5t-81.5 386q0 161 48 300t133 238t208.5 155.5t269.5 56.5q194 0 345 -96.5t233 -267t82 -386.5q0 -215 -82 -385.5t-233 -267t-345 -96.5zM262 729q0 -274 139.5 -444t372.5 -170t372.5 170t139.5 444t-139.5 444t-372.5 170
t-372.5 -170t-139.5 -444zM496 1579l209 380h139l205 -380h-129l-145 287l-148 -287h-131zM987 1794l86 340h142l-130 -340h-98z" />
    <glyph glyph-name="uni1ED1" unicode="&#x1ed1;" horiz-adv-x="1202" 
d="M600 -20q-76 0 -147.5 19.5t-137 62.5t-114.5 105t-78 154.5t-29 204.5t29 204.5t78 155t114.5 105.5t137 62.5t147.5 19.5t147.5 -19.5t137.5 -62.5t115 -105.5t78.5 -155t29.5 -204.5t-29.5 -204.5t-78.5 -154.5t-115 -105t-137.5 -62.5t-147.5 -19.5zM238 526
q0 -110 31 -193t84 -130t115 -69.5t132 -22.5q56 0 107 13.5t99 45t82.5 78.5t55.5 118t21 160q0 110 -31 193t-84.5 130t-116 70t-133.5 23q-70 0 -132 -23t-115 -70t-84 -130t-31 -193zM324 1174l209 380h139l205 -380h-129l-145 287l-148 -287h-131zM815 1389l86 340h142
l-130 -340h-98z" />
    <glyph glyph-name="uni1ED2" unicode="&#x1ed2;" horiz-adv-x="1548" 
d="M774 -20q-194 0 -345 96.5t-232.5 266.5t-81.5 386q0 161 48 300t133 238t208.5 155.5t269.5 56.5q194 0 345 -96.5t233 -267t82 -386.5q0 -215 -82 -385.5t-233 -267t-345 -96.5zM262 729q0 -274 139.5 -444t372.5 -170t372.5 170t139.5 444t-139.5 444t-372.5 170
t-372.5 -170t-139.5 -444zM496 1579l209 380h139l205 -380h-129l-145 287l-148 -287h-131zM926 2134h141l86 -340h-98z" />
    <glyph glyph-name="uni1ED3" unicode="&#x1ed3;" horiz-adv-x="1202" 
d="M600 -20q-76 0 -147.5 19.5t-137 62.5t-114.5 105t-78 154.5t-29 204.5t29 204.5t78 155t114.5 105.5t137 62.5t147.5 19.5t147.5 -19.5t137.5 -62.5t115 -105.5t78.5 -155t29.5 -204.5t-29.5 -204.5t-78.5 -154.5t-115 -105t-137.5 -62.5t-147.5 -19.5zM238 526
q0 -110 31 -193t84 -130t115 -69.5t132 -22.5q56 0 107 13.5t99 45t82.5 78.5t55.5 118t21 160q0 110 -31 193t-84.5 130t-116 70t-133.5 23q-70 0 -132 -23t-115 -70t-84 -130t-31 -193zM324 1174l209 380h139l205 -380h-129l-145 287l-148 -287h-131zM754 1729h141
l86 -340h-98z" />
    <glyph glyph-name="uni1ED4" unicode="&#x1ed4;" horiz-adv-x="1548" 
d="M774 -20q-194 0 -345 96.5t-232.5 266.5t-81.5 386q0 161 48 300t133 238t208.5 155.5t269.5 56.5q194 0 345 -96.5t233 -267t82 -386.5q0 -215 -82 -385.5t-233 -267t-345 -96.5zM262 729q0 -274 139.5 -444t372.5 -170t372.5 170t139.5 444t-139.5 444t-372.5 170
t-372.5 -170t-139.5 -444zM496 1579l209 380h139l205 -380h-129l-145 287l-148 -287h-131zM883 2130q63 34 139 34q94 0 151.5 -52.5t57.5 -135.5q0 -134 -162 -223l-59 92q94 54 94 127q0 36 -26 59t-70 23q-46 0 -88 -21z" />
    <glyph glyph-name="uni1ED5" unicode="&#x1ed5;" horiz-adv-x="1202" 
d="M600 -20q-76 0 -147.5 19.5t-137 62.5t-114.5 105t-78 154.5t-29 204.5t29 204.5t78 155t114.5 105.5t137 62.5t147.5 19.5t147.5 -19.5t137.5 -62.5t115 -105.5t78.5 -155t29.5 -204.5t-29.5 -204.5t-78.5 -154.5t-115 -105t-137.5 -62.5t-147.5 -19.5zM238 526
q0 -110 31 -193t84 -130t115 -69.5t132 -22.5q56 0 107 13.5t99 45t82.5 78.5t55.5 118t21 160q0 110 -31 193t-84.5 130t-116 70t-133.5 23q-70 0 -132 -23t-115 -70t-84 -130t-31 -193zM324 1174l209 380h139l205 -380h-129l-145 287l-148 -287h-131zM711 1725
q63 34 139 34q94 0 151.5 -52.5t57.5 -135.5q0 -134 -162 -223l-59 92q94 54 94 127q0 36 -26 59t-70 23q-46 0 -88 -21z" />
    <glyph glyph-name="uni1ED6" unicode="&#x1ed6;" horiz-adv-x="1548" 
d="M774 -20q-194 0 -345 96.5t-232.5 266.5t-81.5 386q0 161 48 300t133 238t208.5 155.5t269.5 56.5q194 0 345 -96.5t233 -267t82 -386.5q0 -215 -82 -385.5t-233 -267t-345 -96.5zM262 729q0 -274 139.5 -444t372.5 -170t372.5 170t139.5 444t-139.5 444t-372.5 170
t-372.5 -170t-139.5 -444zM451 1986q0 76 44 124t122 48q50 0 106 -25t103.5 -49.5t76.5 -24.5q31 0 48.5 20t17.5 52q0 21 -6 45l114 25q17 -48 17 -88q0 -77 -44.5 -126t-121.5 -49q-50 0 -106.5 25t-104.5 50.5t-78 25.5q-31 0 -48 -20.5t-17 -53.5q0 -19 6 -43l-117 -22
q-12 45 -12 86zM469 1579l236 299h139l231 -299h-135l-165 213l-169 -213h-137z" />
    <glyph glyph-name="uni1ED7" unicode="&#x1ed7;" horiz-adv-x="1202" 
d="M600 -20q-76 0 -147.5 19.5t-137 62.5t-114.5 105t-78 154.5t-29 204.5t29 204.5t78 155t114.5 105.5t137 62.5t147.5 19.5t147.5 -19.5t137.5 -62.5t115 -105.5t78.5 -155t29.5 -204.5t-29.5 -204.5t-78.5 -154.5t-115 -105t-137.5 -62.5t-147.5 -19.5zM238 526
q0 -110 31 -193t84 -130t115 -69.5t132 -22.5q56 0 107 13.5t99 45t82.5 78.5t55.5 118t21 160q0 110 -31 193t-84.5 130t-116 70t-133.5 23q-70 0 -132 -23t-115 -70t-84 -130t-31 -193zM279 1581q0 76 44 124t122 48q39 0 83 -15.5t76 -34t67.5 -34t59.5 -15.5
q31 0 48.5 20t17.5 52q0 21 -6 45l114 25q17 -48 17 -88q0 -77 -44.5 -126t-121.5 -49q-50 0 -106.5 25.5t-104.5 50.5t-78 25q-31 0 -48 -20.5t-17 -53.5q0 -19 6 -43l-117 -22q-12 45 -12 86zM297 1174l236 299h139l231 -299h-135l-165 213l-169 -213h-137z" />
    <glyph glyph-name="uni1ED8" unicode="&#x1ed8;" horiz-adv-x="1548" 
d="M774 -20q-194 0 -345 96.5t-232.5 266.5t-81.5 386q0 161 48 300t133 238t208.5 155.5t269.5 56.5q194 0 345 -96.5t233 -267t82 -386.5q0 -215 -82 -385.5t-233 -267t-345 -96.5zM262 729q0 -274 139.5 -444t372.5 -170t372.5 170t139.5 444t-139.5 444t-372.5 170
t-372.5 -170t-139.5 -444zM496 1579l209 380h139l205 -380h-129l-145 287l-148 -287h-131zM652 -246q0 46 29 74.5t73 28.5t73.5 -28.5t29.5 -74.5q0 -45 -29.5 -73.5t-73.5 -28.5q-43 0 -72.5 28.5t-29.5 73.5z" />
    <glyph glyph-name="uni1ED9" unicode="&#x1ed9;" horiz-adv-x="1202" 
d="M600 -20q-76 0 -147.5 19.5t-137 62.5t-114.5 105t-78 154.5t-29 204.5t29 204.5t78 155t114.5 105.5t137 62.5t147.5 19.5t147.5 -19.5t137.5 -62.5t115 -105.5t78.5 -155t29.5 -204.5t-29.5 -204.5t-78.5 -154.5t-115 -105t-137.5 -62.5t-147.5 -19.5zM238 526
q0 -110 31 -193t84 -130t115 -69.5t132 -22.5q56 0 107 13.5t99 45t82.5 78.5t55.5 118t21 160q0 110 -31 193t-84.5 130t-116 70t-133.5 23q-70 0 -132 -23t-115 -70t-84 -130t-31 -193zM324 1174l209 380h139l205 -380h-129l-145 287l-148 -287h-131zM500 -246
q0 46 29 74.5t73 28.5t73.5 -28.5t29.5 -74.5q0 -45 -29.5 -73.5t-73.5 -28.5q-43 0 -72.5 28.5t-29.5 73.5z" />
    <glyph glyph-name="uni1EDA" unicode="&#x1eda;" horiz-adv-x="1548" 
d="M774 -20q-194 0 -345 96.5t-232.5 266.5t-81.5 386q0 161 48 300t133 238t208.5 155.5t269.5 56.5q96 0 219.5 -18.5t171.5 -18.5q70 0 101.5 37.5t31.5 99.5v107h129v-125q0 -99 -63 -168.5t-180 -69.5h-5q126 -96 190.5 -252t64.5 -342q0 -215 -82 -385.5t-233 -267
t-345 -96.5zM262 729q0 -274 139.5 -444t372.5 -170t372.5 170t139.5 444t-139.5 444t-372.5 170t-372.5 -170t-139.5 -444zM723 1579l86 380h156l-144 -380h-98z" />
    <glyph glyph-name="uni1EDB" unicode="&#x1edb;" horiz-adv-x="1202" 
d="M600 -20q-76 0 -147.5 19.5t-137 62.5t-114.5 105t-78 154.5t-29 204.5t29 204.5t78 155t114.5 105.5t137 62.5t147.5 19.5q75 0 173.5 -10t115.5 -10q53 0 82.5 40.5t29.5 100.5v86h129v-104q0 -89 -51.5 -150.5t-143.5 -70.5q173 -146 173 -429q0 -112 -29.5 -204.5
t-78.5 -154.5t-115 -105t-137.5 -62.5t-147.5 -19.5zM238 526q0 -110 31 -193t84 -130t115 -69.5t132 -22.5q56 0 107 13.5t99 45t82.5 78.5t55.5 118t21 160q0 110 -31 193t-84.5 130t-116 70t-133.5 23q-70 0 -132 -23t-115 -70t-84 -130t-31 -193zM551 1174l86 380h156
l-144 -380h-98z" />
    <glyph glyph-name="uni1EDC" unicode="&#x1edc;" horiz-adv-x="1548" 
d="M774 -20q-194 0 -345 96.5t-232.5 266.5t-81.5 386q0 161 48 300t133 238t208.5 155.5t269.5 56.5q96 0 219.5 -18.5t171.5 -18.5q70 0 101.5 37.5t31.5 99.5v107h129v-125q0 -99 -63 -168.5t-180 -69.5h-5q126 -96 190.5 -252t64.5 -342q0 -215 -82 -385.5t-233 -267
t-345 -96.5zM262 729q0 -274 139.5 -444t372.5 -170t372.5 170t139.5 444t-139.5 444t-372.5 170t-372.5 -170t-139.5 -444zM582 1959h155l86 -380h-98z" />
    <glyph glyph-name="uni1EDD" unicode="&#x1edd;" horiz-adv-x="1202" 
d="M600 -20q-76 0 -147.5 19.5t-137 62.5t-114.5 105t-78 154.5t-29 204.5t29 204.5t78 155t114.5 105.5t137 62.5t147.5 19.5q75 0 173.5 -10t115.5 -10q53 0 82.5 40.5t29.5 100.5v86h129v-104q0 -89 -51.5 -150.5t-143.5 -70.5q173 -146 173 -429q0 -112 -29.5 -204.5
t-78.5 -154.5t-115 -105t-137.5 -62.5t-147.5 -19.5zM238 526q0 -110 31 -193t84 -130t115 -69.5t132 -22.5q56 0 107 13.5t99 45t82.5 78.5t55.5 118t21 160q0 110 -31 193t-84.5 130t-116 70t-133.5 23q-70 0 -132 -23t-115 -70t-84 -130t-31 -193zM410 1554h155l86 -380
h-98z" />
    <glyph glyph-name="uni1EDE" unicode="&#x1ede;" horiz-adv-x="1548" 
d="M774 -20q-194 0 -345 96.5t-232.5 266.5t-81.5 386q0 161 48 300t133 238t208.5 155.5t269.5 56.5q96 0 219.5 -18.5t171.5 -18.5q70 0 101.5 37.5t31.5 99.5v107h129v-125q0 -99 -63 -168.5t-180 -69.5h-5q126 -96 190.5 -252t64.5 -342q0 -215 -82 -385.5t-233 -267
t-345 -96.5zM262 729q0 -274 139.5 -444t372.5 -170t372.5 170t139.5 444t-139.5 444t-372.5 170t-372.5 -170t-139.5 -444zM590 1927q63 34 139 34q94 0 151.5 -52.5t57.5 -135.5q0 -134 -162 -223l-59 92q94 54 94 127q0 36 -26 59t-70 23q-46 0 -88 -21z" />
    <glyph glyph-name="uni1EDF" unicode="&#x1edf;" horiz-adv-x="1202" 
d="M600 -20q-76 0 -147.5 19.5t-137 62.5t-114.5 105t-78 154.5t-29 204.5t29 204.5t78 155t114.5 105.5t137 62.5t147.5 19.5q75 0 173.5 -10t115.5 -10q53 0 82.5 40.5t29.5 100.5v86h129v-104q0 -89 -51.5 -150.5t-143.5 -70.5q173 -146 173 -429q0 -112 -29.5 -204.5
t-78.5 -154.5t-115 -105t-137.5 -62.5t-147.5 -19.5zM238 526q0 -110 31 -193t84 -130t115 -69.5t132 -22.5q56 0 107 13.5t99 45t82.5 78.5t55.5 118t21 160q0 110 -31 193t-84.5 130t-116 70t-133.5 23q-70 0 -132 -23t-115 -70t-84 -130t-31 -193zM418 1522q63 34 139 34
q94 0 151.5 -52.5t57.5 -135.5q0 -134 -162 -223l-59 92q94 54 94 127q0 36 -26 59t-70 23q-46 0 -88 -21z" />
    <glyph glyph-name="uni1EE0" unicode="&#x1ee0;" horiz-adv-x="1548" 
d="M774 -20q-194 0 -345 96.5t-232.5 266.5t-81.5 386q0 161 48 300t133 238t208.5 155.5t269.5 56.5q96 0 219.5 -18.5t171.5 -18.5q70 0 101.5 37.5t31.5 99.5v107h129v-125q0 -99 -63 -168.5t-180 -69.5h-5q126 -96 190.5 -252t64.5 -342q0 -215 -82 -385.5t-233 -267
t-345 -96.5zM262 729q0 -274 139.5 -444t372.5 -170t372.5 170t139.5 444t-139.5 444t-372.5 170t-372.5 -170t-139.5 -444zM453 1710q0 76 44 124t122 48q50 0 106 -25t103.5 -49.5t76.5 -24.5q31 0 48.5 20t17.5 52q0 21 -6 45l114 25q17 -48 17 -88q0 -77 -44.5 -126
t-121.5 -49q-50 0 -106.5 25t-104.5 50.5t-78 25.5q-31 0 -48 -20.5t-17 -53.5q0 -19 6 -43l-117 -22q-12 45 -12 86z" />
    <glyph glyph-name="uni1EE1" unicode="&#x1ee1;" horiz-adv-x="1202" 
d="M600 -20q-76 0 -147.5 19.5t-137 62.5t-114.5 105t-78 154.5t-29 204.5t29 204.5t78 155t114.5 105.5t137 62.5t147.5 19.5q75 0 173.5 -10t115.5 -10q53 0 82.5 40.5t29.5 100.5v86h129v-104q0 -89 -51.5 -150.5t-143.5 -70.5q173 -146 173 -429q0 -112 -29.5 -204.5
t-78.5 -154.5t-115 -105t-137.5 -62.5t-147.5 -19.5zM238 526q0 -110 31 -193t84 -130t115 -69.5t132 -22.5q56 0 107 13.5t99 45t82.5 78.5t55.5 118t21 160q0 110 -31 193t-84.5 130t-116 70t-133.5 23q-70 0 -132 -23t-115 -70t-84 -130t-31 -193zM281 1305q0 76 44 124
t122 48q39 0 83 -15.5t76 -34t67.5 -34t59.5 -15.5q31 0 48.5 20t17.5 52q0 21 -6 45l114 25q17 -48 17 -88q0 -77 -44.5 -126t-121.5 -49q-50 0 -106.5 25.5t-104.5 50.5t-78 25q-31 0 -48 -20.5t-17 -53.5q0 -19 6 -43l-117 -22q-12 45 -12 86z" />
    <glyph glyph-name="uni1EE2" unicode="&#x1ee2;" horiz-adv-x="1548" 
d="M774 -20q-194 0 -345 96.5t-232.5 266.5t-81.5 386q0 161 48 300t133 238t208.5 155.5t269.5 56.5q96 0 219.5 -18.5t171.5 -18.5q70 0 101.5 37.5t31.5 99.5v107h129v-125q0 -99 -63 -168.5t-180 -69.5h-5q126 -96 190.5 -252t64.5 -342q0 -215 -82 -385.5t-233 -267
t-345 -96.5zM262 729q0 -274 139.5 -444t372.5 -170t372.5 170t139.5 444t-139.5 444t-372.5 170t-372.5 -170t-139.5 -444zM652 -246q0 46 29 74.5t73 28.5t73.5 -28.5t29.5 -74.5q0 -45 -29.5 -73.5t-73.5 -28.5q-43 0 -72.5 28.5t-29.5 73.5z" />
    <glyph glyph-name="uni1EE3" unicode="&#x1ee3;" horiz-adv-x="1202" 
d="M600 -20q-76 0 -147.5 19.5t-137 62.5t-114.5 105t-78 154.5t-29 204.5t29 204.5t78 155t114.5 105.5t137 62.5t147.5 19.5q75 0 173.5 -10t115.5 -10q53 0 82.5 40.5t29.5 100.5v86h129v-104q0 -89 -51.5 -150.5t-143.5 -70.5q173 -146 173 -429q0 -112 -29.5 -204.5
t-78.5 -154.5t-115 -105t-137.5 -62.5t-147.5 -19.5zM238 526q0 -110 31 -193t84 -130t115 -69.5t132 -22.5q56 0 107 13.5t99 45t82.5 78.5t55.5 118t21 160q0 110 -31 193t-84.5 130t-116 70t-133.5 23q-70 0 -132 -23t-115 -70t-84 -130t-31 -193zM500 -246q0 46 29 74.5
t73 28.5t73.5 -28.5t29.5 -74.5q0 -45 -29.5 -73.5t-73.5 -28.5q-43 0 -72.5 28.5t-29.5 73.5z" />
    <glyph glyph-name="uni1EE4" unicode="&#x1ee4;" horiz-adv-x="1438" 
d="M719 -20q-240 0 -397.5 156t-157.5 392v930h147v-930q0 -187 109.5 -300t298.5 -113t298 113t109 300v930h148v-930q0 -236 -158 -392t-397 -156zM617 -246q0 46 29 74.5t73 28.5t73.5 -28.5t29.5 -74.5q0 -45 -29.5 -73.5t-73.5 -28.5q-43 0 -72.5 28.5t-29.5 73.5z" />
    <glyph glyph-name="uni1EE5" unicode="&#x1ee5;" horiz-adv-x="1137" 
d="M269 1053v-639q0 -138 80.5 -219.5t216.5 -81.5q135 0 216 81t81 216v643h143v-1053h-143v146q-55 -78 -140.5 -122t-187.5 -44q-191 0 -300.5 116t-109.5 318v639h144zM484 -246q0 46 29 74.5t73 28.5t73.5 -28.5t29.5 -74.5q0 -45 -29.5 -73.5t-73.5 -28.5
q-43 0 -72.5 28.5t-29.5 73.5z" />
    <glyph glyph-name="uni1EE6" unicode="&#x1ee6;" horiz-adv-x="1438" 
d="M719 -20q-240 0 -397.5 156t-157.5 392v930h147v-930q0 -187 109.5 -300t298.5 -113t298 113t109 300v930h148v-930q0 -236 -158 -392t-397 -156zM535 1927q63 34 139 34q94 0 151.5 -52.5t57.5 -135.5q0 -134 -162 -223l-59 92q94 54 94 127q0 36 -26 59t-70 23
q-46 0 -88 -21z" />
    <glyph glyph-name="uni1EE7" unicode="&#x1ee7;" horiz-adv-x="1137" 
d="M269 1053v-639q0 -138 80.5 -219.5t216.5 -81.5q135 0 216 81t81 216v643h143v-1053h-143v146q-55 -78 -140.5 -122t-187.5 -44q-191 0 -300.5 116t-109.5 318v639h144zM381 1522q63 34 139 34q94 0 151.5 -52.5t57.5 -135.5q0 -134 -162 -223l-59 92q94 54 94 127
q0 36 -26 59t-70 23q-46 0 -88 -21z" />
    <glyph glyph-name="uni1EE8" unicode="&#x1ee8;" horiz-adv-x="1438" 
d="M719 -20q-240 0 -397.5 156t-157.5 392v930h147v-930q0 -187 109.5 -300t298.5 -113t298 113t109 300v930h70q53 0 83 40.5t30 100.5v86h129v-104q0 -80 -43.5 -139.5t-120.5 -77.5v-836q0 -236 -158 -392t-397 -156zM668 1579l86 380h156l-144 -380h-98z" />
    <glyph glyph-name="uni1EE9" unicode="&#x1ee9;" horiz-adv-x="1137" 
d="M269 1053v-639q0 -138 80.5 -219.5t216.5 -81.5q135 0 216 81t81 216v643h65q53 0 83 40.5t30 100.5v86h129v-104q0 -80 -43.5 -139.5t-120.5 -77.5v-959h-143v146q-55 -78 -140.5 -122t-187.5 -44q-191 0 -300.5 116t-109.5 318v639h144zM514 1174l86 380h156l-144 -380
h-98z" />
    <glyph glyph-name="uni1EEA" unicode="&#x1eea;" horiz-adv-x="1438" 
d="M719 -20q-240 0 -397.5 156t-157.5 392v930h147v-930q0 -187 109.5 -300t298.5 -113t298 113t109 300v930h70q53 0 83 40.5t30 100.5v86h129v-104q0 -80 -43.5 -139.5t-120.5 -77.5v-836q0 -236 -158 -392t-397 -156zM527 1959h155l86 -380h-98z" />
    <glyph glyph-name="uni1EEB" unicode="&#x1eeb;" horiz-adv-x="1137" 
d="M269 1053v-639q0 -138 80.5 -219.5t216.5 -81.5q135 0 216 81t81 216v643h65q53 0 83 40.5t30 100.5v86h129v-104q0 -80 -43.5 -139.5t-120.5 -77.5v-959h-143v146q-55 -78 -140.5 -122t-187.5 -44q-191 0 -300.5 116t-109.5 318v639h144zM373 1554h155l86 -380h-98z" />
    <glyph glyph-name="uni1EEC" unicode="&#x1eec;" horiz-adv-x="1438" 
d="M719 -20q-240 0 -397.5 156t-157.5 392v930h147v-930q0 -187 109.5 -300t298.5 -113t298 113t109 300v930h70q53 0 83 40.5t30 100.5v86h129v-104q0 -80 -43.5 -139.5t-120.5 -77.5v-836q0 -236 -158 -392t-397 -156zM535 1927q63 34 139 34q94 0 151.5 -52.5
t57.5 -135.5q0 -134 -162 -223l-59 92q94 54 94 127q0 36 -26 59t-70 23q-46 0 -88 -21z" />
    <glyph glyph-name="uni1EED" unicode="&#x1eed;" horiz-adv-x="1137" 
d="M269 1053v-639q0 -138 80.5 -219.5t216.5 -81.5q135 0 216 81t81 216v643h65q53 0 83 40.5t30 100.5v86h129v-104q0 -80 -43.5 -139.5t-120.5 -77.5v-959h-143v146q-55 -78 -140.5 -122t-187.5 -44q-191 0 -300.5 116t-109.5 318v639h144zM381 1522q63 34 139 34
q94 0 151.5 -52.5t57.5 -135.5q0 -134 -162 -223l-59 92q94 54 94 127q0 36 -26 59t-70 23q-46 0 -88 -21z" />
    <glyph glyph-name="uni1EEE" unicode="&#x1eee;" horiz-adv-x="1438" 
d="M719 -20q-240 0 -397.5 156t-157.5 392v930h147v-930q0 -187 109.5 -300t298.5 -113t298 113t109 300v930h70q53 0 83 40.5t30 100.5v86h129v-104q0 -80 -43.5 -139.5t-120.5 -77.5v-836q0 -236 -158 -392t-397 -156zM398 1710q0 76 44 124t122 48q50 0 106 -25
t103.5 -49.5t76.5 -24.5q31 0 48.5 20t17.5 52q0 21 -6 45l114 25q17 -48 17 -88q0 -77 -44.5 -126t-121.5 -49q-50 0 -106.5 25t-104.5 50.5t-78 25.5q-31 0 -48 -20.5t-17 -53.5q0 -19 6 -43l-117 -22q-12 45 -12 86z" />
    <glyph glyph-name="uni1EEF" unicode="&#x1eef;" horiz-adv-x="1137" 
d="M269 1053v-639q0 -138 80.5 -219.5t216.5 -81.5q135 0 216 81t81 216v643h65q53 0 83 40.5t30 100.5v86h129v-104q0 -80 -43.5 -139.5t-120.5 -77.5v-959h-143v146q-55 -78 -140.5 -122t-187.5 -44q-191 0 -300.5 116t-109.5 318v639h144zM244 1305q0 76 44 124t122 48
q39 0 83 -15.5t76 -34t67.5 -34t59.5 -15.5q31 0 48.5 20t17.5 52q0 21 -6 45l114 25q17 -48 17 -88q0 -77 -44.5 -126t-121.5 -49q-50 0 -106.5 25.5t-104.5 50.5t-78 25q-31 0 -48 -20.5t-17 -53.5q0 -19 6 -43l-117 -22q-12 45 -12 86z" />
    <glyph glyph-name="uni1EF0" unicode="&#x1ef0;" horiz-adv-x="1438" 
d="M719 -20q-240 0 -397.5 156t-157.5 392v930h147v-930q0 -187 109.5 -300t298.5 -113t298 113t109 300v930h70q53 0 83 40.5t30 100.5v86h129v-104q0 -80 -43.5 -139.5t-120.5 -77.5v-836q0 -236 -158 -392t-397 -156zM617 -246q0 46 29 74.5t73 28.5t73.5 -28.5
t29.5 -74.5q0 -45 -29.5 -73.5t-73.5 -28.5q-43 0 -72.5 28.5t-29.5 73.5z" />
    <glyph glyph-name="uni1EF1" unicode="&#x1ef1;" horiz-adv-x="1137" 
d="M269 1053v-639q0 -138 80.5 -219.5t216.5 -81.5q135 0 216 81t81 216v643h65q53 0 83 40.5t30 100.5v86h129v-104q0 -80 -43.5 -139.5t-120.5 -77.5v-959h-143v146q-55 -78 -140.5 -122t-187.5 -44q-191 0 -300.5 116t-109.5 318v639h144zM484 -246q0 46 29 74.5t73 28.5
t73.5 -28.5t29.5 -74.5q0 -45 -29.5 -73.5t-73.5 -28.5q-43 0 -72.5 28.5t-29.5 73.5z" />
    <glyph glyph-name="Ygrave" unicode="&#x1ef2;" horiz-adv-x="1253" 
d="M551 0v611l-539 847h172l446 -705l445 705h166l-543 -850v-608h-147zM433 1959h155l86 -380h-98z" />
    <glyph glyph-name="ygrave" unicode="&#x1ef3;" horiz-adv-x="1137" 
d="M522 -471q-368 0 -514 338l127 59q60 -136 155 -201t232 -65q158 0 245 97t87 274v114q-57 -79 -142.5 -122t-185.5 -43q-192 0 -300.5 115.5t-108.5 320.5v637h143v-637q0 -146 75 -225.5t210 -79.5q143 0 226 80t83 219v643h143v-1022q0 -234 -127 -368t-348 -134z
M386 1554h155l86 -380h-98z" />
    <glyph glyph-name="uni1EF4" unicode="&#x1ef4;" horiz-adv-x="1253" 
d="M551 0v611l-539 847h172l446 -705l445 705h166l-543 -850v-608h-147zM523 -246q0 46 29 74.5t73 28.5t73.5 -28.5t29.5 -74.5q0 -45 -29.5 -73.5t-73.5 -28.5q-43 0 -72.5 28.5t-29.5 73.5z" />
    <glyph glyph-name="uni1EF5" unicode="&#x1ef5;" horiz-adv-x="1137" 
d="M522 -471q-368 0 -514 338l127 59q60 -136 155 -201t232 -65q158 0 245 97t87 274v114q-57 -79 -142.5 -122t-185.5 -43q-192 0 -300.5 115.5t-108.5 320.5v637h143v-637q0 -146 75 -225.5t210 -79.5q143 0 226 80t83 219v643h143v-1022q0 -234 -127 -368t-348 -134z
M988 -410q0 46 29 74.5t73 28.5t73.5 -28.5t29.5 -74.5q0 -45 -29.5 -73.5t-73.5 -28.5q-43 0 -72.5 28.5t-29.5 73.5z" />
    <glyph glyph-name="uni1EF6" unicode="&#x1ef6;" horiz-adv-x="1253" 
d="M551 0v611l-539 847h172l446 -705l445 705h166l-543 -850v-608h-147zM441 1927q63 34 139 34q94 0 151.5 -52.5t57.5 -135.5q0 -134 -162 -223l-59 92q94 54 94 127q0 36 -26 59t-70 23q-46 0 -88 -21z" />
    <glyph glyph-name="uni1EF7" unicode="&#x1ef7;" horiz-adv-x="1137" 
d="M522 -471q-368 0 -514 338l127 59q60 -136 155 -201t232 -65q158 0 245 97t87 274v114q-57 -79 -142.5 -122t-185.5 -43q-192 0 -300.5 115.5t-108.5 320.5v637h143v-637q0 -146 75 -225.5t210 -79.5q143 0 226 80t83 219v643h143v-1022q0 -234 -127 -368t-348 -134z
M394 1522q63 34 139 34q94 0 151.5 -52.5t57.5 -135.5q0 -134 -162 -223l-59 92q94 54 94 127q0 36 -26 59t-70 23q-46 0 -88 -21z" />
    <glyph glyph-name="uni1EF8" unicode="&#x1ef8;" horiz-adv-x="1253" 
d="M551 0v611l-539 847h172l446 -705l445 705h166l-543 -850v-608h-147zM304 1710q0 76 44 124t122 48q50 0 106 -25t103.5 -49.5t76.5 -24.5q31 0 48.5 20t17.5 52q0 21 -6 45l114 25q17 -48 17 -88q0 -77 -44.5 -126t-121.5 -49q-50 0 -106.5 25t-104.5 50.5t-78 25.5
q-31 0 -48 -20.5t-17 -53.5q0 -19 6 -43l-117 -22q-12 45 -12 86z" />
    <glyph glyph-name="uni1EF9" unicode="&#x1ef9;" horiz-adv-x="1137" 
d="M522 -471q-368 0 -514 338l127 59q60 -136 155 -201t232 -65q158 0 245 97t87 274v114q-57 -79 -142.5 -122t-185.5 -43q-192 0 -300.5 115.5t-108.5 320.5v637h143v-637q0 -146 75 -225.5t210 -79.5q143 0 226 80t83 219v643h143v-1022q0 -234 -127 -368t-348 -134z
M257 1305q0 76 44 124t122 48q39 0 83 -15.5t76 -34t67.5 -34t59.5 -15.5q31 0 48.5 20t17.5 52q0 21 -6 45l114 25q17 -48 17 -88q0 -77 -44.5 -126t-121.5 -49q-50 0 -106.5 25.5t-104.5 50.5t-78 25q-31 0 -48 -20.5t-17 -53.5q0 -19 6 -43l-117 -22q-12 45 -12 86z" />
    <glyph glyph-name="uni2000" unicode="&#x2000;" horiz-adv-x="1024" 
 />
    <glyph glyph-name="uni2001" unicode="&#x2001;" horiz-adv-x="2048" 
 />
    <glyph glyph-name="uni2002" unicode="&#x2002;" horiz-adv-x="1024" 
 />
    <glyph glyph-name="uni2003" unicode="&#x2003;" horiz-adv-x="2048" 
 />
    <glyph glyph-name="uni2004" unicode="&#x2004;" horiz-adv-x="682" 
 />
    <glyph glyph-name="uni2005" unicode="&#x2005;" horiz-adv-x="512" 
 />
    <glyph glyph-name="uni2006" unicode="&#x2006;" horiz-adv-x="342" 
 />
    <glyph glyph-name="uni2007" unicode="&#x2007;" 
 />
    <glyph glyph-name="uni2008" unicode="&#x2008;" horiz-adv-x="434" 
 />
    <glyph glyph-name="uni2009" unicode="&#x2009;" horiz-adv-x="410" 
 />
    <glyph glyph-name="uni200A" unicode="&#x200a;" horiz-adv-x="293" 
 />
    <glyph glyph-name="uni200B" unicode="&#x200b;" horiz-adv-x="0" 
 />
    <glyph glyph-name="endash" unicode="&#x2013;" horiz-adv-x="1006" 
d="M61 721v127h883v-127h-883z" />
    <glyph glyph-name="emdash" unicode="&#x2014;" horiz-adv-x="1374" 
d="M61 721v127h1252v-127h-1252z" />
    <glyph glyph-name="quoteleft" unicode="&#x2018;" horiz-adv-x="362" 
d="M281 1464l66 -42l-153 -271q28 -12 46 -38.5t18 -61.5q0 -48 -31.5 -78.5t-76.5 -30.5t-77 32t-32 87q0 22 9 46t17 36.5t32 48.5z" />
    <glyph glyph-name="quoteright" unicode="&#x2019;" horiz-adv-x="362" 
d="M82 957l-66 42l153 271q-28 12 -46 38.5t-18 61.5q0 48 31.5 78.5t76.5 30.5t77 -32t32 -87q0 -22 -9 -46t-17 -36.5t-32 -48.5z" />
    <glyph glyph-name="quotesinglbase" unicode="&#x201a;" horiz-adv-x="391" 
d="M45 -325l-66 42l153 271q-28 12 -46 38.5t-18 61.5q0 48 31.5 78.5t76.5 30.5t77 -32t32 -87q0 -22 -9 -46t-17 -36.5t-32 -48.5z" />
    <glyph glyph-name="quotedblleft" unicode="&#x201c;" horiz-adv-x="711" 
d="M281 1464l66 -42l-153 -271q28 -12 46 -38.5t18 -61.5q0 -48 -31.5 -78.5t-76.5 -30.5t-77 32t-32 87q0 22 9 46t17 36.5t32 48.5zM389 1061q0 22 9 46t17 36.5t32 48.5l182 272l66 -42l-153 -271q28 -12 46 -38.5t18 -61.5q0 -48 -31.5 -78.5t-76.5 -30.5t-77 32t-32 87
z" />
    <glyph glyph-name="quotedblright" unicode="&#x201d;" horiz-adv-x="711" 
d="M430 957l-66 42l153 271q-28 12 -46 38.5t-18 61.5q0 48 31.5 78.5t76.5 30.5t77 -32t32 -87q0 -22 -9 -46t-17 -36.5t-32 -48.5zM16 999l153 271q-28 12 -46 38.5t-18 61.5q0 48 31.5 78.5t76.5 30.5t77 -32t32 -87q0 -22 -9 -46t-17 -36.5t-32 -48.5l-182 -272z" />
    <glyph glyph-name="quotedblbase" unicode="&#x201e;" horiz-adv-x="782" 
d="M436 -325l-66 42l153 271q-28 12 -46 38.5t-18 61.5q0 48 31.5 78.5t76.5 30.5t77 -32t32 -87q0 -22 -9 -46t-17 -36.5t-32 -48.5zM22 -283l153 271q-28 12 -46 38.5t-18 61.5q0 48 31.5 78.5t76.5 30.5t77 -32t32 -87q0 -22 -9 -46t-17 -36.5t-32 -48.5l-182 -272z" />
    <glyph glyph-name="dagger" unicode="&#x2020;" horiz-adv-x="799" 
d="M328 537v569h-267v127h267v303h143v-303h266v-127h-266v-569h-143z" />
    <glyph glyph-name="daggerdbl" unicode="&#x2021;" horiz-adv-x="799" 
d="M328 537v303h-267v127h267v139h-267v127h267v303h143v-303h266v-127h-266v-139h266v-127h-266v-303h-143z" />
    <glyph glyph-name="bullet" unicode="&#x2022;" horiz-adv-x="700" 
d="M350 529q-72 0 -122 48.5t-50 124.5q0 77 50 125.5t122 48.5q74 0 124.5 -48.5t50.5 -125.5q0 -76 -50.5 -124.5t-124.5 -48.5z" />
    <glyph glyph-name="ellipsis" unicode="&#x2026;" horiz-adv-x="1663" 
d="M219 -20q-45 0 -76.5 30t-31.5 78t31.5 78.5t76.5 30.5q46 0 77.5 -30.5t31.5 -78.5t-31.5 -78t-77.5 -30zM725 88q0 48 31.5 78.5t76.5 30.5q46 0 77.5 -30.5t31.5 -78.5t-31.5 -78t-77.5 -30q-45 0 -76.5 30t-31.5 78zM1340 88q0 48 31.5 78.5t76.5 30.5
q46 0 77.5 -30.5t31.5 -78.5t-31.5 -78t-77.5 -30q-45 0 -76.5 30t-31.5 78z" />
    <glyph glyph-name="uni202F" unicode="&#x202f;" horiz-adv-x="393" 
 />
    <glyph glyph-name="perthousand" unicode="&#x2030;" horiz-adv-x="2703" 
d="M2271 -20q-137 0 -233 89t-96 244t96 244.5t233 89.5q66 0 125 -22.5t105 -63.5t73 -105.5t27 -142.5q0 -156 -96 -244.5t-234 -88.5zM102 1145q0 156 96 245t234 89q137 0 233.5 -89.5t96.5 -244.5q0 -78 -27 -142.5t-73 -105.5t-105 -63.5t-125 -22.5t-125 22.5
t-105 63.5t-73 105.5t-27 142.5zM238 1145q0 -106 55.5 -160.5t138.5 -54.5q84 0 139.5 54.5t55.5 160.5q0 107 -56.5 162t-138.5 55t-138 -55t-56 -162zM367 0l942 1458h168l-942 -1458h-168zM1081 313q0 78 27 142.5t73 105.5t105 63.5t125 22.5t125 -22.5t105 -63.5
t73 -105.5t27 -142.5q0 -156 -96 -244.5t-234 -88.5q-137 0 -233.5 89t-96.5 244zM1217 313q0 -107 56 -162t138 -55t138.5 55t56.5 162q0 106 -56 160.5t-139 54.5t-138.5 -54.5t-55.5 -160.5zM2077 313q0 -107 56 -162t138 -55t138.5 55t56.5 162q0 106 -55.5 160.5
t-139.5 54.5q-83 0 -138.5 -54.5t-55.5 -160.5z" />
    <glyph glyph-name="minute" unicode="&#x2032;" horiz-adv-x="541" 
d="M197 965l69 493h152l-135 -493h-86z" />
    <glyph glyph-name="second" unicode="&#x2033;" horiz-adv-x="807" 
d="M197 965l69 493h152l-135 -493h-86zM463 965l69 493h152l-135 -493h-86z" />
    <glyph glyph-name="guilsinglleft" unicode="&#x2039;" horiz-adv-x="629" 
d="M61 514v127l476 297v-145l-356 -216l356 -215v-145z" />
    <glyph glyph-name="guilsinglright" unicode="&#x203a;" horiz-adv-x="629" 
d="M568 637v-127l-476 -297v145l356 216l-356 215v145z" />
    <glyph glyph-name="fraction" unicode="&#x2044;" horiz-adv-x="1268" 
d="M40 0l1022 1458h165l-1021 -1458h-166z" />
    <glyph glyph-name="uni2053" unicode="&#x2053;" horiz-adv-x="872" 
d="M610 557q-49 0 -100.5 26t-87 57t-77.5 57t-75 26q-98 0 -98 -107q0 -14 1 -22l-109 -10q-2 26 -2 37q0 103 52.5 159t149.5 56q50 0 102 -26t88 -57t78.5 -57t75.5 -26q99 0 99 110q0 19 -3 40l105 9q3 -26 3 -49q0 -106 -53.5 -164.5t-148.5 -58.5z" />
    <glyph glyph-name="uni205F" unicode="&#x205f;" horiz-adv-x="455" 
 />
    <glyph glyph-name="uni2070" unicode="&#x2070;" horiz-adv-x="922" 
d="M461 643q-177 0 -277 125.5t-100 351.5q0 225 100.5 350t276.5 125t276.5 -125.5t100.5 -349.5q0 -226 -100.5 -351.5t-276.5 -125.5zM219 1120q0 -165 65.5 -260.5t176.5 -95.5t176 95.5t65 260.5q0 164 -65 259.5t-176 95.5t-176.5 -95.5t-65.5 -259.5z" />
    <glyph glyph-name="uni2074" unicode="&#x2074;" horiz-adv-x="840" 
d="M516 655v213h-475v101l475 614h127v-600h156v-115h-156v-213h-127zM197 983h319v414z" />
    <glyph glyph-name="uni2075" unicode="&#x2075;" horiz-adv-x="856" 
d="M430 643q-117 0 -204 54.5t-122 162.5l117 47q21 -71 77.5 -108t131.5 -37q81 0 139 48.5t58 143.5q0 97 -60.5 150t-148.5 53q-49 0 -94.5 -20t-69.5 -50l-113 19l56 477h514v-115h-403l-28 -238q70 46 154 46q145 0 236.5 -86t91.5 -236q0 -73 -27.5 -133t-74 -98.5
t-106 -59t-124.5 -20.5z" />
    <glyph glyph-name="uni2076" unicode="&#x2076;" horiz-adv-x="870" 
d="M461 643q-83 0 -145.5 21t-112.5 69.5t-76.5 136t-26.5 211.5q0 260 98.5 387t274.5 127q187 0 291 -159l-90 -72q-45 57 -91.5 85t-109.5 28q-105 0 -169.5 -75.5t-71.5 -228.5q81 99 227 99q55 0 111 -19.5t104.5 -56t79 -96.5t30.5 -133q0 -150 -91 -237t-232 -87z
M248 956q0 -90 57 -139t144 -49q86 0 143 49t57 139q0 89 -57.5 140t-142.5 51t-143 -49.5t-58 -141.5z" />
    <glyph glyph-name="uni2077" unicode="&#x2077;" horiz-adv-x="782" 
d="M164 655l372 813h-470v115h632v-67l-393 -861h-141z" />
    <glyph glyph-name="uni2078" unicode="&#x2078;" horiz-adv-x="872" 
d="M436 643q-159 0 -259.5 74.5t-100.5 202.5q0 81 47 137t124 86q-61 26 -96.5 76t-35.5 122q0 115 88.5 184.5t232.5 69.5q145 0 233.5 -69.5t88.5 -184.5q0 -143 -130 -199q76 -30 122.5 -85.5t46.5 -136.5q0 -128 -101 -202.5t-260 -74.5zM211 920q0 -77 59 -117.5
t166 -40.5t166.5 40.5t59.5 117.5q0 73 -63.5 115t-162.5 42t-162 -42t-63 -115zM250 1341q0 -63 51.5 -99t134.5 -36q84 0 135.5 36t51.5 99t-52 99.5t-135 36.5t-134.5 -36.5t-51.5 -99.5z" />
    <glyph glyph-name="uni2079" unicode="&#x2079;" horiz-adv-x="870" 
d="M418 643q-258 0 -365 223l113 64q38 -93 100 -130.5t150 -37.5q107 0 173.5 85.5t72.5 241.5q-81 -98 -236 -98q-140 0 -235 77.5t-95 223.5t95 224.5t233 78.5q75 0 137 -21t115 -68t82.5 -134.5t29.5 -210.5q0 -267 -101 -392.5t-269 -125.5zM231 1292q0 -89 59 -135.5
t146 -46.5q88 0 147.5 46.5t59.5 135.5t-59.5 137t-147.5 48q-87 0 -146 -48t-59 -137z" />
    <glyph glyph-name="uni2080" unicode="&#x2080;" horiz-adv-x="922" 
d="M461 -96q-177 0 -277 125.5t-100 351.5q0 225 100.5 350t276.5 125t276.5 -125.5t100.5 -349.5q0 -226 -100.5 -351.5t-276.5 -125.5zM219 381q0 -165 65.5 -260.5t176.5 -95.5t176 95.5t65 260.5q0 164 -65 259.5t-176 95.5t-176.5 -95.5t-65.5 -259.5z" />
    <glyph glyph-name="uni2081" unicode="&#x2081;" horiz-adv-x="496" 
d="M201 -84v811h-160l20 117h271v-928h-131z" />
    <glyph glyph-name="uni2082" unicode="&#x2082;" horiz-adv-x="825" 
d="M94 -84v97l295 305q84 85 121 144.5t37 125.5q0 71 -45 110.5t-117 39.5q-130 0 -172 -144l-123 39q68 223 295 223q130 0 213.5 -71t83.5 -195q0 -38 -6.5 -72t-24 -68t-31 -57t-45 -59t-47 -52.5t-55.5 -57.5l-186 -193h448v-115h-641z" />
    <glyph glyph-name="uni2083" unicode="&#x2083;" horiz-adv-x="870" 
d="M420 -96q-149 0 -246.5 74.5t-110.5 202.5l132 24q9 -86 67 -134t158 -48q92 0 147.5 46t55.5 122q0 75 -60.5 114t-154.5 39h-89v117h89q79 0 126.5 38.5t47.5 104.5q0 60 -47 97t-123 37q-60 0 -104.5 -31t-63.5 -80l-119 39q31 88 107 139t182 51q132 0 217.5 -67.5
t85.5 -173.5q0 -74 -36.5 -126.5t-101.5 -78.5q84 -24 131.5 -80.5t47.5 -144.5q0 -127 -95 -204t-243 -77z" />
    <glyph glyph-name="uni2084" unicode="&#x2084;" horiz-adv-x="840" 
d="M516 -84v213h-475v101l475 614h127v-600h156v-115h-156v-213h-127zM197 244h319v414z" />
    <glyph glyph-name="uni2085" unicode="&#x2085;" horiz-adv-x="856" 
d="M430 -96q-117 0 -204 54.5t-122 162.5l117 47q21 -71 77.5 -108t131.5 -37q81 0 139 48.5t58 143.5q0 97 -60.5 150t-148.5 53q-49 0 -94.5 -20t-69.5 -50l-113 19l56 477h514v-115h-403l-28 -238q70 46 154 46q145 0 236.5 -86t91.5 -236q0 -73 -27.5 -133t-74 -98.5
t-106 -59t-124.5 -20.5z" />
    <glyph glyph-name="uni2086" unicode="&#x2086;" horiz-adv-x="870" 
d="M461 -96q-83 0 -145.5 21t-112.5 69.5t-76.5 136t-26.5 211.5q0 260 98.5 387t274.5 127q187 0 291 -159l-90 -72q-45 57 -91.5 85t-109.5 28q-105 0 -169.5 -75.5t-71.5 -228.5q81 99 227 99q55 0 111 -19.5t104.5 -56t79 -96.5t30.5 -133q0 -150 -91 -237t-232 -87z
M248 217q0 -90 57 -139t144 -49q86 0 143 49t57 139q0 89 -57.5 140t-142.5 51t-143 -49.5t-58 -141.5z" />
    <glyph glyph-name="uni2087" unicode="&#x2087;" horiz-adv-x="782" 
d="M164 -84l372 813h-470v115h632v-67l-393 -861h-141z" />
    <glyph glyph-name="uni2088" unicode="&#x2088;" horiz-adv-x="872" 
d="M436 -96q-159 0 -259.5 74.5t-100.5 202.5q0 81 47 137t124 86q-61 26 -96.5 76t-35.5 122q0 115 88.5 184.5t232.5 69.5q145 0 233.5 -69.5t88.5 -184.5q0 -143 -130 -199q76 -30 122.5 -85.5t46.5 -136.5q0 -128 -101 -202.5t-260 -74.5zM211 181q0 -77 59 -117.5
t166 -40.5t166.5 40.5t59.5 117.5q0 73 -63.5 115t-162.5 42t-162 -42t-63 -115zM250 602q0 -63 51.5 -99t134.5 -36q84 0 135.5 36t51.5 99t-52 99.5t-135 36.5t-134.5 -36.5t-51.5 -99.5z" />
    <glyph glyph-name="uni2089" unicode="&#x2089;" horiz-adv-x="870" 
d="M418 -96q-258 0 -365 223l113 64q38 -93 100 -130.5t150 -37.5q107 0 173.5 85.5t72.5 241.5q-81 -98 -236 -98q-140 0 -235 77.5t-95 223.5t95 224.5t233 78.5q75 0 137 -21t115 -68t82.5 -134.5t29.5 -210.5q0 -267 -101 -392.5t-269 -125.5zM231 553q0 -89 59 -135.5
t146 -46.5q88 0 147.5 46.5t59.5 135.5t-59.5 137t-147.5 48q-87 0 -146 -48t-59 -137z" />
    <glyph glyph-name="colonmonetary" unicode="&#x20a1;" horiz-adv-x="1536" 
d="M186 -184l128 362q-96 102 -147.5 243t-51.5 308q0 213 83 383t233 267t342 100l87 245h148l-91 -257q91 -17 165 -55l110 312h147l-138 -391q136 -118 198 -315l-137 -39q-39 119 -113 205l-377 -1069h12q179 0 302.5 99t177.5 269l135 -41q-65 -213 -224 -337.5
t-391 -124.5q-21 0 -59 2l-59 -166h-148l68 193q-84 25 -158 73l-94 -266h-148zM262 729q0 -232 107 -394l355 1005q-209 -23 -335.5 -190t-126.5 -421zM476 218q72 -56 155 -81l404 1142q-75 44 -164 57z" />
    <glyph glyph-name="dong" unicode="&#x20ab;" horiz-adv-x="1130" 
d="M489 213q-170 0 -286.5 125.5t-116.5 312.5q0 185 117 310.5t286 125.5q93 0 170.5 -40t128.5 -114v263h-260v127h260v135h142v-135h123v-127h-123v-967h-139v144q-51 -76 -130 -118t-172 -42zM78 0v127h934v-127h-934zM227 651q0 -137 78 -227t203 -90q50 0 98.5 19.5
t89.5 57t66.5 100t25.5 140.5t-25.5 140.5t-66.5 99.5t-89.5 56.5t-98.5 19.5q-125 0 -203 -89.5t-78 -226.5z" />
    <glyph glyph-name="Euro" unicode="&#x20ac;" horiz-adv-x="1440" 
d="M762 -20q-226 0 -367 145t-183 395h-198v127h183q-2 54 -2 82t2 82h-183v127h198q42 250 183 395.5t367 145.5q220 0 357 -133.5t184 -366.5l-150 -31q-33 187 -131.5 291t-259.5 104q-167 0 -268.5 -104.5t-135.5 -300.5h519v-127h-533q-2 -52 -2 -82t2 -82h492v-127
h-478q34 -196 135.5 -300.5t268.5 -104.5q161 0 259.5 104t131.5 291l150 -31q-47 -233 -184 -366t-357 -133z" />
    <glyph glyph-name="uni20B1" unicode="&#x20b1;" horiz-adv-x="1442" 
d="M55 1077v127h150v254h600q136 0 247.5 -68.5t165.5 -185.5h171v-127h-135q4 -27 4 -63q0 -28 -3 -53h134v-127h-167q-52 -122 -165 -193.5t-252 -71.5h-453v-569h-147v834h-150v127h150v116h-150zM352 705h455q82 0 148 34t106 95h-709v-129zM352 961h754q4 23 4 53
t-5 63h-753v-116zM352 1204h701q-40 57 -104 88t-142 31h-455v-119z" />
    <glyph glyph-name="uni20B2" unicode="&#x20b2;" horiz-adv-x="1587" 
d="M727 -221v205q-277 28 -444.5 233.5t-167.5 511.5q0 310 169.5 518t442.5 230v202h143v-204q208 -22 346.5 -142.5t198.5 -314.5l-139 -39q-50 147 -153 241.5t-253 116.5v-1219q135 14 241.5 84t174.5 187v266h148v-655h-129l-11 193q-154 -189 -424 -211v-203h-143z
M262 729q0 -251 125 -416.5t340 -192.5v1220q-211 -22 -338 -189t-127 -422z" />
    <glyph glyph-name="uni20BA" unicode="&#x20ba;" horiz-adv-x="1210" 
d="M225 0v533l-190 -58v127l190 58v160l-190 -58v127l190 58v511h148v-479l381 115v-127l-381 -115v-160l381 115v-127l-381 -115v-430h186q126 0 227.5 49t169.5 152.5t82 249.5l138 -17q-17 -144 -71 -254t-136 -178.5t-185.5 -102.5t-224.5 -34h-334z" />
    <glyph glyph-name="uni20BD" unicode="&#x20bd;" horiz-adv-x="1319" 
d="M184 0v281h-149v127h149v161h-149v136h149v753h600q122 0 225 -54.5t165.5 -157.5t62.5 -232t-62.5 -232t-165.5 -158t-225 -55h-452v-161h442v-127h-442v-281h-148zM332 705h454q134 0 219 85t85 224q0 138 -85 223.5t-219 85.5h-454v-618z" />
    <glyph glyph-name="uni20BF" unicode="&#x20bf;" horiz-adv-x="1378" 
d="M410 1679h143v-221h164v221h143v-224q139 -16 238.5 -115t99.5 -250q0 -115 -52 -197.5t-137 -126.5q103 -41 168.5 -129.5t65.5 -216.5q0 -179 -110.5 -291.5t-272.5 -126.5v-223h-143v221h-164v-221h-143v221h-246v1458h246v221zM311 135h506q119 0 199 80.5t80 204.5
q0 134 -80.5 203t-214.5 69h-490v-557zM311 827h490q101 0 175.5 73t74.5 177q0 110 -73 178t-177 68h-490v-496z" />
    <glyph glyph-name="uni2116" unicode="&#x2116;" horiz-adv-x="2363" 
d="M164 0v1458h127l858 -1181v1181h145v-1458h-125l-860 1184v-1184h-145zM1469 1071q0 100 35 180t93.5 128.5t130.5 74t152 25.5q63 0 122 -15.5t111.5 -48.5t92.5 -80.5t63 -115t23 -148.5q0 -80 -23 -147t-63 -114t-92.5 -80t-111.5 -48.5t-122 -15.5q-79 0 -151.5 25.5
t-131 74t-93.5 127.5t-35 178zM1530 434v127h698v-127h-698zM1604 1071q0 -74 23.5 -130.5t63.5 -89.5t87.5 -49t101.5 -16q55 0 103 16t88 49t63 89.5t23 130.5q0 60 -15.5 109t-41.5 81.5t-62 54.5t-75.5 32t-82.5 10q-54 0 -101.5 -16t-87.5 -49t-63.5 -90t-23.5 -132z
" />
    <glyph glyph-name="uni2117" unicode="&#x2117;" horiz-adv-x="1790" 
d="M895 -20q-173 0 -319 56t-247 155.5t-157.5 238t-56.5 299.5q0 216 96.5 386t274.5 267t409 97t409.5 -97t274.5 -267t96 -386q0 -161 -56 -299.5t-157 -238t-247 -155.5t-320 -56zM254 729q0 -277 175.5 -450t465.5 -173t465.5 173t175.5 450t-175.5 450t-465.5 173
t-465.5 -173t-175.5 -450zM614 287v884h381q122 0 203.5 -77.5t81.5 -198.5q0 -122 -82 -200.5t-203 -78.5h-233v-329h-148zM762 745h217q68 0 111 43t43 107q0 63 -43 105t-111 42h-217v-297z" />
    <glyph glyph-name="trademark" unicode="&#x2122;" horiz-adv-x="2009" 
d="M942 580v878h205l281 -699l284 699h201v-878h-139v675l-273 -675h-151l-275 678v-678h-133zM20 1333v125h805v-125h-330v-753h-145v753h-330z" />
    <glyph glyph-name="estimated" unicode="&#x212e;" horiz-adv-x="1839" 
d="M920 -29q-219 0 -388.5 83t-265.5 239t-96 362q0 201 95.5 357.5t266.5 242.5t388 86q334 0 534 -183.5t215 -518.5h-1192q-17 0 -24 -6.5t-7 -30.5v-336q0 -27 35 -67t94 -79.5t152 -67t193 -27.5q137 0 263.5 61t209.5 158h139q-133 -151 -268.5 -212t-343.5 -61z
M446 694q0 -16 31 -16h881q20 0 26.5 6.5t6.5 24.5v331q0 52 -73 111t-185 99t-215 40q-95 0 -187 -28.5t-152 -68t-96.5 -78.5t-36.5 -62v-359z" />
    <glyph glyph-name="oneeighth" unicode="&#x215b;" horiz-adv-x="1892" 
d="M201 530v811h-160l20 117h271v-928h-131zM202 0l1022 1458h165l-1021 -1458h-166zM1096 265q0 81 47 137t124 86q-61 26 -96.5 76t-35.5 122q0 115 88.5 184.5t232.5 69.5q145 0 233.5 -69.5t88.5 -184.5q0 -143 -130 -199q76 -30 122.5 -85.5t46.5 -136.5
q0 -128 -101 -202.5t-260 -74.5t-259.5 74.5t-100.5 202.5zM1231 265q0 -77 59 -117.5t166 -40.5t166.5 40.5t59.5 117.5q0 73 -63.5 115t-162.5 42t-162 -42t-63 -115zM1270 686q0 -63 51.5 -99t134.5 -36q84 0 135.5 36t51.5 99t-52 99.5t-135 36.5t-134.5 -36.5
t-51.5 -99.5z" />
    <glyph glyph-name="threeeighths" unicode="&#x215c;" horiz-adv-x="2170" 
d="M420 518q-149 0 -246.5 74.5t-110.5 202.5l132 24q9 -86 67 -134t158 -48q92 0 147.5 46t55.5 122q0 75 -60.5 114t-154.5 39h-89v117h89q79 0 126.5 38.5t47.5 104.5q0 60 -47 97t-123 37q-60 0 -104.5 -31t-63.5 -80l-119 39q31 88 107 139t182 51q132 0 217.5 -67.5
t85.5 -173.5q0 -74 -36.5 -126.5t-101.5 -78.5q84 -24 131.5 -80.5t47.5 -144.5q0 -127 -95 -204t-243 -77zM480 0l1022 1458h165l-1021 -1458h-166zM1374 265q0 81 47 137t124 86q-61 26 -96.5 76t-35.5 122q0 115 88.5 184.5t232.5 69.5q145 0 233.5 -69.5t88.5 -184.5
q0 -143 -130 -199q76 -30 122.5 -85.5t46.5 -136.5q0 -128 -101 -202.5t-260 -74.5t-259.5 74.5t-100.5 202.5zM1509 265q0 -77 59 -117.5t166 -40.5t166.5 40.5t59.5 117.5q0 73 -63.5 115t-162.5 42t-162 -42t-63 -115zM1548 686q0 -63 51.5 -99t134.5 -36q84 0 135.5 36
t51.5 99t-52 99.5t-135 36.5t-134.5 -36.5t-51.5 -99.5z" />
    <glyph glyph-name="fiveeighths" unicode="&#x215d;" horiz-adv-x="2197" 
d="M430 518q-117 0 -204 54.5t-122 162.5l117 47q21 -71 77.5 -108t131.5 -37q81 0 139 48.5t58 143.5q0 97 -60.5 150t-148.5 53q-49 0 -94.5 -20t-69.5 -50l-113 19l56 477h514v-115h-403l-28 -238q70 46 154 46q145 0 236.5 -86t91.5 -236q0 -73 -27.5 -133t-74 -98.5
t-106 -59t-124.5 -20.5zM507 0l1022 1458h165l-1021 -1458h-166zM1401 265q0 81 47 137t124 86q-61 26 -96.5 76t-35.5 122q0 115 88.5 184.5t232.5 69.5q145 0 233.5 -69.5t88.5 -184.5q0 -143 -130 -199q76 -30 122.5 -85.5t46.5 -136.5q0 -128 -101 -202.5t-260 -74.5
t-259.5 74.5t-100.5 202.5zM1536 265q0 -77 59 -117.5t166 -40.5t166.5 40.5t59.5 117.5q0 73 -63.5 115t-162.5 42t-162 -42t-63 -115zM1575 686q0 -63 51.5 -99t134.5 -36q84 0 135.5 36t51.5 99t-52 99.5t-135 36.5t-134.5 -36.5t-51.5 -99.5z" />
    <glyph glyph-name="seveneighths" unicode="&#x215e;" horiz-adv-x="2000" 
d="M164 530l372 813h-470v115h632v-67l-393 -861h-141zM310 0l1022 1458h165l-1021 -1458h-166zM1204 265q0 81 47 137t124 86q-61 26 -96.5 76t-35.5 122q0 115 88.5 184.5t232.5 69.5q145 0 233.5 -69.5t88.5 -184.5q0 -143 -130 -199q76 -30 122.5 -85.5t46.5 -136.5
q0 -128 -101 -202.5t-260 -74.5t-259.5 74.5t-100.5 202.5zM1339 265q0 -77 59 -117.5t166 -40.5t166.5 40.5t59.5 117.5q0 73 -63.5 115t-162.5 42t-162 -42t-63 -115zM1378 686q0 -63 51.5 -99t134.5 -36q84 0 135.5 36t51.5 99t-52 99.5t-135 36.5t-134.5 -36.5
t-51.5 -99.5z" />
    <glyph glyph-name="arrowleft" unicode="&#x2190;" horiz-adv-x="1315" 
d="M585 295l-79 -80l-465 465v101l465 465l79 -80l-375 -373h1043v-125h-1043z" />
    <glyph glyph-name="arrowup" unicode="&#x2191;" horiz-adv-x="1153" 
d="M141 793l-80 79l465 465h101l465 -465l-80 -79l-373 375v-1043h-125v1043z" />
    <glyph glyph-name="arrowright" unicode="&#x2192;" horiz-adv-x="1315" 
d="M730 1164l79 80l465 -465v-101l-465 -465l-79 80l375 373h-1043v125h1043z" />
    <glyph glyph-name="arrowdown" unicode="&#x2193;" horiz-adv-x="1153" 
d="M1010 665l80 -79l-465 -465h-101l-465 465l80 79l373 -375v1043h125v-1043z" />
    <glyph glyph-name="arrowboth" unicode="&#x2194;" horiz-adv-x="1384" 
d="M879 213l-80 78l373 373h-959l373 -373l-80 -78l-465 465v100l465 465l80 -80l-376 -374h965l-376 374l80 80l464 -465v-100z" />
    <glyph glyph-name="arrowupdn" unicode="&#x2195;" horiz-adv-x="1194" 
d="M82 540l78 80l373 -373v959l-373 -373l-78 80l465 465h100l465 -465l-80 -80l-374 376v-965l374 376l80 -80l-465 -464h-100z" />
    <glyph glyph-name="uni2196" unicode="&#x2196;" horiz-adv-x="1153" 
d="M221 465h-112v657l71 72h658l-1 -113l-530 2l738 -738l-88 -88l-737 737z" />
    <glyph glyph-name="uni2197" unicode="&#x2197;" horiz-adv-x="1153" 
d="M312 1084v112h657l72 -71v-658l-113 1l2 530l-738 -738l-88 88l737 737z" />
    <glyph glyph-name="uni2198" unicode="&#x2198;" horiz-adv-x="1153" 
d="M930 993h112v-657l-71 -72h-658l1 113l530 -2l-738 738l88 88l737 -737z" />
    <glyph glyph-name="uni2199" unicode="&#x2199;" horiz-adv-x="1153" 
d="M839 375v-112h-657l-72 71v658l113 -1l-2 -530l738 738l88 -88l-737 -737z" />
    <glyph glyph-name="emptyset" unicode="&#x2205;" horiz-adv-x="1182" 
d="M600 -20q-180 0 -310 100l-77 -94l-96 82l83 101q-106 140 -106 357q0 112 29 204.5t78 155t114.5 105.5t137 62.5t147.5 19.5q165 0 294 -88l73 88l98 -82l-78 -90q121 -144 121 -375q0 -112 -29.5 -204.5t-78.5 -154.5t-115 -105t-137.5 -62.5t-147.5 -19.5zM229 526
q0 -162 70 -266l506 628q-90 58 -205 58q-70 0 -133.5 -23.5t-118 -71.5t-87 -131.5t-32.5 -193.5zM378 176q93 -70 222 -70q71 0 135 23.5t118.5 71.5t87 131.5t32.5 193.5q0 176 -83 285z" />
    <glyph glyph-name="uni2206" unicode="&#x2206;" horiz-adv-x="1376" 
d="M53 0l570 1458h133l567 -1458h-1270zM259 135h855l-427 1113z" />
    <glyph glyph-name="minus" unicode="&#x2212;" horiz-adv-x="1065" 
d="M61 608v127h943v-127h-943z" />
    <glyph glyph-name="radical" unicode="&#x221a;" horiz-adv-x="1290" 
d="M557 -410l-210 732h-271v127h391l181 -630l470 1639h148l-537 -1868h-172z" />
    <glyph glyph-name="infinity" unicode="&#x221e;" horiz-adv-x="1593" 
d="M1149 303q-90 0 -175 45.5t-151 128.5l-26 34l-11 -15q-72 -100 -155.5 -146.5t-190.5 -46.5q-145 0 -239.5 94t-94.5 228q0 138 94.5 229.5t243.5 91.5q93 0 178 -44.5t150 -125.5l28 -35q82 111 166.5 158t186.5 47q144 0 239 -93.5t95 -227.5q0 -138 -95 -230
t-243 -92zM254 625q0 -81 56 -135t136 -54q67 0 121.5 30.5t108.5 104.5l36 49l-38 48q-64 81 -121 113t-119 32q-76 0 -128 -54t-52 -134zM886 633l36 -45q70 -88 122 -120t115 -32q76 0 128 54t52 135q0 80 -56 134t-136 54q-68 0 -120.5 -30t-108.5 -107z" />
    <glyph glyph-name="integral" unicode="&#x222b;" horiz-adv-x="881" 
d="M49 -336v131h21q83 0 132.5 48.5t67.5 156.5l197 1221q25 155 109 245t235 90h20v-131h-20q-84 0 -133.5 -48t-67.5 -156l-196 -1221q-25 -156 -109 -246t-235 -90h-21z" />
    <glyph glyph-name="approxequal" unicode="&#x2248;" horiz-adv-x="872" 
d="M610 731q-49 0 -100.5 26t-87 57t-77.5 57t-75 26q-98 0 -98 -107q0 -14 1 -22l-109 -10q-2 26 -2 37q0 103 52.5 159t149.5 56q50 0 102 -26t88 -57t78.5 -57t75.5 -26q99 0 99 110q0 19 -3 40l105 9q3 -25 3 -49q0 -106 -53.5 -164.5t-148.5 -58.5zM62 447
q0 103 52.5 159t149.5 56q50 0 102 -26t88 -57t78.5 -57t75.5 -26q99 0 99 110q0 19 -3 40l105 9q3 -26 3 -49q0 -106 -53.5 -164.5t-148.5 -58.5q-49 0 -100.5 26t-87 57t-77.5 57t-75 26q-98 0 -98 -107q0 -14 1 -22l-109 -10q-2 26 -2 37z" />
    <glyph glyph-name="notequal" unicode="&#x2260;" horiz-adv-x="1065" 
d="M193 158l106 204h-238v127h303l189 365h-492v127h558l106 205h147l-106 -205h238v-127h-304l-189 -365h493v-127h-558l-106 -204h-147z" />
    <glyph glyph-name="lessequal" unicode="&#x2264;" horiz-adv-x="1065" 
d="M963 385l-844 236v180l844 235v-139l-706 -185l706 -182v-145zM61 203v127h943v-127h-943z" />
    <glyph glyph-name="greaterequal" unicode="&#x2265;" horiz-adv-x="1065" 
d="M102 385v139l706 185l-706 182v145l844 -235v-180zM61 203v127h943v-127h-943z" />
    <glyph glyph-name="uni2460" unicode="&#x2460;" horiz-adv-x="1712" 
d="M856 -20q-210 0 -384.5 96t-276 268t-101.5 385q0 160 60 300t162 238.5t242.5 155t297.5 56.5t297.5 -56.5t242.5 -155t162 -238.5t60 -300q0 -213 -101.5 -385t-276 -268t-384.5 -96zM205 729q0 -188 89 -336t237 -227.5t325 -79.5t325 79.5t237 227.5t89 336t-89 336
t-237 227.5t-325 79.5t-325 -79.5t-237 -227.5t-89 -336zM657 1055l19 112h260v-891h-125v779h-154z" />
    <glyph glyph-name="uni2461" unicode="&#x2461;" horiz-adv-x="1712" 
d="M856 -20q-210 0 -384.5 96t-276 268t-101.5 385q0 160 60 300t162 238.5t242.5 155t297.5 56.5t297.5 -56.5t242.5 -155t162 -238.5t60 -300q0 -213 -101.5 -385t-276 -268t-384.5 -96zM205 729q0 -188 89 -336t237 -227.5t325 -79.5t325 79.5t237 227.5t89 336t-89 336
t-237 227.5t-325 79.5t-325 -79.5t-237 -227.5t-89 -336zM557 965q66 215 285 215q123 0 203.5 -68.5t80.5 -187.5q0 -36 -6 -68.5t-24 -67t-28.5 -54t-44 -57.5t-44.5 -50t-53 -56l-178 -184h430v-111h-617v93l283 293q80 82 115.5 139t35.5 121q0 68 -42.5 105.5
t-110.5 37.5q-63 0 -105.5 -35.5t-60.5 -101.5z" />
    <glyph glyph-name="uni2462" unicode="&#x2462;" horiz-adv-x="1712" 
d="M858 264q-143 0 -237.5 72t-104.5 194l125 23q9 -82 64.5 -128t152.5 -46q88 0 141.5 44.5t53.5 117.5q0 72 -58 109.5t-149 37.5h-84v111h84q76 0 122 37.5t46 101.5q0 57 -45 92t-119 35q-57 0 -100 -29.5t-62 -77.5l-113 37q30 85 103 135t174 50q126 0 208.5 -66
t82.5 -168q0 -71 -35 -121t-96 -75q80 -23 125 -77t45 -138q0 -123 -91 -197t-233 -74zM94 729q0 160 60 300t162 238.5t242.5 155t297.5 56.5t297.5 -56.5t242.5 -155t162 -238.5t60 -300q0 -213 -101.5 -385t-276 -268t-384.5 -96t-384.5 96t-276 268t-101.5 385zM205 729
q0 -188 89 -336t237 -227.5t325 -79.5t325 79.5t237 227.5t89 336t-89 336t-237 227.5t-325 79.5t-325 -79.5t-237 -227.5t-89 -336z" />
    <glyph glyph-name="uni2463" unicode="&#x2463;" horiz-adv-x="1712" 
d="M856 -20q-210 0 -384.5 96t-276 268t-101.5 385q0 160 60 300t162 238.5t242.5 155t297.5 56.5t297.5 -56.5t242.5 -155t162 -238.5t60 -300q0 -213 -101.5 -385t-276 -268t-384.5 -96zM205 729q0 -188 89 -336t237 -227.5t325 -79.5t325 79.5t237 227.5t89 336t-89 336
t-237 227.5t-325 79.5t-325 -79.5t-237 -227.5t-89 -336zM457 481v97l456 589h123v-575h150v-111h-150v-205h-123v205h-456zM608 592h305v397z" />
    <glyph glyph-name="uni2464" unicode="&#x2464;" horiz-adv-x="1712" 
d="M856 -20q-210 0 -384.5 96t-276 268t-101.5 385q0 160 60 300t162 238.5t242.5 155t297.5 56.5t297.5 -56.5t242.5 -155t162 -238.5t60 -300q0 -213 -101.5 -385t-276 -268t-384.5 -96zM205 729q0 -188 89 -336t237 -227.5t325 -79.5t325 79.5t237 227.5t89 336t-89 336
t-237 227.5t-325 79.5t-325 -79.5t-237 -227.5t-89 -336zM553 473l113 45q20 -68 74 -103.5t126 -35.5q78 0 133.5 46.5t55.5 137.5q0 92 -58 143.5t-143 51.5q-45 0 -89.5 -19t-66.5 -47l-108 17l53 458h494v-110h-387l-27 -230q65 45 147 45q140 0 228 -82.5t88 -226.5
q0 -139 -94 -219t-226 -80q-112 0 -195.5 52.5t-117.5 156.5z" />
    <glyph glyph-name="uni2465" unicode="&#x2465;" horiz-adv-x="1712" 
d="M856 -20q-210 0 -384.5 96t-276 268t-101.5 385q0 160 60 300t162 238.5t242.5 155t297.5 56.5t297.5 -56.5t242.5 -155t162 -238.5t60 -300q0 -213 -101.5 -385t-276 -268t-384.5 -96zM205 729q0 -188 89 -336t237 -227.5t325 -79.5t325 79.5t237 227.5t89 336t-89 336
t-237 227.5t-325 79.5t-325 -79.5t-237 -227.5t-89 -336zM524 686q0 250 94.5 372t262.5 122q181 0 280 -154l-88 -70q-40 55 -85 82t-107 27q-101 0 -163 -72t-69 -219q78 94 219 94q54 0 107.5 -18.5t100 -53.5t75.5 -92.5t29 -128.5q0 -143 -88 -227t-222 -84
q-79 0 -139 20.5t-108 67t-73.5 130.5t-25.5 204zM666 565q0 -86 54.5 -133t137.5 -47t138 47t55 133t-55 134.5t-138 48.5q-81 0 -136.5 -47t-55.5 -136z" />
    <glyph glyph-name="uni2466" unicode="&#x2466;" horiz-adv-x="1712" 
d="M856 -20q-210 0 -384.5 96t-276 268t-101.5 385q0 160 60 300t162 238.5t242.5 155t297.5 56.5t297.5 -56.5t242.5 -155t162 -238.5t60 -300q0 -213 -101.5 -385t-276 -268t-384.5 -96zM205 729q0 -188 89 -336t237 -227.5t325 -79.5t325 79.5t237 227.5t89 336t-89 336
t-237 227.5t-325 79.5t-325 -79.5t-237 -227.5t-89 -336zM575 1057v110h609v-65l-377 -826h-137l358 781h-453z" />
    <glyph glyph-name="uni2467" unicode="&#x2467;" horiz-adv-x="1712" 
d="M856 -20q-210 0 -384.5 96t-276 268t-101.5 385q0 160 60 300t162 238.5t242.5 155t297.5 56.5t297.5 -56.5t242.5 -155t162 -238.5t60 -300q0 -213 -101.5 -385t-276 -268t-384.5 -96zM205 729q0 -188 89 -336t237 -227.5t325 -79.5t325 79.5t237 227.5t89 336t-89 336
t-237 227.5t-325 79.5t-325 -79.5t-237 -227.5t-89 -336zM510 528q0 149 164 215q-58 24 -92.5 73t-34.5 118q0 110 85.5 177t223.5 67t223.5 -67t85.5 -177q0 -71 -33.5 -120t-91.5 -73q72 -28 117 -81.5t45 -131.5q0 -123 -96.5 -194.5t-249.5 -71.5t-249.5 71.5
t-96.5 194.5zM639 528q0 -73 57.5 -112t159.5 -39t159.5 39t57.5 112q0 71 -61 111.5t-156 40.5t-156 -40.5t-61 -111.5zM678 934q0 -62 49 -96.5t129 -34.5t129 34.5t49 96.5q0 60 -49 94.5t-129 34.5t-129 -34.5t-49 -94.5z" />
    <glyph glyph-name="uni2468" unicode="&#x2468;" horiz-adv-x="1712" 
d="M856 -20q-210 0 -384.5 96t-276 268t-101.5 385q0 160 60 300t162 238.5t242.5 155t297.5 56.5t297.5 -56.5t242.5 -155t162 -238.5t60 -300q0 -213 -101.5 -385t-276 -268t-384.5 -96zM205 729q0 -188 89 -336t237 -227.5t325 -79.5t325 79.5t237 227.5t89 336t-89 336
t-237 227.5t-325 79.5t-325 -79.5t-237 -227.5t-89 -336zM508 479l108 62q37 -90 96 -126t144 -36q103 0 167 81.5t69 231.5q-77 -92 -226 -92q-135 0 -226 74.5t-91 214.5t91 215.5t224 75.5q57 0 106 -11.5t95 -41.5t78 -76t51.5 -120t19.5 -169q0 -131 -27 -228.5
t-76 -155.5t-112 -86t-141 -28q-246 0 -350 215zM680 889q0 -86 56 -131t141 -45q84 0 141 45t57 131q0 85 -57 130.5t-141 45.5t-140.5 -45.5t-56.5 -130.5z" />
    <glyph glyph-name="uni24EA" unicode="&#x24ea;" horiz-adv-x="1712" 
d="M856 -20q-210 0 -384.5 96t-276 268t-101.5 385q0 160 60 300t162 238.5t242.5 155t297.5 56.5t297.5 -56.5t242.5 -155t162 -238.5t60 -300q0 -213 -101.5 -385t-276 -268t-384.5 -96zM205 729q0 -188 89 -336t237 -227.5t325 -79.5t325 79.5t237 227.5t89 336t-89 336
t-237 227.5t-325 79.5t-325 -79.5t-237 -227.5t-89 -336zM494 723q0 215 97 336t265 121t265.5 -121t97.5 -336q0 -217 -97 -338t-266 -121q-168 0 -265 121t-97 338zM625 723q0 -159 62.5 -250.5t168.5 -91.5t168.5 91.5t62.5 250.5q0 158 -62.5 249t-168.5 91t-168.5 -91
t-62.5 -249z" />
    <glyph glyph-name="uni24FF" unicode="&#x24ff;" horiz-adv-x="1712" 
d="M856 -20q210 0 384.5 96t276 268t101.5 385q0 160 -60 300t-162 238.5t-242.5 155t-297.5 56.5t-297.5 -56.5t-242.5 -155t-162 -238.5t-60 -300q0 -213 101.5 -385t276 -268t384.5 -96zM494 723q0 215 97 336t265 121t265.5 -121t97.5 -336q0 -217 -97 -338t-266 -121
q-168 0 -265 121t-97 338zM625 723q0 -159 62.5 -250.5t168.5 -91.5t168.5 91.5t62.5 250.5q0 158 -62.5 249t-168.5 91t-168.5 -91t-62.5 -249z" />
    <glyph glyph-name="lozenge" unicode="&#x25ca;" horiz-adv-x="1212" 
d="M541 0l-467 729l467 729h133l465 -729l-465 -729h-133zM247 729l357 -569l357 569l-357 569z" />
    <glyph glyph-name="uni2776" unicode="&#x2776;" horiz-adv-x="1712" 
d="M811 276v779h-154l19 112h260v-891h-125zM94 729q0 -213 101.5 -385t276 -268t384.5 -96t384.5 96t276 268t101.5 385q0 160 -60 300t-162 238.5t-242.5 155t-297.5 56.5t-297.5 -56.5t-242.5 -155t-162 -238.5t-60 -300z" />
    <glyph glyph-name="uni2777" unicode="&#x2777;" horiz-adv-x="1712" 
d="M856 -20q210 0 384.5 96t276 268t101.5 385q0 160 -60 300t-162 238.5t-242.5 155t-297.5 56.5t-297.5 -56.5t-242.5 -155t-162 -238.5t-60 -300q0 -213 101.5 -385t276 -268t384.5 -96zM557 965q66 215 285 215q123 0 203.5 -68.5t80.5 -187.5q0 -36 -6 -68.5t-24 -67
t-28.5 -54t-44 -57.5t-44.5 -50t-53 -56l-178 -184h430v-111h-617v93l283 293q80 82 115.5 139t35.5 121q0 68 -42.5 105.5t-110.5 37.5q-63 0 -105.5 -35.5t-60.5 -101.5z" />
    <glyph glyph-name="uni2778" unicode="&#x2778;" horiz-adv-x="1712" 
d="M858 264q-143 0 -237.5 72t-104.5 194l125 23q9 -82 64.5 -128t152.5 -46q88 0 141.5 44.5t53.5 117.5q0 72 -58 109.5t-149 37.5h-84v111h84q76 0 122 37.5t46 101.5q0 57 -45 92t-119 35q-57 0 -100 -29.5t-62 -77.5l-113 37q30 85 103 135t174 50q126 0 208.5 -66
t82.5 -168q0 -71 -35 -121t-96 -75q80 -23 125 -77t45 -138q0 -123 -91 -197t-233 -74zM94 729q0 -213 101.5 -385t276 -268t384.5 -96t384.5 96t276 268t101.5 385q0 160 -60 300t-162 238.5t-242.5 155t-297.5 56.5t-297.5 -56.5t-242.5 -155t-162 -238.5t-60 -300z" />
    <glyph glyph-name="uni2779" unicode="&#x2779;" horiz-adv-x="1712" 
d="M856 -20q210 0 384.5 96t276 268t101.5 385q0 160 -60 300t-162 238.5t-242.5 155t-297.5 56.5t-297.5 -56.5t-242.5 -155t-162 -238.5t-60 -300q0 -213 101.5 -385t276 -268t384.5 -96zM457 481v97l456 589h123v-575h150v-111h-150v-205h-123v205h-456zM608 592h305v397
z" />
    <glyph glyph-name="uni277A" unicode="&#x277a;" horiz-adv-x="1712" 
d="M866 264q-112 0 -195.5 52.5t-117.5 156.5l113 45q20 -68 74 -103.5t126 -35.5q78 0 133.5 46.5t55.5 137.5q0 92 -58 143.5t-143 51.5q-45 0 -89.5 -19t-66.5 -47l-108 17l53 458h494v-110h-387l-27 -230q65 45 147 45q140 0 228 -82.5t88 -226.5q0 -139 -94 -219
t-226 -80zM94 729q0 -213 101.5 -385t276 -268t384.5 -96t384.5 96t276 268t101.5 385q0 160 -60 300t-162 238.5t-242.5 155t-297.5 56.5t-297.5 -56.5t-242.5 -155t-162 -238.5t-60 -300z" />
    <glyph glyph-name="uni277B" unicode="&#x277b;" horiz-adv-x="1712" 
d="M856 -20q210 0 384.5 96t276 268t101.5 385q0 160 -60 300t-162 238.5t-242.5 155t-297.5 56.5t-297.5 -56.5t-242.5 -155t-162 -238.5t-60 -300q0 -213 101.5 -385t276 -268t384.5 -96zM524 686q0 250 94.5 372t262.5 122q181 0 280 -154l-88 -70q-40 55 -85 82t-107 27
q-101 0 -163 -72t-69 -219q78 94 219 94q54 0 107.5 -18.5t100 -53.5t75.5 -92.5t29 -128.5q0 -143 -88 -227t-222 -84q-79 0 -139 20.5t-108 67t-73.5 130.5t-25.5 204zM666 565q0 -86 54.5 -133t137.5 -47t138 47t55 133t-55 134.5t-138 48.5q-81 0 -136.5 -47t-55.5 -136
z" />
    <glyph glyph-name="uni277C" unicode="&#x277c;" horiz-adv-x="1712" 
d="M856 -20q210 0 384.5 96t276 268t101.5 385q0 160 -60 300t-162 238.5t-242.5 155t-297.5 56.5t-297.5 -56.5t-242.5 -155t-162 -238.5t-60 -300q0 -213 101.5 -385t276 -268t384.5 -96zM575 1057v110h609v-65l-377 -826h-137l358 781h-453z" />
    <glyph glyph-name="uni277D" unicode="&#x277d;" horiz-adv-x="1712" 
d="M856 262q-153 0 -249.5 71.5t-96.5 194.5q0 149 164 215q-58 24 -92.5 73t-34.5 118q0 110 85.5 177t223.5 67t223.5 -67t85.5 -177q0 -71 -33.5 -120t-91.5 -73q72 -28 117 -81.5t45 -131.5q0 -123 -96.5 -194.5t-249.5 -71.5zM94 729q0 -213 101.5 -385t276 -268
t384.5 -96t384.5 96t276 268t101.5 385q0 160 -60 300t-162 238.5t-242.5 155t-297.5 56.5t-297.5 -56.5t-242.5 -155t-162 -238.5t-60 -300zM639 528q0 -73 57.5 -112t159.5 -39t159.5 39t57.5 112q0 71 -61 111.5t-156 40.5t-156 -40.5t-61 -111.5zM678 934
q0 -62 49 -96.5t129 -34.5t129 34.5t49 96.5q0 60 -49 94.5t-129 34.5t-129 -34.5t-49 -94.5z" />
    <glyph glyph-name="uni277E" unicode="&#x277e;" horiz-adv-x="1712" 
d="M856 -20q210 0 384.5 96t276 268t101.5 385q0 160 -60 300t-162 238.5t-242.5 155t-297.5 56.5t-297.5 -56.5t-242.5 -155t-162 -238.5t-60 -300q0 -213 101.5 -385t276 -268t384.5 -96zM508 479l108 62q37 -90 96 -126t144 -36q103 0 167 81.5t69 231.5
q-77 -92 -226 -92q-135 0 -226 74.5t-91 214.5t91 215.5t224 75.5q57 0 106 -11.5t95 -41.5t78 -76t51.5 -120t19.5 -169q0 -131 -27 -228.5t-76 -155.5t-112 -86t-141 -28q-246 0 -350 215zM680 889q0 -86 56 -131t141 -45q84 0 141 45t57 131q0 85 -57 130.5t-141 45.5
t-140.5 -45.5t-56.5 -130.5z" />
    <glyph glyph-name="uniA78B" unicode="&#xa78b;" horiz-adv-x="475" 
d="M199 723l-35 256v479h147v-479l-35 -256h-77z" />
    <glyph glyph-name="uniA78C" unicode="&#xa78c;" horiz-adv-x="425" 
d="M174 801l-35 256v479h147v-479l-35 -256h-77z" />
    </font>
</defs>
</svg>
